<svg xmlns="http://www.w3.org/2000/svg" class="icon icon-tabler icon-tabler-accessible" width="24" height="24" viewBox="0 0 24 24" stroke-width="1" stroke="currentColor" fill="none" stroke-linecap="round" stroke-linejoin="round"><path d="M10.900 2.564 C 9.092 2.784,7.444 3.481,6.020 4.628 C 4.323 5.995,3.091 8.034,2.679 10.160 C 2.468 11.247,2.468 12.755,2.679 13.840 C 3.019 15.591,3.905 17.278,5.170 18.585 C 6.746 20.212,8.748 21.195,10.991 21.441 C 11.569 21.505,12.996 21.471,13.520 21.382 C 16.578 20.862,19.166 18.939,20.519 16.180 C 21.189 14.815,21.480 13.549,21.480 12.000 C 21.480 10.487,21.202 9.243,20.562 7.900 C 19.798 6.294,18.506 4.858,16.968 3.907 C 15.800 3.185,14.424 2.710,13.072 2.562 C 12.621 2.513,11.309 2.514,10.900 2.564 M13.160 3.581 C 14.081 3.712,14.852 3.948,15.700 4.360 C 16.622 4.807,17.277 5.273,18.002 5.998 C 19.251 7.248,20.028 8.728,20.365 10.500 C 20.470 11.053,20.512 12.362,20.444 12.946 C 20.245 14.630,19.576 16.182,18.485 17.486 C 17.115 19.122,15.119 20.188,12.946 20.444 C 12.362 20.512,11.053 20.470,10.500 20.365 C 7.839 19.860,5.635 18.221,4.428 15.851 C 4.054 15.115,3.799 14.359,3.635 13.500 C 3.515 12.874,3.486 11.525,3.577 10.868 C 4.105 7.087,7.016 4.152,10.800 3.585 C 11.320 3.507,12.623 3.505,13.160 3.581 M11.617 6.577 C 11.434 6.656,11.207 6.871,11.109 7.056 C 10.988 7.285,10.988 7.715,11.109 7.944 C 11.209 8.134,11.437 8.346,11.626 8.425 C 11.795 8.496,12.205 8.496,12.374 8.425 C 12.563 8.346,12.791 8.134,12.891 7.944 C 12.956 7.821,12.978 7.710,12.978 7.500 C 12.978 7.290,12.956 7.179,12.891 7.056 C 12.791 6.866,12.563 6.654,12.374 6.575 C 12.208 6.505,11.778 6.506,11.617 6.577 M8.768 10.067 C 8.537 10.181,8.448 10.505,8.579 10.758 C 8.660 10.914,8.796 10.971,10.230 11.446 L 11.480 11.859 11.480 12.620 L 11.480 13.380 10.500 14.851 C 9.627 16.162,9.520 16.340,9.520 16.483 C 9.520 16.572,9.546 16.695,9.578 16.757 C 9.640 16.876,9.854 17.000,10.000 17.000 C 10.250 17.000,10.327 16.910,11.162 15.658 C 11.608 14.988,11.985 14.440,12.000 14.440 C 12.015 14.440,12.392 14.988,12.838 15.658 C 13.673 16.910,13.750 17.000,14.000 17.000 C 14.146 17.000,14.360 16.876,14.422 16.757 C 14.454 16.695,14.480 16.572,14.480 16.483 C 14.480 16.340,14.373 16.162,13.500 14.851 L 12.520 13.380 12.520 12.620 L 12.520 11.859 13.770 11.446 C 15.204 10.971,15.340 10.914,15.421 10.758 C 15.496 10.613,15.496 10.388,15.422 10.243 C 15.359 10.123,15.145 10.000,14.997 10.000 C 14.947 10.000,14.252 10.217,13.453 10.483 L 12.000 10.966 10.547 10.483 C 9.748 10.217,9.050 10.000,8.997 10.001 C 8.944 10.001,8.841 10.031,8.768 10.067 " stroke="none" fill="black" fill-rule="evenodd"></path></svg>