<svg xmlns="http://www.w3.org/2000/svg" id="Outline" viewBox="0 0 512 512" width="512" height="512"><path d="M36.169,415.023C39.835,417.023,126.983,464,216,464a339.5,339.5,0,0,0,80.81-10.243,137.986,137.986,0,0,0,14,13.784c27.37,23.35,54.717,28.155,55.868,28.349a8.023,8.023,0,0,0,2.648,0c1.151-.194,28.5-5,55.868-28.349a144.125,144.125,0,0,0,37.854-51.124C474.3,391.4,480,361.653,480,328a8,8,0,0,0-2.868-6.137C466.8,313.225,440,285.991,440,264a8,8,0,0,0-8-8H349.567c-24.36-29.42-55.356-49.407-90.007-58.465a96,96,0,1,0-87.032.044c-33.16,8.7-63.155,27.408-87.009,54.772C51.007,291.941,32,347.218,32,408A8,8,0,0,0,36.169,415.023ZM424.725,272c4.654,26.363,30.444,51.629,39.252,59.6-.384,29.643-5.521,55.776-15.285,77.721a128.554,128.554,0,0,1-33.254,45.5c-20.832,18.022-42.013,23.768-47.436,25-5.457-1.245-26.623-7-47.44-25a128.554,128.554,0,0,1-33.254-45.5c-9.764-21.945-14.9-48.078-15.285-77.721,8.808-7.972,34.6-33.238,39.252-59.6ZM136,112a80,80,0,1,1,80,80A80.091,80.091,0,0,1,136,112ZM97.58,262.865C128.422,227.485,170.478,208,216,208c42.753,0,81.975,16.925,112.1,48H304a8,8,0,0,0-8,8c0,21.923-26.807,49.2-37.132,57.863A8,8,0,0,0,256,328c0,33.653,5.7,63.4,16.954,88.417a152.8,152.8,0,0,0,13.087,23.437A319.507,319.507,0,0,1,216,448c-74.188,0-149.593-35.583-167.958-44.844C49.013,348.164,66.517,298.5,97.58,262.865Z"/><path d="M344,408a8,8,0,0,0,8,8h32a8,8,0,0,0,8-8V373.159a32,32,0,1,0-48,0Zm24-72a16,16,0,0,1,10.664,27.923A8,8,0,0,0,376,369.884V400H360V369.884a8,8,0,0,0-2.664-5.961A16,16,0,0,1,368,336Z"/></svg>
