<svg xmlns="http://www.w3.org/2000/svg" class="icon icon-tabler icon-tabler-activity" width="24" height="24" viewBox="0 0 24 24" stroke-width="1" stroke="currentColor" fill="none" stroke-linecap="round" stroke-linejoin="round"><path d="M9.681 3.630 C 9.578 3.724,9.344 4.317,8.106 7.620 L 6.652 11.500 4.703 11.520 L 2.753 11.540 2.637 11.671 C 2.541 11.778,2.520 11.837,2.520 12.000 C 2.520 12.249,2.659 12.426,2.900 12.481 C 3.107 12.529,6.891 12.530,7.096 12.482 C 7.182 12.462,7.294 12.404,7.345 12.353 C 7.407 12.291,7.839 11.189,8.659 9.003 C 9.331 7.212,9.887 5.740,9.895 5.732 C 9.903 5.724,10.725 8.980,11.722 12.969 C 13.494 20.062,13.537 20.223,13.663 20.350 C 13.774 20.462,13.819 20.480,13.993 20.480 C 14.377 20.480,14.264 20.724,15.885 16.401 L 17.340 12.520 19.140 12.519 C 20.130 12.519,21.012 12.501,21.100 12.481 C 21.343 12.425,21.480 12.250,21.480 11.995 C 21.480 11.817,21.463 11.775,21.344 11.656 L 21.208 11.520 19.005 11.520 L 16.801 11.520 16.681 11.630 C 16.579 11.723,16.374 12.237,15.340 14.997 C 14.669 16.788,14.113 18.260,14.105 18.268 C 14.097 18.276,13.275 15.020,12.278 11.031 C 10.506 3.938,10.463 3.777,10.337 3.650 C 10.225 3.537,10.181 3.520,10.005 3.520 C 9.839 3.520,9.779 3.540,9.681 3.630 " stroke="none" fill="black" fill-rule="evenodd"></path></svg>