<svg xmlns="http://www.w3.org/2000/svg" class="icon icon-tabler icon-tabler-ad" width="24" height="24" viewBox="0 0 24 24" stroke-width="1" stroke="currentColor" fill="none" stroke-linecap="round" stroke-linejoin="round"><path d="M4.274 4.615 C 3.870 4.734,3.561 4.922,3.242 5.242 C 2.922 5.561,2.739 5.864,2.603 6.294 L 2.500 6.620 2.500 11.980 C 2.500 17.054,2.504 17.354,2.573 17.600 C 2.834 18.527,3.444 19.141,4.386 19.426 C 4.605 19.493,5.062 19.498,11.700 19.510 C 16.315 19.519,18.922 19.509,19.189 19.482 C 20.305 19.371,21.121 18.684,21.427 17.600 C 21.496 17.354,21.500 17.054,21.500 12.000 C 21.500 6.946,21.496 6.646,21.427 6.400 C 21.196 5.582,20.666 4.982,19.900 4.670 L 19.580 4.540 12.080 4.532 L 4.580 4.524 4.274 4.615 M19.641 5.649 C 19.924 5.787,20.213 6.076,20.351 6.359 L 20.460 6.580 20.460 12.000 L 20.460 17.420 20.350 17.644 C 20.220 17.909,19.874 18.252,19.626 18.362 C 19.530 18.404,19.327 18.457,19.176 18.479 C 18.799 18.533,5.201 18.533,4.820 18.478 C 4.666 18.456,4.449 18.394,4.339 18.341 C 4.075 18.212,3.784 17.918,3.649 17.641 L 3.540 17.420 3.530 12.052 C 3.519 6.827,3.521 6.678,3.597 6.479 C 3.743 6.093,4.083 5.749,4.468 5.599 C 4.654 5.526,4.900 5.524,12.040 5.532 L 19.420 5.540 19.641 5.649 M8.274 8.613 C 7.868 8.736,7.560 8.924,7.242 9.242 C 6.920 9.563,6.737 9.866,6.606 10.294 L 6.505 10.620 6.489 12.699 C 6.480 13.843,6.485 14.877,6.500 14.997 C 6.522 15.171,6.555 15.243,6.660 15.348 C 6.775 15.463,6.819 15.480,6.995 15.480 C 7.161 15.480,7.222 15.459,7.321 15.370 C 7.490 15.219,7.518 15.059,7.519 14.230 L 7.520 13.520 9.000 13.520 L 10.480 13.520 10.481 14.230 C 10.482 15.059,10.510 15.219,10.679 15.370 C 10.778 15.459,10.839 15.480,11.005 15.480 C 11.181 15.480,11.225 15.463,11.340 15.348 C 11.445 15.243,11.478 15.171,11.500 14.997 C 11.515 14.877,11.519 13.843,11.509 12.699 C 11.494 10.881,11.483 10.590,11.423 10.380 C 11.190 9.575,10.652 8.972,9.900 8.673 C 9.612 8.559,9.530 8.545,9.080 8.533 C 8.647 8.521,8.539 8.532,8.274 8.613 M16.679 8.630 C 16.605 8.696,16.541 8.804,16.519 8.900 C 16.499 8.988,16.481 9.668,16.481 10.411 L 16.480 11.762 16.350 11.695 C 15.856 11.439,15.109 11.462,14.541 11.750 C 14.286 11.879,13.879 12.286,13.750 12.541 C 13.439 13.155,13.439 13.845,13.750 14.459 C 13.879 14.715,14.286 15.121,14.543 15.251 C 14.984 15.475,15.141 15.499,16.182 15.499 C 17.234 15.500,17.271 15.493,17.429 15.251 C 17.495 15.151,17.501 14.932,17.512 12.182 C 17.519 10.553,17.513 9.122,17.498 9.002 C 17.478 8.828,17.446 8.758,17.340 8.652 C 17.225 8.537,17.181 8.520,17.005 8.520 C 16.839 8.520,16.778 8.541,16.679 8.630 M9.641 9.649 C 9.924 9.787,10.213 10.076,10.351 10.359 C 10.459 10.578,10.460 10.587,10.473 11.550 L 10.485 12.520 9.003 12.520 L 7.520 12.520 7.520 11.600 C 7.520 10.790,7.529 10.657,7.597 10.478 C 7.743 10.094,8.081 9.752,8.468 9.597 C 8.766 9.478,9.345 9.503,9.641 9.649 M16.023 12.662 C 16.143 12.736,16.264 12.857,16.339 12.978 C 16.459 13.172,16.460 13.177,16.473 13.847 L 16.485 14.520 16.053 14.520 C 15.815 14.520,15.513 14.502,15.382 14.481 C 14.883 14.399,14.558 14.056,14.527 13.580 C 14.499 13.141,14.680 12.808,15.046 12.623 C 15.230 12.530,15.299 12.517,15.544 12.528 C 15.776 12.539,15.863 12.563,16.023 12.662 " stroke="none" fill="black" fill-rule="evenodd"></path></svg>