<svg xmlns="http://www.w3.org/2000/svg" class="icon icon-tabler icon-tabler-adjustments-horizontal" width="24" height="24" viewBox="0 0 24 24" stroke-width="1" stroke="currentColor" fill="none" stroke-linecap="round" stroke-linejoin="round"><path d="M13.274 3.613 C 12.514 3.843,11.896 4.440,11.642 5.189 L 11.536 5.500 7.645 5.520 L 3.753 5.540 3.637 5.671 C 3.541 5.778,3.520 5.837,3.520 6.000 C 3.520 6.249,3.659 6.426,3.900 6.481 C 3.992 6.502,5.663 6.518,7.805 6.519 L 11.550 6.520 11.643 6.808 C 11.871 7.518,12.483 8.127,13.207 8.364 C 13.459 8.447,13.576 8.460,14.040 8.459 C 14.549 8.458,14.598 8.450,14.888 8.334 C 15.601 8.048,16.139 7.488,16.359 6.803 L 16.450 6.520 18.195 6.519 C 19.155 6.519,20.012 6.501,20.100 6.481 C 20.343 6.425,20.480 6.250,20.480 5.995 C 20.480 5.817,20.463 5.775,20.344 5.656 L 20.208 5.520 18.343 5.520 L 16.478 5.520 16.443 5.430 C 16.424 5.380,16.362 5.214,16.305 5.060 C 16.085 4.470,15.530 3.921,14.900 3.673 C 14.613 3.559,14.529 3.545,14.080 3.533 C 13.647 3.521,13.539 3.532,13.274 3.613 M14.641 4.649 C 14.924 4.787,15.213 5.076,15.351 5.359 C 15.449 5.557,15.460 5.624,15.460 6.000 C 15.460 6.348,15.445 6.453,15.372 6.610 C 15.250 6.875,14.912 7.218,14.644 7.350 C 14.443 7.449,14.377 7.460,14.000 7.460 C 13.624 7.460,13.557 7.449,13.359 7.351 C 13.076 7.213,12.787 6.924,12.649 6.641 C 12.499 6.337,12.474 5.802,12.593 5.488 C 12.743 5.094,13.077 4.753,13.468 4.597 C 13.766 4.478,14.345 4.503,14.641 4.649 M7.274 9.613 C 6.514 9.843,5.896 10.441,5.642 11.189 L 5.536 11.500 4.645 11.520 L 3.753 11.540 3.637 11.671 C 3.541 11.778,3.520 11.837,3.520 12.000 C 3.520 12.160,3.541 12.222,3.630 12.321 C 3.782 12.491,3.941 12.518,4.805 12.519 L 5.550 12.520 5.643 12.808 C 5.871 13.518,6.483 14.127,7.207 14.364 C 7.459 14.447,7.576 14.460,8.040 14.459 C 8.549 14.458,8.598 14.450,8.888 14.334 C 9.601 14.048,10.139 13.488,10.359 12.803 L 10.450 12.520 15.195 12.519 C 17.949 12.518,20.007 12.503,20.100 12.481 C 20.343 12.425,20.480 12.250,20.480 11.995 C 20.480 11.817,20.463 11.775,20.344 11.656 L 20.208 11.520 15.343 11.520 L 10.478 11.520 10.443 11.430 C 10.424 11.380,10.362 11.214,10.305 11.060 C 10.085 10.470,9.530 9.921,8.900 9.673 C 8.613 9.559,8.529 9.545,8.080 9.533 C 7.647 9.521,7.539 9.532,7.274 9.613 M8.641 10.649 C 8.924 10.787,9.213 11.076,9.351 11.359 C 9.449 11.557,9.460 11.624,9.460 12.000 C 9.460 12.348,9.445 12.453,9.372 12.610 C 9.250 12.875,8.912 13.218,8.644 13.350 C 8.443 13.449,8.377 13.460,8.000 13.460 C 7.624 13.460,7.557 13.449,7.359 13.351 C 7.076 13.213,6.787 12.924,6.649 12.641 C 6.499 12.337,6.474 11.802,6.593 11.488 C 6.743 11.094,7.077 10.753,7.468 10.597 C 7.766 10.478,8.345 10.503,8.641 10.649 M16.274 15.613 C 15.514 15.843,14.896 16.440,14.642 17.189 L 14.536 17.500 9.145 17.520 L 3.753 17.540 3.637 17.671 C 3.541 17.778,3.520 17.837,3.520 18.000 C 3.520 18.249,3.659 18.426,3.900 18.481 C 3.993 18.503,6.246 18.518,9.305 18.519 L 14.550 18.520 14.643 18.808 C 14.871 19.518,15.483 20.127,16.207 20.364 C 16.459 20.447,16.576 20.460,17.040 20.459 C 17.549 20.458,17.598 20.450,17.888 20.334 C 18.601 20.048,19.139 19.488,19.359 18.803 L 19.450 18.520 19.695 18.519 C 20.248 18.517,20.480 18.362,20.480 17.995 C 20.480 17.817,20.463 17.775,20.344 17.656 C 20.209 17.521,20.205 17.520,19.843 17.520 C 19.502 17.520,19.476 17.514,19.443 17.430 C 19.424 17.381,19.362 17.214,19.305 17.060 C 19.085 16.470,18.530 15.921,17.900 15.673 C 17.613 15.559,17.529 15.545,17.080 15.533 C 16.647 15.521,16.539 15.532,16.274 15.613 M17.641 16.649 C 17.924 16.787,18.213 17.076,18.351 17.359 C 18.449 17.557,18.460 17.624,18.460 18.000 C 18.460 18.348,18.445 18.453,18.372 18.610 C 18.250 18.875,17.912 19.218,17.644 19.350 C 17.443 19.449,17.377 19.460,17.000 19.460 C 16.624 19.460,16.557 19.449,16.359 19.351 C 16.076 19.213,15.787 18.924,15.649 18.641 C 15.499 18.337,15.474 17.802,15.593 17.488 C 15.743 17.094,16.077 16.753,16.468 16.597 C 16.766 16.478,17.345 16.503,17.641 16.649 " stroke="none" fill="black" fill-rule="evenodd"></path></svg>