<svg xmlns="http://www.w3.org/2000/svg" class="icon icon-tabler icon-tabler-adjustments" width="24" height="24" viewBox="0 0 24 24" stroke-width="1" stroke="currentColor" fill="none" stroke-linecap="round" stroke-linejoin="round"><path d="M5.679 3.630 C 5.605 3.696,5.541 3.804,5.519 3.900 C 5.499 3.988,5.481 4.846,5.481 5.806 L 5.480 7.552 5.203 7.636 C 4.465 7.860,3.810 8.552,3.600 9.328 C 3.477 9.786,3.498 10.408,3.652 10.839 C 3.907 11.554,4.496 12.134,5.197 12.359 L 5.480 12.450 5.481 16.195 C 5.482 18.337,5.498 20.008,5.519 20.100 C 5.574 20.341,5.751 20.480,6.000 20.480 C 6.249 20.480,6.426 20.341,6.481 20.100 C 6.502 20.008,6.519 18.339,6.519 16.200 L 6.520 12.460 6.840 12.347 C 7.431 12.138,7.975 11.654,8.239 11.100 C 8.408 10.747,8.480 10.416,8.480 10.000 C 8.480 9.584,8.408 9.253,8.239 8.900 C 7.975 8.346,7.431 7.862,6.840 7.653 L 6.520 7.540 6.519 5.800 C 6.519 4.843,6.501 3.988,6.481 3.900 C 6.426 3.659,6.249 3.520,6.000 3.520 C 5.840 3.520,5.778 3.541,5.679 3.630 M11.679 3.630 C 11.605 3.696,11.541 3.804,11.519 3.900 C 11.497 3.993,11.482 6.052,11.481 8.806 L 11.480 13.552 11.203 13.636 C 10.465 13.860,9.810 14.552,9.600 15.328 C 9.477 15.786,9.498 16.408,9.652 16.839 C 9.907 17.554,10.496 18.134,11.197 18.359 L 11.480 18.450 11.481 19.195 C 11.482 20.059,11.509 20.218,11.679 20.370 C 11.853 20.527,12.147 20.527,12.321 20.370 C 12.491 20.218,12.518 20.059,12.519 19.200 L 12.520 18.460 12.840 18.347 C 13.431 18.138,13.975 17.654,14.239 17.100 C 14.408 16.747,14.480 16.416,14.480 16.000 C 14.480 15.584,14.408 15.253,14.239 14.900 C 13.975 14.346,13.431 13.862,12.840 13.653 L 12.520 13.540 12.519 8.800 C 12.519 6.050,12.503 3.993,12.481 3.900 C 12.426 3.659,12.249 3.520,12.000 3.520 C 11.840 3.520,11.778 3.541,11.679 3.630 M17.679 3.630 C 17.538 3.756,17.482 3.945,17.481 4.306 L 17.480 4.552 17.203 4.636 C 16.465 4.860,15.810 5.552,15.600 6.328 C 15.477 6.786,15.498 7.408,15.652 7.839 C 15.907 8.554,16.496 9.134,17.197 9.359 L 17.480 9.450 17.481 14.695 C 17.482 17.754,17.497 20.007,17.519 20.100 C 17.574 20.341,17.751 20.480,18.000 20.480 C 18.249 20.480,18.426 20.341,18.481 20.100 C 18.503 20.007,18.519 17.756,18.519 14.700 L 18.520 9.460 18.840 9.347 C 19.431 9.138,19.975 8.654,20.239 8.100 C 20.408 7.747,20.480 7.416,20.480 7.000 C 20.480 6.584,20.408 6.253,20.239 5.900 C 19.975 5.346,19.431 4.862,18.840 4.653 L 18.520 4.540 18.519 4.300 C 18.517 3.754,18.361 3.520,18.000 3.520 C 17.840 3.520,17.778 3.541,17.679 3.630 M18.641 5.649 C 18.924 5.787,19.213 6.076,19.351 6.359 C 19.449 6.557,19.460 6.624,19.460 7.000 C 19.460 7.348,19.445 7.453,19.372 7.610 C 19.250 7.875,18.912 8.218,18.644 8.350 C 18.443 8.449,18.377 8.460,18.000 8.460 C 17.624 8.460,17.557 8.449,17.359 8.351 C 17.076 8.213,16.787 7.924,16.649 7.641 C 16.499 7.337,16.474 6.802,16.593 6.488 C 16.743 6.094,17.077 5.753,17.468 5.597 C 17.766 5.478,18.345 5.503,18.641 5.649 M6.641 8.649 C 6.763 8.708,6.948 8.843,7.053 8.947 C 7.157 9.052,7.292 9.237,7.351 9.359 C 7.449 9.557,7.460 9.624,7.460 10.000 C 7.460 10.348,7.445 10.453,7.372 10.610 C 7.250 10.875,6.912 11.218,6.644 11.350 C 6.443 11.449,6.377 11.460,6.000 11.460 C 5.624 11.460,5.557 11.449,5.359 11.351 C 5.076 11.213,4.787 10.924,4.649 10.641 C 4.499 10.337,4.474 9.802,4.593 9.488 C 4.743 9.094,5.077 8.753,5.468 8.597 C 5.766 8.478,6.345 8.503,6.641 8.649 M12.641 14.649 C 12.924 14.787,13.213 15.076,13.351 15.359 C 13.449 15.557,13.460 15.624,13.460 16.000 C 13.460 16.348,13.445 16.453,13.372 16.610 C 13.250 16.875,12.912 17.218,12.644 17.350 C 12.443 17.449,12.377 17.460,12.000 17.460 C 11.624 17.460,11.557 17.449,11.359 17.351 C 11.076 17.213,10.787 16.924,10.649 16.641 C 10.499 16.337,10.474 15.802,10.593 15.488 C 10.743 15.094,11.077 14.753,11.468 14.597 C 11.766 14.478,12.345 14.503,12.641 14.649 " stroke="none" fill="black" fill-rule="evenodd"></path></svg>