<svg xmlns="http://www.w3.org/2000/svg" class="icon icon-tabler icon-tabler-adjustments-alt" width="24" height="24" viewBox="0 0 24 24" stroke-width="1" stroke="currentColor" fill="none" stroke-linecap="round" stroke-linejoin="round"><path d="M5.679 3.630 C 5.605 3.696,5.541 3.804,5.519 3.900 C 5.499 3.988,5.481 4.838,5.481 5.790 L 5.480 7.520 4.636 7.520 L 3.792 7.520 3.660 7.652 C 3.555 7.757,3.522 7.828,3.501 8.002 C 3.487 8.122,3.481 9.103,3.487 10.182 C 3.499 11.976,3.506 12.153,3.571 12.251 C 3.723 12.484,3.785 12.499,4.668 12.514 L 5.480 12.527 5.481 16.234 C 5.481 18.352,5.498 20.009,5.519 20.100 C 5.574 20.341,5.751 20.480,6.000 20.480 C 6.249 20.480,6.426 20.341,6.481 20.100 C 6.502 20.009,6.519 18.352,6.519 16.234 L 6.520 12.527 7.332 12.514 C 8.215 12.499,8.277 12.484,8.429 12.251 C 8.494 12.153,8.501 11.976,8.513 10.182 C 8.519 9.103,8.513 8.122,8.499 8.002 C 8.478 7.828,8.445 7.757,8.340 7.652 L 8.208 7.520 7.364 7.520 L 6.520 7.520 6.519 5.790 C 6.519 4.838,6.501 3.988,6.481 3.900 C 6.426 3.659,6.249 3.520,6.000 3.520 C 5.840 3.520,5.778 3.541,5.679 3.630 M11.679 3.630 C 11.605 3.696,11.541 3.804,11.519 3.900 C 11.497 3.993,11.482 6.046,11.481 8.790 L 11.480 13.520 10.636 13.520 L 9.792 13.520 9.660 13.652 C 9.555 13.757,9.522 13.828,9.501 14.002 C 9.487 14.122,9.481 15.103,9.487 16.182 C 9.499 17.976,9.506 18.153,9.571 18.251 C 9.723 18.484,9.785 18.499,10.668 18.514 L 11.480 18.527 11.481 19.234 C 11.482 20.059,11.510 20.219,11.679 20.370 C 11.853 20.527,12.147 20.527,12.321 20.370 C 12.490 20.219,12.518 20.059,12.519 19.234 L 12.520 18.527 13.332 18.514 C 14.215 18.499,14.277 18.484,14.429 18.251 C 14.494 18.153,14.501 17.976,14.513 16.182 C 14.519 15.103,14.513 14.122,14.499 14.002 C 14.478 13.828,14.445 13.757,14.340 13.652 L 14.208 13.520 13.364 13.520 L 12.520 13.520 12.519 8.790 C 12.518 6.046,12.503 3.993,12.481 3.900 C 12.426 3.659,12.249 3.520,12.000 3.520 C 11.840 3.520,11.778 3.541,11.679 3.630 M17.679 3.630 C 17.539 3.755,17.482 3.945,17.481 4.290 L 17.480 4.520 16.636 4.520 L 15.792 4.520 15.660 4.652 C 15.555 4.757,15.522 4.828,15.501 5.002 C 15.487 5.122,15.481 6.103,15.487 7.182 C 15.499 8.976,15.506 9.153,15.571 9.251 C 15.723 9.484,15.785 9.499,16.668 9.514 L 17.480 9.527 17.481 14.734 C 17.482 17.769,17.497 20.007,17.519 20.100 C 17.574 20.341,17.751 20.480,18.000 20.480 C 18.249 20.480,18.426 20.341,18.481 20.100 C 18.503 20.007,18.518 17.769,18.519 14.734 L 18.520 9.527 19.332 9.514 C 20.215 9.499,20.277 9.484,20.429 9.251 C 20.494 9.153,20.501 8.976,20.513 7.182 C 20.519 6.103,20.513 5.122,20.499 5.002 C 20.478 4.828,20.445 4.757,20.340 4.652 L 20.208 4.520 19.364 4.520 L 18.520 4.520 18.519 4.290 C 18.517 3.755,18.358 3.520,18.000 3.520 C 17.840 3.520,17.778 3.541,17.679 3.630 M19.480 7.018 L 19.480 8.516 18.000 8.516 L 16.520 8.516 16.520 7.018 L 16.520 5.520 18.000 5.520 L 19.480 5.520 19.480 7.018 M7.480 10.018 L 7.480 11.516 6.000 11.516 L 4.520 11.516 4.520 10.018 L 4.520 8.520 6.000 8.520 L 7.480 8.520 7.480 10.018 M13.480 16.018 L 13.480 17.516 12.000 17.516 L 10.520 17.516 10.520 16.018 L 10.520 14.520 12.000 14.520 L 13.480 14.520 13.480 16.018 " stroke="none" fill="black" fill-rule="evenodd"></path></svg>