<svg xmlns="http://www.w3.org/2000/svg" class="icon icon-tabler icon-tabler-alarm" width="24" height="24" viewBox="0 0 24 24" stroke-width="1" stroke="currentColor" fill="none" stroke-linecap="round" stroke-linejoin="round"><path d="M5.375 4.560 C 4.586 5.132,3.900 5.656,3.850 5.726 C 3.746 5.872,3.734 6.073,3.820 6.240 C 3.907 6.409,4.033 6.480,4.245 6.480 C 4.416 6.480,4.473 6.451,4.886 6.154 C 6.395 5.071,7.335 4.373,7.403 4.287 C 7.456 4.220,7.480 4.126,7.480 3.991 C 7.480 3.818,7.462 3.774,7.344 3.656 C 7.226 3.538,7.182 3.520,7.009 3.520 C 6.813 3.520,6.794 3.532,5.375 4.560 M16.656 3.656 C 16.539 3.773,16.520 3.819,16.520 3.987 C 16.520 4.098,16.547 4.220,16.581 4.270 C 16.634 4.345,17.615 5.074,19.134 6.168 C 19.527 6.451,19.584 6.480,19.755 6.480 C 19.860 6.480,19.981 6.453,20.031 6.418 C 20.227 6.281,20.295 5.982,20.181 5.761 C 20.142 5.687,19.605 5.272,18.655 4.583 C 17.206 3.532,17.187 3.520,16.990 3.520 C 16.818 3.520,16.774 3.538,16.656 3.656 M10.900 5.583 C 7.617 6.086,5.064 8.648,4.582 11.925 C 4.501 12.479,4.501 13.521,4.582 14.075 C 4.706 14.919,4.952 15.680,5.346 16.441 C 6.460 18.592,8.528 20.066,10.925 20.418 C 11.465 20.497,12.525 20.498,13.076 20.419 C 16.064 19.995,18.530 17.762,19.278 14.805 C 19.550 13.730,19.550 12.270,19.278 11.195 C 19.028 10.206,18.594 9.300,17.981 8.487 C 16.793 6.911,15.014 5.856,13.076 5.581 C 12.556 5.507,11.390 5.508,10.900 5.583 M13.400 6.653 C 16.023 7.280,17.958 9.314,18.401 11.907 C 18.509 12.537,18.509 13.463,18.401 14.093 C 17.997 16.455,16.280 18.441,14.005 19.177 C 12.714 19.594,11.233 19.589,9.959 19.163 C 7.752 18.425,6.151 16.631,5.633 14.314 C 5.551 13.948,5.540 13.795,5.540 13.000 C 5.540 12.205,5.551 12.052,5.633 11.686 C 6.141 9.415,7.727 7.609,9.866 6.866 C 10.223 6.743,10.815 6.598,11.180 6.545 C 11.246 6.535,11.678 6.533,12.140 6.540 C 12.872 6.550,13.034 6.565,13.400 6.653 M11.660 9.652 C 11.480 9.832,11.472 9.931,11.487 11.682 C 11.504 13.639,11.399 13.494,12.818 13.513 C 14.032 13.530,14.174 13.514,14.348 13.340 C 14.463 13.225,14.480 13.182,14.480 13.000 C 14.480 12.817,14.464 12.776,14.344 12.656 L 14.208 12.520 13.364 12.520 L 12.520 12.520 12.519 11.290 C 12.519 10.614,12.501 9.988,12.481 9.900 C 12.425 9.657,12.250 9.520,11.995 9.520 C 11.819 9.520,11.775 9.537,11.660 9.652 " stroke="none" fill="black" fill-rule="evenodd"></path></svg>