<svg xmlns="http://www.w3.org/2000/svg" class="icon icon-tabler icon-tabler-alert-circle" width="24" height="24" viewBox="0 0 24 24" stroke-width="1" stroke="currentColor" fill="none" stroke-linecap="round" stroke-linejoin="round"><path d="M10.900 2.564 C 9.092 2.784,7.444 3.481,6.020 4.628 C 4.323 5.995,3.091 8.034,2.679 10.160 C 2.468 11.247,2.468 12.755,2.679 13.840 C 3.019 15.591,3.905 17.278,5.170 18.585 C 6.746 20.212,8.748 21.195,10.991 21.441 C 11.569 21.505,12.996 21.471,13.520 21.382 C 16.578 20.862,19.166 18.939,20.519 16.180 C 21.189 14.815,21.480 13.549,21.480 12.000 C 21.480 10.487,21.202 9.243,20.562 7.900 C 19.798 6.294,18.506 4.858,16.968 3.907 C 15.800 3.185,14.424 2.710,13.072 2.562 C 12.621 2.513,11.309 2.514,10.900 2.564 M13.160 3.581 C 14.081 3.712,14.852 3.948,15.700 4.360 C 16.622 4.807,17.277 5.273,18.002 5.998 C 19.251 7.248,20.028 8.728,20.365 10.500 C 20.470 11.053,20.512 12.362,20.444 12.946 C 20.245 14.630,19.576 16.182,18.485 17.486 C 17.115 19.122,15.119 20.188,12.946 20.444 C 12.362 20.512,11.053 20.470,10.500 20.365 C 7.839 19.860,5.635 18.221,4.428 15.851 C 4.054 15.115,3.799 14.359,3.635 13.500 C 3.515 12.874,3.486 11.525,3.577 10.868 C 4.105 7.087,7.016 4.152,10.800 3.585 C 11.320 3.507,12.623 3.505,13.160 3.581 M11.679 7.630 C 11.605 7.696,11.541 7.804,11.519 7.900 C 11.471 8.109,11.471 11.891,11.519 12.100 C 11.574 12.341,11.751 12.480,12.000 12.480 C 12.249 12.480,12.426 12.341,12.481 12.100 C 12.529 11.891,12.529 8.109,12.481 7.900 C 12.426 7.659,12.249 7.520,12.000 7.520 C 11.840 7.520,11.778 7.541,11.679 7.630 M11.656 15.656 C 11.536 15.776,11.520 15.817,11.520 16.000 C 11.520 16.183,11.536 16.224,11.656 16.344 C 11.775 16.463,11.818 16.480,11.993 16.480 C 12.150 16.480,12.220 16.458,12.314 16.379 C 12.477 16.242,12.540 16.043,12.480 15.861 C 12.408 15.643,12.233 15.520,11.993 15.520 C 11.818 15.520,11.775 15.537,11.656 15.656 " stroke="none" fill="black" fill-rule="evenodd"></path></svg>