<svg xmlns="http://www.w3.org/2000/svg" class="icon icon-tabler icon-tabler-alien" width="24" height="24" viewBox="0 0 24 24" stroke-width="1" stroke="currentColor" fill="none" stroke-linecap="round" stroke-linejoin="round"><path d="M10.538 2.580 C 7.686 2.908,5.559 4.167,4.421 6.200 C 3.878 7.169,3.608 8.243,3.521 9.780 C 3.293 13.802,5.176 17.852,8.360 20.187 C 9.346 20.909,10.154 21.271,11.131 21.426 C 11.624 21.504,12.705 21.481,13.140 21.384 C 13.804 21.235,14.526 20.937,15.070 20.587 C 17.705 18.893,19.614 16.026,20.257 12.800 C 20.442 11.871,20.491 11.246,20.468 10.120 C 20.447 9.079,20.398 8.617,20.233 7.900 C 19.609 5.194,17.424 3.286,14.280 2.701 C 13.313 2.521,11.549 2.464,10.538 2.580 M13.720 3.618 C 15.016 3.827,16.073 4.213,16.961 4.803 C 17.423 5.110,18.178 5.853,18.461 6.280 C 19.228 7.438,19.511 8.667,19.468 10.660 C 19.453 11.358,19.425 11.759,19.365 12.131 C 18.860 15.231,17.190 17.927,14.740 19.597 C 13.819 20.225,13.027 20.480,12.000 20.480 C 10.974 20.480,10.213 20.236,9.275 19.605 C 8.116 18.825,7.201 17.890,6.376 16.640 C 5.031 14.600,4.379 12.182,4.523 9.767 C 4.643 7.755,5.141 6.521,6.267 5.437 C 7.324 4.422,8.743 3.812,10.600 3.577 C 11.200 3.502,13.154 3.527,13.720 3.618 M7.656 10.656 C 7.535 10.777,7.520 10.816,7.520 11.005 L 7.520 11.218 8.651 12.349 L 9.782 13.480 9.995 13.480 C 10.184 13.480,10.223 13.465,10.344 13.344 C 10.465 13.223,10.480 13.184,10.480 12.995 L 10.480 12.782 9.349 11.651 L 8.218 10.520 8.005 10.520 C 7.816 10.520,7.777 10.535,7.656 10.656 M14.651 11.651 L 13.520 12.782 13.520 12.995 C 13.520 13.184,13.535 13.223,13.656 13.344 C 13.777 13.465,13.816 13.480,14.005 13.480 L 14.218 13.480 15.349 12.349 L 16.480 11.218 16.480 11.005 C 16.480 10.816,16.465 10.777,16.344 10.656 C 16.223 10.535,16.184 10.520,15.995 10.520 L 15.782 10.520 14.651 11.651 M10.656 16.656 C 10.537 16.775,10.520 16.817,10.520 16.995 C 10.520 17.273,10.646 17.410,11.020 17.539 C 11.648 17.755,12.352 17.755,12.980 17.539 C 13.354 17.410,13.480 17.273,13.480 16.995 C 13.480 16.817,13.463 16.775,13.344 16.656 C 13.178 16.490,13.001 16.477,12.629 16.606 C 12.442 16.670,12.285 16.692,12.000 16.692 C 11.715 16.692,11.558 16.670,11.371 16.606 C 10.999 16.477,10.822 16.490,10.656 16.656 " stroke="none" fill="black" fill-rule="evenodd"></path></svg>