<svg xmlns="http://www.w3.org/2000/svg" class="icon icon-tabler icon-tabler-align-right" width="24" height="24" viewBox="0 0 24 24" stroke-width="1" stroke="currentColor" fill="none" stroke-linecap="round" stroke-linejoin="round"><path d="M3.656 5.656 C 3.537 5.775,3.520 5.817,3.520 5.995 C 3.520 6.250,3.657 6.425,3.900 6.481 C 4.114 6.531,19.886 6.531,20.100 6.481 C 20.343 6.425,20.480 6.250,20.480 5.995 C 20.480 5.817,20.463 5.775,20.344 5.656 L 20.208 5.520 12.000 5.520 L 3.792 5.520 3.656 5.656 M9.656 11.656 C 9.537 11.775,9.520 11.817,9.520 11.995 C 9.520 12.250,9.657 12.425,9.900 12.481 C 10.113 12.530,19.887 12.530,20.100 12.481 C 20.343 12.425,20.480 12.250,20.480 11.995 C 20.480 11.817,20.463 11.775,20.344 11.656 L 20.208 11.520 15.000 11.520 L 9.792 11.520 9.656 11.656 M5.656 17.656 C 5.537 17.775,5.520 17.817,5.520 17.995 C 5.520 18.250,5.657 18.425,5.900 18.481 C 6.114 18.530,19.886 18.530,20.100 18.481 C 20.343 18.425,20.480 18.250,20.480 17.995 C 20.480 17.817,20.463 17.775,20.344 17.656 L 20.208 17.520 13.000 17.520 L 5.792 17.520 5.656 17.656 " stroke="none" fill="black" fill-rule="evenodd"></path></svg>