<svg xmlns="http://www.w3.org/2000/svg" class="icon icon-tabler icon-tabler-anchor" width="24" height="24" viewBox="0 0 24 24" stroke-width="1" stroke="currentColor" fill="none" stroke-linecap="round" stroke-linejoin="round"><path d="M11.259 2.576 C 10.065 2.848,9.079 3.739,8.676 4.910 C 8.543 5.294,8.541 5.310,8.541 6.000 C 8.541 6.687,8.543 6.707,8.672 7.080 C 8.744 7.289,8.888 7.604,8.992 7.779 C 9.235 8.192,9.760 8.725,10.174 8.980 C 10.496 9.178,11.174 9.439,11.370 9.440 L 11.480 9.440 11.480 14.960 C 11.480 20.024,11.475 20.480,11.415 20.480 C 11.379 20.480,11.159 20.452,10.925 20.418 C 7.634 19.934,5.066 17.366,4.582 14.075 C 4.495 13.480,4.485 13.520,4.730 13.519 C 5.247 13.517,5.480 13.354,5.480 12.995 C 5.480 12.817,5.463 12.775,5.344 12.656 L 5.208 12.520 4.000 12.520 L 2.792 12.520 2.656 12.656 C 2.537 12.775,2.520 12.817,2.520 12.995 C 2.520 13.359,2.752 13.517,3.290 13.519 C 3.511 13.520,3.520 13.524,3.520 13.625 C 3.520 13.842,3.647 14.597,3.761 15.060 C 4.598 18.461,7.483 21.003,10.999 21.438 C 11.435 21.492,12.565 21.492,13.001 21.438 C 16.945 20.951,19.996 17.871,20.445 13.927 L 20.491 13.520 20.716 13.519 C 21.247 13.517,21.480 13.357,21.480 12.995 C 21.480 12.817,21.463 12.775,21.344 12.656 L 21.208 12.520 20.000 12.520 L 18.792 12.520 18.656 12.656 C 18.537 12.775,18.520 12.817,18.520 12.995 C 18.520 13.354,18.753 13.517,19.270 13.519 C 19.515 13.520,19.505 13.480,19.418 14.075 C 19.065 16.474,17.593 18.539,15.441 19.654 C 14.929 19.919,14.348 20.141,13.805 20.278 C 13.522 20.349,12.734 20.480,12.585 20.480 C 12.525 20.480,12.520 20.024,12.520 14.960 L 12.520 9.440 12.624 9.440 C 12.779 9.440,13.427 9.213,13.679 9.071 C 14.449 8.635,15.035 7.930,15.324 7.090 C 15.457 6.705,15.459 6.690,15.459 6.000 C 15.459 5.310,15.457 5.295,15.324 4.910 C 15.035 4.070,14.449 3.365,13.679 2.929 C 13.558 2.861,13.288 2.747,13.079 2.676 C 12.730 2.557,12.653 2.546,12.100 2.534 C 11.694 2.526,11.422 2.539,11.259 2.576 M12.834 3.640 C 13.142 3.749,13.615 4.059,13.818 4.283 C 14.048 4.538,14.266 4.898,14.368 5.192 C 14.446 5.421,14.460 5.540,14.460 6.000 C 14.460 6.460,14.446 6.579,14.368 6.808 C 14.190 7.320,13.844 7.765,13.378 8.076 C 12.916 8.385,12.647 8.460,12.000 8.460 C 11.540 8.460,11.421 8.446,11.192 8.368 C 10.898 8.266,10.538 8.048,10.283 7.818 C 10.058 7.615,9.749 7.141,9.640 6.834 C 9.516 6.481,9.484 5.763,9.577 5.399 C 9.803 4.515,10.484 3.821,11.360 3.581 C 11.694 3.489,12.500 3.522,12.834 3.640 " stroke="none" fill="black" fill-rule="evenodd"></path></svg>