<svg xmlns="http://www.w3.org/2000/svg" class="icon icon-tabler icon-tabler-aperture" width="24" height="24" viewBox="0 0 24 24" stroke-width="1" stroke="currentColor" fill="none" stroke-linecap="round" stroke-linejoin="round"><path d="M10.900 2.564 C 9.092 2.784,7.444 3.481,6.020 4.628 C 4.323 5.995,3.091 8.034,2.679 10.160 C 2.468 11.247,2.468 12.755,2.679 13.840 C 3.019 15.591,3.905 17.278,5.170 18.585 C 6.746 20.212,8.748 21.195,10.991 21.441 C 11.569 21.505,12.996 21.471,13.520 21.382 C 16.578 20.862,19.166 18.939,20.519 16.180 C 21.189 14.815,21.480 13.549,21.480 12.000 C 21.480 10.487,21.202 9.243,20.562 7.900 C 19.798 6.294,18.506 4.858,16.968 3.907 C 15.800 3.185,14.424 2.710,13.072 2.562 C 12.621 2.513,11.309 2.514,10.900 2.564 M13.160 3.581 C 14.064 3.710,14.836 3.944,15.680 4.347 L 16.220 4.605 16.101 4.693 C 15.102 5.428,8.743 10.036,8.737 10.029 C 8.729 10.021,7.219 5.379,7.142 5.131 C 7.119 5.053,7.155 5.015,7.428 4.837 C 7.814 4.584,8.575 4.208,9.080 4.021 C 9.538 3.851,10.281 3.662,10.800 3.585 C 11.320 3.507,12.623 3.505,13.160 3.581 M17.960 5.960 C 19.262 7.249,20.042 8.740,20.387 10.600 C 20.513 11.279,20.482 13.124,20.335 13.647 C 20.321 13.697,19.437 13.074,16.598 11.012 C 14.553 9.527,12.881 8.300,12.882 8.286 C 12.883 8.272,13.833 7.574,14.992 6.734 L 17.099 5.209 17.277 5.334 C 17.375 5.404,17.682 5.685,17.960 5.960 M7.716 10.141 C 8.488 12.518,9.120 14.475,9.120 14.491 C 9.120 14.507,7.942 14.520,6.502 14.520 L 3.883 14.520 3.820 14.310 C 3.733 14.015,3.611 13.402,3.562 13.001 C 3.501 12.510,3.511 11.332,3.581 10.840 C 3.831 9.057,4.632 7.412,5.890 6.096 C 6.143 5.831,6.263 5.731,6.283 5.768 C 6.299 5.796,6.944 7.765,7.716 10.141 M13.479 9.980 C 14.269 10.552,14.917 11.038,14.918 11.060 C 14.919 11.082,14.672 11.865,14.369 12.800 L 13.817 14.500 12.000 14.500 L 10.183 14.500 9.631 12.801 C 9.328 11.867,9.081 11.084,9.082 11.061 C 9.085 11.013,11.965 8.920,12.011 8.932 C 12.028 8.937,12.688 9.408,13.479 9.980 M17.880 13.183 C 19.013 14.008,19.964 14.698,19.993 14.715 C 20.110 14.785,19.558 15.979,19.075 16.700 C 17.930 18.411,16.297 19.600,14.296 20.180 C 13.891 20.298,13.009 20.462,12.973 20.427 C 12.948 20.401,15.767 11.681,15.800 11.681 C 15.811 11.681,16.747 12.357,17.880 13.183 M13.470 15.570 C 13.451 15.620,12.296 19.177,12.019 20.036 L 11.872 20.492 11.406 20.467 C 8.573 20.319,5.861 18.561,4.500 15.989 C 4.379 15.760,4.280 15.561,4.280 15.547 C 4.280 15.532,6.352 15.520,8.884 15.520 C 12.551 15.520,13.485 15.530,13.470 15.570 " stroke="none" fill="black" fill-rule="evenodd"></path></svg>