<svg xmlns="http://www.w3.org/2000/svg" class="icon icon-tabler icon-tabler-archive" width="24" height="24" viewBox="0 0 24 24" stroke-width="1" stroke="currentColor" fill="none" stroke-linecap="round" stroke-linejoin="round"><path d="M4.274 3.615 C 3.871 3.734,3.562 3.922,3.242 4.241 C 2.718 4.764,2.500 5.331,2.528 6.098 C 2.541 6.446,2.567 6.603,2.652 6.839 C 2.907 7.554,3.496 8.134,4.195 8.358 L 4.477 8.449 4.490 13.414 C 4.503 18.014,4.509 18.397,4.574 18.614 C 4.854 19.544,5.458 20.151,6.380 20.425 C 6.604 20.491,6.964 20.497,11.700 20.510 C 14.980 20.519,16.925 20.509,17.189 20.483 C 18.296 20.372,19.104 19.698,19.425 18.620 C 19.491 18.396,19.497 18.040,19.510 13.420 L 19.523 8.460 19.841 8.347 C 20.610 8.075,21.211 7.413,21.417 6.614 C 21.498 6.298,21.498 5.702,21.417 5.386 C 21.216 4.605,20.664 3.981,19.900 3.670 L 19.580 3.540 12.080 3.532 L 4.580 3.524 4.274 3.615 M19.641 4.649 C 19.924 4.787,20.213 5.076,20.351 5.359 C 20.449 5.557,20.460 5.624,20.460 6.000 C 20.460 6.377,20.449 6.443,20.350 6.644 C 20.218 6.912,19.873 7.252,19.618 7.365 C 19.518 7.409,19.280 7.462,19.088 7.482 C 18.624 7.531,5.369 7.530,4.904 7.481 C 4.473 7.436,4.215 7.320,3.947 7.053 C 3.655 6.761,3.543 6.495,3.526 6.060 C 3.516 5.772,3.529 5.657,3.593 5.488 C 3.743 5.093,4.080 4.750,4.468 4.599 C 4.654 4.526,4.900 4.524,12.040 4.532 L 19.420 4.540 19.641 4.649 M18.471 13.470 L 18.460 18.420 18.372 18.610 C 18.253 18.867,17.913 19.218,17.664 19.339 C 17.548 19.396,17.323 19.457,17.140 19.482 C 16.925 19.510,15.159 19.520,11.780 19.511 C 7.115 19.500,6.725 19.494,6.535 19.429 C 6.129 19.292,5.750 18.925,5.597 18.522 C 5.523 18.326,5.520 18.158,5.520 13.420 L 5.520 8.520 12.001 8.520 L 18.481 8.520 18.471 13.470 M9.656 11.656 C 9.537 11.775,9.520 11.817,9.520 11.995 C 9.520 12.250,9.657 12.425,9.900 12.481 C 10.109 12.529,13.891 12.529,14.100 12.481 C 14.343 12.425,14.480 12.250,14.480 11.995 C 14.480 11.817,14.463 11.775,14.344 11.656 L 14.208 11.520 12.000 11.520 L 9.792 11.520 9.656 11.656 " stroke="none" fill="black" fill-rule="evenodd"></path></svg>