<svg xmlns="http://www.w3.org/2000/svg" class="icon icon-tabler icon-tabler-arrow-down-circle" width="24" height="24" viewBox="0 0 24 24" stroke-width="1" stroke="currentColor" fill="none" stroke-linecap="round" stroke-linejoin="round"><path d="M10.900 2.564 C 9.092 2.784,7.444 3.481,6.020 4.628 C 4.323 5.995,3.091 8.034,2.679 10.160 C 2.468 11.247,2.468 12.755,2.679 13.840 C 3.019 15.591,3.905 17.278,5.170 18.585 C 6.746 20.212,8.748 21.195,10.991 21.441 C 11.569 21.505,12.996 21.471,13.520 21.382 C 16.578 20.862,19.166 18.939,20.519 16.180 C 21.189 14.815,21.480 13.549,21.480 12.000 C 21.480 10.487,21.202 9.243,20.562 7.900 C 19.798 6.294,18.506 4.858,16.968 3.907 C 15.800 3.185,14.424 2.710,13.072 2.562 C 12.621 2.513,11.309 2.514,10.900 2.564 M13.160 3.581 C 14.081 3.712,14.852 3.948,15.700 4.360 C 16.622 4.807,17.277 5.273,18.002 5.998 C 19.251 7.248,20.028 8.728,20.365 10.500 C 20.470 11.053,20.512 12.362,20.444 12.946 C 20.245 14.630,19.576 16.182,18.485 17.486 C 17.115 19.122,15.119 20.188,12.946 20.444 C 12.362 20.512,11.053 20.470,10.500 20.365 C 7.839 19.860,5.635 18.221,4.428 15.851 C 4.054 15.115,3.799 14.359,3.635 13.500 C 3.515 12.874,3.486 11.525,3.577 10.868 C 4.105 7.087,7.016 4.152,10.800 3.585 C 11.320 3.507,12.623 3.505,13.160 3.581 M11.679 7.630 C 11.605 7.696,11.541 7.804,11.519 7.900 C 11.498 7.991,11.481 9.513,11.481 11.419 L 11.480 14.779 9.849 13.149 L 8.218 11.520 8.005 11.520 C 7.816 11.520,7.777 11.535,7.656 11.656 C 7.535 11.777,7.520 11.816,7.520 12.005 L 7.520 12.218 9.570 14.280 C 10.697 15.415,11.685 16.383,11.765 16.431 C 11.949 16.543,12.051 16.543,12.235 16.431 C 12.315 16.383,13.303 15.415,14.430 14.280 L 16.480 12.218 16.480 12.005 C 16.480 11.816,16.465 11.777,16.344 11.656 C 16.223 11.535,16.184 11.520,15.995 11.520 L 15.782 11.520 14.151 13.149 L 12.520 14.779 12.519 11.419 C 12.519 9.513,12.502 7.991,12.481 7.900 C 12.426 7.659,12.249 7.520,12.000 7.520 C 11.840 7.520,11.778 7.541,11.679 7.630 " stroke="none" fill="black" fill-rule="evenodd"></path></svg>