<svg xmlns="http://www.w3.org/2000/svg" class="icon icon-tabler icon-tabler-arrow-right" width="24" height="24" viewBox="0 0 24 24" stroke-width="1" stroke="currentColor" fill="none" stroke-linecap="round" stroke-linejoin="round"><path d="M12.656 5.656 C 12.535 5.777,12.520 5.816,12.520 6.005 L 12.520 6.219 15.140 8.840 C 16.581 10.281,17.760 11.474,17.760 11.490 C 17.760 11.507,14.842 11.520,11.276 11.520 L 4.792 11.520 4.656 11.656 C 4.537 11.775,4.520 11.817,4.520 11.995 C 4.520 12.250,4.657 12.425,4.900 12.481 C 4.994 12.503,7.679 12.518,11.420 12.519 L 17.779 12.520 15.150 15.151 L 12.520 17.781 12.520 17.995 C 12.520 18.184,12.535 18.223,12.656 18.344 C 12.777 18.465,12.816 18.480,13.005 18.480 L 13.218 18.480 16.281 15.430 C 17.965 13.752,19.383 12.315,19.431 12.235 C 19.480 12.155,19.520 12.049,19.520 12.000 C 19.520 11.951,19.480 11.845,19.431 11.765 C 19.383 11.685,17.965 10.248,16.281 8.570 L 13.218 5.520 13.005 5.520 C 12.816 5.520,12.777 5.535,12.656 5.656 " stroke="none" fill="black" fill-rule="evenodd"></path></svg>