<svg xmlns="http://www.w3.org/2000/svg" class="icon icon-tabler icon-tabler-arrow-bar-left" width="24" height="24" viewBox="0 0 24 24" stroke-width="1" stroke="currentColor" fill="none" stroke-linecap="round" stroke-linejoin="round"><path d="M19.679 3.630 C 19.605 3.696,19.541 3.804,19.519 3.900 C 19.469 4.114,19.469 19.886,19.519 20.100 C 19.574 20.341,19.751 20.480,20.000 20.480 C 20.249 20.480,20.426 20.341,20.481 20.100 C 20.531 19.886,20.531 4.114,20.481 3.900 C 20.426 3.659,20.249 3.520,20.000 3.520 C 19.840 3.520,19.778 3.541,19.679 3.630 M5.653 9.650 C 4.221 11.083,3.516 11.816,3.498 11.890 C 3.483 11.950,3.483 12.050,3.498 12.110 C 3.516 12.184,4.221 12.917,5.653 14.350 L 7.781 16.480 7.994 16.480 C 8.184 16.480,8.223 16.465,8.344 16.344 C 8.465 16.223,8.480 16.184,8.480 15.995 L 8.480 15.782 6.851 14.151 L 5.221 12.520 9.581 12.519 C 12.099 12.518,14.008 12.502,14.100 12.481 C 14.343 12.425,14.480 12.250,14.480 11.995 C 14.480 11.817,14.463 11.775,14.344 11.656 L 14.208 11.520 9.724 11.520 C 7.258 11.520,5.240 11.507,5.240 11.491 C 5.240 11.475,5.969 10.731,6.860 9.840 L 8.480 8.218 8.480 8.005 C 8.480 7.816,8.465 7.777,8.344 7.656 C 8.223 7.535,8.184 7.520,7.994 7.520 L 7.781 7.520 5.653 9.650 " stroke="none" fill="black" fill-rule="evenodd"></path></svg>