<svg xmlns="http://www.w3.org/2000/svg" class="icon icon-tabler icon-tabler-arrows-horizontal" width="24" height="24" viewBox="0 0 24 24" stroke-width="1" stroke="currentColor" fill="none" stroke-linecap="round" stroke-linejoin="round"><path d="M4.671 9.630 C 3.196 11.103,2.547 11.778,2.517 11.870 C 2.486 11.963,2.486 12.037,2.517 12.130 C 2.547 12.222,3.196 12.897,4.671 14.370 L 6.782 16.480 6.995 16.480 C 7.184 16.480,7.223 16.465,7.344 16.344 C 7.465 16.223,7.480 16.184,7.480 15.995 L 7.480 15.782 5.851 14.151 L 4.221 12.520 12.000 12.520 L 19.779 12.520 18.149 14.151 L 16.520 15.782 16.520 15.995 C 16.520 16.184,16.535 16.223,16.656 16.344 C 16.777 16.465,16.816 16.480,17.005 16.480 L 17.218 16.480 19.329 14.370 C 20.804 12.897,21.453 12.222,21.483 12.130 C 21.514 12.037,21.514 11.963,21.483 11.870 C 21.453 11.778,20.804 11.103,19.329 9.630 L 17.218 7.520 17.005 7.520 C 16.816 7.520,16.777 7.535,16.656 7.656 C 16.535 7.777,16.520 7.816,16.520 8.005 L 16.520 8.218 18.140 9.840 C 19.031 10.731,19.760 11.475,19.760 11.491 C 19.760 11.507,16.268 11.520,12.000 11.520 C 7.732 11.520,4.240 11.507,4.240 11.491 C 4.240 11.475,4.969 10.731,5.860 9.840 L 7.480 8.218 7.480 8.005 C 7.480 7.816,7.465 7.777,7.344 7.656 C 7.223 7.535,7.184 7.520,6.995 7.520 L 6.782 7.520 4.671 9.630 " stroke="none" fill="black" fill-rule="evenodd"></path></svg>