<svg xmlns="http://www.w3.org/2000/svg" class="icon icon-tabler icon-tabler-arrow-down-right" width="24" height="24" viewBox="0 0 24 24" stroke-width="1" stroke="currentColor" fill="none" stroke-linecap="round" stroke-linejoin="round"><path d="M6.656 6.656 C 6.535 6.777,6.520 6.816,6.520 7.006 L 6.520 7.219 11.140 11.840 C 13.681 14.381,15.760 16.474,15.760 16.490 C 15.760 16.507,13.967 16.520,11.776 16.520 L 7.792 16.520 7.656 16.656 C 7.536 16.776,7.520 16.817,7.520 17.000 C 7.520 17.182,7.537 17.225,7.652 17.340 C 7.758 17.446,7.828 17.477,8.002 17.498 C 8.122 17.512,10.230 17.518,12.687 17.512 C 17.133 17.500,17.155 17.500,17.267 17.417 C 17.329 17.372,17.411 17.273,17.450 17.197 C 17.515 17.069,17.520 16.766,17.519 12.560 C 17.518 9.956,17.503 7.993,17.481 7.900 C 17.426 7.659,17.249 7.520,17.000 7.520 C 16.751 7.520,16.574 7.659,16.519 7.900 C 16.498 7.992,16.482 9.707,16.481 11.920 L 16.480 15.780 11.850 11.150 L 7.219 6.520 7.006 6.520 C 6.816 6.520,6.777 6.535,6.656 6.656 " stroke="none" fill="black" fill-rule="evenodd"></path></svg>