<svg xmlns="http://www.w3.org/2000/svg" class="icon icon-tabler icon-tabler-arrow-left" width="24" height="24" viewBox="0 0 24 24" stroke-width="1" stroke="currentColor" fill="none" stroke-linecap="round" stroke-linejoin="round"><path d="M7.653 8.650 C 5.526 10.778,4.516 11.815,4.498 11.890 C 4.483 11.950,4.483 12.050,4.498 12.110 C 4.516 12.185,5.526 13.222,7.653 15.350 L 10.781 18.480 10.994 18.480 C 11.184 18.480,11.223 18.465,11.344 18.344 C 11.465 18.223,11.480 18.184,11.480 17.995 L 11.480 17.781 8.850 15.151 L 6.221 12.520 12.580 12.519 C 16.321 12.518,19.006 12.503,19.100 12.481 C 19.343 12.425,19.480 12.250,19.480 11.995 C 19.480 11.817,19.463 11.775,19.344 11.656 L 19.208 11.520 12.724 11.520 C 9.158 11.520,6.240 11.507,6.240 11.490 C 6.240 11.474,7.419 10.281,8.860 8.840 L 11.480 6.219 11.480 6.005 C 11.480 5.816,11.465 5.777,11.344 5.656 C 11.223 5.535,11.184 5.520,10.994 5.520 L 10.781 5.520 7.653 8.650 " stroke="none" fill="black" fill-rule="evenodd"></path></svg>