<svg xmlns="http://www.w3.org/2000/svg" class="icon icon-tabler icon-tabler-arrow-bar-down" width="24" height="24" viewBox="0 0 24 24" stroke-width="1" stroke="currentColor" fill="none" stroke-linecap="round" stroke-linejoin="round"><path d="M3.656 3.656 C 3.537 3.775,3.520 3.817,3.520 3.995 C 3.520 4.250,3.657 4.425,3.900 4.481 C 4.114 4.531,19.886 4.531,20.100 4.481 C 20.343 4.425,20.480 4.250,20.480 3.995 C 20.480 3.817,20.463 3.775,20.344 3.656 L 20.208 3.520 12.000 3.520 L 3.792 3.520 3.656 3.656 M11.679 9.630 C 11.605 9.696,11.541 9.804,11.519 9.900 C 11.498 9.992,11.482 11.901,11.481 14.419 L 11.480 18.779 9.849 17.149 L 8.218 15.520 8.005 15.520 C 7.816 15.520,7.777 15.535,7.656 15.656 C 7.535 15.777,7.520 15.816,7.520 16.005 L 7.520 16.218 9.570 18.280 C 10.697 19.415,11.685 20.383,11.765 20.431 C 11.845 20.480,11.951 20.520,12.000 20.520 C 12.049 20.520,12.155 20.480,12.235 20.431 C 12.315 20.383,13.303 19.415,14.430 18.280 L 16.480 16.218 16.480 16.005 C 16.480 15.816,16.465 15.777,16.344 15.656 C 16.223 15.535,16.184 15.520,15.995 15.520 L 15.782 15.520 14.151 17.149 L 12.520 18.779 12.519 14.419 C 12.518 11.901,12.502 9.992,12.481 9.900 C 12.426 9.659,12.249 9.520,12.000 9.520 C 11.840 9.520,11.778 9.541,11.679 9.630 " stroke="none" fill="black" fill-rule="evenodd"></path></svg>