<svg xmlns="http://www.w3.org/2000/svg" class="icon icon-tabler icon-tabler-arrow-up-right" width="24" height="24" viewBox="0 0 24 24" stroke-width="1" stroke="currentColor" fill="none" stroke-linecap="round" stroke-linejoin="round"><path d="M12.327 6.518 L 7.753 6.540 7.637 6.671 C 7.541 6.778,7.520 6.837,7.520 7.000 C 7.520 7.249,7.659 7.426,7.900 7.481 C 7.992 7.502,9.707 7.518,11.920 7.519 L 15.780 7.520 11.150 12.150 L 6.520 16.781 6.520 16.994 C 6.520 17.184,6.535 17.223,6.656 17.344 C 6.777 17.465,6.816 17.480,7.006 17.480 L 7.219 17.480 11.850 12.850 L 16.480 8.220 16.481 12.080 C 16.482 14.293,16.498 16.008,16.519 16.100 C 16.574 16.341,16.751 16.480,17.000 16.480 C 17.249 16.480,17.426 16.341,17.481 16.100 C 17.503 16.007,17.518 14.044,17.519 11.440 C 17.520 7.234,17.515 6.931,17.450 6.803 C 17.360 6.626,17.214 6.521,17.039 6.507 C 16.963 6.501,14.842 6.506,12.327 6.518 " stroke="none" fill="black" fill-rule="evenodd"></path></svg>