<svg xmlns="http://www.w3.org/2000/svg" class="icon icon-tabler icon-tabler-arrow-narrow-up" width="24" height="24" viewBox="0 0 24 24" stroke-width="1" stroke="currentColor" fill="none" stroke-linecap="round" stroke-linejoin="round"><path d="M11.760 4.570 C 11.683 4.618,10.697 5.586,9.570 6.720 L 7.520 8.782 7.520 8.995 C 7.520 9.184,7.535 9.223,7.656 9.344 C 7.777 9.465,7.816 9.480,8.005 9.480 L 8.218 9.480 9.849 7.851 L 11.480 6.221 11.481 12.581 C 11.482 16.321,11.497 19.006,11.519 19.100 C 11.574 19.341,11.751 19.480,12.000 19.480 C 12.249 19.480,12.426 19.341,12.481 19.100 C 12.503 19.006,12.518 16.321,12.519 12.581 L 12.520 6.221 14.151 7.851 L 15.782 9.480 15.995 9.480 C 16.184 9.480,16.223 9.465,16.344 9.344 C 16.465 9.223,16.480 9.184,16.480 8.995 L 16.480 8.782 14.430 6.720 C 13.303 5.585,12.315 4.617,12.235 4.569 C 12.052 4.458,11.938 4.458,11.760 4.570 " stroke="none" fill="black" fill-rule="evenodd"></path></svg>