<svg xmlns="http://www.w3.org/2000/svg" class="icon icon-tabler icon-tabler-arrow-up-left" width="24" height="24" viewBox="0 0 24 24" stroke-width="1" stroke="currentColor" fill="none" stroke-linecap="round" stroke-linejoin="round"><path d="M6.803 6.548 C 6.727 6.588,6.628 6.671,6.583 6.733 C 6.500 6.845,6.500 6.867,6.488 11.313 C 6.482 13.770,6.488 15.878,6.502 15.998 C 6.523 16.172,6.554 16.242,6.660 16.348 C 6.775 16.463,6.819 16.480,6.995 16.480 C 7.250 16.480,7.425 16.343,7.481 16.100 C 7.502 16.008,7.518 14.293,7.519 12.080 L 7.520 8.220 12.150 12.850 L 16.781 17.480 16.994 17.480 C 17.184 17.480,17.223 17.465,17.344 17.344 C 17.465 17.223,17.480 17.184,17.480 16.994 L 17.480 16.781 12.850 12.150 L 8.220 7.520 12.080 7.519 C 14.293 7.518,16.008 7.502,16.100 7.481 C 16.343 7.425,16.480 7.250,16.480 6.995 C 16.480 6.817,16.463 6.775,16.344 6.656 L 16.208 6.520 11.714 6.520 C 9.242 6.519,7.157 6.509,7.080 6.498 C 6.987 6.483,6.894 6.500,6.803 6.548 " stroke="none" fill="black" fill-rule="evenodd"></path></svg>