<svg xmlns="http://www.w3.org/2000/svg" class="icon icon-tabler icon-tabler-arrow-narrow-down" width="24" height="24" viewBox="0 0 24 24" stroke-width="1" stroke="currentColor" fill="none" stroke-linecap="round" stroke-linejoin="round"><path d="M11.679 4.630 C 11.605 4.696,11.541 4.804,11.519 4.900 C 11.497 4.994,11.482 7.679,11.481 11.419 L 11.480 17.779 9.849 16.149 L 8.218 14.520 8.005 14.520 C 7.816 14.520,7.777 14.535,7.656 14.656 C 7.535 14.777,7.520 14.816,7.520 15.005 L 7.520 15.218 9.570 17.280 C 10.697 18.415,11.685 19.383,11.765 19.431 C 11.949 19.543,12.051 19.543,12.235 19.431 C 12.315 19.383,13.303 18.415,14.430 17.280 L 16.480 15.218 16.480 15.005 C 16.480 14.816,16.465 14.777,16.344 14.656 C 16.223 14.535,16.184 14.520,15.995 14.520 L 15.782 14.520 14.151 16.149 L 12.520 17.779 12.519 11.419 C 12.518 7.679,12.503 4.994,12.481 4.900 C 12.426 4.659,12.249 4.520,12.000 4.520 C 11.840 4.520,11.778 4.541,11.679 4.630 " stroke="none" fill="black" fill-rule="evenodd"></path></svg>