<svg xmlns="http://www.w3.org/2000/svg" class="icon icon-tabler icon-tabler-arrow-forward-up" width="24" height="24" viewBox="0 0 24 24" stroke-width="1" stroke="currentColor" fill="none" stroke-linecap="round" stroke-linejoin="round"><path d="M14.656 4.656 C 14.535 4.777,14.520 4.816,14.520 5.005 L 14.520 5.218 16.140 6.840 C 17.031 7.731,17.760 8.474,17.760 8.490 C 17.760 8.505,15.388 8.523,12.490 8.529 L 7.220 8.540 6.913 8.628 C 5.232 9.106,4.074 10.266,3.633 11.912 C 3.527 12.307,3.488 13.268,3.559 13.713 C 3.856 15.566,5.314 17.067,7.156 17.417 C 7.535 17.489,8.664 17.541,8.980 17.502 C 9.172 17.478,9.240 17.448,9.348 17.340 C 9.463 17.225,9.480 17.182,9.480 17.000 C 9.480 16.817,9.464 16.776,9.344 16.656 L 9.208 16.520 8.694 16.520 C 7.105 16.519,6.343 16.263,5.540 15.460 C 5.114 15.034,4.860 14.628,4.676 14.080 C 4.565 13.752,4.545 13.629,4.529 13.175 C 4.518 12.864,4.529 12.542,4.557 12.383 C 4.770 11.156,5.690 10.097,6.910 9.675 L 7.300 9.540 12.540 9.529 L 17.780 9.518 16.150 11.150 L 14.520 12.782 14.520 12.995 C 14.520 13.184,14.535 13.223,14.656 13.344 C 14.777 13.465,14.816 13.480,15.006 13.480 L 15.219 13.480 17.350 11.350 L 19.480 9.219 19.480 9.000 L 19.480 8.781 17.350 6.650 L 15.219 4.520 15.006 4.520 C 14.816 4.520,14.777 4.535,14.656 4.656 " stroke="none" fill="black" fill-rule="evenodd"></path></svg>