<svg xmlns="http://www.w3.org/2000/svg" class="icon icon-tabler icon-tabler-arrows-vertical" width="24" height="24" viewBox="0 0 24 24" stroke-width="1" stroke="currentColor" fill="none" stroke-linecap="round" stroke-linejoin="round"><path d="M11.820 2.538 C 11.754 2.567,10.760 3.535,9.610 4.687 L 7.520 6.782 7.520 6.995 C 7.520 7.184,7.535 7.223,7.656 7.344 C 7.777 7.465,7.816 7.480,8.005 7.480 L 8.218 7.480 9.849 5.851 L 11.480 4.221 11.480 12.000 L 11.480 19.779 9.849 18.149 L 8.218 16.520 8.005 16.520 C 7.816 16.520,7.777 16.535,7.656 16.656 C 7.535 16.777,7.520 16.816,7.520 17.005 L 7.520 17.218 9.630 19.329 C 11.103 20.804,11.778 21.453,11.870 21.483 C 11.963 21.514,12.037 21.514,12.130 21.483 C 12.222 21.453,12.897 20.804,14.370 19.329 L 16.480 17.218 16.480 17.005 C 16.480 16.816,16.465 16.777,16.344 16.656 C 16.223 16.535,16.184 16.520,15.995 16.520 L 15.782 16.520 14.151 18.149 L 12.520 19.779 12.520 12.000 L 12.520 4.221 14.151 5.851 L 15.782 7.480 15.995 7.480 C 16.184 7.480,16.223 7.465,16.344 7.344 C 16.465 7.223,16.480 7.184,16.480 6.995 L 16.480 6.782 14.390 4.687 C 13.197 3.491,12.245 2.568,12.171 2.536 C 12.014 2.468,11.973 2.468,11.820 2.538 " stroke="none" fill="black" fill-rule="evenodd"></path></svg>