<svg xmlns="http://www.w3.org/2000/svg" class="icon icon-tabler icon-tabler-arrow-back" width="24" height="24" viewBox="0 0 24 24" stroke-width="1" stroke="currentColor" fill="none" stroke-linecap="round" stroke-linejoin="round"><path d="M14.660 6.652 C 14.538 6.774,14.520 6.817,14.520 6.991 C 14.520 7.202,14.605 7.356,14.773 7.449 C 14.830 7.480,15.183 7.505,15.780 7.521 C 16.679 7.546,16.709 7.549,17.080 7.675 C 17.630 7.861,18.035 8.115,18.460 8.540 C 18.883 8.963,19.137 9.366,19.328 9.920 C 19.457 10.293,19.459 10.313,19.459 11.000 C 19.459 11.687,19.457 11.707,19.328 12.080 C 19.137 12.634,18.883 13.037,18.460 13.460 C 17.835 14.085,17.158 14.401,16.276 14.479 C 15.750 14.526,6.240 14.537,6.240 14.491 C 6.240 14.475,6.969 13.731,7.860 12.840 L 9.480 11.218 9.480 11.005 C 9.480 10.816,9.465 10.777,9.344 10.656 C 9.223 10.535,9.184 10.520,8.994 10.520 L 8.781 10.520 6.650 12.650 L 4.520 14.781 4.520 15.000 L 4.520 15.219 6.650 17.350 L 8.781 19.480 8.994 19.480 C 9.184 19.480,9.223 19.465,9.344 19.344 C 9.465 19.223,9.480 19.184,9.480 18.995 L 9.480 18.782 7.851 17.151 L 6.221 15.520 11.021 15.519 C 13.660 15.519,16.036 15.501,16.300 15.480 C 17.037 15.422,17.636 15.244,18.220 14.908 C 19.294 14.290,20.023 13.334,20.370 12.087 C 20.444 11.822,20.456 11.675,20.456 11.000 C 20.456 10.325,20.444 10.178,20.370 9.913 C 19.906 8.244,18.748 7.087,17.088 6.631 C 16.824 6.559,16.639 6.544,15.790 6.530 L 14.799 6.513 14.660 6.652 " stroke="none" fill="black" fill-rule="evenodd"></path></svg>