<svg xmlns="http://www.w3.org/2000/svg" class="icon icon-tabler icon-tabler-arrow-down" width="24" height="24" viewBox="0 0 24 24" stroke-width="1" stroke="currentColor" fill="none" stroke-linecap="round" stroke-linejoin="round"><path d="M11.679 4.630 C 11.605 4.696,11.541 4.804,11.519 4.900 C 11.497 4.994,11.482 7.679,11.481 11.420 L 11.480 17.779 8.849 15.150 L 6.219 12.520 6.005 12.520 C 5.816 12.520,5.777 12.535,5.656 12.656 C 5.535 12.777,5.520 12.816,5.520 13.005 L 5.520 13.218 8.570 16.281 C 10.248 17.965,11.685 19.383,11.765 19.431 C 11.949 19.543,12.051 19.543,12.235 19.431 C 12.315 19.383,13.752 17.965,15.430 16.281 L 18.480 13.218 18.480 13.005 C 18.480 12.816,18.465 12.777,18.344 12.656 C 18.223 12.535,18.184 12.520,17.995 12.520 L 17.781 12.520 15.151 15.150 L 12.520 17.779 12.519 11.420 C 12.518 7.679,12.503 4.994,12.481 4.900 C 12.426 4.659,12.249 4.520,12.000 4.520 C 11.840 4.520,11.778 4.541,11.679 4.630 " stroke="none" fill="black" fill-rule="evenodd"></path></svg>