<svg xmlns="http://www.w3.org/2000/svg" class="icon icon-tabler icon-tabler-arrows-diagonal-2" width="24" height="24" viewBox="0 0 24 24" stroke-width="1" stroke="currentColor" fill="none" stroke-linecap="round" stroke-linejoin="round"><path d="M3.803 3.548 C 3.727 3.588,3.628 3.671,3.583 3.733 C 3.502 3.843,3.500 3.896,3.488 5.813 C 3.481 6.895,3.487 7.878,3.502 7.998 C 3.522 8.172,3.554 8.242,3.660 8.348 C 3.775 8.463,3.819 8.480,3.995 8.480 C 4.250 8.480,4.425 8.343,4.481 8.100 C 4.501 8.012,4.519 7.328,4.519 6.580 L 4.520 5.221 7.151 7.850 L 9.781 10.480 9.995 10.480 C 10.184 10.480,10.223 10.465,10.344 10.344 C 10.465 10.223,10.480 10.184,10.480 9.995 L 10.480 9.781 7.850 7.151 L 5.221 4.520 6.580 4.519 C 7.328 4.519,8.012 4.501,8.100 4.481 C 8.343 4.425,8.480 4.250,8.480 3.995 C 8.480 3.817,8.463 3.775,8.344 3.656 L 8.208 3.520 6.214 3.520 C 5.117 3.519,4.157 3.509,4.080 3.498 C 3.987 3.483,3.894 3.500,3.803 3.548 M13.656 13.656 C 13.535 13.777,13.520 13.816,13.520 14.005 L 13.520 14.219 16.140 16.840 C 17.581 18.281,18.760 19.474,18.760 19.490 C 18.760 19.507,18.092 19.520,17.276 19.520 L 15.792 19.520 15.656 19.656 C 15.536 19.776,15.520 19.817,15.520 20.000 C 15.520 20.182,15.537 20.225,15.652 20.340 C 15.758 20.446,15.828 20.478,16.002 20.498 C 16.122 20.513,17.105 20.519,18.187 20.512 C 20.104 20.500,20.157 20.498,20.267 20.417 C 20.524 20.229,20.520 20.266,20.519 18.060 C 20.518 16.960,20.501 15.988,20.481 15.900 C 20.426 15.659,20.249 15.520,20.000 15.520 C 19.751 15.520,19.574 15.659,19.519 15.900 C 19.499 15.988,19.481 16.672,19.481 17.420 L 19.480 18.779 16.849 16.150 L 14.219 13.520 14.005 13.520 C 13.816 13.520,13.777 13.535,13.656 13.656 " stroke="none" fill="black" fill-rule="evenodd"></path></svg>