<svg xmlns="http://www.w3.org/2000/svg" class="icon icon-tabler icon-tabler-arrow-down-left" width="24" height="24" viewBox="0 0 24 24" stroke-width="1" stroke="currentColor" fill="none" stroke-linecap="round" stroke-linejoin="round"><path d="M12.150 11.150 L 7.520 15.780 7.519 11.920 C 7.518 9.707,7.502 7.992,7.481 7.900 C 7.425 7.657,7.250 7.520,6.995 7.520 C 6.819 7.520,6.775 7.537,6.660 7.652 C 6.554 7.758,6.523 7.828,6.502 8.002 C 6.488 8.122,6.482 10.230,6.488 12.687 C 6.500 17.133,6.500 17.155,6.583 17.267 C 6.628 17.329,6.727 17.411,6.803 17.450 C 6.931 17.515,7.234 17.520,11.440 17.519 C 14.044 17.518,16.007 17.503,16.100 17.481 C 16.343 17.425,16.480 17.250,16.480 16.995 C 16.480 16.817,16.463 16.775,16.344 16.656 L 16.208 16.520 12.224 16.520 C 10.033 16.520,8.240 16.507,8.240 16.490 C 8.240 16.474,10.319 14.381,12.860 11.840 L 17.480 7.219 17.480 7.006 C 17.480 6.816,17.465 6.777,17.344 6.656 C 17.223 6.535,17.184 6.520,16.994 6.520 L 16.781 6.520 12.150 11.150 " stroke="none" fill="black" fill-rule="evenodd"></path></svg>