<svg xmlns="http://www.w3.org/2000/svg" class="icon icon-tabler icon-tabler-arrow-forward" width="24" height="24" viewBox="0 0 24 24" stroke-width="1" stroke="currentColor" fill="none" stroke-linecap="round" stroke-linejoin="round"><path d="M7.145 6.582 C 5.296 6.950,3.854 8.439,3.559 10.287 C 3.488 10.732,3.528 11.694,3.633 12.087 C 3.962 13.316,4.717 14.306,5.786 14.910 C 6.391 15.252,6.964 15.423,7.700 15.480 C 7.964 15.501,10.340 15.519,12.979 15.519 L 17.779 15.520 16.149 17.151 L 14.520 18.782 14.520 18.995 C 14.520 19.184,14.535 19.223,14.656 19.344 C 14.777 19.465,14.816 19.480,15.006 19.480 L 15.219 19.480 17.350 17.350 L 19.480 15.219 19.480 15.000 L 19.480 14.781 17.350 12.650 L 15.219 10.520 15.006 10.520 C 14.816 10.520,14.777 10.535,14.656 10.656 C 14.535 10.777,14.520 10.816,14.520 11.005 L 14.520 11.218 16.140 12.840 C 17.031 13.731,17.760 14.475,17.760 14.491 C 17.760 14.537,8.250 14.526,7.724 14.479 C 6.842 14.401,6.165 14.085,5.540 13.460 C 5.114 13.034,4.860 12.628,4.676 12.080 C 4.565 11.752,4.545 11.629,4.529 11.175 C 4.518 10.864,4.529 10.542,4.557 10.383 C 4.770 9.155,5.699 8.087,6.910 7.678 C 7.293 7.549,7.316 7.546,8.220 7.522 C 8.817 7.505,9.171 7.480,9.227 7.449 C 9.395 7.356,9.480 7.202,9.480 6.991 C 9.480 6.818,9.462 6.774,9.344 6.656 L 9.208 6.520 8.314 6.524 C 7.734 6.526,7.323 6.547,7.145 6.582 " stroke="none" fill="black" fill-rule="evenodd"></path></svg>