<svg xmlns="http://www.w3.org/2000/svg" class="icon icon-tabler icon-tabler-arrows-minimize" width="24" height="24" viewBox="0 0 24 24" stroke-width="1" stroke="currentColor" fill="none" stroke-linecap="round" stroke-linejoin="round"><path d="M2.656 2.656 C 2.535 2.777,2.520 2.816,2.520 3.005 L 2.520 3.219 5.140 5.840 C 6.581 7.281,7.760 8.474,7.760 8.490 C 7.760 8.507,7.092 8.520,6.276 8.520 L 4.792 8.520 4.656 8.656 C 4.536 8.776,4.520 8.817,4.520 9.000 C 4.520 9.182,4.537 9.225,4.652 9.340 C 4.758 9.446,4.828 9.478,5.002 9.498 C 5.122 9.513,6.105 9.519,7.187 9.512 C 9.104 9.500,9.157 9.498,9.267 9.417 C 9.524 9.229,9.520 9.266,9.519 7.060 C 9.518 5.960,9.501 4.988,9.481 4.900 C 9.426 4.659,9.249 4.520,9.000 4.520 C 8.751 4.520,8.574 4.659,8.519 4.900 C 8.499 4.988,8.481 5.672,8.481 6.420 L 8.480 7.779 5.849 5.150 L 3.219 2.520 3.005 2.520 C 2.816 2.520,2.777 2.535,2.656 2.656 M18.151 5.150 L 15.520 7.779 15.519 6.420 C 15.519 5.672,15.501 4.988,15.481 4.900 C 15.426 4.659,15.249 4.520,15.000 4.520 C 14.751 4.520,14.574 4.659,14.519 4.900 C 14.499 4.988,14.482 5.960,14.481 7.060 C 14.480 9.266,14.476 9.229,14.733 9.417 C 14.843 9.498,14.896 9.500,16.813 9.512 C 17.895 9.519,18.878 9.513,18.998 9.498 C 19.172 9.478,19.242 9.446,19.348 9.340 C 19.463 9.225,19.480 9.182,19.480 9.000 C 19.480 8.817,19.464 8.776,19.344 8.656 L 19.208 8.520 17.724 8.520 C 16.908 8.520,16.240 8.507,16.240 8.490 C 16.240 8.474,17.419 7.281,18.860 5.840 L 21.480 3.219 21.480 3.005 C 21.480 2.816,21.465 2.777,21.344 2.656 C 21.223 2.535,21.184 2.520,20.995 2.520 L 20.781 2.520 18.151 5.150 M6.827 14.518 L 4.753 14.540 4.637 14.671 C 4.541 14.778,4.520 14.837,4.520 15.000 C 4.520 15.249,4.659 15.426,4.900 15.481 C 4.988 15.501,5.672 15.519,6.420 15.519 L 7.779 15.520 5.150 18.151 L 2.520 20.781 2.520 20.995 C 2.520 21.184,2.535 21.223,2.656 21.344 C 2.777 21.465,2.816 21.480,3.005 21.480 L 3.219 21.480 5.849 18.850 L 8.480 16.221 8.481 17.580 C 8.481 18.328,8.499 19.012,8.519 19.100 C 8.574 19.341,8.751 19.480,9.000 19.480 C 9.249 19.480,9.426 19.341,9.481 19.100 C 9.501 19.012,9.518 18.040,9.519 16.940 C 9.520 15.114,9.514 14.928,9.450 14.803 C 9.360 14.626,9.214 14.521,9.039 14.507 C 8.963 14.500,7.967 14.505,6.827 14.518 M14.803 14.548 C 14.727 14.588,14.628 14.671,14.583 14.733 C 14.502 14.843,14.500 14.896,14.488 16.813 C 14.481 17.895,14.487 18.878,14.502 18.998 C 14.522 19.172,14.554 19.242,14.660 19.348 C 14.775 19.463,14.819 19.480,14.995 19.480 C 15.250 19.480,15.425 19.343,15.481 19.100 C 15.501 19.012,15.519 18.328,15.519 17.580 L 15.520 16.221 18.151 18.850 L 20.781 21.480 20.995 21.480 C 21.184 21.480,21.223 21.465,21.344 21.344 C 21.465 21.223,21.480 21.184,21.480 20.995 L 21.480 20.781 18.850 18.151 L 16.221 15.520 17.580 15.519 C 18.328 15.519,19.012 15.501,19.100 15.481 C 19.343 15.425,19.480 15.250,19.480 14.995 C 19.480 14.817,19.463 14.775,19.344 14.656 L 19.208 14.520 17.214 14.520 C 16.117 14.519,15.157 14.509,15.080 14.498 C 14.987 14.483,14.894 14.500,14.803 14.548 " stroke="none" fill="black" fill-rule="evenodd"></path></svg>