<svg xmlns="http://www.w3.org/2000/svg" class="icon icon-tabler icon-tabler-arrow-narrow-right" width="24" height="24" viewBox="0 0 24 24" stroke-width="1" stroke="currentColor" fill="none" stroke-linecap="round" stroke-linejoin="round"><path d="M14.656 7.656 C 14.535 7.777,14.520 7.816,14.520 8.005 L 14.520 8.218 16.140 9.840 C 17.031 10.731,17.760 11.475,17.760 11.491 C 17.760 11.507,14.842 11.520,11.276 11.520 L 4.792 11.520 4.656 11.656 C 4.537 11.775,4.520 11.817,4.520 11.995 C 4.520 12.250,4.657 12.425,4.900 12.481 C 4.994 12.503,7.679 12.518,11.419 12.519 L 17.779 12.520 16.149 14.151 L 14.520 15.782 14.520 15.995 C 14.520 16.184,14.535 16.223,14.656 16.344 C 14.777 16.465,14.816 16.480,15.005 16.480 L 15.218 16.480 17.280 14.430 C 18.415 13.303,19.383 12.315,19.431 12.235 C 19.480 12.155,19.520 12.049,19.520 12.000 C 19.520 11.951,19.480 11.845,19.431 11.765 C 19.383 11.685,18.415 10.697,17.280 9.570 L 15.218 7.520 15.005 7.520 C 14.816 7.520,14.777 7.535,14.656 7.656 " stroke="none" fill="black" fill-rule="evenodd"></path></svg>