<svg xmlns="http://www.w3.org/2000/svg" class="icon icon-tabler icon-tabler-arrows-sort" width="24" height="24" viewBox="0 0 24 24" stroke-width="1" stroke="currentColor" fill="none" stroke-linecap="round" stroke-linejoin="round"><path d="M4.650 6.650 L 2.520 8.781 2.520 8.994 C 2.520 9.184,2.535 9.223,2.656 9.344 C 2.777 9.465,2.816 9.480,3.005 9.480 L 3.218 9.480 4.849 7.851 L 6.480 6.221 6.481 12.581 C 6.482 16.321,6.497 19.006,6.519 19.100 C 6.574 19.341,6.751 19.480,7.000 19.480 C 7.249 19.480,7.426 19.341,7.481 19.100 C 7.503 19.006,7.518 16.321,7.519 12.581 L 7.520 6.221 9.151 7.851 L 10.782 9.480 10.995 9.480 C 11.184 9.480,11.223 9.465,11.344 9.344 C 11.465 9.223,11.480 9.184,11.480 8.994 L 11.480 8.781 9.350 6.650 L 7.219 4.520 7.000 4.520 L 6.781 4.520 4.650 6.650 M16.679 4.630 C 16.605 4.696,16.541 4.804,16.519 4.900 C 16.497 4.994,16.482 7.679,16.481 11.419 L 16.480 17.779 14.849 16.149 L 13.218 14.520 13.005 14.520 C 12.816 14.520,12.777 14.535,12.656 14.656 C 12.535 14.777,12.520 14.816,12.520 15.006 L 12.520 15.219 14.650 17.350 L 16.781 19.480 17.000 19.480 L 17.219 19.480 19.350 17.350 L 21.480 15.219 21.480 15.006 C 21.480 14.816,21.465 14.777,21.344 14.656 C 21.223 14.535,21.184 14.520,20.995 14.520 L 20.782 14.520 19.151 16.149 L 17.520 17.779 17.519 11.419 C 17.518 7.679,17.503 4.994,17.481 4.900 C 17.426 4.659,17.249 4.520,17.000 4.520 C 16.840 4.520,16.778 4.541,16.679 4.630 " stroke="none" fill="black" fill-rule="evenodd"></path></svg>