<svg xmlns="http://www.w3.org/2000/svg" class="icon icon-tabler icon-tabler-arrow-up" width="24" height="24" viewBox="0 0 24 24" stroke-width="1" stroke="currentColor" fill="none" stroke-linecap="round" stroke-linejoin="round"><path d="M11.760 4.570 C 11.683 4.618,10.248 6.036,8.570 7.720 L 5.520 10.782 5.520 10.995 C 5.520 11.184,5.535 11.223,5.656 11.344 C 5.777 11.465,5.816 11.480,6.005 11.480 L 6.219 11.480 8.849 8.850 L 11.480 6.221 11.481 12.580 C 11.482 16.321,11.497 19.006,11.519 19.100 C 11.574 19.341,11.751 19.480,12.000 19.480 C 12.249 19.480,12.426 19.341,12.481 19.100 C 12.503 19.006,12.518 16.321,12.519 12.580 L 12.520 6.221 15.151 8.850 L 17.781 11.480 17.995 11.480 C 18.184 11.480,18.223 11.465,18.344 11.344 C 18.465 11.223,18.480 11.184,18.480 10.995 L 18.480 10.782 15.430 7.719 C 13.752 6.035,12.315 4.617,12.235 4.569 C 12.052 4.458,11.938 4.458,11.760 4.570 " stroke="none" fill="black" fill-rule="evenodd"></path></svg>