<svg xmlns="http://www.w3.org/2000/svg" class="icon icon-tabler icon-tabler-arrow-bar-right" width="24" height="24" viewBox="0 0 24 24" stroke-width="1" stroke="currentColor" fill="none" stroke-linecap="round" stroke-linejoin="round"><path d="M3.679 3.630 C 3.605 3.696,3.541 3.804,3.519 3.900 C 3.469 4.114,3.469 19.886,3.519 20.100 C 3.574 20.341,3.751 20.480,4.000 20.480 C 4.249 20.480,4.426 20.341,4.481 20.100 C 4.531 19.886,4.531 4.114,4.481 3.900 C 4.426 3.659,4.249 3.520,4.000 3.520 C 3.840 3.520,3.778 3.541,3.679 3.630 M15.656 7.656 C 15.535 7.777,15.520 7.816,15.520 8.005 L 15.520 8.218 17.140 9.840 C 18.031 10.731,18.760 11.475,18.760 11.491 C 18.760 11.507,16.742 11.520,14.276 11.520 L 9.792 11.520 9.656 11.656 C 9.537 11.775,9.520 11.817,9.520 11.995 C 9.520 12.250,9.657 12.425,9.900 12.481 C 9.992 12.502,11.901 12.518,14.419 12.519 L 18.779 12.520 17.149 14.151 L 15.520 15.782 15.520 15.995 C 15.520 16.184,15.535 16.223,15.656 16.344 C 15.777 16.465,15.816 16.480,16.005 16.480 L 16.218 16.480 18.280 14.430 C 19.415 13.303,20.383 12.315,20.431 12.235 C 20.480 12.155,20.520 12.049,20.520 12.000 C 20.520 11.951,20.480 11.845,20.431 11.765 C 20.383 11.685,19.415 10.697,18.280 9.570 L 16.218 7.520 16.005 7.520 C 15.816 7.520,15.777 7.535,15.656 7.656 " stroke="none" fill="black" fill-rule="evenodd"></path></svg>