<svg xmlns="http://www.w3.org/2000/svg" class="icon icon-tabler icon-tabler-arrow-right-circle" width="24" height="24" viewBox="0 0 24 24" stroke-width="1" stroke="currentColor" fill="none" stroke-linecap="round" stroke-linejoin="round"><path d="M10.900 2.564 C 9.092 2.784,7.444 3.481,6.020 4.628 C 4.323 5.995,3.091 8.034,2.679 10.160 C 2.468 11.247,2.468 12.755,2.679 13.840 C 3.019 15.591,3.905 17.278,5.170 18.585 C 6.746 20.212,8.748 21.195,10.991 21.441 C 11.569 21.505,12.996 21.471,13.520 21.382 C 16.578 20.862,19.166 18.939,20.519 16.180 C 21.189 14.815,21.480 13.549,21.480 12.000 C 21.480 10.487,21.202 9.243,20.562 7.900 C 19.798 6.294,18.506 4.858,16.968 3.907 C 15.800 3.185,14.424 2.710,13.072 2.562 C 12.621 2.513,11.309 2.514,10.900 2.564 M13.160 3.581 C 14.081 3.712,14.852 3.948,15.700 4.360 C 16.622 4.807,17.277 5.273,18.002 5.998 C 19.251 7.248,20.028 8.728,20.365 10.500 C 20.470 11.053,20.512 12.362,20.444 12.946 C 20.245 14.630,19.576 16.182,18.485 17.486 C 17.115 19.122,15.119 20.188,12.946 20.444 C 12.362 20.512,11.053 20.470,10.500 20.365 C 7.839 19.860,5.635 18.221,4.428 15.851 C 4.054 15.115,3.799 14.359,3.635 13.500 C 3.515 12.874,3.486 11.525,3.577 10.868 C 4.105 7.087,7.016 4.152,10.800 3.585 C 11.320 3.507,12.623 3.505,13.160 3.581 M11.656 7.656 C 11.535 7.777,11.520 7.816,11.520 8.005 L 11.520 8.218 13.140 9.840 C 14.031 10.731,14.760 11.475,14.760 11.491 C 14.760 11.507,13.192 11.520,11.276 11.520 L 7.792 11.520 7.656 11.656 C 7.537 11.775,7.520 11.817,7.520 11.995 C 7.520 12.250,7.657 12.425,7.900 12.481 C 7.991 12.502,9.513 12.519,11.419 12.519 L 14.779 12.520 13.149 14.151 L 11.520 15.782 11.520 15.995 C 11.520 16.184,11.535 16.223,11.656 16.344 C 11.777 16.465,11.816 16.480,12.005 16.480 L 12.218 16.480 14.280 14.430 C 15.415 13.303,16.383 12.315,16.431 12.235 C 16.480 12.155,16.520 12.049,16.520 12.000 C 16.520 11.951,16.480 11.845,16.431 11.765 C 16.383 11.685,15.415 10.697,14.280 9.570 L 12.218 7.520 12.005 7.520 C 11.816 7.520,11.777 7.535,11.656 7.656 " stroke="none" fill="black" fill-rule="evenodd"></path></svg>