<svg xmlns="http://www.w3.org/2000/svg" class="icon icon-tabler icon-tabler-arrow-narrow-left" width="24" height="24" viewBox="0 0 24 24" stroke-width="1" stroke="currentColor" fill="none" stroke-linecap="round" stroke-linejoin="round"><path d="M6.653 9.650 C 5.221 11.083,4.516 11.816,4.498 11.890 C 4.483 11.950,4.483 12.050,4.498 12.110 C 4.516 12.184,5.221 12.917,6.653 14.350 L 8.781 16.480 8.994 16.480 C 9.184 16.480,9.223 16.465,9.344 16.344 C 9.465 16.223,9.480 16.184,9.480 15.995 L 9.480 15.782 7.851 14.151 L 6.221 12.520 12.581 12.519 C 16.321 12.518,19.006 12.503,19.100 12.481 C 19.343 12.425,19.480 12.250,19.480 11.995 C 19.480 11.817,19.463 11.775,19.344 11.656 L 19.208 11.520 12.724 11.520 C 9.158 11.520,6.240 11.507,6.240 11.491 C 6.240 11.475,6.969 10.731,7.860 9.840 L 9.480 8.218 9.480 8.005 C 9.480 7.816,9.465 7.777,9.344 7.656 C 9.223 7.535,9.184 7.520,8.994 7.520 L 8.781 7.520 6.653 9.650 " stroke="none" fill="black" fill-rule="evenodd"></path></svg>