<svg xmlns="http://www.w3.org/2000/svg" class="icon icon-tabler icon-tabler-arrow-bar-up" width="24" height="24" viewBox="0 0 24 24" stroke-width="1" stroke="currentColor" fill="none" stroke-linecap="round" stroke-linejoin="round"><path d="M11.760 3.570 C 11.683 3.618,10.697 4.586,9.570 5.720 L 7.520 7.782 7.520 7.995 C 7.520 8.184,7.535 8.223,7.656 8.344 C 7.777 8.465,7.816 8.480,8.005 8.480 L 8.218 8.480 9.849 6.851 L 11.480 5.221 11.481 9.581 C 11.482 12.099,11.498 14.008,11.519 14.100 C 11.574 14.341,11.751 14.480,12.000 14.480 C 12.249 14.480,12.426 14.341,12.481 14.100 C 12.502 14.008,12.518 12.099,12.519 9.581 L 12.520 5.221 14.151 6.851 L 15.782 8.480 15.995 8.480 C 16.184 8.480,16.223 8.465,16.344 8.344 C 16.465 8.223,16.480 8.184,16.480 7.995 L 16.480 7.782 14.430 5.720 C 13.303 4.585,12.315 3.617,12.235 3.569 C 12.052 3.458,11.938 3.458,11.760 3.570 M3.656 19.656 C 3.537 19.775,3.520 19.817,3.520 19.995 C 3.520 20.250,3.657 20.425,3.900 20.481 C 4.114 20.531,19.886 20.531,20.100 20.481 C 20.343 20.425,20.480 20.250,20.480 19.995 C 20.480 19.817,20.463 19.775,20.344 19.656 L 20.208 19.520 12.000 19.520 L 3.792 19.520 3.656 19.656 " stroke="none" fill="black" fill-rule="evenodd"></path></svg>