<svg xmlns="http://www.w3.org/2000/svg" class="icon icon-tabler icon-tabler-arrow-down-right-circle" width="24" height="24" viewBox="0 0 24 24" stroke-width="1" stroke="currentColor" fill="none" stroke-linecap="round" stroke-linejoin="round"><path d="M10.900 2.564 C 9.092 2.784,7.444 3.481,6.020 4.628 C 4.323 5.995,3.091 8.034,2.679 10.160 C 2.468 11.247,2.468 12.755,2.679 13.840 C 3.019 15.591,3.905 17.278,5.170 18.585 C 6.746 20.212,8.748 21.195,10.991 21.441 C 11.569 21.505,12.996 21.471,13.520 21.382 C 16.578 20.862,19.166 18.939,20.519 16.180 C 21.189 14.815,21.480 13.549,21.480 12.000 C 21.480 10.487,21.202 9.243,20.562 7.900 C 19.798 6.294,18.506 4.858,16.968 3.907 C 15.800 3.185,14.424 2.710,13.072 2.562 C 12.621 2.513,11.309 2.514,10.900 2.564 M13.160 3.581 C 14.081 3.712,14.852 3.948,15.700 4.360 C 16.622 4.807,17.277 5.273,18.002 5.998 C 19.251 7.248,20.028 8.728,20.365 10.500 C 20.470 11.053,20.512 12.362,20.444 12.946 C 20.245 14.630,19.576 16.182,18.485 17.486 C 17.115 19.122,15.119 20.188,12.946 20.444 C 12.362 20.512,11.053 20.470,10.500 20.365 C 7.839 19.860,5.635 18.221,4.428 15.851 C 4.054 15.115,3.799 14.359,3.635 13.500 C 3.515 12.874,3.486 11.525,3.577 10.868 C 4.105 7.087,7.016 4.152,10.800 3.585 C 11.320 3.507,12.623 3.505,13.160 3.581 M8.656 8.656 C 8.535 8.777,8.520 8.816,8.520 9.005 L 8.520 9.219 11.140 11.840 C 12.581 13.281,13.760 14.474,13.760 14.490 C 13.760 14.507,12.642 14.520,11.276 14.520 L 8.792 14.520 8.656 14.656 C 8.537 14.775,8.520 14.817,8.520 14.995 C 8.520 15.250,8.657 15.425,8.900 15.481 C 8.990 15.502,10.373 15.518,12.060 15.519 C 14.838 15.520,15.070 15.515,15.197 15.450 C 15.273 15.411,15.372 15.329,15.417 15.267 C 15.499 15.156,15.500 15.116,15.512 12.187 C 15.519 10.555,15.512 9.122,15.498 9.002 C 15.477 8.828,15.446 8.758,15.340 8.652 C 15.225 8.537,15.181 8.520,15.005 8.520 C 14.750 8.520,14.575 8.657,14.519 8.900 C 14.499 8.988,14.481 10.122,14.481 11.420 L 14.480 13.779 11.849 11.150 L 9.219 8.520 9.005 8.520 C 8.816 8.520,8.777 8.535,8.656 8.656 " stroke="none" fill="black" fill-rule="evenodd"></path></svg>