<svg xmlns="http://www.w3.org/2000/svg" class="icon icon-tabler icon-tabler-arrow-back-up" width="24" height="24" viewBox="0 0 24 24" stroke-width="1" stroke="currentColor" fill="none" stroke-linecap="round" stroke-linejoin="round"><path d="M6.650 6.650 L 4.520 8.781 4.520 9.000 L 4.520 9.219 6.650 11.350 L 8.781 13.480 8.994 13.480 C 9.184 13.480,9.223 13.465,9.344 13.344 C 9.465 13.223,9.480 13.184,9.480 12.995 L 9.480 12.782 7.850 11.150 L 6.220 9.518 11.460 9.529 L 16.700 9.540 17.080 9.672 C 17.635 9.864,18.037 10.117,18.460 10.540 C 18.883 10.963,19.137 11.366,19.328 11.920 C 19.457 12.293,19.459 12.313,19.459 13.000 C 19.459 13.687,19.457 13.707,19.328 14.080 C 19.137 14.634,18.883 15.037,18.460 15.460 C 17.657 16.263,16.895 16.519,15.306 16.520 L 14.792 16.520 14.656 16.656 C 14.536 16.776,14.520 16.817,14.520 17.000 C 14.520 17.182,14.537 17.225,14.652 17.340 C 14.760 17.448,14.828 17.478,15.020 17.502 C 15.336 17.541,16.467 17.489,16.840 17.417 C 18.693 17.063,20.143 15.572,20.441 13.713 C 20.512 13.268,20.473 12.307,20.367 11.913 C 20.043 10.702,19.327 9.751,18.258 9.109 C 17.972 8.938,17.516 8.750,17.088 8.628 L 16.780 8.540 11.510 8.529 C 8.611 8.523,6.240 8.505,6.240 8.490 C 6.240 8.474,6.969 7.731,7.860 6.840 L 9.480 5.218 9.480 5.005 C 9.480 4.816,9.465 4.777,9.344 4.656 C 9.223 4.535,9.184 4.520,8.994 4.520 L 8.781 4.520 6.650 6.650 " stroke="none" fill="black" fill-rule="evenodd"></path></svg>