<svg xmlns="http://www.w3.org/2000/svg" class="icon icon-tabler icon-tabler-arrows-diagonal" width="24" height="24" viewBox="0 0 24 24" stroke-width="1" stroke="currentColor" fill="none" stroke-linecap="round" stroke-linejoin="round"><path d="M17.827 3.518 L 15.753 3.540 15.637 3.671 C 15.541 3.778,15.520 3.837,15.520 4.000 C 15.520 4.249,15.659 4.426,15.900 4.481 C 15.988 4.501,16.672 4.519,17.420 4.519 L 18.779 4.520 16.150 7.151 L 13.520 9.781 13.520 9.995 C 13.520 10.184,13.535 10.223,13.656 10.344 C 13.777 10.465,13.816 10.480,14.005 10.480 L 14.219 10.480 16.849 7.850 L 19.480 5.221 19.481 6.580 C 19.481 7.328,19.499 8.012,19.519 8.100 C 19.574 8.341,19.751 8.480,20.000 8.480 C 20.249 8.480,20.426 8.341,20.481 8.100 C 20.501 8.012,20.518 7.040,20.519 5.940 C 20.520 4.114,20.514 3.928,20.450 3.803 C 20.360 3.626,20.214 3.521,20.039 3.507 C 19.963 3.500,18.967 3.505,17.827 3.518 M7.151 16.150 L 4.520 18.779 4.519 17.420 C 4.519 16.672,4.501 15.988,4.481 15.900 C 4.426 15.659,4.249 15.520,4.000 15.520 C 3.751 15.520,3.574 15.659,3.519 15.900 C 3.499 15.988,3.482 16.960,3.481 18.060 C 3.480 20.266,3.476 20.229,3.733 20.417 C 3.843 20.498,3.896 20.500,5.813 20.512 C 6.895 20.519,7.878 20.513,7.998 20.498 C 8.172 20.478,8.242 20.446,8.348 20.340 C 8.463 20.225,8.480 20.182,8.480 20.000 C 8.480 19.817,8.464 19.776,8.344 19.656 L 8.208 19.520 6.724 19.520 C 5.908 19.520,5.240 19.507,5.240 19.490 C 5.240 19.474,6.419 18.281,7.860 16.840 L 10.480 14.219 10.480 14.005 C 10.480 13.816,10.465 13.777,10.344 13.656 C 10.223 13.535,10.184 13.520,9.995 13.520 L 9.781 13.520 7.151 16.150 " stroke="none" fill="black" fill-rule="evenodd"></path></svg>