<svg xmlns="http://www.w3.org/2000/svg" class="icon icon-tabler icon-tabler-artboard" width="24" height="24" viewBox="0 0 24 24" stroke-width="1" stroke="currentColor" fill="none" stroke-linecap="round" stroke-linejoin="round"><path d="M7.679 2.630 C 7.522 2.771,7.482 2.946,7.482 3.500 C 7.482 4.054,7.522 4.229,7.679 4.370 C 7.853 4.527,8.147 4.527,8.321 4.370 C 8.478 4.229,8.518 4.054,8.518 3.500 C 8.518 2.946,8.478 2.771,8.321 2.630 C 8.222 2.541,8.160 2.520,8.000 2.520 C 7.840 2.520,7.778 2.541,7.679 2.630 M15.679 2.630 C 15.522 2.771,15.482 2.946,15.482 3.500 C 15.482 4.054,15.522 4.229,15.679 4.370 C 15.853 4.527,16.147 4.527,16.321 4.370 C 16.478 4.229,16.518 4.054,16.518 3.500 C 16.518 2.946,16.478 2.771,16.321 2.630 C 16.222 2.541,16.160 2.520,16.000 2.520 C 15.840 2.520,15.778 2.541,15.679 2.630 M2.656 7.656 C 2.537 7.775,2.520 7.817,2.520 7.995 C 2.520 8.161,2.541 8.222,2.630 8.321 C 2.771 8.478,2.946 8.518,3.500 8.518 C 4.054 8.518,4.229 8.478,4.370 8.321 C 4.459 8.222,4.480 8.161,4.480 7.995 C 4.480 7.817,4.463 7.775,4.344 7.656 L 4.208 7.520 3.500 7.520 L 2.792 7.520 2.656 7.656 M8.468 7.599 C 8.060 7.758,7.697 8.145,7.569 8.556 C 7.506 8.761,7.500 9.056,7.500 12.000 C 7.500 14.944,7.506 15.239,7.569 15.444 C 7.706 15.885,8.115 16.294,8.556 16.431 C 8.761 16.494,9.056 16.500,12.000 16.500 C 14.944 16.500,15.239 16.494,15.444 16.431 C 15.885 16.294,16.294 15.885,16.431 15.444 C 16.494 15.239,16.500 14.944,16.500 12.000 C 16.500 9.056,16.494 8.761,16.431 8.556 C 16.300 8.133,15.918 7.736,15.507 7.594 C 15.315 7.528,15.063 7.523,11.980 7.523 C 8.829 7.524,8.650 7.528,8.468 7.599 M19.656 7.656 C 19.537 7.775,19.520 7.817,19.520 7.995 C 19.520 8.161,19.541 8.222,19.630 8.321 C 19.771 8.478,19.946 8.518,20.500 8.518 C 21.054 8.518,21.229 8.478,21.370 8.321 C 21.459 8.222,21.480 8.161,21.480 7.995 C 21.480 7.817,21.463 7.775,21.344 7.656 L 21.208 7.520 20.500 7.520 L 19.792 7.520 19.656 7.656 M15.344 8.656 L 15.480 8.792 15.480 11.995 L 15.480 15.199 15.370 15.321 C 15.304 15.395,15.196 15.459,15.100 15.481 C 14.890 15.530,9.110 15.530,8.900 15.481 C 8.804 15.459,8.696 15.395,8.630 15.321 L 8.520 15.199 8.520 11.995 L 8.520 8.792 8.656 8.656 L 8.792 8.520 12.000 8.520 L 15.208 8.520 15.344 8.656 M2.656 15.656 C 2.537 15.775,2.520 15.817,2.520 15.995 C 2.520 16.250,2.657 16.425,2.900 16.481 C 3.107 16.529,3.893 16.529,4.100 16.481 C 4.343 16.425,4.480 16.250,4.480 15.995 C 4.480 15.817,4.463 15.775,4.344 15.656 L 4.208 15.520 3.500 15.520 L 2.792 15.520 2.656 15.656 M19.656 15.656 C 19.537 15.775,19.520 15.817,19.520 15.995 C 19.520 16.250,19.657 16.425,19.900 16.481 C 20.107 16.529,20.893 16.529,21.100 16.481 C 21.343 16.425,21.480 16.250,21.480 15.995 C 21.480 15.817,21.463 15.775,21.344 15.656 L 21.208 15.520 20.500 15.520 L 19.792 15.520 19.656 15.656 M7.679 19.630 C 7.522 19.771,7.482 19.946,7.482 20.500 C 7.482 21.054,7.522 21.229,7.679 21.370 C 7.778 21.459,7.840 21.480,8.000 21.480 C 8.160 21.480,8.222 21.459,8.321 21.370 C 8.478 21.229,8.518 21.054,8.518 20.500 C 8.518 19.946,8.478 19.771,8.321 19.630 C 8.222 19.541,8.160 19.520,8.000 19.520 C 7.840 19.520,7.778 19.541,7.679 19.630 M15.679 19.630 C 15.522 19.771,15.482 19.946,15.482 20.500 C 15.482 21.054,15.522 21.229,15.679 21.370 C 15.778 21.459,15.840 21.480,16.000 21.480 C 16.160 21.480,16.222 21.459,16.321 21.370 C 16.478 21.229,16.518 21.054,16.518 20.500 C 16.518 19.946,16.478 19.771,16.321 19.630 C 16.222 19.541,16.160 19.520,16.000 19.520 C 15.840 19.520,15.778 19.541,15.679 19.630 " stroke="none" fill="black" fill-rule="evenodd"></path></svg>