<svg xmlns="http://www.w3.org/2000/svg" class="icon icon-tabler icon-tabler-at" width="24" height="24" viewBox="0 0 24 24" stroke-width="1" stroke="currentColor" fill="none" stroke-linecap="round" stroke-linejoin="round"><path d="M11.199 2.520 C 7.839 2.824,4.955 4.805,3.479 7.820 C 2.804 9.197,2.520 10.442,2.520 12.012 C 2.521 13.146,2.685 14.132,3.041 15.138 C 4.149 18.265,6.802 20.593,10.040 21.280 C 11.626 21.616,13.409 21.522,14.940 21.021 C 15.602 20.804,15.855 20.674,15.933 20.510 C 16.017 20.332,16.017 20.229,15.935 20.054 C 15.801 19.773,15.549 19.736,15.038 19.924 C 13.982 20.312,13.068 20.479,12.000 20.479 C 9.933 20.479,8.002 19.756,6.420 18.389 C 4.848 17.030,3.822 15.097,3.562 13.001 C 3.499 12.494,3.510 11.354,3.583 10.832 C 3.846 8.944,4.722 7.220,6.092 5.893 C 7.544 4.486,9.344 3.681,11.410 3.514 C 12.466 3.429,13.624 3.579,14.714 3.942 C 17.758 4.956,20.002 7.677,20.419 10.861 C 20.500 11.480,20.505 13.724,20.426 14.020 C 20.248 14.683,19.683 15.248,19.020 15.426 C 18.763 15.494,18.237 15.494,17.980 15.426 C 17.431 15.279,16.944 14.866,16.690 14.333 L 16.541 14.020 16.514 12.760 C 16.486 11.426,16.450 11.115,16.264 10.576 C 16.132 10.195,16.066 10.049,15.895 9.754 C 15.213 8.583,14.037 7.771,12.713 7.559 C 12.268 7.488,11.307 7.527,10.913 7.633 C 9.497 8.012,8.359 8.998,7.840 10.294 C 7.578 10.947,7.544 11.144,7.544 12.000 C 7.544 12.675,7.556 12.822,7.630 13.087 C 8.093 14.752,9.248 15.907,10.913 16.370 C 11.178 16.444,11.325 16.456,12.000 16.456 C 12.675 16.456,12.822 16.444,13.088 16.370 C 13.738 16.189,14.238 15.945,14.739 15.563 C 15.008 15.359,15.434 14.933,15.570 14.732 C 15.620 14.660,15.669 14.601,15.680 14.601 C 15.691 14.601,15.769 14.732,15.853 14.893 C 16.147 15.452,16.604 15.894,17.180 16.177 C 17.653 16.409,17.962 16.480,18.500 16.480 C 19.035 16.480,19.343 16.409,19.820 16.178 C 20.422 15.886,20.877 15.430,21.177 14.820 C 21.483 14.196,21.499 14.084,21.495 12.620 C 21.494 11.867,21.472 11.175,21.443 10.940 C 20.901 6.558,17.644 3.213,13.303 2.580 C 12.774 2.503,11.719 2.473,11.199 2.520 M13.080 8.675 C 13.629 8.861,14.035 9.115,14.460 9.540 C 14.883 9.963,15.137 10.366,15.328 10.920 C 15.457 11.293,15.459 11.313,15.459 12.000 C 15.459 12.687,15.457 12.707,15.328 13.080 C 15.137 13.634,14.883 14.037,14.460 14.460 C 14.037 14.883,13.634 15.137,13.080 15.328 C 12.707 15.457,12.687 15.459,12.000 15.459 C 11.313 15.459,11.293 15.457,10.920 15.328 C 10.366 15.137,9.963 14.883,9.540 14.460 C 9.114 14.034,8.860 13.628,8.676 13.080 C 8.565 12.752,8.545 12.629,8.529 12.175 C 8.518 11.864,8.529 11.542,8.557 11.383 C 8.758 10.223,9.642 9.154,10.740 8.738 C 11.225 8.554,11.450 8.521,12.100 8.534 C 12.652 8.546,12.730 8.557,13.080 8.675 " stroke="none" fill="black" fill-rule="evenodd"></path></svg>