<svg xmlns="http://www.w3.org/2000/svg" class="icon icon-tabler icon-tabler-atom" width="24" height="24" viewBox="0 0 24 24" stroke-width="1" stroke="currentColor" fill="none" stroke-linecap="round" stroke-linejoin="round"><path d="M5.953 3.921 C 5.371 4.019,4.935 4.230,4.582 4.582 C 3.330 5.835,3.784 8.399,5.810 11.510 L 6.129 12.000 5.810 12.490 C 4.977 13.770,4.418 14.925,4.121 15.984 C 3.523 18.114,4.093 19.593,5.680 20.025 C 6.070 20.131,6.967 20.121,7.518 20.004 C 8.679 19.757,10.072 19.129,11.450 18.230 L 12.001 17.871 12.490 18.191 C 15.583 20.209,18.182 20.669,19.421 19.416 C 19.705 19.129,19.881 18.817,20.006 18.379 C 20.133 17.936,20.132 17.085,20.006 16.490 C 19.748 15.281,19.148 13.957,18.191 12.490 L 17.871 12.000 18.191 11.510 C 19.148 10.042,19.738 8.743,20.002 7.520 C 20.132 6.916,20.134 6.070,20.006 5.621 C 19.881 5.181,19.704 4.868,19.418 4.582 C 18.165 3.330,15.601 3.784,12.490 5.810 L 12.000 6.129 11.510 5.810 C 9.319 4.383,7.294 3.695,5.953 3.921 M7.105 4.941 C 8.183 5.128,9.346 5.626,10.730 6.495 C 10.945 6.630,11.120 6.751,11.120 6.764 C 11.120 6.777,11.008 6.876,10.870 6.984 C 9.710 7.893,8.369 9.209,7.288 10.500 C 7.012 10.830,6.776 11.105,6.763 11.110 C 6.738 11.121,6.353 10.520,6.090 10.060 C 5.282 8.649,4.827 7.222,4.892 6.302 C 4.971 5.181,5.743 4.706,7.105 4.941 M18.257 5.001 C 18.525 5.103,18.810 5.344,18.924 5.567 C 19.437 6.573,18.908 8.495,17.505 10.730 C 17.370 10.945,17.250 11.120,17.238 11.120 C 17.226 11.120,17.098 10.972,16.953 10.790 C 16.010 9.604,14.570 8.153,13.354 7.161 C 13.104 6.957,12.895 6.779,12.890 6.765 C 12.884 6.751,13.055 6.630,13.270 6.495 C 14.613 5.650,15.782 5.144,16.860 4.942 C 17.313 4.857,17.947 4.884,18.257 5.001 M12.374 7.655 C 13.301 8.381,14.524 9.531,15.356 10.460 C 15.923 11.092,16.600 11.931,16.600 12.000 C 16.600 12.069,15.923 12.908,15.356 13.540 C 14.789 14.173,13.782 15.161,13.160 15.694 C 12.560 16.209,12.058 16.600,11.997 16.600 C 11.876 16.600,10.568 15.484,9.725 14.660 C 8.814 13.771,7.400 12.153,7.400 12.001 C 7.400 11.942,7.663 11.603,8.238 10.920 C 8.747 10.316,9.855 9.178,10.464 8.635 C 11.069 8.095,11.928 7.402,11.994 7.401 C 12.024 7.400,12.195 7.515,12.374 7.655 M11.656 11.656 C 11.537 11.775,11.520 11.818,11.520 11.993 C 11.520 12.150,11.542 12.220,11.621 12.314 C 11.758 12.477,11.957 12.540,12.139 12.480 C 12.357 12.408,12.480 12.233,12.480 11.993 C 12.480 11.818,12.463 11.775,12.344 11.656 C 12.224 11.536,12.183 11.520,12.000 11.520 C 11.817 11.520,11.776 11.536,11.656 11.656 M7.047 13.210 C 8.021 14.434,9.512 15.927,10.751 16.919 C 10.954 17.082,11.120 17.225,11.120 17.237 C 11.120 17.263,10.476 17.672,10.060 17.910 C 8.446 18.834,6.880 19.274,5.969 19.060 C 5.630 18.980,5.447 18.880,5.254 18.670 C 4.607 17.969,4.820 16.398,5.826 14.440 C 6.112 13.883,6.713 12.880,6.761 12.880 C 6.774 12.880,6.902 13.028,7.047 13.210 M17.505 13.270 C 18.024 14.096,18.367 14.758,18.651 15.480 C 19.255 17.018,19.271 18.171,18.693 18.728 C 17.860 19.532,15.706 19.047,13.270 17.507 C 13.055 17.371,12.884 17.250,12.890 17.237 C 12.895 17.224,13.170 16.988,13.500 16.712 C 14.791 15.631,16.107 14.290,17.016 13.130 C 17.124 12.992,17.223 12.880,17.236 12.880 C 17.249 12.880,17.370 13.056,17.505 13.270 " stroke="none" fill="black" fill-rule="evenodd"></path></svg>