<svg xmlns="http://www.w3.org/2000/svg" class="icon icon-tabler icon-tabler-atom-2" width="24" height="24" viewBox="0 0 24 24" stroke-width="1" stroke="currentColor" fill="none" stroke-linecap="round" stroke-linejoin="round"><path d="M10.680 2.543 C 9.029 2.776,7.527 3.384,6.241 4.341 C 6.026 4.501,5.821 4.674,5.785 4.725 C 5.747 4.780,5.720 4.898,5.720 5.013 C 5.720 5.181,5.739 5.227,5.856 5.344 C 5.974 5.462,6.018 5.480,6.188 5.480 C 6.368 5.480,6.414 5.457,6.783 5.185 C 7.915 4.349,9.022 3.865,10.428 3.593 C 10.843 3.513,11.022 3.501,11.900 3.502 C 12.988 3.502,13.236 3.531,14.115 3.764 C 15.140 4.034,16.165 4.539,17.059 5.214 C 17.384 5.459,17.428 5.480,17.610 5.480 C 17.782 5.480,17.826 5.462,17.944 5.344 C 18.062 5.226,18.080 5.182,18.080 5.009 C 18.080 4.759,18.023 4.685,17.571 4.348 C 16.362 3.450,15.010 2.873,13.460 2.595 C 12.826 2.482,11.316 2.453,10.680 2.543 M2.656 8.656 C 2.537 8.775,2.520 8.818,2.520 8.993 C 2.520 9.477,3.069 9.682,3.379 9.314 C 3.458 9.220,3.480 9.150,3.480 8.993 C 3.480 8.818,3.463 8.775,3.344 8.656 C 3.224 8.536,3.183 8.520,3.000 8.520 C 2.817 8.520,2.776 8.536,2.656 8.656 M11.259 8.576 C 10.065 8.848,9.079 9.739,8.676 10.910 C 8.543 11.294,8.541 11.310,8.541 12.000 C 8.541 12.687,8.543 12.707,8.672 13.080 C 8.863 13.634,9.117 14.037,9.540 14.460 C 9.963 14.883,10.366 15.137,10.920 15.328 C 11.293 15.457,11.313 15.459,12.000 15.459 C 12.688 15.459,12.706 15.457,13.079 15.327 C 13.288 15.255,13.558 15.139,13.679 15.071 C 14.449 14.635,15.035 13.930,15.324 13.090 C 15.457 12.705,15.459 12.690,15.459 12.000 C 15.459 11.310,15.457 11.295,15.324 10.910 C 15.035 10.070,14.449 9.365,13.679 8.929 C 13.558 8.861,13.288 8.747,13.079 8.676 C 12.730 8.557,12.653 8.546,12.100 8.534 C 11.694 8.526,11.422 8.539,11.259 8.576 M20.656 8.656 C 20.537 8.775,20.520 8.818,20.520 8.993 C 20.520 9.477,21.069 9.682,21.379 9.314 C 21.458 9.220,21.480 9.150,21.480 8.993 C 21.480 8.818,21.463 8.775,21.344 8.656 C 21.224 8.536,21.183 8.520,21.000 8.520 C 20.817 8.520,20.776 8.536,20.656 8.656 M12.834 9.640 C 13.142 9.749,13.615 10.059,13.818 10.283 C 14.048 10.538,14.266 10.898,14.368 11.192 C 14.446 11.421,14.460 11.540,14.460 12.000 C 14.460 12.460,14.446 12.579,14.368 12.808 C 14.190 13.320,13.844 13.765,13.378 14.076 C 12.916 14.385,12.647 14.460,12.000 14.460 C 11.540 14.460,11.421 14.446,11.192 14.368 C 10.898 14.266,10.538 14.048,10.283 13.818 C 10.058 13.615,9.749 13.141,9.640 12.834 C 9.516 12.481,9.484 11.763,9.577 11.399 C 9.803 10.515,10.484 9.821,11.360 9.581 C 11.694 9.489,12.500 9.522,12.834 9.640 M2.656 12.656 C 2.531 12.781,2.520 12.812,2.520 13.036 C 2.520 13.350,2.688 14.210,2.861 14.779 C 3.586 17.172,5.313 19.265,7.503 20.403 C 7.912 20.616,8.015 20.635,8.226 20.535 C 8.388 20.458,8.480 20.300,8.480 20.100 C 8.480 19.846,8.397 19.754,7.953 19.512 C 6.320 18.620,5.113 17.367,4.318 15.740 C 3.902 14.887,3.623 13.948,3.498 12.982 C 3.479 12.832,3.441 12.753,3.340 12.652 C 3.224 12.536,3.182 12.520,3.000 12.520 C 2.817 12.520,2.776 12.536,2.656 12.656 M20.660 12.652 C 20.559 12.753,20.521 12.832,20.502 12.982 C 20.139 15.802,18.538 18.154,16.064 19.502 C 15.602 19.755,15.520 19.844,15.520 20.100 C 15.520 20.300,15.612 20.458,15.774 20.535 C 15.986 20.635,16.088 20.616,16.510 20.397 C 18.684 19.268,20.415 17.167,21.140 14.777 C 21.312 14.210,21.480 13.349,21.480 13.036 C 21.480 12.812,21.469 12.781,21.344 12.656 C 21.224 12.536,21.183 12.520,21.000 12.520 C 20.818 12.520,20.776 12.536,20.660 12.652 M11.656 20.656 C 11.537 20.775,11.520 20.818,11.520 20.993 C 11.520 21.150,11.542 21.220,11.621 21.314 C 11.758 21.477,11.957 21.540,12.139 21.480 C 12.357 21.408,12.480 21.233,12.480 20.993 C 12.480 20.818,12.463 20.775,12.344 20.656 C 12.224 20.536,12.183 20.520,12.000 20.520 C 11.817 20.520,11.776 20.536,11.656 20.656 " stroke="none" fill="black" fill-rule="evenodd"></path></svg>