<svg xmlns="http://www.w3.org/2000/svg" class="icon icon-tabler icon-tabler-award" width="24" height="24" viewBox="0 0 24 24" stroke-width="1" stroke="currentColor" fill="none" stroke-linecap="round" stroke-linejoin="round"><path d="M10.875 2.599 C 8.585 3.015,6.645 4.654,5.880 6.820 C 5.626 7.540,5.555 7.945,5.532 8.800 C 5.514 9.475,5.522 9.647,5.596 10.076 C 5.687 10.611,5.921 11.366,6.114 11.748 L 6.234 11.986 5.092 13.963 C 2.814 17.908,2.920 17.717,2.920 17.901 C 2.920 18.091,3.020 18.247,3.202 18.341 C 3.305 18.394,3.477 18.390,4.843 18.300 C 5.682 18.245,6.444 18.200,6.535 18.200 L 6.701 18.200 7.440 19.682 C 7.847 20.497,8.227 21.208,8.284 21.263 C 8.497 21.469,8.813 21.419,9.012 21.150 C 9.064 21.079,9.753 19.899,10.542 18.530 C 11.332 17.160,11.987 16.040,12.000 16.040 C 12.013 16.040,12.668 17.161,13.458 18.530 C 14.247 19.899,14.936 21.079,14.988 21.150 C 15.187 21.419,15.503 21.469,15.716 21.263 C 15.773 21.208,16.153 20.497,16.560 19.682 L 17.299 18.200 17.465 18.200 C 17.556 18.200,18.318 18.245,19.157 18.300 C 20.523 18.390,20.695 18.394,20.798 18.341 C 20.980 18.247,21.080 18.091,21.080 17.901 C 21.080 17.717,21.186 17.908,18.908 13.963 L 17.766 11.986 17.886 11.748 C 18.076 11.372,18.312 10.616,18.399 10.103 C 18.509 9.463,18.510 8.542,18.401 7.907 C 18.053 5.872,16.744 4.112,14.900 3.200 C 14.284 2.895,14.028 2.801,13.400 2.652 C 13.039 2.566,12.863 2.550,12.140 2.537 C 11.437 2.524,11.231 2.534,10.875 2.599 M12.910 3.580 C 14.581 3.851,16.095 4.956,16.874 6.471 C 17.295 7.292,17.480 8.062,17.480 9.000 C 17.480 9.954,17.288 10.737,16.854 11.560 C 16.056 13.075,14.573 14.150,12.910 14.420 C 12.432 14.497,11.563 14.496,11.080 14.418 C 9.414 14.148,7.906 13.046,7.126 11.529 C 6.705 10.708,6.520 9.938,6.520 9.000 C 6.520 7.624,6.956 6.446,7.855 5.393 C 8.634 4.480,9.866 3.782,11.044 3.584 C 11.501 3.508,12.450 3.506,12.910 3.580 M6.880 12.997 C 6.880 13.083,7.730 13.913,8.117 14.204 C 8.863 14.765,9.893 15.218,10.792 15.383 L 11.159 15.450 11.030 15.678 C 10.356 16.866,8.656 19.797,8.640 19.799 C 8.629 19.799,8.337 19.236,7.993 18.546 C 7.408 17.375,7.356 17.287,7.220 17.223 C 7.081 17.157,7.012 17.157,5.737 17.240 C 5.002 17.288,4.383 17.321,4.361 17.314 C 4.319 17.299,6.799 12.963,6.850 12.961 C 6.867 12.960,6.880 12.976,6.880 12.997 M18.429 15.131 C 19.116 16.324,19.660 17.306,19.639 17.314 C 19.617 17.321,18.998 17.288,18.263 17.240 C 16.988 17.157,16.919 17.157,16.780 17.223 C 16.644 17.287,16.592 17.375,16.007 18.546 C 15.663 19.236,15.371 19.799,15.360 19.799 C 15.344 19.798,13.684 16.934,12.971 15.680 L 12.843 15.453 13.271 15.369 C 13.878 15.249,14.258 15.116,14.900 14.799 C 15.595 14.457,16.159 14.040,16.713 13.460 C 16.937 13.225,17.120 13.017,17.120 12.997 C 17.120 12.976,17.133 12.960,17.150 12.961 C 17.167 12.962,17.742 13.938,18.429 15.131 " stroke="none" fill="black" fill-rule="evenodd"></path></svg>