<svg xmlns="http://www.w3.org/2000/svg" class="icon icon-tabler icon-tabler-backspace" width="24" height="24" viewBox="0 0 24 24" stroke-width="1" stroke="currentColor" fill="none" stroke-linecap="round" stroke-linejoin="round"><path d="M6.169 8.130 C 4.733 9.566,3.503 10.824,3.437 10.926 C 3.216 11.268,3.144 11.533,3.144 12.000 C 3.144 12.467,3.216 12.732,3.437 13.074 C 3.503 13.176,4.732 14.433,6.169 15.867 L 8.780 18.474 9.000 18.499 C 9.121 18.513,11.704 18.519,14.740 18.512 C 19.864 18.500,20.275 18.494,20.465 18.430 C 20.896 18.283,21.298 17.873,21.431 17.444 C 21.495 17.236,21.500 16.842,21.500 12.000 C 21.500 7.158,21.495 6.764,21.431 6.556 C 21.300 6.133,20.918 5.736,20.507 5.594 C 20.312 5.527,19.962 5.523,14.541 5.521 L 8.781 5.520 6.169 8.130 M20.344 6.656 L 20.480 6.792 20.480 11.995 L 20.480 17.199 20.370 17.321 C 20.304 17.395,20.196 17.459,20.100 17.481 C 20.007 17.503,17.709 17.518,14.580 17.519 L 9.219 17.520 6.754 15.050 C 5.398 13.692,4.255 12.517,4.215 12.440 C 4.113 12.246,4.113 11.754,4.215 11.560 C 4.255 11.483,5.389 10.318,6.734 8.970 L 9.179 6.520 14.694 6.520 L 20.208 6.520 20.344 6.656 M11.656 9.656 C 11.536 9.776,11.520 9.816,11.520 10.004 L 11.520 10.216 12.409 11.108 L 13.298 12.000 12.409 12.892 L 11.520 13.784 11.520 13.996 C 11.520 14.184,11.536 14.224,11.656 14.344 C 11.776 14.464,11.816 14.480,12.004 14.480 L 12.216 14.480 13.108 13.591 L 14.000 12.702 14.892 13.591 L 15.784 14.480 15.996 14.480 C 16.184 14.480,16.224 14.464,16.344 14.344 C 16.464 14.224,16.480 14.184,16.480 13.996 L 16.480 13.784 15.591 12.892 L 14.702 12.000 15.591 11.108 L 16.480 10.216 16.480 10.004 C 16.480 9.816,16.464 9.776,16.344 9.656 C 16.224 9.536,16.184 9.520,15.996 9.520 L 15.784 9.520 14.892 10.409 L 14.000 11.298 13.108 10.409 L 12.216 9.520 12.004 9.520 C 11.816 9.520,11.776 9.536,11.656 9.656 " stroke="none" fill="black" fill-rule="evenodd"></path></svg>