<svg xmlns="http://www.w3.org/2000/svg" class="icon icon-tabler icon-tabler-ball-volleyball" width="24" height="24" viewBox="0 0 24 24" stroke-width="1" stroke="currentColor" fill="none" stroke-linecap="round" stroke-linejoin="round"><path d="M10.900 2.564 C 9.092 2.784,7.444 3.481,6.020 4.628 C 4.323 5.995,3.091 8.034,2.679 10.160 C 2.468 11.247,2.468 12.755,2.679 13.840 C 3.019 15.591,3.905 17.278,5.170 18.585 C 6.746 20.212,8.748 21.195,10.991 21.441 C 11.569 21.505,12.996 21.471,13.520 21.382 C 16.578 20.862,19.166 18.939,20.519 16.180 C 21.189 14.815,21.480 13.549,21.480 12.000 C 21.480 10.487,21.202 9.243,20.562 7.900 C 19.798 6.294,18.506 4.858,16.968 3.907 C 15.800 3.185,14.424 2.710,13.072 2.562 C 12.621 2.513,11.309 2.514,10.900 2.564 M13.160 3.581 C 14.123 3.718,14.866 3.952,15.794 4.409 C 16.530 4.771,16.479 4.715,16.655 5.342 C 17.175 7.194,17.215 9.297,16.763 11.140 C 16.553 11.998,16.306 12.692,15.944 13.447 C 15.772 13.805,15.385 14.505,15.321 14.573 C 15.285 14.612,14.858 14.357,14.440 14.046 C 14.034 13.744,13.274 12.978,12.953 12.547 C 12.545 11.999,12.558 12.064,12.771 11.611 C 13.301 10.484,13.549 9.459,13.589 8.237 C 13.637 6.729,13.370 5.491,12.709 4.160 C 12.551 3.841,12.415 3.567,12.407 3.550 C 12.385 3.503,12.702 3.516,13.160 3.581 M11.369 3.800 C 11.800 4.434,12.258 5.527,12.443 6.360 C 12.560 6.888,12.609 6.840,11.944 6.840 C 9.136 6.840,6.110 7.986,3.984 9.856 C 3.805 10.013,3.717 10.070,3.732 10.019 C 3.744 9.976,3.792 9.804,3.837 9.638 C 3.953 9.213,4.207 8.578,4.446 8.112 C 5.645 5.778,7.864 4.133,10.480 3.638 C 10.689 3.598,10.941 3.569,11.040 3.573 C 11.211 3.580,11.228 3.591,11.369 3.800 M18.720 6.801 C 19.582 7.931,20.117 9.150,20.387 10.600 C 20.443 10.900,20.458 11.195,20.458 12.000 C 20.459 13.106,20.411 13.498,20.179 14.300 C 20.073 14.667,19.779 15.474,19.737 15.516 C 19.724 15.529,19.469 15.546,19.170 15.554 C 18.567 15.570,17.965 15.518,17.420 15.402 C 16.990 15.312,16.293 15.093,16.259 15.038 C 16.246 15.017,16.297 14.896,16.373 14.770 C 16.569 14.445,16.967 13.638,17.156 13.185 C 18.008 11.138,18.284 8.692,17.918 6.432 C 17.874 6.161,17.829 5.904,17.817 5.860 C 17.790 5.753,18.431 6.422,18.720 6.801 M12.588 8.350 C 12.561 8.912,12.495 9.330,12.342 9.904 C 12.228 10.334,11.973 11.002,11.809 11.300 L 11.700 11.500 11.297 11.527 C 8.614 11.705,6.043 13.279,4.656 15.594 L 4.461 15.920 4.335 15.670 C 3.857 14.718,3.568 13.533,3.531 12.380 L 3.510 11.700 4.106 11.120 C 5.051 10.200,5.946 9.563,7.060 9.018 C 8.654 8.238,10.245 7.855,11.936 7.844 L 12.612 7.840 12.588 8.350 M11.916 12.815 C 12.340 13.442,13.060 14.225,13.652 14.701 C 15.066 15.838,17.072 16.560,18.820 16.560 C 19.227 16.560,19.230 16.516,18.770 17.131 C 18.170 17.931,17.219 18.784,16.353 19.299 L 16.027 19.493 15.787 19.444 C 15.355 19.355,14.589 19.118,14.060 18.910 C 12.096 18.139,10.370 16.826,9.101 15.140 C 8.649 14.539,8.120 13.692,8.120 13.570 C 8.120 13.510,8.825 13.157,9.285 12.986 C 10.007 12.717,10.877 12.529,11.429 12.523 L 11.718 12.520 11.916 12.815 M7.899 15.180 C 9.077 16.944,10.723 18.399,12.635 19.367 C 13.136 19.620,14.040 20.000,14.290 20.062 C 14.498 20.113,14.440 20.153,14.010 20.253 C 13.203 20.442,13.025 20.460,11.980 20.459 C 10.914 20.457,10.640 20.426,9.840 20.217 C 8.066 19.752,6.366 18.629,5.293 17.213 L 5.076 16.927 5.222 16.635 C 5.646 15.794,6.243 15.016,6.928 14.412 L 7.255 14.123 7.430 14.432 C 7.526 14.601,7.738 14.938,7.899 15.180 " stroke="none" fill="black" fill-rule="evenodd"></path></svg>