<svg xmlns="http://www.w3.org/2000/svg" class="icon icon-tabler icon-tabler-ball-basketball" width="24" height="24" viewBox="0 0 24 24" stroke-width="1" stroke="currentColor" fill="none" stroke-linecap="round" stroke-linejoin="round"><path d="M11.660 2.507 C 9.141 2.622,6.906 3.622,5.179 5.405 C 3.032 7.623,2.107 10.689,2.664 13.744 C 3.188 16.619,5.089 19.143,7.740 20.482 C 9.503 21.373,11.558 21.691,13.520 21.378 C 16.524 20.899,19.167 18.937,20.519 16.180 C 21.183 14.826,21.488 13.512,21.488 12.000 C 21.488 10.524,21.196 9.232,20.562 7.900 C 20.094 6.916,19.521 6.113,18.704 5.296 C 17.337 3.929,15.725 3.060,13.860 2.685 C 13.247 2.561,12.245 2.481,11.660 2.507 M11.558 3.990 C 11.678 5.115,11.949 6.072,12.438 7.100 C 12.776 7.812,13.218 8.491,13.826 9.233 L 13.934 9.365 12.967 10.333 L 12.000 11.300 9.175 8.475 L 6.350 5.650 6.625 5.422 C 7.287 4.872,8.221 4.339,9.080 4.021 C 9.726 3.781,10.843 3.536,11.344 3.524 L 11.507 3.520 11.558 3.990 M13.160 3.581 C 14.635 3.791,16.001 4.365,17.199 5.280 C 17.723 5.680,17.854 5.447,16.147 7.153 L 14.658 8.642 14.535 8.511 C 14.468 8.439,14.331 8.272,14.232 8.140 C 13.280 6.877,12.697 5.379,12.538 3.790 L 12.511 3.520 12.625 3.521 C 12.688 3.521,12.929 3.548,13.160 3.581 M10.333 12.967 L 9.365 13.934 9.233 13.826 C 7.581 12.473,5.941 11.763,3.990 11.557 L 3.520 11.507 3.521 11.384 C 3.524 10.868,3.794 9.667,4.063 8.970 C 4.415 8.059,5.019 7.041,5.535 6.489 L 5.658 6.358 8.479 9.179 L 11.300 12.000 10.333 12.967 M18.720 6.801 C 19.713 8.102,20.299 9.587,20.463 11.215 L 20.490 11.490 20.215 11.463 C 18.526 11.293,16.875 10.616,15.625 9.578 L 15.350 9.350 16.844 7.856 C 18.554 6.146,18.320 6.277,18.720 6.801 M14.980 10.343 C 16.405 11.513,18.160 12.245,20.014 12.443 L 20.488 12.493 20.460 12.797 C 20.310 14.434,19.615 16.126,18.578 17.375 L 18.350 17.650 15.525 14.825 L 12.700 12.000 13.660 11.040 C 14.188 10.512,14.629 10.080,14.640 10.080 C 14.651 10.080,14.804 10.199,14.980 10.343 M4.160 12.581 C 5.635 12.791,7.001 13.365,8.199 14.280 C 8.723 14.680,8.854 14.447,7.147 16.153 L 5.658 17.642 5.535 17.511 C 5.468 17.439,5.331 17.272,5.232 17.140 C 4.280 15.877,3.697 14.379,3.538 12.790 L 3.511 12.520 3.625 12.521 C 3.688 12.521,3.929 12.548,4.160 12.581 M14.831 15.531 L 17.642 18.342 17.511 18.465 C 17.439 18.532,17.272 18.669,17.140 18.768 C 15.881 19.717,14.334 20.320,12.797 20.460 L 12.493 20.488 12.443 20.014 C 12.322 18.885,12.052 17.929,11.562 16.900 C 11.224 16.188,10.782 15.509,10.174 14.767 L 10.066 14.635 11.023 13.677 C 11.549 13.151,11.989 12.720,12.000 12.720 C 12.011 12.720,13.285 13.985,14.831 15.531 M9.720 15.801 C 10.713 17.102,11.299 18.587,11.463 20.215 L 11.490 20.490 11.215 20.463 C 9.526 20.293,7.875 19.616,6.625 18.578 L 6.350 18.350 7.844 16.856 C 9.554 15.146,9.320 15.277,9.720 15.801 " stroke="none" fill="black" fill-rule="evenodd"></path></svg>