<svg xmlns="http://www.w3.org/2000/svg" class="icon icon-tabler icon-tabler-ball-bowling" width="24" height="24" viewBox="0 0 24 24" stroke-width="1" stroke="currentColor" fill="none" stroke-linecap="round" stroke-linejoin="round"><path d="M10.900 2.564 C 9.092 2.784,7.444 3.481,6.020 4.628 C 4.323 5.995,3.091 8.034,2.679 10.160 C 2.468 11.247,2.468 12.755,2.679 13.840 C 3.019 15.591,3.905 17.278,5.170 18.585 C 6.746 20.212,8.748 21.195,10.991 21.441 C 11.569 21.505,12.996 21.471,13.520 21.382 C 16.578 20.862,19.166 18.939,20.519 16.180 C 21.189 14.815,21.480 13.549,21.480 12.000 C 21.480 10.487,21.202 9.243,20.562 7.900 C 19.798 6.294,18.506 4.858,16.968 3.907 C 15.800 3.185,14.424 2.710,13.072 2.562 C 12.621 2.513,11.309 2.514,10.900 2.564 M13.160 3.581 C 14.081 3.712,14.852 3.948,15.700 4.360 C 16.622 4.807,17.277 5.273,18.002 5.998 C 19.251 7.248,20.028 8.728,20.365 10.500 C 20.470 11.053,20.512 12.362,20.444 12.946 C 20.245 14.630,19.576 16.182,18.485 17.486 C 17.115 19.122,15.119 20.188,12.946 20.444 C 12.362 20.512,11.053 20.470,10.500 20.365 C 7.839 19.860,5.635 18.221,4.428 15.851 C 4.054 15.115,3.799 14.359,3.635 13.500 C 3.515 12.874,3.486 11.525,3.577 10.868 C 4.105 7.087,7.016 4.152,10.800 3.585 C 11.320 3.507,12.623 3.505,13.160 3.581 M14.656 7.656 C 14.537 7.775,14.520 7.818,14.520 7.993 C 14.520 8.477,15.069 8.682,15.379 8.314 C 15.458 8.220,15.480 8.150,15.480 7.993 C 15.480 7.818,15.463 7.775,15.344 7.656 C 15.224 7.536,15.183 7.520,15.000 7.520 C 14.817 7.520,14.776 7.536,14.656 7.656 M10.656 8.656 C 10.537 8.775,10.520 8.818,10.520 8.993 C 10.520 9.477,11.069 9.682,11.379 9.314 C 11.458 9.220,11.480 9.150,11.480 8.993 C 11.480 8.818,11.463 8.775,11.344 8.656 C 11.224 8.536,11.183 8.520,11.000 8.520 C 10.817 8.520,10.776 8.536,10.656 8.656 M13.656 11.656 C 13.537 11.775,13.520 11.818,13.520 11.993 C 13.520 12.233,13.643 12.408,13.861 12.480 C 14.043 12.540,14.242 12.477,14.379 12.314 C 14.458 12.220,14.480 12.150,14.480 11.993 C 14.480 11.818,14.463 11.775,14.344 11.656 C 14.224 11.536,14.183 11.520,14.000 11.520 C 13.817 11.520,13.776 11.536,13.656 11.656 " stroke="none" fill="black" fill-rule="evenodd"></path></svg>