<svg xmlns="http://www.w3.org/2000/svg" class="icon icon-tabler icon-tabler-ball-tennis" width="24" height="24" viewBox="0 0 24 24" stroke-width="1" stroke="currentColor" fill="none" stroke-linecap="round" stroke-linejoin="round"><path d="M10.900 2.564 C 9.092 2.784,7.444 3.481,6.020 4.628 C 4.323 5.995,3.091 8.034,2.679 10.160 C 2.468 11.247,2.468 12.755,2.679 13.840 C 3.019 15.591,3.905 17.278,5.170 18.585 C 6.746 20.212,8.748 21.195,10.991 21.441 C 11.569 21.505,12.996 21.471,13.520 21.382 C 16.578 20.862,19.166 18.939,20.519 16.180 C 21.189 14.815,21.480 13.549,21.480 12.000 C 21.480 10.487,21.202 9.243,20.562 7.900 C 19.798 6.294,18.506 4.858,16.968 3.907 C 15.800 3.185,14.424 2.710,13.072 2.562 C 12.621 2.513,11.309 2.514,10.900 2.564 M13.160 3.581 C 13.675 3.654,14.290 3.800,14.774 3.964 C 15.311 4.146,16.202 4.590,16.681 4.915 C 17.328 5.353,17.286 5.284,17.056 5.529 C 15.992 6.665,15.209 8.097,14.820 9.620 C 14.583 10.548,14.540 10.911,14.540 12.000 C 14.540 13.089,14.583 13.452,14.820 14.380 C 15.199 15.866,15.966 17.282,17.004 18.415 C 17.290 18.727,17.328 18.647,16.686 19.082 C 15.637 19.793,14.281 20.287,12.946 20.444 C 12.362 20.512,11.053 20.470,10.500 20.365 C 9.340 20.145,8.214 19.692,7.319 19.085 C 6.671 18.647,6.710 18.727,6.999 18.412 C 7.975 17.350,8.757 15.934,9.141 14.535 C 9.403 13.576,9.458 13.139,9.458 12.000 C 9.458 10.861,9.403 10.424,9.141 9.465 C 8.754 8.055,7.987 6.666,6.996 5.585 C 6.710 5.273,6.672 5.353,7.315 4.917 C 8.288 4.258,9.566 3.770,10.800 3.585 C 11.320 3.507,12.623 3.505,13.160 3.581 M6.346 6.362 C 7.297 7.462,7.903 8.618,8.235 9.960 C 8.920 12.732,8.162 15.674,6.220 17.780 L 5.999 18.020 5.756 17.760 C 4.679 16.608,3.947 15.137,3.635 13.500 C 3.515 12.874,3.486 11.525,3.577 10.868 C 3.782 9.399,4.349 8.030,5.245 6.845 C 5.495 6.515,5.954 6.000,5.999 6.000 C 6.018 6.000,6.174 6.163,6.346 6.362 M18.308 6.310 C 19.387 7.519,20.058 8.887,20.365 10.500 C 20.470 11.053,20.512 12.362,20.444 12.946 C 20.246 14.628,19.574 16.186,18.489 17.480 C 18.313 17.689,18.130 17.896,18.080 17.940 L 17.991 18.020 17.812 17.820 C 16.773 16.657,16.135 15.492,15.782 14.110 C 15.430 12.729,15.431 11.267,15.785 9.881 C 16.130 8.529,16.733 7.413,17.735 6.270 C 17.865 6.122,17.985 6.000,18.002 6.000 C 18.018 6.000,18.156 6.140,18.308 6.310 " stroke="none" fill="black" fill-rule="evenodd"></path></svg>