<svg xmlns="http://www.w3.org/2000/svg" class="icon icon-tabler icon-tabler-ban" width="24" height="24" viewBox="0 0 24 24" stroke-width="1" stroke="currentColor" fill="none" stroke-linecap="round" stroke-linejoin="round"><path d="M10.900 2.564 C 9.092 2.784,7.444 3.481,6.020 4.628 C 4.323 5.995,3.091 8.034,2.679 10.160 C 2.468 11.247,2.468 12.755,2.679 13.840 C 3.019 15.591,3.905 17.278,5.170 18.585 C 6.746 20.212,8.748 21.195,10.991 21.441 C 11.569 21.505,12.996 21.471,13.520 21.382 C 16.578 20.862,19.166 18.939,20.519 16.180 C 21.189 14.815,21.480 13.549,21.480 12.000 C 21.480 10.487,21.202 9.243,20.562 7.900 C 19.798 6.294,18.506 4.858,16.968 3.907 C 15.800 3.185,14.424 2.710,13.072 2.562 C 12.621 2.513,11.309 2.514,10.900 2.564 M13.160 3.581 C 14.081 3.712,14.852 3.948,15.700 4.360 C 16.622 4.807,17.277 5.273,18.002 5.998 C 19.251 7.248,20.028 8.728,20.365 10.500 C 20.470 11.053,20.512 12.362,20.444 12.946 C 20.253 14.569,19.579 16.169,18.578 17.375 L 18.350 17.650 12.357 11.657 C 7.455 6.755,6.372 5.653,6.411 5.607 C 6.490 5.511,7.083 5.061,7.420 4.841 C 7.814 4.584,8.573 4.208,9.080 4.021 C 9.538 3.851,10.281 3.662,10.800 3.585 C 11.320 3.507,12.623 3.505,13.160 3.581 M17.569 18.414 C 17.531 18.456,17.365 18.594,17.199 18.720 C 15.949 19.674,14.503 20.260,12.946 20.444 C 12.362 20.512,11.053 20.470,10.500 20.365 C 7.251 19.748,4.693 17.420,3.814 14.280 C 3.615 13.569,3.552 13.105,3.531 12.200 C 3.509 11.221,3.559 10.730,3.766 9.909 C 4.075 8.683,4.806 7.269,5.535 6.489 L 5.658 6.358 11.647 12.347 C 17.432 18.132,17.635 18.340,17.569 18.414 " stroke="none" fill="black" fill-rule="evenodd"></path></svg>