<svg xmlns="http://www.w3.org/2000/svg" class="icon icon-tabler icon-tabler-bandage" width="24" height="24" viewBox="0 0 24 24" stroke-width="1" stroke="currentColor" fill="none" stroke-linecap="round" stroke-linejoin="round"><path d="M15.360 2.583 C 15.305 2.593,15.152 2.620,15.020 2.643 C 14.649 2.707,14.014 2.912,13.653 3.084 C 12.823 3.479,12.944 3.368,8.156 8.156 C 4.250 12.061,3.702 12.624,3.486 12.951 C 3.078 13.572,2.812 14.201,2.653 14.929 C 2.551 15.397,2.551 16.603,2.653 17.071 C 2.894 18.172,3.377 19.061,4.158 19.842 C 4.953 20.637,5.842 21.111,7.020 21.367 C 7.397 21.449,8.660 21.436,9.071 21.347 C 9.799 21.188,10.428 20.922,11.049 20.514 C 11.376 20.298,11.939 19.750,15.844 15.844 C 19.750 11.939,20.298 11.376,20.514 11.049 C 20.922 10.428,21.188 9.799,21.347 9.071 C 21.449 8.603,21.449 7.397,21.347 6.929 C 21.106 5.828,20.624 4.939,19.842 4.157 C 19.069 3.383,18.189 2.903,17.100 2.659 C 16.830 2.598,15.582 2.544,15.360 2.583 M16.773 3.620 C 18.884 3.988,20.440 5.847,20.440 8.000 C 20.440 8.944,20.167 9.798,19.609 10.600 C 19.413 10.882,11.298 19.041,10.833 19.424 C 9.808 20.268,8.430 20.619,7.156 20.359 C 5.413 20.004,4.131 18.784,3.675 17.044 C 3.560 16.607,3.531 15.735,3.615 15.253 C 3.745 14.509,4.066 13.802,4.545 13.208 C 4.682 13.039,6.681 11.017,8.987 8.716 C 13.443 4.269,13.436 4.276,14.124 3.964 C 14.433 3.825,14.979 3.655,15.280 3.606 C 15.632 3.548,16.400 3.555,16.773 3.620 M11.656 9.656 C 11.537 9.775,11.520 9.818,11.520 9.993 C 11.520 10.150,11.542 10.220,11.621 10.314 C 11.758 10.477,11.957 10.540,12.139 10.480 C 12.357 10.408,12.480 10.233,12.480 9.993 C 12.480 9.818,12.463 9.775,12.344 9.656 C 12.224 9.536,12.183 9.520,12.000 9.520 C 11.817 9.520,11.776 9.536,11.656 9.656 M9.656 11.656 C 9.537 11.775,9.520 11.818,9.520 11.993 C 9.520 12.233,9.643 12.408,9.861 12.480 C 10.043 12.540,10.242 12.477,10.379 12.314 C 10.458 12.220,10.480 12.150,10.480 11.993 C 10.480 11.818,10.463 11.775,10.344 11.656 C 10.224 11.536,10.183 11.520,10.000 11.520 C 9.817 11.520,9.776 11.536,9.656 11.656 M13.656 11.656 C 13.537 11.775,13.520 11.818,13.520 11.993 C 13.520 12.233,13.643 12.408,13.861 12.480 C 14.043 12.540,14.242 12.477,14.379 12.314 C 14.458 12.220,14.480 12.150,14.480 11.993 C 14.480 11.818,14.463 11.775,14.344 11.656 C 14.224 11.536,14.183 11.520,14.000 11.520 C 13.817 11.520,13.776 11.536,13.656 11.656 M11.656 13.656 C 11.537 13.775,11.520 13.818,11.520 13.993 C 11.520 14.150,11.542 14.220,11.621 14.314 C 11.758 14.477,11.957 14.540,12.139 14.480 C 12.357 14.408,12.480 14.233,12.480 13.993 C 12.480 13.818,12.463 13.775,12.344 13.656 C 12.224 13.536,12.183 13.520,12.000 13.520 C 11.817 13.520,11.776 13.536,11.656 13.656 " stroke="none" fill="black" fill-rule="evenodd"></path></svg>