<svg xmlns="http://www.w3.org/2000/svg" class="icon icon-tabler icon-tabler-barcode" width="24" height="24" viewBox="0 0 24 24" stroke-width="1" stroke="currentColor" fill="none" stroke-linecap="round" stroke-linejoin="round"><path d="M5.274 3.615 C 4.870 3.734,4.561 3.922,4.242 4.242 C 3.724 4.760,3.536 5.244,3.494 6.175 C 3.459 6.952,3.491 7.179,3.660 7.348 C 3.774 7.462,3.819 7.480,3.991 7.480 C 4.201 7.480,4.355 7.395,4.449 7.227 C 4.480 7.172,4.505 6.856,4.519 6.360 C 4.539 5.614,4.545 5.570,4.649 5.359 C 4.787 5.076,5.076 4.787,5.359 4.649 L 5.580 4.540 6.860 4.520 C 7.775 4.506,8.165 4.486,8.227 4.450 C 8.396 4.353,8.480 4.201,8.480 3.991 C 8.480 3.818,8.462 3.774,8.344 3.656 L 8.208 3.520 6.894 3.522 C 5.649 3.524,5.564 3.529,5.274 3.615 M15.656 3.656 C 15.538 3.774,15.520 3.818,15.520 3.991 C 15.520 4.201,15.604 4.353,15.773 4.450 C 15.835 4.486,16.225 4.506,17.140 4.520 L 18.420 4.540 18.641 4.649 C 18.924 4.787,19.213 5.076,19.351 5.359 C 19.455 5.570,19.461 5.614,19.482 6.360 C 19.496 6.851,19.521 7.172,19.552 7.227 C 19.644 7.395,19.798 7.480,20.009 7.480 C 20.181 7.480,20.226 7.462,20.340 7.348 C 20.448 7.240,20.478 7.172,20.502 6.978 C 20.544 6.641,20.493 5.682,20.417 5.388 C 20.186 4.491,19.510 3.816,18.607 3.582 C 18.416 3.532,18.114 3.520,17.080 3.520 L 15.792 3.520 15.656 3.656 M4.660 10.652 C 4.486 10.826,4.470 10.968,4.487 12.182 C 4.501 13.231,4.510 13.273,4.749 13.429 C 4.840 13.489,4.953 13.500,5.500 13.500 C 6.047 13.500,6.160 13.489,6.251 13.429 C 6.490 13.273,6.499 13.231,6.513 12.182 C 6.530 10.968,6.514 10.826,6.340 10.652 L 6.208 10.520 5.500 10.520 L 4.792 10.520 4.660 10.652 M9.679 10.630 C 9.605 10.696,9.541 10.804,9.519 10.900 C 9.471 11.108,9.471 12.892,9.519 13.100 C 9.574 13.341,9.751 13.480,10.000 13.480 C 10.249 13.480,10.426 13.341,10.481 13.100 C 10.529 12.892,10.529 11.108,10.481 10.900 C 10.426 10.659,10.249 10.520,10.000 10.520 C 9.840 10.520,9.778 10.541,9.679 10.630 M13.660 10.652 C 13.486 10.826,13.470 10.968,13.487 12.182 C 13.501 13.231,13.510 13.273,13.749 13.429 C 13.840 13.489,13.953 13.500,14.500 13.500 C 15.047 13.500,15.160 13.489,15.251 13.429 C 15.490 13.273,15.499 13.231,15.513 12.182 C 15.530 10.968,15.514 10.826,15.340 10.652 L 15.208 10.520 14.500 10.520 L 13.792 10.520 13.660 10.652 M18.679 10.630 C 18.605 10.696,18.541 10.804,18.519 10.900 C 18.471 11.108,18.471 12.892,18.519 13.100 C 18.574 13.341,18.751 13.480,19.000 13.480 C 19.249 13.480,19.426 13.341,19.481 13.100 C 19.529 12.892,19.529 11.108,19.481 10.900 C 19.426 10.659,19.249 10.520,19.000 10.520 C 18.840 10.520,18.778 10.541,18.679 10.630 M3.660 16.652 C 3.552 16.760,3.522 16.828,3.498 17.022 C 3.456 17.359,3.507 18.318,3.583 18.612 C 3.812 19.505,4.470 20.165,5.386 20.421 C 5.564 20.471,5.875 20.492,6.685 20.508 C 8.001 20.536,8.169 20.519,8.348 20.340 C 8.463 20.225,8.480 20.182,8.480 20.000 C 8.480 19.817,8.464 19.776,8.344 19.656 L 8.208 19.520 7.154 19.519 C 5.980 19.518,5.634 19.484,5.339 19.341 C 5.075 19.212,4.784 18.918,4.649 18.641 C 4.545 18.430,4.539 18.386,4.519 17.640 C 4.505 17.144,4.480 16.828,4.449 16.773 C 4.355 16.605,4.201 16.520,3.991 16.520 C 3.819 16.520,3.774 16.538,3.660 16.652 M19.705 16.603 C 19.520 16.749,19.505 16.819,19.482 17.640 C 19.461 18.388,19.455 18.429,19.350 18.644 C 19.220 18.909,18.874 19.252,18.626 19.362 C 18.347 19.485,17.969 19.518,16.846 19.519 L 15.792 19.520 15.656 19.656 C 15.536 19.776,15.520 19.817,15.520 20.000 C 15.520 20.182,15.537 20.225,15.652 20.340 C 15.831 20.519,15.999 20.536,17.315 20.508 C 18.125 20.492,18.436 20.471,18.614 20.421 C 19.530 20.165,20.188 19.505,20.417 18.612 C 20.493 18.318,20.544 17.359,20.502 17.022 C 20.478 16.828,20.448 16.760,20.340 16.652 C 20.226 16.538,20.181 16.520,20.009 16.520 C 19.869 16.520,19.780 16.544,19.705 16.603 " stroke="none" fill="black" fill-rule="evenodd"></path></svg>