<svg xmlns="http://www.w3.org/2000/svg" class="icon icon-tabler icon-tabler-basket" width="24" height="24" viewBox="0 0 24 24" stroke-width="1" stroke="currentColor" fill="none" stroke-linecap="round" stroke-linejoin="round"><path d="M11.732 3.580 C 11.685 3.613,10.544 4.963,9.197 6.580 L 6.747 9.520 4.769 9.520 L 2.792 9.520 2.656 9.656 C 2.541 9.771,2.520 9.820,2.520 9.976 C 2.520 10.084,2.961 11.928,3.581 14.410 C 4.728 19.004,4.731 19.013,5.130 19.540 C 5.448 19.959,5.890 20.262,6.422 20.427 C 6.648 20.496,6.932 20.500,11.980 20.500 C 16.339 20.500,17.340 20.490,17.520 20.445 C 18.028 20.319,18.538 19.979,18.863 19.549 C 19.270 19.011,19.269 19.014,20.419 14.410 C 21.039 11.928,21.480 10.084,21.480 9.976 C 21.480 9.820,21.459 9.771,21.344 9.656 L 21.208 9.520 19.231 9.520 L 17.253 9.520 14.803 6.580 C 13.456 4.963,12.315 3.613,12.268 3.580 C 12.157 3.503,11.843 3.503,11.732 3.580 M13.981 7.160 L 15.930 9.500 13.965 9.510 C 12.884 9.516,11.116 9.516,10.035 9.510 L 8.070 9.500 10.025 7.151 C 11.100 5.859,11.992 4.806,12.006 4.811 C 12.020 4.816,12.909 5.873,13.981 7.160 M19.376 14.430 C 18.288 18.803,18.309 18.736,17.879 19.135 C 17.449 19.532,17.969 19.500,12.000 19.500 C 6.031 19.500,6.551 19.532,6.121 19.135 C 5.691 18.736,5.712 18.803,4.624 14.430 L 3.651 10.520 12.000 10.520 L 20.349 10.520 19.376 14.430 M11.274 12.613 C 10.869 12.736,10.560 12.923,10.242 13.241 C 9.718 13.764,9.500 14.331,9.528 15.098 C 9.541 15.446,9.567 15.603,9.652 15.839 C 9.908 16.557,10.492 17.130,11.207 17.364 C 11.459 17.447,11.576 17.460,12.040 17.459 C 12.553 17.457,12.596 17.451,12.900 17.328 C 13.882 16.933,14.480 16.053,14.480 15.000 C 14.480 13.947,13.879 13.061,12.900 12.673 C 12.612 12.559,12.530 12.545,12.080 12.533 C 11.647 12.521,11.539 12.532,11.274 12.613 M12.641 13.649 C 12.924 13.787,13.213 14.076,13.351 14.359 C 13.449 14.557,13.460 14.624,13.460 15.000 C 13.460 15.348,13.445 15.453,13.372 15.610 C 13.250 15.875,12.912 16.218,12.644 16.350 C 12.443 16.449,12.377 16.460,12.000 16.460 C 11.624 16.460,11.557 16.449,11.359 16.351 C 11.076 16.213,10.787 15.924,10.649 15.641 C 10.499 15.337,10.474 14.802,10.593 14.488 C 10.743 14.094,11.077 13.753,11.468 13.597 C 11.766 13.478,12.345 13.503,12.641 13.649 " stroke="none" fill="black" fill-rule="evenodd"></path></svg>