<svg xmlns="http://www.w3.org/2000/svg" class="icon icon-tabler icon-tabler-battery" width="24" height="24" viewBox="0 0 24 24" stroke-width="1" stroke="currentColor" fill="none" stroke-linecap="round" stroke-linejoin="round"><path d="M5.274 6.615 C 4.870 6.734,4.561 6.922,4.242 7.242 C 3.922 7.561,3.738 7.864,3.603 8.294 L 3.501 8.620 3.500 11.980 C 3.500 15.116,3.505 15.357,3.573 15.600 C 3.834 16.527,4.446 17.143,5.386 17.426 C 5.604 17.492,6.008 17.497,11.200 17.510 C 14.814 17.519,16.924 17.509,17.189 17.482 C 18.112 17.390,18.862 16.884,19.238 16.100 C 19.400 15.763,19.471 15.450,19.503 14.935 L 19.531 14.489 19.689 14.468 C 20.077 14.416,20.408 14.061,20.481 13.618 C 20.531 13.309,20.531 10.691,20.481 10.382 C 20.408 9.940,20.078 9.584,19.692 9.533 L 19.535 9.512 19.494 8.986 C 19.444 8.355,19.330 7.990,19.058 7.593 C 18.754 7.148,18.350 6.836,17.835 6.648 L 17.540 6.540 11.560 6.532 L 5.580 6.524 5.274 6.615 M17.641 7.649 C 17.922 7.787,18.213 8.076,18.348 8.352 C 18.440 8.540,18.457 8.640,18.484 9.139 C 18.516 9.737,18.560 9.907,18.740 10.144 C 18.853 10.292,19.204 10.480,19.368 10.480 L 19.480 10.480 19.480 12.000 L 19.480 13.520 19.368 13.520 C 19.204 13.520,18.853 13.708,18.740 13.856 C 18.560 14.092,18.516 14.263,18.484 14.855 C 18.447 15.524,18.390 15.689,18.077 16.020 C 17.825 16.286,17.553 16.425,17.180 16.478 C 16.800 16.533,6.200 16.533,5.820 16.478 C 5.666 16.456,5.449 16.394,5.339 16.341 C 5.075 16.212,4.784 15.918,4.649 15.641 L 4.540 15.420 4.529 12.052 C 4.519 8.801,4.521 8.677,4.596 8.480 C 4.743 8.093,5.083 7.749,5.468 7.599 C 5.653 7.526,5.867 7.524,11.540 7.532 L 17.420 7.540 17.641 7.649 " stroke="none" fill="black" fill-rule="evenodd"></path></svg>