<svg xmlns="http://www.w3.org/2000/svg" class="icon icon-tabler icon-tabler-battery-charging" width="24" height="24" viewBox="0 0 24 24" stroke-width="1" stroke="currentColor" fill="none" stroke-linecap="round" stroke-linejoin="round"><path d="M5.274 6.615 C 4.870 6.734,4.561 6.922,4.242 7.242 C 3.922 7.561,3.738 7.864,3.603 8.294 L 3.501 8.620 3.500 11.980 C 3.500 15.116,3.505 15.357,3.573 15.600 C 3.836 16.534,4.487 17.183,5.395 17.419 C 5.683 17.493,6.644 17.544,6.978 17.502 C 7.172 17.478,7.240 17.448,7.348 17.340 C 7.463 17.225,7.480 17.182,7.480 17.000 C 7.480 16.819,7.463 16.775,7.350 16.662 L 7.219 16.531 6.480 16.510 C 5.966 16.495,5.677 16.469,5.535 16.424 C 5.137 16.299,4.752 15.928,4.596 15.520 C 4.521 15.323,4.519 15.199,4.529 11.948 L 4.540 8.580 4.649 8.359 C 4.787 8.076,5.076 7.787,5.359 7.649 L 5.580 7.540 6.860 7.520 C 7.775 7.506,8.165 7.486,8.227 7.450 C 8.396 7.353,8.480 7.201,8.480 6.991 C 8.480 6.818,8.462 6.774,8.344 6.656 L 8.208 6.520 6.894 6.522 C 5.649 6.524,5.564 6.529,5.274 6.615 M15.659 6.653 C 15.538 6.774,15.520 6.817,15.520 6.991 C 15.520 7.201,15.605 7.355,15.773 7.449 C 15.828 7.480,16.144 7.505,16.640 7.519 C 17.386 7.539,17.430 7.545,17.641 7.649 C 17.922 7.787,18.213 8.076,18.348 8.352 C 18.440 8.540,18.457 8.640,18.484 9.139 C 18.516 9.737,18.560 9.907,18.740 10.144 C 18.853 10.292,19.204 10.480,19.368 10.480 L 19.480 10.480 19.480 12.000 L 19.480 13.520 19.368 13.520 C 19.204 13.520,18.853 13.708,18.740 13.856 C 18.560 14.092,18.516 14.263,18.484 14.855 C 18.447 15.524,18.390 15.689,18.077 16.020 C 17.825 16.286,17.553 16.425,17.180 16.478 C 17.026 16.500,16.426 16.519,15.846 16.519 L 14.792 16.520 14.656 16.656 C 14.537 16.775,14.520 16.817,14.520 16.995 C 14.520 17.250,14.657 17.425,14.900 17.481 C 15.106 17.529,16.756 17.530,17.206 17.482 C 18.223 17.375,19.023 16.760,19.348 15.835 C 19.423 15.622,19.464 15.395,19.494 15.014 L 19.535 14.488 19.692 14.467 C 20.078 14.416,20.408 14.060,20.481 13.618 C 20.502 13.487,20.520 12.759,20.520 12.000 C 20.520 11.241,20.502 10.513,20.481 10.382 C 20.408 9.940,20.078 9.584,19.692 9.533 L 19.535 9.512 19.494 8.986 C 19.464 8.605,19.423 8.378,19.348 8.165 C 19.101 7.461,18.550 6.908,17.839 6.649 C 17.554 6.546,17.500 6.540,16.669 6.528 L 15.798 6.514 15.659 6.653 M11.703 7.605 C 11.630 7.663,11.267 8.347,10.558 9.765 C 9.663 11.553,9.520 11.864,9.520 12.019 C 9.520 12.248,9.668 12.428,9.900 12.481 C 9.988 12.501,10.533 12.519,11.110 12.519 C 11.688 12.520,12.160 12.529,12.160 12.540 C 12.160 12.551,11.791 13.298,11.340 14.200 C 10.408 16.064,10.400 16.088,10.656 16.344 C 10.774 16.462,10.818 16.480,10.991 16.480 C 11.132 16.480,11.220 16.456,11.297 16.395 C 11.370 16.337,11.733 15.653,12.442 14.235 C 13.614 11.892,13.605 11.917,13.344 11.656 L 13.208 11.520 12.024 11.520 C 11.258 11.520,10.840 11.506,10.840 11.480 C 10.840 11.458,11.209 10.702,11.660 9.800 C 12.592 7.936,12.600 7.912,12.344 7.656 C 12.226 7.538,12.182 7.520,12.009 7.520 C 11.868 7.520,11.780 7.544,11.703 7.605 " stroke="none" fill="black" fill-rule="evenodd"></path></svg>