<svg xmlns="http://www.w3.org/2000/svg" class="icon icon-tabler icon-tabler-bed" width="24" height="24" viewBox="0 0 24 24" stroke-width="1" stroke="currentColor" fill="none" stroke-linecap="round" stroke-linejoin="round"><path d="M2.679 6.630 C 2.605 6.696,2.541 6.804,2.519 6.900 C 2.470 7.113,2.470 17.887,2.519 18.100 C 2.574 18.341,2.751 18.480,3.000 18.480 C 3.249 18.480,3.426 18.341,3.481 18.100 C 3.501 18.012,3.519 17.171,3.519 16.230 L 3.520 14.520 12.000 14.520 L 20.480 14.520 20.481 16.230 C 20.481 17.171,20.499 18.012,20.519 18.100 C 20.575 18.343,20.750 18.480,21.005 18.480 C 21.181 18.480,21.225 18.463,21.340 18.348 C 21.445 18.243,21.478 18.171,21.499 17.998 C 21.513 17.878,21.519 15.944,21.510 13.700 C 21.497 9.935,21.490 9.601,21.424 9.380 C 21.150 8.454,20.504 7.814,19.607 7.582 C 19.399 7.528,18.822 7.520,15.085 7.520 L 10.801 7.520 10.679 7.630 C 10.605 7.696,10.541 7.804,10.519 7.900 C 10.498 7.989,10.481 9.268,10.481 10.790 L 10.480 13.520 7.000 13.520 L 3.520 13.520 3.519 10.290 C 3.519 8.462,3.502 6.991,3.481 6.900 C 3.426 6.659,3.249 6.520,3.000 6.520 C 2.840 6.520,2.778 6.541,2.679 6.630 M6.468 8.597 C 6.055 8.763,5.691 9.152,5.575 9.552 C 5.480 9.879,5.514 10.364,5.651 10.646 C 5.787 10.924,6.077 11.213,6.359 11.351 C 6.557 11.449,6.624 11.460,7.000 11.460 C 7.376 11.460,7.443 11.449,7.641 11.351 C 7.924 11.213,8.213 10.924,8.351 10.641 C 8.449 10.443,8.460 10.376,8.460 10.000 C 8.460 9.624,8.449 9.557,8.351 9.359 C 8.213 9.076,7.924 8.787,7.643 8.650 C 7.345 8.504,6.763 8.478,6.468 8.597 M19.641 8.649 C 19.924 8.787,20.213 9.076,20.351 9.359 L 20.460 9.580 20.471 11.550 L 20.483 13.520 16.001 13.520 L 11.520 13.520 11.520 11.019 L 11.520 8.519 15.470 8.529 L 19.420 8.540 19.641 8.649 M7.344 9.656 C 7.464 9.776,7.480 9.817,7.480 10.000 C 7.480 10.183,7.464 10.224,7.344 10.344 C 7.224 10.464,7.183 10.480,7.000 10.480 C 6.817 10.480,6.776 10.464,6.656 10.344 C 6.536 10.224,6.520 10.183,6.520 10.000 C 6.520 9.817,6.536 9.776,6.656 9.656 C 6.776 9.536,6.817 9.520,7.000 9.520 C 7.183 9.520,7.224 9.536,7.344 9.656 " stroke="none" fill="black" fill-rule="evenodd"></path></svg>