<svg xmlns="http://www.w3.org/2000/svg" class="icon icon-tabler icon-tabler-bell" width="24" height="24" viewBox="0 0 24 24" stroke-width="1" stroke="currentColor" fill="none" stroke-linecap="round" stroke-linejoin="round"><path d="M11.274 2.613 C 10.869 2.736,10.560 2.923,10.242 3.241 C 9.913 3.569,9.710 3.916,9.597 4.343 L 9.509 4.677 9.141 4.896 C 7.260 6.019,5.993 7.878,5.595 10.100 C 5.519 10.527,5.506 10.786,5.483 12.460 L 5.456 14.340 5.330 14.673 C 5.061 15.381,4.675 15.902,4.119 16.307 C 3.560 16.714,3.520 16.760,3.520 16.996 C 3.520 17.249,3.658 17.425,3.900 17.481 C 3.988 17.501,5.051 17.519,6.263 17.519 L 8.466 17.520 8.511 18.117 C 8.588 19.146,8.871 19.791,9.540 20.460 C 9.963 20.883,10.366 21.137,10.920 21.328 C 11.293 21.457,11.313 21.459,12.000 21.459 C 12.688 21.459,12.706 21.457,13.079 21.327 C 13.915 21.037,14.538 20.540,14.993 19.800 C 15.297 19.306,15.436 18.835,15.489 18.116 L 15.534 17.520 17.737 17.519 C 18.949 17.519,20.012 17.501,20.100 17.481 C 20.337 17.426,20.480 17.249,20.480 17.008 C 20.480 16.771,20.417 16.678,20.127 16.495 C 19.441 16.058,18.936 15.422,18.653 14.636 L 18.546 14.340 18.518 12.460 C 18.488 10.464,18.471 10.274,18.259 9.429 C 17.794 7.585,16.522 5.889,14.857 4.895 L 14.489 4.675 14.421 4.408 C 14.221 3.609,13.667 2.977,12.900 2.673 C 12.612 2.559,12.530 2.545,12.080 2.533 C 11.647 2.521,11.539 2.532,11.274 2.613 M12.641 3.649 C 12.918 3.784,13.212 4.075,13.341 4.339 C 13.395 4.450,13.458 4.683,13.482 4.860 C 13.530 5.210,13.591 5.337,13.753 5.426 C 14.660 5.921,15.115 6.247,15.627 6.767 C 16.481 7.636,17.091 8.757,17.366 9.966 C 17.444 10.309,17.454 10.505,17.480 12.300 C 17.507 14.098,17.516 14.285,17.591 14.560 C 17.771 15.221,18.006 15.721,18.364 16.205 C 18.472 16.351,18.560 16.481,18.560 16.494 C 18.560 16.507,15.608 16.518,12.000 16.518 C 8.392 16.518,5.440 16.507,5.440 16.494 C 5.440 16.481,5.528 16.351,5.636 16.205 C 5.896 15.853,6.096 15.482,6.243 15.078 C 6.484 14.417,6.488 14.382,6.519 12.280 C 6.546 10.505,6.556 10.308,6.634 9.966 C 7.079 8.016,8.347 6.387,10.106 5.506 C 10.381 5.368,10.469 5.247,10.498 4.968 C 10.568 4.302,10.908 3.821,11.468 3.597 C 11.766 3.478,12.345 3.503,12.641 3.649 M14.470 18.050 C 14.447 18.681,14.370 18.938,14.075 19.379 C 13.765 19.844,13.320 20.191,12.808 20.368 C 12.579 20.446,12.460 20.460,12.000 20.460 C 11.540 20.460,11.421 20.446,11.192 20.368 C 10.680 20.191,10.235 19.844,9.925 19.379 C 9.630 18.938,9.553 18.681,9.530 18.050 L 9.511 17.520 12.000 17.520 L 14.489 17.520 14.470 18.050 " stroke="none" fill="black" fill-rule="evenodd"></path></svg>