<svg xmlns="http://www.w3.org/2000/svg" class="icon icon-tabler icon-tabler-bike" width="24" height="24" viewBox="0 0 24 24" stroke-width="1" stroke="currentColor" fill="none" stroke-linecap="round" stroke-linejoin="round"><path d="M16.468 3.597 C 16.055 3.763,15.691 4.152,15.575 4.552 C 15.480 4.879,15.514 5.364,15.651 5.646 C 15.787 5.924,16.077 6.213,16.359 6.351 C 16.557 6.449,16.624 6.460,17.000 6.460 C 17.376 6.460,17.443 6.449,17.641 6.351 C 17.924 6.213,18.213 5.924,18.351 5.641 C 18.449 5.443,18.460 5.376,18.460 5.000 C 18.460 4.624,18.449 4.557,18.351 4.359 C 18.213 4.076,17.924 3.787,17.643 3.650 C 17.345 3.504,16.763 3.478,16.468 3.597 M17.344 4.656 C 17.464 4.776,17.480 4.817,17.480 5.000 C 17.480 5.183,17.464 5.224,17.344 5.344 C 17.224 5.464,17.183 5.480,17.000 5.480 C 16.817 5.480,16.776 5.464,16.656 5.344 C 16.536 5.224,16.520 5.183,16.520 5.000 C 16.520 4.698,16.698 4.520,17.000 4.520 C 17.183 4.520,17.224 4.536,17.344 4.656 M11.203 9.598 C 9.774 10.741,8.586 11.712,8.562 11.755 C 8.539 11.799,8.520 11.921,8.520 12.026 L 8.520 12.218 10.000 13.699 L 11.480 15.181 11.481 17.061 C 11.481 18.094,11.499 19.012,11.519 19.100 C 11.574 19.341,11.751 19.480,12.000 19.480 C 12.249 19.480,12.426 19.341,12.481 19.100 C 12.529 18.893,12.529 15.109,12.482 14.903 C 12.450 14.768,12.256 14.556,11.094 13.394 C 10.351 12.651,9.752 12.036,9.762 12.028 C 10.037 11.794,13.819 8.790,13.855 8.777 C 13.886 8.764,14.232 9.247,14.772 10.057 C 15.248 10.772,15.687 11.389,15.747 11.428 C 15.846 11.493,15.994 11.501,17.318 11.513 C 19.069 11.528,19.168 11.520,19.348 11.340 C 19.463 11.225,19.480 11.182,19.480 11.000 C 19.480 10.817,19.464 10.776,19.344 10.656 L 19.208 10.520 17.744 10.520 L 16.281 10.520 15.323 9.084 C 14.796 8.294,14.324 7.619,14.273 7.584 C 14.221 7.547,14.101 7.520,13.991 7.520 L 13.801 7.520 11.203 9.598 M4.259 14.576 C 3.065 14.848,2.079 15.739,1.676 16.910 C 1.543 17.294,1.541 17.310,1.541 18.000 C 1.541 18.687,1.543 18.707,1.672 19.080 C 1.863 19.634,2.117 20.037,2.540 20.460 C 2.963 20.883,3.366 21.137,3.920 21.328 C 4.293 21.457,4.313 21.459,5.000 21.459 C 5.688 21.459,5.706 21.457,6.079 21.327 C 6.288 21.255,6.558 21.139,6.679 21.071 C 7.449 20.635,8.035 19.930,8.324 19.090 C 8.457 18.705,8.459 18.690,8.459 18.000 C 8.459 17.310,8.457 17.295,8.324 16.910 C 8.035 16.070,7.449 15.365,6.679 14.929 C 6.558 14.861,6.288 14.747,6.079 14.676 C 5.730 14.557,5.653 14.546,5.100 14.534 C 4.694 14.526,4.422 14.539,4.259 14.576 M18.259 14.576 C 17.065 14.848,16.079 15.739,15.676 16.910 C 15.543 17.294,15.541 17.310,15.541 18.000 C 15.541 18.687,15.543 18.707,15.672 19.080 C 15.863 19.634,16.117 20.037,16.540 20.460 C 16.963 20.883,17.366 21.137,17.920 21.328 C 18.293 21.457,18.313 21.459,19.000 21.459 C 19.688 21.459,19.706 21.457,20.079 21.327 C 20.288 21.255,20.558 21.139,20.679 21.071 C 21.449 20.635,22.035 19.930,22.324 19.090 C 22.457 18.705,22.459 18.690,22.459 18.000 C 22.459 17.310,22.457 17.295,22.324 16.910 C 22.035 16.070,21.449 15.365,20.679 14.929 C 20.558 14.861,20.288 14.747,20.079 14.676 C 19.730 14.557,19.653 14.546,19.100 14.534 C 18.694 14.526,18.422 14.539,18.259 14.576 M5.834 15.640 C 6.142 15.749,6.615 16.059,6.818 16.283 C 7.048 16.538,7.266 16.898,7.368 17.192 C 7.446 17.421,7.460 17.540,7.460 18.000 C 7.460 18.460,7.446 18.579,7.368 18.808 C 7.190 19.320,6.844 19.765,6.378 20.076 C 5.916 20.385,5.647 20.460,5.000 20.460 C 4.540 20.460,4.421 20.446,4.192 20.368 C 3.898 20.266,3.538 20.048,3.283 19.818 C 3.058 19.615,2.749 19.141,2.640 18.834 C 2.516 18.481,2.484 17.763,2.577 17.399 C 2.803 16.515,3.484 15.821,4.360 15.581 C 4.694 15.489,5.500 15.522,5.834 15.640 M19.834 15.640 C 20.142 15.749,20.615 16.059,20.818 16.283 C 21.048 16.538,21.266 16.898,21.368 17.192 C 21.446 17.421,21.460 17.540,21.460 18.000 C 21.460 18.460,21.446 18.579,21.368 18.808 C 21.190 19.320,20.844 19.765,20.378 20.076 C 19.916 20.385,19.647 20.460,19.000 20.460 C 18.540 20.460,18.421 20.446,18.192 20.368 C 17.898 20.266,17.538 20.048,17.283 19.818 C 17.058 19.615,16.749 19.141,16.640 18.834 C 16.516 18.481,16.484 17.763,16.577 17.399 C 16.803 16.515,17.484 15.821,18.360 15.581 C 18.694 15.489,19.500 15.522,19.834 15.640 " stroke="none" fill="black" fill-rule="evenodd"></path></svg>