<svg xmlns="http://www.w3.org/2000/svg" class="icon icon-tabler icon-tabler-bluetooth" width="24" height="24" viewBox="0 0 24 24" stroke-width="1" stroke="currentColor" fill="none" stroke-linecap="round" stroke-linejoin="round"><path d="M11.709 3.600 C 11.649 3.647,11.577 3.725,11.550 3.773 C 11.512 3.840,11.495 4.691,11.480 7.450 L 11.460 11.040 8.820 9.280 C 6.247 7.565,6.175 7.520,5.986 7.520 C 5.819 7.520,5.773 7.539,5.656 7.656 C 5.538 7.774,5.520 7.818,5.520 7.991 C 5.520 8.125,5.545 8.220,5.595 8.285 C 5.637 8.338,6.887 9.191,8.374 10.180 C 9.861 11.170,11.078 11.989,11.078 12.000 C 11.078 12.011,9.861 12.830,8.374 13.820 C 6.887 14.809,5.637 15.662,5.595 15.715 C 5.545 15.780,5.520 15.875,5.520 16.009 C 5.520 16.182,5.538 16.226,5.656 16.344 C 5.773 16.461,5.819 16.480,5.986 16.480 C 6.175 16.480,6.247 16.435,8.820 14.720 L 11.460 12.960 11.480 16.552 C 11.499 19.896,11.505 20.151,11.571 20.251 C 11.686 20.427,11.815 20.490,12.029 20.473 C 12.205 20.460,12.454 20.302,15.286 18.412 C 16.972 17.286,18.381 16.324,18.416 16.274 C 18.506 16.145,18.500 15.836,18.405 15.715 C 18.363 15.662,17.113 14.809,15.626 13.820 C 14.139 12.830,12.922 12.011,12.922 12.000 C 12.922 11.989,14.139 11.170,15.626 10.180 C 17.113 9.191,18.363 8.338,18.405 8.285 C 18.500 8.164,18.506 7.855,18.416 7.726 C 18.381 7.676,16.972 6.714,15.286 5.588 C 12.378 3.646,12.210 3.540,12.019 3.527 C 11.861 3.517,11.796 3.532,11.709 3.600 M14.915 6.540 C 16.104 7.332,17.078 7.989,17.078 8.000 C 17.078 8.016,13.151 10.645,12.636 10.974 L 12.520 11.048 12.520 8.000 L 12.520 4.952 12.636 5.026 C 12.699 5.067,13.725 5.748,14.915 6.540 M14.915 14.540 C 16.104 15.332,17.078 15.989,17.078 16.000 C 17.078 16.016,13.151 18.645,12.636 18.974 L 12.520 19.048 12.520 16.000 L 12.520 12.952 12.636 13.026 C 12.699 13.067,13.725 13.748,14.915 14.540 " stroke="none" fill="black" fill-rule="evenodd"></path></svg>