<svg xmlns="http://www.w3.org/2000/svg" class="icon icon-tabler icon-tabler-bold" width="24" height="24" viewBox="0 0 24 24" stroke-width="1" stroke="currentColor" fill="none" stroke-linecap="round" stroke-linejoin="round"><path d="M6.661 4.651 C 6.554 4.758,6.523 4.827,6.502 5.002 C 6.488 5.122,6.481 8.353,6.488 12.182 C 6.499 18.754,6.504 19.150,6.571 19.251 C 6.609 19.310,6.690 19.391,6.749 19.429 C 6.849 19.495,7.088 19.501,10.278 19.512 C 12.322 19.519,13.909 19.508,14.220 19.484 C 15.301 19.400,16.140 19.019,16.844 18.294 C 18.080 17.021,18.349 15.151,17.518 13.607 C 17.110 12.848,16.327 12.126,15.604 11.838 L 15.371 11.746 15.727 11.407 C 16.873 10.317,17.283 8.724,16.795 7.260 C 16.575 6.599,16.254 6.096,15.734 5.595 C 15.270 5.149,14.779 4.868,14.080 4.648 L 13.740 4.540 10.267 4.529 L 6.795 4.517 6.661 4.651 M13.940 5.652 C 14.409 5.817,14.779 6.051,15.120 6.398 C 15.835 7.126,16.129 8.077,15.942 9.055 C 15.826 9.662,15.570 10.144,15.120 10.602 C 14.582 11.150,13.984 11.419,13.164 11.482 C 12.909 11.502,11.535 11.519,10.110 11.519 L 7.520 11.520 7.520 8.519 L 7.520 5.518 10.570 5.529 L 13.620 5.540 13.940 5.652 M14.940 12.652 C 15.409 12.817,15.779 13.051,16.120 13.398 C 16.835 14.126,17.129 15.077,16.942 16.055 C 16.826 16.662,16.570 17.144,16.120 17.602 C 15.610 18.121,15.002 18.407,14.250 18.480 C 14.035 18.501,12.433 18.518,10.690 18.519 L 7.520 18.520 7.520 15.519 L 7.520 12.518 11.070 12.529 L 14.620 12.540 14.940 12.652 " stroke="none" fill="black" fill-rule="evenodd"></path></svg>