<svg xmlns="http://www.w3.org/2000/svg" class="icon icon-tabler icon-tabler-bolt" width="24" height="24" viewBox="0 0 24 24" stroke-width="1" stroke="currentColor" fill="none" stroke-linecap="round" stroke-linejoin="round"><path d="M12.683 2.630 C 12.618 2.691,10.755 5.231,8.542 8.275 L 4.520 13.810 4.520 14.004 C 4.520 14.249,4.661 14.426,4.900 14.481 C 4.989 14.502,6.260 14.519,7.770 14.519 L 10.480 14.520 10.481 17.730 C 10.481 19.546,10.498 21.010,10.519 21.100 C 10.574 21.341,10.751 21.480,11.000 21.480 C 11.161 21.480,11.221 21.459,11.317 21.370 C 11.382 21.310,13.245 18.769,15.458 15.725 L 19.480 10.190 19.480 9.991 C 19.480 9.818,19.462 9.774,19.344 9.656 L 19.208 9.520 16.364 9.520 L 13.520 9.520 13.519 6.290 C 13.519 4.462,13.502 2.991,13.481 2.900 C 13.426 2.659,13.249 2.520,13.000 2.520 C 12.839 2.520,12.779 2.541,12.683 2.630 M12.571 10.251 C 12.741 10.512,12.597 10.498,15.423 10.520 L 17.989 10.540 14.765 14.974 L 11.540 19.407 11.520 16.634 C 11.499 13.671,11.506 13.769,11.295 13.603 C 11.190 13.521,11.161 13.520,8.595 13.520 C 7.168 13.520,6.000 13.510,6.000 13.497 C 6.000 13.485,7.454 11.476,9.230 9.034 L 12.460 4.593 12.480 7.368 C 12.498 9.932,12.505 10.152,12.571 10.251 " stroke="none" fill="black" fill-rule="evenodd"></path></svg>