<svg xmlns="http://www.w3.org/2000/svg" class="icon icon-tabler icon-tabler-book" width="24" height="24" viewBox="0 0 24 24" stroke-width="1" stroke="currentColor" fill="none" stroke-linecap="round" stroke-linejoin="round"><path d="M6.780 4.320 C 5.926 4.392,5.163 4.556,4.332 4.844 C 3.830 5.019,2.890 5.457,2.703 5.605 C 2.467 5.791,2.480 5.384,2.480 12.500 C 2.480 19.597,2.468 19.210,2.697 19.391 C 2.917 19.563,2.989 19.551,3.650 19.225 C 4.942 18.587,6.120 18.306,7.500 18.306 C 8.877 18.306,10.058 18.588,11.344 19.222 C 11.676 19.386,11.972 19.520,12.000 19.520 C 12.028 19.520,12.324 19.386,12.656 19.222 C 13.942 18.588,15.123 18.306,16.500 18.306 C 17.881 18.306,19.058 18.587,20.354 19.227 C 20.948 19.520,20.974 19.529,21.121 19.484 C 21.302 19.430,21.468 19.248,21.500 19.069 C 21.513 18.998,21.518 15.994,21.511 12.393 L 21.500 5.846 21.416 5.733 C 21.307 5.588,21.015 5.415,20.420 5.147 C 19.145 4.570,17.918 4.308,16.500 4.308 C 15.061 4.308,13.834 4.577,12.490 5.187 L 12.001 5.409 11.470 5.169 C 10.587 4.769,9.795 4.534,8.880 4.400 C 8.271 4.311,7.320 4.274,6.780 4.320 M8.672 5.382 C 9.491 5.495,10.360 5.751,11.104 6.099 L 11.480 6.275 11.480 12.217 C 11.480 15.486,11.473 18.160,11.466 18.160 C 11.458 18.160,11.336 18.108,11.196 18.045 C 9.515 17.289,7.255 17.097,5.340 17.547 C 4.876 17.656,3.963 17.958,3.712 18.085 C 3.630 18.126,3.553 18.160,3.542 18.160 C 3.530 18.160,3.520 15.486,3.520 12.217 L 3.520 6.275 3.896 6.099 C 4.840 5.658,5.840 5.405,7.040 5.304 C 7.341 5.279,8.235 5.321,8.672 5.382 M17.672 5.382 C 18.491 5.495,19.360 5.751,20.104 6.099 L 20.480 6.275 20.480 12.217 C 20.480 15.486,20.473 18.160,20.466 18.160 C 20.458 18.160,20.336 18.108,20.196 18.045 C 18.515 17.289,16.255 17.097,14.340 17.547 C 13.876 17.656,12.963 17.958,12.712 18.085 C 12.630 18.126,12.553 18.160,12.542 18.160 C 12.530 18.160,12.520 15.486,12.520 12.217 L 12.520 6.275 12.896 6.099 C 13.840 5.658,14.840 5.405,16.040 5.304 C 16.341 5.279,17.235 5.321,17.672 5.382 " stroke="none" fill="black" fill-rule="evenodd"></path></svg>