<svg xmlns="http://www.w3.org/2000/svg" class="icon icon-tabler icon-tabler-border-radius" width="24" height="24" viewBox="0 0 24 24" stroke-width="1" stroke="currentColor" fill="none" stroke-linecap="round" stroke-linejoin="round"><path d="M7.145 3.582 C 5.561 3.897,4.244 5.049,3.740 6.561 C 3.520 7.220,3.514 7.301,3.492 9.613 C 3.481 10.797,3.484 11.867,3.500 11.991 C 3.522 12.171,3.554 12.242,3.660 12.348 C 3.775 12.463,3.819 12.480,3.995 12.480 C 4.250 12.480,4.425 12.343,4.481 12.100 C 4.501 12.012,4.519 10.958,4.519 9.757 C 4.520 8.365,4.536 7.490,4.563 7.340 C 4.785 6.139,5.708 5.091,6.910 4.675 L 7.300 4.540 9.720 4.520 C 11.545 4.505,12.161 4.488,12.227 4.450 C 12.396 4.353,12.480 4.201,12.480 3.991 C 12.480 3.818,12.462 3.774,12.344 3.656 L 12.208 3.520 9.814 3.524 C 7.964 3.527,7.358 3.540,7.145 3.582 M15.729 3.582 C 15.611 3.665,15.520 3.847,15.520 4.000 C 15.520 4.153,15.611 4.335,15.729 4.418 C 15.873 4.519,16.172 4.499,16.314 4.379 C 16.676 4.074,16.477 3.520,16.006 3.520 C 15.900 3.520,15.779 3.547,15.729 3.582 M19.729 3.582 C 19.293 3.888,19.618 4.624,20.124 4.479 C 20.525 4.364,20.631 3.888,20.314 3.621 C 20.172 3.501,19.873 3.481,19.729 3.582 M19.751 7.583 C 19.519 7.708,19.452 8.047,19.611 8.284 C 19.839 8.622,20.350 8.534,20.482 8.134 C 20.579 7.841,20.339 7.519,20.027 7.522 C 19.935 7.522,19.811 7.550,19.751 7.583 M19.751 11.583 C 19.615 11.656,19.520 11.833,19.520 12.012 C 19.520 12.319,19.859 12.577,20.136 12.481 C 20.531 12.343,20.626 11.884,20.314 11.621 C 20.174 11.504,19.927 11.487,19.751 11.583 M3.820 15.534 C 3.640 15.616,3.553 15.737,3.531 15.932 C 3.492 16.278,3.725 16.508,4.075 16.468 C 4.406 16.431,4.602 16.084,4.460 15.786 C 4.342 15.538,4.058 15.426,3.820 15.534 M19.751 15.583 C 19.402 15.772,19.471 16.344,19.858 16.471 C 20.252 16.601,20.625 16.208,20.466 15.829 C 20.349 15.547,20.022 15.435,19.751 15.583 M3.820 19.534 C 3.640 19.616,3.553 19.737,3.531 19.932 C 3.494 20.260,3.699 20.480,4.042 20.480 C 4.371 20.480,4.605 20.092,4.460 19.786 C 4.342 19.538,4.058 19.426,3.820 19.534 M7.656 19.656 C 7.536 19.776,7.520 19.817,7.520 20.000 C 7.520 20.183,7.536 20.224,7.656 20.344 C 7.775 20.463,7.818 20.480,7.993 20.480 C 8.235 20.480,8.417 20.351,8.476 20.137 C 8.528 19.949,8.465 19.749,8.316 19.623 C 8.220 19.542,8.150 19.520,7.993 19.520 C 7.818 19.520,7.775 19.537,7.656 19.656 M11.656 19.656 C 11.536 19.776,11.520 19.817,11.520 20.000 C 11.520 20.183,11.536 20.224,11.656 20.344 C 11.775 20.463,11.818 20.480,11.993 20.480 C 12.235 20.480,12.417 20.351,12.476 20.137 C 12.528 19.949,12.465 19.749,12.316 19.623 C 12.220 19.542,12.150 19.520,11.993 19.520 C 11.818 19.520,11.775 19.537,11.656 19.656 M15.656 19.656 C 15.536 19.776,15.520 19.817,15.520 20.000 C 15.520 20.183,15.536 20.224,15.656 20.344 C 15.775 20.463,15.818 20.480,15.993 20.480 C 16.235 20.480,16.417 20.351,16.476 20.137 C 16.528 19.949,16.465 19.749,16.316 19.623 C 16.220 19.542,16.150 19.520,15.993 19.520 C 15.818 19.520,15.775 19.537,15.656 19.656 M19.656 19.656 C 19.536 19.776,19.520 19.817,19.520 20.000 C 19.520 20.183,19.536 20.224,19.656 20.344 C 19.775 20.463,19.818 20.480,19.993 20.480 C 20.233 20.480,20.408 20.357,20.480 20.139 C 20.540 19.957,20.477 19.758,20.314 19.621 C 20.220 19.542,20.150 19.520,19.993 19.520 C 19.818 19.520,19.775 19.537,19.656 19.656 " stroke="none" fill="black" fill-rule="evenodd"></path></svg>