<svg xmlns="http://www.w3.org/2000/svg" class="icon icon-tabler icon-tabler-border-vertical" width="24" height="24" viewBox="0 0 24 24" stroke-width="1" stroke="currentColor" fill="none" stroke-linecap="round" stroke-linejoin="round"><path d="M11.803 3.548 C 11.727 3.588,11.628 3.671,11.583 3.733 L 11.500 3.846 11.490 11.953 C 11.480 19.611,11.484 20.068,11.550 20.197 C 11.756 20.600,12.244 20.600,12.450 20.197 C 12.516 20.068,12.520 19.594,12.520 12.000 C 12.520 4.406,12.516 3.932,12.450 3.803 C 12.312 3.533,12.039 3.425,11.803 3.548 M3.656 3.656 C 3.536 3.776,3.520 3.817,3.520 4.000 C 3.520 4.302,3.698 4.480,4.000 4.480 C 4.183 4.480,4.224 4.464,4.344 4.344 C 4.464 4.224,4.480 4.183,4.480 4.000 C 4.480 3.817,4.464 3.776,4.344 3.656 C 4.224 3.536,4.183 3.520,4.000 3.520 C 3.817 3.520,3.776 3.536,3.656 3.656 M7.656 3.656 C 7.536 3.776,7.520 3.817,7.520 4.000 C 7.520 4.183,7.536 4.224,7.656 4.344 C 7.775 4.463,7.818 4.480,7.993 4.480 C 8.150 4.480,8.220 4.458,8.316 4.377 C 8.465 4.251,8.528 4.051,8.476 3.863 C 8.417 3.649,8.235 3.520,7.993 3.520 C 7.818 3.520,7.775 3.537,7.656 3.656 M15.656 3.656 C 15.536 3.776,15.520 3.817,15.520 4.000 C 15.520 4.183,15.536 4.224,15.656 4.344 C 15.775 4.463,15.818 4.480,15.993 4.480 C 16.235 4.480,16.417 4.351,16.476 4.137 C 16.528 3.949,16.465 3.749,16.316 3.623 C 16.220 3.542,16.150 3.520,15.993 3.520 C 15.818 3.520,15.775 3.537,15.656 3.656 M19.656 3.656 C 19.537 3.775,19.520 3.818,19.520 3.993 C 19.520 4.150,19.542 4.220,19.623 4.316 C 19.821 4.552,20.179 4.552,20.377 4.316 C 20.458 4.220,20.480 4.150,20.480 3.993 C 20.480 3.818,20.463 3.775,20.344 3.656 C 20.224 3.536,20.183 3.520,20.000 3.520 C 19.817 3.520,19.776 3.536,19.656 3.656 M3.853 7.524 C 3.649 7.583,3.520 7.769,3.520 8.007 C 3.520 8.182,3.537 8.225,3.656 8.344 C 3.776 8.464,3.817 8.480,4.000 8.480 C 4.183 8.480,4.224 8.464,4.344 8.344 C 4.463 8.225,4.480 8.182,4.480 8.007 C 4.480 7.721,4.345 7.566,4.040 7.501 C 4.007 7.494,3.923 7.504,3.853 7.524 M19.656 7.656 C 19.537 7.775,19.520 7.818,19.520 7.993 C 19.520 8.150,19.542 8.220,19.623 8.316 C 19.749 8.465,19.949 8.528,20.137 8.476 C 20.351 8.417,20.480 8.235,20.480 7.993 C 20.480 7.818,20.463 7.775,20.344 7.656 C 20.224 7.536,20.183 7.520,20.000 7.520 C 19.817 7.520,19.776 7.536,19.656 7.656 M3.803 11.548 C 3.395 11.761,3.400 12.248,3.812 12.453 C 4.074 12.583,4.393 12.425,4.484 12.121 C 4.523 11.991,4.519 11.945,4.455 11.816 C 4.315 11.533,4.044 11.422,3.803 11.548 M7.656 11.656 C 7.536 11.776,7.520 11.817,7.520 12.000 C 7.520 12.183,7.536 12.224,7.656 12.344 C 7.775 12.463,7.818 12.480,7.993 12.480 C 8.235 12.480,8.417 12.351,8.476 12.137 C 8.528 11.949,8.465 11.749,8.316 11.623 C 8.220 11.542,8.150 11.520,7.993 11.520 C 7.818 11.520,7.775 11.537,7.656 11.656 M15.656 11.656 C 15.536 11.776,15.520 11.817,15.520 12.000 C 15.520 12.183,15.536 12.224,15.656 12.344 C 15.775 12.463,15.818 12.480,15.993 12.480 C 16.235 12.480,16.417 12.351,16.476 12.137 C 16.528 11.949,16.465 11.749,16.316 11.623 C 16.220 11.542,16.150 11.520,15.993 11.520 C 15.818 11.520,15.775 11.537,15.656 11.656 M19.656 11.656 C 19.537 11.775,19.520 11.818,19.520 11.993 C 19.520 12.150,19.542 12.220,19.623 12.316 C 19.749 12.465,19.949 12.528,20.137 12.476 C 20.351 12.417,20.480 12.235,20.480 11.993 C 20.480 11.818,20.463 11.775,20.344 11.656 C 20.224 11.536,20.183 11.520,20.000 11.520 C 19.817 11.520,19.776 11.536,19.656 11.656 M3.853 15.524 C 3.649 15.583,3.520 15.769,3.520 16.007 C 3.520 16.182,3.537 16.225,3.656 16.344 C 3.776 16.464,3.817 16.480,4.000 16.480 C 4.183 16.480,4.224 16.464,4.344 16.344 C 4.463 16.225,4.480 16.182,4.480 16.007 C 4.480 15.721,4.345 15.566,4.040 15.501 C 4.007 15.494,3.923 15.504,3.853 15.524 M19.656 15.656 C 19.537 15.775,19.520 15.818,19.520 15.993 C 19.520 16.150,19.542 16.220,19.623 16.316 C 19.749 16.465,19.949 16.528,20.137 16.476 C 20.351 16.417,20.480 16.235,20.480 15.993 C 20.480 15.818,20.463 15.775,20.344 15.656 C 20.224 15.536,20.183 15.520,20.000 15.520 C 19.817 15.520,19.776 15.536,19.656 15.656 M3.656 19.656 C 3.536 19.776,3.520 19.817,3.520 20.000 C 3.520 20.302,3.698 20.480,4.000 20.480 C 4.302 20.480,4.480 20.302,4.480 20.000 C 4.480 19.698,4.302 19.520,4.000 19.520 C 3.817 19.520,3.776 19.536,3.656 19.656 M7.684 19.623 C 7.535 19.749,7.472 19.949,7.524 20.137 C 7.583 20.351,7.765 20.480,8.007 20.480 C 8.182 20.480,8.225 20.463,8.344 20.344 C 8.464 20.224,8.480 20.183,8.480 20.000 C 8.480 19.817,8.464 19.776,8.344 19.656 C 8.225 19.537,8.182 19.520,8.007 19.520 C 7.850 19.520,7.780 19.542,7.684 19.623 M15.684 19.623 C 15.535 19.749,15.472 19.949,15.524 20.137 C 15.583 20.351,15.765 20.480,16.007 20.480 C 16.182 20.480,16.225 20.463,16.344 20.344 C 16.464 20.224,16.480 20.183,16.480 20.000 C 16.480 19.817,16.464 19.776,16.344 19.656 C 16.225 19.537,16.182 19.520,16.007 19.520 C 15.850 19.520,15.780 19.542,15.684 19.623 M19.656 19.656 C 19.536 19.776,19.520 19.817,19.520 20.000 C 19.520 20.183,19.536 20.224,19.656 20.344 C 19.776 20.464,19.817 20.480,20.000 20.480 C 20.183 20.480,20.224 20.464,20.344 20.344 C 20.464 20.224,20.480 20.183,20.480 20.000 C 20.480 19.817,20.464 19.776,20.344 19.656 C 20.224 19.536,20.183 19.520,20.000 19.520 C 19.817 19.520,19.776 19.536,19.656 19.656 " stroke="none" fill="black" fill-rule="evenodd"></path></svg>