<svg xmlns="http://www.w3.org/2000/svg" class="icon icon-tabler icon-tabler-border-outer" width="24" height="24" viewBox="0 0 24 24" stroke-width="1" stroke="currentColor" fill="none" stroke-linecap="round" stroke-linejoin="round"><path d="M8.660 3.520 C 5.461 3.540,5.460 3.540,5.192 3.631 C 4.444 3.885,3.817 4.552,3.594 5.330 L 3.500 5.660 3.500 12.000 C 3.500 17.982,3.504 18.354,3.572 18.593 C 3.838 19.528,4.448 20.147,5.380 20.425 C 5.605 20.492,5.994 20.497,11.700 20.510 C 15.647 20.519,17.924 20.509,18.189 20.482 C 19.305 20.371,20.121 19.684,20.427 18.600 C 20.496 18.353,20.500 18.024,20.500 12.000 C 20.500 5.976,20.496 5.647,20.427 5.400 C 20.196 4.582,19.666 3.982,18.900 3.670 L 18.580 3.540 17.200 3.530 C 13.560 3.504,11.607 3.502,8.660 3.520 M18.641 4.649 C 18.924 4.787,19.213 5.076,19.351 5.359 L 19.460 5.580 19.460 12.000 L 19.460 18.420 19.372 18.610 C 19.253 18.867,18.913 19.218,18.664 19.339 C 18.548 19.397,18.323 19.457,18.140 19.481 C 17.924 19.510,15.850 19.520,11.780 19.512 C 6.157 19.500,5.726 19.495,5.535 19.430 C 5.129 19.291,4.750 18.925,4.597 18.522 C 4.522 18.325,4.520 18.139,4.520 12.000 C 4.520 5.861,4.522 5.675,4.597 5.478 C 4.743 5.093,5.084 4.749,5.468 4.599 C 5.653 4.526,5.878 4.524,12.040 4.532 L 18.420 4.540 18.641 4.649 M11.656 7.656 C 11.537 7.775,11.520 7.818,11.520 7.993 C 11.520 8.150,11.542 8.220,11.623 8.316 C 11.749 8.465,11.949 8.528,12.137 8.476 C 12.351 8.417,12.480 8.235,12.480 7.993 C 12.480 7.818,12.463 7.775,12.344 7.656 C 12.224 7.536,12.183 7.520,12.000 7.520 C 11.817 7.520,11.776 7.536,11.656 7.656 M11.803 11.548 C 11.395 11.761,11.400 12.248,11.812 12.453 C 12.074 12.583,12.393 12.425,12.484 12.121 C 12.523 11.991,12.519 11.945,12.455 11.816 C 12.315 11.533,12.044 11.422,11.803 11.548 M7.656 11.656 C 7.536 11.776,7.520 11.817,7.520 12.000 C 7.520 12.183,7.536 12.224,7.656 12.344 C 7.775 12.463,7.818 12.480,7.993 12.480 C 8.235 12.480,8.417 12.351,8.476 12.137 C 8.528 11.949,8.465 11.749,8.316 11.623 C 8.220 11.542,8.150 11.520,7.993 11.520 C 7.818 11.520,7.775 11.537,7.656 11.656 M15.656 11.656 C 15.536 11.776,15.520 11.817,15.520 12.000 C 15.520 12.183,15.536 12.224,15.656 12.344 C 15.775 12.463,15.818 12.480,15.993 12.480 C 16.235 12.480,16.417 12.351,16.476 12.137 C 16.528 11.949,16.465 11.749,16.316 11.623 C 16.220 11.542,16.150 11.520,15.993 11.520 C 15.818 11.520,15.775 11.537,15.656 11.656 M11.656 15.656 C 11.537 15.775,11.520 15.818,11.520 15.993 C 11.520 16.235,11.649 16.417,11.863 16.476 C 12.051 16.528,12.251 16.465,12.377 16.316 C 12.458 16.220,12.480 16.150,12.480 15.993 C 12.480 15.818,12.463 15.775,12.344 15.656 C 12.224 15.536,12.183 15.520,12.000 15.520 C 11.817 15.520,11.776 15.536,11.656 15.656 " stroke="none" fill="black" fill-rule="evenodd"></path></svg>