<svg xmlns="http://www.w3.org/2000/svg" class="icon icon-tabler icon-tabler-border-all" width="24" height="24" viewBox="0 0 24 24" stroke-width="1" stroke="currentColor" fill="none" stroke-linecap="round" stroke-linejoin="round"><path d="M8.660 3.520 C 5.461 3.540,5.460 3.540,5.192 3.631 C 4.444 3.885,3.817 4.552,3.594 5.330 L 3.500 5.660 3.500 12.000 C 3.500 17.982,3.504 18.354,3.572 18.593 C 3.838 19.528,4.448 20.147,5.380 20.425 C 5.605 20.492,5.994 20.497,11.700 20.510 C 15.647 20.519,17.924 20.509,18.189 20.482 C 19.305 20.371,20.121 19.684,20.427 18.600 C 20.496 18.353,20.500 18.024,20.500 12.000 C 20.500 5.976,20.496 5.647,20.427 5.400 C 20.196 4.582,19.666 3.982,18.900 3.670 L 18.580 3.540 17.200 3.530 C 13.560 3.504,11.607 3.502,8.660 3.520 M11.480 8.020 L 11.480 11.520 8.000 11.520 L 4.520 11.520 4.520 8.600 C 4.520 5.816,4.524 5.671,4.597 5.478 C 4.744 5.093,5.084 4.749,5.468 4.599 C 5.649 4.528,5.821 4.524,8.570 4.522 L 11.480 4.520 11.480 8.020 M18.641 4.649 C 18.924 4.787,19.213 5.076,19.351 5.359 L 19.460 5.580 19.471 8.550 L 19.482 11.520 16.001 11.520 L 12.520 11.520 12.520 8.019 L 12.520 4.518 15.470 4.529 L 18.420 4.540 18.641 4.649 M11.480 16.022 L 11.480 19.524 8.610 19.511 C 6.025 19.499,5.720 19.491,5.535 19.429 C 5.131 19.293,4.750 18.925,4.597 18.522 C 4.524 18.329,4.520 18.184,4.520 15.420 L 4.520 12.520 8.000 12.520 L 11.480 12.520 11.480 16.022 M19.471 15.470 C 19.460 18.411,19.460 18.421,19.372 18.610 C 19.253 18.868,18.913 19.218,18.664 19.339 C 18.552 19.394,18.334 19.456,18.180 19.478 C 18.016 19.502,16.785 19.519,15.210 19.519 L 12.520 19.520 12.520 16.020 L 12.520 12.520 16.001 12.520 L 19.482 12.520 19.471 15.470 " stroke="none" fill="black" fill-rule="evenodd"></path></svg>