<svg xmlns="http://www.w3.org/2000/svg" class="icon icon-tabler icon-tabler-brackets" width="24" height="24" viewBox="0 0 24 24" stroke-width="1" stroke="currentColor" fill="none" stroke-linecap="round" stroke-linejoin="round"><path d="M4.660 3.652 C 4.554 3.758,4.523 3.828,4.502 4.002 C 4.488 4.122,4.482 7.803,4.488 12.182 C 4.499 19.709,4.504 20.149,4.571 20.251 C 4.735 20.502,4.716 20.499,6.318 20.513 C 8.069 20.528,8.168 20.520,8.348 20.340 C 8.463 20.225,8.480 20.182,8.480 20.000 C 8.480 19.817,8.464 19.776,8.344 19.656 L 8.208 19.520 6.864 19.520 L 5.520 19.520 5.520 12.020 L 5.520 4.520 6.730 4.519 C 7.395 4.519,8.012 4.501,8.100 4.481 C 8.343 4.425,8.480 4.250,8.480 3.995 C 8.480 3.817,8.463 3.775,8.344 3.656 L 8.208 3.520 6.500 3.520 L 4.792 3.520 4.660 3.652 M15.656 3.656 C 15.537 3.775,15.520 3.817,15.520 3.995 C 15.520 4.250,15.657 4.425,15.900 4.481 C 15.988 4.501,16.605 4.519,17.270 4.519 L 18.480 4.520 18.480 12.020 L 18.480 19.520 17.136 19.520 L 15.792 19.520 15.656 19.656 C 15.536 19.776,15.520 19.817,15.520 20.000 C 15.520 20.182,15.537 20.225,15.652 20.340 C 15.832 20.520,15.931 20.528,17.682 20.513 C 19.284 20.499,19.265 20.502,19.429 20.251 C 19.496 20.149,19.501 19.709,19.512 12.182 C 19.518 7.803,19.512 4.122,19.498 4.002 C 19.477 3.828,19.446 3.758,19.340 3.652 L 19.208 3.520 17.500 3.520 L 15.792 3.520 15.656 3.656 " stroke="none" fill="black" fill-rule="evenodd"></path></svg>