<svg xmlns="http://www.w3.org/2000/svg" class="icon icon-tabler icon-tabler-braces" width="24" height="24" viewBox="0 0 24 24" stroke-width="1" stroke="currentColor" fill="none" stroke-linecap="round" stroke-linejoin="round"><path d="M6.274 3.615 C 5.870 3.734,5.561 3.922,5.242 4.242 C 4.920 4.564,4.736 4.867,4.607 5.294 C 4.508 5.617,4.507 5.639,4.480 7.680 C 4.455 9.632,4.449 9.755,4.367 10.020 C 4.091 10.917,3.626 11.423,3.001 11.502 C 2.828 11.524,2.755 11.557,2.651 11.661 C 2.537 11.775,2.520 11.818,2.520 12.000 C 2.520 12.182,2.537 12.225,2.651 12.339 C 2.755 12.443,2.828 12.476,3.001 12.498 C 3.626 12.577,4.091 13.083,4.367 13.980 C 4.449 14.245,4.455 14.370,4.482 16.320 C 4.512 18.531,4.515 18.558,4.737 19.054 C 5.110 19.889,6.015 20.480,6.920 20.480 C 7.194 20.480,7.214 20.474,7.344 20.344 C 7.464 20.224,7.480 20.183,7.480 20.000 C 7.480 19.818,7.463 19.775,7.348 19.660 C 7.239 19.551,7.175 19.523,6.978 19.501 C 6.433 19.439,6.085 19.260,5.807 18.898 C 5.524 18.529,5.520 18.499,5.519 16.750 C 5.518 15.886,5.501 14.955,5.481 14.680 C 5.405 13.651,5.073 12.809,4.511 12.214 L 4.308 12.000 4.511 11.786 C 5.078 11.186,5.399 10.365,5.480 9.307 C 5.502 9.017,5.520 8.083,5.520 7.230 C 5.520 5.503,5.524 5.471,5.807 5.102 C 6.084 4.741,6.449 4.553,6.978 4.497 C 7.176 4.476,7.238 4.450,7.348 4.340 C 7.463 4.225,7.480 4.182,7.480 4.000 C 7.480 3.817,7.464 3.776,7.344 3.656 C 7.212 3.524,7.199 3.520,6.894 3.522 C 6.690 3.524,6.473 3.556,6.274 3.615 M16.656 3.656 C 16.536 3.776,16.520 3.817,16.520 4.000 C 16.520 4.182,16.537 4.225,16.652 4.340 C 16.762 4.450,16.824 4.476,17.022 4.497 C 17.554 4.553,17.916 4.741,18.197 5.108 C 18.470 5.463,18.477 5.519,18.480 7.260 C 18.481 8.118,18.499 9.045,18.519 9.320 C 18.595 10.348,18.927 11.191,19.488 11.785 L 19.689 11.998 19.455 12.254 C 19.029 12.718,18.734 13.349,18.578 14.124 C 18.522 14.400,18.506 14.815,18.485 16.440 C 18.456 18.707,18.473 18.601,18.077 19.020 C 17.817 19.295,17.551 19.426,17.141 19.483 C 16.779 19.533,16.719 19.557,16.603 19.705 C 16.544 19.780,16.520 19.869,16.520 20.009 C 16.520 20.182,16.538 20.226,16.656 20.344 C 16.786 20.474,16.806 20.480,17.080 20.480 C 17.985 20.480,18.890 19.889,19.263 19.054 C 19.485 18.558,19.488 18.531,19.519 16.320 C 19.551 14.029,19.547 14.066,19.840 13.460 C 20.125 12.871,20.498 12.562,20.999 12.498 C 21.172 12.476,21.245 12.443,21.349 12.339 C 21.463 12.225,21.480 12.182,21.480 12.000 C 21.480 11.818,21.463 11.775,21.349 11.661 C 21.245 11.557,21.172 11.524,20.999 11.502 C 20.374 11.423,19.909 10.917,19.633 10.020 C 19.551 9.755,19.545 9.630,19.518 7.680 C 19.488 5.469,19.485 5.442,19.263 4.946 C 18.890 4.111,17.985 3.520,17.080 3.520 C 16.806 3.520,16.786 3.526,16.656 3.656 " stroke="none" fill="black" fill-rule="evenodd"></path></svg>