<svg xmlns="http://www.w3.org/2000/svg" class="icon icon-tabler icon-tabler-brand-sketch" width="24" height="24" viewBox="0 0 24 24" stroke-width="1" stroke="currentColor" fill="none" stroke-linecap="round" stroke-linejoin="round"><path d="M7.100 3.575 C 6.600 3.734,6.509 3.837,5.406 5.495 C 2.933 9.213,2.410 10.271,2.715 10.940 C 2.780 11.082,9.987 19.065,10.832 19.931 C 11.024 20.127,11.217 20.282,11.357 20.351 C 11.557 20.449,11.623 20.460,12.000 20.460 C 12.376 20.460,12.443 20.449,12.640 20.352 C 12.769 20.288,12.971 20.130,13.126 19.972 C 13.273 19.822,15.158 17.758,17.316 15.385 C 20.303 12.099,21.265 11.017,21.347 10.849 C 21.486 10.565,21.521 10.081,21.426 9.754 C 21.377 9.585,20.943 8.920,19.498 6.798 C 18.473 5.292,17.577 4.000,17.507 3.928 C 17.437 3.855,17.263 3.738,17.121 3.668 L 16.862 3.540 12.061 3.532 C 8.280 3.526,7.226 3.535,7.100 3.575 M16.698 4.566 C 16.767 4.598,17.396 5.486,18.630 7.296 C 20.387 9.874,20.460 9.988,20.473 10.185 C 20.485 10.369,20.473 10.405,20.353 10.544 C 19.772 11.217,12.270 19.435,12.219 19.455 C 12.183 19.469,12.073 19.480,11.974 19.480 C 11.813 19.480,11.773 19.460,11.600 19.290 C 11.494 19.186,9.658 17.175,7.520 14.822 C 3.867 10.802,3.634 10.538,3.657 10.427 C 3.688 10.272,3.986 9.645,4.247 9.185 C 4.887 8.059,7.102 4.695,7.273 4.589 C 7.371 4.528,7.766 4.522,11.988 4.521 C 15.405 4.520,16.623 4.532,16.698 4.566 " stroke="none" fill="black" fill-rule="evenodd"></path></svg>