<svg xmlns="http://www.w3.org/2000/svg" class="icon icon-tabler icon-tabler-brand-twitter" width="24" height="24" viewBox="0 0 24 24" stroke-width="1" stroke="currentColor" fill="none" stroke-linecap="round" stroke-linejoin="round"><path d="M15.940 3.425 C 14.910 3.582,14.093 3.876,13.423 4.332 C 12.881 4.699,12.300 5.350,12.004 5.920 C 11.676 6.553,11.544 7.086,11.498 7.970 L 11.472 8.480 11.206 8.480 C 11.060 8.480,10.706 8.445,10.420 8.403 C 8.118 8.064,6.156 6.920,4.665 5.048 C 4.455 4.785,4.255 4.559,4.219 4.545 C 4.072 4.489,3.810 4.520,3.699 4.608 C 3.493 4.770,3.034 5.856,2.780 6.781 C 2.528 7.702,2.464 8.191,2.462 9.200 C 2.460 10.164,2.484 10.381,2.682 11.153 C 3.038 12.539,3.932 13.891,5.140 14.868 C 5.492 15.153,6.379 15.749,6.741 15.944 L 6.971 16.068 6.536 16.307 C 5.013 17.143,3.652 17.514,2.086 17.519 C 1.806 17.520,1.786 17.526,1.656 17.656 C 1.537 17.775,1.520 17.817,1.520 17.995 C 1.520 18.286,1.626 18.381,2.340 18.735 C 4.633 19.872,6.808 20.417,9.040 20.413 C 10.366 20.411,11.336 20.266,12.478 19.898 C 16.237 18.687,19.012 15.843,20.116 12.069 C 20.441 10.959,20.678 9.409,20.680 8.393 L 20.680 8.087 21.410 6.613 C 21.812 5.802,22.202 4.968,22.278 4.759 C 22.354 4.551,22.442 4.364,22.473 4.345 C 22.517 4.319,22.523 4.256,22.502 4.067 C 22.468 3.771,22.432 3.698,22.267 3.598 C 22.094 3.493,21.902 3.501,21.640 3.625 C 21.287 3.792,20.592 4.031,19.845 4.243 L 19.150 4.440 19.003 4.308 C 18.622 3.964,18.021 3.653,17.476 3.519 C 17.147 3.438,16.224 3.381,15.940 3.425 M17.280 4.497 C 17.691 4.610,18.125 4.858,18.473 5.178 C 18.774 5.455,18.815 5.480,18.971 5.480 C 19.127 5.480,20.229 5.193,20.833 4.995 C 20.971 4.949,21.094 4.920,21.104 4.931 C 21.115 4.942,20.805 5.590,20.415 6.371 L 19.707 7.792 19.673 8.506 C 19.546 11.224,18.823 13.397,17.429 15.251 C 16.129 16.980,14.286 18.272,12.140 18.959 C 10.312 19.543,8.244 19.579,6.103 19.063 C 5.196 18.844,3.863 18.391,4.000 18.347 C 4.033 18.337,4.222 18.288,4.420 18.239 C 5.077 18.074,5.692 17.840,6.460 17.462 C 7.278 17.060,8.192 16.512,8.370 16.319 C 8.511 16.165,8.525 15.868,8.399 15.707 C 8.351 15.647,8.063 15.479,7.709 15.306 C 5.896 14.419,4.676 13.294,4.016 11.900 C 3.642 11.111,3.485 10.436,3.452 9.480 C 3.417 8.442,3.556 7.554,3.927 6.454 L 4.091 5.968 4.655 6.535 C 5.540 7.424,6.270 7.952,7.340 8.480 C 8.667 9.135,10.049 9.467,11.541 9.491 C 12.059 9.499,12.158 9.490,12.251 9.429 C 12.486 9.276,12.497 9.226,12.524 8.202 C 12.546 7.377,12.560 7.225,12.639 6.980 C 13.074 5.628,14.179 4.746,15.800 4.456 C 16.171 4.390,16.973 4.412,17.280 4.497 " stroke="none" fill="black" fill-rule="evenodd"></path></svg>