<svg xmlns="http://www.w3.org/2000/svg" class="icon icon-tabler icon-tabler-brand-framer" width="24" height="24" viewBox="0 0 24 24" stroke-width="1" stroke="currentColor" fill="none" stroke-linecap="round" stroke-linejoin="round"><path d="M5.656 2.656 C 5.535 2.777,5.520 2.816,5.520 3.005 L 5.520 3.219 8.140 5.840 C 9.581 7.281,10.760 8.474,10.760 8.490 C 10.760 8.507,9.644 8.520,8.281 8.520 L 5.801 8.520 5.679 8.630 C 5.605 8.696,5.541 8.804,5.519 8.900 C 5.471 9.109,5.470 14.890,5.518 15.098 C 5.551 15.237,5.930 15.630,8.668 18.368 L 11.781 21.480 11.990 21.480 C 12.250 21.480,12.425 21.345,12.481 21.100 C 12.502 21.011,12.519 19.740,12.519 18.230 L 12.520 15.520 15.230 15.519 C 16.740 15.519,18.011 15.502,18.100 15.481 C 18.345 15.425,18.480 15.250,18.480 14.990 L 18.480 14.781 15.852 12.152 L 13.224 9.523 15.684 9.511 C 18.393 9.499,18.259 9.512,18.429 9.251 C 18.495 9.151,18.501 8.932,18.512 6.182 C 18.519 4.553,18.513 3.122,18.498 3.002 C 18.478 2.828,18.446 2.758,18.340 2.652 L 18.208 2.520 12.000 2.520 L 5.792 2.520 5.656 2.656 M17.480 6.020 L 17.480 8.520 14.850 8.520 L 12.220 8.520 9.720 6.020 L 7.220 3.520 12.350 3.520 L 17.480 3.520 17.480 6.020 M14.290 11.990 C 15.648 13.348,16.760 14.473,16.760 14.490 C 16.760 14.506,14.456 14.520,11.640 14.520 L 6.520 14.520 6.520 12.020 L 6.520 9.520 9.170 9.520 L 11.820 9.520 14.290 11.990 M11.480 17.640 C 11.480 18.806,11.475 19.760,11.470 19.760 C 11.464 19.760,10.506 18.806,9.340 17.640 L 7.220 15.520 9.350 15.520 L 11.480 15.520 11.480 17.640 " stroke="none" fill="black" fill-rule="evenodd"></path></svg>