<svg xmlns="http://www.w3.org/2000/svg" class="icon icon-tabler icon-tabler-brand-apple" width="24" height="24" viewBox="0 0 24 24" stroke-width="1" stroke="currentColor" fill="none" stroke-linecap="round" stroke-linejoin="round"><path d="M13.274 1.615 C 13.106 1.665,12.863 1.767,12.736 1.843 C 12.438 2.019,12.019 2.438,11.843 2.735 C 11.652 3.058,11.520 3.538,11.520 3.909 C 11.520 4.198,11.525 4.213,11.661 4.349 L 11.801 4.489 12.171 4.472 C 13.419 4.411,14.411 3.419,14.472 2.171 L 14.489 1.801 14.349 1.661 C 14.211 1.523,14.201 1.520,13.894 1.522 C 13.690 1.524,13.473 1.556,13.274 1.615 M13.320 2.716 C 13.320 2.819,12.745 3.359,12.692 3.305 C 12.656 3.269,12.914 2.953,13.096 2.810 C 13.265 2.677,13.320 2.654,13.320 2.716 M14.860 6.519 C 14.282 6.601,13.817 6.759,12.620 7.279 C 11.983 7.556,11.963 7.554,10.998 7.110 C 10.589 6.922,10.103 6.717,9.918 6.655 C 9.598 6.548,9.543 6.542,8.900 6.544 C 8.160 6.546,7.864 6.600,7.347 6.827 C 5.816 7.498,4.822 9.146,4.556 11.453 C 4.487 12.048,4.530 13.426,4.636 14.016 C 5.076 16.477,6.194 18.788,7.458 19.850 C 7.783 20.123,7.992 20.245,8.367 20.380 C 8.853 20.555,9.383 20.516,10.537 20.220 C 11.645 19.936,12.263 19.931,13.180 20.198 C 13.923 20.415,14.316 20.480,14.875 20.479 C 15.284 20.479,15.380 20.465,15.674 20.363 C 16.252 20.162,16.750 19.815,17.401 19.162 C 18.591 17.967,19.408 16.417,19.469 15.237 L 19.491 14.813 19.375 14.685 C 19.292 14.593,19.192 14.539,19.020 14.495 C 18.235 14.293,17.581 13.802,17.269 13.180 C 17.026 12.694,16.938 12.005,17.056 11.505 C 17.244 10.711,17.940 9.994,18.932 9.573 C 19.357 9.393,19.480 9.265,19.480 9.004 C 19.480 8.836,19.455 8.776,19.306 8.574 C 19.056 8.237,18.514 7.733,18.120 7.473 C 17.063 6.775,15.756 6.392,14.860 6.519 M15.640 7.522 C 16.015 7.583,16.672 7.812,17.091 8.028 C 17.447 8.212,18.002 8.595,18.120 8.739 C 18.173 8.804,18.172 8.816,18.104 8.856 C 16.987 9.510,16.383 10.205,16.111 11.148 C 15.986 11.583,15.988 12.466,16.115 12.940 C 16.395 13.982,17.042 14.737,18.051 15.200 C 18.507 15.409,18.500 15.390,18.321 15.923 C 17.931 17.087,16.899 18.461,15.924 19.113 C 15.420 19.450,15.261 19.495,14.664 19.469 C 14.246 19.451,14.094 19.423,13.550 19.266 C 12.302 18.906,11.683 18.906,10.240 19.267 C 9.340 19.492,8.881 19.532,8.600 19.409 C 7.337 18.858,5.938 16.142,5.578 13.540 C 5.487 12.880,5.515 11.610,5.636 10.972 C 5.966 9.222,6.786 8.063,7.980 7.657 C 8.235 7.571,8.399 7.545,8.786 7.529 C 9.392 7.505,9.566 7.552,10.587 8.021 C 11.447 8.416,11.644 8.480,12.009 8.480 C 12.332 8.480,12.546 8.413,13.309 8.076 C 14.008 7.766,14.271 7.668,14.620 7.587 C 15.098 7.476,15.278 7.464,15.640 7.522 " stroke="none" fill="black" fill-rule="evenodd"></path></svg>