<svg xmlns="http://www.w3.org/2000/svg" class="icon icon-tabler icon-tabler-brand-facebook" width="24" height="24" viewBox="0 0 24 24" stroke-width="1" stroke="currentColor" fill="none" stroke-linecap="round" stroke-linejoin="round"><path d="M14.044 2.584 C 13.584 2.661,12.953 2.879,12.471 3.126 C 11.205 3.777,10.243 4.907,9.782 6.286 C 9.576 6.903,9.521 7.323,9.492 8.490 L 9.468 9.520 8.130 9.520 L 6.792 9.520 6.660 9.652 C 6.555 9.757,6.522 9.828,6.501 10.002 C 6.487 10.122,6.481 11.103,6.487 12.182 C 6.499 13.976,6.506 14.153,6.571 14.251 C 6.733 14.499,6.732 14.499,8.167 14.512 L 9.478 14.525 9.489 17.834 C 9.499 20.918,9.505 21.151,9.571 21.251 C 9.740 21.510,9.638 21.500,12.000 21.500 C 14.362 21.500,14.260 21.510,14.429 21.251 C 14.495 21.151,14.501 20.917,14.511 17.832 L 14.522 14.520 15.731 14.519 C 16.396 14.519,17.012 14.501,17.100 14.481 C 17.419 14.407,17.416 14.417,17.973 12.187 C 18.256 11.058,18.480 10.079,18.480 9.976 C 18.480 9.820,18.459 9.771,18.344 9.656 L 18.208 9.520 16.364 9.520 L 14.520 9.520 14.520 8.661 L 14.520 7.801 14.637 7.671 L 14.753 7.540 16.449 7.520 C 18.307 7.498,18.264 7.504,18.429 7.251 C 18.494 7.153,18.501 6.976,18.513 5.182 C 18.519 4.103,18.513 3.122,18.499 3.002 C 18.478 2.828,18.445 2.757,18.340 2.652 L 18.208 2.520 16.294 2.524 C 14.850 2.527,14.297 2.542,14.044 2.584 M17.480 5.020 L 17.480 6.520 16.080 6.520 C 14.796 6.520,14.664 6.526,14.478 6.597 C 14.063 6.755,13.698 7.140,13.569 7.556 C 13.510 7.747,13.500 7.953,13.500 8.962 C 13.500 10.023,13.507 10.154,13.571 10.251 C 13.737 10.506,13.685 10.499,15.603 10.512 L 17.349 10.524 17.013 11.872 C 16.828 12.613,16.658 13.287,16.637 13.370 L 16.597 13.520 15.199 13.520 L 13.801 13.520 13.679 13.630 C 13.605 13.696,13.541 13.804,13.519 13.900 C 13.498 13.991,13.481 15.462,13.481 17.290 L 13.480 20.520 12.000 20.520 L 10.520 20.520 10.519 17.290 C 10.519 15.462,10.502 13.991,10.481 13.900 C 10.459 13.804,10.395 13.696,10.321 13.630 L 10.199 13.520 8.859 13.520 L 7.520 13.520 7.520 12.022 L 7.520 10.525 8.832 10.512 C 10.005 10.501,10.155 10.493,10.251 10.429 C 10.500 10.266,10.498 10.281,10.523 8.682 C 10.549 7.075,10.560 6.994,10.840 6.294 C 11.389 4.924,12.665 3.876,14.145 3.582 C 14.346 3.542,14.831 3.527,15.950 3.524 L 17.480 3.520 17.480 5.020 " stroke="none" fill="black" fill-rule="evenodd"></path></svg>