<svg xmlns="http://www.w3.org/2000/svg" class="icon icon-tabler icon-tabler-brand-github" width="24" height="24" viewBox="0 0 24 24" stroke-width="1" stroke="currentColor" fill="none" stroke-linecap="round" stroke-linejoin="round"><path d="M5.172 2.598 C 5.102 2.641,5.017 2.718,4.984 2.768 C 4.883 2.923,4.686 3.563,4.617 3.962 C 4.528 4.470,4.557 5.365,4.676 5.814 L 4.759 6.128 4.624 6.294 C 4.413 6.554,4.124 7.020,3.979 7.334 C 3.636 8.077,3.520 8.656,3.520 9.619 C 3.520 10.978,3.721 11.956,4.203 12.940 C 4.974 14.514,6.301 15.406,8.554 15.864 C 8.624 15.879,8.640 15.900,8.618 15.952 C 8.506 16.217,8.481 16.510,8.481 17.550 C 8.480 18.149,8.466 18.640,8.450 18.640 C 8.434 18.640,8.286 18.668,8.121 18.702 C 7.700 18.790,7.010 18.784,6.677 18.689 C 6.012 18.500,5.581 18.122,4.833 17.071 C 4.230 16.225,3.889 15.870,3.484 15.667 C 3.080 15.466,2.850 15.462,2.656 15.656 C 2.538 15.774,2.520 15.818,2.520 15.991 C 2.520 16.250,2.615 16.370,2.941 16.518 C 3.267 16.665,3.438 16.847,4.032 17.674 C 4.584 18.442,4.930 18.831,5.311 19.112 C 5.944 19.579,6.547 19.766,7.400 19.761 C 7.697 19.759,8.062 19.734,8.210 19.705 L 8.480 19.653 8.481 20.296 C 8.482 21.057,8.512 21.221,8.679 21.370 C 8.778 21.459,8.839 21.480,9.005 21.480 C 9.181 21.480,9.225 21.463,9.340 21.348 C 9.448 21.240,9.478 21.172,9.502 20.978 C 9.518 20.847,9.522 19.785,9.510 18.619 C 9.493 16.942,9.499 16.466,9.540 16.347 C 9.588 16.207,9.641 16.122,9.901 15.764 C 10.020 15.600,10.027 15.425,9.922 15.252 C 9.814 15.076,9.680 15.017,9.260 14.963 C 8.762 14.898,8.049 14.737,7.620 14.593 C 5.480 13.871,4.464 12.189,4.531 9.480 C 4.545 8.879,4.566 8.680,4.637 8.420 C 4.806 7.809,5.135 7.215,5.581 6.716 C 5.853 6.410,5.873 6.311,5.745 5.909 C 5.690 5.738,5.624 5.464,5.597 5.299 C 5.534 4.908,5.571 4.142,5.669 3.800 L 5.743 3.540 5.968 3.548 C 6.411 3.562,7.336 3.941,8.239 4.477 C 8.492 4.628,8.741 4.764,8.791 4.779 C 8.843 4.794,9.074 4.762,9.331 4.703 C 10.411 4.456,11.209 4.380,12.360 4.412 C 13.241 4.437,13.938 4.524,14.677 4.701 C 14.935 4.763,15.155 4.795,15.209 4.779 C 15.259 4.764,15.508 4.628,15.761 4.477 C 16.664 3.941,17.589 3.562,18.032 3.548 L 18.257 3.540 18.331 3.800 C 18.429 4.142,18.466 4.908,18.403 5.299 C 18.376 5.464,18.310 5.738,18.255 5.909 C 18.127 6.311,18.147 6.410,18.419 6.716 C 18.865 7.215,19.194 7.810,19.362 8.420 C 19.473 8.821,19.514 9.900,19.442 10.528 C 19.192 12.716,18.213 14.007,16.339 14.621 C 15.922 14.758,15.107 14.930,14.640 14.981 C 14.323 15.016,14.181 15.084,14.078 15.252 C 13.944 15.472,13.978 15.649,14.206 15.911 C 14.268 15.983,14.360 16.118,14.409 16.211 L 14.499 16.380 14.486 18.640 C 14.478 20.091,14.488 20.964,14.515 21.080 C 14.575 21.344,14.742 21.480,15.005 21.480 C 15.181 21.480,15.225 21.463,15.340 21.348 C 15.445 21.243,15.478 21.171,15.499 20.998 C 15.514 20.878,15.519 19.772,15.511 18.540 C 15.498 16.695,15.484 16.264,15.435 16.095 L 15.374 15.891 15.792 15.803 C 18.036 15.332,19.481 14.117,20.119 12.163 C 20.366 11.406,20.479 10.602,20.480 9.591 C 20.480 8.659,20.360 8.070,20.021 7.334 C 19.876 7.020,19.587 6.554,19.376 6.294 L 19.241 6.128 19.324 5.814 C 19.443 5.365,19.472 4.470,19.383 3.962 C 19.314 3.563,19.117 2.923,19.016 2.768 C 18.892 2.579,18.729 2.520,18.328 2.520 C 17.897 2.520,17.495 2.595,17.007 2.766 C 16.563 2.922,15.872 3.250,15.394 3.531 L 15.020 3.750 14.580 3.657 C 13.688 3.467,13.174 3.420,12.000 3.420 C 10.826 3.420,10.312 3.467,9.420 3.657 L 8.980 3.750 8.606 3.531 C 7.838 3.079,6.953 2.708,6.345 2.582 C 5.904 2.491,5.335 2.499,5.172 2.598 " stroke="none" fill="black" fill-rule="evenodd"></path></svg>