<svg xmlns="http://www.w3.org/2000/svg" class="icon icon-tabler icon-tabler-brand-dribbble" width="24" height="24" viewBox="0 0 24 24" stroke-width="1" stroke="currentColor" fill="none" stroke-linecap="round" stroke-linejoin="round"><path d="M10.900 2.564 C 9.092 2.784,7.444 3.481,6.020 4.628 C 4.323 5.995,3.091 8.034,2.679 10.160 C 2.468 11.247,2.468 12.755,2.679 13.840 C 3.019 15.591,3.905 17.278,5.170 18.585 C 6.746 20.212,8.748 21.195,10.991 21.441 C 11.569 21.505,12.996 21.471,13.520 21.382 C 15.462 21.052,17.193 20.178,18.595 18.821 C 19.408 18.034,20.026 17.185,20.519 16.180 C 21.189 14.815,21.480 13.549,21.480 12.000 C 21.480 10.487,21.202 9.243,20.562 7.900 C 19.798 6.294,18.506 4.858,16.968 3.907 C 15.800 3.185,14.424 2.710,13.072 2.562 C 12.621 2.513,11.309 2.514,10.900 2.564 M13.160 3.581 C 14.636 3.791,16.005 4.367,17.199 5.280 C 17.365 5.407,17.542 5.555,17.592 5.610 L 17.685 5.710 17.132 6.128 C 16.393 6.687,15.817 7.080,15.125 7.495 C 14.446 7.902,13.293 8.494,13.227 8.468 C 13.201 8.458,13.045 8.236,12.880 7.975 C 12.296 7.048,11.224 5.568,10.266 4.364 C 10.032 4.069,9.840 3.815,9.840 3.800 C 9.840 3.766,10.319 3.660,10.820 3.583 C 11.317 3.507,12.628 3.505,13.160 3.581 M9.389 4.870 C 10.396 6.132,11.403 7.516,12.027 8.497 C 12.277 8.890,12.280 8.898,12.191 8.933 C 11.746 9.108,10.687 9.436,10.100 9.580 C 8.476 9.979,6.858 10.173,4.705 10.227 C 3.699 10.252,3.671 10.251,3.692 10.177 C 3.705 10.134,3.760 9.929,3.816 9.720 C 4.425 7.441,6.089 5.439,8.258 4.377 C 8.545 4.236,8.782 4.121,8.785 4.120 C 8.788 4.120,9.060 4.458,9.389 4.870 M18.622 6.670 C 19.739 8.075,20.399 9.804,20.468 11.510 C 20.481 11.823,20.485 12.080,20.476 12.081 C 20.467 12.081,20.010 12.099,19.460 12.120 C 17.977 12.178,16.777 12.308,15.723 12.524 C 15.515 12.566,15.334 12.587,15.320 12.571 C 15.306 12.554,15.215 12.351,15.118 12.120 C 14.891 11.584,14.311 10.402,14.001 9.844 C 13.868 9.607,13.760 9.401,13.760 9.388 C 13.760 9.374,14.043 9.219,14.390 9.044 C 15.142 8.663,15.979 8.169,16.665 7.701 C 17.184 7.346,17.956 6.775,18.200 6.564 C 18.277 6.498,18.362 6.443,18.389 6.442 C 18.417 6.441,18.521 6.544,18.622 6.670 M13.072 10.230 C 13.530 11.055,14.320 12.700,14.320 12.830 C 14.320 12.852,14.207 12.901,14.070 12.939 C 13.402 13.124,12.258 13.614,11.493 14.043 C 10.114 14.814,9.098 15.626,7.358 17.348 C 6.817 17.883,6.356 18.320,6.332 18.320 C 6.269 18.320,5.549 17.553,5.279 17.199 C 4.429 16.082,3.901 14.896,3.634 13.500 C 3.570 13.166,3.546 12.843,3.531 12.157 L 3.511 11.253 4.645 11.227 C 6.360 11.188,7.777 11.058,9.120 10.817 C 10.178 10.626,11.678 10.210,12.540 9.867 C 12.672 9.815,12.792 9.778,12.807 9.786 C 12.821 9.794,12.941 9.994,13.072 10.230 M20.407 13.220 C 20.372 13.553,20.216 14.199,20.052 14.695 C 19.612 16.019,18.799 17.286,17.789 18.217 C 17.428 18.549,16.953 18.927,16.928 18.901 C 16.921 18.894,16.871 18.576,16.816 18.194 C 16.620 16.813,16.312 15.472,15.902 14.213 C 15.758 13.771,15.703 13.549,15.734 13.538 C 15.930 13.469,17.301 13.269,18.072 13.198 C 18.549 13.153,19.997 13.086,20.280 13.095 C 20.411 13.100,20.419 13.108,20.407 13.220 M14.934 14.470 C 15.417 15.955,15.789 17.718,15.942 19.250 L 15.969 19.521 15.592 19.700 C 14.830 20.060,13.842 20.338,12.946 20.444 C 12.362 20.512,11.053 20.470,10.500 20.365 C 9.650 20.204,9.056 20.006,8.260 19.620 C 7.745 19.369,7.160 19.020,7.160 18.963 C 7.160 18.923,8.715 17.395,9.200 16.957 C 10.017 16.221,10.755 15.656,11.531 15.175 C 11.940 14.921,12.906 14.431,13.340 14.258 C 13.682 14.121,14.602 13.806,14.668 13.803 C 14.696 13.801,14.809 14.083,14.934 14.470 " stroke="none" fill="black" fill-rule="evenodd"></path></svg>