<svg xmlns="http://www.w3.org/2000/svg" viewBox="0 -40 182.02 150">
    <title>brand-npm-v2</title>
    <g id="Layer_2" data-name="Layer 2">
        <g id="Layer_1-2" data-name="Layer 1">
            <path
                d="M44.44,49.27h-5.7a4.81,4.81,0,0,1-4.8-4.81V16.14a.81.81,0,0,0-.81-.81H27.41a.81.81,0,0,0-.81.81V44.46a4.81,4.81,0,0,1-4.81,4.81h-17A4.82,4.82,0,0,1,0,44.46V4.83A4.82,4.82,0,0,1,4.81,0H44.44a4.82,4.82,0,0,1,4.81,4.81V44.46A4.82,4.82,0,0,1,44.44,49.27Zm-17-37.94h5.72a4.82,4.82,0,0,1,4.81,4.81V44.46a.81.81,0,0,0,.8.81h5.7a.82.82,0,0,0,.81-.81V4.83A.81.81,0,0,0,44.44,4H4.81A.81.81,0,0,0,4,4.83V44.46a.81.81,0,0,0,.81.81h17a.81.81,0,0,0,.81-.81V16.14A4.82,4.82,0,0,1,27.41,11.33Z" />
            <path
                d="M76.91,59H60.52a4.82,4.82,0,0,1-4.81-4.81V4.81A4.82,4.82,0,0,1,60.52,0h38.4a4.81,4.81,0,0,1,4.8,4.81V43.2A4.81,4.81,0,0,1,98.92,48H82.53a.81.81,0,0,0-.81.81v5.32A4.82,4.82,0,0,1,76.91,59ZM60.52,4a.81.81,0,0,0-.81.81V54.14a.81.81,0,0,0,.81.81H76.91a.81.81,0,0,0,.81-.81V48.82A4.82,4.82,0,0,1,82.53,44H98.92a.8.8,0,0,0,.8-.81V4.81a.8.8,0,0,0-.8-.81ZM87.91,37H82.53a4.82,4.82,0,0,1-4.81-4.81V15.81A4.82,4.82,0,0,1,82.53,11h5.38a4.82,4.82,0,0,1,4.81,4.81V32.2A4.82,4.82,0,0,1,87.91,37ZM82.53,15a.81.81,0,0,0-.81.81V32.2a.81.81,0,0,0,.81.81h5.38a.81.81,0,0,0,.81-.81V15.81a.81.81,0,0,0-.81-.81Z" />
            <path
                d="M177.21,49.27h-5.69a4.82,4.82,0,0,1-4.81-4.81V16.14a.81.81,0,0,0-.81-.81h-5.69a.81.81,0,0,0-.81.81V44.46a4.82,4.82,0,0,1-4.81,4.81h-5.7a4.82,4.82,0,0,1-4.81-4.81V16.14a.8.8,0,0,0-.8-.81h-5.7a.81.81,0,0,0-.81.81V44.46A4.81,4.81,0,0,1,132,49.27H115a4.82,4.82,0,0,1-4.81-4.81V4.83A4.82,4.82,0,0,1,115,0h62.25A4.82,4.82,0,0,1,182,4.83V44.46A4.82,4.82,0,0,1,177.21,49.27Zm-17-37.94h5.69a4.82,4.82,0,0,1,4.81,4.81V44.46a.81.81,0,0,0,.81.81h5.69a.81.81,0,0,0,.81-.81V4.83a.81.81,0,0,0-.81-.81H115a.81.81,0,0,0-.81.81V44.46a.81.81,0,0,0,.81.81h17a.81.81,0,0,0,.81-.81V16.14a4.82,4.82,0,0,1,4.81-4.81h5.7a4.81,4.81,0,0,1,4.8,4.81V44.46a.82.82,0,0,0,.81.81h5.7a.82.82,0,0,0,.81-.81V16.14A4.81,4.81,0,0,1,160.21,11.33Z" />
        </g>
    </g>
</svg>