<svg width="24" height="24" fill="none" xmlns="http://www.w3.org/2000/svg"><path d="M18.768 2.77c-.051.024-1.407 1.593-3.014 3.487a358.322 358.322 0 0 1-2.948 3.45c-.015.004-1.223-1.523-2.686-3.395-1.463-1.871-2.714-3.436-2.78-3.477-.113-.07-.239-.075-2.187-.075H3.086l-.122.102a.487.487 0 0 0-.135.515c.021.07 1.672 2.211 3.668 4.757 2.002 2.553 3.621 4.653 3.61 4.682-.011.029-1.501 1.741-3.31 3.806-1.81 2.065-3.332 3.816-3.384 3.892a.538.538 0 0 0-.093.234c0 .333.429.623.709.478.065-.034 1.611-1.764 3.433-3.844 2.579-2.944 3.324-3.772 3.36-3.732.025.027 1.32 1.679 2.876 3.67 1.557 1.991 2.9 3.688 2.986 3.771l.155.151 2.116-.011c2.02-.01 2.121-.014 2.201-.088a.494.494 0 0 0 .115-.523c-.035-.102-1.466-1.958-3.93-5.1-2.131-2.717-3.874-4.959-3.874-4.982 0-.023 1.273-1.542 2.83-3.376 3.505-4.126 3.183-3.73 3.183-3.92 0-.184-.129-.359-.336-.457-.156-.074-.246-.078-.376-.015M9.56 7.225a589.004 589.004 0 0 0 2.843 3.628c.078.092 1.742 2.21 3.696 4.707 1.955 2.497 3.581 4.571 3.614 4.61.056.066-.004.07-1.197.07H17.26l-2.92-3.728c-1.606-2.05-3.021-3.855-3.144-4.01-.519-.654-6.788-8.656-6.813-8.697-.02-.033.311-.044 1.225-.043l1.252.002 2.7 3.461" fill-rule="evenodd" fill="#000"/></svg>