<svg xmlns="http://www.w3.org/2000/svg" class="icon icon-tabler icon-tabler-brand-safari" width="24" height="24" viewBox="0 0 24 24" stroke-width="1" stroke="currentColor" fill="none" stroke-linecap="round" stroke-linejoin="round"><path d="M10.900 2.564 C 9.092 2.784,7.444 3.481,6.020 4.628 C 4.323 5.995,3.091 8.034,2.679 10.160 C 2.468 11.247,2.468 12.755,2.679 13.840 C 3.019 15.591,3.905 17.278,5.170 18.585 C 6.746 20.212,8.748 21.195,10.991 21.441 C 11.569 21.505,12.996 21.471,13.520 21.382 C 16.578 20.862,19.166 18.939,20.519 16.180 C 21.189 14.815,21.480 13.549,21.480 12.000 C 21.480 10.487,21.202 9.243,20.562 7.900 C 19.798 6.294,18.506 4.858,16.968 3.907 C 15.800 3.185,14.424 2.710,13.072 2.562 C 12.621 2.513,11.309 2.514,10.900 2.564 M13.160 3.581 C 14.081 3.712,14.852 3.948,15.700 4.360 C 16.622 4.807,17.277 5.273,18.002 5.998 C 19.251 7.248,20.028 8.728,20.365 10.500 C 20.470 11.053,20.512 12.362,20.444 12.946 C 20.245 14.630,19.576 16.182,18.485 17.486 C 17.115 19.122,15.119 20.188,12.946 20.444 C 12.362 20.512,11.053 20.470,10.500 20.365 C 7.839 19.860,5.635 18.221,4.428 15.851 C 4.054 15.115,3.799 14.359,3.635 13.500 C 3.515 12.874,3.486 11.525,3.577 10.868 C 4.105 7.087,7.016 4.152,10.800 3.585 C 11.320 3.507,12.623 3.505,13.160 3.581 M12.784 8.542 C 10.754 9.221,9.717 9.586,9.655 9.644 C 9.529 9.763,7.520 15.775,7.520 16.034 C 7.520 16.179,7.543 16.231,7.656 16.344 C 7.769 16.457,7.821 16.480,7.966 16.480 C 8.205 16.480,14.213 14.479,14.345 14.356 C 14.471 14.237,16.480 8.224,16.480 7.966 C 16.480 7.821,16.457 7.769,16.344 7.656 C 16.225 7.537,16.183 7.520,16.014 7.523 C 15.873 7.525,14.997 7.801,12.784 8.542 M15.190 8.850 C 15.180 8.877,14.825 9.944,14.401 11.220 C 13.977 12.496,13.610 13.560,13.585 13.585 C 13.540 13.630,8.836 15.209,8.813 15.187 C 8.798 15.171,10.346 10.519,10.391 10.442 C 10.418 10.397,15.032 8.816,15.174 8.803 C 15.193 8.801,15.200 8.822,15.190 8.850 " stroke="none" fill="black" fill-rule="evenodd"></path></svg>