<svg xmlns="http://www.w3.org/2000/svg" class="icon icon-tabler icon-tabler-brand-android" width="24" height="24" viewBox="0 0 24 24" stroke-width="1" stroke="currentColor" fill="none" stroke-linecap="round" stroke-linejoin="round"><path d="M7.656 2.656 C 7.420 2.892,7.446 3.014,7.942 4.004 L 8.364 4.847 8.092 5.133 C 7.235 6.036,6.735 7.046,6.552 8.240 C 6.512 8.503,6.500 9.555,6.500 12.900 C 6.500 16.888,6.505 17.237,6.569 17.444 C 6.703 17.876,7.118 18.297,7.531 18.420 C 7.641 18.452,7.900 18.491,8.106 18.506 L 8.480 18.532 8.481 19.736 C 8.481 20.398,8.499 21.012,8.519 21.100 C 8.574 21.341,8.751 21.480,9.000 21.480 C 9.249 21.480,9.426 21.341,9.481 21.100 C 9.501 21.012,9.519 20.395,9.519 19.730 L 9.520 18.520 12.000 18.520 L 14.480 18.520 14.481 19.730 C 14.481 20.395,14.499 21.012,14.519 21.100 C 14.574 21.341,14.751 21.480,15.000 21.480 C 15.249 21.480,15.426 21.341,15.481 21.100 C 15.501 21.012,15.519 20.398,15.519 19.736 L 15.520 18.532 15.894 18.506 C 16.100 18.491,16.359 18.452,16.469 18.420 C 16.882 18.297,17.297 17.876,17.431 17.444 C 17.495 17.237,17.500 16.886,17.500 12.860 C 17.499 8.854,17.494 8.468,17.428 8.100 C 17.231 6.996,16.712 5.980,15.919 5.145 L 15.636 4.847 16.058 4.004 C 16.554 3.014,16.580 2.892,16.344 2.656 C 16.226 2.538,16.182 2.520,16.009 2.520 C 15.868 2.520,15.780 2.544,15.703 2.605 C 15.637 2.657,15.450 2.982,15.213 3.455 C 15.003 3.876,14.824 4.228,14.815 4.237 C 14.807 4.246,14.633 4.171,14.430 4.071 C 13.664 3.693,12.903 3.520,12.000 3.520 C 11.095 3.520,10.446 3.665,9.630 4.050 C 9.393 4.162,9.193 4.245,9.184 4.236 C 9.176 4.227,8.997 3.876,8.787 3.455 C 8.550 2.982,8.363 2.657,8.297 2.605 C 8.220 2.544,8.132 2.520,7.991 2.520 C 7.818 2.520,7.774 2.538,7.656 2.656 M13.088 4.632 C 14.320 4.965,15.288 5.702,15.908 6.780 C 16.176 7.246,16.408 7.920,16.446 8.340 L 16.460 8.500 12.022 8.510 C 9.581 8.516,7.571 8.507,7.555 8.490 C 7.538 8.474,7.551 8.325,7.582 8.161 C 7.927 6.359,9.322 4.957,11.145 4.580 C 11.564 4.493,12.685 4.524,13.088 4.632 M2.679 9.630 C 2.605 9.696,2.541 9.804,2.519 9.900 C 2.470 10.110,2.470 15.890,2.519 16.100 C 2.574 16.341,2.751 16.480,3.000 16.480 C 3.249 16.480,3.426 16.341,3.481 16.100 C 3.502 16.010,3.518 14.654,3.518 13.000 C 3.518 11.346,3.502 9.990,3.481 9.900 C 3.426 9.659,3.249 9.520,3.000 9.520 C 2.840 9.520,2.778 9.541,2.679 9.630 M16.480 13.359 L 16.480 17.199 16.370 17.321 C 16.304 17.395,16.196 17.459,16.100 17.480 C 15.890 17.528,8.110 17.528,7.900 17.480 C 7.804 17.459,7.696 17.395,7.630 17.321 L 7.520 17.199 7.520 13.359 L 7.520 9.520 12.000 9.520 L 16.480 9.520 16.480 13.359 M20.679 9.630 C 20.605 9.696,20.541 9.804,20.519 9.900 C 20.498 9.990,20.482 11.346,20.482 13.000 C 20.482 14.654,20.498 16.010,20.519 16.100 C 20.574 16.341,20.751 16.480,21.000 16.480 C 21.249 16.480,21.426 16.341,21.481 16.100 C 21.502 16.010,21.518 14.654,21.518 13.000 C 21.518 11.346,21.502 9.990,21.481 9.900 C 21.426 9.659,21.249 9.520,21.000 9.520 C 20.840 9.520,20.778 9.541,20.679 9.630 " stroke="none" fill="black" fill-rule="evenodd"></path></svg>