<svg width="24" height="24" fill="none" xmlns="http://www.w3.org/2000/svg"><path d="M8.66 4.561c-2.365.086-4.052.244-4.72.443A2.96 2.96 0 0 0 1.967 6.96c-.339 1.057-.542 3.896-.449 6.285.077 1.996.26 3.34.552 4.056.334.821 1.107 1.501 1.972 1.736.52.141 1.72.262 3.618.365 1.254.068 6.239.095 7.76.042 3.345-.116 4.541-.281 5.28-.727a3.24 3.24 0 0 0 1.13-1.217c.201-.405.336-.987.468-2.009.223-1.735.266-4.332.101-6.156-.058-.65-.224-1.707-.337-2.149-.177-.696-.531-1.258-1.054-1.673-.784-.623-1.454-.754-4.688-.915-1.106-.055-6.461-.081-7.66-.037m7.64 1.038c1.135.055 2.484.153 2.84.205 1.154.169 1.766.737 2.004 1.861.235 1.11.336 2.41.335 4.294 0 1.691-.061 2.655-.244 3.861-.155 1.024-.273 1.329-.678 1.74-.376.381-.789.543-1.677.657-1.314.167-2.649.225-5.78.25-3.975.032-7.073-.088-8.497-.33-.708-.12-1.275-.522-1.559-1.106-.217-.447-.394-1.557-.488-3.071-.053-.853-.026-3.876.042-4.6.063-.676.2-1.619.284-1.946.223-.876.828-1.403 1.778-1.55.85-.131 2.291-.24 4.02-.304 1.181-.043 6.495-.017 7.62.039M9.769 8.591a.773.773 0 0 0-.168.227c-.027.069-.041 1.198-.041 3.209 0 2.716.008 3.117.062 3.231.074.156.202.222.43.222.148 0 .48-.179 2.788-1.502a234.377 234.377 0 0 0 2.748-1.59c.229-.155.276-.401.121-.632-.103-.151-.042-.115-3.314-1.99-1.506-.863-2.234-1.259-2.342-1.273-.133-.018-.174-.004-.284.098m2.661 2.351c.995.57 1.81 1.046 1.81 1.058 0 .017-2.675 1.566-3.49 2.021l-.19.106v-2.126c0-1.169.013-2.119.03-2.11l1.84 1.051" fill-rule="evenodd" fill="#000"/></svg>