<svg xmlns="http://www.w3.org/2000/svg" class="icon icon-tabler icon-tabler-brand-paypal" width="24" height="24" viewBox="0 0 24 24" stroke-width="1" stroke="currentColor" fill="none" stroke-linecap="round" stroke-linejoin="round"><path d="M6.488 2.610 C 6.072 2.786,5.696 3.186,5.580 3.574 C 5.471 3.941,3.511 17.828,3.527 18.121 C 3.563 18.779,4.145 19.380,4.845 19.482 C 4.985 19.502,5.582 19.519,6.170 19.519 C 7.097 19.520,7.240 19.528,7.240 19.580 C 7.240 19.614,7.211 19.816,7.176 20.030 C 7.075 20.655,7.153 20.971,7.480 21.251 C 7.746 21.479,7.810 21.485,9.620 21.472 L 11.260 21.460 11.510 21.324 C 11.648 21.250,11.834 21.109,11.924 21.011 C 12.225 20.685,12.257 20.567,12.550 18.708 L 12.818 17.007 14.279 16.989 C 15.883 16.970,15.961 16.960,16.758 16.696 C 18.400 16.150,19.825 14.771,20.292 13.275 C 20.446 12.782,20.480 12.529,20.480 11.887 C 20.480 10.191,19.894 8.657,18.842 7.599 C 18.575 7.331,18.209 7.034,17.929 6.858 C 17.923 6.854,17.872 6.664,17.817 6.437 C 17.331 4.428,15.984 3.116,13.909 2.631 C 13.548 2.546,13.461 2.544,10.120 2.533 L 6.700 2.521 6.488 2.610 M13.878 3.653 C 15.120 3.979,16.021 4.702,16.541 5.788 C 16.968 6.680,17.114 8.018,16.880 8.900 C 16.766 9.331,16.427 10.022,16.119 10.452 C 15.639 11.121,14.883 11.753,14.149 12.100 C 13.413 12.448,13.407 12.449,11.440 12.480 C 9.541 12.509,9.545 12.509,9.184 12.757 C 8.968 12.906,8.825 13.072,8.697 13.326 C 8.632 13.455,8.409 14.340,8.038 15.950 C 7.730 17.287,7.468 18.412,7.456 18.450 C 7.436 18.515,7.343 18.520,6.247 18.520 C 5.565 18.520,4.998 18.502,4.913 18.479 C 4.718 18.425,4.520 18.198,4.520 18.029 C 4.520 17.822,6.521 3.873,6.561 3.797 C 6.582 3.760,6.655 3.681,6.724 3.623 L 6.850 3.517 10.155 3.530 L 13.460 3.543 13.878 3.653 M18.597 8.860 C 18.953 9.377,19.182 9.907,19.346 10.600 C 19.496 11.229,19.523 12.239,19.404 12.740 C 19.093 14.049,17.888 15.264,16.409 15.759 C 15.763 15.975,15.500 16.000,13.831 16.000 C 12.181 16.000,12.123 16.007,11.980 16.225 C 11.938 16.289,11.813 16.978,11.618 18.212 C 11.453 19.250,11.299 20.150,11.274 20.211 C 11.250 20.272,11.180 20.358,11.119 20.401 C 11.013 20.476,10.937 20.480,9.562 20.480 L 8.116 20.480 8.139 20.350 C 8.151 20.279,8.204 19.950,8.257 19.620 C 8.366 18.938,9.488 14.018,9.587 13.791 C 9.716 13.494,9.657 13.503,11.580 13.476 C 13.295 13.453,13.301 13.452,13.680 13.345 C 15.250 12.898,16.661 11.727,17.414 10.245 C 17.737 9.611,17.902 9.079,17.979 8.425 L 18.007 8.190 18.205 8.385 C 18.314 8.492,18.490 8.706,18.597 8.860 " stroke="none" fill="black" fill-rule="evenodd"></path></svg>