<svg xmlns="http://www.w3.org/2000/svg" class="icon icon-tabler icon-tabler-brand-snapchat" width="24" height="24" viewBox="0 0 24 24" stroke-width="1" stroke="currentColor" fill="none" stroke-linecap="round" stroke-linejoin="round"><path d="M11.060 2.544 C 9.128 2.886,7.527 4.269,6.898 6.141 C 6.675 6.806,6.638 7.137,6.598 8.800 C 6.567 10.107,6.490 11.244,6.429 11.305 C 6.420 11.314,6.359 11.199,6.293 11.050 C 6.014 10.420,5.402 9.581,4.661 8.815 L 4.220 8.359 4.006 8.359 C 3.816 8.360,3.776 8.376,3.656 8.496 C 3.537 8.615,3.520 8.657,3.520 8.835 L 3.520 9.038 4.004 9.569 C 5.078 10.746,5.562 11.571,5.626 12.335 C 5.712 13.355,4.886 14.333,3.084 15.343 C 2.597 15.617,2.520 15.701,2.520 15.962 C 2.520 16.224,2.633 16.348,3.026 16.518 C 3.559 16.748,4.131 17.043,4.333 17.190 C 4.623 17.402,4.822 17.696,5.240 18.534 C 5.479 19.013,5.658 19.323,5.724 19.370 C 5.805 19.430,5.938 19.454,6.351 19.481 C 7.376 19.549,8.077 19.789,9.280 20.483 C 10.021 20.911,10.584 21.183,10.984 21.307 C 11.310 21.407,11.396 21.417,12.000 21.418 C 12.583 21.420,12.695 21.409,12.960 21.326 C 13.414 21.185,13.836 20.989,14.478 20.622 C 15.947 19.781,16.585 19.551,17.641 19.481 C 18.061 19.454,18.194 19.430,18.276 19.370 C 18.342 19.323,18.521 19.013,18.760 18.534 C 19.178 17.696,19.377 17.402,19.667 17.190 C 19.881 17.034,20.397 16.769,20.931 16.540 C 21.365 16.354,21.480 16.233,21.480 15.962 C 21.480 15.701,21.405 15.620,20.913 15.341 C 20.019 14.836,19.234 14.236,18.887 13.794 C 17.956 12.607,18.251 11.482,19.996 9.569 L 20.480 9.038 20.480 8.835 C 20.480 8.657,20.463 8.615,20.344 8.496 C 20.223 8.375,20.184 8.360,19.994 8.360 L 19.780 8.359 19.367 8.783 C 18.633 9.538,18.100 10.257,17.756 10.955 C 17.574 11.324,17.570 11.328,17.546 11.195 C 17.470 10.774,17.433 10.181,17.401 8.820 C 17.376 7.762,17.346 7.190,17.302 6.940 C 16.908 4.691,15.150 2.926,12.923 2.545 C 12.457 2.465,11.509 2.464,11.060 2.544 M13.152 3.615 C 14.766 4.069,15.969 5.368,16.304 7.017 C 16.343 7.209,16.374 7.797,16.399 8.840 C 16.448 10.863,16.549 11.693,16.860 12.626 C 17.296 13.936,18.171 14.970,19.510 15.758 C 19.669 15.852,19.800 15.934,19.800 15.940 C 19.800 15.946,19.646 16.037,19.458 16.142 C 18.796 16.514,18.420 16.957,17.935 17.939 L 17.678 18.460 17.233 18.509 C 16.213 18.623,15.466 18.908,14.000 19.741 C 13.001 20.309,12.627 20.440,12.000 20.440 C 11.380 20.440,10.978 20.299,9.986 19.731 C 8.565 18.918,7.786 18.623,6.765 18.509 L 6.322 18.460 6.065 17.939 C 5.580 16.957,5.204 16.514,4.542 16.142 C 4.354 16.037,4.200 15.945,4.200 15.939 C 4.200 15.933,4.348 15.841,4.528 15.735 C 5.040 15.435,5.467 15.104,5.882 14.683 C 7.138 13.411,7.597 11.834,7.600 8.780 C 7.601 7.407,7.683 6.812,7.964 6.137 C 8.461 4.943,9.601 3.946,10.840 3.624 C 11.382 3.483,11.354 3.485,12.100 3.498 C 12.689 3.509,12.830 3.524,13.152 3.615 " stroke="none" fill="black" fill-rule="evenodd"></path></svg>