<svg xmlns="http://www.w3.org/2000/svg" class="icon icon-tabler icon-tabler-brand-telegram" width="24" height="24" viewBox="0 0 24 24" stroke-width="1" stroke="currentColor" fill="none" stroke-linecap="round" stroke-linejoin="round"><path d="M11.800 7.035 C 4.335 9.938,2.758 10.564,2.650 10.668 C 2.538 10.776,2.520 10.820,2.520 10.991 C 2.520 11.132,2.544 11.220,2.605 11.297 C 2.662 11.370,3.313 11.716,4.641 12.380 L 6.592 13.356 7.579 16.317 C 8.686 19.637,8.615 19.480,8.998 19.480 C 9.127 19.480,9.221 19.455,9.288 19.402 C 9.343 19.359,9.989 18.522,10.723 17.542 L 12.059 15.760 14.420 18.120 L 16.782 20.480 16.995 20.480 C 17.182 20.480,17.224 20.464,17.337 20.350 C 17.463 20.223,17.508 20.052,19.473 12.190 C 20.668 7.408,21.480 4.086,21.480 3.976 C 21.480 3.820,21.459 3.771,21.344 3.656 C 21.225 3.537,21.183 3.520,21.014 3.523 C 20.857 3.526,19.119 4.188,11.800 7.035 M18.514 11.870 C 17.548 15.737,16.748 18.926,16.737 18.958 C 16.723 18.997,15.869 18.169,14.208 16.508 L 11.701 14.001 13.590 12.109 L 15.480 10.218 15.480 10.005 C 15.480 9.816,15.465 9.777,15.344 9.656 C 15.223 9.535,15.184 9.520,14.994 9.520 L 14.781 9.520 12.650 11.650 L 10.520 13.781 10.520 13.996 L 10.520 14.212 10.924 14.623 C 11.204 14.907,11.319 15.050,11.297 15.087 C 11.261 15.145,9.248 17.839,9.199 17.894 C 9.183 17.912,8.779 16.758,8.303 15.329 C 7.675 13.445,7.413 12.709,7.349 12.650 C 7.300 12.605,6.579 12.228,5.747 11.812 L 4.234 11.057 12.207 7.952 C 16.592 6.245,20.200 4.846,20.225 4.844 C 20.251 4.842,19.534 7.787,18.514 11.870 " stroke="none" fill="black" fill-rule="evenodd"></path></svg>