<svg xmlns="http://www.w3.org/2000/svg" class="icon icon-tabler icon-tabler-brand-google" width="24" height="24" viewBox="0 0 24 24" stroke-width="1" stroke="currentColor" fill="none" stroke-linecap="round" stroke-linejoin="round"><path d="M11.080 2.543 C 11.025 2.552,10.827 2.579,10.640 2.604 C 8.729 2.853,6.844 3.784,5.386 5.199 C 4.834 5.734,4.520 6.111,4.092 6.750 C 3.267 7.983,2.723 9.477,2.559 10.957 C 2.504 11.453,2.505 12.614,2.560 13.063 C 2.958 16.321,4.903 19.078,7.820 20.522 C 8.722 20.968,9.901 21.317,10.911 21.438 C 11.384 21.494,12.636 21.494,13.080 21.438 C 14.592 21.247,15.981 20.743,17.199 19.945 C 18.352 19.189,19.361 18.149,20.103 16.952 C 20.945 15.595,21.480 13.774,21.480 12.267 L 21.480 11.792 21.344 11.656 L 21.208 11.520 17.000 11.520 L 12.792 11.520 12.656 11.656 C 12.537 11.775,12.520 11.817,12.520 11.995 C 12.520 12.250,12.657 12.425,12.900 12.481 C 12.991 12.502,14.649 12.519,16.770 12.519 C 20.421 12.520,20.480 12.521,20.480 12.598 C 20.480 12.798,20.351 13.620,20.263 13.980 C 19.416 17.448,16.553 19.994,13.000 20.439 C 12.504 20.501,11.412 20.491,10.871 20.421 C 9.307 20.216,7.760 19.528,6.518 18.488 C 4.926 17.154,3.876 15.242,3.577 13.132 C 3.506 12.625,3.497 11.532,3.560 11.017 C 3.802 9.044,4.737 7.169,6.134 5.854 C 7.456 4.610,9.040 3.846,10.845 3.582 C 11.339 3.510,12.493 3.499,13.001 3.562 C 14.524 3.750,15.931 4.323,17.157 5.253 C 17.467 5.489,17.614 5.575,17.732 5.591 C 18.059 5.635,18.313 5.372,18.269 5.036 C 18.242 4.832,18.101 4.689,17.500 4.260 C 16.574 3.600,15.465 3.084,14.351 2.797 C 13.608 2.605,13.182 2.555,12.160 2.540 C 11.621 2.533,11.135 2.534,11.080 2.543 " stroke="none" fill="black" fill-rule="evenodd"></path></svg>