<svg xmlns="http://www.w3.org/2000/svg" class="icon icon-tabler icon-tabler-brand-chrome" width="24" height="24" viewBox="0 0 24 24" stroke-width="1" stroke="currentColor" fill="none" stroke-linecap="round" stroke-linejoin="round"><path d="M10.900 2.564 C 9.092 2.784,7.444 3.481,6.020 4.628 C 4.323 5.995,3.091 8.034,2.679 10.160 C 2.468 11.247,2.468 12.755,2.679 13.840 C 3.019 15.591,3.905 17.278,5.170 18.585 C 6.746 20.212,8.748 21.195,10.991 21.441 C 11.569 21.505,12.996 21.471,13.520 21.382 C 16.578 20.862,19.166 18.939,20.519 16.180 C 21.189 14.815,21.480 13.549,21.480 12.000 C 21.480 10.487,21.202 9.243,20.562 7.900 C 19.798 6.294,18.506 4.858,16.968 3.907 C 15.800 3.185,14.424 2.710,13.072 2.562 C 12.621 2.513,11.309 2.514,10.900 2.564 M13.160 3.581 C 14.643 3.792,15.983 4.357,17.219 5.293 C 17.850 5.771,18.595 6.579,19.113 7.348 C 19.305 7.633,19.720 8.403,19.720 8.475 C 19.720 8.513,18.813 8.523,15.650 8.519 C 12.724 8.516,11.513 8.528,11.341 8.561 C 10.187 8.784,9.109 9.694,8.731 10.765 C 8.670 10.938,8.611 11.080,8.600 11.080 C 8.572 11.079,5.836 6.334,5.813 6.246 C 5.800 6.197,5.886 6.088,6.095 5.890 C 7.409 4.642,9.023 3.851,10.800 3.585 C 11.320 3.507,12.623 3.505,13.160 3.581 M7.057 10.443 C 8.102 12.256,9.042 13.863,9.147 14.013 C 9.554 14.599,10.212 15.086,10.910 15.321 C 11.249 15.435,11.369 15.454,11.825 15.471 C 12.139 15.482,12.458 15.471,12.619 15.443 C 12.768 15.417,12.895 15.401,12.901 15.408 C 12.912 15.419,10.147 20.226,10.106 20.267 C 10.079 20.294,9.533 20.142,9.120 19.994 C 8.587 19.803,7.777 19.395,7.319 19.088 C 5.352 17.769,4.082 15.843,3.635 13.500 C 3.515 12.874,3.486 11.525,3.577 10.868 C 3.714 9.891,4.024 8.919,4.475 8.060 C 4.790 7.460,5.085 7.020,5.125 7.091 C 5.142 7.121,6.011 8.630,7.057 10.443 M12.834 9.640 C 13.142 9.749,13.615 10.059,13.818 10.283 C 14.048 10.538,14.266 10.898,14.368 11.192 C 14.492 11.552,14.502 12.416,14.386 12.760 C 14.208 13.287,13.842 13.766,13.381 14.074 C 12.916 14.385,12.648 14.460,12.000 14.460 C 11.352 14.460,11.084 14.385,10.619 14.074 C 10.164 13.770,9.853 13.371,9.640 12.818 C 9.514 12.490,9.482 11.771,9.577 11.399 C 9.803 10.515,10.484 9.821,11.360 9.581 C 11.694 9.489,12.500 9.522,12.834 9.640 M20.210 9.800 C 20.381 10.425,20.448 10.933,20.469 11.746 C 20.499 12.924,20.396 13.657,20.052 14.695 C 19.215 17.218,17.218 19.215,14.695 20.052 C 13.725 20.373,13.035 20.480,11.926 20.480 C 11.238 20.480,11.192 20.475,11.209 20.408 C 11.220 20.368,12.044 18.924,13.042 17.198 C 14.040 15.472,14.931 13.929,15.023 13.770 C 15.115 13.610,15.251 13.304,15.324 13.090 C 15.457 12.705,15.459 12.690,15.459 12.000 C 15.459 11.310,15.457 11.295,15.324 10.910 C 15.180 10.490,14.908 10.014,14.640 9.710 L 14.473 9.519 17.306 9.530 L 20.139 9.540 20.210 9.800 " stroke="none" fill="black" fill-rule="evenodd"></path></svg>