<svg xmlns="http://www.w3.org/2000/svg" class="icon icon-tabler icon-tabler-brand-opera" width="24" height="24" viewBox="0 0 24 24" stroke-width="1" stroke="currentColor" fill="none" stroke-linecap="round" stroke-linejoin="round"><path d="M10.900 2.564 C 9.092 2.784,7.444 3.481,6.020 4.628 C 4.323 5.995,3.091 8.034,2.679 10.160 C 2.468 11.247,2.468 12.755,2.679 13.840 C 3.019 15.591,3.905 17.278,5.170 18.585 C 6.746 20.212,8.748 21.195,10.991 21.441 C 11.569 21.505,12.996 21.471,13.520 21.382 C 16.578 20.862,19.166 18.939,20.519 16.180 C 21.189 14.815,21.480 13.549,21.480 12.000 C 21.480 10.487,21.202 9.243,20.562 7.900 C 19.798 6.294,18.506 4.858,16.968 3.907 C 15.800 3.185,14.424 2.710,13.072 2.562 C 12.621 2.513,11.309 2.514,10.900 2.564 M13.160 3.581 C 14.081 3.712,14.852 3.948,15.700 4.360 C 16.622 4.807,17.277 5.273,18.002 5.998 C 19.251 7.248,20.028 8.728,20.365 10.500 C 20.470 11.053,20.512 12.362,20.444 12.946 C 20.245 14.630,19.576 16.182,18.485 17.486 C 17.115 19.122,15.119 20.188,12.946 20.444 C 12.362 20.512,11.053 20.470,10.500 20.365 C 7.839 19.860,5.635 18.221,4.428 15.851 C 4.054 15.115,3.799 14.359,3.635 13.500 C 3.515 12.874,3.486 11.525,3.577 10.868 C 4.105 7.087,7.016 4.152,10.800 3.585 C 11.320 3.507,12.623 3.505,13.160 3.581 M11.258 6.631 C 10.812 6.782,10.522 6.966,10.139 7.340 C 9.316 8.145,8.749 9.444,8.562 10.959 C 8.508 11.396,8.508 12.604,8.562 13.041 C 8.749 14.555,9.315 15.853,10.139 16.660 C 10.721 17.231,11.287 17.480,12.000 17.480 C 12.714 17.480,13.283 17.229,13.864 16.658 C 14.674 15.861,15.202 14.668,15.421 13.140 C 15.496 12.618,15.496 11.382,15.421 10.860 C 15.255 9.696,14.919 8.754,14.389 7.960 C 14.134 7.579,13.610 7.064,13.277 6.869 C 12.653 6.503,11.899 6.414,11.258 6.631 M12.649 7.672 C 13.422 8.052,14.052 9.111,14.367 10.560 C 14.448 10.936,14.458 11.088,14.458 12.000 C 14.458 12.912,14.448 13.064,14.367 13.440 C 14.053 14.886,13.419 15.949,12.644 16.331 C 12.404 16.449,12.349 16.460,12.000 16.460 C 11.649 16.460,11.597 16.449,11.351 16.328 C 10.578 15.948,9.948 14.889,9.633 13.440 C 9.552 13.064,9.542 12.912,9.542 12.000 C 9.542 11.088,9.552 10.936,9.633 10.560 C 9.966 9.028,10.626 7.969,11.469 7.615 C 11.663 7.533,11.754 7.520,12.041 7.529 C 12.333 7.538,12.420 7.559,12.649 7.672 " stroke="none" fill="black" fill-rule="evenodd"></path></svg>