<svg xmlns="http://www.w3.org/2000/svg" class="icon icon-tabler icon-tabler-brand-instagram" width="24" height="24" viewBox="0 0 24 24" stroke-width="1" stroke="currentColor" fill="none" stroke-linecap="round" stroke-linejoin="round"><path d="M7.145 3.582 C 5.297 3.949,3.896 5.392,3.554 7.280 C 3.474 7.722,3.475 16.280,3.555 16.720 C 3.907 18.659,5.341 20.093,7.280 20.445 C 7.720 20.525,16.278 20.526,16.720 20.446 C 18.618 20.102,20.005 18.751,20.426 16.839 C 20.484 16.575,20.494 16.056,20.509 12.425 C 20.526 8.134,20.508 7.474,20.364 6.913 C 19.921 5.195,18.557 3.908,16.830 3.580 C 16.379 3.495,7.576 3.496,7.145 3.582 M17.080 4.672 C 17.635 4.864,18.037 5.117,18.460 5.540 C 18.883 5.963,19.136 6.365,19.328 6.920 L 19.460 7.300 19.460 12.000 L 19.460 16.700 19.328 17.080 C 19.136 17.635,18.883 18.037,18.460 18.460 C 17.835 19.085,17.158 19.401,16.276 19.479 C 15.670 19.533,8.330 19.533,7.724 19.479 C 6.842 19.401,6.165 19.085,5.540 18.460 C 5.117 18.037,4.864 17.635,4.672 17.080 L 4.540 16.700 4.528 12.160 C 4.520 9.039,4.530 7.541,4.560 7.368 C 4.755 6.228,5.648 5.151,6.740 4.738 C 7.321 4.518,7.140 4.525,12.100 4.533 L 16.700 4.540 17.080 4.672 M16.252 7.078 C 16.009 7.226,15.935 7.513,16.078 7.748 C 16.278 8.076,16.722 8.076,16.922 7.748 C 17.068 7.508,16.977 7.193,16.724 7.062 C 16.563 6.979,16.406 6.984,16.252 7.078 M11.259 8.576 C 10.065 8.848,9.079 9.739,8.676 10.910 C 8.543 11.294,8.541 11.310,8.541 12.000 C 8.541 12.687,8.543 12.707,8.672 13.080 C 8.863 13.634,9.117 14.037,9.540 14.460 C 9.963 14.883,10.366 15.137,10.920 15.328 C 11.293 15.457,11.313 15.459,12.000 15.459 C 12.688 15.459,12.706 15.457,13.079 15.327 C 13.288 15.255,13.558 15.139,13.679 15.071 C 14.449 14.635,15.035 13.930,15.324 13.090 C 15.457 12.705,15.459 12.690,15.459 12.000 C 15.459 11.310,15.457 11.295,15.324 10.910 C 15.035 10.070,14.449 9.365,13.679 8.929 C 13.558 8.861,13.288 8.747,13.079 8.676 C 12.730 8.557,12.653 8.546,12.100 8.534 C 11.694 8.526,11.422 8.539,11.259 8.576 M12.834 9.640 C 13.142 9.749,13.615 10.059,13.818 10.283 C 14.048 10.538,14.266 10.898,14.368 11.192 C 14.446 11.421,14.460 11.540,14.460 12.000 C 14.460 12.460,14.446 12.579,14.368 12.808 C 14.190 13.320,13.844 13.765,13.378 14.076 C 12.916 14.385,12.647 14.460,12.000 14.460 C 11.540 14.460,11.421 14.446,11.192 14.368 C 10.898 14.266,10.538 14.048,10.283 13.818 C 10.058 13.615,9.749 13.141,9.640 12.834 C 9.516 12.481,9.484 11.763,9.577 11.399 C 9.803 10.515,10.484 9.821,11.360 9.581 C 11.694 9.489,12.500 9.522,12.834 9.640 " stroke="none" fill="black" fill-rule="evenodd"></path></svg>