<?xml version="1.0" encoding="iso-8859-1"?>
<!-- Generator: Adobe Illustrator 19.0.0, SVG Export Plug-In . SVG Version: 6.00 Build 0)  -->
<svg version="1.1" id="Layer_1" xmlns="http://www.w3.org/2000/svg" xmlns:xlink="http://www.w3.org/1999/xlink" x="0px" y="0px"
	 viewBox="0 0 512 512" style="enable-background:new 0 0 512 512;" xml:space="preserve">
<g>
	<g>
		<path d="M498.37,2.691c-2.362-2.069-5.686-3-8.814-2.601l-219.47,29.298c-5.41,0.723-10,5.34-10,10.798v191.651
			c0,6.016,5.793,10.77,11.809,10.77h218.917c6.016,0,11.66-4.754,11.66-10.77V10.888C502.471,7.745,500.731,4.761,498.37,2.691z
			 M480.683,220.82H281.873V49.718l198.811-26.383V220.82z"/>
	</g>
</g>
<g>
	<g>
		<path d="M235.558,268.279c-2.048-2.043-4.005-3.426-7.261-3.181l-205.555,0.431c-6.011,0.011-10.49,4.888-10.49,10.894v163.411
			c0,5.484,3.697,10.112,9.133,10.808l205.747,26.219c0.463,0.058,0.824,0.085,1.282,0.085c2.633,0,4.691-0.958,6.697-2.718
			c2.346-2.069,3.186-5.048,3.186-8.176V275.992C238.298,273.099,237.606,270.327,235.558,268.279z M216.51,453.686L34.04,430.238
			V287.296l182.47-0.388V453.686z"/>
	</g>
</g>
<g>
	<g>
		<path d="M491.21,265.116l-219.3-0.721c-0.005,0-0.011,0-0.016,0c-2.888,0-6.112,1.556-8.154,3.599
			c-2.048,2.043-3.654,5.227-3.654,8.121V471.5c0,5.452,4.489,10.064,9.894,10.798l219.146,29.606
			c0.484,0.064,1.088,0.096,1.572,0.096c2.622,0,5.61-0.947,7.61-2.691c2.367-2.069,4.164-5.059,4.164-8.202V276.423
			C502.471,270.412,497.221,265.126,491.21,265.116z M480.683,488.638l-198.811-26.66V287.024l198.811,0.276V488.638z"/>
	</g>
</g>
<g>
	<g>
		<path d="M235.058,37.335c-2.356-2.069-5.048-3.032-8.128-2.622L19.492,61.357c-5.436,0.697-9.963,5.324-9.963,10.803v159.677
			c0,6.016,5.793,10.77,11.809,10.77h206.981c6.016,0,9.979-4.754,9.979-10.77V45.516C238.298,42.383,237.409,39.405,235.058,37.335
			z M216.51,220.82H31.317V81.74L216.51,57.905V220.82z"/>
	</g>
</g>
<g>
</g>
<g>
</g>
<g>
</g>
<g>
</g>
<g>
</g>
<g>
</g>
<g>
</g>
<g>
</g>
<g>
</g>
<g>
</g>
<g>
</g>
<g>
</g>
<g>
</g>
<g>
</g>
<g>
</g>
</svg>
