<svg xmlns="http://www.w3.org/2000/svg" class="icon icon-tabler icon-tabler-brand-gitlab" width="24" height="24" viewBox="0 0 24 24" stroke-width="1" stroke="currentColor" fill="none" stroke-linecap="round" stroke-linejoin="round"><path d="M5.677 2.631 C 5.557 2.738,5.493 2.959,4.036 8.301 C 3.147 11.560,2.520 13.931,2.520 14.031 C 2.520 14.169,2.545 14.227,2.650 14.336 C 2.721 14.411,4.810 16.049,7.292 17.976 L 11.803 21.480 12.000 21.480 L 12.197 21.480 16.858 17.855 C 21.067 14.582,21.520 14.218,21.520 14.118 C 21.520 14.056,20.829 11.472,19.984 8.374 C 18.508 2.962,18.443 2.738,18.323 2.631 C 18.146 2.473,17.853 2.472,17.682 2.630 C 17.588 2.716,17.253 3.463,16.135 6.080 C 15.349 7.917,14.690 9.443,14.669 9.470 C 14.612 9.543,9.388 9.543,9.331 9.470 C 9.310 9.443,8.651 7.917,7.865 6.080 C 6.747 3.463,6.412 2.716,6.318 2.630 C 6.147 2.472,5.854 2.473,5.677 2.631 M7.358 7.440 C 8.041 9.036,8.604 10.300,8.656 10.353 C 8.706 10.404,8.818 10.462,8.904 10.482 C 9.108 10.529,14.892 10.529,15.096 10.482 C 15.182 10.462,15.294 10.404,15.344 10.353 C 15.396 10.300,15.959 9.036,16.642 7.440 C 17.306 5.889,17.862 4.606,17.878 4.589 C 17.894 4.572,18.474 6.638,19.168 9.181 L 20.429 13.805 20.164 14.015 C 20.019 14.130,18.122 15.607,15.950 17.296 L 12.000 20.367 8.050 17.296 C 5.878 15.607,3.981 14.130,3.836 14.015 L 3.571 13.805 4.832 9.181 C 5.526 6.638,6.106 4.572,6.122 4.589 C 6.138 4.606,6.694 5.889,7.358 7.440 " stroke="none" fill="black" fill-rule="evenodd"></path></svg>