<svg xmlns="http://www.w3.org/2000/svg" class="icon icon-tabler icon-tabler-brand-google-drive" width="24" height="24" viewBox="0 0 24 24" stroke-width="1" stroke="currentColor" fill="none" stroke-linecap="round" stroke-linejoin="round"><path d="M8.804 4.545 C 8.747 4.569,8.671 4.623,8.636 4.665 C 8.601 4.706,7.210 7.011,5.546 9.787 C 2.759 14.434,2.520 14.847,2.522 15.007 C 2.523 15.163,2.679 15.439,4.072 17.756 C 5.026 19.343,5.663 20.364,5.733 20.416 L 5.846 20.500 12.000 20.500 L 18.154 20.500 18.267 20.416 C 18.337 20.364,18.978 19.336,19.939 17.736 C 21.201 15.635,21.498 15.113,21.498 15.000 C 21.498 14.886,20.935 13.922,18.439 9.764 C 16.743 6.940,15.335 4.636,15.280 4.595 C 15.185 4.525,15.014 4.521,12.044 4.511 C 9.808 4.503,8.879 4.513,8.804 4.545 M17.400 9.961 C 18.863 12.403,20.066 14.418,20.073 14.440 C 20.082 14.466,19.260 14.480,17.673 14.479 L 15.260 14.478 12.600 10.033 C 11.137 7.588,9.934 5.572,9.927 5.554 C 9.919 5.535,10.999 5.521,12.327 5.521 L 14.740 5.523 17.400 9.961 M10.214 7.999 C 10.871 9.097,11.402 10.012,11.394 10.032 C 11.362 10.116,6.018 19.000,6.000 19.000 C 5.961 19.000,3.620 15.065,3.620 15.000 C 3.620 14.934,8.962 5.999,9.000 6.001 C 9.011 6.002,9.557 6.901,10.214 7.999 M13.050 12.717 C 13.617 13.661,14.080 14.453,14.080 14.477 C 14.080 14.507,13.469 14.520,12.000 14.520 C 10.531 14.520,9.920 14.507,9.920 14.477 C 9.920 14.426,11.970 11.000,12.000 11.000 C 12.011 11.000,12.484 11.772,13.050 12.717 M20.080 15.543 C 20.080 15.556,19.546 16.456,18.894 17.543 L 17.708 19.520 12.311 19.520 C 7.515 19.520,6.916 19.513,6.927 19.460 C 6.934 19.426,7.462 18.527,8.100 17.461 L 9.260 15.523 14.670 15.521 C 17.646 15.521,20.080 15.530,20.080 15.543 " stroke="none" fill="black" fill-rule="evenodd"></path></svg>