<svg xmlns="http://www.w3.org/2000/svg" class="icon icon-tabler icon-tabler-briefcase" width="24" height="24" viewBox="0 0 24 24" stroke-width="1" stroke="currentColor" fill="none" stroke-linecap="round" stroke-linejoin="round"><path d="M9.274 2.614 C 8.870 2.735,8.561 2.923,8.242 3.242 C 7.918 3.566,7.735 3.870,7.609 4.294 C 7.522 4.586,7.510 4.719,7.490 5.570 L 7.469 6.520 6.039 6.520 C 4.661 6.520,4.597 6.523,4.288 6.613 C 3.872 6.733,3.566 6.917,3.242 7.242 C 2.922 7.561,2.739 7.864,2.603 8.294 L 2.500 8.620 2.500 13.480 C 2.500 18.038,2.504 18.356,2.572 18.593 C 2.838 19.528,3.447 20.146,4.380 20.425 C 4.606 20.493,5.025 20.498,11.700 20.510 C 16.315 20.519,18.922 20.509,19.189 20.482 C 20.305 20.371,21.121 19.684,21.427 18.600 C 21.496 18.355,21.500 18.070,21.500 13.500 C 21.500 8.930,21.496 8.645,21.427 8.400 C 21.196 7.582,20.666 6.982,19.900 6.670 L 19.580 6.540 18.056 6.528 L 16.531 6.516 16.508 5.568 C 16.483 4.543,16.451 4.343,16.238 3.900 C 15.978 3.358,15.491 2.911,14.900 2.670 L 14.580 2.540 12.080 2.531 C 9.580 2.523,9.580 2.523,9.274 2.614 M14.641 3.649 C 14.924 3.787,15.213 4.076,15.351 4.359 C 15.459 4.578,15.460 4.587,15.473 5.550 L 15.485 6.520 12.003 6.520 L 8.520 6.520 8.520 5.600 C 8.520 4.790,8.529 4.657,8.597 4.478 C 8.743 4.093,9.083 3.750,9.468 3.598 C 9.650 3.527,9.790 3.523,12.040 3.531 L 14.420 3.540 14.641 3.649 M19.641 7.649 C 19.924 7.787,20.213 8.076,20.351 8.359 L 20.460 8.580 20.471 10.645 L 20.483 12.709 19.831 12.991 C 17.805 13.867,15.915 14.353,13.700 14.567 C 13.027 14.632,10.965 14.633,10.320 14.568 C 7.991 14.334,6.143 13.853,4.030 12.932 L 3.520 12.710 3.520 10.695 C 3.520 8.804,3.525 8.668,3.597 8.478 C 3.743 8.093,4.084 7.749,4.468 7.599 C 4.654 7.526,4.900 7.524,12.040 7.532 L 19.420 7.540 19.641 7.649 M11.656 11.656 C 11.537 11.775,11.520 11.818,11.520 11.993 C 11.520 12.150,11.542 12.220,11.621 12.314 C 11.758 12.477,11.957 12.540,12.139 12.480 C 12.357 12.408,12.480 12.233,12.480 11.993 C 12.480 11.818,12.463 11.775,12.344 11.656 C 12.224 11.536,12.183 11.520,12.000 11.520 C 11.817 11.520,11.776 11.536,11.656 11.656 M4.620 14.259 C 6.379 14.943,8.267 15.381,10.260 15.567 C 10.970 15.633,13.050 15.633,13.740 15.567 C 16.036 15.347,18.162 14.811,20.128 13.959 L 20.482 13.805 20.471 16.112 C 20.458 18.755,20.480 18.593,20.077 19.020 C 19.825 19.286,19.553 19.425,19.180 19.478 C 18.798 19.533,5.202 19.533,4.820 19.478 C 4.666 19.456,4.449 19.394,4.339 19.341 C 4.075 19.212,3.784 18.918,3.649 18.641 L 3.540 18.420 3.529 16.111 L 3.518 13.802 3.849 13.945 C 4.031 14.024,4.378 14.165,4.620 14.259 " stroke="none" fill="black" fill-rule="evenodd"></path></svg>