<svg xmlns="http://www.w3.org/2000/svg" class="icon icon-tabler icon-tabler-brightness-down" width="24" height="24" viewBox="0 0 24 24" stroke-width="1" stroke="currentColor" fill="none" stroke-linecap="round" stroke-linejoin="round"><path d="M11.656 4.656 C 11.537 4.775,11.520 4.818,11.520 4.993 C 11.520 5.477,12.069 5.682,12.379 5.314 C 12.458 5.220,12.480 5.150,12.480 4.993 C 12.480 4.818,12.463 4.775,12.344 4.656 C 12.224 4.536,12.183 4.520,12.000 4.520 C 11.817 4.520,11.776 4.536,11.656 4.656 M6.656 6.656 C 6.537 6.775,6.520 6.818,6.520 6.993 C 6.520 7.477,7.069 7.682,7.379 7.314 C 7.458 7.220,7.480 7.150,7.480 6.993 C 7.480 6.818,7.463 6.775,7.344 6.656 C 7.224 6.536,7.183 6.520,7.000 6.520 C 6.817 6.520,6.776 6.536,6.656 6.656 M16.656 6.656 C 16.537 6.775,16.520 6.818,16.520 6.993 C 16.520 7.477,17.069 7.682,17.379 7.314 C 17.458 7.220,17.480 7.150,17.480 6.993 C 17.480 6.818,17.463 6.775,17.344 6.656 C 17.224 6.536,17.183 6.520,17.000 6.520 C 16.817 6.520,16.776 6.536,16.656 6.656 M11.259 8.576 C 10.065 8.848,9.079 9.739,8.676 10.910 C 8.543 11.294,8.541 11.310,8.541 12.000 C 8.541 12.687,8.543 12.707,8.672 13.080 C 8.863 13.634,9.117 14.037,9.540 14.460 C 9.963 14.883,10.366 15.137,10.920 15.328 C 11.293 15.457,11.313 15.459,12.000 15.459 C 12.688 15.459,12.706 15.457,13.079 15.327 C 13.288 15.255,13.558 15.139,13.679 15.071 C 14.449 14.635,15.035 13.930,15.324 13.090 C 15.457 12.705,15.459 12.690,15.459 12.000 C 15.459 11.310,15.457 11.295,15.324 10.910 C 15.035 10.070,14.449 9.365,13.679 8.929 C 13.558 8.861,13.288 8.747,13.079 8.676 C 12.730 8.557,12.653 8.546,12.100 8.534 C 11.694 8.526,11.422 8.539,11.259 8.576 M12.834 9.640 C 13.142 9.749,13.615 10.059,13.818 10.283 C 14.048 10.538,14.266 10.898,14.368 11.192 C 14.446 11.421,14.460 11.540,14.460 12.000 C 14.460 12.460,14.446 12.579,14.368 12.808 C 14.190 13.320,13.844 13.765,13.378 14.076 C 12.916 14.385,12.647 14.460,12.000 14.460 C 11.540 14.460,11.421 14.446,11.192 14.368 C 10.898 14.266,10.538 14.048,10.283 13.818 C 10.058 13.615,9.749 13.141,9.640 12.834 C 9.516 12.481,9.484 11.763,9.577 11.399 C 9.803 10.515,10.484 9.821,11.360 9.581 C 11.694 9.489,12.500 9.522,12.834 9.640 M4.656 11.656 C 4.537 11.775,4.520 11.818,4.520 11.993 C 4.520 12.150,4.542 12.220,4.621 12.314 C 4.758 12.477,4.957 12.540,5.139 12.480 C 5.357 12.408,5.480 12.233,5.480 11.993 C 5.480 11.818,5.463 11.775,5.344 11.656 C 5.224 11.536,5.183 11.520,5.000 11.520 C 4.817 11.520,4.776 11.536,4.656 11.656 M18.656 11.656 C 18.537 11.775,18.520 11.818,18.520 11.993 C 18.520 12.233,18.643 12.408,18.861 12.480 C 19.043 12.540,19.242 12.477,19.379 12.314 C 19.458 12.220,19.480 12.150,19.480 11.993 C 19.480 11.818,19.463 11.775,19.344 11.656 C 19.224 11.536,19.183 11.520,19.000 11.520 C 18.817 11.520,18.776 11.536,18.656 11.656 M6.656 16.656 C 6.537 16.775,6.520 16.818,6.520 16.993 C 6.520 17.233,6.643 17.408,6.861 17.480 C 7.043 17.540,7.242 17.477,7.379 17.314 C 7.458 17.220,7.480 17.150,7.480 16.993 C 7.480 16.818,7.463 16.775,7.344 16.656 C 7.224 16.536,7.183 16.520,7.000 16.520 C 6.817 16.520,6.776 16.536,6.656 16.656 M16.656 16.656 C 16.537 16.775,16.520 16.818,16.520 16.993 C 16.520 17.233,16.643 17.408,16.861 17.480 C 17.043 17.540,17.242 17.477,17.379 17.314 C 17.458 17.220,17.480 17.150,17.480 16.993 C 17.480 16.818,17.463 16.775,17.344 16.656 C 17.224 16.536,17.183 16.520,17.000 16.520 C 16.817 16.520,16.776 16.536,16.656 16.656 M11.656 18.656 C 11.537 18.775,11.520 18.818,11.520 18.993 C 11.520 19.150,11.542 19.220,11.621 19.314 C 11.758 19.477,11.957 19.540,12.139 19.480 C 12.357 19.408,12.480 19.233,12.480 18.993 C 12.480 18.818,12.463 18.775,12.344 18.656 C 12.224 18.536,12.183 18.520,12.000 18.520 C 11.817 18.520,11.776 18.536,11.656 18.656 " stroke="none" fill="black" fill-rule="evenodd"></path></svg>