<svg xmlns="http://www.w3.org/2000/svg" class="icon icon-tabler icon-tabler-brightness" width="24" height="24" viewBox="0 0 24 24" stroke-width="1" stroke="currentColor" fill="none" stroke-linecap="round" stroke-linejoin="round"><path d="M11.660 2.507 C 8.497 2.652,5.751 4.217,4.011 6.866 C 3.405 7.789,2.893 9.056,2.679 10.160 C 2.468 11.247,2.468 12.755,2.679 13.840 C 3.229 16.674,5.124 19.161,7.740 20.482 C 9.503 21.373,11.558 21.691,13.520 21.378 C 16.524 20.899,19.167 18.937,20.519 16.180 C 21.189 14.815,21.480 13.549,21.480 12.000 C 21.480 10.487,21.202 9.243,20.562 7.900 C 20.094 6.916,19.521 6.113,18.704 5.296 C 17.337 3.929,15.725 3.060,13.860 2.685 C 13.247 2.561,12.245 2.481,11.660 2.507 M11.480 12.005 L 11.480 20.489 11.210 20.462 C 7.683 20.109,4.762 17.668,3.814 14.280 C 3.615 13.569,3.552 13.105,3.531 12.200 C 3.516 11.534,3.527 11.234,3.577 10.868 C 4.015 7.728,6.109 5.122,9.080 4.021 C 9.716 3.785,10.839 3.537,11.330 3.524 L 11.480 3.520 11.480 12.005 M13.160 3.581 C 13.673 3.653,14.429 3.838,14.874 4.000 C 15.273 4.146,15.840 4.401,15.840 4.436 C 15.840 4.449,15.093 5.207,14.180 6.120 L 12.520 7.780 12.520 5.650 L 12.520 3.520 12.630 3.521 C 12.691 3.521,12.929 3.548,13.160 3.581 M17.076 5.187 C 17.243 5.311,17.523 5.541,17.697 5.697 C 18.041 6.004,18.720 6.748,18.720 6.817 C 18.720 6.841,17.325 8.255,15.620 9.960 L 12.520 13.060 12.520 11.120 L 12.520 9.180 14.630 7.070 C 15.790 5.910,16.747 4.960,16.756 4.960 C 16.765 4.960,16.909 5.062,17.076 5.187 M19.572 8.150 C 19.692 8.386,19.865 8.779,19.956 9.022 C 20.112 9.440,20.360 10.330,20.360 10.474 C 20.360 10.511,18.596 12.304,16.440 14.460 L 12.520 18.380 12.520 16.440 L 12.520 14.500 15.910 11.110 C 17.774 9.246,19.312 7.720,19.326 7.720 C 19.341 7.720,19.452 7.913,19.572 8.150 M20.441 12.960 C 20.332 13.908,20.037 14.906,19.615 15.760 C 18.310 18.402,15.744 20.171,12.790 20.463 L 12.520 20.489 12.520 20.135 L 12.520 19.780 16.490 15.810 L 20.460 11.839 20.472 12.210 C 20.479 12.413,20.465 12.751,20.441 12.960 " stroke="none" fill="black" fill-rule="evenodd"></path></svg>