<svg xmlns="http://www.w3.org/2000/svg" class="icon icon-tabler icon-tabler-brightness-up" width="24" height="24" viewBox="0 0 24 24" stroke-width="1" stroke="currentColor" fill="none" stroke-linecap="round" stroke-linejoin="round"><path d="M11.679 2.630 C 11.605 2.696,11.541 2.804,11.519 2.900 C 11.471 3.108,11.471 4.892,11.519 5.100 C 11.574 5.341,11.751 5.480,12.000 5.480 C 12.249 5.480,12.426 5.341,12.481 5.100 C 12.529 4.892,12.529 3.108,12.481 2.900 C 12.426 2.659,12.249 2.520,12.000 2.520 C 11.840 2.520,11.778 2.541,11.679 2.630 M5.256 5.256 C 5.135 5.377,5.120 5.416,5.120 5.605 L 5.120 5.818 5.951 6.649 L 6.782 7.480 6.995 7.480 C 7.184 7.480,7.223 7.465,7.344 7.344 C 7.465 7.223,7.480 7.184,7.480 6.995 L 7.480 6.782 6.649 5.951 L 5.818 5.120 5.605 5.120 C 5.416 5.120,5.377 5.135,5.256 5.256 M17.351 5.951 L 16.520 6.782 16.520 6.995 C 16.520 7.184,16.535 7.223,16.656 7.344 C 16.777 7.465,16.816 7.480,17.005 7.480 L 17.218 7.480 18.049 6.649 L 18.880 5.818 18.880 5.605 C 18.880 5.416,18.865 5.377,18.744 5.256 C 18.623 5.135,18.584 5.120,18.395 5.120 L 18.182 5.120 17.351 5.951 M11.259 8.576 C 10.065 8.848,9.079 9.739,8.676 10.910 C 8.543 11.294,8.541 11.310,8.541 12.000 C 8.541 12.687,8.543 12.707,8.672 13.080 C 8.863 13.634,9.117 14.037,9.540 14.460 C 9.963 14.883,10.366 15.137,10.920 15.328 C 11.293 15.457,11.313 15.459,12.000 15.459 C 12.688 15.459,12.706 15.457,13.079 15.327 C 13.288 15.255,13.558 15.139,13.679 15.071 C 14.449 14.635,15.035 13.930,15.324 13.090 C 15.457 12.705,15.459 12.690,15.459 12.000 C 15.459 11.310,15.457 11.295,15.324 10.910 C 15.035 10.070,14.449 9.365,13.679 8.929 C 13.558 8.861,13.288 8.747,13.079 8.676 C 12.730 8.557,12.653 8.546,12.100 8.534 C 11.694 8.526,11.422 8.539,11.259 8.576 M12.834 9.640 C 13.142 9.749,13.615 10.059,13.818 10.283 C 14.048 10.538,14.266 10.898,14.368 11.192 C 14.446 11.421,14.460 11.540,14.460 12.000 C 14.460 12.460,14.446 12.579,14.368 12.808 C 14.190 13.320,13.844 13.765,13.378 14.076 C 12.916 14.385,12.647 14.460,12.000 14.460 C 11.540 14.460,11.421 14.446,11.192 14.368 C 10.898 14.266,10.538 14.048,10.283 13.818 C 10.058 13.615,9.749 13.141,9.640 12.834 C 9.516 12.481,9.484 11.763,9.577 11.399 C 9.803 10.515,10.484 9.821,11.360 9.581 C 11.694 9.489,12.500 9.522,12.834 9.640 M3.656 11.656 C 3.537 11.775,3.520 11.817,3.520 11.995 C 3.520 12.250,3.657 12.425,3.900 12.481 C 3.988 12.501,4.483 12.518,5.000 12.518 C 5.517 12.518,6.012 12.501,6.100 12.481 C 6.343 12.425,6.480 12.250,6.480 11.995 C 6.480 11.817,6.463 11.775,6.344 11.656 L 6.208 11.520 5.000 11.520 L 3.792 11.520 3.656 11.656 M18.656 11.656 C 18.537 11.775,18.520 11.817,18.520 11.995 C 18.520 12.250,18.657 12.425,18.900 12.481 C 18.988 12.501,19.483 12.518,20.000 12.518 C 20.517 12.518,21.012 12.501,21.100 12.481 C 21.343 12.425,21.480 12.250,21.480 11.995 C 21.480 11.817,21.463 11.775,21.344 11.656 L 21.208 11.520 20.000 11.520 L 18.792 11.520 18.656 11.656 M5.951 17.351 L 5.120 18.182 5.120 18.395 C 5.120 18.584,5.135 18.623,5.256 18.744 C 5.377 18.865,5.416 18.880,5.605 18.880 L 5.818 18.880 6.649 18.049 L 7.480 17.218 7.480 17.005 C 7.480 16.816,7.465 16.777,7.344 16.656 C 7.223 16.535,7.184 16.520,6.995 16.520 L 6.782 16.520 5.951 17.351 M16.656 16.656 C 16.535 16.777,16.520 16.816,16.520 17.005 L 16.520 17.218 17.351 18.049 L 18.182 18.880 18.395 18.880 C 18.584 18.880,18.623 18.865,18.744 18.744 C 18.865 18.623,18.880 18.584,18.880 18.395 L 18.880 18.182 18.049 17.351 L 17.218 16.520 17.005 16.520 C 16.816 16.520,16.777 16.535,16.656 16.656 M11.679 18.630 C 11.605 18.696,11.541 18.804,11.519 18.900 C 11.471 19.108,11.471 20.892,11.519 21.100 C 11.574 21.341,11.751 21.480,12.000 21.480 C 12.249 21.480,12.426 21.341,12.481 21.100 C 12.529 20.892,12.529 19.108,12.481 18.900 C 12.426 18.659,12.249 18.520,12.000 18.520 C 11.840 18.520,11.778 18.541,11.679 18.630 " stroke="none" fill="black" fill-rule="evenodd"></path></svg>