<svg xmlns="http://www.w3.org/2000/svg" class="icon icon-tabler icon-tabler-browser" width="24" height="24" viewBox="0 0 24 24" stroke-width="1" stroke="currentColor" fill="none" stroke-linecap="round" stroke-linejoin="round"><path d="M6.240 3.520 L 4.580 3.540 4.359 3.649 C 4.083 3.784,3.788 4.075,3.659 4.339 C 3.603 4.453,3.542 4.679,3.519 4.860 C 3.490 5.076,3.480 7.458,3.488 12.220 C 3.499 18.801,3.505 19.273,3.570 19.465 C 3.717 19.896,4.127 20.298,4.556 20.431 C 4.765 20.495,5.260 20.500,12.000 20.500 C 18.740 20.500,19.235 20.495,19.444 20.431 C 19.885 20.294,20.294 19.885,20.431 19.444 C 20.495 19.235,20.500 18.740,20.500 12.000 C 20.500 5.260,20.495 4.765,20.431 4.556 C 20.296 4.121,19.879 3.699,19.464 3.580 C 19.289 3.530,18.440 3.520,13.580 3.511 C 10.456 3.505,7.153 3.509,6.240 3.520 M7.480 6.020 L 7.480 7.520 6.000 7.520 L 4.520 7.520 4.520 6.156 L 4.520 4.792 4.656 4.656 L 4.792 4.520 6.136 4.520 L 7.480 4.520 7.480 6.020 M19.344 4.656 L 19.480 4.792 19.480 6.156 L 19.480 7.520 14.000 7.520 L 8.520 7.520 8.520 6.020 L 8.520 4.520 13.864 4.520 L 19.208 4.520 19.344 4.656 M19.480 13.859 L 19.480 19.199 19.370 19.321 C 19.304 19.395,19.196 19.459,19.100 19.481 C 18.886 19.530,5.114 19.530,4.900 19.481 C 4.804 19.459,4.696 19.395,4.630 19.321 L 4.520 19.199 4.520 13.859 L 4.520 8.520 12.000 8.520 L 19.480 8.520 19.480 13.859 " stroke="none" fill="black" fill-rule="evenodd"></path></svg>