<svg xmlns="http://www.w3.org/2000/svg" class="icon icon-tabler icon-tabler-brush" width="24" height="24" viewBox="0 0 24 24" stroke-width="1" stroke="currentColor" fill="none" stroke-linecap="round" stroke-linejoin="round"><path d="M20.411 2.582 C 17.518 3.104,15.078 4.212,12.749 6.061 C 12.131 6.551,10.826 7.865,10.304 8.520 C 9.380 9.682,8.494 11.162,8.000 12.368 C 7.910 12.589,7.904 12.595,7.784 12.568 C 7.716 12.552,7.336 12.541,6.940 12.543 C 6.338 12.546,6.170 12.560,5.913 12.631 C 4.252 13.087,3.055 14.286,2.636 15.912 C 2.510 16.404,2.475 17.170,2.488 19.222 C 2.499 20.978,2.506 21.153,2.571 21.251 C 2.738 21.507,2.666 21.499,4.778 21.512 C 6.829 21.525,7.596 21.490,8.087 21.364 C 9.712 20.945,10.913 19.746,11.369 18.087 C 11.440 17.830,11.454 17.662,11.457 17.060 C 11.459 16.664,11.448 16.284,11.432 16.216 C 11.405 16.096,11.411 16.090,11.632 16.001 C 12.009 15.850,13.152 15.269,13.600 15.001 C 14.799 14.284,15.751 13.536,16.801 12.483 C 18.151 11.130,19.036 9.909,19.878 8.240 C 20.633 6.744,21.121 5.258,21.419 3.546 C 21.520 2.967,21.520 2.947,21.451 2.808 C 21.366 2.638,21.224 2.527,21.060 2.504 C 20.994 2.494,20.702 2.530,20.411 2.582 M20.381 3.690 C 20.370 3.740,20.323 3.960,20.276 4.180 C 19.792 6.480,18.669 8.774,17.056 10.752 C 16.726 11.157,15.510 12.400,15.298 12.548 L 15.176 12.634 14.967 12.278 C 14.240 11.034,13.051 9.841,11.741 9.042 L 11.357 8.809 11.733 8.394 C 13.483 6.460,15.815 4.958,18.372 4.117 C 18.790 3.980,19.923 3.683,20.240 3.628 C 20.295 3.619,20.354 3.608,20.371 3.605 C 20.388 3.602,20.392 3.641,20.381 3.690 M11.204 9.890 C 11.433 10.028,11.773 10.256,11.960 10.397 C 12.397 10.726,13.274 11.603,13.603 12.040 C 13.882 12.409,14.360 13.181,14.360 13.261 C 14.360 13.329,13.343 14.004,12.700 14.363 C 12.218 14.632,11.206 15.121,11.132 15.120 C 11.114 15.119,11.021 14.980,10.924 14.810 C 10.496 14.057,9.833 13.404,9.107 13.020 C 8.982 12.954,8.880 12.886,8.880 12.869 C 8.880 12.792,9.341 11.832,9.620 11.331 C 9.983 10.676,10.669 9.640,10.739 9.640 C 10.766 9.640,10.976 9.753,11.204 9.890 M8.110 13.690 C 8.643 13.875,9.063 14.137,9.463 14.537 C 9.860 14.935,10.123 15.353,10.313 15.890 L 10.458 16.300 10.458 17.000 C 10.459 17.688,10.457 17.706,10.328 18.080 C 10.137 18.634,9.883 19.037,9.460 19.460 C 8.835 20.085,8.158 20.401,7.276 20.479 C 7.025 20.501,6.078 20.519,5.170 20.520 L 3.520 20.520 3.520 18.547 C 3.520 17.301,3.536 16.488,3.563 16.340 C 3.773 15.206,4.658 14.147,5.740 13.738 C 6.226 13.554,6.449 13.521,7.100 13.535 C 7.666 13.547,7.723 13.556,8.110 13.690 " stroke="none" fill="black" fill-rule="evenodd"></path></svg>