<svg xmlns="http://www.w3.org/2000/svg" class="icon icon-tabler icon-tabler-bucket" width="24" height="24" viewBox="0 0 24 24" stroke-width="1" stroke="currentColor" fill="none" stroke-linecap="round" stroke-linejoin="round"><path d="M11.044 3.584 C 10.584 3.661,9.953 3.879,9.471 4.126 C 8.191 4.784,7.249 5.891,6.782 7.285 C 6.673 7.613,6.521 8.309,6.520 8.490 C 6.520 8.506,6.131 8.520,5.656 8.520 L 4.792 8.520 4.656 8.656 C 4.543 8.769,4.520 8.821,4.520 8.967 C 4.520 9.064,4.996 11.281,5.577 13.895 C 6.547 18.256,6.646 18.674,6.791 18.974 C 7.158 19.733,7.678 20.197,8.422 20.427 C 8.645 20.495,8.872 20.500,11.980 20.500 C 15.584 20.500,15.505 20.504,15.980 20.275 C 16.503 20.022,16.912 19.589,17.209 18.974 C 17.354 18.674,17.453 18.256,18.423 13.895 C 19.004 11.281,19.480 9.064,19.480 8.967 C 19.480 8.821,19.457 8.769,19.344 8.656 L 19.208 8.520 18.344 8.520 C 17.869 8.520,17.480 8.506,17.480 8.490 C 17.479 8.310,17.327 7.613,17.218 7.286 C 16.565 5.333,14.903 3.904,12.910 3.580 C 12.450 3.506,11.501 3.508,11.044 3.584 M13.088 4.632 C 14.320 4.965,15.288 5.702,15.908 6.780 C 16.176 7.246,16.408 7.920,16.446 8.340 L 16.460 8.500 12.022 8.510 C 9.581 8.516,7.571 8.507,7.555 8.490 C 7.538 8.474,7.551 8.325,7.582 8.161 C 7.927 6.359,9.322 4.957,11.145 4.580 C 11.564 4.493,12.685 4.524,13.088 4.632 M18.360 9.550 C 18.360 9.566,17.927 11.533,17.398 13.920 C 16.514 17.908,16.424 18.286,16.279 18.585 C 16.161 18.828,16.060 18.967,15.882 19.132 C 15.459 19.523,15.702 19.500,12.000 19.500 C 8.298 19.500,8.541 19.523,8.118 19.132 C 7.940 18.967,7.839 18.828,7.721 18.585 C 7.576 18.286,7.486 17.908,6.602 13.920 C 6.073 11.533,5.640 9.566,5.640 9.550 C 5.640 9.534,8.502 9.520,12.000 9.520 C 15.498 9.520,18.360 9.534,18.360 9.550 " stroke="none" fill="black" fill-rule="evenodd"></path></svg>