<svg xmlns="http://www.w3.org/2000/svg" class="icon icon-tabler icon-tabler-bug" width="24" height="24" viewBox="0 0 24 24" stroke-width="1" stroke="currentColor" fill="none" stroke-linecap="round" stroke-linejoin="round"><path d="M11.259 4.576 C 10.064 4.848,9.065 5.752,8.682 6.906 C 8.576 7.225,8.546 7.400,8.509 7.906 L 8.465 8.520 8.138 8.520 C 7.866 8.520,7.793 8.534,7.704 8.604 C 7.646 8.650,7.576 8.679,7.549 8.668 C 7.522 8.656,6.753 8.169,5.840 7.584 C 4.256 6.570,4.171 6.521,3.986 6.521 C 3.818 6.520,3.774 6.538,3.656 6.656 C 3.537 6.775,3.520 6.817,3.520 6.995 C 3.520 7.162,3.540 7.220,3.630 7.316 C 3.691 7.380,4.469 7.896,5.360 8.463 C 6.251 9.029,7.004 9.515,7.034 9.542 C 7.079 9.583,7.065 9.651,6.948 9.945 C 6.682 10.621,6.545 11.267,6.496 12.070 L 6.469 12.520 4.630 12.520 L 2.792 12.520 2.656 12.656 C 2.537 12.775,2.520 12.817,2.520 12.995 C 2.520 13.250,2.657 13.425,2.900 13.481 C 2.988 13.501,3.827 13.519,4.764 13.519 L 6.467 13.520 6.492 14.530 C 6.518 15.561,6.574 16.060,6.714 16.510 L 6.790 16.754 5.234 17.682 C 4.378 18.192,3.643 18.655,3.599 18.710 C 3.544 18.780,3.520 18.872,3.520 19.009 C 3.520 19.182,3.538 19.226,3.656 19.344 C 3.772 19.460,3.819 19.480,3.982 19.480 C 4.157 19.480,4.278 19.417,5.596 18.633 C 6.379 18.167,7.058 17.762,7.105 17.732 C 7.185 17.681,7.199 17.693,7.348 17.929 C 8.022 18.998,9.061 19.808,10.286 20.218 C 12.649 21.009,15.316 20.050,16.651 17.930 C 16.738 17.793,16.820 17.687,16.834 17.695 C 16.848 17.703,17.528 18.107,18.344 18.594 C 19.721 19.417,19.841 19.480,20.018 19.480 C 20.181 19.480,20.227 19.461,20.344 19.344 C 20.462 19.226,20.480 19.182,20.480 19.009 C 20.480 18.870,20.456 18.780,20.398 18.707 C 20.354 18.650,19.782 18.285,19.128 17.896 C 18.475 17.507,17.776 17.089,17.576 16.967 L 17.213 16.746 17.287 16.507 C 17.426 16.060,17.482 15.558,17.508 14.530 L 17.533 13.520 19.236 13.519 C 20.173 13.519,21.012 13.501,21.100 13.481 C 21.343 13.425,21.480 13.250,21.480 12.995 C 21.480 12.817,21.463 12.775,21.344 12.656 L 21.208 12.520 19.370 12.520 L 17.531 12.520 17.504 12.070 C 17.456 11.285,17.311 10.600,17.054 9.951 C 16.976 9.753,16.927 9.577,16.946 9.559 C 16.965 9.541,17.718 9.056,18.620 8.480 C 19.522 7.905,20.309 7.382,20.370 7.317 C 20.460 7.220,20.480 7.162,20.480 6.995 C 20.480 6.817,20.463 6.775,20.344 6.656 C 20.227 6.539,20.182 6.520,20.014 6.520 C 19.829 6.521,19.746 6.568,18.160 7.585 C 17.247 8.171,16.478 8.658,16.451 8.669 C 16.424 8.679,16.354 8.650,16.296 8.604 C 16.207 8.534,16.134 8.520,15.862 8.520 L 15.535 8.520 15.491 7.906 C 15.437 7.167,15.301 6.701,14.993 6.200 C 14.536 5.458,13.908 4.958,13.079 4.676 C 12.730 4.557,12.653 4.546,12.100 4.534 C 11.694 4.526,11.422 4.539,11.259 4.576 M12.834 5.640 C 13.142 5.749,13.615 6.059,13.818 6.283 C 14.041 6.530,14.263 6.892,14.362 7.171 C 14.431 7.366,14.455 7.539,14.470 7.970 L 14.489 8.520 12.005 8.520 L 9.520 8.520 9.520 8.068 C 9.520 7.393,9.648 6.983,10.013 6.492 C 10.325 6.071,10.838 5.724,11.360 5.581 C 11.694 5.489,12.500 5.522,12.834 5.640 M15.932 9.891 C 16.160 10.349,16.329 10.862,16.418 11.360 C 16.476 11.691,16.483 12.000,16.471 13.760 C 16.458 15.684,16.453 15.795,16.371 16.087 C 16.025 17.320,15.323 18.251,14.258 18.891 C 13.847 19.138,13.223 19.357,12.650 19.456 L 12.520 19.478 12.519 16.769 C 12.519 15.260,12.502 13.989,12.481 13.900 C 12.426 13.659,12.249 13.520,12.000 13.520 C 11.751 13.520,11.574 13.659,11.519 13.900 C 11.498 13.989,11.481 15.260,11.481 16.769 L 11.480 19.478 11.350 19.456 C 9.731 19.177,8.417 18.147,7.840 16.706 C 7.540 15.957,7.544 16.000,7.529 13.760 C 7.517 12.000,7.524 11.691,7.582 11.360 C 7.671 10.862,7.840 10.349,8.068 9.891 L 8.252 9.520 12.000 9.520 L 15.748 9.520 15.932 9.891 " stroke="none" fill="black" fill-rule="evenodd"></path></svg>