<svg xmlns="http://www.w3.org/2000/svg" class="icon icon-tabler icon-tabler-building-bank" width="24" height="24" viewBox="0 0 24 24" stroke-width="1" stroke="currentColor" fill="none" stroke-linecap="round" stroke-linejoin="round"><path d="M8.280 4.044 C 5.506 5.233,4.716 5.588,4.630 5.682 C 4.540 5.779,4.520 5.838,4.520 6.005 C 4.520 6.183,4.537 6.225,4.656 6.344 C 4.907 6.595,4.764 6.644,8.570 5.014 L 12.000 3.546 15.430 5.014 C 19.236 6.644,19.093 6.595,19.344 6.344 C 19.463 6.225,19.480 6.183,19.480 6.005 C 19.480 5.838,19.460 5.779,19.370 5.682 C 19.207 5.505,12.229 2.519,11.987 2.523 C 11.860 2.525,10.975 2.888,8.280 4.044 M3.327 9.520 L 2.753 9.540 2.637 9.671 C 2.541 9.778,2.520 9.837,2.520 10.000 C 2.520 10.353,2.756 10.517,3.270 10.519 L 3.480 10.520 3.480 15.520 L 3.480 20.520 3.136 20.520 C 2.798 20.520,2.790 20.522,2.656 20.656 C 2.537 20.775,2.520 20.817,2.520 20.995 C 2.520 21.250,2.657 21.425,2.900 21.481 C 3.114 21.531,20.886 21.531,21.100 21.481 C 21.343 21.425,21.480 21.250,21.480 20.995 C 21.480 20.817,21.463 20.775,21.344 20.656 C 21.210 20.522,21.202 20.520,20.864 20.520 L 20.520 20.520 20.520 15.520 L 20.520 10.520 20.730 10.519 C 21.247 10.517,21.480 10.354,21.480 9.995 C 21.480 9.817,21.463 9.775,21.344 9.656 L 21.208 9.520 20.674 9.520 C 20.380 9.519,16.486 9.515,12.020 9.510 C 7.554 9.504,3.642 9.509,3.327 9.520 M19.480 15.520 L 19.480 20.520 12.000 20.520 L 4.520 20.520 4.520 15.520 L 4.520 10.520 12.000 10.520 L 19.480 10.520 19.480 15.520 M7.679 13.630 C 7.605 13.696,7.541 13.804,7.519 13.900 C 7.471 14.108,7.471 16.892,7.519 17.100 C 7.574 17.341,7.751 17.480,8.000 17.480 C 8.249 17.480,8.426 17.341,8.481 17.100 C 8.529 16.892,8.529 14.108,8.481 13.900 C 8.426 13.659,8.249 13.520,8.000 13.520 C 7.840 13.520,7.778 13.541,7.679 13.630 M11.679 13.630 C 11.605 13.696,11.541 13.804,11.519 13.900 C 11.471 14.108,11.471 16.892,11.519 17.100 C 11.574 17.341,11.751 17.480,12.000 17.480 C 12.249 17.480,12.426 17.341,12.481 17.100 C 12.529 16.892,12.529 14.108,12.481 13.900 C 12.426 13.659,12.249 13.520,12.000 13.520 C 11.840 13.520,11.778 13.541,11.679 13.630 M15.679 13.630 C 15.605 13.696,15.541 13.804,15.519 13.900 C 15.471 14.108,15.471 16.892,15.519 17.100 C 15.574 17.341,15.751 17.480,16.000 17.480 C 16.249 17.480,16.426 17.341,16.481 17.100 C 16.529 16.892,16.529 14.108,16.481 13.900 C 16.426 13.659,16.249 13.520,16.000 13.520 C 15.840 13.520,15.778 13.541,15.679 13.630 " stroke="none" fill="black" fill-rule="evenodd"></path></svg>