<svg xmlns="http://www.w3.org/2000/svg" class="icon icon-tabler icon-tabler-building" width="24" height="24" viewBox="0 0 24 24" stroke-width="1" stroke="currentColor" fill="none" stroke-linecap="round" stroke-linejoin="round"><path d="M6.274 2.615 C 5.870 2.735,5.561 2.922,5.242 3.242 C 4.922 3.561,4.739 3.864,4.603 4.294 L 4.500 4.620 4.489 12.570 L 4.478 20.520 3.635 20.520 L 2.792 20.520 2.656 20.656 C 2.537 20.775,2.520 20.817,2.520 20.995 C 2.520 21.250,2.657 21.425,2.900 21.481 C 3.114 21.531,20.886 21.531,21.100 21.481 C 21.343 21.425,21.480 21.250,21.480 20.995 C 21.480 20.817,21.463 20.775,21.344 20.656 L 21.208 20.520 20.365 20.520 L 19.522 20.520 19.510 12.570 C 19.498 5.051,19.493 4.607,19.425 4.380 C 19.181 3.565,18.657 2.978,17.900 2.670 L 17.580 2.540 12.080 2.532 L 6.580 2.524 6.274 2.615 M17.641 3.649 C 17.924 3.787,18.213 4.076,18.351 4.359 L 18.460 4.580 18.470 12.550 L 18.481 20.520 12.000 20.520 L 5.520 20.520 5.520 12.600 C 5.520 4.882,5.522 4.676,5.597 4.478 C 5.743 4.093,6.084 3.749,6.468 3.599 C 6.653 3.526,6.856 3.524,12.040 3.532 L 17.420 3.540 17.641 3.649 M8.656 7.656 C 8.537 7.775,8.520 7.817,8.520 7.995 C 8.520 8.161,8.541 8.222,8.630 8.321 C 8.771 8.478,8.946 8.518,9.500 8.518 C 10.054 8.518,10.229 8.478,10.370 8.321 C 10.459 8.222,10.480 8.161,10.480 7.995 C 10.480 7.817,10.463 7.775,10.344 7.656 L 10.208 7.520 9.500 7.520 L 8.792 7.520 8.656 7.656 M13.656 7.656 C 13.537 7.775,13.520 7.817,13.520 7.995 C 13.520 8.161,13.541 8.222,13.630 8.321 C 13.771 8.478,13.946 8.518,14.500 8.518 C 15.054 8.518,15.229 8.478,15.370 8.321 C 15.459 8.222,15.480 8.161,15.480 7.995 C 15.480 7.817,15.463 7.775,15.344 7.656 L 15.208 7.520 14.500 7.520 L 13.792 7.520 13.656 7.656 M8.656 11.656 C 8.537 11.775,8.520 11.817,8.520 11.995 C 8.520 12.250,8.657 12.425,8.900 12.481 C 9.107 12.529,9.893 12.529,10.100 12.481 C 10.343 12.425,10.480 12.250,10.480 11.995 C 10.480 11.817,10.463 11.775,10.344 11.656 L 10.208 11.520 9.500 11.520 L 8.792 11.520 8.656 11.656 M13.656 11.656 C 13.537 11.775,13.520 11.817,13.520 11.995 C 13.520 12.250,13.657 12.425,13.900 12.481 C 14.107 12.529,14.893 12.529,15.100 12.481 C 15.343 12.425,15.480 12.250,15.480 11.995 C 15.480 11.817,15.463 11.775,15.344 11.656 L 15.208 11.520 14.500 11.520 L 13.792 11.520 13.656 11.656 M8.656 15.656 C 8.537 15.775,8.520 15.817,8.520 15.995 C 8.520 16.250,8.657 16.425,8.900 16.481 C 9.107 16.529,9.893 16.529,10.100 16.481 C 10.343 16.425,10.480 16.250,10.480 15.995 C 10.480 15.817,10.463 15.775,10.344 15.656 L 10.208 15.520 9.500 15.520 L 8.792 15.520 8.656 15.656 M13.656 15.656 C 13.537 15.775,13.520 15.817,13.520 15.995 C 13.520 16.250,13.657 16.425,13.900 16.481 C 14.107 16.529,14.893 16.529,15.100 16.481 C 15.343 16.425,15.480 16.250,15.480 15.995 C 15.480 15.817,15.463 15.775,15.344 15.656 L 15.208 15.520 14.500 15.520 L 13.792 15.520 13.656 15.656 " stroke="none" fill="black" fill-rule="evenodd"></path></svg>