<svg xmlns="http://www.w3.org/2000/svg" class="icon icon-tabler icon-tabler-building-church" width="24" height="24" viewBox="0 0 24 24" stroke-width="1" stroke="currentColor" fill="none" stroke-linecap="round" stroke-linejoin="round"><path d="M11.679 2.630 C 11.509 2.782,11.482 2.941,11.481 3.790 L 11.480 4.520 10.636 4.520 L 9.792 4.520 9.656 4.656 C 9.537 4.775,9.520 4.817,9.520 4.995 C 9.520 5.161,9.541 5.222,9.630 5.321 C 9.781 5.490,9.941 5.518,10.770 5.519 L 11.480 5.520 11.480 6.670 L 11.480 7.819 7.500 11.800 L 3.520 15.781 3.520 15.994 C 3.520 16.184,3.535 16.223,3.656 16.344 C 3.776 16.464,3.816 16.480,4.003 16.480 L 4.214 16.480 4.847 15.852 L 5.480 15.223 5.480 17.872 L 5.480 20.520 4.136 20.520 L 2.792 20.520 2.656 20.656 C 2.537 20.775,2.520 20.817,2.520 20.995 C 2.520 21.250,2.657 21.425,2.900 21.481 C 2.995 21.503,6.679 21.518,12.000 21.518 C 17.321 21.518,21.005 21.503,21.100 21.481 C 21.343 21.425,21.480 21.250,21.480 20.995 C 21.480 20.817,21.463 20.775,21.344 20.656 L 21.208 20.520 19.864 20.520 L 18.520 20.520 18.520 17.872 L 18.520 15.223 19.153 15.852 L 19.786 16.480 19.997 16.480 C 20.184 16.480,20.224 16.464,20.344 16.344 C 20.465 16.223,20.480 16.184,20.480 15.994 L 20.480 15.781 16.500 11.800 L 12.520 7.819 12.520 6.670 L 12.520 5.520 13.230 5.519 C 14.059 5.518,14.219 5.490,14.370 5.321 C 14.459 5.222,14.480 5.161,14.480 4.995 C 14.480 4.817,14.463 4.775,14.344 4.656 L 14.208 4.520 13.364 4.520 L 12.520 4.520 12.519 3.790 C 12.518 2.941,12.491 2.782,12.321 2.630 C 12.222 2.541,12.160 2.520,12.000 2.520 C 11.840 2.520,11.778 2.541,11.679 2.630 M14.750 11.450 L 17.480 14.180 17.480 17.350 L 17.480 20.520 16.004 20.520 L 14.527 20.520 14.509 18.570 C 14.494 16.878,14.482 16.588,14.422 16.380 C 14.191 15.575,13.652 14.971,12.900 14.674 C 12.624 14.565,12.517 14.545,12.120 14.529 C 11.732 14.514,11.608 14.525,11.333 14.599 C 10.910 14.713,10.566 14.916,10.241 15.242 C 9.920 15.564,9.737 15.867,9.606 16.294 C 9.506 16.619,9.506 16.626,9.489 18.570 L 9.473 20.520 7.996 20.520 L 6.520 20.520 6.520 17.350 L 6.520 14.180 9.250 11.450 C 10.751 9.949,11.989 8.720,12.000 8.720 C 12.011 8.720,13.248 9.948,14.750 11.450 M12.641 15.649 C 12.924 15.787,13.213 16.076,13.351 16.359 L 13.460 16.580 13.471 18.550 L 13.483 20.520 12.001 20.520 L 10.520 20.520 10.520 18.600 C 10.520 16.803,10.525 16.668,10.597 16.478 C 10.743 16.094,11.081 15.752,11.468 15.597 C 11.766 15.478,12.345 15.503,12.641 15.649 " stroke="none" fill="black" fill-rule="evenodd"></path></svg>