<svg xmlns="http://www.w3.org/2000/svg" class="icon icon-tabler icon-tabler-building-skyscraper" width="24" height="24" viewBox="0 0 24 24" stroke-width="1" stroke="currentColor" fill="none" stroke-linecap="round" stroke-linejoin="round"><path d="M8.741 4.572 C 5.636 6.131,4.643 6.647,4.581 6.733 C 4.501 6.845,4.500 6.888,4.489 13.683 L 4.479 20.520 3.635 20.520 L 2.792 20.520 2.656 20.656 C 2.537 20.775,2.520 20.817,2.520 20.995 C 2.520 21.250,2.657 21.425,2.900 21.481 C 2.995 21.503,6.679 21.518,12.000 21.518 C 17.321 21.518,21.005 21.503,21.100 21.481 C 21.343 21.425,21.480 21.250,21.480 20.995 C 21.480 20.817,21.463 20.775,21.344 20.656 L 21.208 20.520 20.365 20.520 L 19.522 20.520 19.511 15.688 C 19.501 11.123,19.496 10.850,19.428 10.747 C 19.387 10.683,18.143 9.829,16.438 8.692 L 13.520 6.747 13.519 4.903 C 13.519 3.890,13.501 2.988,13.481 2.900 C 13.426 2.662,13.248 2.519,13.009 2.522 C 12.841 2.524,12.367 2.752,8.741 4.572 M12.480 12.180 L 12.480 20.520 9.000 20.520 L 5.520 20.520 5.520 13.910 L 5.520 7.300 8.970 5.572 C 10.867 4.622,12.433 3.843,12.450 3.842 C 12.467 3.841,12.480 7.593,12.480 12.180 M16.110 9.674 L 18.480 11.253 18.480 15.887 L 18.480 20.520 16.000 20.520 L 13.520 20.520 13.520 14.235 L 13.520 7.951 13.630 8.022 C 13.691 8.062,14.807 8.805,16.110 9.674 M8.656 8.656 C 8.537 8.775,8.520 8.818,8.520 8.993 C 8.520 9.477,9.069 9.682,9.379 9.314 C 9.458 9.220,9.480 9.150,9.480 8.993 C 9.480 8.818,9.463 8.775,9.344 8.656 C 9.224 8.536,9.183 8.520,9.000 8.520 C 8.817 8.520,8.776 8.536,8.656 8.656 M8.656 11.656 C 8.537 11.775,8.520 11.818,8.520 11.993 C 8.520 12.233,8.643 12.408,8.861 12.480 C 9.043 12.540,9.242 12.477,9.379 12.314 C 9.458 12.220,9.480 12.150,9.480 11.993 C 9.480 11.818,9.463 11.775,9.344 11.656 C 9.224 11.536,9.183 11.520,9.000 11.520 C 8.817 11.520,8.776 11.536,8.656 11.656 M8.656 14.656 C 8.537 14.775,8.520 14.818,8.520 14.993 C 8.520 15.233,8.643 15.408,8.861 15.480 C 9.043 15.540,9.242 15.477,9.379 15.314 C 9.458 15.220,9.480 15.150,9.480 14.993 C 9.480 14.818,9.463 14.775,9.344 14.656 C 9.224 14.536,9.183 14.520,9.000 14.520 C 8.817 14.520,8.776 14.536,8.656 14.656 M8.656 17.656 C 8.537 17.775,8.520 17.818,8.520 17.993 C 8.520 18.233,8.643 18.408,8.861 18.480 C 9.043 18.540,9.242 18.477,9.379 18.314 C 9.458 18.220,9.480 18.150,9.480 17.993 C 9.480 17.818,9.463 17.775,9.344 17.656 C 9.224 17.536,9.183 17.520,9.000 17.520 C 8.817 17.520,8.776 17.536,8.656 17.656 " stroke="none" fill="black" fill-rule="evenodd"></path></svg>