<svg xmlns="http://www.w3.org/2000/svg" class="icon icon-tabler icon-tabler-building-warehouse" width="24" height="24" viewBox="0 0 24 24" stroke-width="1" stroke="currentColor" fill="none" stroke-linecap="round" stroke-linejoin="round"><path d="M7.300 5.536 C 4.814 6.642,2.730 7.590,2.668 7.643 C 2.603 7.699,2.540 7.807,2.519 7.900 C 2.470 8.114,2.470 20.887,2.519 21.100 C 2.541 21.196,2.605 21.304,2.679 21.370 C 2.905 21.573,3.293 21.501,3.450 21.227 C 3.489 21.159,3.504 19.736,3.520 14.725 L 3.540 8.311 7.772 6.430 L 12.005 4.549 16.232 6.428 L 20.460 8.307 20.480 14.723 C 20.496 19.736,20.511 21.159,20.550 21.227 C 20.707 21.501,21.095 21.573,21.321 21.370 C 21.395 21.304,21.459 21.196,21.481 21.100 C 21.530 20.889,21.530 8.113,21.482 7.904 C 21.462 7.818,21.404 7.706,21.353 7.655 C 21.301 7.605,19.226 6.660,16.710 5.542 C 12.931 3.863,12.131 3.521,11.990 3.523 C 11.856 3.525,10.861 3.952,7.300 5.536 M9.493 10.594 C 9.104 10.729,8.754 11.074,8.589 11.488 C 8.510 11.687,8.503 11.788,8.488 13.110 L 8.472 14.520 7.632 14.520 L 6.792 14.520 6.660 14.652 C 6.554 14.758,6.522 14.828,6.502 15.002 C 6.487 15.122,6.481 16.553,6.488 18.182 C 6.501 21.449,6.486 21.257,6.749 21.429 C 6.850 21.496,7.153 21.500,12.000 21.500 C 16.847 21.500,17.150 21.496,17.251 21.429 C 17.310 21.391,17.391 21.310,17.429 21.251 C 17.495 21.151,17.501 20.887,17.512 17.182 C 17.519 15.003,17.513 13.122,17.498 13.002 C 17.478 12.828,17.446 12.758,17.340 12.652 L 17.208 12.520 15.370 12.520 L 13.532 12.520 13.506 12.128 C 13.492 11.913,13.454 11.645,13.420 11.533 C 13.302 11.135,12.912 10.734,12.507 10.594 C 12.325 10.531,12.144 10.523,11.000 10.523 C 9.856 10.523,9.675 10.531,9.493 10.594 M12.344 11.656 L 12.480 11.792 12.480 13.156 L 12.480 14.520 11.000 14.520 L 9.520 14.520 9.520 13.156 L 9.520 11.792 9.656 11.656 L 9.792 11.520 11.000 11.520 L 12.208 11.520 12.344 11.656 M16.480 17.020 L 16.480 20.520 15.000 20.520 L 13.520 20.520 13.520 17.020 L 13.520 13.520 15.000 13.520 L 16.480 13.520 16.480 17.020 M12.480 18.020 L 12.480 20.520 10.000 20.520 L 7.520 20.520 7.520 18.020 L 7.520 15.520 10.000 15.520 L 12.480 15.520 12.480 18.020 " stroke="none" fill="black" fill-rule="evenodd"></path></svg>