<svg xmlns="http://www.w3.org/2000/svg" class="icon icon-tabler icon-tabler-building-community" width="24" height="24" viewBox="0 0 24 24" stroke-width="1" stroke="currentColor" fill="none" stroke-linecap="round" stroke-linejoin="round"><path d="M9.468 2.598 C 9.071 2.754,8.705 3.137,8.572 3.535 C 8.511 3.718,8.502 4.011,8.489 6.252 L 8.476 8.764 8.336 8.642 C 8.219 8.539,8.164 8.520,7.989 8.520 L 7.781 8.520 5.153 11.150 L 2.526 13.780 2.501 14.000 C 2.487 14.121,2.481 15.778,2.488 17.682 C 2.499 20.910,2.505 21.151,2.571 21.251 C 2.609 21.310,2.690 21.391,2.749 21.429 C 2.851 21.496,3.332 21.500,12.000 21.500 C 20.668 21.500,21.149 21.496,21.251 21.429 C 21.310 21.391,21.391 21.310,21.429 21.251 C 21.496 21.149,21.501 20.687,21.512 12.662 C 21.519 6.921,21.509 4.077,21.481 3.860 C 21.457 3.678,21.397 3.453,21.341 3.339 C 21.212 3.075,20.917 2.784,20.641 2.649 L 20.420 2.540 15.040 2.532 C 9.854 2.523,9.653 2.526,9.468 2.598 M20.344 3.656 L 20.480 3.792 20.480 12.156 L 20.480 20.520 17.000 20.520 L 13.520 20.520 13.519 17.290 C 13.519 15.490,13.502 13.990,13.482 13.903 C 13.450 13.766,13.190 13.490,11.483 11.783 L 9.520 9.820 9.520 6.806 L 9.520 3.792 9.656 3.656 L 9.792 3.520 15.000 3.520 L 20.208 3.520 20.344 3.656 M12.656 6.656 C 12.537 6.775,12.520 6.818,12.520 6.993 C 12.520 7.477,13.069 7.682,13.379 7.314 C 13.458 7.220,13.480 7.150,13.480 6.993 C 13.480 6.818,13.463 6.775,13.344 6.656 C 13.224 6.536,13.183 6.520,13.000 6.520 C 12.817 6.520,12.776 6.536,12.656 6.656 M16.656 6.656 C 16.537 6.775,16.520 6.818,16.520 6.993 C 16.520 7.477,17.069 7.682,17.379 7.314 C 17.458 7.220,17.480 7.150,17.480 6.993 C 17.480 6.818,17.463 6.775,17.344 6.656 C 17.224 6.536,17.183 6.520,17.000 6.520 C 16.817 6.520,16.776 6.536,16.656 6.656 M10.250 11.950 L 12.480 14.180 12.480 17.350 L 12.480 20.520 10.500 20.520 L 8.520 20.520 8.519 18.790 C 8.519 17.838,8.501 16.988,8.481 16.900 C 8.426 16.659,8.249 16.520,8.000 16.520 C 7.751 16.520,7.574 16.659,7.519 16.900 C 7.499 16.988,7.481 17.838,7.481 18.790 L 7.480 20.520 5.500 20.520 L 3.520 20.520 3.520 17.350 L 3.520 14.180 5.750 11.950 C 6.976 10.724,7.989 9.720,8.000 9.720 C 8.011 9.720,9.023 10.723,10.250 11.950 M16.656 10.656 C 16.537 10.775,16.520 10.818,16.520 10.993 C 16.520 11.233,16.643 11.408,16.861 11.480 C 17.043 11.540,17.242 11.477,17.379 11.314 C 17.458 11.220,17.480 11.150,17.480 10.993 C 17.480 10.818,17.463 10.775,17.344 10.656 C 17.224 10.536,17.183 10.520,17.000 10.520 C 16.817 10.520,16.776 10.536,16.656 10.656 M16.656 14.656 C 16.537 14.775,16.520 14.818,16.520 14.993 C 16.520 15.233,16.643 15.408,16.861 15.480 C 17.043 15.540,17.242 15.477,17.379 15.314 C 17.458 15.220,17.480 15.150,17.480 14.993 C 17.480 14.818,17.463 14.775,17.344 14.656 C 17.224 14.536,17.183 14.520,17.000 14.520 C 16.817 14.520,16.776 14.536,16.656 14.656 " stroke="none" fill="black" fill-rule="evenodd"></path></svg>