<svg xmlns="http://www.w3.org/2000/svg" class="icon icon-tabler icon-tabler-building-arch" width="24" height="24" viewBox="0 0 24 24" stroke-width="1" stroke="currentColor" fill="none" stroke-linecap="round" stroke-linejoin="round"><path d="M5.274 3.615 C 4.870 3.735,4.561 3.922,4.242 4.242 C 3.922 4.561,3.739 4.864,3.603 5.294 L 3.500 5.620 3.489 13.070 L 3.478 20.520 3.135 20.520 C 2.798 20.520,2.790 20.522,2.656 20.656 C 2.537 20.775,2.520 20.817,2.520 20.995 C 2.520 21.250,2.657 21.425,2.900 21.481 C 3.114 21.531,20.886 21.531,21.100 21.481 C 21.343 21.425,21.480 21.250,21.480 20.995 C 21.480 20.817,21.463 20.775,21.344 20.656 C 21.210 20.522,21.202 20.520,20.865 20.520 L 20.522 20.520 20.510 13.070 C 20.498 6.036,20.493 5.607,20.425 5.380 C 20.181 4.566,19.657 3.978,18.900 3.670 L 18.580 3.540 12.080 3.532 L 5.580 3.524 5.274 3.615 M18.641 4.649 C 18.924 4.787,19.213 5.076,19.351 5.359 L 19.460 5.580 19.470 13.050 L 19.481 20.520 17.500 20.520 L 15.520 20.520 15.520 16.850 C 15.519 14.720,15.502 12.989,15.479 12.725 C 15.408 11.920,15.097 11.205,14.571 10.637 C 14.147 10.179,13.695 9.887,13.079 9.673 C 12.706 9.543,12.688 9.541,12.000 9.541 C 11.313 9.541,11.293 9.543,10.920 9.672 C 10.366 9.863,9.963 10.117,9.540 10.540 C 8.915 11.165,8.599 11.842,8.521 12.724 C 8.498 12.990,8.481 14.711,8.480 16.850 L 8.480 20.520 6.500 20.520 L 4.520 20.520 4.520 13.100 C 4.520 5.875,4.522 5.676,4.597 5.478 C 4.743 5.093,5.084 4.749,5.468 4.599 C 5.653 4.526,5.878 4.524,12.040 4.532 L 18.420 4.540 18.641 4.649 M12.834 10.640 C 13.142 10.749,13.615 11.059,13.818 11.283 C 14.036 11.524,14.261 11.888,14.367 12.171 L 14.460 12.420 14.471 16.470 L 14.482 20.520 12.001 20.520 L 9.520 20.520 9.520 16.568 C 9.520 13.132,9.528 12.586,9.582 12.378 C 9.807 11.512,10.493 10.819,11.360 10.581 C 11.694 10.489,12.500 10.522,12.834 10.640 " stroke="none" fill="black" fill-rule="evenodd"></path></svg>