<svg xmlns="http://www.w3.org/2000/svg" class="icon icon-tabler icon-tabler-building-store" width="24" height="24" viewBox="0 0 24 24" stroke-width="1" stroke="currentColor" fill="none" stroke-linecap="round" stroke-linejoin="round"><path d="M4.703 2.605 C 4.630 2.662,4.264 3.351,3.552 4.775 L 2.508 6.860 2.489 7.260 C 2.459 7.911,2.538 8.660,2.685 9.102 C 2.929 9.839,3.447 10.504,4.116 10.938 L 4.480 11.174 4.480 15.847 L 4.480 20.520 3.636 20.520 L 2.792 20.520 2.656 20.656 C 2.537 20.775,2.520 20.817,2.520 20.995 C 2.520 21.250,2.657 21.425,2.900 21.481 C 3.114 21.531,20.886 21.531,21.100 21.481 C 21.343 21.425,21.480 21.250,21.480 20.995 C 21.480 20.817,21.463 20.775,21.344 20.656 L 21.208 20.520 20.364 20.520 L 19.520 20.520 19.520 15.842 L 19.520 11.163 19.710 11.054 C 20.458 10.624,21.049 9.904,21.315 9.102 C 21.462 8.660,21.541 7.911,21.511 7.260 L 21.492 6.860 20.448 4.775 C 19.736 3.351,19.370 2.662,19.297 2.605 L 19.189 2.520 12.000 2.520 L 4.811 2.520 4.703 2.605 M19.430 4.980 C 19.832 5.783,20.160 6.458,20.160 6.480 C 20.160 6.506,17.394 6.520,12.000 6.520 C 6.606 6.520,3.840 6.506,3.840 6.480 C 3.840 6.458,4.168 5.783,4.570 4.980 L 5.299 3.520 12.000 3.520 L 18.701 3.520 19.430 4.980 M8.470 8.050 C 8.447 8.681,8.370 8.938,8.075 9.379 C 7.765 9.844,7.320 10.191,6.808 10.368 C 6.579 10.446,6.460 10.460,6.000 10.460 C 5.540 10.460,5.421 10.446,5.192 10.368 C 4.680 10.191,4.235 9.844,3.925 9.379 C 3.630 8.938,3.553 8.681,3.530 8.050 L 3.511 7.520 6.000 7.520 L 8.489 7.520 8.470 8.050 M14.470 8.050 C 14.447 8.681,14.370 8.938,14.075 9.379 C 13.765 9.844,13.320 10.191,12.808 10.368 C 12.579 10.446,12.460 10.460,12.000 10.460 C 11.540 10.460,11.421 10.446,11.192 10.368 C 10.680 10.191,10.235 9.844,9.925 9.379 C 9.630 8.938,9.553 8.681,9.530 8.050 L 9.511 7.520 12.000 7.520 L 14.489 7.520 14.470 8.050 M20.470 8.050 C 20.447 8.681,20.370 8.938,20.075 9.379 C 19.765 9.844,19.320 10.191,18.808 10.368 C 18.579 10.446,18.460 10.460,18.000 10.460 C 17.540 10.460,17.421 10.446,17.192 10.368 C 16.680 10.191,16.235 9.844,15.925 9.379 C 15.630 8.938,15.553 8.681,15.530 8.050 L 15.511 7.520 18.000 7.520 L 20.489 7.520 20.470 8.050 M9.178 10.059 C 9.541 10.587,10.230 11.090,10.910 11.324 C 11.294 11.457,11.310 11.459,12.000 11.459 C 12.689 11.459,12.706 11.457,13.079 11.327 C 13.504 11.180,13.795 11.026,14.120 10.778 C 14.383 10.577,14.703 10.244,14.858 10.010 C 14.920 9.916,14.983 9.840,14.999 9.840 C 15.014 9.840,15.095 9.939,15.178 10.059 C 15.543 10.590,16.235 11.094,16.910 11.321 C 17.263 11.440,17.356 11.454,17.890 11.471 L 18.480 11.490 18.480 16.005 L 18.480 20.520 17.004 20.520 L 15.527 20.520 15.509 18.570 C 15.494 16.878,15.482 16.588,15.422 16.380 C 15.191 15.577,14.658 14.978,13.900 14.670 L 13.580 14.540 12.111 14.528 C 10.713 14.516,10.627 14.520,10.324 14.601 C 9.910 14.713,9.564 14.918,9.241 15.242 C 8.920 15.564,8.737 15.867,8.606 16.294 C 8.506 16.619,8.506 16.626,8.489 18.570 L 8.473 20.520 6.996 20.520 L 5.520 20.520 5.520 16.005 L 5.520 11.490 6.110 11.471 C 6.642 11.455,6.737 11.440,7.079 11.324 C 7.501 11.181,7.792 11.028,8.120 10.778 C 8.383 10.577,8.703 10.244,8.858 10.010 C 8.920 9.916,8.983 9.840,8.999 9.840 C 9.014 9.840,9.095 9.939,9.178 10.059 M13.641 15.649 C 13.924 15.787,14.213 16.076,14.351 16.359 L 14.460 16.580 14.471 18.550 L 14.483 20.520 12.001 20.520 L 9.520 20.520 9.520 18.600 C 9.520 16.803,9.525 16.668,9.597 16.478 C 9.743 16.093,10.083 15.750,10.468 15.598 C 10.645 15.528,10.767 15.523,12.040 15.531 L 13.420 15.540 13.641 15.649 " stroke="none" fill="black" fill-rule="evenodd"></path></svg>