<svg xmlns="http://www.w3.org/2000/svg" class="icon icon-tabler icon-tabler-building-pavilon" width="24" height="24" viewBox="0 0 24 24" stroke-width="1" stroke="currentColor" fill="none" stroke-linecap="round" stroke-linejoin="round"><path d="M11.686 2.621 C 11.600 2.694,11.535 2.815,11.457 3.051 C 10.811 5.009,9.388 6.583,7.380 7.562 C 6.143 8.165,5.015 8.435,3.440 8.503 L 2.781 8.531 2.645 8.667 L 2.509 8.803 2.529 9.252 C 2.554 9.797,2.703 10.290,2.992 10.779 C 3.235 11.192,3.760 11.725,4.174 11.980 C 4.496 12.178,5.174 12.439,5.370 12.440 L 5.480 12.440 5.480 16.480 L 5.480 20.520 4.136 20.520 L 2.792 20.520 2.656 20.656 C 2.536 20.776,2.520 20.817,2.520 21.000 C 2.520 21.182,2.537 21.225,2.652 21.340 C 2.758 21.446,2.828 21.478,3.002 21.498 C 3.122 21.513,4.778 21.519,6.682 21.512 C 9.910 21.501,10.151 21.495,10.251 21.429 C 10.505 21.263,10.498 21.316,10.520 19.362 L 10.540 17.580 10.649 17.359 C 10.787 17.076,11.076 16.787,11.359 16.649 C 11.557 16.551,11.624 16.540,12.000 16.540 C 12.376 16.540,12.443 16.551,12.641 16.649 C 12.924 16.787,13.213 17.076,13.351 17.359 L 13.460 17.580 13.480 19.362 C 13.502 21.316,13.495 21.263,13.749 21.429 C 13.849 21.495,14.090 21.501,17.318 21.512 C 19.222 21.519,20.878 21.513,20.998 21.498 C 21.172 21.478,21.242 21.446,21.348 21.340 C 21.463 21.225,21.480 21.182,21.480 21.000 C 21.480 20.817,21.464 20.776,21.344 20.656 L 21.208 20.520 19.864 20.520 L 18.520 20.520 18.520 16.480 L 18.520 12.440 18.630 12.440 C 18.826 12.439,19.504 12.178,19.826 11.980 C 20.240 11.725,20.765 11.192,21.008 10.779 C 21.297 10.290,21.446 9.797,21.471 9.252 L 21.491 8.803 21.355 8.667 L 21.219 8.531 20.560 8.503 C 18.985 8.435,17.857 8.165,16.620 7.562 C 14.639 6.596,13.239 5.067,12.578 3.149 C 12.398 2.628,12.300 2.520,12.000 2.520 C 11.851 2.520,11.778 2.543,11.686 2.621 M12.156 4.690 C 13.290 6.777,15.355 8.385,17.821 9.099 C 18.524 9.303,19.615 9.480,20.167 9.480 L 20.450 9.480 20.428 9.591 C 20.300 10.231,19.737 10.930,19.100 11.241 C 18.534 11.518,19.032 11.500,12.000 11.500 C 4.968 11.500,5.466 11.518,4.900 11.241 C 4.266 10.931,3.700 10.230,3.573 9.597 L 3.553 9.493 4.026 9.468 C 5.964 9.365,8.066 8.570,9.580 7.368 C 10.468 6.662,11.317 5.661,11.826 4.720 C 11.909 4.566,11.987 4.440,11.998 4.440 C 12.010 4.441,12.081 4.553,12.156 4.690 M17.480 16.520 L 17.480 20.520 16.004 20.520 L 14.529 20.520 14.509 19.070 C 14.493 17.870,14.477 17.579,14.421 17.380 C 14.195 16.580,13.652 15.971,12.900 15.674 C 12.624 15.565,12.517 15.545,12.120 15.529 C 11.732 15.514,11.608 15.525,11.333 15.599 C 10.910 15.713,10.566 15.916,10.241 16.242 C 9.919 16.565,9.736 16.869,9.607 17.294 C 9.511 17.609,9.507 17.670,9.490 19.070 L 9.471 20.520 7.996 20.520 L 6.520 20.520 6.520 16.520 L 6.520 12.520 12.000 12.520 L 17.480 12.520 17.480 16.520 " stroke="none" fill="black" fill-rule="evenodd"></path></svg>