<svg xmlns="http://www.w3.org/2000/svg" class="icon icon-tabler icon-tabler-building-hospital" width="24" height="24" viewBox="0 0 24 24" stroke-width="1" stroke="currentColor" fill="none" stroke-linecap="round" stroke-linejoin="round"><path d="M6.274 2.615 C 5.870 2.735,5.561 2.922,5.242 3.242 C 4.922 3.561,4.739 3.864,4.603 4.294 L 4.500 4.620 4.489 12.570 L 4.478 20.520 3.635 20.520 L 2.792 20.520 2.656 20.656 C 2.537 20.775,2.520 20.817,2.520 20.995 C 2.520 21.250,2.657 21.425,2.900 21.481 C 3.114 21.531,20.886 21.531,21.100 21.481 C 21.343 21.425,21.480 21.250,21.480 20.995 C 21.480 20.817,21.463 20.775,21.344 20.656 L 21.208 20.520 20.365 20.520 L 19.522 20.520 19.510 12.570 C 19.498 5.051,19.493 4.607,19.425 4.380 C 19.181 3.565,18.657 2.978,17.900 2.670 L 17.580 2.540 12.080 2.532 L 6.580 2.524 6.274 2.615 M17.641 3.649 C 17.924 3.787,18.213 4.076,18.351 4.359 L 18.460 4.580 18.470 12.550 L 18.481 20.520 17.004 20.520 L 15.527 20.520 15.509 18.570 C 15.494 16.878,15.482 16.588,15.422 16.380 C 15.191 15.577,14.658 14.978,13.900 14.670 L 13.580 14.540 12.111 14.528 C 10.713 14.516,10.627 14.520,10.324 14.601 C 9.910 14.713,9.564 14.918,9.241 15.242 C 8.920 15.564,8.737 15.867,8.606 16.294 C 8.506 16.619,8.506 16.626,8.489 18.570 L 8.473 20.520 6.996 20.520 L 5.520 20.520 5.520 12.600 C 5.520 4.882,5.522 4.676,5.597 4.478 C 5.743 4.093,6.084 3.749,6.468 3.599 C 6.653 3.526,6.856 3.524,12.040 3.532 L 17.420 3.540 17.641 3.649 M11.679 6.630 C 11.509 6.782,11.482 6.941,11.481 7.790 L 11.480 8.520 10.636 8.520 L 9.792 8.520 9.656 8.656 C 9.537 8.775,9.520 8.817,9.520 8.995 C 9.520 9.161,9.541 9.222,9.630 9.321 C 9.781 9.490,9.941 9.518,10.770 9.519 L 11.480 9.520 11.481 10.230 C 11.482 11.059,11.510 11.219,11.679 11.370 C 11.778 11.459,11.840 11.480,12.000 11.480 C 12.160 11.480,12.222 11.459,12.321 11.370 C 12.490 11.219,12.518 11.059,12.519 10.230 L 12.520 9.520 13.230 9.519 C 14.059 9.518,14.219 9.490,14.370 9.321 C 14.459 9.222,14.480 9.161,14.480 8.995 C 14.480 8.817,14.463 8.775,14.344 8.656 L 14.208 8.520 13.364 8.520 L 12.520 8.520 12.519 7.790 C 12.518 6.941,12.491 6.782,12.321 6.630 C 12.222 6.541,12.160 6.520,12.000 6.520 C 11.840 6.520,11.778 6.541,11.679 6.630 M13.641 15.649 C 13.924 15.787,14.213 16.076,14.351 16.359 L 14.460 16.580 14.471 18.550 L 14.483 20.520 12.001 20.520 L 9.520 20.520 9.520 18.600 C 9.520 16.803,9.525 16.668,9.597 16.478 C 9.743 16.093,10.083 15.750,10.468 15.598 C 10.645 15.528,10.767 15.523,12.040 15.531 L 13.420 15.540 13.641 15.649 " stroke="none" fill="black" fill-rule="evenodd"></path></svg>