<svg xmlns="http://www.w3.org/2000/svg" class="icon icon-tabler icon-tabler-bulb-off" width="24" height="24" viewBox="0 0 24 24" stroke-width="1" stroke="currentColor" fill="none" stroke-linecap="round" stroke-linejoin="round"><path d="M11.020 6.586 C 10.013 6.768,8.932 7.324,8.166 8.057 C 7.391 8.797,6.768 9.982,6.581 11.071 C 6.498 11.554,6.498 12.447,6.581 12.930 C 6.797 14.186,7.576 15.527,8.507 16.245 C 8.759 16.440,9.037 16.796,9.220 17.160 C 9.460 17.637,9.489 17.785,9.518 18.700 C 9.542 19.473,9.553 19.564,9.651 19.839 C 9.909 20.558,10.492 21.130,11.207 21.364 C 11.459 21.447,11.576 21.460,12.040 21.459 C 12.553 21.457,12.596 21.451,12.900 21.328 C 13.489 21.092,13.977 20.643,14.238 20.100 C 14.436 19.688,14.480 19.436,14.480 18.711 C 14.480 18.192,14.496 17.989,14.557 17.751 C 14.709 17.159,15.075 16.579,15.535 16.207 C 16.479 15.441,17.207 14.171,17.417 12.923 C 17.497 12.442,17.498 11.574,17.418 11.080 C 17.287 10.271,16.893 9.364,16.375 8.680 C 15.533 7.569,14.311 6.823,12.938 6.583 C 12.489 6.504,11.465 6.506,11.020 6.586 M12.830 7.580 C 14.648 7.925,16.075 9.352,16.420 11.170 C 16.454 11.350,16.480 11.711,16.480 12.000 C 16.480 12.769,16.345 13.357,16.022 14.002 C 15.726 14.590,15.426 14.969,14.846 15.482 C 14.616 15.685,14.361 15.960,14.216 16.162 L 13.973 16.500 12.009 16.510 L 10.045 16.521 9.935 16.370 C 9.581 15.886,9.468 15.758,9.160 15.490 C 8.290 14.734,7.778 13.871,7.579 12.824 C 7.500 12.405,7.499 11.594,7.579 11.180 C 7.929 9.355,9.328 7.943,11.145 7.582 C 11.526 7.506,12.435 7.506,12.830 7.580 M13.543 17.650 C 13.529 17.722,13.504 18.149,13.488 18.600 C 13.461 19.385,13.455 19.430,13.350 19.644 C 13.218 19.912,12.875 20.250,12.610 20.372 C 12.453 20.445,12.348 20.460,12.000 20.460 C 11.624 20.460,11.557 20.449,11.359 20.351 C 11.237 20.292,11.052 20.157,10.947 20.053 C 10.843 19.948,10.708 19.763,10.649 19.641 C 10.545 19.430,10.539 19.384,10.515 18.620 C 10.501 18.180,10.476 17.753,10.459 17.670 L 10.430 17.520 11.999 17.520 L 13.569 17.520 13.543 17.650 " stroke="none" fill="black" fill-rule="evenodd"></path></svg>