<svg xmlns="http://www.w3.org/2000/svg" class="icon icon-tabler icon-tabler-bus" width="24" height="24" viewBox="0 0 24 24" stroke-width="1" stroke="currentColor" fill="none" stroke-linecap="round" stroke-linejoin="round"><path d="M4.740 4.520 L 2.580 4.540 2.359 4.649 C 2.083 4.784,1.788 5.075,1.659 5.339 C 1.603 5.453,1.543 5.679,1.519 5.860 C 1.491 6.074,1.481 7.998,1.488 11.662 C 1.499 16.820,1.504 17.150,1.571 17.251 C 1.724 17.486,1.781 17.499,2.704 17.513 L 3.552 17.527 3.644 17.811 C 3.749 18.138,4.043 18.601,4.283 18.818 C 4.548 19.058,4.893 19.261,5.207 19.364 C 5.459 19.447,5.576 19.460,6.040 19.459 C 6.549 19.458,6.598 19.450,6.888 19.334 C 7.601 19.048,8.139 18.488,8.359 17.803 L 8.450 17.520 12.000 17.520 L 15.550 17.520 15.643 17.808 C 15.871 18.518,16.483 19.127,17.207 19.364 C 17.459 19.447,17.576 19.460,18.040 19.459 C 18.549 19.458,18.598 19.450,18.888 19.334 C 19.599 19.048,20.139 18.488,20.358 17.806 L 20.448 17.527 21.296 17.513 C 22.219 17.499,22.276 17.486,22.429 17.251 C 22.495 17.152,22.501 16.956,22.513 14.742 C 22.530 11.391,22.473 10.556,22.140 9.343 C 21.515 7.062,20.065 5.300,18.340 4.726 C 17.696 4.512,17.873 4.518,12.180 4.509 C 9.276 4.504,5.928 4.509,4.740 4.520 M6.480 7.520 L 6.480 9.520 4.500 9.520 L 2.520 9.520 2.520 7.656 L 2.520 5.792 2.656 5.656 L 2.792 5.520 4.636 5.520 L 6.480 5.520 6.480 7.520 M11.480 7.520 L 11.480 9.520 9.500 9.520 L 7.520 9.520 7.520 7.520 L 7.520 5.520 9.500 5.520 L 11.480 5.520 11.480 7.520 M15.620 5.610 C 15.690 5.907,16.440 9.447,16.440 9.480 C 16.440 9.506,15.767 9.520,14.480 9.520 L 12.520 9.520 12.520 7.520 L 12.520 5.520 14.059 5.520 L 15.598 5.520 15.620 5.610 M17.745 5.598 C 19.343 5.982,20.684 7.612,21.235 9.840 C 21.351 10.307,21.480 11.132,21.480 11.402 L 21.480 11.521 19.692 11.510 L 17.904 11.500 17.273 8.560 C 16.926 6.943,16.642 5.598,16.641 5.570 C 16.639 5.488,17.361 5.506,17.745 5.598 M16.680 10.540 C 16.680 10.642,17.023 12.131,17.070 12.232 C 17.196 12.504,17.153 12.499,19.430 12.511 L 21.480 12.523 21.480 14.521 L 21.480 16.520 20.979 16.520 C 20.497 16.520,20.477 16.517,20.443 16.430 C 20.424 16.381,20.362 16.214,20.305 16.060 C 20.085 15.469,19.529 14.921,18.900 14.673 C 18.625 14.565,18.516 14.545,18.120 14.529 C 17.731 14.514,17.608 14.525,17.330 14.600 C 16.552 14.810,15.902 15.422,15.642 16.189 L 15.536 16.500 12.007 16.510 L 8.478 16.520 8.444 16.430 C 8.424 16.381,8.362 16.214,8.305 16.060 C 8.085 15.469,7.529 14.921,6.900 14.673 C 6.625 14.565,6.516 14.545,6.120 14.529 C 5.731 14.514,5.608 14.525,5.330 14.600 C 4.552 14.810,3.902 15.422,3.642 16.189 L 3.536 16.500 3.028 16.511 L 2.520 16.522 2.520 13.521 L 2.520 10.520 9.600 10.520 C 13.494 10.520,16.680 10.529,16.680 10.540 M6.641 15.649 C 6.924 15.787,7.213 16.076,7.351 16.359 C 7.449 16.557,7.460 16.624,7.460 17.000 C 7.460 17.348,7.445 17.453,7.372 17.610 C 7.250 17.875,6.912 18.218,6.644 18.350 C 6.443 18.449,6.377 18.460,6.000 18.460 C 5.624 18.460,5.557 18.449,5.359 18.351 C 5.076 18.213,4.787 17.924,4.649 17.641 C 4.499 17.337,4.474 16.802,4.593 16.488 C 4.743 16.094,5.077 15.753,5.468 15.597 C 5.766 15.478,6.345 15.503,6.641 15.649 M18.641 15.649 C 18.924 15.787,19.213 16.076,19.351 16.359 C 19.449 16.557,19.460 16.624,19.460 17.000 C 19.460 17.348,19.445 17.453,19.372 17.610 C 19.250 17.875,18.912 18.218,18.644 18.350 C 18.443 18.449,18.377 18.460,18.000 18.460 C 17.624 18.460,17.557 18.449,17.359 18.351 C 17.076 18.213,16.787 17.924,16.649 17.641 C 16.499 17.337,16.474 16.802,16.593 16.488 C 16.743 16.094,17.077 15.753,17.468 15.597 C 17.766 15.478,18.345 15.503,18.641 15.649 " stroke="none" fill="black" fill-rule="evenodd"></path></svg>