<svg xmlns="http://www.w3.org/2000/svg" class="icon icon-tabler icon-tabler-calculator" width="24" height="24" viewBox="0 0 24 24" stroke-width="1" stroke="currentColor" fill="none" stroke-linecap="round" stroke-linejoin="round"><path d="M5.274 2.615 C 4.870 2.735,4.561 2.922,4.242 3.242 C 3.922 3.561,3.739 3.864,3.603 4.294 L 3.500 4.620 3.500 11.980 C 3.500 18.944,3.504 19.354,3.572 19.593 C 3.838 20.528,4.448 21.147,5.380 21.425 C 5.605 21.492,5.994 21.497,11.700 21.510 C 15.647 21.519,17.924 21.509,18.189 21.482 C 19.305 21.371,20.121 20.684,20.427 19.600 C 20.497 19.352,20.500 18.993,20.500 12.000 C 20.500 5.007,20.497 4.648,20.427 4.400 C 20.196 3.582,19.666 2.982,18.900 2.670 L 18.580 2.540 12.080 2.532 L 5.580 2.524 5.274 2.615 M18.641 3.649 C 18.924 3.787,19.213 4.076,19.351 4.359 L 19.460 4.580 19.460 12.000 L 19.460 19.420 19.372 19.610 C 19.253 19.867,18.913 20.218,18.664 20.339 C 18.548 20.397,18.323 20.457,18.140 20.481 C 17.924 20.510,15.850 20.520,11.780 20.512 C 6.157 20.500,5.726 20.495,5.535 20.430 C 5.129 20.291,4.750 19.925,4.597 19.522 C 4.522 19.324,4.520 19.126,4.520 12.000 C 4.520 4.874,4.522 4.676,4.597 4.478 C 4.743 4.093,5.084 3.749,5.468 3.599 C 5.653 3.526,5.878 3.524,12.040 3.532 L 18.420 3.540 18.641 3.649 M8.468 6.599 C 8.060 6.758,7.696 7.146,7.570 7.556 C 7.471 7.878,7.471 9.122,7.570 9.444 C 7.705 9.884,8.115 10.294,8.556 10.431 C 8.761 10.494,9.056 10.500,12.000 10.500 C 14.944 10.500,15.239 10.494,15.444 10.431 C 15.885 10.294,16.295 9.884,16.430 9.444 C 16.529 9.122,16.529 7.878,16.430 7.556 C 16.300 7.134,15.919 6.736,15.507 6.594 C 15.315 6.528,15.063 6.523,11.980 6.523 C 8.829 6.524,8.650 6.528,8.468 6.599 M15.344 7.656 L 15.480 7.792 15.480 8.495 L 15.480 9.199 15.370 9.321 C 15.304 9.395,15.196 9.459,15.100 9.481 C 14.890 9.530,9.110 9.530,8.900 9.481 C 8.804 9.459,8.696 9.395,8.630 9.321 L 8.520 9.199 8.520 8.495 L 8.520 7.792 8.656 7.656 L 8.792 7.520 12.000 7.520 L 15.208 7.520 15.344 7.656 M7.656 13.656 C 7.537 13.775,7.520 13.818,7.520 13.993 C 7.520 14.233,7.643 14.408,7.861 14.480 C 8.043 14.540,8.242 14.477,8.379 14.314 C 8.458 14.220,8.480 14.150,8.480 13.993 C 8.480 13.818,8.463 13.775,8.344 13.656 C 8.224 13.536,8.183 13.520,8.000 13.520 C 7.817 13.520,7.776 13.536,7.656 13.656 M11.656 13.656 C 11.537 13.775,11.520 13.818,11.520 13.993 C 11.520 14.150,11.542 14.220,11.621 14.314 C 11.758 14.477,11.957 14.540,12.139 14.480 C 12.357 14.408,12.480 14.233,12.480 13.993 C 12.480 13.818,12.463 13.775,12.344 13.656 C 12.224 13.536,12.183 13.520,12.000 13.520 C 11.817 13.520,11.776 13.536,11.656 13.656 M15.656 13.656 C 15.537 13.775,15.520 13.818,15.520 13.993 C 15.520 14.233,15.643 14.408,15.861 14.480 C 16.043 14.540,16.242 14.477,16.379 14.314 C 16.458 14.220,16.480 14.150,16.480 13.993 C 16.480 13.818,16.463 13.775,16.344 13.656 C 16.224 13.536,16.183 13.520,16.000 13.520 C 15.817 13.520,15.776 13.536,15.656 13.656 M7.656 16.656 C 7.537 16.775,7.520 16.818,7.520 16.993 C 7.520 17.233,7.643 17.408,7.861 17.480 C 8.043 17.540,8.242 17.477,8.379 17.314 C 8.458 17.220,8.480 17.150,8.480 16.993 C 8.480 16.818,8.463 16.775,8.344 16.656 C 8.224 16.536,8.183 16.520,8.000 16.520 C 7.817 16.520,7.776 16.536,7.656 16.656 M11.656 16.656 C 11.537 16.775,11.520 16.818,11.520 16.993 C 11.520 17.150,11.542 17.220,11.621 17.314 C 11.758 17.477,11.957 17.540,12.139 17.480 C 12.357 17.408,12.480 17.233,12.480 16.993 C 12.480 16.818,12.463 16.775,12.344 16.656 C 12.224 16.536,12.183 16.520,12.000 16.520 C 11.817 16.520,11.776 16.536,11.656 16.656 M15.656 16.656 C 15.537 16.775,15.520 16.818,15.520 16.993 C 15.520 17.150,15.542 17.220,15.621 17.314 C 15.758 17.477,15.957 17.540,16.139 17.480 C 16.357 17.408,16.480 17.233,16.480 16.993 C 16.480 16.818,16.463 16.775,16.344 16.656 C 16.224 16.536,16.183 16.520,16.000 16.520 C 15.817 16.520,15.776 16.536,15.656 16.656 " stroke="none" fill="black" fill-rule="evenodd"></path></svg>