<svg xmlns="http://www.w3.org/2000/svg" class="icon icon-tabler icon-tabler-calendar-event" width="24" height="24" viewBox="0 0 24 24" stroke-width="1" stroke="currentColor" fill="none" stroke-linecap="round" stroke-linejoin="round"><path d="M7.679 2.630 C 7.509 2.782,7.482 2.941,7.481 3.790 L 7.480 4.520 6.545 4.520 C 5.684 4.520,5.583 4.527,5.288 4.613 C 4.872 4.733,4.566 4.917,4.242 5.242 C 3.922 5.561,3.739 5.864,3.603 6.294 L 3.500 6.620 3.500 12.980 C 3.500 18.982,3.504 19.354,3.572 19.593 C 3.838 20.528,4.448 21.147,5.380 21.425 C 5.605 21.492,5.994 21.497,11.700 21.510 C 15.647 21.519,17.924 21.509,18.189 21.482 C 19.305 21.371,20.121 20.684,20.427 19.600 C 20.496 19.353,20.500 19.024,20.500 13.000 C 20.500 6.976,20.496 6.647,20.427 6.400 C 20.196 5.582,19.665 4.980,18.900 4.671 L 18.580 4.541 17.550 4.528 L 16.520 4.514 16.519 3.787 C 16.518 2.941,16.491 2.782,16.321 2.630 C 16.147 2.473,15.853 2.473,15.679 2.630 C 15.509 2.782,15.482 2.941,15.481 3.790 L 15.480 4.520 12.000 4.520 L 8.520 4.520 8.519 3.790 C 8.518 2.941,8.491 2.782,8.321 2.630 C 8.222 2.541,8.160 2.520,8.000 2.520 C 7.840 2.520,7.778 2.541,7.679 2.630 M7.481 6.230 C 7.482 7.059,7.510 7.219,7.679 7.370 C 7.778 7.459,7.840 7.480,8.000 7.480 C 8.160 7.480,8.222 7.459,8.321 7.370 C 8.490 7.219,8.518 7.059,8.519 6.230 L 8.520 5.520 12.000 5.520 L 15.480 5.520 15.481 6.230 C 15.482 7.059,15.510 7.219,15.679 7.370 C 15.778 7.459,15.840 7.480,16.000 7.480 C 16.160 7.480,16.222 7.459,16.321 7.370 C 16.490 7.219,16.518 7.059,16.519 6.228 L 16.520 5.516 17.470 5.528 C 18.411 5.540,18.422 5.541,18.641 5.649 C 18.924 5.787,19.213 6.076,19.351 6.359 L 19.460 6.580 19.471 8.550 L 19.483 10.520 12.001 10.520 L 4.520 10.520 4.520 8.600 C 4.520 6.803,4.525 6.668,4.597 6.478 C 4.744 6.093,5.084 5.749,5.468 5.599 C 5.635 5.533,5.778 5.523,6.570 5.522 L 7.480 5.520 7.481 6.230 M19.471 15.470 L 19.460 19.420 19.372 19.610 C 19.253 19.868,18.913 20.218,18.664 20.339 C 18.552 20.394,18.334 20.456,18.180 20.478 C 17.799 20.533,6.201 20.533,5.820 20.478 C 5.666 20.456,5.449 20.394,5.339 20.341 C 5.075 20.212,4.784 19.918,4.649 19.641 L 4.540 19.420 4.529 15.470 L 4.519 11.520 12.000 11.520 L 19.482 11.520 19.471 15.470 M7.660 14.652 C 7.486 14.826,7.470 14.968,7.487 16.182 C 7.506 17.580,7.414 17.500,9.000 17.500 C 10.586 17.500,10.494 17.580,10.513 16.182 C 10.530 14.968,10.514 14.826,10.340 14.652 L 10.208 14.520 9.000 14.520 L 7.792 14.520 7.660 14.652 M9.480 16.020 L 9.480 16.520 9.000 16.520 L 8.520 16.520 8.520 16.020 L 8.520 15.520 9.000 15.520 L 9.480 15.520 9.480 16.020 " stroke="none" fill="black" fill-rule="evenodd"></path></svg>