<svg xmlns="http://www.w3.org/2000/svg" class="icon icon-tabler icon-tabler-calendar" width="24" height="24" viewBox="0 0 24 24" stroke-width="1" stroke="currentColor" fill="none" stroke-linecap="round" stroke-linejoin="round"><path d="M7.679 2.630 C 7.509 2.782,7.482 2.941,7.481 3.790 L 7.480 4.520 6.545 4.520 C 5.684 4.520,5.583 4.527,5.288 4.613 C 4.872 4.733,4.566 4.917,4.242 5.242 C 3.922 5.561,3.739 5.864,3.603 6.294 L 3.500 6.620 3.500 12.980 C 3.500 18.982,3.504 19.354,3.572 19.593 C 3.838 20.528,4.448 21.147,5.380 21.425 C 5.605 21.492,5.994 21.497,11.700 21.510 C 15.647 21.519,17.924 21.509,18.189 21.482 C 19.305 21.371,20.121 20.684,20.427 19.600 C 20.496 19.353,20.500 19.024,20.500 13.000 C 20.500 6.976,20.496 6.647,20.427 6.400 C 20.196 5.582,19.665 4.980,18.900 4.671 L 18.580 4.541 17.550 4.528 L 16.520 4.514 16.519 3.787 C 16.518 2.941,16.491 2.782,16.321 2.630 C 16.147 2.473,15.853 2.473,15.679 2.630 C 15.509 2.782,15.482 2.941,15.481 3.790 L 15.480 4.520 12.000 4.520 L 8.520 4.520 8.519 3.790 C 8.518 2.941,8.491 2.782,8.321 2.630 C 8.222 2.541,8.160 2.520,8.000 2.520 C 7.840 2.520,7.778 2.541,7.679 2.630 M7.481 6.230 C 7.482 7.059,7.510 7.219,7.679 7.370 C 7.778 7.459,7.840 7.480,8.000 7.480 C 8.160 7.480,8.222 7.459,8.321 7.370 C 8.490 7.219,8.518 7.059,8.519 6.230 L 8.520 5.520 12.000 5.520 L 15.480 5.520 15.481 6.230 C 15.482 7.059,15.510 7.219,15.679 7.370 C 15.778 7.459,15.840 7.480,16.000 7.480 C 16.160 7.480,16.222 7.459,16.321 7.370 C 16.490 7.219,16.518 7.059,16.519 6.228 L 16.520 5.516 17.470 5.528 C 18.411 5.540,18.422 5.541,18.641 5.649 C 18.924 5.787,19.213 6.076,19.351 6.359 L 19.460 6.580 19.471 8.550 L 19.483 10.520 12.001 10.520 L 4.520 10.520 4.520 8.600 C 4.520 6.803,4.525 6.668,4.597 6.478 C 4.744 6.093,5.084 5.749,5.468 5.599 C 5.635 5.533,5.778 5.523,6.570 5.522 L 7.480 5.520 7.481 6.230 M19.471 15.470 L 19.460 19.420 19.372 19.610 C 19.253 19.868,18.913 20.218,18.664 20.339 C 18.552 20.394,18.334 20.456,18.180 20.478 C 17.799 20.533,6.201 20.533,5.820 20.478 C 5.666 20.456,5.449 20.394,5.339 20.341 C 5.075 20.212,4.784 19.918,4.649 19.641 L 4.540 19.420 4.529 15.470 L 4.519 11.520 12.000 11.520 L 19.482 11.520 19.471 15.470 M11.327 14.516 L 10.753 14.540 10.637 14.671 C 10.541 14.778,10.520 14.837,10.520 15.000 C 10.520 15.353,10.756 15.517,11.270 15.519 L 11.480 15.520 11.481 16.730 C 11.481 17.395,11.499 18.012,11.519 18.100 C 11.574 18.341,11.751 18.480,12.000 18.480 C 12.249 18.480,12.426 18.341,12.481 18.100 C 12.501 18.012,12.518 17.265,12.519 16.440 C 12.520 14.800,12.515 14.765,12.279 14.592 C 12.150 14.497,12.025 14.487,11.327 14.516 " stroke="none" fill="black" fill-rule="evenodd"></path></svg>