<svg xmlns="http://www.w3.org/2000/svg" class="icon icon-tabler icon-tabler-camera" width="24" height="24" viewBox="0 0 24 24" stroke-width="1" stroke="currentColor" fill="none" stroke-linecap="round" stroke-linejoin="round"><path d="M8.468 3.598 C 8.125 3.733,7.822 4.011,7.659 4.340 C 7.593 4.475,7.541 4.688,7.501 4.993 C 7.429 5.539,7.349 5.731,7.077 6.020 C 6.692 6.427,6.360 6.518,5.255 6.519 C 4.699 6.520,4.564 6.533,4.288 6.613 C 3.872 6.733,3.566 6.917,3.242 7.242 C 2.922 7.561,2.739 7.864,2.603 8.294 L 2.500 8.620 2.500 13.480 C 2.500 18.038,2.504 18.356,2.572 18.593 C 2.838 19.528,3.447 20.146,4.380 20.425 C 4.606 20.493,5.025 20.498,11.700 20.510 C 16.315 20.519,18.922 20.509,19.189 20.482 C 20.296 20.372,21.105 19.698,21.425 18.620 C 21.491 18.397,21.497 18.051,21.510 13.800 C 21.518 11.055,21.508 9.066,21.485 8.836 C 21.380 7.783,20.780 6.987,19.835 6.650 C 19.563 6.553,19.471 6.543,18.640 6.516 C 17.628 6.484,17.439 6.446,17.137 6.215 C 16.715 5.894,16.576 5.627,16.498 4.995 C 16.432 4.463,16.331 4.226,16.053 3.947 C 15.948 3.843,15.763 3.708,15.641 3.649 L 15.420 3.540 12.040 3.531 C 8.809 3.523,8.652 3.526,8.468 3.598 M15.340 4.652 C 15.451 4.763,15.476 4.823,15.496 5.022 C 15.585 5.907,15.874 6.500,16.429 6.940 C 16.978 7.375,17.364 7.480,18.540 7.514 C 19.391 7.539,19.427 7.544,19.641 7.649 C 19.924 7.787,20.213 8.076,20.351 8.359 L 20.460 8.580 20.460 13.500 L 20.460 18.420 20.372 18.610 C 20.253 18.868,19.913 19.218,19.664 19.339 C 19.552 19.394,19.334 19.456,19.180 19.478 C 18.798 19.533,5.202 19.533,4.820 19.478 C 4.666 19.456,4.449 19.394,4.339 19.341 C 4.075 19.212,3.784 18.918,3.649 18.641 L 3.540 18.420 3.540 13.500 L 3.540 8.580 3.649 8.359 C 3.787 8.076,4.076 7.787,4.359 7.649 C 4.573 7.544,4.609 7.539,5.460 7.514 C 6.636 7.480,7.022 7.375,7.571 6.940 C 8.126 6.500,8.415 5.907,8.504 5.022 C 8.524 4.823,8.549 4.763,8.660 4.652 L 8.792 4.520 12.000 4.520 L 15.208 4.520 15.340 4.652 M11.259 9.576 C 10.065 9.848,9.079 10.739,8.676 11.910 C 8.543 12.294,8.541 12.310,8.541 13.000 C 8.541 13.687,8.543 13.707,8.672 14.080 C 8.863 14.634,9.117 15.037,9.540 15.460 C 9.963 15.883,10.366 16.137,10.920 16.328 C 11.293 16.457,11.313 16.459,12.000 16.459 C 12.688 16.459,12.706 16.457,13.079 16.327 C 13.288 16.255,13.558 16.139,13.679 16.071 C 14.449 15.635,15.035 14.930,15.324 14.090 C 15.457 13.705,15.459 13.690,15.459 13.000 C 15.459 12.310,15.457 12.295,15.324 11.910 C 15.035 11.070,14.449 10.365,13.679 9.929 C 13.558 9.861,13.288 9.747,13.079 9.676 C 12.730 9.557,12.653 9.546,12.100 9.534 C 11.694 9.526,11.422 9.539,11.259 9.576 M12.834 10.640 C 13.142 10.749,13.615 11.059,13.818 11.283 C 14.048 11.538,14.266 11.898,14.368 12.192 C 14.446 12.421,14.460 12.540,14.460 13.000 C 14.460 13.460,14.446 13.579,14.368 13.808 C 14.190 14.320,13.844 14.765,13.378 15.076 C 12.916 15.385,12.647 15.460,12.000 15.460 C 11.540 15.460,11.421 15.446,11.192 15.368 C 10.898 15.266,10.538 15.048,10.283 14.818 C 10.058 14.615,9.749 14.141,9.640 13.834 C 9.516 13.481,9.484 12.763,9.577 12.399 C 9.803 11.515,10.484 10.821,11.360 10.581 C 11.694 10.489,12.500 10.522,12.834 10.640 " stroke="none" fill="black" fill-rule="evenodd"></path></svg>