<svg xmlns="http://www.w3.org/2000/svg" class="icon icon-tabler icon-tabler-camera-minus" width="24" height="24" viewBox="0 0 24 24" stroke-width="1" stroke="currentColor" fill="none" stroke-linecap="round" stroke-linejoin="round"><path d="M8.468 3.599 C 8.125 3.733,7.822 4.011,7.659 4.340 C 7.593 4.475,7.541 4.688,7.501 4.993 C 7.429 5.539,7.349 5.731,7.077 6.020 C 6.692 6.427,6.360 6.518,5.255 6.519 C 4.699 6.520,4.564 6.533,4.288 6.613 C 3.872 6.733,3.566 6.917,3.242 7.242 C 2.922 7.561,2.739 7.864,2.603 8.294 L 2.500 8.620 2.500 13.480 C 2.500 18.038,2.504 18.356,2.572 18.593 C 2.838 19.528,3.447 20.146,4.380 20.425 C 4.606 20.493,5.025 20.498,11.700 20.510 C 16.315 20.519,18.922 20.509,19.189 20.482 C 20.296 20.372,21.106 19.697,21.424 18.620 C 21.490 18.399,21.497 18.065,21.510 14.300 C 21.519 12.056,21.513 10.122,21.499 10.002 C 21.478 9.829,21.445 9.757,21.340 9.652 C 21.226 9.538,21.181 9.520,21.009 9.520 C 20.799 9.520,20.647 9.604,20.550 9.773 C 20.511 9.840,20.495 10.831,20.480 14.140 L 20.460 18.420 20.372 18.610 C 20.253 18.868,19.913 19.218,19.664 19.339 C 19.552 19.394,19.334 19.456,19.180 19.478 C 18.798 19.533,5.202 19.533,4.820 19.478 C 4.666 19.456,4.449 19.394,4.339 19.341 C 4.075 19.212,3.784 18.918,3.649 18.641 L 3.540 18.420 3.540 13.500 L 3.540 8.580 3.649 8.359 C 3.787 8.076,4.076 7.787,4.359 7.649 C 4.573 7.544,4.609 7.539,5.460 7.514 C 6.636 7.480,7.022 7.375,7.571 6.940 C 8.126 6.500,8.415 5.907,8.504 5.022 C 8.524 4.823,8.549 4.763,8.660 4.652 L 8.792 4.520 10.366 4.519 C 11.232 4.519,12.012 4.501,12.100 4.481 C 12.343 4.425,12.480 4.250,12.480 3.995 C 12.480 3.817,12.463 3.775,12.344 3.656 L 12.208 3.520 10.434 3.522 C 8.796 3.524,8.645 3.529,8.468 3.599 M14.656 5.656 C 14.537 5.775,14.520 5.817,14.520 5.995 C 14.520 6.250,14.657 6.425,14.900 6.481 C 15.110 6.530,20.890 6.530,21.100 6.481 C 21.343 6.425,21.480 6.250,21.480 5.995 C 21.480 5.817,21.463 5.775,21.344 5.656 L 21.208 5.520 18.000 5.520 L 14.792 5.520 14.656 5.656 M11.259 9.576 C 10.065 9.848,9.079 10.739,8.676 11.910 C 8.543 12.294,8.541 12.310,8.541 13.000 C 8.541 13.687,8.543 13.707,8.672 14.080 C 8.863 14.634,9.117 15.037,9.540 15.460 C 9.963 15.883,10.366 16.137,10.920 16.328 C 11.293 16.457,11.313 16.459,12.000 16.459 C 12.688 16.459,12.706 16.457,13.079 16.327 C 13.288 16.255,13.558 16.139,13.679 16.071 C 14.449 15.635,15.035 14.930,15.324 14.090 C 15.457 13.705,15.459 13.690,15.459 13.000 C 15.459 12.310,15.457 12.295,15.324 11.910 C 15.035 11.070,14.449 10.365,13.679 9.929 C 13.558 9.861,13.288 9.747,13.079 9.676 C 12.730 9.557,12.653 9.546,12.100 9.534 C 11.694 9.526,11.422 9.539,11.259 9.576 M12.834 10.640 C 13.142 10.749,13.615 11.059,13.818 11.283 C 14.048 11.538,14.266 11.898,14.368 12.192 C 14.446 12.421,14.460 12.540,14.460 13.000 C 14.460 13.460,14.446 13.579,14.368 13.808 C 14.190 14.320,13.844 14.765,13.378 15.076 C 12.916 15.385,12.647 15.460,12.000 15.460 C 11.540 15.460,11.421 15.446,11.192 15.368 C 10.898 15.266,10.538 15.048,10.283 14.818 C 10.058 14.615,9.749 14.141,9.640 13.834 C 9.516 13.481,9.484 12.763,9.577 12.399 C 9.803 11.515,10.484 10.821,11.360 10.581 C 11.694 10.489,12.500 10.522,12.834 10.640 " stroke="none" fill="black" fill-rule="evenodd"></path></svg>