<svg xmlns="http://www.w3.org/2000/svg" class="icon icon-tabler icon-tabler-camera-plus" width="24" height="24" viewBox="0 0 24 24" stroke-width="1" stroke="currentColor" fill="none" stroke-linecap="round" stroke-linejoin="round"><path d="M17.679 2.630 C 17.605 2.696,17.541 2.804,17.519 2.900 C 17.499 2.988,17.481 3.614,17.481 4.290 L 17.480 5.520 16.136 5.520 L 14.792 5.520 14.656 5.656 C 14.537 5.775,14.520 5.817,14.520 5.995 C 14.520 6.250,14.657 6.425,14.900 6.481 C 14.988 6.501,15.605 6.519,16.270 6.519 L 17.480 6.520 17.481 7.730 C 17.481 8.396,17.499 9.012,17.519 9.100 C 17.574 9.341,17.751 9.480,18.000 9.480 C 18.249 9.480,18.426 9.341,18.481 9.100 C 18.501 9.012,18.519 8.396,18.519 7.730 L 18.520 6.520 19.730 6.519 C 20.395 6.519,21.012 6.501,21.100 6.481 C 21.343 6.425,21.480 6.250,21.480 5.995 C 21.480 5.817,21.463 5.775,21.344 5.656 L 21.208 5.520 19.864 5.520 L 18.520 5.520 18.519 4.290 C 18.519 3.614,18.501 2.988,18.481 2.900 C 18.426 2.659,18.249 2.520,18.000 2.520 C 17.840 2.520,17.778 2.541,17.679 2.630 M8.468 3.599 C 8.125 3.733,7.822 4.011,7.659 4.340 C 7.593 4.475,7.541 4.688,7.501 4.993 C 7.429 5.539,7.349 5.731,7.077 6.020 C 6.700 6.418,6.353 6.518,5.346 6.519 L 4.792 6.520 4.656 6.656 C 4.581 6.731,4.519 6.825,4.518 6.866 C 4.517 6.915,4.499 6.899,4.463 6.817 C 4.434 6.749,4.360 6.654,4.299 6.607 C 4.061 6.419,3.242 6.543,2.735 6.843 C 2.438 7.019,2.019 7.438,1.843 7.735 C 1.768 7.863,1.660 8.114,1.603 8.294 L 1.500 8.620 1.500 13.480 C 1.500 18.038,1.504 18.356,1.572 18.593 C 1.838 19.528,2.447 20.146,3.380 20.425 C 3.606 20.493,4.025 20.498,10.700 20.510 C 15.315 20.519,17.922 20.509,18.189 20.482 C 19.296 20.372,20.107 19.696,20.424 18.620 C 20.489 18.400,20.496 18.079,20.510 14.800 C 20.519 12.831,20.514 11.122,20.499 11.002 C 20.478 10.829,20.445 10.757,20.340 10.652 C 20.226 10.538,20.181 10.520,20.009 10.520 C 19.799 10.520,19.647 10.604,19.550 10.773 C 19.511 10.840,19.495 11.730,19.480 14.640 L 19.460 18.420 19.372 18.610 C 19.253 18.868,18.913 19.218,18.664 19.339 C 18.552 19.394,18.334 19.456,18.180 19.478 C 17.798 19.533,4.202 19.533,3.820 19.478 C 3.666 19.456,3.449 19.394,3.339 19.341 C 3.075 19.212,2.784 18.918,2.649 18.641 L 2.540 18.420 2.540 13.500 L 2.540 8.580 2.649 8.359 C 2.786 8.080,3.075 7.788,3.346 7.655 C 3.472 7.594,3.680 7.538,3.868 7.515 C 4.209 7.474,4.345 7.403,4.441 7.215 L 4.502 7.096 4.561 7.215 C 4.593 7.281,4.671 7.372,4.733 7.418 C 4.838 7.494,4.899 7.500,5.593 7.496 C 6.165 7.493,6.401 7.476,6.600 7.423 C 7.178 7.269,7.665 6.944,8.001 6.488 C 8.305 6.076,8.437 5.691,8.504 5.022 C 8.524 4.823,8.549 4.763,8.660 4.652 L 8.792 4.520 9.866 4.519 C 10.457 4.519,11.012 4.501,11.100 4.481 C 11.343 4.425,11.480 4.250,11.480 3.995 C 11.480 3.817,11.463 3.775,11.344 3.656 L 11.208 3.520 9.934 3.522 C 8.785 3.524,8.641 3.531,8.468 3.599 M11.259 9.576 C 10.065 9.848,9.079 10.739,8.676 11.910 C 8.543 12.294,8.541 12.310,8.541 13.000 C 8.541 13.687,8.543 13.707,8.672 14.080 C 8.863 14.634,9.117 15.037,9.540 15.460 C 9.963 15.883,10.366 16.137,10.920 16.328 C 11.293 16.457,11.313 16.459,12.000 16.459 C 12.688 16.459,12.706 16.457,13.079 16.327 C 13.288 16.255,13.558 16.139,13.679 16.071 C 14.449 15.635,15.035 14.930,15.324 14.090 C 15.457 13.705,15.459 13.690,15.459 13.000 C 15.459 12.310,15.457 12.295,15.324 11.910 C 15.035 11.070,14.449 10.365,13.679 9.929 C 13.558 9.861,13.288 9.747,13.079 9.676 C 12.730 9.557,12.653 9.546,12.100 9.534 C 11.694 9.526,11.422 9.539,11.259 9.576 M12.834 10.640 C 13.142 10.749,13.615 11.059,13.818 11.283 C 14.048 11.538,14.266 11.898,14.368 12.192 C 14.446 12.421,14.460 12.540,14.460 13.000 C 14.460 13.460,14.446 13.579,14.368 13.808 C 14.190 14.320,13.844 14.765,13.378 15.076 C 12.916 15.385,12.647 15.460,12.000 15.460 C 11.540 15.460,11.421 15.446,11.192 15.368 C 10.898 15.266,10.538 15.048,10.283 14.818 C 10.058 14.615,9.749 14.141,9.640 13.834 C 9.516 13.481,9.484 12.763,9.577 12.399 C 9.803 11.515,10.484 10.821,11.360 10.581 C 11.694 10.489,12.500 10.522,12.834 10.640 " stroke="none" fill="black" fill-rule="evenodd"></path></svg>