<svg xmlns="http://www.w3.org/2000/svg" class="icon icon-tabler icon-tabler-capture" width="24" height="24" viewBox="0 0 24 24" stroke-width="1" stroke="currentColor" fill="none" stroke-linecap="round" stroke-linejoin="round"><path d="M5.274 3.615 C 4.870 3.734,4.561 3.922,4.242 4.242 C 3.918 4.565,3.735 4.869,3.608 5.294 C 3.519 5.593,3.509 5.707,3.490 6.685 C 3.465 8.003,3.482 8.170,3.660 8.348 C 3.774 8.462,3.819 8.480,3.991 8.480 C 4.201 8.480,4.353 8.396,4.450 8.227 C 4.486 8.165,4.506 7.775,4.520 6.860 L 4.540 5.580 4.649 5.359 C 4.787 5.076,5.076 4.787,5.359 4.649 L 5.580 4.540 6.860 4.520 C 7.775 4.506,8.165 4.486,8.227 4.450 C 8.396 4.353,8.480 4.201,8.480 3.991 C 8.480 3.818,8.462 3.774,8.344 3.656 L 8.208 3.520 6.894 3.522 C 5.649 3.524,5.564 3.529,5.274 3.615 M15.656 3.656 C 15.538 3.774,15.520 3.818,15.520 3.991 C 15.520 4.201,15.604 4.353,15.773 4.450 C 15.835 4.486,16.225 4.506,17.140 4.520 L 18.420 4.540 18.641 4.649 C 18.924 4.787,19.213 5.076,19.351 5.359 L 19.460 5.580 19.480 6.860 C 19.494 7.775,19.514 8.165,19.550 8.227 C 19.647 8.396,19.799 8.480,20.009 8.480 C 20.181 8.480,20.226 8.462,20.340 8.348 C 20.519 8.169,20.536 8.001,20.508 6.685 C 20.491 5.869,20.471 5.564,20.420 5.380 C 20.168 4.473,19.505 3.814,18.607 3.582 C 18.416 3.532,18.114 3.520,17.080 3.520 L 15.792 3.520 15.656 3.656 M11.259 8.576 C 10.065 8.848,9.079 9.739,8.676 10.910 C 8.543 11.294,8.541 11.310,8.541 12.000 C 8.541 12.687,8.543 12.707,8.672 13.080 C 8.863 13.634,9.117 14.037,9.540 14.460 C 9.963 14.883,10.366 15.137,10.920 15.328 C 11.293 15.457,11.313 15.459,12.000 15.459 C 12.688 15.459,12.706 15.457,13.079 15.327 C 13.288 15.255,13.558 15.139,13.679 15.071 C 14.449 14.635,15.035 13.930,15.324 13.090 C 15.457 12.705,15.459 12.690,15.459 12.000 C 15.459 11.310,15.457 11.295,15.324 10.910 C 15.035 10.070,14.449 9.365,13.679 8.929 C 13.558 8.861,13.288 8.747,13.079 8.676 C 12.730 8.557,12.653 8.546,12.100 8.534 C 11.694 8.526,11.422 8.539,11.259 8.576 M12.834 9.640 C 13.142 9.749,13.615 10.059,13.818 10.283 C 14.048 10.538,14.266 10.898,14.368 11.192 C 14.446 11.421,14.460 11.540,14.460 12.000 C 14.460 12.460,14.446 12.579,14.368 12.808 C 14.190 13.320,13.844 13.765,13.378 14.076 C 12.916 14.385,12.647 14.460,12.000 14.460 C 11.540 14.460,11.421 14.446,11.192 14.368 C 10.898 14.266,10.538 14.048,10.283 13.818 C 10.058 13.615,9.749 13.141,9.640 12.834 C 9.516 12.481,9.484 11.763,9.577 11.399 C 9.803 10.515,10.484 9.821,11.360 9.581 C 11.694 9.489,12.500 9.522,12.834 9.640 M3.660 15.652 C 3.481 15.831,3.464 15.999,3.492 17.315 C 3.508 18.125,3.529 18.436,3.579 18.614 C 3.834 19.525,4.477 20.170,5.380 20.420 C 5.564 20.471,5.869 20.491,6.685 20.508 C 8.001 20.536,8.169 20.519,8.348 20.340 C 8.463 20.225,8.480 20.181,8.480 20.005 C 8.480 19.837,8.460 19.779,8.363 19.671 L 8.247 19.540 6.993 19.516 C 5.595 19.489,5.479 19.470,5.135 19.216 C 4.891 19.035,4.697 18.784,4.597 18.522 C 4.528 18.339,4.520 18.206,4.519 17.190 C 4.519 16.568,4.501 15.988,4.481 15.900 C 4.425 15.657,4.250 15.520,3.995 15.520 C 3.819 15.520,3.775 15.537,3.660 15.652 M19.705 15.603 C 19.504 15.761,19.501 15.781,19.480 17.140 C 19.461 18.350,19.455 18.430,19.372 18.610 C 19.253 18.868,18.913 19.218,18.664 19.339 C 18.366 19.484,18.023 19.518,16.846 19.519 L 15.792 19.520 15.656 19.656 C 15.536 19.776,15.520 19.817,15.520 20.000 C 15.520 20.182,15.537 20.225,15.652 20.340 C 15.831 20.519,15.999 20.536,17.315 20.508 C 18.125 20.492,18.436 20.471,18.614 20.421 C 19.525 20.166,20.170 19.523,20.420 18.620 C 20.471 18.436,20.491 18.131,20.508 17.315 C 20.536 15.999,20.519 15.831,20.340 15.652 C 20.226 15.538,20.181 15.520,20.009 15.520 C 19.869 15.520,19.780 15.544,19.705 15.603 " stroke="none" fill="black" fill-rule="evenodd"></path></svg>