<svg xmlns="http://www.w3.org/2000/svg" class="icon icon-tabler icon-tabler-car" width="24" height="24" viewBox="0 0 24 24" stroke-width="1" stroke="currentColor" fill="none" stroke-linecap="round" stroke-linejoin="round"><path d="M4.682 5.630 C 4.587 5.718,4.360 6.248,3.532 8.320 L 2.500 10.900 2.500 14.022 C 2.500 16.937,2.505 17.151,2.571 17.251 C 2.724 17.486,2.781 17.499,3.704 17.513 L 4.552 17.527 4.642 17.806 C 4.805 18.315,5.147 18.759,5.617 19.073 C 6.066 19.373,6.387 19.460,7.040 19.459 C 7.549 19.458,7.598 19.450,7.888 19.334 C 8.601 19.048,9.139 18.488,9.359 17.803 L 9.450 17.520 12.000 17.520 L 14.550 17.520 14.643 17.808 C 14.871 18.518,15.483 19.127,16.207 19.364 C 16.459 19.447,16.576 19.460,17.040 19.459 C 17.549 19.458,17.598 19.450,17.888 19.334 C 18.599 19.048,19.139 18.488,19.358 17.806 L 19.448 17.527 20.296 17.513 C 21.219 17.499,21.276 17.486,21.429 17.251 C 21.494 17.153,21.501 16.977,21.512 15.182 C 21.518 14.103,21.506 13.047,21.485 12.836 C 21.380 11.785,20.782 10.991,19.839 10.650 C 19.571 10.553,19.474 10.541,18.895 10.528 L 18.250 10.513 16.300 8.076 C 15.228 6.735,14.313 5.612,14.266 5.579 C 14.193 5.528,13.562 5.520,9.492 5.520 L 4.801 5.520 4.682 5.630 M11.480 8.520 L 11.480 10.520 7.620 10.520 C 5.076 10.520,3.760 10.506,3.760 10.480 C 3.760 10.458,4.113 9.558,4.544 8.480 L 5.328 6.520 8.404 6.520 L 11.480 6.520 11.480 8.520 M15.332 8.463 C 16.186 9.531,16.894 10.431,16.907 10.463 C 16.925 10.512,16.622 10.520,14.724 10.520 L 12.520 10.520 12.520 8.520 L 12.520 6.520 13.150 6.521 L 13.780 6.521 15.332 8.463 M19.641 11.649 C 19.924 11.787,20.213 12.076,20.351 12.359 L 20.460 12.580 20.471 14.550 L 20.483 16.520 19.981 16.520 C 19.497 16.520,19.477 16.517,19.443 16.430 C 19.424 16.381,19.362 16.214,19.305 16.060 C 19.085 15.469,18.529 14.921,17.900 14.673 C 17.625 14.565,17.516 14.545,17.120 14.529 C 16.731 14.514,16.608 14.525,16.330 14.600 C 15.552 14.810,14.902 15.422,14.642 16.189 L 14.536 16.500 12.007 16.510 L 9.479 16.521 9.444 16.430 C 9.424 16.381,9.362 16.214,9.305 16.060 C 9.085 15.469,8.529 14.921,7.900 14.673 C 7.625 14.565,7.516 14.545,7.120 14.529 C 6.731 14.514,6.608 14.525,6.330 14.600 C 5.552 14.810,4.902 15.422,4.642 16.189 L 4.536 16.500 4.028 16.511 L 3.520 16.522 3.520 14.021 L 3.520 11.519 11.470 11.530 L 19.420 11.540 19.641 11.649 M7.641 15.649 C 7.924 15.787,8.213 16.076,8.351 16.359 C 8.449 16.557,8.460 16.624,8.460 17.000 C 8.460 17.348,8.445 17.453,8.372 17.610 C 8.250 17.875,7.912 18.218,7.644 18.350 C 7.443 18.449,7.377 18.460,7.000 18.460 C 6.624 18.460,6.557 18.449,6.359 18.351 C 6.076 18.213,5.787 17.924,5.649 17.641 C 5.499 17.337,5.474 16.802,5.593 16.488 C 5.743 16.094,6.077 15.753,6.468 15.597 C 6.766 15.478,7.345 15.503,7.641 15.649 M17.641 15.649 C 17.924 15.787,18.213 16.076,18.351 16.359 C 18.449 16.557,18.460 16.624,18.460 17.000 C 18.460 17.348,18.445 17.453,18.372 17.610 C 18.250 17.875,17.912 18.218,17.644 18.350 C 17.443 18.449,17.377 18.460,17.000 18.460 C 16.624 18.460,16.557 18.449,16.359 18.351 C 16.076 18.213,15.787 17.924,15.649 17.641 C 15.499 17.337,15.474 16.802,15.593 16.488 C 15.743 16.094,16.077 15.753,16.468 15.597 C 16.766 15.478,17.345 15.503,17.641 15.649 " stroke="none" fill="black" fill-rule="evenodd"></path></svg>