<svg xmlns="http://www.w3.org/2000/svg" class="icon icon-tabler icon-tabler-caret-up" width="24" height="24" viewBox="0 0 24 24" stroke-width="1" stroke="currentColor" fill="none" stroke-linecap="round" stroke-linejoin="round"><path d="M8.650 11.650 L 5.520 14.781 5.520 14.990 C 5.520 15.250,5.655 15.425,5.900 15.481 C 6.113 15.530,17.887 15.530,18.100 15.481 C 18.345 15.425,18.480 15.250,18.480 14.990 L 18.480 14.781 15.350 11.650 L 12.219 8.520 12.000 8.520 L 11.781 8.520 8.650 11.650 M14.390 12.090 C 15.693 13.393,16.760 14.473,16.760 14.490 C 16.760 14.506,14.618 14.520,12.000 14.520 C 9.382 14.520,7.240 14.507,7.240 14.490 C 7.240 14.457,11.967 9.720,12.000 9.720 C 12.011 9.720,13.086 10.786,14.390 12.090 " stroke="none" fill="black" fill-rule="evenodd"></path></svg>