<svg xmlns="http://www.w3.org/2000/svg" class="icon icon-tabler icon-tabler-caret-left" width="24" height="24" viewBox="0 0 24 24" stroke-width="1" stroke="currentColor" fill="none" stroke-linecap="round" stroke-linejoin="round"><path d="M11.650 8.650 L 8.520 11.781 8.520 12.000 L 8.520 12.219 11.650 15.350 L 14.781 18.480 14.990 18.480 C 15.263 18.480,15.431 18.343,15.482 18.079 C 15.529 17.835,15.528 6.104,15.481 5.900 C 15.425 5.655,15.250 5.520,14.990 5.520 L 14.781 5.520 11.650 8.650 M14.480 12.010 L 14.480 16.780 12.090 14.390 L 9.700 12.000 12.080 9.620 C 13.389 8.311,14.464 7.240,14.470 7.240 C 14.475 7.240,14.480 9.386,14.480 12.010 " stroke="none" fill="black" fill-rule="evenodd"></path></svg>