<svg xmlns="http://www.w3.org/2000/svg" class="icon icon-tabler icon-tabler-cash" width="24" height="24" viewBox="0 0 24 24" stroke-width="1" stroke="currentColor" fill="none" stroke-linecap="round" stroke-linejoin="round"><path d="M4.274 4.615 C 3.870 4.735,3.561 4.922,3.242 5.242 C 2.922 5.561,2.738 5.864,2.603 6.294 L 2.501 6.620 2.500 9.980 C 2.500 13.116,2.505 13.357,2.573 13.600 C 2.835 14.529,3.471 15.167,4.386 15.420 C 4.555 15.467,4.876 15.491,5.544 15.508 L 6.469 15.531 6.492 16.456 C 6.517 17.455,6.551 17.660,6.762 18.100 C 7.070 18.741,7.629 19.198,8.386 19.426 C 8.603 19.491,8.990 19.497,13.700 19.510 C 16.980 19.519,18.925 19.509,19.189 19.483 C 20.305 19.371,21.121 18.684,21.427 17.600 C 21.495 17.357,21.500 17.116,21.500 14.000 C 21.500 10.884,21.495 10.643,21.427 10.400 C 21.196 9.582,20.665 8.980,19.900 8.671 L 19.580 8.541 18.556 8.528 L 17.531 8.514 17.508 7.567 C 17.483 6.543,17.451 6.343,17.238 5.900 C 16.978 5.358,16.491 4.911,15.900 4.670 L 15.580 4.540 10.080 4.532 L 4.580 4.524 4.274 4.615 M15.641 5.649 C 15.924 5.787,16.213 6.076,16.351 6.359 C 16.459 6.578,16.460 6.587,16.473 7.550 L 16.485 8.520 12.547 8.520 L 8.609 8.520 8.288 8.613 C 7.872 8.733,7.566 8.917,7.242 9.242 C 6.920 9.563,6.737 9.867,6.606 10.294 C 6.506 10.619,6.506 10.625,6.489 12.575 L 6.473 14.530 5.606 14.510 C 4.630 14.487,4.455 14.452,4.135 14.216 C 3.891 14.035,3.697 13.784,3.597 13.522 C 3.523 13.328,3.520 13.179,3.520 10.000 C 3.520 6.821,3.523 6.672,3.597 6.478 C 3.743 6.093,4.084 5.749,4.468 5.599 C 4.653 5.526,4.856 5.524,10.040 5.532 L 15.420 5.540 15.641 5.649 M19.641 9.649 C 19.924 9.787,20.213 10.076,20.351 10.359 L 20.460 10.580 20.460 14.000 L 20.460 17.420 20.372 17.610 C 20.253 17.868,19.913 18.218,19.664 18.339 C 19.552 18.394,19.334 18.456,19.180 18.478 C 18.800 18.533,9.200 18.533,8.820 18.478 C 8.666 18.456,8.449 18.394,8.339 18.341 C 8.075 18.212,7.784 17.918,7.649 17.641 L 7.540 17.420 7.529 14.052 C 7.519 10.801,7.521 10.677,7.596 10.480 C 7.743 10.093,8.083 9.749,8.468 9.599 C 8.653 9.526,8.856 9.524,14.040 9.532 L 19.420 9.540 19.641 9.649 M13.274 11.613 C 12.869 11.736,12.560 11.923,12.242 12.241 C 11.718 12.764,11.500 13.331,11.528 14.098 C 11.541 14.446,11.567 14.603,11.652 14.839 C 11.908 15.557,12.492 16.130,13.207 16.364 C 13.459 16.447,13.576 16.460,14.040 16.459 C 14.553 16.457,14.596 16.451,14.900 16.328 C 15.882 15.933,16.480 15.053,16.480 14.000 C 16.480 12.947,15.879 12.061,14.900 11.673 C 14.612 11.559,14.530 11.545,14.080 11.533 C 13.647 11.521,13.539 11.532,13.274 11.613 M14.641 12.649 C 14.924 12.787,15.213 13.076,15.351 13.359 C 15.449 13.557,15.460 13.624,15.460 14.000 C 15.460 14.348,15.445 14.453,15.372 14.610 C 15.250 14.875,14.912 15.218,14.644 15.350 C 14.443 15.449,14.377 15.460,14.000 15.460 C 13.624 15.460,13.557 15.449,13.359 15.351 C 13.076 15.213,12.787 14.924,12.649 14.641 C 12.499 14.337,12.474 13.802,12.593 13.488 C 12.743 13.094,13.077 12.753,13.468 12.597 C 13.766 12.478,14.345 12.503,14.641 12.649 " stroke="none" fill="black" fill-rule="evenodd"></path></svg>