<svg xmlns="http://www.w3.org/2000/svg" class="icon icon-tabler icon-tabler-cast" width="24" height="24" viewBox="0 0 24 24" stroke-width="1" stroke="currentColor" fill="none" stroke-linecap="round" stroke-linejoin="round"><path d="M5.300 4.580 C 4.199 4.828,3.321 5.534,2.854 6.545 C 2.669 6.944,2.670 7.158,2.856 7.344 C 2.974 7.462,3.018 7.480,3.191 7.480 C 3.465 7.480,3.555 7.396,3.781 6.930 C 4.112 6.249,4.706 5.760,5.423 5.580 C 5.637 5.526,6.446 5.520,12.123 5.529 L 18.580 5.540 18.834 5.635 C 19.147 5.752,19.619 6.063,19.818 6.283 C 20.036 6.524,20.260 6.888,20.367 7.171 L 20.460 7.420 20.471 11.896 C 20.483 16.813,20.493 16.587,20.241 17.100 C 19.923 17.747,19.345 18.219,18.620 18.424 C 18.415 18.482,18.118 18.495,16.582 18.510 L 14.784 18.528 14.652 18.660 C 14.537 18.775,14.520 18.819,14.520 18.995 C 14.520 19.250,14.657 19.425,14.900 19.481 C 15.116 19.531,17.706 19.529,18.276 19.479 C 19.158 19.401,19.835 19.085,20.460 18.460 C 21.085 17.835,21.401 17.158,21.479 16.276 C 21.532 15.672,21.533 8.330,21.479 7.725 C 21.408 6.920,21.097 6.205,20.571 5.637 C 20.147 5.179,19.696 4.888,19.079 4.672 L 18.700 4.540 12.120 4.533 C 6.709 4.527,5.497 4.535,5.300 4.580 M2.656 10.656 C 2.537 10.775,2.520 10.817,2.520 10.995 C 2.520 11.373,2.749 11.517,3.355 11.519 C 3.517 11.520,3.841 11.548,4.075 11.582 C 7.088 12.025,9.529 14.233,10.278 17.195 C 10.385 17.619,10.480 18.295,10.481 18.645 C 10.483 19.251,10.627 19.480,11.005 19.480 C 11.183 19.480,11.225 19.463,11.344 19.344 L 11.480 19.208 11.480 18.773 C 11.480 17.303,10.948 15.601,10.085 14.314 C 9.203 12.999,8.109 12.044,6.700 11.359 C 5.581 10.816,4.369 10.520,3.261 10.520 L 2.792 10.520 2.656 10.656 M2.661 14.651 C 2.538 14.774,2.520 14.817,2.520 14.991 C 2.520 15.198,2.606 15.358,2.763 15.442 C 2.806 15.465,3.041 15.501,3.285 15.522 C 4.377 15.618,5.321 16.180,5.921 17.091 C 6.286 17.645,6.413 18.058,6.504 18.978 C 6.524 19.177,6.549 19.237,6.660 19.348 C 6.775 19.463,6.818 19.480,7.000 19.480 C 7.185 19.480,7.224 19.464,7.349 19.339 L 7.491 19.197 7.469 18.709 C 7.371 16.477,5.523 14.629,3.291 14.531 L 2.803 14.509 2.661 14.651 M2.656 18.656 C 2.458 18.854,2.458 19.146,2.656 19.344 C 2.775 19.463,2.818 19.480,2.993 19.480 C 3.477 19.480,3.682 18.931,3.314 18.621 C 3.220 18.542,3.150 18.520,2.993 18.520 C 2.818 18.520,2.775 18.537,2.656 18.656 " stroke="none" fill="black" fill-rule="evenodd"></path></svg>