<svg xmlns="http://www.w3.org/2000/svg" class="icon icon-tabler icon-tabler-chart-candle" width="24" height="24" viewBox="0 0 24 24" stroke-width="1" stroke="currentColor" fill="none" stroke-linecap="round" stroke-linejoin="round"><path d="M5.679 3.630 C 5.509 3.782,5.482 3.941,5.481 4.787 L 5.480 5.513 5.030 5.527 C 4.637 5.538,4.552 5.554,4.359 5.649 C 4.083 5.784,3.788 6.075,3.659 6.339 C 3.499 6.667,3.472 7.048,3.490 8.726 C 3.503 10.023,3.516 10.292,3.573 10.465 C 3.710 10.884,4.128 11.300,4.531 11.420 C 4.641 11.452,4.900 11.491,5.106 11.506 L 5.480 11.532 5.481 15.736 C 5.482 18.159,5.498 20.008,5.519 20.100 C 5.574 20.341,5.751 20.480,6.000 20.480 C 6.249 20.480,6.426 20.341,6.481 20.100 C 6.502 20.008,6.518 18.159,6.519 15.736 L 6.520 11.532 6.894 11.506 C 7.100 11.491,7.359 11.452,7.469 11.420 C 7.872 11.300,8.290 10.884,8.427 10.465 C 8.484 10.292,8.497 10.023,8.510 8.726 C 8.528 7.048,8.501 6.667,8.341 6.339 C 8.212 6.075,7.917 5.784,7.641 5.649 C 7.449 5.555,7.361 5.538,6.970 5.526 L 6.520 5.511 6.519 4.786 C 6.518 3.941,6.491 3.782,6.321 3.630 C 6.222 3.541,6.160 3.520,6.000 3.520 C 5.840 3.520,5.778 3.541,5.679 3.630 M11.679 3.630 C 11.605 3.696,11.541 3.804,11.519 3.900 C 11.497 3.993,11.482 6.044,11.481 8.787 L 11.480 13.513 11.030 13.527 C 10.637 13.538,10.552 13.554,10.359 13.649 C 10.083 13.784,9.788 14.075,9.659 14.339 C 9.499 14.667,9.472 15.048,9.490 16.726 C 9.503 18.023,9.516 18.292,9.573 18.465 C 9.710 18.884,10.128 19.300,10.531 19.420 C 10.641 19.452,10.900 19.491,11.106 19.506 L 11.480 19.532 11.481 19.736 C 11.483 20.244,11.648 20.480,12.000 20.480 C 12.352 20.480,12.517 20.244,12.519 19.736 L 12.520 19.532 12.894 19.506 C 13.100 19.491,13.359 19.452,13.469 19.420 C 13.872 19.300,14.290 18.884,14.427 18.465 C 14.484 18.292,14.497 18.023,14.510 16.726 C 14.528 15.048,14.501 14.667,14.341 14.339 C 14.212 14.075,13.917 13.784,13.641 13.649 C 13.449 13.555,13.361 13.538,12.970 13.526 L 12.520 13.511 12.519 8.786 C 12.518 6.044,12.503 3.993,12.481 3.900 C 12.426 3.659,12.249 3.520,12.000 3.520 C 11.840 3.520,11.778 3.541,11.679 3.630 M17.679 3.630 C 17.540 3.754,17.482 3.945,17.481 4.287 L 17.480 4.513 17.030 4.527 C 16.637 4.538,16.552 4.554,16.359 4.649 C 16.083 4.784,15.788 5.075,15.659 5.339 C 15.494 5.677,15.474 6.021,15.489 8.221 C 15.502 10.006,15.513 10.285,15.572 10.465 C 15.711 10.885,16.128 11.300,16.531 11.420 C 16.641 11.452,16.900 11.491,17.106 11.506 L 17.480 11.532 17.481 15.736 C 17.482 18.159,17.498 20.008,17.519 20.100 C 17.574 20.341,17.751 20.480,18.000 20.480 C 18.249 20.480,18.426 20.341,18.481 20.100 C 18.502 20.008,18.518 18.159,18.519 15.736 L 18.520 11.532 18.894 11.506 C 19.100 11.491,19.359 11.452,19.469 11.420 C 19.872 11.300,20.289 10.885,20.428 10.465 C 20.487 10.285,20.498 10.006,20.511 8.221 C 20.526 6.021,20.506 5.677,20.341 5.339 C 20.212 5.075,19.917 4.784,19.641 4.649 C 19.449 4.555,19.361 4.538,18.970 4.526 L 18.520 4.511 18.519 4.286 C 18.517 3.755,18.357 3.520,18.000 3.520 C 17.840 3.520,17.778 3.541,17.679 3.630 M19.344 5.656 L 19.480 5.792 19.480 7.995 L 19.480 10.199 19.370 10.321 C 19.304 10.395,19.197 10.458,19.103 10.479 C 18.900 10.525,17.100 10.525,16.897 10.479 C 16.803 10.458,16.696 10.395,16.630 10.321 L 16.520 10.199 16.520 7.995 L 16.520 5.792 16.656 5.656 L 16.792 5.520 18.000 5.520 L 19.208 5.520 19.344 5.656 M7.344 6.656 L 7.480 6.792 7.480 8.495 L 7.480 10.199 7.370 10.321 C 7.304 10.395,7.197 10.458,7.103 10.479 C 7.017 10.499,6.521 10.515,6.000 10.515 C 5.479 10.515,4.983 10.499,4.897 10.479 C 4.803 10.458,4.696 10.395,4.630 10.321 L 4.520 10.199 4.520 8.495 L 4.520 6.792 4.656 6.656 L 4.792 6.520 6.000 6.520 L 7.208 6.520 7.344 6.656 M13.344 14.656 L 13.480 14.792 13.480 16.495 L 13.480 18.199 13.370 18.321 C 13.304 18.395,13.197 18.458,13.103 18.479 C 13.017 18.499,12.521 18.515,12.000 18.515 C 11.479 18.515,10.983 18.499,10.897 18.479 C 10.803 18.458,10.696 18.395,10.630 18.321 L 10.520 18.199 10.520 16.495 L 10.520 14.792 10.656 14.656 L 10.792 14.520 12.000 14.520 L 13.208 14.520 13.344 14.656 " stroke="none" fill="black" fill-rule="evenodd"></path></svg>