<svg xmlns="http://www.w3.org/2000/svg" class="icon icon-tabler icon-tabler-chart-bar" width="24" height="24" viewBox="0 0 24 24" stroke-width="1" stroke="currentColor" fill="none" stroke-linecap="round" stroke-linejoin="round"><path d="M15.468 3.598 C 15.069 3.755,14.702 4.139,14.573 4.535 C 14.517 4.706,14.504 4.972,14.490 6.140 L 14.473 7.540 12.081 7.529 C 9.786 7.518,9.680 7.520,9.482 7.595 C 9.216 7.697,8.966 7.890,8.784 8.135 C 8.521 8.491,8.508 8.577,8.490 10.140 L 8.473 11.540 6.027 11.540 L 3.580 11.540 3.359 11.649 C 3.083 11.784,2.788 12.075,2.659 12.339 C 2.487 12.690,2.475 12.978,2.489 16.220 C 2.501 18.968,2.509 19.280,2.571 19.465 C 2.716 19.894,3.127 20.298,3.556 20.431 C 3.766 20.496,4.311 20.500,12.000 20.500 C 19.689 20.500,20.234 20.496,20.444 20.431 C 20.873 20.298,21.283 19.896,21.430 19.465 C 21.495 19.273,21.501 18.801,21.512 12.220 C 21.520 7.458,21.510 5.076,21.481 4.860 C 21.458 4.679,21.397 4.453,21.341 4.339 C 21.212 4.075,20.917 3.784,20.641 3.649 L 20.420 3.540 18.040 3.531 C 15.788 3.523,15.650 3.527,15.468 3.598 M20.344 4.656 L 20.480 4.792 20.480 11.995 L 20.480 19.199 20.370 19.321 C 20.306 19.393,20.194 19.460,20.100 19.483 C 20.000 19.507,19.158 19.512,17.860 19.495 L 15.780 19.468 15.650 19.338 L 15.520 19.208 15.520 12.000 L 15.520 4.792 15.656 4.656 L 15.792 4.520 18.000 4.520 L 20.208 4.520 20.344 4.656 M14.344 8.656 L 14.480 8.792 14.480 14.000 L 14.480 19.208 14.344 19.344 L 14.208 19.480 12.000 19.480 L 9.792 19.480 9.656 19.344 L 9.520 19.208 9.520 14.000 L 9.520 8.792 9.656 8.656 L 9.792 8.520 12.000 8.520 L 14.208 8.520 14.344 8.656 M8.344 12.656 L 8.480 12.792 8.480 16.000 L 8.480 19.208 8.344 19.344 L 8.208 19.480 6.000 19.480 L 3.792 19.480 3.656 19.344 L 3.520 19.208 3.520 16.000 L 3.520 12.792 3.656 12.656 L 3.792 12.520 6.000 12.520 L 8.208 12.520 8.344 12.656 " stroke="none" fill="black" fill-rule="evenodd"></path></svg>