<svg xmlns="http://www.w3.org/2000/svg" class="icon icon-tabler icon-tabler-chart-area-line" width="24" height="24" viewBox="0 0 24 24" stroke-width="1" stroke="currentColor" fill="none" stroke-linecap="round" stroke-linejoin="round"><path d="M15.748 3.565 C 15.708 3.588,14.596 4.901,13.277 6.483 C 11.958 8.066,10.870 9.360,10.859 9.360 C 10.849 9.360,10.012 8.946,9.000 8.440 C 7.040 7.460,6.951 7.427,6.725 7.585 C 6.674 7.621,5.932 8.584,5.076 9.725 L 3.520 11.801 3.520 12.005 C 3.520 12.183,3.537 12.225,3.656 12.344 C 3.773 12.461,3.819 12.480,3.987 12.480 C 4.102 12.480,4.220 12.453,4.274 12.416 C 4.324 12.380,4.988 11.521,5.749 10.506 C 6.509 9.491,7.136 8.654,7.141 8.648 C 7.147 8.641,7.981 9.050,8.995 9.558 C 10.911 10.516,11.019 10.558,11.244 10.438 C 11.287 10.415,12.360 9.150,13.627 7.628 C 14.894 6.106,15.956 4.833,15.986 4.801 C 16.033 4.750,16.291 4.992,17.911 6.611 L 19.782 8.480 19.995 8.480 C 20.184 8.480,20.223 8.465,20.344 8.344 C 20.465 8.223,20.480 8.184,20.480 7.994 L 20.480 7.781 18.350 5.650 L 16.219 3.520 16.020 3.521 C 15.910 3.522,15.787 3.541,15.748 3.565 M15.748 9.564 C 15.708 9.588,14.846 10.645,13.833 11.913 C 12.819 13.182,11.959 14.253,11.921 14.293 C 11.854 14.363,11.781 14.331,10.006 13.443 C 8.042 12.461,7.951 12.427,7.726 12.584 C 7.676 12.619,6.714 14.028,5.588 15.714 C 3.611 18.675,3.540 18.787,3.527 18.990 C 3.514 19.185,3.523 19.211,3.648 19.336 C 3.758 19.446,3.826 19.477,4.002 19.498 C 4.122 19.512,7.803 19.518,12.182 19.512 C 19.709 19.501,20.149 19.496,20.251 19.429 C 20.512 19.259,20.499 19.393,20.512 16.682 C 20.519 15.328,20.513 14.121,20.500 14.000 L 20.474 13.780 18.347 11.650 L 16.219 9.520 16.020 9.521 C 15.910 9.522,15.787 9.541,15.748 9.564 M17.770 12.470 L 19.480 14.180 19.480 16.350 L 19.480 18.520 12.220 18.520 C 8.227 18.520,4.960 18.507,4.960 18.490 C 4.960 18.474,5.682 17.377,6.565 16.053 L 8.170 13.645 10.005 14.562 C 11.983 15.552,12.062 15.581,12.285 15.404 C 12.337 15.362,13.199 14.301,14.200 13.046 C 15.201 11.791,16.029 10.763,16.040 10.762 C 16.051 10.761,16.829 11.529,17.770 12.470 " stroke="none" fill="black" fill-rule="evenodd"></path></svg>