<svg xmlns="http://www.w3.org/2000/svg" class="icon icon-tabler icon-tabler-chart-area" width="24" height="24" viewBox="0 0 24 24" stroke-width="1" stroke="currentColor" fill="none" stroke-linecap="round" stroke-linejoin="round"><path d="M15.748 5.564 C 15.708 5.588,14.846 6.645,13.833 7.913 C 12.819 9.182,11.959 10.253,11.921 10.293 C 11.854 10.363,11.781 10.331,10.006 9.443 C 8.042 8.461,7.951 8.427,7.726 8.584 C 7.676 8.619,6.714 10.028,5.588 11.714 C 3.611 14.675,3.540 14.787,3.527 14.990 C 3.514 15.185,3.523 15.211,3.648 15.336 C 3.758 15.446,3.826 15.477,4.002 15.498 C 4.122 15.512,7.803 15.518,12.182 15.512 C 19.709 15.501,20.149 15.496,20.251 15.429 C 20.512 15.259,20.499 15.393,20.512 12.682 C 20.519 11.328,20.513 10.121,20.500 10.000 L 20.474 9.780 18.347 7.650 L 16.219 5.520 16.020 5.521 C 15.910 5.522,15.787 5.541,15.748 5.564 M17.770 8.470 L 19.480 10.180 19.480 12.350 L 19.480 14.520 12.220 14.520 C 8.227 14.520,4.960 14.507,4.960 14.490 C 4.960 14.474,5.682 13.377,6.565 12.053 L 8.170 9.645 10.005 10.562 C 11.983 11.552,12.062 11.581,12.285 11.404 C 12.337 11.362,13.199 10.301,14.200 9.046 C 15.201 7.791,16.029 6.763,16.040 6.762 C 16.051 6.761,16.829 7.529,17.770 8.470 M3.656 18.656 C 3.537 18.775,3.520 18.817,3.520 18.995 C 3.520 19.250,3.657 19.425,3.900 19.481 C 4.114 19.531,19.886 19.531,20.100 19.481 C 20.343 19.425,20.480 19.250,20.480 18.995 C 20.480 18.817,20.463 18.775,20.344 18.656 L 20.208 18.520 12.000 18.520 L 3.792 18.520 3.656 18.656 " stroke="none" fill="black" fill-rule="evenodd"></path></svg>