<svg xmlns="http://www.w3.org/2000/svg" class="icon icon-tabler icon-tabler-chart-donut" width="24" height="24" viewBox="0 0 24 24" stroke-width="1" stroke="currentColor" fill="none" stroke-linecap="round" stroke-linejoin="round"><path d="M9.580 2.797 C 8.431 3.093,7.301 3.645,6.284 4.408 C 5.809 4.765,5.038 5.512,4.661 5.980 C 3.820 7.026,3.162 8.325,2.843 9.570 C 2.301 11.686,2.479 13.836,3.363 15.848 C 3.808 16.859,4.503 17.866,5.320 18.680 C 8.243 21.592,12.657 22.294,16.334 20.430 C 18.144 19.512,19.654 17.986,20.539 16.180 C 21.019 15.201,21.303 14.288,21.270 13.832 C 21.235 13.342,20.911 12.879,20.441 12.649 L 20.220 12.540 18.015 12.529 L 15.809 12.517 15.685 12.622 C 15.599 12.694,15.540 12.798,15.495 12.953 C 15.056 14.491,13.630 15.562,12.026 15.559 C 10.404 15.557,9.008 14.485,8.551 12.892 C 8.431 12.471,8.422 11.527,8.534 11.100 C 8.861 9.860,9.837 8.850,11.042 8.506 C 11.301 8.432,11.433 8.309,11.482 8.094 C 11.535 7.867,11.530 4.147,11.476 3.859 C 11.371 3.290,10.968 2.867,10.406 2.734 C 10.107 2.664,10.091 2.665,9.580 2.797 M14.768 3.067 C 14.494 3.202,14.501 3.137,14.488 5.580 C 14.481 6.790,14.487 7.876,14.501 7.993 C 14.526 8.204,14.531 8.210,15.147 8.828 C 15.638 9.320,15.798 9.457,15.914 9.484 C 16.135 9.536,20.427 9.529,20.615 9.477 C 20.971 9.378,21.064 9.111,20.902 8.654 C 20.273 6.882,18.888 5.149,17.221 4.047 C 16.528 3.589,15.267 2.998,14.988 3.001 C 14.940 3.001,14.841 3.031,14.768 3.067 M10.349 3.785 C 10.399 3.816,10.449 3.881,10.460 3.931 C 10.472 3.980,10.477 4.835,10.471 5.831 L 10.460 7.642 10.142 7.780 C 8.843 8.345,7.849 9.587,7.516 11.060 C 7.481 11.212,7.461 11.550,7.462 11.980 C 7.462 12.549,7.477 12.718,7.551 13.014 C 7.844 14.177,8.512 15.135,9.485 15.785 C 10.230 16.282,10.945 16.514,11.840 16.548 C 12.712 16.580,13.384 16.434,14.139 16.047 C 15.050 15.579,15.826 14.763,16.220 13.858 L 16.358 13.540 18.183 13.530 L 20.007 13.519 20.149 13.661 C 20.283 13.795,20.290 13.814,20.267 14.001 C 20.235 14.271,19.967 15.060,19.748 15.529 C 18.520 18.158,16.120 19.942,13.220 20.382 C 12.618 20.474,11.491 20.475,10.864 20.384 C 7.035 19.832,4.106 16.856,3.596 13.000 C 3.524 12.461,3.535 11.317,3.617 10.780 C 3.852 9.244,4.445 7.866,5.390 6.663 C 5.720 6.243,6.445 5.541,6.907 5.193 C 7.796 4.524,8.832 4.020,9.880 3.746 C 10.112 3.685,10.203 3.693,10.349 3.785 M16.710 4.914 C 17.925 5.730,18.861 6.769,19.542 8.054 C 19.662 8.281,19.748 8.479,19.733 8.493 C 19.719 8.508,18.932 8.520,17.984 8.520 L 16.262 8.520 15.891 8.151 L 15.520 7.782 15.520 6.007 L 15.520 4.233 15.939 4.455 C 16.169 4.577,16.517 4.783,16.710 4.914 " stroke="none" fill="black" fill-rule="evenodd"></path></svg>