<svg xmlns="http://www.w3.org/2000/svg" class="icon icon-tabler icon-tabler-chart-pie" width="24" height="24" viewBox="0 0 24 24" stroke-width="1" stroke="currentColor" fill="none" stroke-linecap="round" stroke-linejoin="round"><path d="M9.580 2.797 C 8.045 3.192,6.613 4.006,5.429 5.155 C 3.857 6.682,2.886 8.630,2.597 10.840 C 2.533 11.335,2.532 12.551,2.596 13.060 C 2.872 15.241,3.808 17.174,5.320 18.680 C 8.243 21.592,12.657 22.294,16.334 20.430 C 18.144 19.512,19.654 17.986,20.539 16.180 C 21.019 15.201,21.303 14.288,21.270 13.832 C 21.235 13.342,20.911 12.879,20.441 12.649 L 20.220 12.540 16.480 12.519 C 13.084 12.499,12.721 12.491,12.535 12.429 C 12.130 12.293,11.750 11.925,11.597 11.522 C 11.523 11.327,11.520 11.175,11.520 7.707 C 11.520 5.269,11.506 4.018,11.476 3.859 C 11.371 3.290,10.968 2.867,10.406 2.734 C 10.107 2.664,10.091 2.665,9.580 2.797 M14.768 3.067 C 14.491 3.204,14.500 3.109,14.500 5.800 C 14.500 7.984,14.507 8.242,14.569 8.444 C 14.702 8.874,15.106 9.285,15.535 9.428 C 15.717 9.489,16.005 9.498,18.087 9.511 C 20.594 9.526,20.690 9.519,20.864 9.332 C 21.070 9.109,21.017 8.825,20.604 7.945 C 19.872 6.389,18.672 5.006,17.221 4.047 C 16.528 3.589,15.267 2.998,14.988 3.001 C 14.940 3.001,14.841 3.031,14.768 3.067 M10.349 3.785 C 10.399 3.816,10.448 3.881,10.459 3.931 C 10.470 3.980,10.485 5.676,10.492 7.700 C 10.504 11.062,10.511 11.400,10.575 11.614 C 10.852 12.542,11.461 13.154,12.380 13.424 C 12.599 13.488,12.942 13.497,16.333 13.517 L 20.047 13.540 20.168 13.676 C 20.278 13.799,20.288 13.831,20.267 14.006 C 20.235 14.272,19.966 15.063,19.748 15.529 C 18.520 18.158,16.120 19.942,13.220 20.382 C 12.618 20.474,11.491 20.475,10.864 20.384 C 7.035 19.832,4.106 16.856,3.596 13.000 C 3.524 12.461,3.535 11.317,3.617 10.780 C 3.852 9.244,4.445 7.866,5.390 6.663 C 5.720 6.243,6.445 5.541,6.907 5.193 C 7.796 4.524,8.832 4.020,9.880 3.746 C 10.112 3.685,10.203 3.693,10.349 3.785 M16.710 4.914 C 17.925 5.730,18.861 6.769,19.542 8.054 C 19.662 8.281,19.748 8.479,19.733 8.493 C 19.692 8.534,16.081 8.523,15.900 8.481 C 15.804 8.459,15.696 8.395,15.630 8.321 L 15.520 8.199 15.520 6.216 L 15.520 4.233 15.939 4.455 C 16.169 4.577,16.517 4.783,16.710 4.914 " stroke="none" fill="black" fill-rule="evenodd"></path></svg>