<svg xmlns="http://www.w3.org/2000/svg" class="icon icon-tabler icon-tabler-chart-line" width="24" height="24" viewBox="0 0 24 24" stroke-width="1" stroke="currentColor" fill="none" stroke-linecap="round" stroke-linejoin="round"><path d="M15.748 5.564 C 15.708 5.588,14.846 6.645,13.833 7.913 C 12.819 9.182,11.959 10.253,11.921 10.293 C 11.854 10.363,11.781 10.331,10.006 9.443 C 8.042 8.461,7.951 8.427,7.726 8.584 C 7.676 8.619,6.714 10.028,5.588 11.714 C 3.611 14.675,3.540 14.787,3.527 14.990 C 3.514 15.186,3.523 15.211,3.652 15.340 C 3.774 15.462,3.817 15.480,3.991 15.480 C 4.125 15.480,4.220 15.455,4.285 15.405 C 4.338 15.363,5.233 14.050,6.275 12.487 L 8.170 9.645 10.005 10.562 C 11.910 11.515,12.020 11.558,12.244 11.438 C 12.287 11.415,13.153 10.357,14.167 9.088 C 15.182 7.819,16.019 6.772,16.027 6.762 C 16.036 6.752,16.884 7.585,17.912 8.612 L 19.782 10.480 19.995 10.480 C 20.184 10.480,20.223 10.465,20.344 10.344 C 20.465 10.223,20.480 10.184,20.480 9.994 L 20.480 9.781 18.350 7.650 L 16.219 5.520 16.020 5.521 C 15.910 5.522,15.787 5.541,15.748 5.564 M3.656 18.656 C 3.537 18.775,3.520 18.817,3.520 18.995 C 3.520 19.250,3.657 19.425,3.900 19.481 C 4.114 19.531,19.886 19.531,20.100 19.481 C 20.343 19.425,20.480 19.250,20.480 18.995 C 20.480 18.817,20.463 18.775,20.344 18.656 L 20.208 18.520 12.000 18.520 L 3.792 18.520 3.656 18.656 " stroke="none" fill="black" fill-rule="evenodd"></path></svg>