<svg xmlns="http://www.w3.org/2000/svg" class="icon icon-tabler icon-tabler-checkbox" width="24" height="24" viewBox="0 0 24 24" stroke-width="1" stroke="currentColor" fill="none" stroke-linecap="round" stroke-linejoin="round"><path d="M5.274 3.615 C 4.870 3.734,4.561 3.922,4.242 4.242 C 3.922 4.561,3.739 4.864,3.603 5.294 L 3.500 5.620 3.500 11.980 C 3.500 17.982,3.504 18.354,3.572 18.593 C 3.838 19.528,4.448 20.147,5.380 20.425 C 5.605 20.492,5.994 20.497,11.700 20.510 C 15.647 20.519,17.924 20.509,18.189 20.482 C 19.296 20.372,20.109 19.695,20.424 18.620 C 20.488 18.402,20.496 18.093,20.510 15.300 C 20.519 13.606,20.514 12.122,20.499 12.002 C 20.478 11.829,20.445 11.757,20.340 11.652 C 20.226 11.538,20.181 11.520,20.009 11.520 C 19.799 11.520,19.647 11.604,19.550 11.773 C 19.512 11.840,19.495 12.629,19.480 15.140 C 19.460 18.412,19.460 18.420,19.372 18.610 C 19.253 18.868,18.913 19.218,18.664 19.339 C 18.552 19.394,18.334 19.456,18.180 19.478 C 17.799 19.533,6.201 19.533,5.820 19.478 C 5.666 19.456,5.449 19.394,5.339 19.341 C 5.075 19.212,4.784 18.918,4.649 18.641 L 4.540 18.420 4.540 12.000 L 4.540 5.580 4.649 5.359 C 4.708 5.237,4.843 5.052,4.947 4.947 C 5.052 4.843,5.237 4.708,5.359 4.649 L 5.580 4.540 10.360 4.520 C 14.068 4.504,15.159 4.489,15.227 4.450 C 15.396 4.353,15.480 4.201,15.480 3.991 C 15.480 3.818,15.462 3.774,15.344 3.656 L 15.208 3.520 10.394 3.522 L 5.580 3.524 5.274 3.615 M15.891 9.409 L 12.000 13.299 10.609 11.909 L 9.217 10.520 9.005 10.520 C 8.816 10.520,8.777 10.535,8.656 10.656 C 8.535 10.777,8.520 10.816,8.520 11.005 L 8.520 11.219 10.151 12.849 L 11.781 14.480 12.000 14.480 L 12.220 14.480 16.350 10.350 L 20.480 6.220 20.480 6.006 C 20.480 5.816,20.465 5.777,20.344 5.656 C 20.223 5.535,20.184 5.520,19.994 5.520 L 19.781 5.520 15.891 9.409 " stroke="none" fill="black" fill-rule="evenodd"></path></svg>