<svg xmlns="http://www.w3.org/2000/svg" class="icon icon-tabler icon-tabler-checks" width="24" height="24" viewBox="0 0 24 24" stroke-width="1" stroke="currentColor" fill="none" stroke-linecap="round" stroke-linejoin="round"><path d="M14.150 9.150 L 11.520 11.781 11.520 11.994 C 11.520 12.184,11.535 12.223,11.656 12.344 C 11.777 12.465,11.816 12.480,12.006 12.480 L 12.219 12.480 14.850 9.850 L 17.480 7.219 17.480 7.006 C 17.480 6.816,17.465 6.777,17.344 6.656 C 17.223 6.535,17.184 6.520,16.994 6.520 L 16.781 6.520 14.150 9.150 M16.890 11.410 L 12.000 16.299 9.609 13.910 L 7.218 11.520 7.005 11.520 C 6.816 11.520,6.777 11.535,6.656 11.656 C 6.535 11.777,6.520 11.816,6.520 12.006 L 6.520 12.219 9.150 14.850 L 11.781 17.480 12.000 17.480 L 12.220 17.480 17.350 12.350 L 22.480 7.220 22.480 7.006 C 22.480 6.816,22.465 6.777,22.344 6.656 C 22.223 6.535,22.184 6.520,21.994 6.520 L 21.781 6.520 16.890 11.410 M1.656 11.656 C 1.535 11.777,1.520 11.816,1.520 12.006 L 1.520 12.219 4.150 14.850 L 6.781 17.480 6.994 17.480 C 7.184 17.480,7.223 17.465,7.344 17.344 C 7.465 17.223,7.480 17.184,7.480 16.994 L 7.480 16.781 4.850 14.150 L 2.219 11.520 2.006 11.520 C 1.816 11.520,1.777 11.535,1.656 11.656 " stroke="none" fill="black" fill-rule="evenodd"></path></svg>