<svg xmlns="http://www.w3.org/2000/svg" class="icon icon-tabler icon-tabler-chevrons-left" width="24" height="24" viewBox="0 0 24 24" stroke-width="1" stroke="currentColor" fill="none" stroke-linecap="round" stroke-linejoin="round"><path d="M8.150 9.150 L 5.520 11.781 5.520 12.000 L 5.520 12.219 8.150 14.850 L 10.781 17.480 10.994 17.480 C 11.184 17.480,11.223 17.465,11.344 17.344 C 11.465 17.223,11.480 17.184,11.480 16.995 L 11.480 16.782 9.090 14.391 L 6.701 12.000 9.090 9.609 L 11.480 7.218 11.480 7.005 C 11.480 6.816,11.465 6.777,11.344 6.656 C 11.223 6.535,11.184 6.520,10.994 6.520 L 10.781 6.520 8.150 9.150 M14.150 9.150 L 11.520 11.781 11.520 12.000 L 11.520 12.219 14.150 14.850 L 16.781 17.480 16.994 17.480 C 17.184 17.480,17.223 17.465,17.344 17.344 C 17.465 17.223,17.480 17.184,17.480 16.995 L 17.480 16.782 15.090 14.391 L 12.701 12.000 15.090 9.609 L 17.480 7.218 17.480 7.005 C 17.480 6.816,17.465 6.777,17.344 6.656 C 17.223 6.535,17.184 6.520,16.994 6.520 L 16.781 6.520 14.150 9.150 " stroke="none" fill="black" fill-rule="evenodd"></path></svg>