<svg xmlns="http://www.w3.org/2000/svg" class="icon icon-tabler icon-tabler-chevrons-down" width="24" height="24" viewBox="0 0 24 24" stroke-width="1" stroke="currentColor" fill="none" stroke-linecap="round" stroke-linejoin="round"><path d="M6.656 6.656 C 6.535 6.777,6.520 6.816,6.520 7.006 L 6.520 7.219 9.150 9.850 L 11.781 12.480 12.000 12.480 L 12.219 12.480 14.850 9.850 L 17.480 7.219 17.480 7.006 C 17.480 6.816,17.465 6.777,17.344 6.656 C 17.223 6.535,17.184 6.520,16.995 6.520 L 16.782 6.520 14.391 8.910 L 12.000 11.299 9.609 8.910 L 7.218 6.520 7.005 6.520 C 6.816 6.520,6.777 6.535,6.656 6.656 M6.656 12.656 C 6.535 12.777,6.520 12.816,6.520 13.006 L 6.520 13.219 9.150 15.850 L 11.781 18.480 12.000 18.480 L 12.219 18.480 14.850 15.850 L 17.480 13.219 17.480 13.006 C 17.480 12.816,17.465 12.777,17.344 12.656 C 17.223 12.535,17.184 12.520,16.995 12.520 L 16.782 12.520 14.391 14.910 L 12.000 17.299 9.609 14.910 L 7.218 12.520 7.005 12.520 C 6.816 12.520,6.777 12.535,6.656 12.656 " stroke="none" fill="black" fill-rule="evenodd"></path></svg>