<svg xmlns="http://www.w3.org/2000/svg" class="icon icon-tabler icon-tabler-chevrons-up" width="24" height="24" viewBox="0 0 24 24" stroke-width="1" stroke="currentColor" fill="none" stroke-linecap="round" stroke-linejoin="round"><path d="M9.150 8.150 L 6.520 10.781 6.520 10.994 C 6.520 11.184,6.535 11.223,6.656 11.344 C 6.777 11.465,6.816 11.480,7.005 11.480 L 7.218 11.480 9.609 9.090 L 12.000 6.701 14.391 9.090 L 16.782 11.480 16.995 11.480 C 17.184 11.480,17.223 11.465,17.344 11.344 C 17.465 11.223,17.480 11.184,17.480 10.994 L 17.480 10.781 14.850 8.150 L 12.219 5.520 12.000 5.520 L 11.781 5.520 9.150 8.150 M9.150 14.150 L 6.520 16.781 6.520 16.994 C 6.520 17.184,6.535 17.223,6.656 17.344 C 6.777 17.465,6.816 17.480,7.005 17.480 L 7.218 17.480 9.609 15.090 L 12.000 12.701 14.391 15.090 L 16.782 17.480 16.995 17.480 C 17.184 17.480,17.223 17.465,17.344 17.344 C 17.465 17.223,17.480 17.184,17.480 16.994 L 17.480 16.781 14.850 14.150 L 12.219 11.520 12.000 11.520 L 11.781 11.520 9.150 14.150 " stroke="none" fill="black" fill-rule="evenodd"></path></svg>