<svg xmlns="http://www.w3.org/2000/svg" class="icon icon-tabler icon-tabler-chevrons-right" width="24" height="24" viewBox="0 0 24 24" stroke-width="1" stroke="currentColor" fill="none" stroke-linecap="round" stroke-linejoin="round"><path d="M6.656 6.656 C 6.535 6.777,6.520 6.816,6.520 7.005 L 6.520 7.218 8.910 9.609 L 11.299 12.000 8.910 14.391 L 6.520 16.782 6.520 16.995 C 6.520 17.184,6.535 17.223,6.656 17.344 C 6.777 17.465,6.816 17.480,7.006 17.480 L 7.219 17.480 9.850 14.850 L 12.480 12.219 12.480 12.000 L 12.480 11.781 9.850 9.150 L 7.219 6.520 7.006 6.520 C 6.816 6.520,6.777 6.535,6.656 6.656 M12.656 6.656 C 12.535 6.777,12.520 6.816,12.520 7.005 L 12.520 7.218 14.910 9.609 L 17.299 12.000 14.910 14.391 L 12.520 16.782 12.520 16.995 C 12.520 17.184,12.535 17.223,12.656 17.344 C 12.777 17.465,12.816 17.480,13.006 17.480 L 13.219 17.480 15.850 14.850 L 18.480 12.219 18.480 12.000 L 18.480 11.781 15.850 9.150 L 13.219 6.520 13.006 6.520 C 12.816 6.520,12.777 6.535,12.656 6.656 " stroke="none" fill="black" fill-rule="evenodd"></path></svg>