<svg xmlns="http://www.w3.org/2000/svg" class="icon icon-tabler icon-tabler-circle-check" width="24" height="24" viewBox="0 0 24 24" stroke-width="1" stroke="currentColor" fill="none" stroke-linecap="round" stroke-linejoin="round"><path d="M10.900 2.564 C 9.092 2.784,7.444 3.481,6.020 4.628 C 4.323 5.995,3.091 8.034,2.679 10.160 C 2.468 11.247,2.468 12.755,2.679 13.840 C 3.019 15.591,3.905 17.278,5.170 18.585 C 6.746 20.212,8.748 21.195,10.991 21.441 C 11.569 21.505,12.996 21.471,13.520 21.382 C 16.578 20.862,19.166 18.939,20.519 16.180 C 21.189 14.815,21.480 13.549,21.480 12.000 C 21.480 10.487,21.202 9.243,20.562 7.900 C 19.798 6.294,18.506 4.858,16.968 3.907 C 15.800 3.185,14.424 2.710,13.072 2.562 C 12.621 2.513,11.309 2.514,10.900 2.564 M13.160 3.581 C 14.081 3.712,14.852 3.948,15.700 4.360 C 16.622 4.807,17.277 5.273,18.002 5.998 C 19.251 7.248,20.028 8.728,20.365 10.500 C 20.470 11.053,20.512 12.362,20.444 12.946 C 20.245 14.630,19.576 16.182,18.485 17.486 C 17.115 19.122,15.119 20.188,12.946 20.444 C 12.362 20.512,11.053 20.470,10.500 20.365 C 7.839 19.860,5.635 18.221,4.428 15.851 C 4.054 15.115,3.799 14.359,3.635 13.500 C 3.515 12.874,3.486 11.525,3.577 10.868 C 4.105 7.087,7.016 4.152,10.800 3.585 C 11.320 3.507,12.623 3.505,13.160 3.581 M12.891 11.409 L 11.001 13.298 10.108 12.409 L 9.216 11.520 9.004 11.520 C 8.816 11.520,8.776 11.536,8.656 11.656 C 8.535 11.777,8.520 11.816,8.520 12.005 L 8.520 12.218 9.651 13.349 L 10.782 14.480 11.000 14.480 L 11.219 14.480 13.350 12.350 L 15.480 10.219 15.480 10.006 C 15.480 9.816,15.465 9.777,15.344 9.656 C 15.223 9.535,15.184 9.520,14.995 9.520 L 14.782 9.520 12.891 11.409 " stroke="none" fill="black" fill-rule="evenodd"></path></svg>