<svg xmlns="http://www.w3.org/2000/svg" class="icon icon-tabler icon-tabler-clear-formatting" width="24" height="24" viewBox="0 0 24 24" stroke-width="1" stroke="currentColor" fill="none" stroke-linecap="round" stroke-linejoin="round"><path d="M9.811 4.520 L 6.762 4.540 6.658 4.644 C 6.521 4.781,6.482 4.970,6.482 5.500 C 6.482 6.054,6.522 6.229,6.679 6.370 C 6.778 6.459,6.840 6.480,7.000 6.480 C 7.353 6.480,7.517 6.244,7.519 5.730 L 7.520 5.520 9.920 5.520 C 11.240 5.520,12.319 5.534,12.319 5.550 C 12.318 5.566,11.485 8.487,10.469 12.040 L 8.620 18.500 7.687 18.520 L 6.753 18.540 6.637 18.671 C 6.541 18.778,6.520 18.837,6.520 19.000 C 6.520 19.249,6.659 19.426,6.900 19.481 C 7.109 19.529,10.891 19.529,11.100 19.481 C 11.343 19.425,11.480 19.250,11.480 18.995 C 11.480 18.817,11.463 18.775,11.344 18.656 L 11.208 18.520 10.439 18.520 L 9.671 18.520 9.689 18.430 C 9.699 18.381,10.531 15.456,11.539 11.930 L 13.371 5.520 15.426 5.520 L 17.480 5.520 17.481 5.730 C 17.483 6.247,17.646 6.480,18.005 6.480 C 18.181 6.480,18.225 6.463,18.340 6.348 C 18.502 6.186,18.538 5.968,18.513 5.302 C 18.500 4.965,18.478 4.823,18.427 4.745 C 18.276 4.514,18.405 4.525,15.520 4.512 C 14.057 4.505,11.488 4.509,9.811 4.520 M16.656 14.656 C 16.536 14.776,16.520 14.816,16.520 15.004 L 16.520 15.216 17.409 16.108 L 18.298 17.000 17.409 17.892 L 16.520 18.784 16.520 18.996 C 16.520 19.184,16.536 19.224,16.656 19.344 C 16.776 19.464,16.816 19.480,17.004 19.480 L 17.216 19.480 18.108 18.591 L 19.000 17.702 19.892 18.591 L 20.784 19.480 20.996 19.480 C 21.184 19.480,21.224 19.464,21.344 19.344 C 21.464 19.224,21.480 19.184,21.480 18.996 L 21.480 18.784 20.591 17.892 L 19.702 17.000 20.591 16.108 L 21.480 15.216 21.480 15.004 C 21.480 14.816,21.464 14.776,21.344 14.656 C 21.224 14.536,21.184 14.520,20.996 14.520 L 20.784 14.520 19.892 15.409 L 19.000 16.298 18.108 15.409 L 17.216 14.520 17.004 14.520 C 16.816 14.520,16.776 14.536,16.656 14.656 " stroke="none" fill="black" fill-rule="evenodd"></path></svg>