<svg xmlns="http://www.w3.org/2000/svg" class="icon icon-tabler icon-tabler-click" width="24" height="24" viewBox="0 0 24 24" stroke-width="1" stroke="currentColor" fill="none" stroke-linecap="round" stroke-linejoin="round"><path d="M11.679 2.630 C 11.605 2.696,11.541 2.804,11.519 2.900 C 11.471 3.108,11.471 5.892,11.519 6.100 C 11.574 6.341,11.751 6.480,12.000 6.480 C 12.249 6.480,12.426 6.341,12.481 6.100 C 12.529 5.892,12.529 3.108,12.481 2.900 C 12.426 2.659,12.249 2.520,12.000 2.520 C 11.840 2.520,11.778 2.541,11.679 2.630 M5.256 5.256 C 5.135 5.377,5.120 5.416,5.120 5.605 L 5.120 5.819 6.351 7.049 L 7.581 8.280 7.795 8.280 C 7.984 8.280,8.023 8.265,8.144 8.144 C 8.265 8.023,8.280 7.984,8.280 7.795 L 8.280 7.581 7.049 6.351 L 5.819 5.120 5.605 5.120 C 5.416 5.120,5.377 5.135,5.256 5.256 M16.951 6.351 L 15.720 7.581 15.720 7.795 C 15.720 7.984,15.735 8.023,15.856 8.144 C 15.977 8.265,16.016 8.280,16.205 8.280 L 16.419 8.280 17.649 7.049 L 18.880 5.819 18.880 5.605 C 18.880 5.416,18.865 5.377,18.744 5.256 C 18.623 5.135,18.584 5.120,18.395 5.120 L 18.181 5.120 16.951 6.351 M2.656 11.656 C 2.537 11.775,2.520 11.817,2.520 11.995 C 2.520 12.250,2.657 12.425,2.900 12.481 C 3.108 12.529,5.892 12.529,6.100 12.481 C 6.343 12.425,6.480 12.250,6.480 11.995 C 6.480 11.817,6.463 11.775,6.344 11.656 L 6.208 11.520 4.500 11.520 L 2.792 11.520 2.656 11.656 M11.656 11.656 C 11.543 11.769,11.520 11.821,11.520 11.966 C 11.520 12.088,11.973 13.498,13.043 16.709 C 14.747 21.822,14.607 21.480,15.000 21.480 C 15.147 21.480,15.221 21.457,15.307 21.384 C 15.383 21.319,15.737 20.652,16.396 19.330 L 17.373 17.373 19.330 16.396 C 20.652 15.737,21.319 15.383,21.384 15.307 C 21.457 15.221,21.480 15.147,21.480 15.000 C 21.480 14.607,21.822 14.747,16.709 13.043 C 13.498 11.973,12.088 11.520,11.966 11.520 C 11.821 11.520,11.769 11.543,11.656 11.656 M16.298 13.960 L 19.696 15.092 18.218 15.830 C 17.405 16.236,16.706 16.598,16.665 16.634 C 16.624 16.670,16.253 17.374,15.841 18.198 L 15.092 19.696 13.960 16.298 C 13.338 14.429,12.819 12.874,12.807 12.843 C 12.793 12.806,12.806 12.793,12.843 12.807 C 12.874 12.819,14.429 13.338,16.298 13.960 M6.351 16.951 L 5.120 18.181 5.120 18.395 C 5.120 18.584,5.135 18.623,5.256 18.744 C 5.377 18.865,5.416 18.880,5.605 18.880 L 5.819 18.880 7.049 17.649 L 8.280 16.419 8.280 16.205 C 8.280 16.016,8.265 15.977,8.144 15.856 C 8.023 15.735,7.984 15.720,7.795 15.720 L 7.581 15.720 6.351 16.951 " stroke="none" fill="black" fill-rule="evenodd"></path></svg>