<svg xmlns="http://www.w3.org/2000/svg" class="icon icon-tabler icon-tabler-clipboard-x" width="24" height="24" viewBox="0 0 24 24" stroke-width="1" stroke="currentColor" fill="none" stroke-linecap="round" stroke-linejoin="round"><path d="M10.274 2.614 C 9.517 2.841,8.896 3.440,8.642 4.189 L 8.536 4.500 7.498 4.522 C 6.291 4.547,6.136 4.580,5.621 4.924 C 5.116 5.262,4.761 5.749,4.594 6.330 L 4.500 6.660 4.500 13.000 C 4.500 18.982,4.504 19.354,4.572 19.593 C 4.838 20.528,5.449 21.148,6.380 21.425 C 6.604 21.491,6.964 21.497,11.700 21.510 C 14.980 21.519,16.925 21.509,17.189 21.483 C 18.296 21.372,19.103 20.700,19.425 19.620 C 19.492 19.395,19.497 19.006,19.510 13.300 C 19.518 9.625,19.508 7.068,19.485 6.836 C 19.380 5.784,18.785 4.994,17.835 4.648 C 17.550 4.544,17.504 4.540,16.502 4.520 L 15.465 4.500 15.354 4.184 C 15.106 3.476,14.603 2.955,13.888 2.665 L 13.580 2.540 12.080 2.531 C 10.618 2.522,10.572 2.524,10.274 2.614 M13.641 3.649 C 13.924 3.787,14.213 4.076,14.351 4.359 C 14.449 4.557,14.460 4.624,14.460 5.000 C 14.460 5.377,14.449 5.443,14.350 5.644 C 14.220 5.909,13.874 6.252,13.626 6.362 C 13.354 6.482,12.974 6.518,12.000 6.518 C 10.979 6.518,10.627 6.481,10.339 6.341 C 10.075 6.212,9.784 5.918,9.649 5.641 C 9.499 5.337,9.474 4.802,9.593 4.488 C 9.743 4.093,10.079 3.751,10.468 3.598 C 10.645 3.528,10.767 3.523,12.040 3.531 L 13.420 3.540 13.641 3.649 M8.641 5.803 C 8.938 6.727,9.768 7.374,10.794 7.482 C 11.252 7.530,12.764 7.529,13.232 7.479 C 14.236 7.374,15.064 6.720,15.360 5.801 L 15.451 5.516 16.436 5.528 C 17.415 5.540,17.421 5.541,17.641 5.649 C 17.924 5.787,18.213 6.076,18.351 6.359 L 18.460 6.580 18.460 13.000 L 18.460 19.420 18.372 19.610 C 18.253 19.867,17.913 20.218,17.664 20.339 C 17.548 20.396,17.323 20.457,17.140 20.482 C 16.925 20.510,15.159 20.520,11.780 20.511 C 7.115 20.500,6.725 20.494,6.535 20.429 C 6.129 20.292,5.750 19.925,5.597 19.522 C 5.522 19.325,5.520 19.139,5.520 13.000 C 5.520 6.861,5.522 6.675,5.597 6.478 C 5.744 6.093,6.084 5.749,6.468 5.599 C 6.636 5.533,6.779 5.524,7.605 5.522 L 8.550 5.520 8.641 5.803 M9.656 11.656 C 9.536 11.776,9.520 11.816,9.520 12.004 L 9.520 12.216 10.409 13.108 L 11.298 14.000 10.409 14.892 L 9.520 15.784 9.520 15.996 C 9.520 16.184,9.536 16.224,9.656 16.344 C 9.776 16.464,9.816 16.480,10.004 16.480 L 10.216 16.480 11.108 15.591 L 12.000 14.702 12.892 15.591 L 13.784 16.480 13.996 16.480 C 14.184 16.480,14.224 16.464,14.344 16.344 C 14.464 16.224,14.480 16.184,14.480 15.996 L 14.480 15.784 13.591 14.892 L 12.702 14.000 13.591 13.108 L 14.480 12.216 14.480 12.004 C 14.480 11.816,14.464 11.776,14.344 11.656 C 14.224 11.536,14.184 11.520,13.996 11.520 L 13.784 11.520 12.892 12.409 L 12.000 13.298 11.108 12.409 L 10.216 11.520 10.004 11.520 C 9.816 11.520,9.776 11.536,9.656 11.656 " stroke="none" fill="black" fill-rule="evenodd"></path></svg>