<svg xmlns="http://www.w3.org/2000/svg" class="icon icon-tabler icon-tabler-cloud" width="24" height="24" viewBox="0 0 24 24" stroke-width="1" stroke="currentColor" fill="none" stroke-linecap="round" stroke-linejoin="round"><path d="M11.820 4.484 C 10.400 4.632,9.064 5.241,8.073 6.193 C 7.457 6.783,7.061 7.361,6.763 8.104 L 6.603 8.499 6.172 8.569 C 4.512 8.838,3.108 9.826,2.358 11.253 C 1.371 13.129,1.705 15.350,3.207 16.903 C 3.972 17.694,4.922 18.197,6.080 18.426 C 6.387 18.487,7.010 18.495,12.560 18.509 C 16.497 18.519,18.887 18.510,19.220 18.484 C 20.302 18.399,21.141 18.019,21.844 17.294 C 23.080 16.021,23.349 14.151,22.518 12.607 C 22.118 11.863,21.401 11.190,20.657 10.860 C 20.148 10.634,19.778 10.552,19.170 10.530 L 18.600 10.510 18.600 10.022 C 18.600 9.450,18.519 8.918,18.357 8.428 C 17.506 5.856,14.729 4.181,11.820 4.484 M13.500 5.541 C 15.233 5.844,16.735 7.006,17.316 8.496 C 17.598 9.219,17.649 9.777,17.535 10.910 C 17.508 11.187,17.555 11.302,17.748 11.429 C 17.839 11.489,17.990 11.503,18.738 11.522 C 19.562 11.544,19.641 11.553,19.940 11.655 C 20.404 11.814,20.777 12.049,21.120 12.398 C 21.835 13.126,22.129 14.077,21.942 15.055 C 21.826 15.662,21.570 16.144,21.120 16.602 C 20.592 17.140,19.998 17.411,19.188 17.484 C 18.900 17.510,16.551 17.519,12.600 17.509 C 5.891 17.492,6.316 17.508,5.577 17.261 C 4.291 16.831,3.270 15.754,2.912 14.451 C 2.788 14.001,2.788 12.999,2.912 12.549 C 3.099 11.866,3.462 11.249,3.976 10.739 C 4.717 10.005,5.610 9.605,6.693 9.521 C 7.329 9.472,7.415 9.413,7.538 8.931 C 7.998 7.136,9.782 5.721,11.891 5.478 C 12.281 5.434,13.060 5.464,13.500 5.541 " stroke="none" fill="black" fill-rule="evenodd"></path></svg>