<svg xmlns="http://www.w3.org/2000/svg" class="icon icon-tabler icon-tabler-cloud-snow" width="24" height="24" viewBox="0 0 24 24" stroke-width="1" stroke="currentColor" fill="none" stroke-linecap="round" stroke-linejoin="round"><path d="M11.820 4.484 C 10.400 4.632,9.064 5.241,8.073 6.193 C 7.457 6.783,7.061 7.361,6.763 8.104 L 6.603 8.499 6.172 8.569 C 4.512 8.838,3.108 9.826,2.358 11.253 C 1.519 12.848,1.630 14.723,2.653 16.240 C 2.920 16.635,3.479 17.209,3.876 17.494 C 4.729 18.109,5.841 18.480,6.829 18.480 C 7.207 18.480,7.208 18.480,7.344 18.344 C 7.463 18.225,7.480 18.183,7.480 18.005 C 7.480 17.642,7.248 17.483,6.714 17.481 C 6.589 17.480,6.353 17.454,6.190 17.423 C 4.593 17.118,3.329 15.972,2.912 14.451 C 2.788 14.001,2.788 12.999,2.912 12.549 C 3.099 11.866,3.462 11.249,3.976 10.739 C 4.717 10.005,5.610 9.605,6.693 9.521 C 7.329 9.472,7.415 9.413,7.538 8.931 C 7.960 7.283,9.475 5.963,11.412 5.555 C 11.949 5.441,12.921 5.432,13.480 5.534 C 15.254 5.858,16.732 7.000,17.316 8.496 C 17.598 9.219,17.649 9.777,17.535 10.910 C 17.508 11.187,17.555 11.302,17.748 11.429 C 17.839 11.489,17.990 11.503,18.738 11.522 C 19.562 11.544,19.641 11.553,19.940 11.655 C 20.404 11.814,20.777 12.049,21.120 12.398 C 21.835 13.126,22.129 14.077,21.942 15.055 C 21.826 15.662,21.570 16.144,21.120 16.602 C 20.606 17.125,20.002 17.407,19.239 17.480 C 19.018 17.501,18.804 17.537,18.762 17.559 C 18.606 17.642,18.520 17.803,18.520 18.009 C 18.520 18.183,18.538 18.226,18.661 18.349 L 18.803 18.491 19.271 18.469 C 20.251 18.425,21.142 18.017,21.844 17.294 C 23.080 16.021,23.349 14.151,22.518 12.607 C 22.118 11.863,21.401 11.190,20.657 10.860 C 20.148 10.634,19.778 10.552,19.170 10.530 L 18.600 10.510 18.600 10.022 C 18.600 9.450,18.519 8.918,18.357 8.428 C 17.506 5.856,14.729 4.181,11.820 4.484 M10.656 14.656 C 10.537 14.775,10.520 14.818,10.520 14.993 C 10.520 15.233,10.643 15.408,10.861 15.480 C 11.043 15.540,11.242 15.477,11.379 15.314 C 11.458 15.220,11.480 15.150,11.480 14.993 C 11.480 14.818,11.463 14.775,11.344 14.656 C 11.224 14.536,11.183 14.520,11.000 14.520 C 10.817 14.520,10.776 14.536,10.656 14.656 M14.817 16.577 C 14.619 16.663,14.520 16.820,14.520 17.049 C 14.520 17.222,14.538 17.266,14.656 17.384 C 14.776 17.504,14.817 17.520,15.000 17.520 C 15.183 17.520,15.224 17.504,15.344 17.384 C 15.462 17.266,15.480 17.222,15.480 17.049 C 15.480 16.817,15.380 16.661,15.175 16.575 C 15.014 16.508,14.974 16.508,14.817 16.577 M10.756 17.580 C 10.532 17.701,10.449 18.027,10.578 18.277 C 10.640 18.396,10.854 18.520,11.000 18.520 C 11.146 18.520,11.360 18.396,11.422 18.277 C 11.499 18.126,11.496 17.861,11.414 17.737 C 11.282 17.534,10.974 17.461,10.756 17.580 M14.656 19.696 C 14.537 19.815,14.520 19.858,14.520 20.033 C 14.520 20.190,14.542 20.260,14.621 20.354 C 14.758 20.517,14.957 20.580,15.139 20.520 C 15.357 20.448,15.480 20.273,15.480 20.033 C 15.480 19.858,15.463 19.815,15.344 19.696 C 15.224 19.576,15.183 19.560,15.000 19.560 C 14.817 19.560,14.776 19.576,14.656 19.696 M10.768 20.587 C 10.435 20.751,10.432 21.290,10.764 21.462 C 11.100 21.636,11.480 21.411,11.480 21.039 C 11.480 20.821,11.393 20.665,11.226 20.585 C 11.053 20.504,10.936 20.504,10.768 20.587 " stroke="none" fill="black" fill-rule="evenodd"></path></svg>