<svg xmlns="http://www.w3.org/2000/svg" class="icon icon-tabler icon-tabler-cloud-upload" width="24" height="24" viewBox="0 0 24 24" stroke-width="1" stroke="currentColor" fill="none" stroke-linecap="round" stroke-linejoin="round"><path d="M11.820 4.484 C 10.400 4.632,9.064 5.241,8.073 6.193 C 7.457 6.783,7.061 7.361,6.763 8.104 L 6.603 8.499 6.172 8.569 C 4.512 8.838,3.108 9.826,2.358 11.253 C 1.519 12.848,1.630 14.723,2.653 16.240 C 2.920 16.635,3.479 17.209,3.876 17.494 C 4.729 18.109,5.841 18.480,6.829 18.480 C 7.207 18.480,7.208 18.480,7.344 18.344 C 7.463 18.225,7.480 18.183,7.480 18.005 C 7.480 17.642,7.248 17.483,6.714 17.481 C 6.589 17.480,6.353 17.454,6.190 17.423 C 4.593 17.118,3.329 15.972,2.912 14.451 C 2.788 14.001,2.788 12.999,2.912 12.549 C 3.099 11.866,3.462 11.249,3.976 10.739 C 4.717 10.005,5.610 9.605,6.693 9.521 C 7.329 9.472,7.415 9.413,7.538 8.931 C 7.960 7.283,9.475 5.963,11.412 5.555 C 11.949 5.441,12.921 5.432,13.480 5.534 C 15.254 5.858,16.732 7.000,17.316 8.496 C 17.598 9.219,17.649 9.777,17.535 10.910 C 17.508 11.187,17.555 11.302,17.748 11.429 C 17.839 11.489,17.990 11.503,18.738 11.522 C 19.562 11.544,19.641 11.553,19.940 11.655 C 20.404 11.814,20.777 12.049,21.120 12.398 C 21.835 13.126,22.129 14.077,21.942 15.055 C 21.826 15.662,21.570 16.144,21.120 16.602 C 20.442 17.292,19.759 17.516,18.326 17.519 L 17.792 17.520 17.656 17.656 C 17.537 17.775,17.520 17.817,17.520 17.995 C 17.520 18.161,17.541 18.222,17.630 18.321 C 17.767 18.474,17.946 18.518,18.440 18.518 C 20.015 18.520,20.998 18.166,21.844 17.294 C 23.080 16.021,23.349 14.151,22.518 12.607 C 22.118 11.863,21.401 11.190,20.657 10.860 C 20.148 10.634,19.778 10.552,19.170 10.530 L 18.600 10.510 18.600 10.022 C 18.600 9.450,18.519 8.918,18.357 8.428 C 17.506 5.856,14.729 4.181,11.820 4.484 M11.820 11.537 C 11.754 11.567,10.985 12.310,10.110 13.187 L 8.520 14.782 8.520 14.995 C 8.520 15.184,8.535 15.223,8.656 15.344 C 8.777 15.465,8.816 15.480,9.004 15.480 L 9.217 15.480 10.348 14.351 L 11.480 13.222 11.481 17.081 C 11.482 19.293,11.498 21.008,11.519 21.100 C 11.574 21.341,11.751 21.480,12.000 21.480 C 12.249 21.480,12.426 21.341,12.481 21.100 C 12.502 21.008,12.518 19.293,12.519 17.081 L 12.520 13.222 13.652 14.351 L 14.783 15.480 14.996 15.480 C 15.184 15.480,15.223 15.465,15.344 15.344 C 15.465 15.223,15.480 15.184,15.480 14.995 L 15.480 14.782 13.890 13.187 C 12.996 12.290,12.244 11.567,12.171 11.536 C 12.014 11.468,11.973 11.468,11.820 11.537 " stroke="none" fill="black" fill-rule="evenodd"></path></svg>