<svg xmlns="http://www.w3.org/2000/svg" class="icon icon-tabler icon-tabler-cloud-rain" width="24" height="24" viewBox="0 0 24 24" stroke-width="1" stroke="currentColor" fill="none" stroke-linecap="round" stroke-linejoin="round"><path d="M11.820 4.484 C 10.400 4.632,9.064 5.241,8.073 6.193 C 7.457 6.783,7.061 7.361,6.763 8.104 L 6.603 8.499 6.172 8.569 C 4.512 8.838,3.108 9.826,2.358 11.253 C 1.519 12.848,1.630 14.723,2.653 16.240 C 2.920 16.635,3.479 17.209,3.876 17.494 C 4.729 18.109,5.841 18.480,6.829 18.480 C 7.207 18.480,7.208 18.480,7.344 18.344 C 7.463 18.225,7.480 18.183,7.480 18.005 C 7.480 17.642,7.248 17.483,6.714 17.481 C 6.589 17.480,6.353 17.454,6.190 17.423 C 4.593 17.118,3.329 15.972,2.912 14.451 C 2.788 14.001,2.788 12.999,2.912 12.549 C 3.099 11.866,3.462 11.249,3.976 10.739 C 4.717 10.005,5.610 9.605,6.693 9.521 C 7.329 9.472,7.415 9.413,7.538 8.931 C 7.960 7.283,9.475 5.963,11.412 5.555 C 11.949 5.441,12.921 5.432,13.480 5.534 C 15.254 5.858,16.732 7.000,17.316 8.496 C 17.598 9.219,17.649 9.777,17.535 10.910 C 17.508 11.187,17.555 11.302,17.748 11.429 C 17.839 11.489,17.990 11.503,18.738 11.522 C 19.562 11.544,19.641 11.553,19.940 11.655 C 20.404 11.814,20.777 12.049,21.120 12.398 C 21.835 13.126,22.129 14.077,21.942 15.055 C 21.826 15.662,21.570 16.144,21.120 16.602 C 20.606 17.125,20.002 17.407,19.239 17.480 C 19.018 17.501,18.804 17.537,18.762 17.559 C 18.606 17.642,18.520 17.803,18.520 18.009 C 18.520 18.183,18.538 18.226,18.661 18.349 L 18.803 18.491 19.271 18.469 C 20.251 18.425,21.142 18.017,21.844 17.294 C 23.080 16.021,23.349 14.151,22.518 12.607 C 22.118 11.863,21.401 11.190,20.657 10.860 C 20.148 10.634,19.778 10.552,19.170 10.530 L 18.600 10.510 18.600 10.022 C 18.600 9.450,18.519 8.918,18.357 8.428 C 17.506 5.856,14.729 4.181,11.820 4.484 M10.679 12.630 C 10.605 12.696,10.541 12.804,10.519 12.900 C 10.471 13.108,10.471 14.892,10.519 15.100 C 10.574 15.341,10.751 15.480,11.000 15.480 C 11.249 15.480,11.426 15.341,11.481 15.100 C 11.529 14.892,11.529 13.108,11.481 12.900 C 11.426 12.659,11.249 12.520,11.000 12.520 C 10.840 12.520,10.778 12.541,10.679 12.630 M14.679 14.630 C 14.605 14.696,14.541 14.804,14.519 14.900 C 14.471 15.108,14.471 16.892,14.519 17.100 C 14.574 17.341,14.751 17.480,15.000 17.480 C 15.249 17.480,15.426 17.341,15.481 17.100 C 15.529 16.892,15.529 15.108,15.481 14.900 C 15.426 14.659,15.249 14.520,15.000 14.520 C 14.840 14.520,14.778 14.541,14.679 14.630 M10.679 17.630 C 10.605 17.696,10.541 17.804,10.519 17.900 C 10.471 18.108,10.471 19.892,10.519 20.100 C 10.574 20.341,10.751 20.480,11.000 20.480 C 11.249 20.480,11.426 20.341,11.481 20.100 C 11.529 19.892,11.529 18.108,11.481 17.900 C 11.426 17.659,11.249 17.520,11.000 17.520 C 10.840 17.520,10.778 17.541,10.679 17.630 M14.679 19.630 C 14.605 19.696,14.541 19.804,14.519 19.900 C 14.471 20.108,14.471 21.892,14.519 22.100 C 14.574 22.341,14.751 22.480,15.000 22.480 C 15.249 22.480,15.426 22.341,15.481 22.100 C 15.529 21.892,15.529 20.108,15.481 19.900 C 15.426 19.659,15.249 19.520,15.000 19.520 C 14.840 19.520,14.778 19.541,14.679 19.630 " stroke="none" fill="black" fill-rule="evenodd"></path></svg>