<svg xmlns="http://www.w3.org/2000/svg" class="icon icon-tabler icon-tabler-cloud-download" width="24" height="24" viewBox="0 0 24 24" stroke-width="1" stroke="currentColor" fill="none" stroke-linecap="round" stroke-linejoin="round"><path d="M11.820 4.484 C 10.400 4.632,9.064 5.241,8.073 6.193 C 7.457 6.784,7.061 7.361,6.763 8.104 L 6.603 8.500 6.292 8.527 C 4.302 8.703,2.546 10.080,1.941 11.940 C 1.641 12.862,1.643 13.923,1.947 14.860 C 2.341 16.074,3.240 17.112,4.429 17.727 C 4.875 17.958,5.194 17.922,5.335 17.626 C 5.483 17.313,5.377 17.090,4.984 16.892 C 4.121 16.457,3.511 15.860,3.111 15.060 C 2.835 14.508,2.720 14.017,2.720 13.396 C 2.720 11.919,3.559 10.613,4.940 9.939 C 5.551 9.640,6.254 9.481,6.967 9.480 C 7.272 9.480,7.415 9.363,7.502 9.047 C 7.990 7.252,9.422 5.974,11.412 5.555 C 11.949 5.441,12.921 5.432,13.480 5.534 C 15.474 5.899,17.008 7.231,17.490 9.017 C 17.561 9.277,17.578 9.452,17.579 9.920 C 17.579 10.239,17.564 10.648,17.544 10.828 C 17.514 11.107,17.519 11.172,17.575 11.258 C 17.723 11.484,17.784 11.497,18.738 11.522 C 19.562 11.544,19.641 11.553,19.940 11.655 C 20.404 11.814,20.777 12.049,21.120 12.398 C 21.835 13.126,22.129 14.077,21.942 15.055 C 21.826 15.662,21.570 16.144,21.120 16.602 C 20.606 17.125,20.002 17.407,19.239 17.480 C 19.018 17.501,18.804 17.537,18.762 17.559 C 18.606 17.642,18.520 17.803,18.520 18.009 C 18.520 18.183,18.538 18.226,18.661 18.349 L 18.803 18.491 19.271 18.469 C 21.241 18.379,22.864 16.749,22.986 14.740 C 23.086 13.107,22.129 11.514,20.657 10.860 C 20.148 10.634,19.778 10.552,19.170 10.530 L 18.600 10.510 18.600 10.022 C 18.600 9.447,18.519 8.918,18.354 8.420 C 17.507 5.857,14.725 4.181,11.820 4.484 M11.679 12.630 C 11.605 12.696,11.541 12.804,11.519 12.900 C 11.498 12.992,11.482 14.707,11.481 16.919 L 11.480 20.778 10.348 19.649 L 9.217 18.520 9.004 18.520 C 8.816 18.520,8.777 18.535,8.656 18.656 C 8.535 18.777,8.520 18.816,8.520 19.005 L 8.520 19.218 10.129 20.829 C 11.243 21.944,11.779 22.453,11.869 22.483 C 11.963 22.514,12.037 22.514,12.131 22.483 C 12.221 22.453,12.757 21.944,13.871 20.829 L 15.480 19.218 15.480 19.005 C 15.480 18.816,15.465 18.777,15.344 18.656 C 15.223 18.535,15.184 18.520,14.996 18.520 L 14.783 18.520 13.652 19.649 L 12.520 20.778 12.519 16.919 C 12.518 14.707,12.502 12.992,12.481 12.900 C 12.426 12.659,12.249 12.520,12.000 12.520 C 11.840 12.520,11.778 12.541,11.679 12.630 " stroke="none" fill="black" fill-rule="evenodd"></path></svg>