<svg xmlns="http://www.w3.org/2000/svg" class="icon icon-tabler icon-tabler-code" width="24" height="24" viewBox="0 0 24 24" stroke-width="1" stroke="currentColor" fill="none" stroke-linecap="round" stroke-linejoin="round"><path d="M13.663 3.650 C 13.537 3.777,13.492 3.948,11.527 11.810 C 10.332 16.592,9.520 19.914,9.520 20.024 C 9.520 20.180,9.541 20.229,9.656 20.344 C 9.776 20.464,9.817 20.480,10.000 20.480 C 10.182 20.480,10.224 20.463,10.337 20.350 C 10.463 20.223,10.508 20.052,12.473 12.190 C 13.668 7.408,14.480 4.086,14.480 3.976 C 14.480 3.820,14.459 3.771,14.344 3.656 C 14.224 3.536,14.183 3.520,14.000 3.520 C 13.818 3.520,13.776 3.537,13.663 3.650 M4.650 9.650 L 2.520 11.781 2.520 12.000 L 2.520 12.219 4.650 14.350 L 6.781 16.480 6.994 16.480 C 7.184 16.480,7.223 16.465,7.344 16.344 C 7.465 16.223,7.480 16.184,7.480 15.995 L 7.480 15.782 5.591 13.891 L 3.701 12.000 5.591 10.109 L 7.480 8.218 7.480 8.005 C 7.480 7.816,7.465 7.777,7.344 7.656 C 7.223 7.535,7.184 7.520,6.994 7.520 L 6.781 7.520 4.650 9.650 M16.656 7.656 C 16.535 7.777,16.520 7.816,16.520 8.005 L 16.520 8.218 18.409 10.109 L 20.299 12.000 18.409 13.891 L 16.520 15.782 16.520 15.995 C 16.520 16.184,16.535 16.223,16.656 16.344 C 16.777 16.465,16.816 16.480,17.006 16.480 L 17.219 16.480 19.350 14.350 L 21.480 12.219 21.480 12.000 L 21.480 11.781 19.350 9.650 L 17.219 7.520 17.006 7.520 C 16.816 7.520,16.777 7.535,16.656 7.656 " stroke="none" fill="black" fill-rule="evenodd"></path></svg>