<svg xmlns="http://www.w3.org/2000/svg" class="icon icon-tabler icon-tabler-coin" width="24" height="24" viewBox="0 0 24 24" stroke-width="1" stroke="currentColor" fill="none" stroke-linecap="round" stroke-linejoin="round"><path d="M10.900 2.564 C 9.092 2.784,7.444 3.481,6.020 4.628 C 4.323 5.995,3.091 8.034,2.679 10.160 C 2.468 11.247,2.468 12.755,2.679 13.840 C 3.019 15.591,3.905 17.278,5.170 18.585 C 6.746 20.212,8.748 21.195,10.991 21.441 C 11.569 21.505,12.996 21.471,13.520 21.382 C 16.578 20.862,19.166 18.939,20.519 16.180 C 21.189 14.815,21.480 13.549,21.480 12.000 C 21.480 10.487,21.202 9.243,20.562 7.900 C 19.798 6.294,18.506 4.858,16.968 3.907 C 15.800 3.185,14.424 2.710,13.072 2.562 C 12.621 2.513,11.309 2.514,10.900 2.564 M13.160 3.581 C 14.081 3.712,14.852 3.948,15.700 4.360 C 16.622 4.807,17.277 5.273,18.002 5.998 C 19.251 7.248,20.028 8.728,20.365 10.500 C 20.470 11.053,20.512 12.362,20.444 12.946 C 20.245 14.630,19.576 16.182,18.485 17.486 C 17.115 19.122,15.119 20.188,12.946 20.444 C 12.362 20.512,11.053 20.470,10.500 20.365 C 7.839 19.860,5.635 18.221,4.428 15.851 C 4.054 15.115,3.799 14.359,3.635 13.500 C 3.515 12.874,3.486 11.525,3.577 10.868 C 4.105 7.087,7.016 4.152,10.800 3.585 C 11.320 3.507,12.623 3.505,13.160 3.581 M11.679 5.630 C 11.509 5.782,11.482 5.941,11.481 6.790 L 11.480 7.520 11.045 7.520 C 10.285 7.520,9.749 7.734,9.242 8.242 C 8.749 8.734,8.520 9.289,8.520 9.989 C 8.520 11.171,9.248 12.114,10.400 12.423 C 10.613 12.480,10.908 12.497,12.040 12.517 L 13.420 12.540 13.641 12.649 C 13.924 12.787,14.213 13.076,14.351 13.359 C 14.449 13.557,14.460 13.624,14.460 14.000 C 14.460 14.506,14.392 14.686,14.077 15.020 C 13.824 15.287,13.551 15.426,13.180 15.477 C 12.817 15.527,11.100 15.527,10.747 15.478 C 10.369 15.425,10.072 15.270,9.846 15.008 C 9.421 14.515,9.428 14.520,9.200 14.520 C 9.017 14.520,8.976 14.536,8.856 14.656 C 8.739 14.773,8.720 14.819,8.720 14.987 C 8.720 15.142,8.748 15.222,8.856 15.384 C 9.183 15.869,9.754 16.276,10.300 16.413 C 10.432 16.447,10.752 16.486,11.010 16.502 L 11.480 16.530 11.481 17.235 C 11.482 18.059,11.510 18.219,11.679 18.370 C 11.853 18.527,12.147 18.527,12.321 18.370 C 12.490 18.219,12.518 18.058,12.519 17.238 L 12.520 16.535 13.030 16.493 C 13.644 16.443,14.016 16.325,14.407 16.058 C 14.863 15.746,15.196 15.307,15.364 14.793 C 15.503 14.370,15.503 13.630,15.364 13.207 C 15.130 12.492,14.560 11.911,13.839 11.650 C 13.542 11.543,13.532 11.542,12.140 11.517 C 10.580 11.489,10.485 11.475,10.135 11.216 C 9.889 11.033,9.697 10.784,9.593 10.512 C 9.474 10.198,9.499 9.663,9.649 9.359 C 9.787 9.076,10.076 8.787,10.359 8.649 L 10.580 8.540 11.840 8.520 C 12.533 8.509,13.197 8.514,13.315 8.531 C 13.638 8.578,13.940 8.744,14.154 8.992 C 14.579 9.485,14.572 9.480,14.800 9.480 C 14.983 9.480,15.024 9.464,15.144 9.344 C 15.419 9.069,15.300 8.696,14.775 8.184 C 14.518 7.933,14.058 7.677,13.694 7.583 C 13.539 7.543,13.278 7.520,12.984 7.520 L 12.520 7.520 12.519 6.790 C 12.518 5.941,12.491 5.782,12.321 5.630 C 12.222 5.541,12.160 5.520,12.000 5.520 C 11.840 5.520,11.778 5.541,11.679 5.630 " stroke="none" fill="black" fill-rule="evenodd"></path></svg>