<svg xmlns="http://www.w3.org/2000/svg" class="icon icon-tabler icon-tabler-color-picker" width="24" height="24" viewBox="0 0 24 24" stroke-width="1" stroke="currentColor" fill="none" stroke-linecap="round" stroke-linejoin="round"><path d="M14.980 4.574 C 14.892 4.603,14.757 4.659,14.680 4.698 C 14.603 4.737,13.969 5.337,13.271 6.033 L 12.002 7.297 11.606 6.908 L 11.211 6.520 11.002 6.520 C 10.817 6.520,10.776 6.536,10.656 6.656 C 10.536 6.776,10.520 6.817,10.520 7.002 L 10.520 7.211 10.909 7.607 L 11.297 8.002 7.911 11.391 L 4.526 14.780 4.500 15.000 C 4.486 15.121,4.481 16.103,4.487 17.182 C 4.499 18.976,4.506 19.153,4.571 19.251 C 4.739 19.508,4.662 19.499,6.818 19.513 C 7.897 19.519,8.879 19.514,9.000 19.500 L 9.220 19.474 12.609 16.089 L 15.998 12.703 16.393 13.091 L 16.789 13.480 16.998 13.480 C 17.183 13.480,17.224 13.464,17.344 13.344 C 17.464 13.224,17.480 13.183,17.480 12.998 L 17.480 12.789 17.092 12.394 L 16.703 11.998 17.970 10.729 C 19.457 9.239,19.460 9.234,19.460 8.600 C 19.460 7.957,19.480 7.985,17.768 6.268 C 16.081 4.577,16.052 4.555,15.466 4.533 C 15.270 4.526,15.076 4.542,14.980 4.574 M15.632 5.577 C 15.762 5.647,18.373 8.263,18.436 8.387 C 18.497 8.508,18.491 8.703,18.423 8.832 C 18.391 8.891,17.833 9.471,17.183 10.120 L 16.000 11.300 14.350 9.650 L 12.700 8.000 13.860 6.836 C 14.498 6.196,15.074 5.638,15.140 5.596 C 15.283 5.506,15.483 5.498,15.632 5.577 M13.660 10.360 L 15.300 12.000 12.040 15.260 L 8.780 18.520 7.150 18.520 L 5.520 18.520 5.520 16.850 L 5.520 15.180 8.750 11.950 C 10.526 10.174,11.989 8.720,12.000 8.720 C 12.011 8.720,12.758 9.458,13.660 10.360 " stroke="none" fill="black" fill-rule="evenodd"></path></svg>