<svg xmlns="http://www.w3.org/2000/svg" class="icon icon-tabler icon-tabler-color-swatch" width="24" height="24" viewBox="0 0 24 24" stroke-width="1" stroke="currentColor" fill="none" stroke-linecap="round" stroke-linejoin="round"><path d="M14.274 2.614 C 13.870 2.735,13.561 2.922,13.242 3.242 C 12.917 3.567,12.734 3.871,12.610 4.294 C 12.531 4.566,12.511 4.744,12.491 5.372 L 12.468 6.123 11.744 5.408 C 11.111 4.783,10.982 4.674,10.720 4.547 C 10.555 4.467,10.313 4.374,10.182 4.341 C 9.836 4.253,9.282 4.262,8.919 4.363 C 8.308 4.531,8.252 4.577,6.397 6.435 C 4.799 8.035,4.685 8.158,4.548 8.440 C 4.350 8.843,4.277 9.149,4.275 9.582 C 4.274 9.999,4.352 10.347,4.526 10.699 C 4.697 11.043,4.781 11.145,5.495 11.870 L 6.135 12.520 5.372 12.520 C 4.692 12.520,4.574 12.530,4.288 12.613 C 3.872 12.733,3.566 12.917,3.242 13.242 C 2.922 13.562,2.738 13.865,2.604 14.294 L 2.502 14.620 2.501 16.980 C 2.500 19.133,2.506 19.362,2.572 19.593 C 2.840 20.538,3.464 21.163,4.400 21.427 C 4.647 21.496,4.978 21.500,11.040 21.500 C 16.243 21.500,17.475 21.490,17.720 21.446 C 19.618 21.102,20.999 19.758,21.427 17.839 C 21.488 17.569,21.495 16.948,21.509 11.380 C 21.518 7.617,21.509 5.071,21.485 4.836 C 21.380 3.783,20.785 2.995,19.835 2.648 L 19.540 2.540 17.060 2.532 C 14.583 2.523,14.580 2.523,14.274 2.614 M19.641 3.649 C 19.924 3.787,20.213 4.076,20.351 4.359 L 20.460 4.580 20.460 11.140 L 20.460 17.700 20.328 18.080 C 20.136 18.635,19.883 19.037,19.460 19.460 C 19.037 19.883,18.634 20.137,18.080 20.328 C 17.707 20.457,17.687 20.459,17.000 20.459 C 16.313 20.459,16.293 20.457,15.920 20.328 C 15.366 20.137,14.963 19.883,14.540 19.460 C 14.117 19.037,13.864 18.635,13.672 18.080 L 13.540 17.700 13.529 11.192 C 13.519 4.833,13.520 4.680,13.596 4.480 C 13.743 4.093,14.083 3.750,14.468 3.598 C 14.650 3.527,14.790 3.523,17.040 3.531 L 19.420 3.540 19.641 3.649 M10.241 5.428 C 10.460 5.537,10.651 5.708,11.489 6.548 L 12.477 7.540 12.489 12.490 L 12.500 17.440 9.009 13.950 C 6.247 11.189,5.497 10.418,5.420 10.260 C 5.223 9.855,5.222 9.361,5.419 8.932 C 5.510 8.732,5.738 8.486,7.052 7.169 C 7.893 6.326,8.648 5.590,8.732 5.532 C 8.997 5.348,9.261 5.278,9.641 5.289 C 9.932 5.298,10.020 5.319,10.241 5.428 M10.641 17.020 L 14.142 20.520 9.621 20.519 C 6.826 20.519,4.993 20.503,4.820 20.478 C 4.666 20.456,4.449 20.394,4.339 20.341 C 4.075 20.212,3.784 19.918,3.649 19.641 L 3.540 19.420 3.529 17.053 C 3.519 14.789,3.522 14.677,3.596 14.481 C 3.744 14.093,4.083 13.749,4.468 13.599 C 4.641 13.531,4.785 13.524,5.900 13.522 L 7.140 13.520 10.641 17.020 M16.656 16.656 C 16.537 16.775,16.520 16.818,16.520 16.993 C 16.520 17.233,16.643 17.408,16.861 17.480 C 17.043 17.540,17.242 17.477,17.379 17.314 C 17.458 17.220,17.480 17.150,17.480 16.993 C 17.480 16.818,17.463 16.775,17.344 16.656 C 17.224 16.536,17.183 16.520,17.000 16.520 C 16.817 16.520,16.776 16.536,16.656 16.656 " stroke="none" fill="black" fill-rule="evenodd"></path></svg>