<svg xmlns="http://www.w3.org/2000/svg" class="icon icon-tabler icon-tabler-columns" width="24" height="24" viewBox="0 0 24 24" stroke-width="1" stroke="currentColor" fill="none" stroke-linecap="round" stroke-linejoin="round"><path d="M3.656 5.656 C 3.536 5.776,3.520 5.817,3.520 6.000 C 3.520 6.182,3.537 6.225,3.652 6.340 C 3.758 6.446,3.828 6.478,4.002 6.498 C 4.122 6.513,5.435 6.519,6.920 6.512 C 9.927 6.499,9.799 6.511,9.935 6.226 C 10.017 6.052,10.017 5.948,9.935 5.774 C 9.809 5.509,9.949 5.520,6.718 5.520 L 3.792 5.520 3.656 5.656 M14.235 5.580 C 14.122 5.642,14.000 5.859,14.000 6.000 C 14.000 6.149,14.125 6.360,14.255 6.432 C 14.369 6.494,14.625 6.501,17.080 6.512 C 18.565 6.519,19.878 6.513,19.998 6.498 C 20.172 6.478,20.242 6.446,20.348 6.340 C 20.463 6.225,20.480 6.182,20.480 6.000 C 20.480 5.817,20.464 5.776,20.344 5.656 L 20.208 5.520 17.274 5.522 C 14.814 5.523,14.323 5.532,14.235 5.580 M3.656 9.656 C 3.536 9.776,3.520 9.817,3.520 10.000 C 3.520 10.182,3.537 10.225,3.652 10.340 C 3.758 10.446,3.828 10.478,4.002 10.498 C 4.122 10.513,5.435 10.519,6.920 10.512 C 9.927 10.499,9.799 10.511,9.935 10.226 C 10.017 10.052,10.017 9.948,9.935 9.774 C 9.809 9.509,9.949 9.520,6.718 9.520 L 3.792 9.520 3.656 9.656 M14.235 9.580 C 14.122 9.642,14.000 9.859,14.000 10.000 C 14.000 10.149,14.125 10.360,14.255 10.432 C 14.369 10.494,14.625 10.501,17.080 10.512 C 18.565 10.519,19.878 10.513,19.998 10.498 C 20.172 10.478,20.242 10.446,20.348 10.340 C 20.463 10.225,20.480 10.182,20.480 10.000 C 20.480 9.817,20.464 9.776,20.344 9.656 L 20.208 9.520 17.274 9.522 C 14.814 9.523,14.323 9.532,14.235 9.580 M3.656 13.656 C 3.536 13.776,3.520 13.817,3.520 14.000 C 3.520 14.182,3.537 14.225,3.652 14.340 C 3.758 14.446,3.828 14.478,4.002 14.498 C 4.122 14.513,5.435 14.519,6.920 14.512 C 9.927 14.499,9.799 14.511,9.935 14.226 C 10.017 14.052,10.017 13.948,9.935 13.774 C 9.809 13.509,9.949 13.520,6.718 13.520 L 3.792 13.520 3.656 13.656 M14.235 13.580 C 14.122 13.642,14.000 13.859,14.000 14.000 C 14.000 14.149,14.125 14.360,14.255 14.432 C 14.369 14.494,14.625 14.501,17.080 14.512 C 18.565 14.519,19.878 14.513,19.998 14.498 C 20.172 14.478,20.242 14.446,20.348 14.340 C 20.463 14.225,20.480 14.182,20.480 14.000 C 20.480 13.817,20.464 13.776,20.344 13.656 L 20.208 13.520 17.274 13.522 C 14.814 13.523,14.323 13.532,14.235 13.580 M3.656 17.656 C 3.536 17.776,3.520 17.817,3.520 18.000 C 3.520 18.182,3.537 18.225,3.652 18.340 C 3.758 18.446,3.828 18.478,4.002 18.498 C 4.122 18.513,5.435 18.519,6.920 18.512 C 9.927 18.499,9.799 18.511,9.935 18.226 C 10.017 18.052,10.017 17.948,9.935 17.774 C 9.809 17.509,9.949 17.520,6.718 17.520 L 3.792 17.520 3.656 17.656 M14.235 17.580 C 14.122 17.642,14.000 17.859,14.000 18.000 C 14.000 18.149,14.125 18.360,14.255 18.432 C 14.369 18.494,14.625 18.501,17.080 18.512 C 18.565 18.519,19.878 18.513,19.998 18.498 C 20.172 18.478,20.242 18.446,20.348 18.340 C 20.463 18.225,20.480 18.182,20.480 18.000 C 20.480 17.817,20.464 17.776,20.344 17.656 L 20.208 17.520 17.274 17.522 C 14.814 17.523,14.323 17.532,14.235 17.580 " stroke="none" fill="black" fill-rule="evenodd"></path></svg>