<svg xmlns="http://www.w3.org/2000/svg" class="icon icon-tabler icon-tabler-command" width="24" height="24" viewBox="0 0 24 24" stroke-width="1" stroke="currentColor" fill="none" stroke-linecap="round" stroke-linejoin="round"><path d="M6.274 4.613 C 5.869 4.736,5.560 4.923,5.242 5.241 C 4.718 5.764,4.500 6.331,4.528 7.098 C 4.541 7.445,4.568 7.604,4.650 7.835 C 4.982 8.764,5.778 9.375,6.794 9.482 C 6.984 9.502,7.441 9.519,7.810 9.519 L 8.480 9.520 8.480 12.020 L 8.480 14.520 7.545 14.520 C 6.684 14.520,6.583 14.527,6.288 14.613 C 5.873 14.733,5.567 14.917,5.242 15.241 C 4.718 15.764,4.500 16.331,4.528 17.098 C 4.541 17.446,4.567 17.603,4.652 17.839 C 4.908 18.557,5.492 19.130,6.207 19.364 C 6.459 19.447,6.576 19.460,7.040 19.459 C 7.553 19.457,7.596 19.451,7.900 19.328 C 8.489 19.092,8.978 18.643,9.238 18.100 C 9.450 17.659,9.483 17.455,9.508 16.450 L 9.531 15.520 12.006 15.520 L 14.480 15.520 14.481 16.190 C 14.481 16.558,14.498 17.016,14.518 17.206 C 14.626 18.236,15.268 19.057,16.207 19.364 C 16.459 19.447,16.576 19.460,17.040 19.459 C 17.553 19.457,17.596 19.451,17.900 19.328 C 18.882 18.933,19.480 18.053,19.480 17.000 C 19.480 15.948,18.884 15.069,17.900 14.671 L 17.580 14.541 16.550 14.528 L 15.520 14.514 15.520 12.017 L 15.520 9.520 16.190 9.519 C 17.038 9.518,17.475 9.472,17.841 9.345 C 18.538 9.103,19.097 8.544,19.348 7.839 C 19.489 7.446,19.522 6.792,19.421 6.400 C 19.215 5.602,18.663 4.975,17.900 4.674 C 17.624 4.565,17.517 4.545,17.120 4.529 C 16.732 4.514,16.608 4.525,16.333 4.599 C 15.910 4.713,15.566 4.916,15.241 5.242 C 14.918 5.566,14.735 5.871,14.609 6.294 C 14.522 6.586,14.510 6.719,14.490 7.570 L 14.469 8.520 12.000 8.520 L 9.531 8.520 9.508 7.570 C 9.483 6.543,9.451 6.344,9.238 5.900 C 8.977 5.356,8.486 4.906,7.900 4.673 C 7.612 4.559,7.530 4.545,7.080 4.533 C 6.647 4.521,6.539 4.532,6.274 4.613 M7.641 5.649 C 7.763 5.708,7.948 5.843,8.053 5.947 C 8.157 6.052,8.292 6.237,8.351 6.359 C 8.459 6.578,8.460 6.587,8.473 7.550 L 8.485 8.520 7.793 8.519 C 6.662 8.518,6.328 8.433,5.947 8.053 C 5.655 7.761,5.543 7.495,5.526 7.060 C 5.516 6.772,5.529 6.657,5.593 6.488 C 5.743 6.094,6.077 5.753,6.468 5.597 C 6.766 5.478,7.345 5.503,7.641 5.649 M17.641 5.649 C 17.924 5.787,18.213 6.076,18.351 6.359 C 18.449 6.557,18.460 6.624,18.460 7.000 C 18.460 7.506,18.392 7.686,18.077 8.020 C 17.688 8.431,17.363 8.518,16.210 8.519 L 15.520 8.520 15.520 7.600 C 15.520 6.790,15.529 6.657,15.597 6.478 C 15.743 6.094,16.081 5.752,16.468 5.597 C 16.766 5.478,17.345 5.503,17.641 5.649 M14.480 12.020 L 14.480 14.520 12.000 14.520 L 9.520 14.520 9.520 12.020 L 9.520 9.520 12.000 9.520 L 14.480 9.520 14.480 12.020 M8.473 16.470 C 8.461 17.349,8.453 17.434,8.372 17.610 C 8.250 17.875,7.912 18.218,7.644 18.350 C 7.443 18.449,7.377 18.460,7.000 18.460 C 6.624 18.460,6.557 18.449,6.359 18.351 C 6.076 18.213,5.787 17.924,5.649 17.641 C 5.499 17.337,5.474 16.802,5.593 16.488 C 5.744 16.093,6.080 15.750,6.468 15.599 C 6.635 15.533,6.778 15.524,7.573 15.522 L 8.485 15.520 8.473 16.470 M17.641 15.649 C 17.924 15.787,18.213 16.076,18.351 16.359 C 18.449 16.557,18.460 16.624,18.460 17.000 C 18.460 17.348,18.445 17.453,18.372 17.610 C 18.250 17.875,17.912 18.218,17.644 18.350 C 17.443 18.449,17.377 18.460,17.000 18.460 C 16.624 18.460,16.557 18.449,16.359 18.351 C 16.076 18.213,15.787 17.924,15.649 17.641 C 15.541 17.422,15.540 17.411,15.528 16.468 L 15.516 15.516 16.468 15.528 C 17.411 15.540,17.422 15.541,17.641 15.649 " stroke="none" fill="black" fill-rule="evenodd"></path></svg>