<svg xmlns="http://www.w3.org/2000/svg" class="icon icon-tabler icon-tabler-copyright" width="24" height="24" viewBox="0 0 24 24" stroke-width="1" stroke="currentColor" fill="none" stroke-linecap="round" stroke-linejoin="round"><path d="M10.900 2.564 C 9.092 2.784,7.444 3.481,6.020 4.628 C 4.323 5.995,3.091 8.034,2.679 10.160 C 2.468 11.247,2.468 12.755,2.679 13.840 C 3.019 15.591,3.905 17.278,5.170 18.585 C 6.746 20.212,8.748 21.195,10.991 21.441 C 11.569 21.505,12.996 21.471,13.520 21.382 C 16.578 20.862,19.166 18.939,20.519 16.180 C 21.189 14.815,21.480 13.549,21.480 12.000 C 21.480 10.487,21.202 9.243,20.562 7.900 C 19.798 6.294,18.506 4.858,16.968 3.907 C 15.800 3.185,14.424 2.710,13.072 2.562 C 12.621 2.513,11.309 2.514,10.900 2.564 M13.160 3.581 C 14.081 3.712,14.852 3.948,15.700 4.360 C 16.622 4.807,17.277 5.273,18.002 5.998 C 19.251 7.248,20.028 8.728,20.365 10.500 C 20.470 11.053,20.512 12.362,20.444 12.946 C 20.245 14.630,19.576 16.182,18.485 17.486 C 17.115 19.122,15.119 20.188,12.946 20.444 C 12.362 20.512,11.053 20.470,10.500 20.365 C 7.839 19.860,5.635 18.221,4.428 15.851 C 4.054 15.115,3.799 14.359,3.635 13.500 C 3.515 12.874,3.486 11.525,3.577 10.868 C 4.105 7.087,7.016 4.152,10.800 3.585 C 11.320 3.507,12.623 3.505,13.160 3.581 M11.290 7.620 C 10.208 7.899,9.253 8.701,8.704 9.792 C 8.364 10.467,8.200 11.187,8.200 12.000 C 8.200 13.300,8.634 14.420,9.477 15.294 C 10.241 16.086,11.132 16.480,12.163 16.480 C 13.107 16.480,13.854 16.206,14.595 15.588 C 14.985 15.262,15.070 15.059,14.935 14.774 C 14.858 14.612,14.700 14.520,14.499 14.520 C 14.318 14.520,14.231 14.566,13.977 14.796 C 13.713 15.034,13.327 15.260,13.000 15.367 C 12.638 15.486,11.919 15.513,11.560 15.421 C 10.733 15.210,10.020 14.599,9.596 13.740 C 9.284 13.106,9.225 12.831,9.225 12.000 C 9.225 11.402,9.238 11.253,9.313 10.980 C 9.621 9.860,10.371 8.991,11.327 8.649 C 11.709 8.513,12.410 8.478,12.803 8.576 C 13.171 8.667,13.677 8.933,13.947 9.177 C 14.233 9.435,14.315 9.480,14.499 9.480 C 14.700 9.480,14.858 9.388,14.935 9.226 C 15.069 8.943,14.983 8.732,14.605 8.416 C 14.105 7.998,13.515 7.705,12.919 7.580 C 12.471 7.486,11.739 7.503,11.290 7.620 " stroke="none" fill="black" fill-rule="evenodd"></path></svg>