<svg xmlns="http://www.w3.org/2000/svg" class="icon icon-tabler icon-tabler-copyleft" width="24" height="24" viewBox="0 0 24 24" stroke-width="1" stroke="currentColor" fill="none" stroke-linecap="round" stroke-linejoin="round"><path d="M10.900 2.564 C 9.092 2.784,7.444 3.481,6.020 4.628 C 4.323 5.995,3.091 8.034,2.679 10.160 C 2.468 11.247,2.468 12.755,2.679 13.840 C 3.019 15.591,3.905 17.278,5.170 18.585 C 6.746 20.212,8.748 21.195,10.991 21.441 C 11.569 21.505,12.996 21.471,13.520 21.382 C 16.578 20.862,19.166 18.939,20.519 16.180 C 21.189 14.815,21.480 13.549,21.480 12.000 C 21.480 10.487,21.202 9.243,20.562 7.900 C 19.798 6.294,18.506 4.858,16.968 3.907 C 15.800 3.185,14.424 2.710,13.072 2.562 C 12.621 2.513,11.309 2.514,10.900 2.564 M13.160 3.581 C 14.081 3.712,14.852 3.948,15.700 4.360 C 16.622 4.807,17.277 5.273,18.002 5.998 C 19.251 7.248,20.028 8.728,20.365 10.500 C 20.470 11.053,20.512 12.362,20.444 12.946 C 20.245 14.630,19.576 16.182,18.485 17.486 C 17.115 19.122,15.119 20.188,12.946 20.444 C 12.362 20.512,11.053 20.470,10.500 20.365 C 7.839 19.860,5.635 18.221,4.428 15.851 C 4.054 15.115,3.799 14.359,3.635 13.500 C 3.515 12.874,3.486 11.525,3.577 10.868 C 4.105 7.087,7.016 4.152,10.800 3.585 C 11.320 3.507,12.623 3.505,13.160 3.581 M11.059 7.581 C 10.441 7.717,9.876 8.007,9.334 8.468 C 9.016 8.738,8.938 8.957,9.065 9.226 C 9.142 9.388,9.300 9.480,9.501 9.480 C 9.682 9.480,9.768 9.434,10.024 9.204 C 10.282 8.972,10.605 8.778,10.950 8.649 C 11.313 8.513,12.050 8.478,12.440 8.579 C 13.268 8.791,13.980 9.401,14.404 10.260 C 14.716 10.894,14.775 11.169,14.775 12.000 C 14.775 12.831,14.716 13.106,14.404 13.740 C 13.975 14.610,13.243 15.230,12.420 15.422 C 12.039 15.511,11.359 15.485,11.000 15.367 C 10.673 15.260,10.287 15.034,10.023 14.796 C 9.769 14.566,9.682 14.520,9.501 14.520 C 9.300 14.520,9.142 14.612,9.065 14.774 C 8.898 15.128,9.081 15.401,9.815 15.893 C 10.392 16.279,10.929 16.443,11.700 16.469 C 12.174 16.485,12.314 16.475,12.611 16.405 C 13.347 16.229,13.967 15.872,14.504 15.312 C 15.372 14.408,15.800 13.313,15.800 12.000 C 15.800 11.413,15.726 10.928,15.559 10.432 C 15.325 9.731,15.008 9.207,14.503 8.686 C 13.964 8.130,13.346 7.771,12.632 7.600 C 12.239 7.506,11.444 7.496,11.059 7.581 " stroke="none" fill="black" fill-rule="evenodd"></path></svg>