<svg xmlns="http://www.w3.org/2000/svg" class="icon icon-tabler icon-tabler-copy" width="24" height="24" viewBox="0 0 24 24" stroke-width="1" stroke="currentColor" fill="none" stroke-linecap="round" stroke-linejoin="round"><path d="M5.274 3.614 C 4.870 3.735,4.561 3.922,4.242 4.242 C 3.922 4.561,3.739 4.864,3.603 5.294 L 3.500 5.620 3.500 9.980 C 3.500 14.085,3.504 14.355,3.573 14.600 C 3.835 15.529,4.471 16.167,5.386 16.420 C 5.555 16.467,5.876 16.491,6.544 16.508 L 7.469 16.531 7.492 17.456 C 7.509 18.124,7.533 18.445,7.580 18.614 C 7.831 19.520,8.458 20.152,9.380 20.424 C 9.602 20.490,9.934 20.496,13.700 20.510 C 16.314 20.519,17.927 20.509,18.189 20.483 C 19.306 20.370,20.121 19.684,20.427 18.600 C 20.496 18.355,20.500 18.085,20.500 14.000 C 20.500 9.915,20.496 9.645,20.427 9.400 C 20.196 8.582,19.665 7.980,18.900 7.671 L 18.580 7.541 17.556 7.528 L 16.531 7.514 16.508 6.567 C 16.483 5.543,16.451 5.343,16.238 4.900 C 15.978 4.358,15.491 3.911,14.900 3.670 L 14.580 3.540 10.080 3.532 L 5.580 3.523 5.274 3.614 M14.641 4.649 C 14.924 4.787,15.213 5.076,15.351 5.359 C 15.459 5.578,15.460 5.587,15.473 6.550 L 15.485 7.520 12.547 7.520 L 9.609 7.520 9.288 7.613 C 8.872 7.733,8.566 7.917,8.242 8.242 C 7.921 8.562,7.738 8.865,7.605 9.294 L 7.503 9.620 7.489 12.575 L 7.475 15.530 6.607 15.510 C 5.630 15.487,5.455 15.452,5.135 15.216 C 4.891 15.035,4.697 14.784,4.597 14.522 C 4.523 14.326,4.520 14.166,4.520 10.000 C 4.520 5.834,4.523 5.674,4.597 5.478 C 4.743 5.093,5.084 4.749,5.468 4.599 C 5.652 4.526,5.834 4.524,10.040 4.532 L 14.420 4.540 14.641 4.649 M18.641 8.649 C 18.924 8.787,19.213 9.076,19.351 9.359 L 19.460 9.580 19.460 14.000 L 19.460 18.420 19.350 18.644 C 19.219 18.910,18.873 19.252,18.623 19.363 C 18.280 19.515,17.958 19.524,13.780 19.511 C 10.073 19.500,9.723 19.493,9.535 19.429 C 9.130 19.292,8.750 18.925,8.597 18.522 C 8.523 18.326,8.520 18.166,8.520 14.000 C 8.520 9.834,8.523 9.674,8.597 9.478 C 8.743 9.093,9.084 8.749,9.468 8.599 C 9.652 8.526,9.834 8.524,14.040 8.532 L 18.420 8.540 18.641 8.649 " stroke="none" fill="black" fill-rule="evenodd"></path></svg>