<svg xmlns="http://www.w3.org/2000/svg" class="icon icon-tabler icon-tabler-corner-up-left" width="24" height="24" viewBox="0 0 24 24" stroke-width="1" stroke="currentColor" fill="none" stroke-linecap="round" stroke-linejoin="round"><path d="M7.150 6.150 L 4.520 8.781 4.520 9.000 L 4.520 9.219 7.150 11.850 L 9.781 14.480 9.994 14.480 C 10.184 14.480,10.223 14.465,10.344 14.344 C 10.465 14.223,10.480 14.184,10.480 13.995 L 10.480 13.782 8.350 11.650 L 6.220 9.519 10.900 9.529 L 15.580 9.540 15.829 9.633 C 16.112 9.740,16.476 9.964,16.717 10.182 C 16.938 10.381,17.248 10.854,17.364 11.166 L 17.458 11.420 17.479 14.780 C 17.495 17.354,17.512 18.160,17.550 18.227 C 17.707 18.501,18.095 18.573,18.321 18.370 C 18.395 18.304,18.459 18.196,18.481 18.100 C 18.532 17.881,18.530 12.298,18.479 11.724 C 18.401 10.842,18.085 10.165,17.460 9.540 C 17.037 9.117,16.635 8.864,16.080 8.672 L 15.700 8.540 10.970 8.529 C 8.369 8.523,6.240 8.505,6.240 8.490 C 6.240 8.474,7.194 7.506,8.360 6.340 L 10.480 4.218 10.480 4.005 C 10.480 3.816,10.465 3.777,10.344 3.656 C 10.223 3.535,10.184 3.520,9.994 3.520 L 9.781 3.520 7.150 6.150 " stroke="none" fill="black" fill-rule="evenodd"></path></svg>