<svg xmlns="http://www.w3.org/2000/svg" class="icon icon-tabler icon-tabler-corner-down-left" width="24" height="24" viewBox="0 0 24 24" stroke-width="1" stroke="currentColor" fill="none" stroke-linecap="round" stroke-linejoin="round"><path d="M17.705 5.603 C 17.647 5.649,17.577 5.725,17.550 5.773 C 17.512 5.840,17.495 6.646,17.479 9.220 L 17.458 12.580 17.366 12.829 C 17.177 13.337,16.832 13.772,16.378 14.076 C 16.023 14.313,15.682 14.432,15.213 14.481 C 14.798 14.525,6.240 14.534,6.240 14.490 C 6.240 14.474,7.194 13.506,8.360 12.340 L 10.480 10.218 10.480 10.005 C 10.480 9.816,10.465 9.777,10.344 9.656 C 10.223 9.535,10.184 9.520,9.994 9.520 L 9.781 9.520 7.150 12.150 L 4.520 14.781 4.520 15.000 L 4.520 15.219 7.150 17.850 L 9.781 20.480 9.994 20.480 C 10.184 20.480,10.223 20.465,10.344 20.344 C 10.465 20.223,10.480 20.184,10.480 19.995 L 10.480 19.782 8.351 17.651 L 6.221 15.520 10.521 15.520 C 13.083 15.519,15.004 15.503,15.276 15.479 C 16.158 15.401,16.835 15.085,17.460 14.460 C 18.085 13.835,18.401 13.158,18.479 12.276 C 18.530 11.702,18.532 6.119,18.481 5.900 C 18.426 5.661,18.249 5.520,18.005 5.520 C 17.869 5.520,17.779 5.545,17.705 5.603 " stroke="none" fill="black" fill-rule="evenodd"></path></svg>