<svg xmlns="http://www.w3.org/2000/svg" class="icon icon-tabler icon-tabler-corner-right-down" width="24" height="24" viewBox="0 0 24 24" stroke-width="1" stroke="currentColor" fill="none" stroke-linecap="round" stroke-linejoin="round"><path d="M5.657 5.655 C 5.538 5.774,5.520 5.818,5.520 5.991 C 5.520 6.201,5.604 6.353,5.773 6.450 C 5.840 6.488,6.646 6.505,9.220 6.521 L 12.580 6.542 12.829 6.634 C 13.112 6.739,13.475 6.963,13.717 7.182 C 13.937 7.381,14.248 7.853,14.365 8.166 L 14.460 8.420 14.471 13.100 L 14.481 17.780 12.350 15.650 L 10.218 13.520 10.005 13.520 C 9.816 13.520,9.777 13.535,9.656 13.656 C 9.535 13.777,9.520 13.816,9.520 14.006 L 9.520 14.219 12.150 16.850 L 14.781 19.480 15.000 19.480 L 15.219 19.480 17.850 16.850 L 20.480 14.219 20.480 14.006 C 20.480 13.816,20.465 13.777,20.344 13.656 C 20.223 13.535,20.184 13.520,19.995 13.520 L 19.782 13.520 17.651 15.649 L 15.520 17.779 15.520 13.479 C 15.519 10.917,15.503 8.996,15.479 8.724 C 15.401 7.842,15.085 7.165,14.460 6.540 C 14.037 6.117,13.635 5.864,13.080 5.672 L 12.700 5.540 9.247 5.529 L 5.795 5.517 5.657 5.655 " stroke="none" fill="black" fill-rule="evenodd"></path></svg>