<svg xmlns="http://www.w3.org/2000/svg" class="icon icon-tabler icon-tabler-corner-down-right" width="24" height="24" viewBox="0 0 24 24" stroke-width="1" stroke="currentColor" fill="none" stroke-linecap="round" stroke-linejoin="round"><path d="M5.679 5.630 C 5.605 5.696,5.541 5.804,5.519 5.900 C 5.468 6.119,5.470 11.702,5.521 12.276 C 5.599 13.158,5.915 13.835,6.540 14.460 C 7.165 15.085,7.842 15.401,8.724 15.479 C 8.996 15.503,10.917 15.519,13.479 15.520 L 17.779 15.520 15.649 17.651 L 13.520 19.782 13.520 19.995 C 13.520 20.184,13.535 20.223,13.656 20.344 C 13.777 20.465,13.816 20.480,14.006 20.480 L 14.219 20.480 16.850 17.850 L 19.480 15.219 19.480 15.000 L 19.480 14.781 16.850 12.150 L 14.219 9.520 14.006 9.520 C 13.816 9.520,13.777 9.535,13.656 9.656 C 13.535 9.777,13.520 9.816,13.520 10.005 L 13.520 10.218 15.640 12.340 C 16.806 13.506,17.760 14.474,17.760 14.490 C 17.760 14.534,9.202 14.525,8.787 14.481 C 8.318 14.432,7.977 14.313,7.622 14.076 C 7.168 13.772,6.823 13.337,6.634 12.829 L 6.542 12.580 6.521 9.220 C 6.505 6.646,6.488 5.840,6.450 5.773 C 6.293 5.499,5.905 5.427,5.679 5.630 " stroke="none" fill="black" fill-rule="evenodd"></path></svg>