<svg xmlns="http://www.w3.org/2000/svg" class="icon icon-tabler icon-tabler-corner-right-up" width="24" height="24" viewBox="0 0 24 24" stroke-width="1" stroke="currentColor" fill="none" stroke-linecap="round" stroke-linejoin="round"><path d="M12.150 7.150 L 9.520 9.781 9.520 9.994 C 9.520 10.184,9.535 10.223,9.656 10.344 C 9.777 10.465,9.816 10.480,10.005 10.480 L 10.218 10.480 12.349 8.351 L 14.480 6.221 14.480 10.802 C 14.480 14.807,14.472 15.413,14.418 15.622 C 14.191 16.495,13.520 17.169,12.620 17.427 C 12.405 17.488,12.035 17.498,9.067 17.518 L 5.753 17.540 5.637 17.671 C 5.541 17.778,5.520 17.837,5.520 18.000 C 5.520 18.249,5.659 18.426,5.900 18.481 C 6.119 18.532,11.702 18.530,12.276 18.479 C 13.158 18.401,13.835 18.085,14.460 17.460 C 15.085 16.835,15.401 16.158,15.479 15.276 C 15.503 15.004,15.519 13.083,15.520 10.521 L 15.520 6.221 17.651 8.351 L 19.782 10.480 19.995 10.480 C 20.184 10.480,20.223 10.465,20.344 10.344 C 20.465 10.223,20.480 10.184,20.480 9.994 L 20.480 9.781 17.850 7.150 L 15.219 4.520 15.000 4.520 L 14.781 4.520 12.150 7.150 " stroke="none" fill="black" fill-rule="evenodd"></path></svg>