<svg xmlns="http://www.w3.org/2000/svg" class="icon icon-tabler icon-tabler-corner-up-right" width="24" height="24" viewBox="0 0 24 24" stroke-width="1" stroke="currentColor" fill="none" stroke-linecap="round" stroke-linejoin="round"><path d="M13.656 3.656 C 13.535 3.777,13.520 3.816,13.520 4.005 L 13.520 4.218 15.640 6.340 C 16.806 7.506,17.760 8.474,17.760 8.490 C 17.760 8.505,15.632 8.523,13.030 8.529 L 8.300 8.540 7.920 8.672 C 7.365 8.864,6.963 9.117,6.540 9.540 C 5.915 10.165,5.599 10.842,5.521 11.724 C 5.470 12.298,5.468 17.881,5.519 18.100 C 5.541 18.196,5.605 18.304,5.679 18.370 C 5.905 18.573,6.293 18.501,6.450 18.227 C 6.488 18.160,6.505 17.354,6.521 14.780 L 6.542 11.420 6.636 11.166 C 6.752 10.854,7.062 10.381,7.283 10.182 C 7.524 9.964,7.888 9.740,8.171 9.633 L 8.420 9.540 13.100 9.529 L 17.780 9.519 15.650 11.650 L 13.520 13.782 13.520 13.995 C 13.520 14.184,13.535 14.223,13.656 14.344 C 13.777 14.465,13.816 14.480,14.006 14.480 L 14.219 14.480 16.850 11.850 L 19.480 9.219 19.480 9.000 L 19.480 8.781 16.850 6.150 L 14.219 3.520 14.006 3.520 C 13.816 3.520,13.777 3.535,13.656 3.656 " stroke="none" fill="black" fill-rule="evenodd"></path></svg>