<svg xmlns="http://www.w3.org/2000/svg" class="icon icon-tabler icon-tabler-corner-left-up" width="24" height="24" viewBox="0 0 24 24" stroke-width="1" stroke="currentColor" fill="none" stroke-linecap="round" stroke-linejoin="round"><path d="M6.150 7.150 L 3.520 9.781 3.520 9.994 C 3.520 10.184,3.535 10.223,3.656 10.344 C 3.777 10.465,3.816 10.480,4.005 10.480 L 4.218 10.480 6.349 8.351 L 8.480 6.221 8.480 10.521 C 8.481 13.083,8.497 15.004,8.521 15.276 C 8.599 16.158,8.915 16.835,9.540 17.460 C 10.165 18.085,10.842 18.401,11.724 18.479 C 12.298 18.530,17.881 18.532,18.100 18.481 C 18.341 18.426,18.480 18.249,18.480 18.000 C 18.480 17.837,18.459 17.778,18.363 17.671 L 18.247 17.540 14.933 17.518 C 11.965 17.498,11.595 17.488,11.380 17.427 C 10.480 17.169,9.809 16.495,9.582 15.622 C 9.528 15.413,9.520 14.807,9.520 10.802 L 9.520 6.221 11.651 8.351 L 13.782 10.480 13.995 10.480 C 14.184 10.480,14.223 10.465,14.344 10.344 C 14.465 10.223,14.480 10.184,14.480 9.994 L 14.480 9.781 11.850 7.150 L 9.219 4.520 9.000 4.520 L 8.781 4.520 6.150 7.150 " stroke="none" fill="black" fill-rule="evenodd"></path></svg>