<svg xmlns="http://www.w3.org/2000/svg" class="icon icon-tabler icon-tabler-corner-left-down" width="24" height="24" viewBox="0 0 24 24" stroke-width="1" stroke="currentColor" fill="none" stroke-linecap="round" stroke-linejoin="round"><path d="M11.259 5.579 C 10.614 5.719,9.930 6.108,9.471 6.594 C 8.910 7.189,8.594 7.897,8.521 8.725 C 8.497 8.995,8.481 10.927,8.480 13.479 L 8.480 17.779 6.349 15.649 L 4.218 13.520 4.005 13.520 C 3.816 13.520,3.777 13.535,3.656 13.656 C 3.535 13.777,3.520 13.816,3.520 14.006 L 3.520 14.219 6.150 16.850 L 8.781 19.480 9.000 19.480 L 9.219 19.480 11.850 16.850 L 14.480 14.219 14.480 14.006 C 14.480 13.816,14.465 13.777,14.344 13.656 C 14.223 13.535,14.184 13.520,13.995 13.520 L 13.782 13.520 11.650 15.650 L 9.519 17.780 9.529 13.100 L 9.540 8.420 9.635 8.166 C 9.752 7.853,10.063 7.381,10.283 7.182 C 10.525 6.963,10.888 6.739,11.171 6.634 L 11.420 6.542 14.780 6.521 C 17.354 6.505,18.160 6.488,18.227 6.450 C 18.396 6.353,18.480 6.201,18.480 5.991 C 18.480 5.818,18.462 5.774,18.344 5.656 L 18.208 5.520 14.854 5.523 C 12.248 5.526,11.446 5.538,11.259 5.579 " stroke="none" fill="black" fill-rule="evenodd"></path></svg>