<svg xmlns="http://www.w3.org/2000/svg" class="icon icon-tabler icon-tabler-credit-card" width="24" height="24" viewBox="0 0 24 24" stroke-width="1" stroke="currentColor" fill="none" stroke-linecap="round" stroke-linejoin="round"><path d="M5.259 4.578 C 4.613 4.720,3.929 5.108,3.471 5.594 C 2.910 6.189,2.594 6.897,2.521 7.725 C 2.467 8.330,2.468 15.672,2.521 16.276 C 2.599 17.158,2.915 17.835,3.540 18.460 C 4.165 19.085,4.842 19.401,5.724 19.479 C 6.340 19.533,17.660 19.533,18.276 19.479 C 20.018 19.325,21.325 18.018,21.479 16.275 C 21.532 15.672,21.532 8.328,21.479 7.725 C 21.408 6.920,21.097 6.205,20.571 5.637 C 20.147 5.179,19.696 4.888,19.079 4.672 L 18.700 4.540 12.100 4.533 C 6.765 4.527,5.454 4.536,5.259 4.578 M18.834 5.635 C 19.147 5.752,19.619 6.063,19.818 6.283 C 20.038 6.527,20.262 6.890,20.364 7.171 C 20.448 7.401,20.456 7.500,20.470 8.470 L 20.486 9.520 12.003 9.520 L 3.520 9.520 3.520 8.568 C 3.520 7.839,3.534 7.561,3.582 7.378 C 3.764 6.676,4.250 6.079,4.900 5.759 C 5.407 5.510,4.965 5.524,12.080 5.532 L 18.580 5.540 18.834 5.635 M20.471 13.550 L 20.459 16.580 20.366 16.829 C 20.176 17.338,19.832 17.773,19.378 18.076 C 19.023 18.313,18.682 18.432,18.213 18.481 C 17.748 18.530,6.252 18.530,5.787 18.481 C 5.318 18.432,4.977 18.313,4.622 18.076 C 4.168 17.773,3.824 17.338,3.634 16.829 L 3.541 16.580 3.529 13.550 L 3.518 10.520 12.000 10.520 L 20.482 10.520 20.471 13.550 M6.656 14.656 C 6.536 14.776,6.520 14.817,6.520 15.000 C 6.520 15.183,6.536 15.224,6.656 15.344 C 6.775 15.463,6.818 15.480,6.993 15.480 C 7.477 15.480,7.682 14.931,7.314 14.621 C 7.220 14.542,7.150 14.520,6.993 14.520 C 6.818 14.520,6.775 14.537,6.656 14.656 M10.656 14.656 C 10.537 14.775,10.520 14.817,10.520 14.995 C 10.520 15.250,10.657 15.425,10.900 15.481 C 10.988 15.501,11.483 15.518,12.000 15.518 C 12.517 15.518,13.012 15.501,13.100 15.481 C 13.343 15.425,13.480 15.250,13.480 14.995 C 13.480 14.817,13.463 14.775,13.344 14.656 L 13.208 14.520 12.000 14.520 L 10.792 14.520 10.656 14.656 " stroke="none" fill="black" fill-rule="evenodd"></path></svg>