<svg xmlns="http://www.w3.org/2000/svg" class="icon icon-tabler icon-tabler-crop" width="24" height="24" viewBox="0 0 24 24" stroke-width="1" stroke="currentColor" fill="none" stroke-linecap="round" stroke-linejoin="round"><path d="M7.679 4.630 C 7.605 4.696,7.541 4.804,7.519 4.900 C 7.499 4.988,7.481 5.614,7.481 6.290 L 7.480 7.520 6.136 7.520 L 4.792 7.520 4.656 7.656 C 4.537 7.775,4.520 7.817,4.520 7.995 C 4.520 8.250,4.657 8.425,4.900 8.481 C 4.988 8.501,5.604 8.519,6.268 8.519 L 7.477 8.520 7.489 11.890 C 7.501 14.955,7.508 15.279,7.571 15.465 C 7.712 15.883,8.117 16.288,8.535 16.429 C 8.721 16.492,9.045 16.499,12.110 16.511 L 15.480 16.523 15.481 17.732 C 15.481 18.396,15.499 19.012,15.519 19.100 C 15.574 19.341,15.751 19.480,16.000 19.480 C 16.249 19.480,16.426 19.341,16.481 19.100 C 16.501 19.012,16.519 18.395,16.519 17.730 L 16.520 16.520 17.730 16.519 C 18.395 16.519,19.012 16.501,19.100 16.481 C 19.343 16.425,19.480 16.250,19.480 15.995 C 19.480 15.817,19.463 15.775,19.344 15.656 L 19.208 15.520 17.866 15.520 L 16.523 15.520 16.511 12.130 C 16.499 9.046,16.492 8.722,16.429 8.535 C 16.290 8.123,15.907 7.732,15.507 7.594 C 15.315 7.528,15.058 7.523,11.910 7.521 L 8.520 7.520 8.519 6.290 C 8.519 5.614,8.501 4.988,8.481 4.900 C 8.426 4.659,8.249 4.520,8.000 4.520 C 7.840 4.520,7.778 4.541,7.679 4.630 M15.344 8.656 L 15.480 8.792 15.480 12.156 L 15.480 15.520 12.270 15.519 C 10.454 15.519,8.990 15.502,8.900 15.481 C 8.804 15.459,8.696 15.395,8.630 15.321 L 8.520 15.199 8.520 11.859 L 8.520 8.520 11.864 8.520 L 15.208 8.520 15.344 8.656 " stroke="none" fill="black" fill-rule="evenodd"></path></svg>