<svg xmlns="http://www.w3.org/2000/svg" class="icon icon-tabler icon-tabler-crosshair" width="24" height="24" viewBox="0 0 24 24" stroke-width="1" stroke="currentColor" fill="none" stroke-linecap="round" stroke-linejoin="round"><path d="M5.274 3.615 C 4.870 3.734,4.561 3.922,4.242 4.242 C 3.918 4.565,3.735 4.869,3.608 5.294 C 3.519 5.593,3.509 5.707,3.490 6.685 C 3.465 8.003,3.482 8.170,3.660 8.348 C 3.774 8.462,3.819 8.480,3.991 8.480 C 4.201 8.480,4.353 8.396,4.450 8.227 C 4.486 8.165,4.506 7.775,4.520 6.860 L 4.540 5.580 4.649 5.359 C 4.787 5.076,5.076 4.787,5.359 4.649 L 5.580 4.540 6.860 4.520 C 7.775 4.506,8.165 4.486,8.227 4.450 C 8.396 4.353,8.480 4.201,8.480 3.991 C 8.480 3.818,8.462 3.774,8.344 3.656 L 8.208 3.520 6.894 3.522 C 5.649 3.524,5.564 3.529,5.274 3.615 M15.656 3.656 C 15.538 3.774,15.520 3.818,15.520 3.991 C 15.520 4.201,15.604 4.353,15.773 4.450 C 15.835 4.486,16.225 4.506,17.140 4.520 L 18.420 4.540 18.641 4.649 C 18.924 4.787,19.213 5.076,19.351 5.359 L 19.460 5.580 19.480 6.860 C 19.494 7.775,19.514 8.165,19.550 8.227 C 19.647 8.396,19.799 8.480,20.009 8.480 C 20.181 8.480,20.226 8.462,20.340 8.348 C 20.519 8.169,20.536 8.001,20.508 6.685 C 20.491 5.869,20.471 5.564,20.420 5.380 C 20.168 4.473,19.505 3.814,18.607 3.582 C 18.416 3.532,18.114 3.520,17.080 3.520 L 15.792 3.520 15.656 3.656 M11.679 8.630 C 11.605 8.696,11.541 8.804,11.519 8.900 C 11.499 8.988,11.481 9.614,11.481 10.290 L 11.480 11.520 10.136 11.520 L 8.792 11.520 8.656 11.656 C 8.537 11.775,8.520 11.817,8.520 11.995 C 8.520 12.250,8.657 12.425,8.900 12.481 C 8.988 12.501,9.604 12.519,10.270 12.519 L 11.480 12.520 11.481 13.730 C 11.481 14.396,11.499 15.012,11.519 15.100 C 11.574 15.341,11.751 15.480,12.000 15.480 C 12.249 15.480,12.426 15.341,12.481 15.100 C 12.501 15.012,12.519 14.396,12.519 13.730 L 12.520 12.520 13.730 12.519 C 14.396 12.519,15.012 12.501,15.100 12.481 C 15.343 12.425,15.480 12.250,15.480 11.995 C 15.480 11.817,15.463 11.775,15.344 11.656 L 15.208 11.520 13.864 11.520 L 12.520 11.520 12.519 10.290 C 12.519 9.614,12.501 8.988,12.481 8.900 C 12.426 8.659,12.249 8.520,12.000 8.520 C 11.840 8.520,11.778 8.541,11.679 8.630 M3.660 15.652 C 3.481 15.831,3.464 15.999,3.492 17.315 C 3.508 18.125,3.529 18.436,3.579 18.614 C 3.834 19.525,4.477 20.170,5.380 20.420 C 5.564 20.471,5.869 20.491,6.685 20.508 C 8.001 20.536,8.169 20.519,8.348 20.340 C 8.463 20.225,8.480 20.181,8.480 20.005 C 8.480 19.837,8.460 19.779,8.363 19.671 L 8.247 19.540 6.993 19.516 C 5.595 19.489,5.479 19.470,5.135 19.216 C 4.891 19.035,4.697 18.784,4.597 18.522 C 4.528 18.339,4.520 18.206,4.519 17.190 C 4.519 16.568,4.501 15.988,4.481 15.900 C 4.425 15.657,4.250 15.520,3.995 15.520 C 3.819 15.520,3.775 15.537,3.660 15.652 M19.705 15.603 C 19.504 15.761,19.501 15.781,19.480 17.140 C 19.461 18.350,19.455 18.430,19.372 18.610 C 19.253 18.868,18.913 19.218,18.664 19.339 C 18.366 19.484,18.023 19.518,16.846 19.519 L 15.792 19.520 15.656 19.656 C 15.536 19.776,15.520 19.817,15.520 20.000 C 15.520 20.182,15.537 20.225,15.652 20.340 C 15.831 20.519,15.999 20.536,17.315 20.508 C 18.125 20.492,18.436 20.471,18.614 20.421 C 19.525 20.166,20.170 19.523,20.420 18.620 C 20.471 18.436,20.491 18.131,20.508 17.315 C 20.536 15.999,20.519 15.831,20.340 15.652 C 20.226 15.538,20.181 15.520,20.009 15.520 C 19.869 15.520,19.780 15.544,19.705 15.603 " stroke="none" fill="black" fill-rule="evenodd"></path></svg>