<svg xmlns="http://www.w3.org/2000/svg" class="icon icon-tabler icon-tabler-currency-pound" width="24" height="24" viewBox="0 0 24 24" stroke-width="1" stroke="currentColor" fill="none" stroke-linecap="round" stroke-linejoin="round"><path d="M12.398 4.564 C 11.717 4.652,10.861 5.006,10.296 5.432 C 9.487 6.043,8.890 6.940,8.639 7.923 C 8.516 8.407,8.481 9.041,8.481 10.850 L 8.480 12.520 7.618 12.520 C 6.655 12.520,6.578 12.537,6.465 12.774 C 6.383 12.948,6.383 13.052,6.465 13.226 C 6.584 13.475,6.677 13.498,7.630 13.513 L 8.480 13.526 8.480 15.073 C 8.479 16.775,8.472 16.842,8.231 17.319 C 8.157 17.465,7.983 17.703,7.833 17.862 C 7.612 18.094,7.490 18.182,7.139 18.361 C 6.621 18.624,6.520 18.729,6.520 19.007 C 6.520 19.182,6.537 19.225,6.656 19.344 C 6.774 19.462,6.818 19.480,6.989 19.480 C 7.149 19.480,7.271 19.438,7.623 19.260 C 8.417 18.862,8.968 18.721,9.860 18.691 C 10.571 18.667,11.206 18.757,11.760 18.959 C 12.861 19.362,13.219 19.451,14.001 19.519 C 15.034 19.607,16.252 19.399,17.131 18.983 C 17.387 18.862,17.480 18.733,17.480 18.500 C 17.480 18.300,17.388 18.142,17.226 18.065 C 17.038 17.976,16.967 17.982,16.631 18.115 C 15.868 18.418,15.291 18.531,14.500 18.531 C 13.665 18.531,13.249 18.442,12.114 18.026 C 11.431 17.775,10.943 17.700,9.995 17.700 L 9.169 17.700 9.250 17.500 C 9.488 16.912,9.493 16.862,9.510 15.131 L 9.526 13.523 11.773 13.511 C 14.276 13.499,14.201 13.507,14.335 13.226 C 14.417 13.052,14.417 12.948,14.335 12.774 C 14.211 12.513,14.282 12.520,11.782 12.520 L 9.520 12.520 9.520 10.530 C 9.521 8.680,9.526 8.517,9.600 8.207 C 9.896 6.974,10.801 6.038,12.069 5.654 C 12.379 5.560,12.487 5.548,13.000 5.548 C 13.513 5.548,13.621 5.560,13.931 5.654 C 14.811 5.920,15.435 6.382,15.953 7.149 C 16.149 7.439,16.211 7.480,16.454 7.480 C 16.677 7.480,16.858 7.343,16.923 7.125 C 16.977 6.946,16.927 6.803,16.688 6.452 C 15.767 5.102,14.058 4.349,12.398 4.564 " stroke="none" fill="black" fill-rule="evenodd"></path></svg>