<svg xmlns="http://www.w3.org/2000/svg" class="icon icon-tabler icon-tabler-currency-bitcoin" width="24" height="24" viewBox="0 0 24 24" stroke-width="1" stroke="currentColor" fill="none" stroke-linecap="round" stroke-linejoin="round"><path d="M8.679 2.630 C 8.605 2.696,8.541 2.804,8.519 2.900 C 8.499 2.988,8.481 3.615,8.481 4.294 L 8.480 5.527 8.190 5.515 C 8.030 5.508,7.426 5.507,6.846 5.511 L 5.792 5.520 5.656 5.656 C 5.537 5.775,5.520 5.817,5.520 5.995 C 5.520 6.161,5.541 6.222,5.630 6.321 C 5.781 6.490,5.941 6.518,6.770 6.519 L 7.480 6.520 7.480 12.020 L 7.480 17.520 6.636 17.520 L 5.792 17.520 5.656 17.656 C 5.537 17.775,5.520 17.817,5.520 17.995 C 5.520 18.250,5.657 18.425,5.900 18.481 C 5.988 18.501,6.605 18.519,7.270 18.519 L 8.480 18.520 8.481 19.730 C 8.481 20.395,8.499 21.012,8.519 21.100 C 8.574 21.341,8.751 21.480,9.000 21.480 C 9.249 21.480,9.426 21.341,9.481 21.100 C 9.501 21.012,9.519 20.395,9.519 19.730 L 9.520 18.520 11.000 18.520 L 12.480 18.520 12.481 19.730 C 12.481 20.395,12.499 21.012,12.519 21.100 C 12.574 21.341,12.751 21.480,13.000 21.480 C 13.249 21.480,13.426 21.341,13.481 21.100 C 13.501 21.012,13.519 20.399,13.519 19.737 L 13.520 18.534 14.117 18.489 C 15.146 18.412,15.791 18.129,16.460 17.460 C 16.883 17.037,17.137 16.634,17.328 16.080 C 17.457 15.707,17.459 15.687,17.459 15.000 C 17.459 14.310,17.457 14.294,17.324 13.910 C 17.090 13.230,16.587 12.541,16.059 12.178 C 15.939 12.095,15.840 12.015,15.840 12.000 C 15.840 11.985,15.939 11.905,16.059 11.822 C 16.587 11.459,17.090 10.770,17.324 10.090 C 17.457 9.706,17.459 9.690,17.459 9.000 C 17.459 8.313,17.457 8.293,17.328 7.920 C 17.137 7.366,16.883 6.963,16.460 6.540 C 16.034 6.114,15.629 5.860,15.080 5.675 C 14.738 5.560,14.641 5.545,14.110 5.529 L 13.520 5.510 13.519 4.285 C 13.519 3.611,13.501 2.988,13.481 2.900 C 13.426 2.659,13.249 2.520,13.000 2.520 C 12.751 2.520,12.574 2.659,12.519 2.900 C 12.499 2.988,12.481 3.614,12.481 4.290 L 12.480 5.520 11.000 5.520 L 9.520 5.520 9.519 4.290 C 9.519 3.614,9.501 2.988,9.481 2.900 C 9.426 2.659,9.249 2.520,9.000 2.520 C 8.840 2.520,8.778 2.541,8.679 2.630 M14.829 6.634 C 15.338 6.824,15.773 7.168,16.076 7.622 C 16.385 8.084,16.460 8.353,16.460 9.000 C 16.460 9.647,16.385 9.916,16.076 10.378 C 15.624 11.055,14.999 11.412,14.146 11.483 C 13.923 11.501,12.566 11.517,11.130 11.518 L 8.520 11.520 8.520 9.019 L 8.520 6.518 11.550 6.529 L 14.580 6.541 14.829 6.634 M14.829 12.634 C 15.338 12.824,15.773 13.168,16.076 13.622 C 16.385 14.084,16.460 14.353,16.460 15.000 C 16.460 15.647,16.385 15.916,16.076 16.378 C 15.639 17.032,15.023 17.397,14.215 17.481 C 14.022 17.500,12.661 17.516,11.192 17.516 L 8.520 17.515 8.520 15.016 L 8.520 12.518 11.550 12.529 L 14.580 12.541 14.829 12.634 " stroke="none" fill="black" fill-rule="evenodd"></path></svg>