<svg xmlns="http://www.w3.org/2000/svg" class="icon icon-tabler icon-tabler-currency-yen" width="24" height="24" viewBox="0 0 24 24" stroke-width="1" stroke="currentColor" fill="none" stroke-linecap="round" stroke-linejoin="round"><path d="M6.656 4.656 C 6.538 4.774,6.520 4.818,6.520 4.990 C 6.520 5.188,6.522 5.191,9.000 8.660 C 11.461 12.106,11.480 12.134,11.480 12.326 L 11.480 12.520 9.636 12.520 L 7.792 12.520 7.656 12.656 C 7.537 12.775,7.520 12.817,7.520 12.995 C 7.520 13.250,7.657 13.425,7.900 13.481 C 7.988 13.501,8.830 13.519,9.770 13.519 L 11.480 13.520 11.480 15.020 L 11.480 16.520 9.636 16.520 L 7.792 16.520 7.656 16.656 C 7.537 16.775,7.520 16.817,7.520 16.995 C 7.520 17.250,7.657 17.425,7.900 17.481 C 7.988 17.501,8.830 17.519,9.770 17.519 L 11.480 17.520 11.481 18.230 C 11.482 19.059,11.510 19.219,11.679 19.370 C 11.853 19.527,12.147 19.527,12.321 19.370 C 12.490 19.219,12.518 19.059,12.519 18.230 L 12.520 17.520 14.230 17.519 C 15.171 17.519,16.012 17.501,16.100 17.481 C 16.343 17.425,16.480 17.250,16.480 16.995 C 16.480 16.817,16.463 16.775,16.344 16.656 L 16.208 16.520 14.364 16.520 L 12.520 16.520 12.520 15.020 L 12.520 13.520 14.230 13.519 C 15.171 13.519,16.012 13.501,16.100 13.481 C 16.343 13.425,16.480 13.250,16.480 12.995 C 16.480 12.817,16.463 12.775,16.344 12.656 L 16.208 12.520 14.364 12.520 L 12.520 12.520 12.520 12.326 C 12.520 12.134,12.539 12.106,15.000 8.660 C 17.478 5.191,17.480 5.188,17.480 4.990 C 17.480 4.818,17.462 4.774,17.344 4.656 C 17.226 4.538,17.182 4.520,17.009 4.520 C 16.875 4.520,16.780 4.544,16.715 4.595 C 16.663 4.637,15.585 6.121,14.320 7.894 C 13.055 9.667,12.011 11.118,12.000 11.118 C 11.989 11.118,10.945 9.667,9.680 7.894 C 8.415 6.121,7.337 4.637,7.285 4.595 C 7.220 4.544,7.125 4.520,6.991 4.520 C 6.818 4.520,6.774 4.538,6.656 4.656 " stroke="none" fill="black" fill-rule="evenodd"></path></svg>