<svg xmlns="http://www.w3.org/2000/svg" class="icon icon-tabler icon-tabler-currency-dollar" width="24" height="24" viewBox="0 0 24 24" stroke-width="1" stroke="currentColor" fill="none" stroke-linecap="round" stroke-linejoin="round"><path d="M11.679 2.630 C 11.605 2.696,11.541 2.804,11.519 2.900 C 11.499 2.988,11.481 3.612,11.481 4.287 L 11.480 5.513 10.390 5.528 L 9.300 5.542 8.920 5.673 C 8.367 5.863,7.964 6.116,7.540 6.540 C 7.117 6.963,6.863 7.366,6.672 7.920 C 6.543 8.293,6.541 8.313,6.541 9.000 C 6.541 9.690,6.543 9.706,6.676 10.090 C 7.082 11.270,8.052 12.142,9.277 12.429 C 9.492 12.479,10.005 12.495,12.060 12.517 C 14.563 12.544,14.582 12.545,14.834 12.637 C 15.145 12.751,15.617 13.061,15.818 13.283 C 16.048 13.538,16.266 13.898,16.368 14.192 C 16.446 14.421,16.460 14.540,16.460 15.000 C 16.460 15.647,16.385 15.916,16.076 16.378 C 15.638 17.033,15.023 17.397,14.214 17.481 C 13.722 17.531,10.177 17.527,9.805 17.475 C 8.937 17.355,8.274 16.866,7.872 16.052 C 7.650 15.601,7.563 15.520,7.300 15.520 C 7.096 15.520,6.942 15.613,6.861 15.784 C 6.766 15.983,6.798 16.143,7.020 16.584 C 7.364 17.267,7.883 17.779,8.580 18.123 C 9.222 18.439,9.671 18.519,10.810 18.520 L 11.480 18.520 11.481 19.730 C 11.481 20.395,11.499 21.012,11.519 21.100 C 11.574 21.341,11.751 21.480,12.000 21.480 C 12.249 21.480,12.426 21.341,12.481 21.100 C 12.501 21.012,12.519 20.395,12.519 19.730 L 12.520 18.520 13.170 18.520 C 14.121 18.519,14.662 18.462,15.095 18.317 C 16.151 17.963,16.956 17.159,17.324 16.090 C 17.457 15.706,17.459 15.690,17.459 15.000 C 17.459 14.313,17.457 14.293,17.328 13.920 C 17.137 13.366,16.883 12.963,16.460 12.540 C 16.037 12.117,15.634 11.863,15.080 11.672 L 14.700 11.541 12.160 11.517 C 9.949 11.496,9.589 11.484,9.380 11.426 C 8.476 11.172,7.805 10.493,7.577 9.601 C 7.485 9.240,7.516 8.519,7.639 8.171 C 7.737 7.892,7.959 7.530,8.182 7.283 C 8.391 7.051,8.865 6.745,9.187 6.634 L 9.460 6.540 11.960 6.540 L 14.460 6.540 14.728 6.647 C 15.383 6.910,15.813 7.309,16.128 7.948 C 16.350 8.399,16.437 8.480,16.700 8.480 C 16.904 8.480,17.058 8.387,17.139 8.216 C 17.234 8.017,17.202 7.857,16.980 7.416 C 16.504 6.471,15.627 5.796,14.591 5.578 C 14.397 5.537,14.048 5.520,13.417 5.520 L 12.520 5.520 12.519 4.290 C 12.519 3.614,12.501 2.988,12.481 2.900 C 12.426 2.659,12.249 2.520,12.000 2.520 C 11.840 2.520,11.778 2.541,11.679 2.630 " stroke="none" fill="black" fill-rule="evenodd"></path></svg>