<svg xmlns="http://www.w3.org/2000/svg" class="icon icon-tabler icon-tabler-currency-rupee" width="24" height="24" viewBox="0 0 24 24" stroke-width="1" stroke="currentColor" fill="none" stroke-linecap="round" stroke-linejoin="round"><path d="M6.656 5.656 C 6.538 5.774,6.520 5.818,6.520 5.991 C 6.520 6.201,6.604 6.353,6.773 6.450 C 6.838 6.487,7.355 6.505,8.780 6.520 L 10.700 6.541 11.080 6.672 C 11.289 6.744,11.604 6.888,11.779 6.992 C 12.192 7.235,12.725 7.760,12.980 8.174 C 13.187 8.510,13.439 9.177,13.440 9.390 L 13.440 9.520 10.116 9.520 L 6.792 9.520 6.656 9.656 C 6.537 9.775,6.520 9.817,6.520 9.995 C 6.520 10.250,6.657 10.425,6.900 10.481 C 6.990 10.502,8.447 10.519,10.250 10.519 L 13.440 10.520 13.440 10.630 C 13.439 10.826,13.178 11.504,12.980 11.826 C 12.867 12.009,12.642 12.282,12.442 12.480 C 11.829 13.087,11.144 13.402,10.276 13.479 C 10.025 13.501,9.139 13.519,8.306 13.520 L 6.792 13.520 6.656 13.656 C 6.535 13.777,6.520 13.816,6.520 14.006 L 6.520 14.219 9.650 17.350 L 12.781 20.480 12.994 20.480 C 13.184 20.480,13.223 20.465,13.344 20.344 C 13.465 20.223,13.480 20.184,13.480 19.995 L 13.480 19.781 10.850 17.151 L 8.221 14.520 9.020 14.519 C 10.428 14.517,11.007 14.440,11.706 14.160 C 12.801 13.722,13.739 12.774,14.179 11.662 C 14.272 11.427,14.395 10.974,14.464 10.610 L 14.482 10.520 16.211 10.519 C 17.162 10.519,18.012 10.501,18.100 10.481 C 18.343 10.425,18.480 10.250,18.480 9.995 C 18.480 9.817,18.463 9.775,18.344 9.656 L 18.208 9.520 16.346 9.520 L 14.484 9.520 14.459 9.370 C 14.288 8.339,13.843 7.472,13.125 6.770 L 12.869 6.520 15.405 6.519 C 16.808 6.519,18.011 6.502,18.100 6.481 C 18.343 6.425,18.480 6.250,18.480 5.995 C 18.480 5.817,18.463 5.775,18.344 5.656 L 18.208 5.520 12.500 5.520 L 6.792 5.520 6.656 5.656 " stroke="none" fill="black" fill-rule="evenodd"></path></svg>