<svg xmlns="http://www.w3.org/2000/svg" class="icon icon-tabler icon-tabler-cut" width="24" height="24" viewBox="0 0 24 24" stroke-width="1" stroke="currentColor" fill="none" stroke-linecap="round" stroke-linejoin="round"><path d="M5.656 3.656 C 5.537 3.775,5.520 3.817,5.520 3.995 C 5.520 4.186,5.536 4.217,5.789 4.529 C 6.416 5.302,10.684 10.536,11.005 10.927 L 11.357 11.353 10.255 12.707 C 9.649 13.451,9.128 14.086,9.098 14.117 C 9.050 14.167,9.033 14.167,8.971 14.114 C 8.824 13.987,8.446 13.800,8.079 13.673 C 7.706 13.543,7.688 13.541,7.000 13.541 C 6.313 13.541,6.293 13.543,5.920 13.672 C 5.366 13.863,4.963 14.117,4.540 14.540 C 4.117 14.963,3.863 15.366,3.672 15.920 C 3.543 16.293,3.541 16.313,3.541 17.000 C 3.541 17.687,3.543 17.707,3.672 18.080 C 3.863 18.634,4.117 19.037,4.540 19.460 C 4.963 19.883,5.366 20.137,5.920 20.328 C 6.293 20.457,6.313 20.459,7.000 20.459 C 7.688 20.459,7.706 20.457,8.079 20.327 C 8.288 20.255,8.558 20.139,8.679 20.071 C 9.449 19.635,10.035 18.930,10.324 18.090 C 10.457 17.706,10.459 17.690,10.459 17.000 C 10.459 16.313,10.457 16.293,10.328 15.920 C 10.256 15.711,10.105 15.389,9.993 15.203 C 9.855 14.977,9.800 14.850,9.824 14.815 C 9.919 14.679,11.983 12.163,12.000 12.163 C 12.017 12.163,14.081 14.679,14.176 14.815 C 14.200 14.850,14.145 14.977,14.007 15.203 C 13.895 15.389,13.744 15.711,13.672 15.920 C 13.543 16.293,13.541 16.313,13.541 17.000 C 13.541 17.687,13.543 17.707,13.672 18.080 C 13.863 18.634,14.117 19.037,14.540 19.460 C 14.963 19.883,15.366 20.137,15.920 20.328 C 16.293 20.457,16.313 20.459,17.000 20.459 C 17.688 20.459,17.706 20.457,18.079 20.327 C 18.288 20.255,18.558 20.139,18.679 20.071 C 19.449 19.635,20.035 18.930,20.324 18.090 C 20.457 17.705,20.459 17.690,20.459 17.000 C 20.459 16.310,20.457 16.295,20.324 15.910 C 20.035 15.070,19.449 14.365,18.679 13.929 C 18.558 13.861,18.288 13.745,18.079 13.673 C 17.706 13.543,17.689 13.541,17.000 13.541 C 16.310 13.541,16.294 13.543,15.910 13.676 C 15.695 13.750,15.391 13.890,15.233 13.987 C 15.000 14.131,14.937 14.154,14.897 14.112 C 14.869 14.083,14.351 13.451,13.745 12.707 L 12.643 11.353 12.995 10.927 C 13.316 10.536,17.584 5.302,18.211 4.529 C 18.464 4.217,18.480 4.186,18.480 3.995 C 18.480 3.817,18.463 3.775,18.344 3.656 C 18.224 3.536,18.184 3.520,17.996 3.520 C 17.794 3.520,17.776 3.529,17.602 3.716 C 17.502 3.825,16.205 5.407,14.720 7.234 C 13.235 9.060,12.011 10.554,12.000 10.554 C 11.989 10.555,10.765 9.060,9.280 7.234 C 7.795 5.407,6.498 3.824,6.398 3.716 C 6.224 3.529,6.206 3.520,6.004 3.520 C 5.816 3.520,5.776 3.536,5.656 3.656 M7.834 14.640 C 8.142 14.749,8.615 15.059,8.818 15.283 C 9.048 15.538,9.266 15.898,9.368 16.192 C 9.446 16.421,9.460 16.540,9.460 17.000 C 9.460 17.460,9.446 17.579,9.368 17.808 C 9.190 18.320,8.844 18.765,8.378 19.076 C 7.916 19.385,7.647 19.460,7.000 19.460 C 6.540 19.460,6.421 19.446,6.192 19.368 C 5.898 19.266,5.538 19.048,5.283 18.818 C 5.058 18.615,4.749 18.141,4.640 17.834 C 4.516 17.481,4.484 16.763,4.577 16.399 C 4.803 15.515,5.484 14.821,6.360 14.581 C 6.694 14.489,7.500 14.522,7.834 14.640 M17.834 14.640 C 18.142 14.749,18.615 15.059,18.818 15.283 C 19.048 15.538,19.266 15.898,19.368 16.192 C 19.446 16.421,19.460 16.540,19.460 17.000 C 19.460 17.460,19.446 17.579,19.368 17.808 C 19.190 18.320,18.844 18.765,18.378 19.076 C 17.916 19.385,17.647 19.460,17.000 19.460 C 16.540 19.460,16.421 19.446,16.192 19.368 C 15.898 19.266,15.538 19.048,15.283 18.818 C 15.058 18.615,14.749 18.141,14.640 17.834 C 14.516 17.481,14.484 16.763,14.577 16.399 C 14.803 15.515,15.484 14.821,16.360 14.581 C 16.694 14.489,17.500 14.522,17.834 14.640 " stroke="none" fill="black" fill-rule="evenodd"></path></svg>