<svg xmlns="http://www.w3.org/2000/svg" class="icon icon-tabler icon-tabler-dashboard" width="24" height="24" viewBox="0 0 24 24" stroke-width="1" stroke="currentColor" fill="none" stroke-linecap="round" stroke-linejoin="round"><path d="M11.320 3.480 C 9.476 3.623,7.764 4.267,6.280 5.375 C 5.796 5.737,4.999 6.510,4.604 7.000 C 3.527 8.338,2.799 10.035,2.583 11.714 C 2.510 12.283,2.499 13.529,2.562 14.041 C 2.860 16.462,4.041 18.661,5.874 20.206 L 6.247 20.521 11.997 20.511 L 17.747 20.500 17.921 20.380 C 18.016 20.314,18.291 20.071,18.532 19.841 C 20.020 18.417,20.953 16.692,21.347 14.640 C 21.432 14.195,21.454 13.945,21.470 13.214 C 21.490 12.282,21.455 11.805,21.316 11.120 C 20.925 9.189,20.042 7.563,18.633 6.174 C 17.839 5.392,17.125 4.891,16.093 4.392 C 14.644 3.691,12.899 3.357,11.320 3.480 M13.200 4.544 C 14.952 4.792,16.601 5.597,17.895 6.838 C 19.246 8.131,20.150 9.910,20.419 11.800 C 20.489 12.292,20.499 13.468,20.438 13.961 C 20.185 15.997,19.156 17.986,17.696 19.259 L 17.397 19.520 12.000 19.520 L 6.603 19.520 6.289 19.243 C 4.819 17.946,3.814 15.998,3.562 13.961 C 3.501 13.467,3.511 12.291,3.581 11.800 C 3.853 9.890,4.754 8.126,6.127 6.821 C 6.824 6.159,7.493 5.698,8.360 5.286 C 8.969 4.996,9.314 4.871,9.917 4.721 C 11.038 4.443,12.082 4.386,13.200 4.544 M15.260 9.076 C 15.194 9.118,14.747 9.547,14.266 10.030 L 13.393 10.908 13.126 10.776 C 12.751 10.589,12.446 10.520,11.996 10.520 C 11.289 10.520,10.737 10.747,10.242 11.241 C 9.718 11.764,9.500 12.331,9.528 13.098 C 9.541 13.446,9.567 13.603,9.652 13.839 C 9.908 14.557,10.492 15.130,11.207 15.364 C 11.459 15.447,11.576 15.460,12.040 15.459 C 12.553 15.457,12.596 15.451,12.900 15.328 C 13.882 14.933,14.480 14.053,14.480 13.000 C 14.480 12.569,14.406 12.243,14.224 11.874 L 14.092 11.607 14.989 10.714 C 15.482 10.222,15.911 9.771,15.943 9.712 C 16.022 9.563,16.014 9.404,15.922 9.252 C 15.775 9.011,15.485 8.934,15.260 9.076 M12.641 11.649 C 12.924 11.787,13.213 12.076,13.351 12.359 C 13.449 12.557,13.460 12.624,13.460 13.000 C 13.460 13.348,13.445 13.453,13.372 13.610 C 13.250 13.875,12.912 14.218,12.644 14.350 C 12.443 14.449,12.377 14.460,12.000 14.460 C 11.624 14.460,11.557 14.449,11.359 14.351 C 11.076 14.213,10.787 13.924,10.649 13.641 C 10.499 13.337,10.474 12.802,10.593 12.488 C 10.743 12.094,11.077 11.753,11.468 11.597 C 11.766 11.478,12.345 11.503,12.641 11.649 " stroke="none" fill="black" fill-rule="evenodd"></path></svg>