<svg xmlns="http://www.w3.org/2000/svg" class="icon icon-tabler icon-tabler-database" width="24" height="24" viewBox="0 0 24 24" stroke-width="1" stroke="currentColor" fill="none" stroke-linecap="round" stroke-linejoin="round"><path d="M10.140 2.581 C 8.197 2.759,6.649 3.140,5.420 3.742 C 4.293 4.294,3.643 4.985,3.521 5.760 C 3.468 6.100,3.467 17.782,3.520 18.193 C 3.733 19.833,6.306 21.078,10.190 21.420 C 11.069 21.498,12.932 21.498,13.812 21.420 C 17.408 21.103,19.894 20.012,20.408 18.527 L 20.500 18.260 20.500 12.000 L 20.500 5.740 20.408 5.473 C 19.895 3.988,17.400 2.893,13.820 2.580 C 12.985 2.507,10.939 2.507,10.140 2.581 M14.199 3.616 C 16.864 3.939,18.774 4.671,19.366 5.598 C 19.526 5.848,19.526 6.152,19.366 6.402 C 18.758 7.353,16.722 8.111,13.980 8.408 C 13.334 8.478,10.669 8.478,10.020 8.408 C 7.297 8.116,5.234 7.348,4.633 6.402 C 4.494 6.183,4.479 5.878,4.596 5.648 C 4.692 5.460,5.076 5.093,5.381 4.897 C 5.682 4.705,6.239 4.445,6.700 4.281 C 7.530 3.987,8.954 3.694,10.000 3.603 C 10.275 3.579,10.554 3.552,10.620 3.543 C 10.686 3.535,11.397 3.533,12.200 3.539 C 13.240 3.547,13.815 3.569,14.199 3.616 M5.337 8.229 C 6.266 8.696,7.633 9.086,9.090 9.299 C 10.818 9.551,13.254 9.544,15.012 9.283 C 16.765 9.022,18.298 8.520,19.210 7.908 L 19.480 7.727 19.480 9.976 L 19.480 12.224 19.366 12.402 C 18.758 13.353,16.722 14.111,13.980 14.408 C 13.334 14.478,10.669 14.478,10.020 14.408 C 7.297 14.116,5.234 13.348,4.633 12.402 L 4.520 12.224 4.520 9.976 L 4.520 7.727 4.790 7.908 C 4.938 8.007,5.184 8.152,5.337 8.229 M5.337 14.229 C 6.266 14.696,7.633 15.086,9.090 15.299 C 10.818 15.551,13.254 15.544,15.012 15.283 C 16.765 15.022,18.298 14.520,19.210 13.908 L 19.480 13.727 19.480 15.976 L 19.480 18.224 19.366 18.402 C 18.758 19.353,16.722 20.111,13.980 20.408 C 13.334 20.478,10.669 20.478,10.020 20.408 C 7.297 20.116,5.234 19.348,4.633 18.402 L 4.520 18.224 4.520 15.976 L 4.520 13.727 4.790 13.908 C 4.938 14.007,5.184 14.152,5.337 14.229 " stroke="none" fill="black" fill-rule="evenodd"></path></svg>