<svg xmlns="http://www.w3.org/2000/svg" class="icon icon-tabler icon-tabler-devices" width="24" height="24" viewBox="0 0 24 24" stroke-width="1" stroke="currentColor" fill="none" stroke-linecap="round" stroke-linejoin="round"><path d="M3.493 3.594 C 3.106 3.728,2.758 4.071,2.587 4.488 L 2.500 4.700 2.500 10.960 C 2.500 16.789,2.505 17.235,2.569 17.444 C 2.702 17.873,3.105 18.284,3.535 18.429 C 3.724 18.493,4.086 18.500,8.104 18.511 L 12.468 18.523 12.495 18.895 C 12.509 19.100,12.548 19.359,12.580 19.469 C 12.703 19.882,13.124 20.297,13.556 20.431 C 13.761 20.494,14.056 20.500,17.000 20.500 C 19.944 20.500,20.239 20.494,20.444 20.431 C 20.873 20.298,21.283 19.896,21.429 19.465 C 21.494 19.275,21.500 18.885,21.511 14.220 C 21.520 10.841,21.510 9.075,21.482 8.860 C 21.458 8.679,21.396 8.452,21.341 8.339 C 21.212 8.075,20.917 7.784,20.641 7.649 C 20.422 7.541,20.410 7.540,19.474 7.527 L 18.527 7.515 18.510 6.127 C 18.492 4.579,18.479 4.490,18.216 4.135 C 18.030 3.885,17.768 3.684,17.507 3.594 C 17.311 3.527,16.923 3.523,10.500 3.523 C 4.077 3.523,3.689 3.527,3.493 3.594 M17.344 4.656 L 17.480 4.792 17.480 6.155 L 17.480 7.518 15.530 7.529 L 13.580 7.540 13.359 7.649 C 13.082 7.784,12.788 8.075,12.659 8.339 C 12.606 8.449,12.544 8.666,12.522 8.820 C 12.497 8.992,12.481 10.722,12.481 13.310 L 12.480 17.520 8.270 17.519 C 5.843 17.518,3.992 17.502,3.900 17.481 C 3.804 17.459,3.696 17.395,3.630 17.321 L 3.520 17.199 3.520 10.995 L 3.520 4.792 3.656 4.656 L 3.792 4.520 10.500 4.520 L 17.208 4.520 17.344 4.656 M15.656 8.656 C 15.537 8.775,15.520 8.817,15.520 8.995 C 15.520 9.250,15.657 9.425,15.900 9.481 C 16.108 9.529,17.892 9.529,18.100 9.481 C 18.343 9.425,18.480 9.250,18.480 8.995 C 18.480 8.817,18.463 8.775,18.344 8.656 L 18.208 8.520 19.208 8.520 L 20.208 8.520 20.344 8.656 L 20.480 8.792 20.480 13.995 L 20.480 19.199 20.370 19.321 C 20.304 19.395,20.196 19.459,20.100 19.481 C 19.890 19.530,14.110 19.530,13.900 19.481 C 13.804 19.459,13.696 19.395,13.630 19.321 L 13.520 19.199 13.520 13.995 L 13.520 8.792 13.656 8.656 L 13.792 8.520 14.792 8.520 L 15.792 8.520 15.656 8.656 " stroke="none" fill="black" fill-rule="evenodd"></path></svg>