<svg xmlns="http://www.w3.org/2000/svg" class="icon icon-tabler icon-tabler-device-mobile" width="24" height="24" viewBox="0 0 24 24" stroke-width="1" stroke="currentColor" fill="none" stroke-linecap="round" stroke-linejoin="round"><path d="M7.468 3.598 C 7.060 3.759,6.696 4.146,6.569 4.556 C 6.505 4.765,6.500 5.260,6.500 12.000 C 6.500 18.740,6.505 19.235,6.569 19.444 C 6.706 19.885,7.115 20.294,7.556 20.431 C 7.763 20.495,8.107 20.500,12.000 20.500 C 15.893 20.500,16.237 20.495,16.444 20.431 C 16.873 20.298,17.283 19.896,17.430 19.465 C 17.495 19.273,17.501 18.801,17.512 12.220 C 17.520 7.458,17.510 5.076,17.481 4.860 C 17.458 4.679,17.397 4.453,17.341 4.339 C 17.212 4.075,16.917 3.784,16.641 3.649 L 16.420 3.540 12.040 3.532 C 7.832 3.523,7.652 3.526,7.468 3.598 M10.656 4.656 C 10.537 4.775,10.520 4.817,10.520 4.995 C 10.520 5.250,10.657 5.425,10.900 5.481 C 11.108 5.529,12.892 5.529,13.100 5.481 C 13.343 5.425,13.480 5.250,13.480 4.995 C 13.480 4.817,13.463 4.775,13.344 4.656 L 13.208 4.520 14.708 4.520 L 16.208 4.520 16.344 4.656 L 16.480 4.792 16.480 11.995 L 16.480 19.199 16.370 19.321 C 16.304 19.395,16.196 19.459,16.100 19.481 C 15.888 19.530,8.112 19.530,7.900 19.481 C 7.804 19.459,7.696 19.395,7.630 19.321 L 7.520 19.199 7.520 11.995 L 7.520 4.792 7.656 4.656 L 7.792 4.520 9.292 4.520 L 10.792 4.520 10.656 4.656 M11.656 16.656 C 11.537 16.775,11.520 16.818,11.520 16.993 C 11.520 17.150,11.542 17.220,11.621 17.314 C 11.758 17.477,11.957 17.540,12.139 17.480 C 12.357 17.408,12.480 17.233,12.480 16.993 C 12.480 16.818,12.463 16.775,12.344 16.656 C 12.224 16.536,12.183 16.520,12.000 16.520 C 11.817 16.520,11.776 16.536,11.656 16.656 " stroke="none" fill="black" fill-rule="evenodd"></path></svg>