<svg xmlns="http://www.w3.org/2000/svg" class="icon icon-tabler icon-tabler-device-watch" width="24" height="24" viewBox="0 0 24 24" stroke-width="1" stroke="currentColor" fill="none" stroke-linecap="round" stroke-linejoin="round"><path d="M8.679 2.630 C 8.605 2.696,8.541 2.804,8.519 2.900 C 8.499 2.988,8.481 3.623,8.481 4.310 L 8.480 5.560 8.370 5.560 C 8.174 5.561,7.496 5.822,7.174 6.020 C 6.991 6.133,6.718 6.358,6.520 6.558 C 5.913 7.171,5.598 7.856,5.521 8.724 C 5.468 9.319,5.468 14.681,5.521 15.276 C 5.598 16.144,5.913 16.829,6.520 17.442 C 6.718 17.642,6.991 17.867,7.174 17.980 C 7.494 18.177,8.174 18.439,8.368 18.440 L 8.475 18.440 8.488 19.792 C 8.501 21.272,8.500 21.267,8.749 21.429 C 8.849 21.495,9.064 21.500,12.000 21.500 C 14.936 21.500,15.151 21.495,15.251 21.429 C 15.500 21.267,15.499 21.272,15.512 19.792 L 15.525 18.440 15.627 18.440 C 15.780 18.440,16.429 18.212,16.679 18.071 C 17.721 17.481,18.373 16.468,18.479 15.275 C 18.532 14.682,18.532 9.318,18.479 8.725 C 18.373 7.532,17.721 6.519,16.679 5.929 C 16.427 5.787,15.779 5.560,15.624 5.560 L 15.520 5.560 15.519 4.310 C 15.519 3.623,15.501 2.988,15.481 2.900 C 15.459 2.804,15.395 2.696,15.321 2.630 L 15.199 2.520 12.000 2.520 L 8.801 2.520 8.679 2.630 M14.480 4.520 L 14.480 5.520 12.000 5.520 L 9.520 5.520 9.520 4.520 L 9.520 3.520 12.000 3.520 L 14.480 3.520 14.480 4.520 M15.829 6.634 C 16.112 6.739,16.475 6.964,16.717 7.182 C 16.937 7.381,17.248 7.853,17.365 8.166 L 17.460 8.420 17.471 11.895 C 17.481 14.946,17.474 15.400,17.419 15.615 C 17.192 16.501,16.510 17.182,15.600 17.429 C 15.361 17.494,15.068 17.500,12.000 17.500 C 8.932 17.500,8.639 17.494,8.400 17.429 C 7.493 17.183,6.811 16.505,6.582 15.622 C 6.528 15.416,6.520 14.924,6.520 12.000 C 6.520 9.076,6.528 8.584,6.582 8.378 C 6.764 7.676,7.250 7.079,7.900 6.759 C 8.396 6.516,8.253 6.523,12.080 6.532 L 15.580 6.540 15.829 6.634 M14.480 19.520 L 14.480 20.520 12.000 20.520 L 9.520 20.520 9.520 19.520 L 9.520 18.520 12.000 18.520 L 14.480 18.520 14.480 19.520 " stroke="none" fill="black" fill-rule="evenodd"></path></svg>