<svg xmlns="http://www.w3.org/2000/svg" class="icon icon-tabler icon-tabler-device-tablet" width="24" height="24" viewBox="0 0 24 24" stroke-width="1" stroke="currentColor" fill="none" stroke-linecap="round" stroke-linejoin="round"><path d="M5.468 2.599 C 5.060 2.758,4.697 3.145,4.569 3.556 C 4.504 3.766,4.500 4.311,4.500 12.000 C 4.500 19.689,4.504 20.234,4.569 20.444 C 4.706 20.885,5.115 21.294,5.556 21.431 C 5.765 21.495,6.209 21.500,12.000 21.500 C 17.791 21.500,18.235 21.495,18.444 21.431 C 18.885 21.294,19.294 20.885,19.431 20.444 C 19.496 20.234,19.500 19.689,19.500 12.000 C 19.500 4.311,19.496 3.766,19.431 3.556 C 19.300 3.133,18.918 2.736,18.507 2.594 C 18.312 2.527,17.943 2.523,11.980 2.523 C 5.895 2.524,5.653 2.527,5.468 2.599 M18.344 3.656 L 18.480 3.792 18.480 11.995 L 18.480 20.199 18.370 20.321 C 18.304 20.395,18.196 20.459,18.100 20.481 C 17.887 20.530,6.113 20.530,5.900 20.481 C 5.804 20.459,5.696 20.395,5.630 20.321 L 5.520 20.199 5.520 11.995 L 5.520 3.792 5.656 3.656 L 5.792 3.520 12.000 3.520 L 18.208 3.520 18.344 3.656 M11.468 15.597 C 11.055 15.763,10.691 16.152,10.575 16.552 C 10.480 16.879,10.514 17.364,10.651 17.646 C 10.787 17.924,11.077 18.213,11.359 18.351 C 11.557 18.449,11.624 18.460,12.000 18.460 C 12.376 18.460,12.443 18.449,12.641 18.351 C 12.924 18.213,13.213 17.924,13.351 17.641 C 13.449 17.443,13.460 17.376,13.460 17.000 C 13.460 16.624,13.449 16.557,13.351 16.359 C 13.213 16.076,12.924 15.787,12.643 15.650 C 12.345 15.504,11.763 15.478,11.468 15.597 M12.344 16.656 C 12.464 16.776,12.480 16.817,12.480 17.000 C 12.480 17.183,12.464 17.224,12.344 17.344 C 12.224 17.464,12.183 17.480,12.000 17.480 C 11.817 17.480,11.776 17.464,11.656 17.344 C 11.536 17.224,11.520 17.183,11.520 17.000 C 11.520 16.817,11.536 16.776,11.656 16.656 C 11.776 16.536,11.817 16.520,12.000 16.520 C 12.183 16.520,12.224 16.536,12.344 16.656 " stroke="none" fill="black" fill-rule="evenodd"></path></svg>