<svg xmlns="http://www.w3.org/2000/svg" class="icon icon-tabler icon-tabler-device-gamepad" width="24" height="24" viewBox="0 0 24 24" stroke-width="1" stroke="currentColor" fill="none" stroke-linecap="round" stroke-linejoin="round"><path d="M3.274 5.615 C 2.870 5.734,2.561 5.922,2.242 6.242 C 1.922 6.561,1.739 6.864,1.603 7.294 L 1.500 7.620 1.500 11.980 C 1.500 16.085,1.504 16.355,1.573 16.600 C 1.834 17.527,2.443 18.141,3.386 18.426 C 3.606 18.493,4.098 18.498,11.700 18.510 C 16.984 18.519,19.922 18.509,20.189 18.482 C 21.305 18.371,22.121 17.684,22.427 16.600 C 22.496 16.355,22.500 16.085,22.500 12.000 C 22.500 7.915,22.496 7.645,22.427 7.400 C 22.196 6.582,21.666 5.982,20.900 5.670 L 20.580 5.540 12.080 5.532 L 3.580 5.524 3.274 5.615 M20.641 6.649 C 20.924 6.787,21.213 7.076,21.351 7.359 L 21.460 7.580 21.460 12.000 L 21.460 16.420 21.350 16.644 C 21.220 16.909,20.874 17.252,20.626 17.362 C 20.530 17.404,20.327 17.457,20.176 17.479 C 19.798 17.533,4.202 17.533,3.820 17.478 C 3.666 17.456,3.449 17.394,3.339 17.341 C 3.075 17.212,2.784 16.918,2.649 16.641 L 2.540 16.420 2.529 12.052 C 2.519 7.814,2.521 7.678,2.596 7.480 C 2.743 7.093,3.083 6.749,3.468 6.599 C 3.654 6.526,3.922 6.524,12.040 6.532 L 20.420 6.540 20.641 6.649 M7.679 9.630 C 7.509 9.782,7.482 9.941,7.481 10.790 L 7.480 11.520 6.636 11.520 L 5.792 11.520 5.656 11.656 C 5.537 11.775,5.520 11.817,5.520 11.995 C 5.520 12.161,5.541 12.222,5.630 12.321 C 5.781 12.490,5.941 12.518,6.770 12.519 L 7.480 12.520 7.481 13.230 C 7.482 14.059,7.510 14.219,7.679 14.370 C 7.778 14.459,7.840 14.480,8.000 14.480 C 8.160 14.480,8.222 14.459,8.321 14.370 C 8.490 14.219,8.518 14.059,8.519 13.230 L 8.520 12.520 9.230 12.519 C 10.059 12.518,10.219 12.490,10.370 12.321 C 10.459 12.222,10.480 12.161,10.480 11.995 C 10.480 11.817,10.463 11.775,10.344 11.656 L 10.208 11.520 9.364 11.520 L 8.520 11.520 8.519 10.790 C 8.518 9.941,8.491 9.782,8.321 9.630 C 8.222 9.541,8.160 9.520,8.000 9.520 C 7.840 9.520,7.778 9.541,7.679 9.630 M14.656 10.656 C 14.537 10.775,14.520 10.818,14.520 10.993 C 14.520 11.233,14.643 11.408,14.861 11.480 C 15.043 11.540,15.242 11.477,15.379 11.314 C 15.458 11.220,15.480 11.150,15.480 10.993 C 15.480 10.818,15.463 10.775,15.344 10.656 C 15.224 10.536,15.183 10.520,15.000 10.520 C 14.817 10.520,14.776 10.536,14.656 10.656 M17.656 12.656 C 17.537 12.775,17.520 12.818,17.520 12.993 C 17.520 13.233,17.643 13.408,17.861 13.480 C 18.043 13.540,18.242 13.477,18.379 13.314 C 18.458 13.220,18.480 13.150,18.480 12.993 C 18.480 12.818,18.463 12.775,18.344 12.656 C 18.224 12.536,18.183 12.520,18.000 12.520 C 17.817 12.520,17.776 12.536,17.656 12.656 " stroke="none" fill="black" fill-rule="evenodd"></path></svg>