<svg xmlns="http://www.w3.org/2000/svg" class="icon icon-tabler icon-tabler-device-speaker" width="24" height="24" viewBox="0 0 24 24" stroke-width="1" stroke="currentColor" fill="none" stroke-linecap="round" stroke-linejoin="round"><path d="M6.274 2.615 C 5.870 2.735,5.561 2.922,5.242 3.242 C 4.922 3.561,4.739 3.864,4.603 4.294 L 4.500 4.620 4.500 11.980 C 4.500 18.944,4.504 19.354,4.572 19.593 C 4.838 20.528,5.449 21.148,6.380 21.425 C 6.604 21.491,6.964 21.497,11.700 21.510 C 14.980 21.519,16.925 21.509,17.189 21.483 C 18.305 21.371,19.121 20.684,19.427 19.600 C 19.497 19.352,19.500 18.993,19.500 12.000 C 19.500 5.007,19.497 4.648,19.427 4.400 C 19.196 3.582,18.666 2.982,17.900 2.670 L 17.580 2.540 12.080 2.532 L 6.580 2.524 6.274 2.615 M17.641 3.649 C 17.924 3.787,18.213 4.076,18.351 4.359 L 18.460 4.580 18.460 12.000 L 18.460 19.420 18.372 19.610 C 18.253 19.867,17.913 20.218,17.664 20.339 C 17.548 20.396,17.323 20.457,17.140 20.482 C 16.925 20.510,15.159 20.520,11.780 20.511 C 7.115 20.500,6.725 20.494,6.535 20.429 C 6.129 20.292,5.750 19.925,5.597 19.522 C 5.522 19.324,5.520 19.126,5.520 12.000 C 5.520 4.874,5.522 4.676,5.597 4.478 C 5.743 4.093,6.084 3.749,6.468 3.599 C 6.653 3.526,6.856 3.524,12.040 3.532 L 17.420 3.540 17.641 3.649 M11.656 6.656 C 11.537 6.775,11.520 6.818,11.520 6.993 C 11.520 7.477,12.069 7.682,12.379 7.314 C 12.458 7.220,12.480 7.150,12.480 6.993 C 12.480 6.818,12.463 6.775,12.344 6.656 C 12.224 6.536,12.183 6.520,12.000 6.520 C 11.817 6.520,11.776 6.536,11.656 6.656 M11.259 10.576 C 10.065 10.848,9.079 11.739,8.676 12.910 C 8.543 13.294,8.541 13.310,8.541 14.000 C 8.541 14.687,8.543 14.707,8.672 15.080 C 8.863 15.634,9.117 16.037,9.540 16.460 C 9.963 16.883,10.366 17.137,10.920 17.328 C 11.293 17.457,11.313 17.459,12.000 17.459 C 12.688 17.459,12.706 17.457,13.079 17.327 C 13.288 17.255,13.558 17.139,13.679 17.071 C 14.449 16.635,15.035 15.930,15.324 15.090 C 15.457 14.705,15.459 14.690,15.459 14.000 C 15.459 13.310,15.457 13.295,15.324 12.910 C 15.035 12.070,14.449 11.365,13.679 10.929 C 13.558 10.861,13.288 10.747,13.079 10.676 C 12.730 10.557,12.653 10.546,12.100 10.534 C 11.694 10.526,11.422 10.539,11.259 10.576 M12.834 11.640 C 13.142 11.749,13.615 12.059,13.818 12.283 C 14.048 12.538,14.266 12.898,14.368 13.192 C 14.446 13.421,14.460 13.540,14.460 14.000 C 14.460 14.460,14.446 14.579,14.368 14.808 C 14.190 15.320,13.844 15.765,13.378 16.076 C 12.916 16.385,12.647 16.460,12.000 16.460 C 11.540 16.460,11.421 16.446,11.192 16.368 C 10.898 16.266,10.538 16.048,10.283 15.818 C 10.058 15.615,9.749 15.141,9.640 14.834 C 9.516 14.481,9.484 13.763,9.577 13.399 C 9.803 12.515,10.484 11.821,11.360 11.581 C 11.694 11.489,12.500 11.522,12.834 11.640 " stroke="none" fill="black" fill-rule="evenodd"></path></svg>