<svg xmlns="http://www.w3.org/2000/svg" class="icon icon-tabler icon-tabler-device-laptop" width="24" height="24" viewBox="0 0 24 24" stroke-width="1" stroke="currentColor" fill="none" stroke-linecap="round" stroke-linejoin="round"><path d="M5.468 5.599 C 5.060 5.758,4.697 6.145,4.569 6.556 C 4.505 6.763,4.500 7.107,4.500 11.000 C 4.500 14.893,4.505 15.237,4.569 15.444 C 4.706 15.885,5.115 16.294,5.556 16.431 C 5.765 16.495,6.209 16.500,12.000 16.500 C 17.791 16.500,18.235 16.495,18.444 16.431 C 18.885 16.294,19.294 15.885,19.431 15.444 C 19.495 15.237,19.500 14.893,19.500 11.000 C 19.500 7.107,19.495 6.763,19.431 6.556 C 19.300 6.133,18.918 5.736,18.507 5.594 C 18.312 5.527,17.943 5.523,11.980 5.523 C 5.895 5.524,5.653 5.527,5.468 5.599 M18.344 6.656 L 18.480 6.792 18.480 10.995 L 18.480 15.199 18.370 15.321 C 18.304 15.395,18.196 15.459,18.100 15.481 C 17.887 15.530,6.113 15.530,5.900 15.481 C 5.804 15.459,5.696 15.395,5.630 15.321 L 5.520 15.199 5.520 10.995 L 5.520 6.792 5.656 6.656 L 5.792 6.520 12.000 6.520 L 18.208 6.520 18.344 6.656 M2.656 18.656 C 2.537 18.775,2.520 18.817,2.520 18.995 C 2.520 19.250,2.657 19.425,2.900 19.481 C 3.114 19.531,20.886 19.531,21.100 19.481 C 21.343 19.425,21.480 19.250,21.480 18.995 C 21.480 18.817,21.463 18.775,21.344 18.656 L 21.208 18.520 12.000 18.520 L 2.792 18.520 2.656 18.656 " stroke="none" fill="black" fill-rule="evenodd"></path></svg>