<svg xmlns="http://www.w3.org/2000/svg" class="icon icon-tabler icon-tabler-device-mobile-vibration" width="24" height="24" viewBox="0 0 24 24" stroke-width="1" stroke="currentColor" fill="none" stroke-linecap="round" stroke-linejoin="round"><path d="M11.231 2.499 C 11.127 2.528,10.965 2.596,10.871 2.652 C 10.457 2.895,10.575 2.680,7.120 9.463 C 5.334 12.969,3.846 15.923,3.814 16.028 C 3.723 16.322,3.760 16.731,3.907 17.044 C 4.142 17.546,4.022 17.474,8.110 19.557 C 10.701 20.878,11.897 21.467,12.076 21.511 C 12.568 21.633,13.097 21.463,13.471 21.063 C 13.634 20.890,14.142 19.918,16.895 14.511 C 18.673 11.019,20.154 8.076,20.187 7.971 C 20.277 7.678,20.240 7.269,20.093 6.955 C 19.871 6.481,19.796 6.430,17.854 5.441 C 16.889 4.950,15.222 4.100,14.149 3.553 C 13.068 3.002,12.096 2.532,11.970 2.499 C 11.700 2.429,11.487 2.429,11.231 2.499 M13.081 4.132 C 14.335 4.773,14.363 4.790,14.216 4.818 C 14.125 4.835,14.013 4.899,13.933 4.979 C 13.823 5.089,13.800 5.142,13.800 5.286 C 13.800 5.609,13.853 5.652,14.951 6.210 C 15.502 6.490,16.001 6.720,16.059 6.720 C 16.446 6.720,16.707 6.237,16.477 5.945 C 16.432 5.887,16.403 5.840,16.413 5.840 C 16.492 5.840,19.046 7.181,19.122 7.262 C 19.201 7.347,19.219 7.406,19.216 7.573 C 19.213 7.765,18.987 8.222,16.036 14.002 C 14.289 17.424,12.827 20.274,12.787 20.336 C 12.699 20.469,12.465 20.575,12.321 20.546 C 12.142 20.510,4.976 16.842,4.875 16.735 C 4.799 16.654,4.781 16.593,4.784 16.427 C 4.787 16.235,5.015 15.774,7.985 9.954 C 9.744 6.508,11.209 3.657,11.242 3.618 C 11.330 3.511,11.525 3.437,11.668 3.457 C 11.738 3.466,12.374 3.770,13.081 4.132 M4.741 4.072 C 3.983 4.457,3.639 4.653,3.581 4.733 C 3.505 4.839,3.499 4.913,3.487 6.023 L 3.475 7.201 2.557 7.662 C 1.787 8.050,1.629 8.144,1.570 8.252 C 1.509 8.364,1.498 8.527,1.487 9.580 C 1.471 11.050,1.483 11.171,1.660 11.348 C 1.775 11.463,1.819 11.480,1.995 11.480 C 2.250 11.480,2.425 11.343,2.481 11.100 C 2.501 11.012,2.519 10.459,2.519 9.871 L 2.520 8.802 3.440 8.339 C 4.213 7.950,4.371 7.856,4.430 7.748 C 4.491 7.636,4.502 7.475,4.513 6.458 L 4.525 5.296 5.407 4.858 C 5.958 4.584,6.324 4.378,6.384 4.307 C 6.458 4.220,6.480 4.147,6.480 3.993 C 6.480 3.818,6.463 3.775,6.344 3.656 C 6.226 3.538,6.183 3.520,6.014 3.522 C 5.846 3.524,5.677 3.597,4.741 4.072 M21.679 12.630 C 21.605 12.696,21.541 12.804,21.519 12.900 C 21.499 12.988,21.481 13.541,21.481 14.129 L 21.480 15.198 20.560 15.661 C 19.787 16.050,19.629 16.144,19.570 16.252 C 19.509 16.364,19.498 16.525,19.487 17.542 L 19.475 18.704 18.593 19.142 C 18.042 19.416,17.676 19.622,17.616 19.693 C 17.542 19.780,17.520 19.853,17.520 20.007 C 17.520 20.182,17.537 20.225,17.656 20.344 C 17.774 20.462,17.817 20.480,17.986 20.478 C 18.154 20.476,18.323 20.403,19.259 19.928 C 20.017 19.543,20.361 19.347,20.419 19.267 C 20.495 19.161,20.501 19.087,20.513 17.977 L 20.525 16.799 21.443 16.338 C 22.213 15.950,22.371 15.856,22.430 15.748 C 22.491 15.636,22.502 15.473,22.513 14.420 C 22.529 12.950,22.517 12.829,22.340 12.652 C 22.225 12.537,22.181 12.520,22.005 12.520 C 21.839 12.520,21.778 12.541,21.679 12.630 M9.475 16.027 C 9.328 16.118,9.240 16.285,9.241 16.466 C 9.247 17.029,10.011 17.147,10.197 16.613 C 10.247 16.470,10.247 16.429,10.196 16.295 C 10.086 16.006,9.725 15.872,9.475 16.027 " stroke="none" fill="black" fill-rule="evenodd"></path></svg>