<svg xmlns="http://www.w3.org/2000/svg" class="icon icon-tabler icon-tabler-device-desktop" width="24" height="24" viewBox="0 0 24 24" stroke-width="1" stroke="currentColor" fill="none" stroke-linecap="round" stroke-linejoin="round"><path d="M3.468 3.599 C 3.060 3.758,2.697 4.145,2.569 4.556 C 2.505 4.764,2.500 5.158,2.500 10.000 C 2.500 14.842,2.505 15.236,2.569 15.444 C 2.702 15.874,3.106 16.285,3.535 16.428 C 3.717 16.489,4.006 16.498,6.110 16.511 L 8.480 16.525 8.480 18.022 L 8.480 19.520 7.636 19.520 L 6.792 19.520 6.656 19.656 C 6.537 19.775,6.520 19.817,6.520 19.995 C 6.520 20.250,6.657 20.425,6.900 20.481 C 7.113 20.530,16.887 20.530,17.100 20.481 C 17.343 20.425,17.480 20.250,17.480 19.995 C 17.480 19.817,17.463 19.775,17.344 19.656 L 17.208 19.520 16.364 19.520 L 15.520 19.520 15.520 18.022 L 15.520 16.525 17.890 16.511 C 19.994 16.498,20.283 16.489,20.465 16.428 C 20.894 16.285,21.298 15.874,21.431 15.444 C 21.495 15.236,21.500 14.842,21.500 10.000 C 21.500 5.158,21.495 4.764,21.431 4.556 C 21.300 4.133,20.918 3.736,20.507 3.594 C 20.311 3.526,19.862 3.523,11.980 3.523 C 3.939 3.524,3.654 3.526,3.468 3.599 M20.344 4.656 L 20.480 4.792 20.480 9.995 L 20.480 15.199 20.370 15.321 C 20.304 15.395,20.196 15.459,20.100 15.481 C 19.887 15.530,4.113 15.530,3.900 15.481 C 3.804 15.459,3.696 15.395,3.630 15.321 L 3.520 15.199 3.520 9.995 L 3.520 4.792 3.656 4.656 L 3.792 4.520 12.000 4.520 L 20.208 4.520 20.344 4.656 M14.480 18.020 L 14.480 19.520 12.000 19.520 L 9.520 19.520 9.520 18.020 L 9.520 16.520 12.000 16.520 L 14.480 16.520 14.480 18.020 " stroke="none" fill="black" fill-rule="evenodd"></path></svg>