<svg xmlns="http://www.w3.org/2000/svg" class="icon icon-tabler icon-tabler-device-tv" width="24" height="24" viewBox="0 0 24 24" stroke-width="1" stroke="currentColor" fill="none" stroke-linecap="round" stroke-linejoin="round"><path d="M7.656 2.656 C 7.535 2.777,7.520 2.816,7.520 3.005 L 7.520 3.218 9.140 4.840 C 10.031 5.731,10.760 6.475,10.760 6.491 C 10.760 6.507,9.376 6.520,7.685 6.520 L 4.609 6.520 4.288 6.613 C 3.872 6.733,3.566 6.917,3.242 7.242 C 2.922 7.561,2.739 7.864,2.603 8.294 L 2.500 8.620 2.500 13.480 C 2.500 18.038,2.504 18.356,2.572 18.593 C 2.838 19.528,3.447 20.146,4.380 20.425 C 4.606 20.493,5.025 20.498,11.700 20.510 C 16.315 20.519,18.922 20.509,19.189 20.482 C 20.305 20.371,21.121 19.684,21.427 18.600 C 21.496 18.355,21.500 18.070,21.500 13.500 C 21.500 8.930,21.496 8.645,21.427 8.400 C 21.196 7.582,20.666 6.982,19.900 6.670 L 19.580 6.540 16.410 6.529 C 14.667 6.523,13.240 6.505,13.240 6.489 C 13.240 6.474,13.969 5.731,14.860 4.840 L 16.480 3.218 16.480 3.005 C 16.480 2.816,16.465 2.777,16.344 2.656 C 16.223 2.535,16.184 2.520,15.995 2.520 L 15.782 2.520 13.891 4.409 L 12.000 6.299 10.109 4.409 L 8.218 2.520 8.005 2.520 C 7.816 2.520,7.777 2.535,7.656 2.656 M19.641 7.649 C 19.924 7.787,20.213 8.076,20.351 8.359 L 20.460 8.580 20.460 13.500 L 20.460 18.420 20.350 18.644 C 20.220 18.909,19.874 19.252,19.626 19.362 C 19.530 19.404,19.327 19.457,19.176 19.479 C 18.799 19.533,5.201 19.533,4.820 19.478 C 4.666 19.456,4.449 19.394,4.339 19.341 C 4.075 19.212,3.784 18.918,3.649 18.641 L 3.540 18.420 3.530 13.552 C 3.519 8.820,3.521 8.678,3.596 8.480 C 3.743 8.093,4.083 7.749,4.468 7.599 C 4.654 7.526,4.900 7.524,12.040 7.532 L 19.420 7.540 19.641 7.649 " stroke="none" fill="black" fill-rule="evenodd"></path></svg>