<svg xmlns="http://www.w3.org/2000/svg" class="icon icon-tabler icon-tabler-device-floppy" width="24" height="24" viewBox="0 0 24 24" stroke-width="1" stroke="currentColor" fill="none" stroke-linecap="round" stroke-linejoin="round"><path d="M6.680 3.521 C 5.269 3.546,5.153 3.569,4.621 3.924 C 4.116 4.262,3.761 4.749,3.594 5.330 L 3.500 5.660 3.500 12.000 C 3.500 17.982,3.504 18.354,3.572 18.593 C 3.838 19.528,4.448 20.147,5.380 20.425 C 5.605 20.492,5.994 20.497,11.700 20.510 C 15.647 20.519,17.924 20.509,18.189 20.482 C 19.296 20.372,20.104 19.699,20.425 18.620 C 20.491 18.396,20.497 18.035,20.511 13.300 C 20.518 10.506,20.514 8.121,20.500 8.000 L 20.474 7.780 18.347 5.650 L 16.219 3.520 15.180 3.519 C 14.608 3.519,12.736 3.514,11.020 3.509 C 9.304 3.504,7.351 3.510,6.680 3.521 M7.488 6.332 C 7.501 8.322,7.494 8.262,7.749 8.429 C 7.849 8.495,8.064 8.500,11.000 8.500 C 13.936 8.500,14.151 8.495,14.251 8.429 C 14.506 8.262,14.499 8.322,14.512 6.332 L 14.524 4.520 15.172 4.520 L 15.820 4.520 17.651 6.351 L 19.481 8.182 19.471 13.301 L 19.460 18.420 19.372 18.610 C 19.253 18.867,18.913 19.218,18.664 19.339 C 18.548 19.397,18.323 19.457,18.140 19.481 C 17.924 19.510,15.850 19.520,11.780 19.512 C 6.157 19.500,5.726 19.495,5.535 19.430 C 5.129 19.291,4.750 18.925,4.597 18.522 C 4.522 18.325,4.520 18.139,4.520 12.000 C 4.520 5.861,4.522 5.675,4.597 5.478 C 4.744 5.093,5.084 4.749,5.468 4.599 C 5.635 4.533,5.778 4.523,6.568 4.522 L 7.476 4.520 7.488 6.332 M13.480 6.020 L 13.480 7.520 11.000 7.520 L 8.520 7.520 8.520 6.020 L 8.520 4.520 11.000 4.520 L 13.480 4.520 13.480 6.020 M11.274 11.613 C 10.869 11.736,10.560 11.923,10.242 12.241 C 9.718 12.764,9.500 13.331,9.528 14.098 C 9.541 14.446,9.567 14.603,9.652 14.839 C 9.908 15.557,10.492 16.130,11.207 16.364 C 11.459 16.447,11.576 16.460,12.040 16.459 C 12.553 16.457,12.596 16.451,12.900 16.328 C 13.882 15.933,14.480 15.053,14.480 14.000 C 14.480 12.947,13.879 12.061,12.900 11.673 C 12.612 11.559,12.530 11.545,12.080 11.533 C 11.647 11.521,11.539 11.532,11.274 11.613 M12.641 12.649 C 12.924 12.787,13.213 13.076,13.351 13.359 C 13.449 13.557,13.460 13.624,13.460 14.000 C 13.460 14.348,13.445 14.453,13.372 14.610 C 13.250 14.875,12.912 15.218,12.644 15.350 C 12.443 15.449,12.377 15.460,12.000 15.460 C 11.624 15.460,11.557 15.449,11.359 15.351 C 11.076 15.213,10.787 14.924,10.649 14.641 C 10.499 14.337,10.474 13.802,10.593 13.488 C 10.743 13.094,11.077 12.753,11.468 12.597 C 11.766 12.478,12.345 12.503,12.641 12.649 " stroke="none" fill="black" fill-rule="evenodd"></path></svg>