<svg xmlns="http://www.w3.org/2000/svg" class="icon icon-tabler icon-tabler-diamond" width="24" height="24" viewBox="0 0 24 24" stroke-width="1" stroke="currentColor" fill="none" stroke-linecap="round" stroke-linejoin="round"><path d="M5.685 4.630 C 5.621 4.691,4.882 5.886,4.044 7.286 C 2.635 9.641,2.520 9.847,2.520 10.015 C 2.520 10.163,2.544 10.226,2.650 10.348 C 2.721 10.431,4.685 12.629,7.014 15.233 C 11.090 19.791,11.258 19.972,11.494 20.084 C 11.837 20.246,12.163 20.246,12.506 20.084 C 12.742 19.972,12.910 19.791,16.986 15.233 C 19.315 12.629,21.279 10.431,21.350 10.348 C 21.456 10.226,21.480 10.163,21.480 10.015 C 21.480 9.847,21.365 9.641,19.956 7.286 C 19.118 5.886,18.379 4.690,18.315 4.630 L 18.199 4.520 12.000 4.520 L 5.801 4.520 5.685 4.630 M19.054 7.719 C 19.777 8.927,20.362 9.932,20.354 9.953 C 20.346 9.973,18.486 12.062,16.220 14.595 C 12.832 18.381,12.082 19.199,12.000 19.199 C 11.918 19.199,11.168 18.381,7.780 14.595 C 5.514 12.062,3.654 9.973,3.646 9.953 C 3.638 9.932,4.223 8.927,4.946 7.719 L 6.260 5.523 12.000 5.523 L 17.740 5.523 19.054 7.719 M8.312 8.398 C 8.258 8.440,8.057 8.736,7.867 9.054 C 7.567 9.555,7.520 9.658,7.520 9.815 C 7.520 10.030,7.420 9.903,8.749 11.365 C 9.281 11.951,9.746 12.442,9.782 12.455 C 9.817 12.469,9.928 12.480,10.027 12.480 C 10.179 12.480,10.229 12.459,10.344 12.344 C 10.463 12.225,10.480 12.182,10.480 12.005 C 10.480 11.768,10.562 11.875,9.426 10.628 C 8.861 10.007,8.640 9.738,8.658 9.692 C 8.671 9.656,8.772 9.479,8.881 9.298 C 9.045 9.027,9.080 8.936,9.080 8.780 C 9.080 8.619,9.060 8.572,8.944 8.456 C 8.826 8.338,8.782 8.320,8.609 8.320 C 8.473 8.320,8.380 8.344,8.312 8.398 " stroke="none" fill="black" fill-rule="evenodd"></path></svg>