<svg xmlns="http://www.w3.org/2000/svg" class="icon icon-tabler icon-tabler-dice" width="24" height="24" viewBox="0 0 24 24" stroke-width="1" stroke="currentColor" fill="none" stroke-linecap="round" stroke-linejoin="round"><path d="M5.274 3.615 C 4.870 3.735,4.561 3.922,4.242 4.242 C 3.922 4.561,3.739 4.864,3.603 5.294 L 3.500 5.620 3.500 11.980 C 3.500 17.982,3.504 18.354,3.572 18.593 C 3.838 19.528,4.448 20.147,5.380 20.425 C 5.605 20.492,5.994 20.497,11.700 20.510 C 15.647 20.519,17.924 20.509,18.189 20.482 C 19.305 20.371,20.121 19.684,20.427 18.600 C 20.496 18.353,20.500 18.024,20.500 12.000 C 20.500 5.976,20.496 5.647,20.427 5.400 C 20.196 4.582,19.666 3.982,18.900 3.670 L 18.580 3.540 12.080 3.532 L 5.580 3.524 5.274 3.615 M18.641 4.649 C 18.924 4.787,19.213 5.076,19.351 5.359 L 19.460 5.580 19.460 12.000 L 19.460 18.420 19.372 18.610 C 19.253 18.867,18.913 19.218,18.664 19.339 C 18.548 19.397,18.323 19.457,18.140 19.481 C 17.924 19.510,15.850 19.520,11.780 19.512 C 6.157 19.500,5.726 19.495,5.535 19.430 C 5.129 19.291,4.750 18.925,4.597 18.522 C 4.522 18.325,4.520 18.139,4.520 12.000 C 4.520 5.861,4.522 5.675,4.597 5.478 C 4.743 5.093,5.084 4.749,5.468 4.599 C 5.653 4.526,5.878 4.524,12.040 4.532 L 18.420 4.540 18.641 4.649 M8.046 7.623 C 7.680 7.808,7.499 8.141,7.527 8.580 C 7.548 8.907,7.704 9.169,7.978 9.339 C 8.154 9.448,8.207 9.460,8.500 9.460 C 8.793 9.460,8.846 9.448,9.022 9.339 C 9.143 9.264,9.264 9.143,9.339 9.022 C 9.448 8.846,9.460 8.793,9.460 8.500 C 9.460 8.207,9.448 8.154,9.339 7.978 C 9.160 7.689,8.905 7.545,8.544 7.528 C 8.299 7.517,8.230 7.530,8.046 7.623 M15.046 7.623 C 14.680 7.808,14.499 8.141,14.527 8.580 C 14.548 8.907,14.704 9.169,14.978 9.339 C 15.154 9.448,15.207 9.460,15.500 9.460 C 15.793 9.460,15.846 9.448,16.022 9.339 C 16.143 9.264,16.264 9.143,16.339 9.022 C 16.448 8.846,16.460 8.793,16.460 8.500 C 16.460 8.207,16.448 8.154,16.339 7.978 C 16.160 7.689,15.905 7.545,15.544 7.528 C 15.299 7.517,15.230 7.530,15.046 7.623 M8.046 14.623 C 7.680 14.808,7.499 15.141,7.527 15.580 C 7.548 15.907,7.704 16.169,7.978 16.339 C 8.154 16.448,8.207 16.460,8.500 16.460 C 8.793 16.460,8.846 16.448,9.022 16.339 C 9.143 16.264,9.264 16.143,9.339 16.022 C 9.448 15.846,9.460 15.793,9.460 15.500 C 9.460 15.207,9.448 15.154,9.339 14.978 C 9.160 14.689,8.905 14.545,8.544 14.528 C 8.299 14.517,8.230 14.530,8.046 14.623 M15.046 14.623 C 14.680 14.808,14.499 15.141,14.527 15.580 C 14.548 15.907,14.704 16.169,14.978 16.339 C 15.154 16.448,15.207 16.460,15.500 16.460 C 15.793 16.460,15.846 16.448,16.022 16.339 C 16.143 16.264,16.264 16.143,16.339 16.022 C 16.448 15.846,16.460 15.793,16.460 15.500 C 16.460 15.207,16.448 15.154,16.339 14.978 C 16.160 14.689,15.905 14.545,15.544 14.528 C 15.299 14.517,15.230 14.530,15.046 14.623 " stroke="none" fill="black" fill-rule="evenodd"></path></svg>