<svg xmlns="http://www.w3.org/2000/svg" class="icon icon-tabler icon-tabler-direction-horizontal" width="24" height="24" viewBox="0 0 24 24" stroke-width="1" stroke="currentColor" fill="none" stroke-linecap="round" stroke-linejoin="round"><path d="M8.151 10.151 L 6.520 11.781 6.520 12.000 L 6.520 12.219 8.151 13.849 L 9.781 15.480 9.995 15.480 C 10.184 15.480,10.223 15.465,10.344 15.344 C 10.465 15.223,10.480 15.184,10.480 14.995 L 10.480 14.783 9.091 13.391 L 7.702 12.000 9.091 10.609 L 10.480 9.217 10.480 9.005 C 10.480 8.816,10.465 8.777,10.344 8.656 C 10.223 8.535,10.184 8.520,9.995 8.520 L 9.781 8.520 8.151 10.151 M13.656 8.656 C 13.535 8.777,13.520 8.816,13.520 9.005 L 13.520 9.217 14.909 10.609 L 16.298 12.000 14.909 13.391 L 13.520 14.783 13.520 14.995 C 13.520 15.184,13.535 15.223,13.656 15.344 C 13.777 15.465,13.816 15.480,14.005 15.480 L 14.219 15.480 15.849 13.849 L 17.480 12.219 17.480 12.000 L 17.480 11.781 15.849 10.151 L 14.219 8.520 14.005 8.520 C 13.816 8.520,13.777 8.535,13.656 8.656 " stroke="none" fill="black" fill-rule="evenodd"></path></svg>