<svg xmlns="http://www.w3.org/2000/svg" class="icon icon-tabler icon-tabler-directions" width="24" height="24" viewBox="0 0 24 24" stroke-width="1" stroke="currentColor" fill="none" stroke-linecap="round" stroke-linejoin="round"><path d="M11.679 2.630 C 11.509 2.782,11.482 2.941,11.481 3.790 L 11.480 4.520 10.080 4.520 C 8.796 4.520,8.664 4.526,8.478 4.597 C 8.063 4.755,7.698 5.140,7.569 5.556 C 7.510 5.748,7.500 5.955,7.500 7.000 C 7.500 8.045,7.510 8.252,7.569 8.444 C 7.703 8.875,8.109 9.288,8.535 9.427 C 8.705 9.482,8.972 9.496,10.110 9.510 L 11.480 9.527 11.480 11.024 L 11.480 12.520 8.631 12.520 L 5.782 12.520 4.651 13.651 L 3.520 14.782 3.520 14.999 L 3.520 15.217 4.632 16.331 C 5.584 17.285,5.766 17.450,5.902 17.481 C 5.989 17.502,7.272 17.519,8.770 17.519 L 11.480 17.520 11.481 19.730 C 11.481 20.946,11.499 22.012,11.519 22.100 C 11.574 22.341,11.751 22.480,12.000 22.480 C 12.249 22.480,12.426 22.341,12.481 22.100 C 12.501 22.012,12.519 20.948,12.519 19.736 L 12.520 17.532 12.894 17.506 C 13.100 17.491,13.359 17.452,13.469 17.420 C 13.873 17.300,14.292 16.881,14.426 16.465 C 14.477 16.305,14.495 16.036,14.510 15.233 C 14.531 14.077,14.493 13.650,14.341 13.339 C 14.212 13.075,13.917 12.784,13.641 12.649 C 13.449 12.555,13.361 12.538,12.970 12.526 L 12.520 12.511 12.520 11.016 L 12.520 9.520 15.730 9.519 C 17.531 9.519,19.009 9.502,19.098 9.481 C 19.234 9.450,19.416 9.285,20.368 8.331 L 21.480 7.217 21.480 6.999 L 21.480 6.782 20.349 5.651 L 19.218 4.520 15.869 4.520 L 12.520 4.520 12.519 3.790 C 12.518 2.941,12.491 2.782,12.321 2.630 C 12.222 2.541,12.160 2.520,12.000 2.520 C 11.840 2.520,11.778 2.541,11.679 2.630 M19.560 6.260 L 20.299 7.000 19.540 7.760 L 18.781 8.520 13.920 8.519 C 11.162 8.518,8.991 8.501,8.900 8.481 C 8.804 8.459,8.696 8.395,8.630 8.321 L 8.520 8.199 8.520 6.995 L 8.520 5.792 8.656 5.656 L 8.792 5.520 13.806 5.520 L 18.821 5.520 19.560 6.260 M13.344 13.656 L 13.480 13.792 13.480 14.995 L 13.480 16.199 13.370 16.321 C 13.304 16.395,13.197 16.458,13.102 16.480 C 13.016 16.499,11.432 16.516,9.582 16.518 L 6.220 16.521 5.460 15.761 L 4.701 15.000 5.440 14.260 L 6.179 13.520 9.694 13.520 L 13.208 13.520 13.344 13.656 " stroke="none" fill="black" fill-rule="evenodd"></path></svg>