<svg xmlns="http://www.w3.org/2000/svg" class="icon icon-tabler icon-tabler-direction" width="24" height="24" viewBox="0 0 24 24" stroke-width="1" stroke="currentColor" fill="none" stroke-linecap="round" stroke-linejoin="round"><path d="M10.151 8.151 L 8.520 9.781 8.520 9.995 C 8.520 10.184,8.535 10.223,8.656 10.344 C 8.777 10.465,8.816 10.480,9.005 10.480 L 9.217 10.480 10.609 9.091 L 12.000 7.702 13.391 9.091 L 14.783 10.480 14.995 10.480 C 15.184 10.480,15.223 10.465,15.344 10.344 C 15.465 10.223,15.480 10.184,15.480 9.995 L 15.480 9.781 13.849 8.151 L 12.219 6.520 12.000 6.520 L 11.781 6.520 10.151 8.151 M8.656 13.656 C 8.535 13.777,8.520 13.816,8.520 14.005 L 8.520 14.219 10.151 15.849 L 11.781 17.480 12.000 17.480 L 12.219 17.480 13.849 15.849 L 15.480 14.219 15.480 14.005 C 15.480 13.816,15.465 13.777,15.344 13.656 C 15.223 13.535,15.184 13.520,14.995 13.520 L 14.783 13.520 13.391 14.909 L 12.000 16.298 10.609 14.909 L 9.217 13.520 9.005 13.520 C 8.816 13.520,8.777 13.535,8.656 13.656 " stroke="none" fill="black" fill-rule="evenodd"></path></svg>