<svg xmlns="http://www.w3.org/2000/svg" class="icon icon-tabler icon-tabler-disabled-2" width="24" height="24" viewBox="0 0 24 24" stroke-width="1" stroke="currentColor" fill="none" stroke-linecap="round" stroke-linejoin="round"><path d="M16.274 3.613 C 15.869 3.736,15.560 3.923,15.242 4.241 C 14.718 4.764,14.500 5.331,14.528 6.098 C 14.541 6.446,14.567 6.603,14.652 6.839 C 14.908 7.557,15.492 8.130,16.207 8.364 C 16.459 8.447,16.576 8.460,17.040 8.459 C 17.553 8.457,17.596 8.451,17.900 8.328 C 18.882 7.933,19.480 7.053,19.480 6.000 C 19.480 4.947,18.879 4.061,17.900 3.673 C 17.612 3.559,17.530 3.545,17.080 3.533 C 16.647 3.521,16.539 3.532,16.274 3.613 M17.641 4.649 C 17.924 4.787,18.213 5.076,18.351 5.359 C 18.449 5.557,18.460 5.624,18.460 6.000 C 18.460 6.348,18.445 6.453,18.372 6.610 C 18.250 6.875,17.912 7.218,17.644 7.350 C 17.443 7.449,17.377 7.460,17.000 7.460 C 16.624 7.460,16.557 7.449,16.359 7.351 C 16.076 7.213,15.787 6.924,15.649 6.641 C 15.499 6.337,15.474 5.802,15.593 5.488 C 15.743 5.094,16.077 4.753,16.468 4.597 C 16.766 4.478,17.345 4.503,17.641 4.649 M7.760 7.043 C 5.842 7.529,5.734 7.562,5.630 7.678 C 5.541 7.778,5.520 7.839,5.520 8.005 C 5.520 8.183,5.537 8.225,5.656 8.344 C 5.771 8.459,5.820 8.480,5.977 8.480 C 6.079 8.480,6.985 8.274,8.009 8.018 C 9.202 7.719,9.881 7.567,9.925 7.588 C 10.046 7.646,13.316 10.099,13.318 10.134 C 13.319 10.152,12.690 11.217,11.920 12.500 C 10.624 14.659,10.520 14.847,10.520 15.016 C 10.520 15.248,10.666 15.427,10.900 15.481 C 10.988 15.501,11.897 15.519,12.920 15.520 L 14.780 15.521 16.700 17.925 C 17.756 19.247,18.663 20.362,18.715 20.404 C 18.780 20.456,18.875 20.480,19.009 20.480 C 19.182 20.480,19.226 20.462,19.344 20.344 C 19.463 20.225,19.480 20.183,19.480 20.004 L 19.480 19.801 17.402 17.203 C 16.259 15.774,15.288 14.586,15.245 14.562 C 15.192 14.535,14.610 14.520,13.543 14.520 C 12.399 14.520,11.920 14.507,11.920 14.476 C 11.920 14.453,12.496 13.473,13.200 12.300 C 14.359 10.369,14.480 10.151,14.480 9.992 C 14.480 9.896,14.451 9.776,14.415 9.725 C 14.379 9.674,13.416 8.932,12.275 8.076 L 10.199 6.520 9.989 6.525 C 9.869 6.528,8.921 6.749,7.760 7.043 M8.020 10.584 C 6.982 10.767,5.989 11.274,5.212 12.015 C 4.428 12.763,3.922 13.633,3.655 14.692 C 3.514 15.252,3.479 16.241,3.578 16.846 C 4.081 19.908,7.035 21.945,10.069 21.323 C 10.776 21.178,11.437 20.898,12.069 20.476 C 12.415 20.245,13.269 19.415,13.378 19.203 C 13.484 18.999,13.443 18.734,13.286 18.593 C 13.022 18.358,12.725 18.417,12.465 18.758 C 11.897 19.503,10.870 20.135,9.880 20.347 C 9.349 20.461,8.422 20.443,7.917 20.310 C 7.096 20.092,6.488 19.756,5.903 19.197 C 5.179 18.504,4.712 17.628,4.559 16.672 C 4.482 16.192,4.527 15.310,4.653 14.832 C 5.026 13.407,6.129 12.222,7.520 11.748 C 7.926 11.610,8.384 11.520,8.688 11.519 C 9.249 11.517,9.480 11.364,9.480 10.995 C 9.480 10.817,9.463 10.775,9.344 10.656 L 9.208 10.520 8.774 10.524 C 8.535 10.526,8.196 10.553,8.020 10.584 " stroke="none" fill="black" fill-rule="evenodd"></path></svg>