<svg xmlns="http://www.w3.org/2000/svg" class="icon icon-tabler icon-tabler-disabled" width="24" height="24" viewBox="0 0 24 24" stroke-width="1" stroke="currentColor" fill="none" stroke-linecap="round" stroke-linejoin="round"><path d="M10.274 2.613 C 9.869 2.736,9.560 2.923,9.242 3.241 C 8.718 3.764,8.500 4.331,8.528 5.098 C 8.541 5.446,8.567 5.603,8.652 5.839 C 8.907 6.554,9.496 7.134,10.196 7.359 L 10.478 7.449 10.489 11.296 C 10.499 14.894,10.505 15.151,10.571 15.251 C 10.738 15.507,10.663 15.498,12.824 15.520 L 14.792 15.540 16.734 17.968 C 17.803 19.303,18.712 20.415,18.756 20.438 C 18.799 20.461,18.919 20.480,19.021 20.480 C 19.180 20.480,19.228 20.460,19.344 20.344 C 19.463 20.225,19.480 20.183,19.480 20.004 L 19.480 19.801 17.402 17.203 C 16.259 15.774,15.288 14.586,15.245 14.562 C 15.192 14.534,14.551 14.520,13.343 14.520 L 11.520 14.520 11.520 13.020 L 11.520 11.520 13.730 11.519 C 14.945 11.519,16.012 11.501,16.100 11.481 C 16.343 11.425,16.480 11.250,16.480 10.995 C 16.480 10.817,16.463 10.775,16.344 10.656 L 16.208 10.520 13.864 10.520 L 11.520 10.520 11.520 8.990 L 11.520 7.460 11.840 7.347 C 12.431 7.138,12.975 6.654,13.239 6.100 C 13.408 5.747,13.480 5.416,13.480 5.000 C 13.480 3.947,12.879 3.061,11.900 2.673 C 11.612 2.559,11.530 2.545,11.080 2.533 C 10.647 2.521,10.539 2.532,10.274 2.613 M11.641 3.649 C 11.924 3.787,12.213 4.076,12.351 4.359 C 12.449 4.557,12.460 4.624,12.460 5.000 C 12.460 5.348,12.445 5.453,12.372 5.610 C 12.250 5.875,11.912 6.218,11.644 6.350 C 11.443 6.449,11.377 6.460,11.000 6.460 C 10.624 6.460,10.557 6.449,10.359 6.351 C 10.076 6.213,9.787 5.924,9.649 5.641 C 9.499 5.337,9.474 4.802,9.593 4.488 C 9.743 4.094,10.077 3.753,10.468 3.597 C 10.766 3.478,11.345 3.503,11.641 3.649 M6.568 11.159 C 5.049 11.893,3.948 13.356,3.618 15.080 C 3.512 15.630,3.520 16.562,3.635 17.108 C 3.870 18.224,4.358 19.125,5.157 19.920 C 5.949 20.706,6.893 21.208,8.000 21.429 C 8.471 21.523,9.532 21.522,10.007 21.428 C 11.291 21.172,12.469 20.466,13.247 19.487 C 13.461 19.218,13.480 19.179,13.480 18.993 C 13.480 18.818,13.463 18.775,13.344 18.656 C 13.228 18.540,13.180 18.520,13.021 18.520 C 12.919 18.520,12.802 18.537,12.763 18.558 C 12.724 18.579,12.563 18.749,12.407 18.935 C 11.768 19.694,10.856 20.227,9.820 20.447 C 9.688 20.475,9.319 20.498,9.000 20.498 C 8.681 20.498,8.312 20.475,8.180 20.447 C 6.341 20.056,4.999 18.728,4.617 16.920 C 4.522 16.466,4.521 15.621,4.617 15.180 C 4.807 14.304,5.172 13.604,5.764 12.981 C 6.132 12.594,6.476 12.335,6.972 12.074 C 7.396 11.851,7.480 11.756,7.480 11.500 C 7.480 11.300,7.388 11.142,7.226 11.065 C 7.024 10.970,6.931 10.983,6.568 11.159 " stroke="none" fill="black" fill-rule="evenodd"></path></svg>