<svg xmlns="http://www.w3.org/2000/svg" class="icon icon-tabler icon-tabler-disc" width="24" height="24" viewBox="0 0 24 24" stroke-width="1" stroke="currentColor" fill="none" stroke-linecap="round" stroke-linejoin="round"><path d="M10.900 2.564 C 9.092 2.784,7.444 3.481,6.020 4.628 C 4.323 5.995,3.091 8.034,2.679 10.160 C 2.468 11.247,2.468 12.755,2.679 13.840 C 3.019 15.591,3.905 17.278,5.170 18.585 C 6.746 20.212,8.748 21.195,10.991 21.441 C 11.569 21.505,12.996 21.471,13.520 21.382 C 16.578 20.862,19.166 18.939,20.519 16.180 C 21.189 14.815,21.480 13.549,21.480 12.000 C 21.480 10.487,21.202 9.243,20.562 7.900 C 19.798 6.294,18.506 4.858,16.968 3.907 C 15.800 3.185,14.424 2.710,13.072 2.562 C 12.621 2.513,11.309 2.514,10.900 2.564 M13.160 3.581 C 14.081 3.712,14.852 3.948,15.700 4.360 C 16.622 4.807,17.277 5.273,18.002 5.998 C 19.251 7.248,20.028 8.728,20.365 10.500 C 20.470 11.053,20.512 12.362,20.444 12.946 C 20.245 14.630,19.576 16.182,18.485 17.486 C 17.115 19.122,15.119 20.188,12.946 20.444 C 12.362 20.512,11.053 20.470,10.500 20.365 C 7.839 19.860,5.635 18.221,4.428 15.851 C 4.054 15.115,3.799 14.359,3.635 13.500 C 3.515 12.874,3.486 11.525,3.577 10.868 C 4.105 7.087,7.016 4.152,10.800 3.585 C 11.320 3.507,12.623 3.505,13.160 3.581 M11.044 6.584 C 10.584 6.661,9.953 6.879,9.471 7.126 C 8.191 7.784,7.249 8.891,6.782 10.285 C 6.613 10.792,6.520 11.338,6.520 11.834 C 6.520 12.206,6.521 12.209,6.656 12.344 C 6.774 12.462,6.818 12.480,6.991 12.480 C 7.199 12.480,7.358 12.394,7.443 12.234 C 7.466 12.191,7.502 11.945,7.521 11.687 C 7.608 10.556,8.055 9.578,8.836 8.809 C 9.622 8.036,10.572 7.607,11.687 7.521 C 11.945 7.502,12.191 7.466,12.234 7.443 C 12.394 7.358,12.480 7.199,12.480 6.991 C 12.480 6.818,12.462 6.774,12.344 6.656 L 12.208 6.520 11.794 6.524 C 11.566 6.526,11.229 6.553,11.044 6.584 M11.468 10.597 C 11.055 10.763,10.691 11.152,10.575 11.552 C 10.480 11.879,10.514 12.364,10.651 12.646 C 10.787 12.924,11.077 13.213,11.359 13.351 C 11.557 13.449,11.624 13.460,12.000 13.460 C 12.376 13.460,12.443 13.449,12.641 13.351 C 12.924 13.213,13.213 12.924,13.351 12.641 C 13.449 12.443,13.460 12.376,13.460 12.000 C 13.460 11.624,13.449 11.557,13.351 11.359 C 13.213 11.076,12.924 10.787,12.643 10.650 C 12.345 10.504,11.763 10.478,11.468 10.597 M12.344 11.656 C 12.464 11.776,12.480 11.817,12.480 12.000 C 12.480 12.183,12.464 12.224,12.344 12.344 C 12.224 12.464,12.183 12.480,12.000 12.480 C 11.817 12.480,11.776 12.464,11.656 12.344 C 11.536 12.224,11.520 12.183,11.520 12.000 C 11.520 11.817,11.536 11.776,11.656 11.656 C 11.776 11.536,11.817 11.520,12.000 11.520 C 12.183 11.520,12.224 11.536,12.344 11.656 M16.705 11.603 C 16.542 11.731,16.517 11.810,16.479 12.313 C 16.393 13.431,15.966 14.376,15.191 15.164 C 14.422 15.945,13.444 16.392,12.313 16.479 C 12.055 16.498,11.809 16.534,11.766 16.557 C 11.606 16.642,11.520 16.801,11.520 17.009 C 11.520 17.182,11.538 17.226,11.656 17.344 C 11.791 17.479,11.794 17.480,12.166 17.480 C 13.486 17.479,14.891 16.876,15.884 15.884 C 16.874 14.893,17.479 13.484,17.480 12.166 C 17.480 11.794,17.479 11.791,17.344 11.656 C 17.226 11.538,17.182 11.520,17.009 11.520 C 16.869 11.520,16.780 11.544,16.705 11.603 " stroke="none" fill="black" fill-rule="evenodd"></path></svg>