<svg xmlns="http://www.w3.org/2000/svg" class="icon icon-tabler icon-tabler-discount" width="24" height="24" viewBox="0 0 24 24" stroke-width="1" stroke="currentColor" fill="none" stroke-linecap="round" stroke-linejoin="round"><path d="M11.404 2.579 C 11.263 2.611,10.995 2.713,10.808 2.806 C 10.511 2.953,10.385 3.054,9.834 3.585 C 8.923 4.462,8.788 4.516,7.460 4.519 C 6.728 4.521,6.448 4.572,6.021 4.780 C 5.472 5.046,5.046 5.473,4.780 6.021 C 4.564 6.464,4.516 6.750,4.485 7.762 L 4.458 8.665 4.327 8.933 C 4.223 9.144,4.063 9.337,3.578 9.840 C 3.037 10.402,2.943 10.521,2.800 10.815 C 2.377 11.688,2.432 12.650,2.953 13.480 C 3.028 13.601,3.340 13.953,3.644 14.263 C 4.102 14.729,4.220 14.875,4.328 15.103 L 4.458 15.380 4.486 16.288 C 4.505 16.894,4.535 17.279,4.577 17.448 C 4.805 18.357,5.521 19.116,6.420 19.402 C 6.661 19.479,6.829 19.495,7.640 19.520 C 8.919 19.558,8.907 19.553,9.801 20.418 C 10.159 20.764,10.481 21.038,10.641 21.131 C 11.414 21.582,12.394 21.623,13.172 21.237 C 13.523 21.063,13.610 20.994,14.234 20.389 C 14.720 19.917,14.855 19.810,15.114 19.687 L 15.420 19.541 16.380 19.515 C 17.453 19.486,17.560 19.465,18.100 19.187 C 18.524 18.969,18.961 18.537,19.177 18.123 C 19.459 17.582,19.485 17.451,19.514 16.380 L 19.541 15.420 19.685 15.118 C 19.807 14.861,19.919 14.722,20.425 14.198 C 21.037 13.563,21.217 13.304,21.377 12.826 C 21.611 12.127,21.511 11.282,21.115 10.612 C 21.041 10.486,20.727 10.122,20.418 9.802 C 19.553 8.906,19.558 8.919,19.520 7.640 C 19.495 6.829,19.479 6.661,19.402 6.420 C 19.182 5.729,18.658 5.108,18.040 4.807 C 17.539 4.562,17.326 4.520,16.582 4.519 C 15.259 4.516,15.097 4.455,14.250 3.630 C 13.607 3.005,13.347 2.823,12.860 2.657 C 12.465 2.522,11.812 2.487,11.404 2.579 M12.506 3.593 C 12.858 3.703,13.041 3.838,13.678 4.456 C 14.603 5.355,14.903 5.474,16.359 5.516 C 17.233 5.541,17.267 5.545,17.498 5.652 C 17.805 5.795,17.966 5.920,18.159 6.163 C 18.453 6.535,18.490 6.697,18.521 7.760 C 18.545 8.572,18.561 8.738,18.638 8.980 C 18.797 9.478,18.969 9.729,19.602 10.385 C 20.050 10.848,20.223 11.058,20.317 11.248 C 20.488 11.596,20.541 11.926,20.482 12.267 C 20.401 12.730,20.279 12.926,19.701 13.520 C 19.104 14.132,18.976 14.289,18.819 14.600 C 18.582 15.067,18.554 15.224,18.526 16.260 L 18.499 17.220 18.356 17.520 C 18.170 17.911,17.911 18.170,17.520 18.356 L 17.220 18.499 16.280 18.525 C 15.257 18.554,15.062 18.588,14.623 18.808 C 14.289 18.976,14.142 19.095,13.520 19.701 C 12.926 20.279,12.730 20.401,12.267 20.482 C 11.926 20.541,11.596 20.488,11.248 20.317 C 11.058 20.223,10.848 20.050,10.385 19.602 C 9.729 18.969,9.478 18.797,8.980 18.638 C 8.739 18.561,8.571 18.545,7.760 18.520 C 6.741 18.490,6.638 18.470,6.274 18.236 C 6.010 18.067,5.813 17.836,5.666 17.525 L 5.541 17.260 5.514 16.354 C 5.471 14.892,5.358 14.610,4.437 13.655 C 4.116 13.323,3.808 12.972,3.751 12.875 C 3.476 12.407,3.446 11.787,3.674 11.300 C 3.774 11.087,3.905 10.926,4.353 10.468 C 5.352 9.447,5.469 9.161,5.515 7.638 L 5.542 6.735 5.670 6.474 C 5.834 6.141,6.141 5.834,6.474 5.670 L 6.735 5.542 7.638 5.515 C 9.174 5.468,9.431 5.363,10.469 4.351 C 10.924 3.906,11.088 3.773,11.289 3.682 C 11.427 3.619,11.585 3.560,11.640 3.550 C 11.884 3.504,12.286 3.524,12.506 3.593 M9.046 8.623 C 8.680 8.808,8.499 9.141,8.527 9.580 C 8.548 9.907,8.704 10.169,8.978 10.339 C 9.154 10.448,9.207 10.460,9.500 10.460 C 9.793 10.460,9.846 10.448,10.022 10.339 C 10.143 10.264,10.264 10.143,10.339 10.022 C 10.448 9.846,10.460 9.793,10.460 9.500 C 10.460 9.207,10.448 9.154,10.339 8.978 C 10.160 8.689,9.905 8.545,9.544 8.528 C 9.299 8.517,9.230 8.530,9.046 8.623 M11.650 11.650 L 8.520 14.781 8.520 14.994 C 8.520 15.184,8.535 15.223,8.656 15.344 C 8.777 15.465,8.816 15.480,9.006 15.480 L 9.219 15.480 12.350 12.350 L 15.480 9.219 15.480 9.006 C 15.480 8.816,15.465 8.777,15.344 8.656 C 15.223 8.535,15.184 8.520,14.994 8.520 L 14.781 8.520 11.650 11.650 M14.046 13.623 C 13.680 13.808,13.499 14.141,13.527 14.580 C 13.548 14.907,13.704 15.169,13.978 15.339 C 14.154 15.448,14.207 15.460,14.500 15.460 C 14.793 15.460,14.846 15.448,15.022 15.339 C 15.143 15.264,15.264 15.143,15.339 15.022 C 15.448 14.846,15.460 14.793,15.460 14.500 C 15.460 14.207,15.448 14.154,15.339 13.978 C 15.160 13.689,14.905 13.545,14.544 13.528 C 14.299 13.517,14.230 13.530,14.046 13.623 " stroke="none" fill="black" fill-rule="evenodd"></path></svg>