<svg xmlns="http://www.w3.org/2000/svg" class="icon icon-tabler icon-tabler-dots-diagonal-2" width="24" height="24" viewBox="0 0 24 24" stroke-width="1" stroke="currentColor" fill="none" stroke-linecap="round" stroke-linejoin="round"><path d="M6.468 5.597 C 6.055 5.763,5.691 6.152,5.575 6.552 C 5.480 6.879,5.514 7.364,5.651 7.646 C 5.787 7.924,6.077 8.213,6.359 8.351 C 6.557 8.449,6.624 8.460,7.000 8.460 C 7.376 8.460,7.443 8.449,7.641 8.351 C 7.924 8.213,8.213 7.924,8.351 7.641 C 8.449 7.443,8.460 7.376,8.460 7.000 C 8.460 6.624,8.449 6.557,8.351 6.359 C 8.213 6.076,7.924 5.787,7.643 5.650 C 7.345 5.504,6.763 5.478,6.468 5.597 M7.344 6.656 C 7.464 6.776,7.480 6.817,7.480 7.000 C 7.480 7.183,7.464 7.224,7.344 7.344 C 7.224 7.464,7.183 7.480,7.000 7.480 C 6.817 7.480,6.776 7.464,6.656 7.344 C 6.536 7.224,6.520 7.183,6.520 7.000 C 6.520 6.817,6.536 6.776,6.656 6.656 C 6.776 6.536,6.817 6.520,7.000 6.520 C 7.183 6.520,7.224 6.536,7.344 6.656 M11.468 10.597 C 11.055 10.763,10.691 11.152,10.575 11.552 C 10.480 11.879,10.514 12.364,10.651 12.646 C 10.787 12.924,11.077 13.213,11.359 13.351 C 11.557 13.449,11.624 13.460,12.000 13.460 C 12.376 13.460,12.443 13.449,12.641 13.351 C 12.924 13.213,13.213 12.924,13.351 12.641 C 13.449 12.443,13.460 12.376,13.460 12.000 C 13.460 11.624,13.449 11.557,13.351 11.359 C 13.213 11.076,12.924 10.787,12.643 10.650 C 12.345 10.504,11.763 10.478,11.468 10.597 M12.344 11.656 C 12.464 11.776,12.480 11.817,12.480 12.000 C 12.480 12.183,12.464 12.224,12.344 12.344 C 12.224 12.464,12.183 12.480,12.000 12.480 C 11.817 12.480,11.776 12.464,11.656 12.344 C 11.536 12.224,11.520 12.183,11.520 12.000 C 11.520 11.817,11.536 11.776,11.656 11.656 C 11.776 11.536,11.817 11.520,12.000 11.520 C 12.183 11.520,12.224 11.536,12.344 11.656 M16.468 15.597 C 16.055 15.763,15.691 16.152,15.575 16.552 C 15.480 16.879,15.514 17.364,15.651 17.646 C 15.787 17.924,16.077 18.213,16.359 18.351 C 16.557 18.449,16.624 18.460,17.000 18.460 C 17.376 18.460,17.443 18.449,17.641 18.351 C 17.924 18.213,18.213 17.924,18.351 17.641 C 18.449 17.443,18.460 17.376,18.460 17.000 C 18.460 16.624,18.449 16.557,18.351 16.359 C 18.213 16.076,17.924 15.787,17.643 15.650 C 17.345 15.504,16.763 15.478,16.468 15.597 M17.344 16.656 C 17.464 16.776,17.480 16.817,17.480 17.000 C 17.480 17.183,17.464 17.224,17.344 17.344 C 17.224 17.464,17.183 17.480,17.000 17.480 C 16.817 17.480,16.776 17.464,16.656 17.344 C 16.536 17.224,16.520 17.183,16.520 17.000 C 16.520 16.817,16.536 16.776,16.656 16.656 C 16.776 16.536,16.817 16.520,17.000 16.520 C 17.183 16.520,17.224 16.536,17.344 16.656 " stroke="none" fill="black" fill-rule="evenodd"></path></svg>