<svg xmlns="http://www.w3.org/2000/svg" class="icon icon-tabler icon-tabler-download" width="24" height="24" viewBox="0 0 24 24" stroke-width="1" stroke="currentColor" fill="none" stroke-linecap="round" stroke-linejoin="round"><path d="M11.679 3.630 C 11.605 3.696,11.541 3.804,11.519 3.900 C 11.497 3.993,11.482 6.290,11.481 9.419 L 11.480 14.779 9.349 12.649 L 7.218 10.520 7.005 10.520 C 6.816 10.520,6.777 10.535,6.656 10.656 C 6.535 10.777,6.520 10.816,6.520 11.005 L 6.520 11.219 9.130 13.829 C 10.963 15.663,11.778 16.453,11.870 16.483 C 11.963 16.514,12.037 16.514,12.130 16.483 C 12.222 16.453,13.037 15.663,14.870 13.829 L 17.480 11.219 17.480 11.005 C 17.480 10.816,17.465 10.777,17.344 10.656 C 17.223 10.535,17.184 10.520,16.995 10.520 L 16.782 10.520 14.651 12.649 L 12.520 14.779 12.519 9.419 C 12.518 6.290,12.503 3.993,12.481 3.900 C 12.426 3.659,12.249 3.520,12.000 3.520 C 11.840 3.520,11.778 3.541,11.679 3.630 M3.660 16.652 C 3.481 16.831,3.464 16.999,3.492 18.315 C 3.508 19.125,3.529 19.436,3.579 19.614 C 3.833 20.523,4.456 21.149,5.380 21.425 C 5.605 21.492,5.994 21.497,11.700 21.510 C 15.647 21.519,17.924 21.509,18.189 21.482 C 19.296 21.372,20.127 20.679,20.420 19.620 C 20.471 19.436,20.491 19.131,20.508 18.315 C 20.536 16.999,20.519 16.831,20.340 16.652 C 20.226 16.538,20.181 16.520,20.009 16.520 C 19.799 16.520,19.647 16.604,19.550 16.773 C 19.514 16.835,19.494 17.225,19.480 18.140 C 19.457 19.611,19.455 19.619,19.077 20.020 C 18.825 20.286,18.553 20.425,18.180 20.478 C 17.799 20.533,6.201 20.533,5.820 20.478 C 5.666 20.456,5.449 20.394,5.339 20.341 C 5.075 20.212,4.784 19.918,4.649 19.641 L 4.540 19.420 4.520 18.140 C 4.506 17.225,4.486 16.835,4.450 16.773 C 4.353 16.604,4.201 16.520,3.991 16.520 C 3.819 16.520,3.774 16.538,3.660 16.652 " stroke="none" fill="black" fill-rule="evenodd"></path></svg>