<svg xmlns="http://www.w3.org/2000/svg" class="icon icon-tabler icon-tabler-drag-drop-2" width="24" height="24" viewBox="0 0 24 24" stroke-width="1" stroke="currentColor" fill="none" stroke-linecap="round" stroke-linejoin="round"><path d="M3.656 3.656 C 3.537 3.775,3.520 3.818,3.520 3.993 C 3.520 4.477,4.069 4.682,4.379 4.314 C 4.458 4.220,4.480 4.150,4.480 3.993 C 4.480 3.818,4.463 3.775,4.344 3.656 C 4.224 3.536,4.183 3.520,4.000 3.520 C 3.817 3.520,3.776 3.536,3.656 3.656 M7.684 3.623 C 7.535 3.749,7.472 3.949,7.524 4.137 C 7.583 4.351,7.765 4.480,8.007 4.480 C 8.182 4.480,8.225 4.463,8.344 4.344 C 8.464 4.224,8.480 4.183,8.480 4.000 C 8.480 3.817,8.464 3.776,8.344 3.656 C 8.225 3.537,8.182 3.520,8.007 3.520 C 7.850 3.520,7.780 3.542,7.684 3.623 M11.684 3.623 C 11.535 3.749,11.472 3.949,11.524 4.137 C 11.583 4.351,11.765 4.480,12.007 4.480 C 12.182 4.480,12.225 4.463,12.344 4.344 C 12.464 4.224,12.480 4.183,12.480 4.000 C 12.480 3.817,12.464 3.776,12.344 3.656 C 12.225 3.537,12.182 3.520,12.007 3.520 C 11.850 3.520,11.780 3.542,11.684 3.623 M15.684 3.623 C 15.535 3.749,15.472 3.949,15.524 4.137 C 15.583 4.351,15.765 4.480,16.007 4.480 C 16.182 4.480,16.225 4.463,16.344 4.344 C 16.464 4.224,16.480 4.183,16.480 4.000 C 16.480 3.817,16.464 3.776,16.344 3.656 C 16.225 3.537,16.182 3.520,16.007 3.520 C 15.850 3.520,15.780 3.542,15.684 3.623 M12.680 7.520 C 9.460 7.540,9.460 7.540,9.192 7.631 C 8.444 7.885,7.817 8.552,7.594 9.330 L 7.500 9.660 7.500 14.000 C 7.500 18.085,7.504 18.355,7.573 18.600 C 7.834 19.527,8.448 20.145,9.386 20.425 C 9.601 20.490,9.955 20.497,13.700 20.510 C 16.314 20.519,17.927 20.509,18.189 20.483 C 19.306 20.370,20.121 19.684,20.427 18.600 C 20.496 18.355,20.500 18.085,20.500 14.000 C 20.500 9.915,20.496 9.645,20.427 9.400 C 20.196 8.581,19.661 7.975,18.900 7.673 C 18.605 7.556,18.537 7.545,18.040 7.533 C 16.777 7.504,15.722 7.501,12.680 7.520 M3.656 7.656 C 3.537 7.775,3.520 7.818,3.520 7.993 C 3.520 8.477,4.069 8.682,4.379 8.314 C 4.458 8.220,4.480 8.150,4.480 7.993 C 4.480 7.818,4.463 7.775,4.344 7.656 C 4.224 7.536,4.183 7.520,4.000 7.520 C 3.817 7.520,3.776 7.536,3.656 7.656 M18.641 8.649 C 18.924 8.787,19.213 9.076,19.351 9.359 L 19.460 9.580 19.460 14.000 L 19.460 18.420 19.350 18.644 C 19.219 18.910,18.873 19.252,18.623 19.363 C 18.280 19.515,17.958 19.524,13.780 19.511 C 10.073 19.500,9.723 19.493,9.535 19.429 C 9.130 19.292,8.750 18.925,8.597 18.522 C 8.523 18.326,8.520 18.166,8.520 14.000 C 8.520 9.834,8.523 9.674,8.597 9.478 C 8.743 9.093,9.084 8.749,9.468 8.599 C 9.652 8.526,9.834 8.524,14.040 8.532 L 18.420 8.540 18.641 8.649 M3.776 11.557 C 3.514 11.670,3.429 12.086,3.621 12.314 C 3.831 12.563,4.169 12.563,4.379 12.314 C 4.527 12.138,4.522 11.848,4.368 11.675 C 4.276 11.573,4.219 11.547,4.058 11.535 C 3.949 11.527,3.822 11.537,3.776 11.557 M3.733 15.598 C 3.568 15.698,3.520 15.793,3.520 16.014 C 3.520 16.477,4.078 16.672,4.379 16.314 C 4.499 16.172,4.519 15.873,4.418 15.729 C 4.273 15.522,3.957 15.461,3.733 15.598 " stroke="none" fill="black" fill-rule="evenodd"></path></svg>