<svg xmlns="http://www.w3.org/2000/svg" class="icon icon-tabler icon-tabler-drag-drop" width="24" height="24" viewBox="0 0 24 24" stroke-width="1" stroke="currentColor" fill="none" stroke-linecap="round" stroke-linejoin="round"><path d="M2.656 2.656 C 2.537 2.775,2.520 2.818,2.520 2.993 C 2.520 3.477,3.069 3.682,3.379 3.314 C 3.458 3.220,3.480 3.150,3.480 2.993 C 3.480 2.818,3.463 2.775,3.344 2.656 C 3.224 2.536,3.183 2.520,3.000 2.520 C 2.817 2.520,2.776 2.536,2.656 2.656 M6.684 2.623 C 6.535 2.749,6.472 2.949,6.524 3.137 C 6.583 3.351,6.765 3.480,7.007 3.480 C 7.182 3.480,7.225 3.463,7.344 3.344 C 7.464 3.224,7.480 3.183,7.480 3.000 C 7.480 2.817,7.464 2.776,7.344 2.656 C 7.225 2.537,7.182 2.520,7.007 2.520 C 6.850 2.520,6.780 2.542,6.684 2.623 M10.684 2.623 C 10.535 2.749,10.472 2.949,10.524 3.137 C 10.583 3.351,10.765 3.480,11.007 3.480 C 11.182 3.480,11.225 3.463,11.344 3.344 C 11.464 3.224,11.480 3.183,11.480 3.000 C 11.480 2.817,11.464 2.776,11.344 2.656 C 11.225 2.537,11.182 2.520,11.007 2.520 C 10.850 2.520,10.780 2.542,10.684 2.623 M14.684 2.623 C 14.535 2.749,14.472 2.949,14.524 3.137 C 14.583 3.351,14.765 3.480,15.007 3.480 C 15.182 3.480,15.225 3.463,15.344 3.344 C 15.464 3.224,15.480 3.183,15.480 3.000 C 15.480 2.817,15.464 2.776,15.344 2.656 C 15.225 2.537,15.182 2.520,15.007 2.520 C 14.850 2.520,14.780 2.542,14.684 2.623 M11.680 6.520 C 8.460 6.540,8.460 6.540,8.192 6.631 C 7.444 6.885,6.817 7.552,6.594 8.330 L 6.500 8.660 6.500 13.000 C 6.500 17.085,6.504 17.355,6.573 17.600 C 6.835 18.528,7.467 19.164,8.386 19.421 C 8.564 19.471,8.875 19.492,9.685 19.508 C 11.001 19.536,11.169 19.519,11.348 19.340 C 11.463 19.225,11.480 19.181,11.480 19.005 C 11.480 18.837,11.460 18.779,11.363 18.671 L 11.247 18.540 9.993 18.516 C 8.595 18.489,8.479 18.470,8.135 18.216 C 7.891 18.035,7.697 17.784,7.596 17.520 C 7.521 17.322,7.519 17.186,7.529 12.948 L 7.540 8.580 7.649 8.359 C 7.787 8.076,8.076 7.787,8.359 7.649 L 8.580 7.540 13.000 7.540 L 17.420 7.540 17.641 7.649 C 17.924 7.787,18.213 8.076,18.351 8.359 L 18.460 8.580 18.480 9.860 C 18.494 10.775,18.514 11.165,18.550 11.227 C 18.647 11.396,18.799 11.480,19.009 11.480 C 19.181 11.480,19.226 11.462,19.340 11.348 C 19.519 11.169,19.536 11.001,19.508 9.685 C 19.484 8.532,19.458 8.359,19.238 7.900 C 18.977 7.356,18.487 6.906,17.900 6.673 C 17.605 6.556,17.537 6.545,17.040 6.533 C 15.777 6.504,14.722 6.501,11.680 6.520 M2.656 6.656 C 2.537 6.775,2.520 6.818,2.520 6.993 C 2.520 7.477,3.069 7.682,3.379 7.314 C 3.458 7.220,3.480 7.150,3.480 6.993 C 3.480 6.818,3.463 6.775,3.344 6.656 C 3.224 6.536,3.183 6.520,3.000 6.520 C 2.817 6.520,2.776 6.536,2.656 6.656 M2.776 10.557 C 2.514 10.670,2.429 11.086,2.621 11.314 C 2.831 11.563,3.169 11.563,3.379 11.314 C 3.527 11.138,3.522 10.848,3.368 10.675 C 3.276 10.573,3.219 10.547,3.058 10.535 C 2.949 10.527,2.822 10.537,2.776 10.557 M12.656 12.656 C 12.543 12.769,12.520 12.821,12.520 12.966 C 12.520 13.088,12.973 14.498,14.043 17.709 C 15.747 22.822,15.607 22.480,16.000 22.480 C 16.147 22.480,16.221 22.457,16.307 22.384 C 16.383 22.319,16.737 21.652,17.396 20.330 L 18.373 18.373 20.330 17.396 C 21.652 16.737,22.319 16.383,22.384 16.307 C 22.457 16.221,22.480 16.147,22.480 16.000 C 22.480 15.607,22.822 15.747,17.709 14.043 C 14.498 12.973,13.088 12.520,12.966 12.520 C 12.821 12.520,12.769 12.543,12.656 12.656 M17.298 14.960 L 20.696 16.092 19.218 16.830 C 18.405 17.236,17.706 17.598,17.665 17.634 C 17.624 17.670,17.253 18.374,16.841 19.198 L 16.092 20.696 14.960 17.298 C 14.338 15.429,13.819 13.874,13.807 13.843 C 13.793 13.806,13.806 13.793,13.843 13.807 C 13.874 13.819,15.429 14.338,17.298 14.960 M2.733 14.598 C 2.568 14.698,2.520 14.793,2.520 15.014 C 2.520 15.477,3.078 15.672,3.379 15.314 C 3.499 15.172,3.519 14.873,3.418 14.729 C 3.273 14.522,2.957 14.461,2.733 14.598 " stroke="none" fill="black" fill-rule="evenodd"></path></svg>