<svg xmlns="http://www.w3.org/2000/svg" class="icon icon-tabler icon-tabler-droplet" width="24" height="24" viewBox="0 0 24 24" stroke-width="1" stroke="currentColor" fill="none" stroke-linecap="round" stroke-linejoin="round"><path d="M9.108 5.190 C 7.637 6.659,6.324 7.995,6.190 8.160 C 5.423 9.102,4.880 10.260,4.632 11.484 C 4.551 11.885,4.540 12.056,4.540 12.900 C 4.540 13.753,4.551 13.911,4.635 14.320 C 5.310 17.610,7.922 19.994,11.248 20.358 C 13.490 20.603,15.836 19.738,17.407 18.087 C 18.537 16.900,19.240 15.426,19.442 13.822 C 19.512 13.268,19.469 11.980,19.365 11.480 C 19.131 10.360,18.734 9.442,18.075 8.499 C 17.878 8.218,17.212 7.526,15.022 5.330 L 12.220 2.520 12.001 2.520 L 11.781 2.520 9.108 5.190 M14.523 6.230 C 17.108 8.827,17.239 8.973,17.676 9.740 C 18.050 10.395,18.338 11.267,18.442 12.058 C 18.512 12.586,18.471 13.719,18.365 14.214 C 17.806 16.816,15.821 18.762,13.190 19.287 C 12.550 19.415,11.454 19.416,10.820 19.289 C 10.185 19.162,9.692 18.993,9.100 18.700 C 8.446 18.377,7.937 18.012,7.422 17.499 C 6.390 16.469,5.743 15.167,5.557 13.740 C 5.489 13.217,5.531 12.043,5.636 11.569 C 5.761 11.003,5.937 10.509,6.202 9.980 C 6.654 9.077,6.744 8.974,9.477 6.230 C 10.852 4.849,11.987 3.720,12.000 3.720 C 12.013 3.720,13.148 4.849,14.523 6.230 " stroke="none" fill="black" fill-rule="evenodd"></path></svg>