<svg xmlns="http://www.w3.org/2000/svg" class="icon icon-tabler icon-tabler-ear" width="24" height="24" viewBox="0 0 24 24" stroke-width="1" stroke="currentColor" fill="none" stroke-linecap="round" stroke-linejoin="round"><path d="M12.380 2.519 C 8.884 2.832,6.086 5.468,5.582 8.925 C 5.548 9.159,5.520 9.543,5.520 9.779 L 5.520 10.208 5.656 10.344 C 5.774 10.462,5.818 10.480,5.991 10.480 C 6.200 10.480,6.358 10.394,6.444 10.232 C 6.469 10.187,6.504 9.903,6.523 9.601 C 6.597 8.413,6.951 7.371,7.630 6.340 C 7.970 5.825,8.788 5.000,9.308 4.648 C 10.436 3.884,11.656 3.507,13.000 3.507 C 14.810 3.507,16.410 4.190,17.682 5.507 C 18.577 6.434,19.183 7.628,19.399 8.897 C 19.509 9.536,19.510 10.459,19.402 11.090 C 19.258 11.928,18.892 12.873,18.492 13.433 C 18.238 13.790,17.426 14.620,16.980 14.979 C 16.087 15.699,15.339 16.669,14.820 17.780 C 14.455 18.563,14.392 18.673,14.120 19.012 C 13.625 19.629,12.912 20.100,12.100 20.346 C 11.768 20.447,11.685 20.456,11.040 20.457 C 10.478 20.459,10.289 20.445,10.080 20.386 C 9.574 20.244,9.185 20.067,8.778 19.795 C 8.416 19.553,8.345 19.520,8.179 19.520 C 8.020 19.520,7.972 19.540,7.856 19.656 C 7.737 19.775,7.720 19.818,7.720 19.993 C 7.720 20.242,7.804 20.351,8.195 20.614 C 9.065 21.197,9.987 21.480,11.020 21.480 C 12.421 21.480,13.703 20.929,14.654 19.918 C 15.012 19.538,15.362 19.026,15.505 18.676 C 15.970 17.530,16.735 16.463,17.581 15.781 C 18.078 15.380,18.770 14.692,19.150 14.220 C 19.665 13.581,20.125 12.531,20.350 11.482 C 20.451 11.014,20.458 10.913,20.458 10.000 C 20.458 9.088,20.451 8.985,20.351 8.519 C 19.678 5.381,17.228 3.048,14.120 2.584 C 13.615 2.508,12.825 2.479,12.380 2.519 M12.260 6.546 C 11.644 6.676,11.043 7.002,10.576 7.460 C 9.905 8.118,9.573 8.845,9.531 9.749 L 9.510 10.198 9.651 10.339 C 9.774 10.462,9.817 10.480,9.991 10.480 C 10.197 10.480,10.358 10.394,10.441 10.238 C 10.463 10.196,10.499 9.984,10.519 9.766 C 10.582 9.110,10.825 8.598,11.286 8.155 C 11.552 7.898,12.021 7.638,12.386 7.543 C 12.701 7.462,13.298 7.462,13.611 7.543 C 14.496 7.772,15.187 8.466,15.421 9.361 C 15.524 9.755,15.487 10.447,15.344 10.820 C 15.215 11.157,15.030 11.445,14.738 11.763 C 14.533 11.985,14.520 12.012,14.520 12.204 C 14.520 12.383,14.537 12.425,14.656 12.544 C 14.776 12.664,14.817 12.680,14.999 12.680 C 15.196 12.680,15.218 12.669,15.449 12.450 C 15.583 12.323,15.794 12.065,15.919 11.876 C 16.309 11.285,16.480 10.697,16.480 9.943 C 16.480 8.298,15.317 6.869,13.712 6.543 C 13.329 6.465,12.636 6.466,12.260 6.546 " stroke="none" fill="black" fill-rule="evenodd"></path></svg>