<svg xmlns="http://www.w3.org/2000/svg" class="icon icon-tabler icon-tabler-edit" width="24" height="24" viewBox="0 0 24 24" stroke-width="1" stroke="currentColor" fill="none" stroke-linecap="round" stroke-linejoin="round"><path d="M18.704 2.406 C 18.367 2.441,18.107 2.523,17.740 2.710 C 17.481 2.842,17.126 3.187,12.993 7.317 L 8.525 11.780 8.500 12.000 C 8.486 12.121,8.480 12.878,8.487 13.682 C 8.501 15.284,8.498 15.265,8.749 15.429 C 8.846 15.493,9.002 15.501,10.318 15.513 C 11.122 15.520,11.879 15.514,12.000 15.500 L 12.220 15.475 16.686 11.007 L 21.152 6.540 21.333 6.160 C 21.541 5.723,21.606 5.446,21.606 5.000 C 21.606 4.553,21.541 4.276,21.334 3.846 C 20.858 2.856,19.825 2.290,18.704 2.406 M19.551 3.482 C 19.827 3.577,20.121 3.796,20.301 4.041 C 20.711 4.600,20.713 5.402,20.305 5.951 C 20.228 6.055,19.903 6.401,19.582 6.720 L 19.000 7.299 17.850 6.149 L 16.700 4.998 17.380 4.325 C 17.912 3.799,18.110 3.629,18.291 3.545 C 18.684 3.361,19.134 3.339,19.551 3.482 M17.160 6.860 L 18.300 8.000 15.040 11.260 L 11.780 14.520 10.650 14.520 L 9.520 14.520 9.520 13.350 L 9.520 12.180 12.750 8.950 C 14.526 7.174,15.989 5.720,16.000 5.720 C 16.011 5.720,16.533 6.233,17.160 6.860 M5.274 6.615 C 4.870 6.734,4.561 6.922,4.242 7.242 C 3.922 7.561,3.739 7.864,3.603 8.294 L 3.500 8.620 3.500 13.480 C 3.500 18.069,3.504 18.354,3.573 18.600 C 3.834 19.527,4.447 20.144,5.386 20.426 C 5.602 20.490,5.973 20.497,10.200 20.510 C 13.147 20.519,14.926 20.509,15.189 20.483 C 16.297 20.371,17.119 19.686,17.422 18.620 C 17.479 18.418,17.493 18.128,17.509 16.807 C 17.532 14.949,17.523 14.835,17.340 14.652 C 17.226 14.538,17.181 14.520,17.009 14.520 C 16.799 14.520,16.647 14.604,16.550 14.773 C 16.513 14.837,16.495 15.326,16.480 16.640 L 16.460 18.420 16.350 18.644 C 16.220 18.909,15.874 19.252,15.626 19.362 C 15.530 19.404,15.327 19.457,15.176 19.479 C 14.803 19.533,6.198 19.532,5.820 19.478 C 5.666 19.456,5.449 19.394,5.339 19.341 C 5.075 19.212,4.784 18.918,4.649 18.641 L 4.540 18.420 4.540 13.500 L 4.540 8.580 4.649 8.359 C 4.787 8.076,5.076 7.787,5.359 7.649 L 5.580 7.540 7.360 7.520 C 8.674 7.505,9.163 7.487,9.227 7.450 C 9.396 7.353,9.480 7.201,9.480 6.991 C 9.480 6.818,9.462 6.774,9.344 6.656 L 9.208 6.520 7.394 6.522 C 5.629 6.524,5.572 6.527,5.274 6.615 " stroke="none" fill="black" fill-rule="evenodd"></path></svg>