<svg xmlns="http://www.w3.org/2000/svg" class="icon icon-tabler icon-tabler-egg" width="24" height="24" viewBox="0 0 24 24" stroke-width="1" stroke="currentColor" fill="none" stroke-linecap="round" stroke-linejoin="round"><path d="M11.400 3.504 C 10.391 3.688,9.610 4.099,8.960 4.786 C 6.561 7.324,5.308 10.746,5.513 14.200 C 5.582 15.363,5.768 16.074,6.247 17.005 C 7.164 18.786,8.924 20.064,10.934 20.406 C 11.349 20.477,11.531 20.486,12.180 20.468 C 13.308 20.438,13.900 20.293,14.900 19.799 C 16.737 18.894,18.057 17.123,18.398 15.107 C 18.503 14.488,18.539 13.405,18.481 12.620 C 18.285 9.939,17.338 7.567,15.620 5.455 C 14.850 4.507,14.370 4.111,13.600 3.786 C 13.099 3.575,12.788 3.515,12.120 3.500 C 11.779 3.492,11.455 3.494,11.400 3.504 M12.998 4.636 C 13.683 4.868,14.061 5.148,14.663 5.870 C 16.256 7.781,17.094 9.653,17.426 12.040 C 17.522 12.727,17.521 14.329,17.424 14.900 C 17.135 16.611,16.041 18.102,14.494 18.890 C 13.682 19.304,12.938 19.480,12.000 19.480 C 11.348 19.480,10.836 19.402,10.294 19.221 C 8.606 18.656,7.345 17.397,6.782 15.714 C 6.290 14.244,6.420 11.762,7.093 9.780 C 7.558 8.410,8.211 7.245,9.180 6.055 C 9.680 5.442,9.874 5.249,10.219 5.023 C 10.865 4.600,11.304 4.475,12.080 4.494 C 12.562 4.506,12.660 4.521,12.998 4.636 " stroke="none" fill="black" fill-rule="evenodd"></path></svg>