<svg xmlns="http://www.w3.org/2000/svg" class="icon icon-tabler icon-tabler-emphasis" width="24" height="24" viewBox="0 0 24 24" stroke-width="1" stroke="currentColor" fill="none" stroke-linecap="round" stroke-linejoin="round"><path d="M7.660 4.652 C 7.554 4.758,7.523 4.828,7.502 5.002 C 7.488 5.122,7.481 7.453,7.488 10.182 C 7.499 14.843,7.504 15.150,7.571 15.251 C 7.609 15.310,7.690 15.391,7.749 15.429 C 7.849 15.495,8.113 15.501,11.818 15.512 C 13.997 15.519,15.878 15.513,15.998 15.498 C 16.172 15.478,16.242 15.446,16.348 15.340 C 16.463 15.225,16.480 15.182,16.480 15.000 C 16.480 14.817,16.464 14.776,16.344 14.656 L 16.208 14.520 12.364 14.520 L 8.520 14.520 8.520 12.520 L 8.520 10.520 11.730 10.519 C 13.546 10.519,15.010 10.502,15.100 10.481 C 15.343 10.425,15.480 10.250,15.480 9.995 C 15.480 9.817,15.463 9.775,15.344 9.656 L 15.208 9.520 11.864 9.520 L 8.520 9.520 8.520 7.520 L 8.520 5.520 12.230 5.519 C 14.351 5.519,16.009 5.502,16.100 5.481 C 16.343 5.425,16.480 5.250,16.480 4.995 C 16.480 4.817,16.463 4.775,16.344 4.656 L 16.208 4.520 12.000 4.520 L 7.792 4.520 7.660 4.652 M5.656 19.656 C 5.537 19.775,5.520 19.818,5.520 19.993 C 5.520 20.150,5.542 20.220,5.621 20.314 C 5.758 20.477,5.957 20.540,6.139 20.480 C 6.357 20.408,6.480 20.233,6.480 19.993 C 6.480 19.818,6.463 19.775,6.344 19.656 C 6.224 19.536,6.183 19.520,6.000 19.520 C 5.817 19.520,5.776 19.536,5.656 19.656 M9.656 19.656 C 9.537 19.775,9.520 19.818,9.520 19.993 C 9.520 20.233,9.643 20.408,9.861 20.480 C 10.043 20.540,10.242 20.477,10.379 20.314 C 10.458 20.220,10.480 20.150,10.480 19.993 C 10.480 19.818,10.463 19.775,10.344 19.656 C 10.224 19.536,10.183 19.520,10.000 19.520 C 9.817 19.520,9.776 19.536,9.656 19.656 M13.656 19.656 C 13.537 19.775,13.520 19.818,13.520 19.993 C 13.520 20.150,13.542 20.220,13.621 20.314 C 13.758 20.477,13.957 20.540,14.139 20.480 C 14.357 20.408,14.480 20.233,14.480 19.993 C 14.480 19.818,14.463 19.775,14.344 19.656 C 14.224 19.536,14.183 19.520,14.000 19.520 C 13.817 19.520,13.776 19.536,13.656 19.656 M17.656 19.656 C 17.537 19.775,17.520 19.818,17.520 19.993 C 17.520 20.150,17.542 20.220,17.621 20.314 C 17.758 20.477,17.957 20.540,18.139 20.480 C 18.357 20.408,18.480 20.233,18.480 19.993 C 18.480 19.818,18.463 19.775,18.344 19.656 C 18.224 19.536,18.183 19.520,18.000 19.520 C 17.817 19.520,17.776 19.536,17.656 19.656 " stroke="none" fill="black" fill-rule="evenodd"></path></svg>