<svg xmlns="http://www.w3.org/2000/svg" class="icon icon-tabler icon-tabler-eraser" width="24" height="24" viewBox="0 0 24 24" stroke-width="1" stroke="currentColor" fill="none" stroke-linecap="round" stroke-linejoin="round"><path d="M14.317 2.855 C 14.217 2.882,14.055 2.951,13.957 3.009 C 13.856 3.070,11.563 5.335,8.594 8.307 C 3.627 13.282,3.405 13.510,3.325 13.731 C 3.148 14.216,3.188 14.689,3.440 15.079 C 3.504 15.178,4.500 16.202,5.651 17.353 C 7.476 19.176,7.766 19.450,7.903 19.482 C 8.113 19.530,18.889 19.530,19.100 19.481 C 19.343 19.425,19.480 19.250,19.480 18.995 C 19.480 18.817,19.463 18.775,19.344 18.656 L 19.208 18.520 15.924 18.520 C 14.118 18.520,12.640 18.507,12.640 18.490 C 12.640 18.474,14.518 16.580,16.814 14.280 C 21.525 9.562,21.175 9.962,21.178 9.300 C 21.180 8.986,21.165 8.907,21.063 8.680 C 20.954 8.438,20.769 8.242,18.343 5.808 C 16.911 4.371,15.650 3.136,15.540 3.062 C 15.176 2.820,14.729 2.744,14.317 2.855 M17.546 6.446 C 20.304 9.203,20.252 9.145,20.182 9.430 C 20.164 9.501,19.786 9.910,19.108 10.590 L 18.061 11.641 15.211 8.791 L 12.360 5.940 13.350 4.946 C 13.895 4.399,14.394 3.917,14.460 3.874 C 14.548 3.816,14.626 3.800,14.756 3.814 C 14.928 3.831,14.977 3.877,17.546 6.446 M14.500 9.520 L 17.340 12.360 14.260 15.440 L 11.180 18.520 9.700 18.520 L 8.220 18.520 6.252 16.550 C 5.085 15.383,4.266 14.531,4.239 14.460 C 4.127 14.160,3.963 14.342,7.932 10.370 C 9.960 8.341,11.629 6.680,11.640 6.680 C 11.651 6.680,12.938 7.958,14.500 9.520 " stroke="none" fill="black" fill-rule="evenodd"></path></svg>