<svg xmlns="http://www.w3.org/2000/svg" class="icon icon-tabler icon-tabler-exchange" width="24" height="24" viewBox="0 0 24 24" stroke-width="1" stroke="currentColor" fill="none" stroke-linecap="round" stroke-linejoin="round"><path d="M9.656 2.656 C 9.535 2.777,9.520 2.816,9.520 3.004 L 9.520 3.217 10.640 4.339 C 11.256 4.957,11.760 5.475,11.760 5.491 C 11.760 5.507,11.242 5.520,10.610 5.520 C 9.302 5.520,8.949 5.560,8.286 5.782 C 6.604 6.345,5.345 7.604,4.782 9.285 C 4.519 10.073,4.510 10.179,4.490 13.007 L 4.473 15.554 4.199 15.637 C 3.465 15.860,2.809 16.554,2.600 17.328 C 2.477 17.786,2.498 18.408,2.652 18.839 C 2.908 19.557,3.492 20.130,4.207 20.364 C 4.459 20.447,4.576 20.460,5.040 20.459 C 5.553 20.457,5.596 20.451,5.900 20.328 C 6.882 19.933,7.480 19.053,7.480 18.000 C 7.480 17.584,7.408 17.253,7.239 16.900 C 6.974 16.345,6.431 15.861,5.838 15.653 L 5.517 15.540 5.530 12.880 C 5.542 10.290,5.544 10.212,5.629 9.912 C 6.101 8.239,7.250 7.091,8.913 6.630 C 9.190 6.553,9.345 6.544,10.500 6.530 L 11.780 6.515 10.650 7.649 L 9.520 8.783 9.520 8.996 C 9.520 9.184,9.535 9.223,9.656 9.344 C 9.777 9.465,9.816 9.480,10.005 9.480 L 10.219 9.480 11.849 7.849 L 13.480 6.219 13.480 6.000 L 13.480 5.781 11.849 4.151 L 10.219 2.520 10.005 2.520 C 9.816 2.520,9.777 2.535,9.656 2.656 M18.274 3.613 C 17.869 3.736,17.560 3.923,17.242 4.241 C 16.718 4.764,16.500 5.331,16.528 6.098 C 16.541 6.446,16.567 6.603,16.652 6.839 C 16.907 7.554,17.496 8.134,18.197 8.359 L 18.480 8.450 18.480 10.981 C 18.480 13.072,18.469 13.567,18.420 13.830 C 18.075 15.647,16.677 17.049,14.839 17.421 C 14.498 17.490,12.240 17.556,12.240 17.497 C 12.240 17.478,12.744 16.957,13.360 16.339 L 14.480 15.217 14.480 15.004 C 14.480 14.816,14.465 14.777,14.344 14.656 C 14.223 14.535,14.184 14.520,13.995 14.520 L 13.781 14.520 12.151 16.151 L 10.520 17.781 10.520 18.000 L 10.520 18.219 12.151 19.849 L 13.781 21.480 13.995 21.480 C 14.184 21.480,14.223 21.465,14.344 21.344 C 14.465 21.223,14.480 21.184,14.480 20.996 L 14.480 20.783 13.357 19.658 L 12.234 18.532 13.387 18.508 C 14.658 18.482,15.041 18.436,15.670 18.235 C 17.333 17.706,18.657 16.393,19.218 14.714 C 19.481 13.927,19.490 13.820,19.509 10.999 L 19.527 8.458 19.843 8.346 C 20.431 8.138,20.976 7.652,21.239 7.100 C 21.408 6.747,21.480 6.416,21.480 6.000 C 21.480 4.947,20.879 4.061,19.900 3.673 C 19.612 3.559,19.530 3.545,19.080 3.533 C 18.647 3.521,18.539 3.532,18.274 3.613 M19.641 4.649 C 19.924 4.787,20.213 5.076,20.351 5.359 C 20.449 5.557,20.460 5.624,20.460 6.000 C 20.460 6.348,20.445 6.453,20.372 6.610 C 20.250 6.875,19.912 7.218,19.644 7.350 C 19.443 7.449,19.377 7.460,19.000 7.460 C 18.624 7.460,18.557 7.449,18.359 7.351 C 18.076 7.213,17.787 6.924,17.649 6.641 C 17.499 6.337,17.474 5.802,17.593 5.488 C 17.743 5.094,18.077 4.753,18.468 4.597 C 18.766 4.478,19.345 4.503,19.641 4.649 M5.641 16.649 C 5.924 16.787,6.213 17.076,6.351 17.359 C 6.449 17.557,6.460 17.624,6.460 18.000 C 6.460 18.348,6.445 18.453,6.372 18.610 C 6.250 18.875,5.912 19.218,5.644 19.350 C 5.443 19.449,5.377 19.460,5.000 19.460 C 4.624 19.460,4.557 19.449,4.359 19.351 C 4.076 19.213,3.787 18.924,3.649 18.641 C 3.499 18.337,3.474 17.802,3.593 17.488 C 3.743 17.094,4.077 16.753,4.468 16.597 C 4.766 16.478,5.345 16.503,5.641 16.649 " stroke="none" fill="black" fill-rule="evenodd"></path></svg>