<svg xmlns="http://www.w3.org/2000/svg" class="icon icon-tabler icon-tabler-exposure" width="24" height="24" viewBox="0 0 24 24" stroke-width="1" stroke="currentColor" fill="none" stroke-linecap="round" stroke-linejoin="round"><path d="M5.274 3.615 C 4.870 3.735,4.561 3.922,4.242 4.242 C 3.922 4.561,3.739 4.864,3.603 5.294 L 3.500 5.620 3.500 11.980 C 3.500 17.982,3.504 18.354,3.572 18.593 C 3.838 19.528,4.448 20.147,5.380 20.425 C 5.605 20.492,5.994 20.497,11.700 20.510 C 15.647 20.519,17.924 20.509,18.189 20.482 C 19.305 20.371,20.121 19.684,20.427 18.600 C 20.496 18.353,20.500 18.024,20.500 12.000 C 20.500 5.976,20.496 5.647,20.427 5.400 C 20.196 4.582,19.666 3.982,18.900 3.670 L 18.580 3.540 12.080 3.532 L 5.580 3.524 5.274 3.615 M18.444 4.565 C 18.519 4.590,18.593 4.622,18.609 4.636 C 18.625 4.651,15.489 7.811,11.641 11.659 L 4.644 18.656 4.592 18.538 C 4.550 18.443,4.538 17.174,4.530 12.051 C 4.520 5.840,4.521 5.678,4.597 5.479 C 4.744 5.093,5.084 4.749,5.468 4.599 C 5.653 4.527,5.896 4.524,11.984 4.522 C 16.604 4.521,18.345 4.532,18.444 4.565 M19.440 5.611 C 19.472 5.762,19.481 7.564,19.472 12.120 L 19.460 18.420 19.350 18.644 C 19.220 18.909,18.874 19.252,18.626 19.362 C 18.530 19.404,18.327 19.457,18.176 19.479 C 17.810 19.531,6.200 19.533,5.835 19.480 C 5.689 19.459,5.519 19.422,5.457 19.399 C 5.345 19.356,5.398 19.303,12.340 12.360 C 16.187 8.513,19.349 5.373,19.365 5.383 C 19.381 5.393,19.415 5.496,19.440 5.611 M8.679 6.630 C 8.509 6.782,8.482 6.941,8.481 7.790 L 8.480 8.520 7.636 8.520 L 6.792 8.520 6.656 8.656 C 6.537 8.775,6.520 8.817,6.520 8.995 C 6.520 9.161,6.541 9.222,6.630 9.321 C 6.781 9.490,6.941 9.518,7.770 9.519 L 8.480 9.520 8.481 10.230 C 8.482 11.059,8.510 11.219,8.679 11.370 C 8.778 11.459,8.840 11.480,9.000 11.480 C 9.160 11.480,9.222 11.459,9.321 11.370 C 9.490 11.219,9.518 11.059,9.519 10.230 L 9.520 9.520 10.230 9.519 C 11.059 9.518,11.219 9.490,11.370 9.321 C 11.459 9.222,11.480 9.161,11.480 8.995 C 11.480 8.817,11.463 8.775,11.344 8.656 L 11.208 8.520 10.364 8.520 L 9.520 8.520 9.519 7.790 C 9.518 6.941,9.491 6.782,9.321 6.630 C 9.222 6.541,9.160 6.520,9.000 6.520 C 8.840 6.520,8.778 6.541,8.679 6.630 M12.656 15.656 C 12.537 15.775,12.520 15.817,12.520 15.995 C 12.520 16.250,12.657 16.425,12.900 16.481 C 13.109 16.529,16.891 16.529,17.100 16.481 C 17.343 16.425,17.480 16.250,17.480 15.995 C 17.480 15.817,17.463 15.775,17.344 15.656 L 17.208 15.520 15.000 15.520 L 12.792 15.520 12.656 15.656 " stroke="none" fill="black" fill-rule="evenodd"></path></svg>