<svg xmlns="http://www.w3.org/2000/svg" class="icon icon-tabler icon-tabler-external-link" width="24" height="24" viewBox="0 0 24 24" stroke-width="1" stroke="currentColor" fill="none" stroke-linecap="round" stroke-linejoin="round"><path d="M17.327 3.518 L 14.753 3.540 14.637 3.671 C 14.541 3.778,14.520 3.837,14.520 4.000 C 14.520 4.249,14.659 4.426,14.900 4.481 C 14.988 4.501,15.897 4.519,16.920 4.519 L 18.780 4.520 14.150 9.150 L 9.520 13.781 9.520 13.994 C 9.520 14.184,9.535 14.223,9.656 14.344 C 9.777 14.465,9.816 14.480,10.006 14.480 L 10.219 14.480 14.850 9.850 L 19.480 5.220 19.481 7.080 C 19.481 8.103,19.499 9.012,19.519 9.100 C 19.574 9.341,19.751 9.480,20.000 9.480 C 20.249 9.480,20.426 9.341,20.481 9.100 C 20.502 9.012,20.518 7.822,20.519 6.440 C 20.520 4.138,20.514 3.929,20.450 3.803 C 20.360 3.626,20.214 3.521,20.039 3.507 C 19.963 3.501,18.742 3.506,17.327 3.518 M5.274 6.615 C 4.870 6.734,4.561 6.922,4.242 7.242 C 3.922 7.561,3.739 7.864,3.603 8.294 L 3.500 8.620 3.500 13.480 C 3.500 18.069,3.504 18.354,3.573 18.600 C 3.834 19.527,4.447 20.144,5.386 20.426 C 5.602 20.490,5.973 20.497,10.200 20.510 C 13.147 20.519,14.926 20.509,15.189 20.483 C 16.296 20.371,17.111 19.692,17.423 18.620 C 17.486 18.405,17.495 18.107,17.510 15.800 C 17.519 14.381,17.514 13.122,17.499 13.002 C 17.478 12.829,17.445 12.757,17.340 12.652 C 17.226 12.538,17.181 12.520,17.009 12.520 C 16.799 12.520,16.647 12.604,16.550 12.773 C 16.512 12.839,16.495 13.528,16.480 15.640 L 16.460 18.420 16.350 18.644 C 16.220 18.909,15.874 19.252,15.626 19.362 C 15.530 19.404,15.327 19.457,15.176 19.479 C 14.803 19.533,6.198 19.532,5.820 19.478 C 5.666 19.456,5.449 19.394,5.339 19.341 C 5.075 19.212,4.784 18.918,4.649 18.641 L 4.540 18.420 4.540 13.500 L 4.540 8.580 4.649 8.359 C 4.787 8.076,5.076 7.787,5.359 7.649 L 5.580 7.540 8.360 7.520 C 10.472 7.505,11.161 7.488,11.227 7.450 C 11.396 7.353,11.480 7.201,11.480 6.991 C 11.480 6.818,11.462 6.774,11.344 6.656 L 11.208 6.520 8.394 6.522 C 5.590 6.524,5.579 6.525,5.274 6.615 " stroke="none" fill="black" fill-rule="evenodd"></path></svg>