<svg xmlns="http://www.w3.org/2000/svg" class="icon icon-tabler icon-tabler-eye" width="24" height="24" viewBox="0 0 24 24" stroke-width="1" stroke="currentColor" fill="none" stroke-linecap="round" stroke-linejoin="round"><path d="M11.029 5.519 C 8.091 5.805,5.461 7.098,3.532 9.207 C 3.108 9.670,1.543 11.745,1.506 11.892 C 1.491 11.951,1.491 12.049,1.506 12.108 C 1.521 12.168,1.911 12.721,2.373 13.338 C 3.107 14.319,3.299 14.546,3.896 15.143 C 4.873 16.119,5.734 16.742,6.900 17.317 C 10.510 19.098,14.770 18.876,18.151 16.729 C 18.896 16.257,19.384 15.860,20.104 15.142 C 20.703 14.544,20.891 14.321,21.627 13.338 C 22.089 12.721,22.479 12.168,22.494 12.108 C 22.509 12.049,22.509 11.951,22.494 11.892 C 22.479 11.832,22.088 11.279,21.625 10.662 C 20.435 9.076,19.598 8.235,18.418 7.443 C 16.931 6.445,15.316 5.835,13.480 5.578 C 12.974 5.507,11.517 5.472,11.029 5.519 M12.880 6.522 C 15.387 6.747,17.622 7.784,19.384 9.538 C 19.829 9.982,20.098 10.300,20.659 11.050 L 21.370 12.000 20.659 12.950 C 20.099 13.699,19.829 14.019,19.384 14.462 C 15.498 18.335,9.320 18.549,5.140 14.957 C 4.515 14.420,4.084 13.938,3.329 12.932 L 2.630 12.000 3.341 11.050 C 4.425 9.600,5.308 8.769,6.583 7.995 C 8.450 6.862,10.731 6.328,12.880 6.522 M11.274 9.613 C 10.869 9.736,10.560 9.923,10.242 10.241 C 9.718 10.764,9.500 11.331,9.528 12.098 C 9.541 12.446,9.567 12.603,9.652 12.839 C 9.908 13.557,10.492 14.130,11.207 14.364 C 11.459 14.447,11.576 14.460,12.040 14.459 C 12.553 14.457,12.596 14.451,12.900 14.328 C 13.882 13.933,14.480 13.053,14.480 12.000 C 14.480 10.947,13.879 10.061,12.900 9.673 C 12.612 9.559,12.530 9.545,12.080 9.533 C 11.647 9.521,11.539 9.532,11.274 9.613 M12.641 10.649 C 12.924 10.787,13.213 11.076,13.351 11.359 C 13.449 11.557,13.460 11.624,13.460 12.000 C 13.460 12.348,13.445 12.453,13.372 12.610 C 13.250 12.875,12.912 13.218,12.644 13.350 C 12.443 13.449,12.377 13.460,12.000 13.460 C 11.624 13.460,11.557 13.449,11.359 13.351 C 11.076 13.213,10.787 12.924,10.649 12.641 C 10.499 12.337,10.474 11.802,10.593 11.488 C 10.743 11.094,11.077 10.753,11.468 10.597 C 11.766 10.478,12.345 10.503,12.641 10.649 " stroke="none" fill="black" fill-rule="evenodd"></path></svg>