<svg xmlns="http://www.w3.org/2000/svg" class="icon icon-tabler icon-tabler-file-shredder" width="24" height="24" viewBox="0 0 24 24" stroke-width="1" stroke="currentColor" fill="none" stroke-linecap="round" stroke-linejoin="round"><path d="M10.180 2.519 L 6.460 2.540 6.192 2.631 C 5.453 2.882,4.846 3.518,4.604 4.294 L 4.503 4.620 4.489 8.070 L 4.476 11.520 3.634 11.520 L 2.792 11.520 2.656 11.656 C 2.537 11.775,2.520 11.817,2.520 11.995 C 2.520 12.250,2.657 12.425,2.900 12.481 C 3.114 12.531,20.886 12.531,21.100 12.481 C 21.343 12.425,21.480 12.250,21.480 11.995 C 21.480 11.817,21.463 11.775,21.344 11.656 L 21.208 11.520 20.364 11.520 L 19.520 11.520 19.520 9.739 C 19.520 8.299,19.509 7.933,19.464 7.829 C 19.391 7.662,14.298 2.578,14.147 2.522 C 14.085 2.499,14.004 2.484,13.967 2.489 C 13.930 2.495,12.226 2.508,10.180 2.519 M13.490 5.390 C 13.503 7.013,13.514 7.287,13.572 7.465 C 13.710 7.882,14.118 8.290,14.535 8.428 C 14.713 8.486,14.987 8.497,16.610 8.510 L 18.480 8.526 18.480 10.023 L 18.480 11.520 12.000 11.520 L 5.520 11.520 5.520 8.100 C 5.520 4.823,5.523 4.672,5.597 4.478 C 5.744 4.093,6.084 3.749,6.468 3.599 C 6.650 3.528,6.832 3.524,10.067 3.522 L 13.474 3.520 13.490 5.390 M17.760 7.490 C 17.760 7.533,15.091 7.525,14.900 7.481 C 14.804 7.459,14.696 7.395,14.630 7.321 L 14.520 7.199 14.520 5.710 L 14.520 4.220 16.140 5.840 C 17.031 6.731,17.760 7.473,17.760 7.490 M5.679 15.630 C 5.605 15.696,5.541 15.804,5.519 15.900 C 5.471 16.108,5.471 17.892,5.519 18.100 C 5.574 18.341,5.751 18.480,6.000 18.480 C 6.249 18.480,6.426 18.341,6.481 18.100 C 6.529 17.892,6.529 16.108,6.481 15.900 C 6.426 15.659,6.249 15.520,6.000 15.520 C 5.840 15.520,5.778 15.541,5.679 15.630 M9.679 15.630 C 9.605 15.696,9.541 15.804,9.519 15.900 C 9.470 16.110,9.470 21.890,9.519 22.100 C 9.574 22.341,9.751 22.480,10.000 22.480 C 10.249 22.480,10.426 22.341,10.481 22.100 C 10.530 21.890,10.530 16.110,10.481 15.900 C 10.426 15.659,10.249 15.520,10.000 15.520 C 9.840 15.520,9.778 15.541,9.679 15.630 M13.679 15.630 C 13.605 15.696,13.541 15.804,13.519 15.900 C 13.471 16.108,13.471 17.892,13.519 18.100 C 13.574 18.341,13.751 18.480,14.000 18.480 C 14.249 18.480,14.426 18.341,14.481 18.100 C 14.529 17.892,14.529 16.108,14.481 15.900 C 14.426 15.659,14.249 15.520,14.000 15.520 C 13.840 15.520,13.778 15.541,13.679 15.630 M17.679 15.630 C 17.605 15.696,17.541 15.804,17.519 15.900 C 17.471 16.109,17.471 19.891,17.519 20.100 C 17.574 20.341,17.751 20.480,18.000 20.480 C 18.249 20.480,18.426 20.341,18.481 20.100 C 18.529 19.891,18.529 16.109,18.481 15.900 C 18.426 15.659,18.249 15.520,18.000 15.520 C 17.840 15.520,17.778 15.541,17.679 15.630 " stroke="none" fill="black" fill-rule="evenodd"></path></svg>