<svg xmlns="http://www.w3.org/2000/svg" class="icon icon-tabler icon-tabler-file-music" width="24" height="24" viewBox="0 0 24 24" stroke-width="1" stroke="currentColor" fill="none" stroke-linecap="round" stroke-linejoin="round"><path d="M10.180 2.519 L 6.460 2.540 6.192 2.631 C 5.444 2.885,4.817 3.552,4.594 4.330 L 4.500 4.660 4.500 12.000 C 4.500 18.945,4.504 19.354,4.572 19.593 C 4.838 20.528,5.449 21.148,6.380 21.425 C 6.604 21.491,6.964 21.497,11.700 21.510 C 14.980 21.519,16.925 21.509,17.189 21.483 C 18.296 21.372,19.103 20.699,19.425 19.620 C 19.492 19.395,19.497 19.018,19.510 13.720 C 19.518 10.607,19.513 7.997,19.499 7.920 C 19.478 7.800,19.100 7.405,16.887 5.186 C 15.394 3.689,14.246 2.568,14.171 2.536 C 14.100 2.505,14.010 2.484,13.971 2.489 C 13.932 2.495,12.226 2.508,10.180 2.519 M13.490 5.390 C 13.503 7.013,13.514 7.287,13.572 7.465 C 13.710 7.882,14.118 8.290,14.535 8.428 C 14.713 8.486,14.987 8.497,16.611 8.510 L 18.481 8.526 18.471 13.973 L 18.460 19.420 18.372 19.610 C 18.253 19.867,17.913 20.218,17.664 20.339 C 17.548 20.396,17.323 20.457,17.140 20.482 C 16.925 20.510,15.159 20.520,11.780 20.511 C 7.115 20.500,6.725 20.494,6.535 20.429 C 6.129 20.292,5.750 19.925,5.597 19.522 C 5.522 19.324,5.520 19.126,5.520 12.000 C 5.520 4.874,5.522 4.676,5.597 4.478 C 5.744 4.093,6.084 3.749,6.468 3.599 C 6.650 3.528,6.832 3.524,10.067 3.522 L 13.474 3.520 13.490 5.390 M17.760 7.490 C 17.760 7.533,15.091 7.525,14.900 7.481 C 14.804 7.459,14.696 7.395,14.630 7.321 L 14.520 7.199 14.520 5.710 L 14.520 4.220 16.140 5.840 C 17.031 6.731,17.760 7.473,17.760 7.490 M11.679 10.630 C 11.605 10.696,11.541 10.804,11.519 10.900 C 11.499 10.988,11.481 11.843,11.481 12.800 L 11.480 14.540 11.030 14.540 C 10.621 14.540,10.560 14.550,10.359 14.649 C 10.076 14.787,9.787 15.076,9.649 15.359 C 9.551 15.557,9.540 15.624,9.540 16.000 C 9.540 16.376,9.551 16.443,9.649 16.641 C 9.787 16.924,10.076 17.213,10.359 17.351 C 10.557 17.449,10.624 17.460,11.000 17.460 C 11.376 17.460,11.443 17.449,11.640 17.352 C 11.890 17.229,12.163 16.976,12.302 16.739 C 12.506 16.392,12.519 16.228,12.519 13.950 C 12.520 12.790,12.529 11.840,12.540 11.840 C 12.552 11.840,12.849 11.984,13.200 12.160 C 13.968 12.545,14.119 12.569,14.344 12.344 C 14.462 12.226,14.480 12.182,14.480 12.009 C 14.480 11.868,14.456 11.780,14.395 11.703 C 14.341 11.634,13.931 11.406,13.236 11.058 C 12.023 10.451,11.912 10.421,11.679 10.630 M11.344 15.656 C 11.464 15.776,11.480 15.817,11.480 16.000 C 11.480 16.183,11.464 16.224,11.344 16.344 C 11.224 16.464,11.183 16.480,11.000 16.480 C 10.817 16.480,10.776 16.464,10.656 16.344 C 10.536 16.224,10.520 16.183,10.520 16.000 C 10.520 15.817,10.536 15.776,10.656 15.656 C 10.776 15.536,10.817 15.520,11.000 15.520 C 11.183 15.520,11.224 15.536,11.344 15.656 " stroke="none" fill="black" fill-rule="evenodd"></path></svg>