<svg xmlns="http://www.w3.org/2000/svg" class="icon icon-tabler icon-tabler-file-horizontal" width="24" height="24" viewBox="0 0 24 24" stroke-width="1" stroke="currentColor" fill="none" stroke-linecap="round" stroke-linejoin="round"><path d="M10.180 4.520 L 4.460 4.540 4.192 4.631 C 3.444 4.885,2.817 5.552,2.594 6.330 L 2.500 6.660 2.500 12.000 C 2.500 17.054,2.504 17.354,2.573 17.600 C 2.834 18.527,3.444 19.141,4.386 19.426 C 4.605 19.493,5.062 19.498,11.700 19.510 C 16.315 19.519,18.922 19.509,19.189 19.482 C 20.296 19.372,21.107 18.696,21.424 17.620 C 21.489 17.400,21.496 17.078,21.510 13.720 C 21.518 11.707,21.513 9.997,21.500 9.920 C 21.478 9.800,21.096 9.401,18.887 7.186 C 17.394 5.689,16.246 4.568,16.171 4.536 C 16.100 4.505,16.010 4.484,15.971 4.490 C 15.932 4.495,13.326 4.508,10.180 4.520 M15.490 7.390 C 15.503 9.013,15.514 9.287,15.572 9.465 C 15.710 9.882,16.118 10.290,16.535 10.428 C 16.713 10.486,16.987 10.497,18.611 10.510 L 20.482 10.526 20.471 13.973 L 20.460 17.420 20.350 17.644 C 20.220 17.909,19.874 18.252,19.626 18.362 C 19.530 18.404,19.327 18.457,19.176 18.479 C 18.799 18.533,5.201 18.533,4.820 18.478 C 4.666 18.456,4.449 18.394,4.339 18.341 C 4.075 18.212,3.784 17.918,3.649 17.641 L 3.540 17.420 3.530 12.052 C 3.519 6.827,3.521 6.678,3.597 6.479 C 3.744 6.093,4.084 5.749,4.468 5.599 C 4.652 5.527,4.876 5.524,10.067 5.522 L 15.474 5.520 15.490 7.390 M19.760 9.490 C 19.760 9.533,17.091 9.525,16.900 9.481 C 16.804 9.459,16.696 9.395,16.630 9.321 L 16.520 9.199 16.520 7.710 L 16.520 6.220 18.140 7.840 C 19.031 8.731,19.760 9.473,19.760 9.490 " stroke="none" fill="black" fill-rule="evenodd"></path></svg>