<svg xmlns="http://www.w3.org/2000/svg" class="icon icon-tabler icon-tabler-file-code" width="24" height="24" viewBox="0 0 24 24" stroke-width="1" stroke="currentColor" fill="none" stroke-linecap="round" stroke-linejoin="round"><path d="M10.180 2.519 L 6.460 2.540 6.192 2.631 C 5.444 2.885,4.817 3.552,4.594 4.330 L 4.500 4.660 4.500 12.000 C 4.500 18.945,4.504 19.354,4.572 19.593 C 4.838 20.528,5.449 21.148,6.380 21.425 C 6.604 21.491,6.964 21.497,11.700 21.510 C 14.980 21.519,16.925 21.509,17.189 21.483 C 18.296 21.372,19.103 20.699,19.425 19.620 C 19.492 19.395,19.497 19.018,19.510 13.720 C 19.518 10.607,19.513 7.997,19.499 7.920 C 19.478 7.800,19.100 7.405,16.887 5.186 C 15.394 3.689,14.246 2.568,14.171 2.536 C 14.100 2.505,14.010 2.484,13.971 2.489 C 13.932 2.495,12.226 2.508,10.180 2.519 M13.490 5.390 C 13.503 7.013,13.514 7.287,13.572 7.465 C 13.710 7.882,14.118 8.290,14.535 8.428 C 14.713 8.486,14.987 8.497,16.611 8.510 L 18.481 8.526 18.471 13.973 L 18.460 19.420 18.372 19.610 C 18.253 19.867,17.913 20.218,17.664 20.339 C 17.548 20.396,17.323 20.457,17.140 20.482 C 16.925 20.510,15.159 20.520,11.780 20.511 C 7.115 20.500,6.725 20.494,6.535 20.429 C 6.129 20.292,5.750 19.925,5.597 19.522 C 5.522 19.324,5.520 19.126,5.520 12.000 C 5.520 4.874,5.522 4.676,5.597 4.478 C 5.744 4.093,6.084 3.749,6.468 3.599 C 6.650 3.528,6.832 3.524,10.067 3.522 L 13.474 3.520 13.490 5.390 M17.760 7.490 C 17.760 7.533,15.091 7.525,14.900 7.481 C 14.804 7.459,14.696 7.395,14.630 7.321 L 14.520 7.199 14.520 5.710 L 14.520 4.220 16.140 5.840 C 17.031 6.731,17.760 7.473,17.760 7.490 M9.703 12.605 C 9.634 12.659,9.406 13.069,9.058 13.764 C 8.635 14.609,8.520 14.874,8.520 15.000 C 8.520 15.126,8.635 15.391,9.058 16.236 C 9.406 16.931,9.634 17.341,9.703 17.395 C 9.780 17.456,9.868 17.480,10.009 17.480 C 10.182 17.480,10.226 17.462,10.344 17.344 C 10.459 17.229,10.480 17.180,10.480 17.024 C 10.480 16.869,10.407 16.694,10.020 15.920 L 9.560 15.000 10.020 14.080 C 10.407 13.306,10.480 13.131,10.480 12.976 C 10.480 12.820,10.459 12.771,10.344 12.656 C 10.226 12.538,10.182 12.520,10.009 12.520 C 9.868 12.520,9.780 12.544,9.703 12.605 M13.656 12.656 C 13.541 12.771,13.520 12.820,13.520 12.976 C 13.520 13.131,13.593 13.306,13.980 14.080 L 14.440 15.000 13.980 15.920 C 13.593 16.694,13.520 16.869,13.520 17.024 C 13.520 17.180,13.541 17.229,13.656 17.344 C 13.774 17.462,13.818 17.480,13.991 17.480 C 14.132 17.480,14.220 17.456,14.297 17.395 C 14.366 17.341,14.594 16.931,14.942 16.236 C 15.365 15.391,15.480 15.126,15.480 15.000 C 15.480 14.874,15.365 14.609,14.942 13.764 C 14.594 13.069,14.366 12.659,14.297 12.605 C 14.220 12.544,14.132 12.520,13.991 12.520 C 13.818 12.520,13.774 12.538,13.656 12.656 " stroke="none" fill="black" fill-rule="evenodd"></path></svg>