<svg xmlns="http://www.w3.org/2000/svg" class="icon icon-tabler icon-tabler-file-text" width="24" height="24" viewBox="0 0 24 24" stroke-width="1" stroke="currentColor" fill="none" stroke-linecap="round" stroke-linejoin="round"><path d="M10.180 2.519 L 6.460 2.540 6.192 2.631 C 5.444 2.885,4.817 3.552,4.594 4.330 L 4.500 4.660 4.500 12.000 C 4.500 18.945,4.504 19.354,4.572 19.593 C 4.838 20.528,5.449 21.148,6.380 21.425 C 6.604 21.491,6.964 21.497,11.700 21.510 C 14.980 21.519,16.925 21.509,17.189 21.483 C 18.296 21.372,19.103 20.699,19.425 19.620 C 19.492 19.395,19.497 19.018,19.510 13.720 C 19.518 10.607,19.513 7.997,19.499 7.920 C 19.478 7.800,19.100 7.405,16.887 5.186 C 15.394 3.689,14.246 2.568,14.171 2.536 C 14.100 2.505,14.010 2.484,13.971 2.489 C 13.932 2.495,12.226 2.508,10.180 2.519 M13.490 5.390 C 13.503 7.013,13.514 7.287,13.572 7.465 C 13.710 7.882,14.118 8.290,14.535 8.428 C 14.713 8.486,14.987 8.497,16.611 8.510 L 18.481 8.526 18.471 13.973 L 18.460 19.420 18.372 19.610 C 18.253 19.867,17.913 20.218,17.664 20.339 C 17.548 20.396,17.323 20.457,17.140 20.482 C 16.925 20.510,15.159 20.520,11.780 20.511 C 7.115 20.500,6.725 20.494,6.535 20.429 C 6.129 20.292,5.750 19.925,5.597 19.522 C 5.522 19.324,5.520 19.126,5.520 12.000 C 5.520 4.874,5.522 4.676,5.597 4.478 C 5.744 4.093,6.084 3.749,6.468 3.599 C 6.650 3.528,6.832 3.524,10.067 3.522 L 13.474 3.520 13.490 5.390 M17.760 7.490 C 17.760 7.533,15.091 7.525,14.900 7.481 C 14.804 7.459,14.696 7.395,14.630 7.321 L 14.520 7.199 14.520 5.710 L 14.520 4.220 16.140 5.840 C 17.031 6.731,17.760 7.473,17.760 7.490 M8.656 8.656 C 8.537 8.775,8.520 8.817,8.520 8.995 C 8.520 9.161,8.541 9.222,8.630 9.321 C 8.771 9.478,8.946 9.518,9.500 9.518 C 10.054 9.518,10.229 9.478,10.370 9.321 C 10.459 9.222,10.480 9.161,10.480 8.995 C 10.480 8.817,10.463 8.775,10.344 8.656 L 10.208 8.520 9.500 8.520 L 8.792 8.520 8.656 8.656 M8.656 12.656 C 8.537 12.775,8.520 12.817,8.520 12.995 C 8.520 13.250,8.657 13.425,8.900 13.481 C 9.110 13.530,14.890 13.530,15.100 13.481 C 15.343 13.425,15.480 13.250,15.480 12.995 C 15.480 12.817,15.463 12.775,15.344 12.656 L 15.208 12.520 12.000 12.520 L 8.792 12.520 8.656 12.656 M8.656 16.656 C 8.537 16.775,8.520 16.817,8.520 16.995 C 8.520 17.250,8.657 17.425,8.900 17.481 C 9.110 17.530,14.890 17.530,15.100 17.481 C 15.343 17.425,15.480 17.250,15.480 16.995 C 15.480 16.817,15.463 16.775,15.344 16.656 L 15.208 16.520 12.000 16.520 L 8.792 16.520 8.656 16.656 " stroke="none" fill="black" fill-rule="evenodd"></path></svg>