<svg xmlns="http://www.w3.org/2000/svg" class="icon icon-tabler icon-tabler-file-download" width="24" height="24" viewBox="0 0 24 24" stroke-width="1" stroke="currentColor" fill="none" stroke-linecap="round" stroke-linejoin="round"><path d="M10.180 2.519 L 6.460 2.540 6.192 2.631 C 5.444 2.885,4.817 3.552,4.594 4.330 L 4.500 4.660 4.500 12.000 C 4.500 18.945,4.504 19.354,4.572 19.593 C 4.838 20.528,5.449 21.148,6.380 21.425 C 6.604 21.491,6.964 21.497,11.700 21.510 C 14.980 21.519,16.925 21.509,17.189 21.483 C 18.296 21.372,19.103 20.699,19.425 19.620 C 19.492 19.395,19.497 19.018,19.510 13.720 C 19.518 10.607,19.513 7.997,19.499 7.920 C 19.478 7.800,19.100 7.405,16.887 5.186 C 15.394 3.689,14.246 2.568,14.171 2.536 C 14.100 2.505,14.010 2.484,13.971 2.489 C 13.932 2.495,12.226 2.508,10.180 2.519 M13.490 5.390 C 13.503 7.013,13.514 7.287,13.572 7.465 C 13.710 7.882,14.118 8.290,14.535 8.428 C 14.713 8.486,14.987 8.497,16.611 8.510 L 18.481 8.526 18.471 13.973 L 18.460 19.420 18.372 19.610 C 18.253 19.867,17.913 20.218,17.664 20.339 C 17.548 20.396,17.323 20.457,17.140 20.482 C 16.925 20.510,15.159 20.520,11.780 20.511 C 7.115 20.500,6.725 20.494,6.535 20.429 C 6.129 20.292,5.750 19.925,5.597 19.522 C 5.522 19.324,5.520 19.126,5.520 12.000 C 5.520 4.874,5.522 4.676,5.597 4.478 C 5.744 4.093,6.084 3.749,6.468 3.599 C 6.650 3.528,6.832 3.524,10.067 3.522 L 13.474 3.520 13.490 5.390 M17.760 7.490 C 17.760 7.533,15.091 7.525,14.900 7.481 C 14.804 7.459,14.696 7.395,14.630 7.321 L 14.520 7.199 14.520 5.710 L 14.520 4.220 16.140 5.840 C 17.031 6.731,17.760 7.473,17.760 7.490 M11.679 10.630 C 11.605 10.696,11.541 10.804,11.519 10.900 C 11.499 10.988,11.481 12.122,11.481 13.419 L 11.480 15.778 10.348 14.649 L 9.217 13.520 9.004 13.520 C 8.816 13.520,8.777 13.535,8.656 13.656 C 8.535 13.777,8.520 13.816,8.520 14.005 L 8.520 14.218 10.129 15.829 C 11.243 16.944,11.779 17.453,11.869 17.483 C 11.963 17.514,12.037 17.514,12.131 17.483 C 12.221 17.453,12.757 16.944,13.871 15.829 L 15.480 14.218 15.480 14.005 C 15.480 13.816,15.465 13.777,15.344 13.656 C 15.223 13.535,15.184 13.520,14.996 13.520 L 14.783 13.520 13.652 14.649 L 12.520 15.778 12.519 13.419 C 12.519 12.122,12.501 10.988,12.481 10.900 C 12.426 10.659,12.249 10.520,12.000 10.520 C 11.840 10.520,11.778 10.541,11.679 10.630 " stroke="none" fill="black" fill-rule="evenodd"></path></svg>