<svg xmlns="http://www.w3.org/2000/svg" class="icon icon-tabler icon-tabler-file-x" width="24" height="24" viewBox="0 0 24 24" stroke-width="1" stroke="currentColor" fill="none" stroke-linecap="round" stroke-linejoin="round"><path d="M10.180 2.519 L 6.460 2.540 6.192 2.631 C 5.444 2.885,4.817 3.552,4.594 4.330 L 4.500 4.660 4.500 12.000 C 4.500 18.945,4.504 19.354,4.572 19.593 C 4.838 20.528,5.449 21.148,6.380 21.425 C 6.604 21.491,6.964 21.497,11.700 21.510 C 14.980 21.519,16.925 21.509,17.189 21.483 C 18.296 21.372,19.103 20.699,19.425 19.620 C 19.492 19.395,19.497 19.018,19.510 13.720 C 19.518 10.607,19.513 7.997,19.499 7.920 C 19.478 7.800,19.100 7.405,16.887 5.186 C 15.394 3.689,14.246 2.568,14.171 2.536 C 14.100 2.505,14.010 2.484,13.971 2.489 C 13.932 2.495,12.226 2.508,10.180 2.519 M13.490 5.390 C 13.503 7.013,13.514 7.287,13.572 7.465 C 13.710 7.882,14.118 8.290,14.535 8.428 C 14.713 8.486,14.987 8.497,16.611 8.510 L 18.481 8.526 18.471 13.973 L 18.460 19.420 18.372 19.610 C 18.253 19.867,17.913 20.218,17.664 20.339 C 17.548 20.396,17.323 20.457,17.140 20.482 C 16.925 20.510,15.159 20.520,11.780 20.511 C 7.115 20.500,6.725 20.494,6.535 20.429 C 6.129 20.292,5.750 19.925,5.597 19.522 C 5.522 19.324,5.520 19.126,5.520 12.000 C 5.520 4.874,5.522 4.676,5.597 4.478 C 5.744 4.093,6.084 3.749,6.468 3.599 C 6.650 3.528,6.832 3.524,10.067 3.522 L 13.474 3.520 13.490 5.390 M17.760 7.490 C 17.760 7.533,15.091 7.525,14.900 7.481 C 14.804 7.459,14.696 7.395,14.630 7.321 L 14.520 7.199 14.520 5.710 L 14.520 4.220 16.140 5.840 C 17.031 6.731,17.760 7.473,17.760 7.490 M9.656 11.656 C 9.536 11.776,9.520 11.816,9.520 12.004 L 9.520 12.216 10.409 13.108 L 11.298 14.000 10.409 14.892 L 9.520 15.784 9.520 15.996 C 9.520 16.184,9.536 16.224,9.656 16.344 C 9.776 16.464,9.816 16.480,10.004 16.480 L 10.216 16.480 11.108 15.591 L 12.000 14.702 12.892 15.591 L 13.784 16.480 13.996 16.480 C 14.184 16.480,14.224 16.464,14.344 16.344 C 14.464 16.224,14.480 16.184,14.480 15.996 L 14.480 15.784 13.591 14.892 L 12.702 14.000 13.591 13.108 L 14.480 12.216 14.480 12.004 C 14.480 11.816,14.464 11.776,14.344 11.656 C 14.224 11.536,14.184 11.520,13.996 11.520 L 13.784 11.520 12.892 12.409 L 12.000 13.298 11.108 12.409 L 10.216 11.520 10.004 11.520 C 9.816 11.520,9.776 11.536,9.656 11.656 " stroke="none" fill="black" fill-rule="evenodd"></path></svg>