<svg xmlns="http://www.w3.org/2000/svg" class="icon icon-tabler icon-tabler-filter" width="24" height="24" viewBox="0 0 24 24" stroke-width="1" stroke="currentColor" fill="none" stroke-linecap="round" stroke-linejoin="round"><path d="M5.129 4.623 C 4.895 4.740,4.607 5.039,4.484 5.292 C 4.370 5.528,4.312 5.862,4.343 6.100 C 4.410 6.604,4.342 6.520,7.002 9.446 L 9.477 12.169 9.488 14.156 C 9.499 15.912,9.508 16.155,9.565 16.243 C 9.601 16.298,10.571 17.048,11.721 17.911 C 13.801 19.472,13.813 19.480,14.005 19.480 C 14.249 19.480,14.426 19.338,14.481 19.100 C 14.502 19.009,14.519 17.478,14.519 15.556 L 14.520 12.173 16.997 9.448 C 19.658 6.520,19.590 6.604,19.657 6.100 C 19.688 5.862,19.630 5.528,19.516 5.292 C 19.393 5.039,19.105 4.740,18.871 4.623 L 18.664 4.520 12.000 4.520 L 5.336 4.520 5.129 4.623 M18.552 5.630 C 18.659 5.782,18.690 5.901,18.660 6.040 C 18.642 6.122,17.866 7.003,16.132 8.909 C 14.756 10.422,13.601 11.704,13.565 11.758 C 13.507 11.846,13.498 12.174,13.480 14.911 L 13.460 17.965 11.992 16.864 L 10.524 15.762 10.512 13.809 C 10.501 12.083,10.492 11.845,10.435 11.758 C 10.399 11.704,9.243 10.421,7.866 8.907 C 5.949 6.799,5.357 6.125,5.339 6.027 C 5.313 5.888,5.368 5.701,5.469 5.590 C 5.529 5.524,5.889 5.520,12.003 5.520 L 18.475 5.520 18.552 5.630 " stroke="none" fill="black" fill-rule="evenodd"></path></svg>