<svg xmlns="http://www.w3.org/2000/svg" class="icon icon-tabler icon-tabler-fingerprint" width="24" height="24" viewBox="0 0 24 24" stroke-width="1" stroke="currentColor" fill="none" stroke-linecap="round" stroke-linejoin="round"><path d="M10.966 2.544 C 10.032 2.657,9.162 2.919,8.260 3.358 C 5.809 4.554,4.103 6.830,3.621 9.548 C 3.517 10.131,3.469 11.360,3.493 12.780 C 3.517 14.182,3.580 15.011,3.744 16.080 C 3.924 17.253,4.294 18.864,4.467 19.229 C 4.631 19.576,5.173 19.566,5.341 19.212 C 5.423 19.040,5.422 19.034,5.180 18.120 C 4.789 16.647,4.557 15.029,4.500 13.380 C 4.487 12.984,4.494 12.048,4.516 11.300 C 4.548 10.205,4.572 9.862,4.637 9.542 C 5.044 7.557,6.178 5.857,7.840 4.742 C 8.250 4.467,9.093 4.048,9.563 3.886 C 10.850 3.441,12.275 3.364,13.637 3.666 C 14.247 3.801,14.663 3.950,15.372 4.289 C 15.944 4.561,15.970 4.570,16.119 4.525 C 16.348 4.456,16.480 4.279,16.480 4.041 C 16.480 3.777,16.364 3.663,15.818 3.389 C 14.325 2.642,12.615 2.344,10.966 2.544 M11.145 6.582 C 9.084 6.992,7.520 8.832,7.520 10.848 C 7.520 11.204,7.521 11.209,7.656 11.344 C 7.776 11.464,7.817 11.480,8.000 11.480 C 8.182 11.480,8.225 11.463,8.340 11.348 C 8.451 11.237,8.476 11.177,8.496 10.978 C 8.587 10.053,8.720 9.625,9.084 9.080 C 9.520 8.429,10.165 7.932,10.910 7.676 C 11.294 7.543,11.310 7.541,12.000 7.541 C 12.687 7.541,12.707 7.543,13.080 7.672 C 13.634 7.863,14.037 8.117,14.460 8.540 C 14.886 8.966,15.140 9.372,15.324 9.920 L 15.452 10.300 15.486 11.520 C 15.519 12.758,15.580 13.434,15.720 14.120 C 15.984 15.414,16.511 16.674,17.263 17.807 C 17.665 18.413,17.739 18.480,18.009 18.480 C 18.182 18.480,18.226 18.462,18.344 18.344 C 18.460 18.228,18.480 18.181,18.480 18.018 C 18.480 17.847,18.447 17.780,18.136 17.317 C 17.417 16.244,16.934 15.088,16.685 13.840 C 16.558 13.205,16.521 12.775,16.519 11.940 C 16.518 10.989,16.466 10.309,16.364 9.913 C 15.922 8.195,14.557 6.908,12.830 6.580 C 12.435 6.506,11.526 6.506,11.145 6.582 M18.635 6.580 C 18.522 6.642,18.400 6.859,18.400 7.000 C 18.400 7.048,18.543 7.378,18.718 7.734 C 19.083 8.476,19.245 8.929,19.381 9.591 C 19.534 10.338,19.571 10.945,19.516 11.780 C 19.405 13.458,19.614 14.740,20.186 15.900 C 20.418 16.370,20.535 16.480,20.805 16.480 C 20.983 16.480,21.025 16.463,21.144 16.344 C 21.346 16.142,21.334 15.964,21.084 15.457 C 20.976 15.239,20.832 14.885,20.764 14.670 C 20.534 13.947,20.517 13.746,20.524 11.980 C 20.532 10.246,20.510 9.972,20.293 9.080 C 20.052 8.089,19.410 6.690,19.140 6.567 C 19.001 6.504,18.764 6.510,18.635 6.580 M11.660 10.652 C 11.552 10.760,11.522 10.828,11.498 11.022 C 11.453 11.380,11.512 13.847,11.582 14.508 C 11.826 16.839,12.622 19.067,13.901 21.002 C 14.166 21.402,14.264 21.480,14.504 21.480 C 14.704 21.480,14.858 21.386,14.939 21.216 C 15.043 20.998,14.998 20.845,14.688 20.366 C 13.605 18.695,12.951 16.963,12.637 14.940 C 12.561 14.455,12.547 14.145,12.525 12.620 C 12.507 11.330,12.487 10.837,12.450 10.773 C 12.353 10.604,12.201 10.520,11.991 10.520 C 11.819 10.520,11.774 10.538,11.660 10.652 M7.656 14.656 C 7.531 14.781,7.520 14.812,7.520 15.033 C 7.520 15.385,7.736 16.614,7.940 17.417 C 8.236 18.588,8.648 19.738,9.160 20.822 C 9.427 21.388,9.518 21.480,9.809 21.480 C 9.982 21.480,10.026 21.462,10.144 21.344 C 10.349 21.139,10.335 20.967,10.065 20.396 C 9.310 18.795,8.816 17.155,8.560 15.404 C 8.514 15.087,8.459 14.796,8.438 14.757 C 8.358 14.606,8.195 14.520,7.991 14.520 C 7.818 14.520,7.774 14.538,7.656 14.656 " stroke="none" fill="black" fill-rule="evenodd"></path></svg>