<svg xmlns="http://www.w3.org/2000/svg" class="icon icon-tabler icon-tabler-firetruck" width="24" height="24" viewBox="0 0 24 24" stroke-width="1" stroke="currentColor" fill="none" stroke-linecap="round" stroke-linejoin="round"><path d="M11.780 5.542 C 1.672 8.915,2.520 8.598,2.520 9.005 C 2.520 9.183,2.537 9.225,2.656 9.344 C 2.865 9.553,2.970 9.537,4.280 9.100 C 4.906 8.891,5.432 8.720,5.449 8.720 C 5.466 8.720,5.480 9.350,5.480 10.120 L 5.480 11.520 4.141 11.520 L 2.801 11.520 2.679 11.630 C 2.605 11.696,2.541 11.804,2.519 11.900 C 2.468 12.118,2.471 16.945,2.521 17.296 C 2.664 18.283,3.304 19.068,4.207 19.364 C 4.459 19.447,4.576 19.460,5.040 19.459 C 5.549 19.458,5.598 19.450,5.888 19.334 C 6.240 19.192,6.650 18.914,6.850 18.681 L 6.988 18.520 10.999 18.520 L 15.010 18.520 15.167 18.698 C 15.389 18.951,15.852 19.248,16.202 19.362 C 16.459 19.447,16.573 19.460,17.040 19.459 C 17.549 19.458,17.598 19.450,17.888 19.334 C 18.239 19.193,18.650 18.914,18.848 18.683 L 18.983 18.526 20.063 18.513 C 21.243 18.499,21.271 18.494,21.429 18.251 C 21.495 18.150,21.500 17.929,21.499 14.822 C 21.498 11.117,21.498 11.123,21.218 10.286 C 20.652 8.595,19.343 7.295,17.669 6.764 C 16.932 6.530,16.733 6.515,14.312 6.518 C 13.106 6.519,12.120 6.512,12.120 6.503 C 12.120 6.494,14.181 5.800,16.699 4.960 C 21.832 3.249,21.480 3.394,21.480 2.993 C 21.480 2.818,21.463 2.775,21.344 2.656 C 21.225 2.537,21.183 2.520,21.014 2.523 C 20.869 2.526,18.527 3.291,11.780 5.542 M11.571 6.748 C 11.505 6.848,11.499 7.035,11.488 9.188 L 11.477 11.520 8.998 11.520 L 6.519 11.520 6.530 9.933 L 6.540 8.347 9.080 7.496 C 10.477 7.029,11.625 6.645,11.631 6.643 C 11.637 6.641,11.610 6.689,11.571 6.748 M14.655 7.590 C 15.311 9.797,16.021 12.132,16.069 12.232 C 16.197 12.504,16.153 12.499,18.430 12.511 L 20.480 12.523 20.480 15.023 L 20.480 17.522 19.975 17.511 L 19.470 17.500 19.477 17.074 C 19.485 16.594,19.422 16.283,19.238 15.900 C 18.977 15.355,18.486 14.905,17.900 14.674 C 17.624 14.565,17.517 14.545,17.120 14.529 C 16.732 14.514,16.608 14.525,16.333 14.599 C 15.910 14.713,15.566 14.916,15.241 15.242 C 14.727 15.757,14.511 16.303,14.523 17.060 L 14.530 17.500 13.525 17.511 L 12.520 17.521 12.520 12.521 L 12.520 7.520 13.577 7.520 C 14.550 7.520,14.636 7.526,14.655 7.590 M17.088 7.633 C 18.314 7.961,19.288 8.702,19.908 9.780 C 20.176 10.246,20.408 10.920,20.446 11.340 L 20.460 11.500 18.672 11.510 L 16.884 11.521 16.764 11.130 C 16.698 10.916,16.434 10.038,16.177 9.180 C 15.920 8.322,15.700 7.595,15.689 7.565 C 15.655 7.477,16.692 7.528,17.088 7.633 M11.480 15.020 L 11.480 17.521 9.475 17.510 L 7.470 17.500 7.477 17.074 C 7.485 16.594,7.422 16.282,7.238 15.900 C 6.977 15.355,6.486 14.905,5.900 14.674 C 5.624 14.565,5.517 14.545,5.120 14.529 C 4.731 14.514,4.608 14.525,4.330 14.600 C 4.149 14.648,3.900 14.750,3.776 14.824 C 3.652 14.899,3.543 14.960,3.535 14.960 C 3.527 14.960,3.520 14.411,3.520 13.740 L 3.520 12.520 7.500 12.520 L 11.480 12.520 11.480 15.020 M5.641 15.649 C 5.924 15.787,6.213 16.076,6.351 16.359 C 6.449 16.557,6.460 16.624,6.460 17.000 C 6.460 17.348,6.445 17.453,6.372 17.610 C 6.250 17.875,5.912 18.218,5.644 18.350 C 5.443 18.449,5.377 18.460,5.000 18.460 C 4.624 18.460,4.557 18.449,4.359 18.351 C 4.076 18.213,3.787 17.924,3.649 17.641 C 3.499 17.337,3.474 16.802,3.593 16.488 C 3.743 16.094,4.077 15.753,4.468 15.597 C 4.766 15.478,5.345 15.503,5.641 15.649 M17.641 15.649 C 17.924 15.787,18.213 16.076,18.351 16.359 C 18.449 16.557,18.460 16.624,18.460 17.000 C 18.460 17.348,18.445 17.453,18.372 17.610 C 18.250 17.875,17.912 18.218,17.644 18.350 C 17.443 18.449,17.377 18.460,17.000 18.460 C 16.624 18.460,16.557 18.449,16.359 18.351 C 16.076 18.213,15.787 17.924,15.649 17.641 C 15.499 17.337,15.474 16.802,15.593 16.488 C 15.743 16.094,16.077 15.753,16.468 15.597 C 16.766 15.478,17.345 15.503,17.641 15.649 " stroke="none" fill="black" fill-rule="evenodd"></path></svg>