<svg xmlns="http://www.w3.org/2000/svg" class="icon icon-tabler icon-tabler-flag" width="24" height="24" viewBox="0 0 24 24" stroke-width="1" stroke="currentColor" fill="none" stroke-linecap="round" stroke-linejoin="round"><path d="M7.620 3.140 C 6.594 3.321,5.562 3.814,4.844 4.465 C 4.704 4.592,4.564 4.755,4.534 4.827 C 4.489 4.936,4.480 6.295,4.481 12.949 C 4.482 17.686,4.497 21.005,4.519 21.100 C 4.574 21.341,4.751 21.480,5.000 21.480 C 5.249 21.480,5.426 21.341,5.481 21.100 C 5.502 21.009,5.519 19.485,5.519 17.573 L 5.520 14.206 5.690 14.060 C 5.934 13.850,6.457 13.543,6.808 13.402 C 7.286 13.211,7.730 13.118,8.284 13.092 C 9.098 13.055,9.799 13.197,10.491 13.541 C 10.933 13.761,11.232 13.974,11.720 14.419 C 12.879 15.474,14.184 15.961,15.700 15.906 C 16.573 15.874,17.226 15.710,17.972 15.336 C 18.669 14.987,19.402 14.400,19.481 14.128 C 19.511 14.026,19.520 12.569,19.512 9.413 C 19.500 4.871,19.500 4.845,19.417 4.733 C 19.303 4.576,19.071 4.467,18.921 4.500 C 18.855 4.514,18.646 4.657,18.456 4.818 C 17.634 5.511,16.758 5.860,15.716 5.908 C 14.404 5.968,13.371 5.573,12.300 4.601 C 12.080 4.401,11.772 4.149,11.615 4.040 C 11.059 3.654,10.320 3.338,9.600 3.180 C 9.183 3.088,8.045 3.065,7.620 3.140 M9.247 4.139 C 9.716 4.221,10.081 4.339,10.494 4.543 C 10.933 4.760,11.232 4.974,11.720 5.419 C 12.190 5.846,12.621 6.139,13.163 6.397 C 14.756 7.156,16.668 7.085,18.214 6.212 C 18.342 6.139,18.455 6.080,18.464 6.080 C 18.473 6.080,18.480 7.816,18.480 9.937 L 18.480 13.794 18.295 13.952 C 17.893 14.295,17.167 14.650,16.560 14.801 C 16.122 14.909,15.326 14.948,14.880 14.882 C 13.899 14.739,13.137 14.360,12.300 13.601 C 11.622 12.985,11.007 12.613,10.260 12.365 C 9.694 12.177,9.345 12.116,8.699 12.092 C 7.709 12.055,6.956 12.216,6.080 12.651 C 5.805 12.787,5.566 12.905,5.550 12.913 C 5.534 12.920,5.520 11.190,5.520 9.066 L 5.520 5.206 5.690 5.060 C 6.054 4.748,6.699 4.409,7.218 4.259 C 7.841 4.078,8.631 4.031,9.247 4.139 " stroke="none" fill="black" fill-rule="evenodd"></path></svg>