<svg xmlns="http://www.w3.org/2000/svg" class="icon icon-tabler icon-tabler-flame" width="24" height="24" viewBox="0 0 24 24" stroke-width="1" stroke="currentColor" fill="none" stroke-linecap="round" stroke-linejoin="round"><path d="M10.701 2.607 C 10.492 2.771,10.476 2.877,10.568 3.501 C 10.677 4.243,10.686 5.375,10.586 5.918 C 10.435 6.746,10.110 7.490,9.607 8.160 C 9.483 8.325,8.804 9.045,8.099 9.760 C 6.732 11.145,6.560 11.356,6.181 12.116 C 5.442 13.596,5.309 15.414,5.823 17.005 C 6.559 19.280,8.545 20.997,10.907 21.401 C 11.537 21.509,12.463 21.509,13.093 21.401 C 15.807 20.937,17.941 18.794,18.406 16.066 C 18.478 15.642,18.486 15.468,18.469 14.700 C 18.446 13.709,18.385 13.366,18.141 12.861 C 17.891 12.343,17.640 12.141,17.340 12.217 C 17.284 12.231,16.967 12.513,16.629 12.851 C 15.710 13.770,14.878 14.352,14.300 14.481 C 13.531 14.652,12.844 14.005,13.037 13.292 C 13.085 13.113,13.146 13.028,13.675 12.411 C 15.340 10.469,15.652 8.370,14.589 6.259 C 14.001 5.090,12.894 3.838,11.486 2.748 C 11.223 2.544,11.172 2.520,11.001 2.520 C 10.866 2.520,10.779 2.545,10.701 2.607 M12.255 4.761 C 13.326 5.877,13.944 6.934,14.143 7.988 C 14.192 8.251,14.204 8.472,14.189 8.860 C 14.164 9.489,14.073 9.856,13.802 10.425 C 13.521 11.016,13.333 11.281,12.557 12.179 C 12.292 12.485,12.112 12.826,12.044 13.152 C 11.819 14.231,12.570 15.292,13.692 15.482 C 14.610 15.638,15.703 15.115,16.985 13.906 L 17.351 13.561 17.399 13.731 C 17.426 13.824,17.457 14.255,17.469 14.689 C 17.493 15.608,17.438 16.046,17.217 16.714 C 16.576 18.647,14.911 20.083,12.923 20.417 C 12.435 20.499,11.565 20.499,11.077 20.417 C 9.406 20.136,7.899 19.035,7.130 17.535 C 6.698 16.690,6.520 15.953,6.520 15.008 C 6.520 14.087,6.689 13.343,7.069 12.580 C 7.414 11.891,7.555 11.719,8.779 10.500 C 9.420 9.862,10.092 9.155,10.272 8.928 C 10.929 8.103,11.336 7.249,11.534 6.279 C 11.628 5.822,11.692 4.983,11.666 4.568 L 11.642 4.196 11.754 4.276 C 11.815 4.319,12.041 4.538,12.255 4.761 " stroke="none" fill="black" fill-rule="evenodd"></path></svg>