<svg xmlns="http://www.w3.org/2000/svg" class="icon icon-tabler icon-tabler-flask" width="24" height="24" viewBox="0 0 24 24" stroke-width="1" stroke="currentColor" fill="none" stroke-linecap="round" stroke-linejoin="round"><path d="M9.327 2.520 L 8.753 2.540 8.637 2.671 C 8.541 2.778,8.520 2.837,8.520 3.000 C 8.520 3.353,8.756 3.517,9.270 3.519 L 9.480 3.520 9.480 6.245 L 9.480 8.970 7.535 14.315 C 6.465 17.255,5.556 19.754,5.515 19.869 C 5.294 20.485,5.567 21.143,6.158 21.416 L 6.340 21.500 12.000 21.500 L 17.660 21.500 17.842 21.416 C 18.276 21.215,18.560 20.787,18.560 20.334 C 18.560 20.099,18.410 19.667,16.540 14.525 L 14.520 8.970 14.520 6.245 L 14.520 3.520 14.730 3.519 C 15.247 3.517,15.480 3.354,15.480 2.995 C 15.480 2.817,15.463 2.775,15.344 2.656 L 15.208 2.520 14.674 2.519 C 14.380 2.518,13.186 2.514,12.020 2.509 C 10.854 2.504,9.642 2.509,9.327 2.520 M13.480 6.020 L 13.480 8.520 12.000 8.520 L 10.520 8.520 10.520 6.020 L 10.520 3.520 12.000 3.520 L 13.480 3.520 13.480 6.020 M15.611 14.890 C 16.684 17.844,17.561 20.300,17.561 20.349 C 17.560 20.397,17.525 20.456,17.483 20.479 C 17.375 20.536,6.625 20.536,6.517 20.479 C 6.475 20.456,6.440 20.397,6.439 20.349 C 6.439 20.300,7.316 17.844,8.389 14.890 L 10.340 9.520 12.000 9.520 L 13.660 9.520 15.611 14.890 " stroke="none" fill="black" fill-rule="evenodd"></path></svg>