<svg xmlns="http://www.w3.org/2000/svg" class="icon icon-tabler icon-tabler-flip-horizontal" width="24" height="24" viewBox="0 0 24 24" stroke-width="1" stroke="currentColor" fill="none" stroke-linecap="round" stroke-linejoin="round"><path d="M6.660 2.652 C 6.554 2.758,6.522 2.828,6.501 3.002 C 6.487 3.122,6.481 4.328,6.488 5.682 C 6.501 8.393,6.488 8.259,6.749 8.429 C 6.850 8.496,7.157 8.501,11.818 8.512 C 14.547 8.519,16.878 8.512,16.998 8.498 C 17.172 8.477,17.242 8.446,17.348 8.340 C 17.462 8.226,17.480 8.181,17.480 8.009 C 17.480 7.868,17.456 7.780,17.395 7.703 C 17.335 7.627,15.818 6.849,12.235 5.058 C 6.584 2.232,6.931 2.381,6.660 2.652 M11.200 5.660 C 13.202 6.661,14.840 7.489,14.840 7.500 C 14.840 7.511,13.193 7.520,11.180 7.520 L 7.520 7.520 7.520 5.680 C 7.520 4.668,7.529 3.840,7.540 3.840 C 7.551 3.840,9.198 4.659,11.200 5.660 M2.656 11.656 C 2.537 11.775,2.520 11.817,2.520 11.995 C 2.520 12.250,2.657 12.425,2.900 12.481 C 3.114 12.531,20.886 12.531,21.100 12.481 C 21.343 12.425,21.480 12.250,21.480 11.995 C 21.480 11.817,21.463 11.775,21.344 11.656 L 21.208 11.520 12.000 11.520 L 2.792 11.520 2.656 11.656 M6.679 15.630 C 6.605 15.696,6.541 15.804,6.519 15.900 C 6.471 16.109,6.471 20.891,6.519 21.100 C 6.541 21.196,6.605 21.304,6.679 21.370 C 6.943 21.607,6.643 21.738,12.235 18.942 C 15.818 17.151,17.335 16.373,17.395 16.297 C 17.456 16.220,17.480 16.132,17.480 15.991 C 17.480 15.818,17.462 15.774,17.344 15.656 L 17.208 15.520 12.005 15.520 L 6.801 15.520 6.679 15.630 M11.200 18.340 C 9.209 19.339,7.566 20.157,7.550 20.158 C 7.534 20.159,7.520 19.341,7.520 18.340 L 7.520 16.520 11.170 16.522 L 14.820 16.524 11.200 18.340 " stroke="none" fill="black" fill-rule="evenodd"></path></svg>