<svg xmlns="http://www.w3.org/2000/svg" class="icon icon-tabler icon-tabler-flip-vertical" width="24" height="24" viewBox="0 0 24 24" stroke-width="1" stroke="currentColor" fill="none" stroke-linecap="round" stroke-linejoin="round"><path d="M11.679 2.630 C 11.605 2.696,11.541 2.804,11.519 2.900 C 11.469 3.114,11.469 20.886,11.519 21.100 C 11.574 21.341,11.751 21.480,12.000 21.480 C 12.249 21.480,12.426 21.341,12.481 21.100 C 12.531 20.886,12.531 3.114,12.481 2.900 C 12.426 2.659,12.249 2.520,12.000 2.520 C 11.840 2.520,11.778 2.541,11.679 2.630 M7.703 6.605 C 7.627 6.665,6.849 8.182,5.058 11.765 C 2.232 17.416,2.381 17.069,2.652 17.340 C 2.758 17.446,2.828 17.478,3.002 17.499 C 3.122 17.513,4.328 17.519,5.682 17.512 C 8.393 17.499,8.259 17.512,8.429 17.251 C 8.496 17.150,8.501 16.843,8.512 12.182 C 8.519 9.453,8.512 7.122,8.498 7.002 C 8.477 6.828,8.446 6.758,8.340 6.652 C 8.226 6.538,8.181 6.520,8.009 6.520 C 7.868 6.520,7.780 6.544,7.703 6.605 M15.660 6.652 C 15.554 6.758,15.523 6.828,15.502 7.002 C 15.488 7.122,15.481 9.453,15.488 12.182 C 15.499 16.843,15.504 17.150,15.571 17.251 C 15.741 17.512,15.607 17.499,18.318 17.512 C 19.672 17.519,20.878 17.513,20.998 17.499 C 21.172 17.478,21.242 17.446,21.348 17.340 C 21.619 17.069,21.768 17.416,18.942 11.765 C 17.151 8.182,16.373 6.665,16.297 6.605 C 16.220 6.544,16.132 6.520,15.991 6.520 C 15.819 6.520,15.774 6.538,15.660 6.652 M7.480 12.860 L 7.480 16.520 5.660 16.520 C 4.475 16.520,3.840 16.506,3.840 16.480 C 3.840 16.441,7.450 9.200,7.470 9.200 C 7.475 9.200,7.480 10.847,7.480 12.860 M20.158 16.470 C 20.160 16.509,19.771 16.520,18.340 16.520 L 16.520 16.520 16.522 12.850 L 16.524 9.180 18.340 12.800 C 19.339 14.791,20.157 16.442,20.158 16.470 " stroke="none" fill="black" fill-rule="evenodd"></path></svg>