<svg xmlns="http://www.w3.org/2000/svg" class="icon icon-tabler icon-tabler-float-center" width="24" height="24" viewBox="0 0 24 24" stroke-width="1" stroke="currentColor" fill="none" stroke-linecap="round" stroke-linejoin="round"><path d="M9.468 4.599 C 9.060 4.758,8.697 5.145,8.569 5.556 C 8.507 5.757,8.500 6.006,8.500 8.000 C 8.500 9.994,8.507 10.243,8.569 10.444 C 8.706 10.885,9.115 11.294,9.556 11.431 C 9.757 11.493,10.006 11.500,12.000 11.500 C 13.994 11.500,14.243 11.493,14.444 11.431 C 14.885 11.294,15.294 10.885,15.431 10.444 C 15.493 10.243,15.500 9.994,15.500 8.000 C 15.500 6.006,15.493 5.757,15.431 5.556 C 15.300 5.133,14.918 4.736,14.507 4.594 C 14.317 4.529,14.104 4.523,11.980 4.523 C 9.807 4.524,9.648 4.528,9.468 4.599 M14.344 5.656 L 14.480 5.792 14.480 7.995 L 14.480 10.199 14.370 10.321 C 14.304 10.395,14.196 10.459,14.100 10.481 C 14.012 10.501,13.067 10.518,12.000 10.518 C 10.933 10.518,9.988 10.501,9.900 10.481 C 9.804 10.459,9.696 10.395,9.630 10.321 L 9.520 10.199 9.520 7.995 L 9.520 5.792 9.656 5.656 L 9.792 5.520 12.000 5.520 L 14.208 5.520 14.344 5.656 M3.656 6.656 C 3.537 6.775,3.520 6.817,3.520 6.995 C 3.520 7.161,3.541 7.222,3.630 7.321 C 3.771 7.478,3.946 7.518,4.500 7.518 C 5.054 7.518,5.229 7.478,5.370 7.321 C 5.459 7.222,5.480 7.161,5.480 6.995 C 5.480 6.817,5.463 6.775,5.344 6.656 L 5.208 6.520 4.500 6.520 L 3.792 6.520 3.656 6.656 M18.656 6.656 C 18.537 6.775,18.520 6.817,18.520 6.995 C 18.520 7.161,18.541 7.222,18.630 7.321 C 18.771 7.478,18.946 7.518,19.500 7.518 C 20.054 7.518,20.229 7.478,20.370 7.321 C 20.459 7.222,20.480 7.161,20.480 6.995 C 20.480 6.817,20.463 6.775,20.344 6.656 L 20.208 6.520 19.500 6.520 L 18.792 6.520 18.656 6.656 M3.656 10.656 C 3.537 10.775,3.520 10.817,3.520 10.995 C 3.520 11.250,3.657 11.425,3.900 11.481 C 4.107 11.529,4.893 11.529,5.100 11.481 C 5.343 11.425,5.480 11.250,5.480 10.995 C 5.480 10.817,5.463 10.775,5.344 10.656 L 5.208 10.520 4.500 10.520 L 3.792 10.520 3.656 10.656 M18.656 10.656 C 18.537 10.775,18.520 10.817,18.520 10.995 C 18.520 11.250,18.657 11.425,18.900 11.481 C 19.107 11.529,19.893 11.529,20.100 11.481 C 20.343 11.425,20.480 11.250,20.480 10.995 C 20.480 10.817,20.463 10.775,20.344 10.656 L 20.208 10.520 19.500 10.520 L 18.792 10.520 18.656 10.656 M3.656 14.656 C 3.537 14.775,3.520 14.817,3.520 14.995 C 3.520 15.250,3.657 15.425,3.900 15.481 C 4.114 15.531,19.886 15.531,20.100 15.481 C 20.343 15.425,20.480 15.250,20.480 14.995 C 20.480 14.817,20.463 14.775,20.344 14.656 L 20.208 14.520 12.000 14.520 L 3.792 14.520 3.656 14.656 M3.656 18.656 C 3.537 18.775,3.520 18.817,3.520 18.995 C 3.520 19.250,3.657 19.425,3.900 19.481 C 4.114 19.531,19.886 19.531,20.100 19.481 C 20.343 19.425,20.480 19.250,20.480 18.995 C 20.480 18.817,20.463 18.775,20.344 18.656 L 20.208 18.520 12.000 18.520 L 3.792 18.520 3.656 18.656 " stroke="none" fill="black" fill-rule="evenodd"></path></svg>