<svg xmlns="http://www.w3.org/2000/svg" class="icon icon-tabler icon-tabler-float-left" width="24" height="24" viewBox="0 0 24 24" stroke-width="1" stroke="currentColor" fill="none" stroke-linecap="round" stroke-linejoin="round"><path d="M4.468 4.599 C 4.060 4.758,3.697 5.145,3.569 5.556 C 3.507 5.757,3.500 6.006,3.500 8.000 C 3.500 9.994,3.507 10.243,3.569 10.444 C 3.706 10.885,4.115 11.294,4.556 11.431 C 4.757 11.493,5.006 11.500,7.000 11.500 C 8.994 11.500,9.243 11.493,9.444 11.431 C 9.885 11.294,10.294 10.885,10.431 10.444 C 10.493 10.243,10.500 9.994,10.500 8.000 C 10.500 6.006,10.493 5.757,10.431 5.556 C 10.300 5.133,9.918 4.736,9.507 4.594 C 9.317 4.529,9.104 4.523,6.980 4.523 C 4.807 4.524,4.648 4.528,4.468 4.599 M9.344 5.656 L 9.480 5.792 9.480 7.995 L 9.480 10.199 9.370 10.321 C 9.304 10.395,9.196 10.459,9.100 10.481 C 9.012 10.501,8.067 10.518,7.000 10.518 C 5.933 10.518,4.988 10.501,4.900 10.481 C 4.804 10.459,4.696 10.395,4.630 10.321 L 4.520 10.199 4.520 7.995 L 4.520 5.792 4.656 5.656 L 4.792 5.520 7.000 5.520 L 9.208 5.520 9.344 5.656 M13.656 6.656 C 13.537 6.775,13.520 6.817,13.520 6.995 C 13.520 7.250,13.657 7.425,13.900 7.481 C 14.110 7.530,19.890 7.530,20.100 7.481 C 20.343 7.425,20.480 7.250,20.480 6.995 C 20.480 6.817,20.463 6.775,20.344 6.656 L 20.208 6.520 17.000 6.520 L 13.792 6.520 13.656 6.656 M13.656 10.656 C 13.537 10.775,13.520 10.817,13.520 10.995 C 13.520 11.250,13.657 11.425,13.900 11.481 C 14.110 11.530,19.890 11.530,20.100 11.481 C 20.343 11.425,20.480 11.250,20.480 10.995 C 20.480 10.817,20.463 10.775,20.344 10.656 L 20.208 10.520 17.000 10.520 L 13.792 10.520 13.656 10.656 M3.656 14.656 C 3.537 14.775,3.520 14.817,3.520 14.995 C 3.520 15.250,3.657 15.425,3.900 15.481 C 4.114 15.531,19.886 15.531,20.100 15.481 C 20.343 15.425,20.480 15.250,20.480 14.995 C 20.480 14.817,20.463 14.775,20.344 14.656 L 20.208 14.520 12.000 14.520 L 3.792 14.520 3.656 14.656 M3.656 18.656 C 3.537 18.775,3.520 18.817,3.520 18.995 C 3.520 19.250,3.657 19.425,3.900 19.481 C 4.114 19.531,19.886 19.531,20.100 19.481 C 20.343 19.425,20.480 19.250,20.480 18.995 C 20.480 18.817,20.463 18.775,20.344 18.656 L 20.208 18.520 12.000 18.520 L 3.792 18.520 3.656 18.656 " stroke="none" fill="black" fill-rule="evenodd"></path></svg>