<svg xmlns="http://www.w3.org/2000/svg" class="icon icon-tabler icon-tabler-float-right" width="24" height="24" viewBox="0 0 24 24" stroke-width="1" stroke="currentColor" fill="none" stroke-linecap="round" stroke-linejoin="round"><path d="M14.468 4.599 C 14.060 4.758,13.697 5.145,13.569 5.556 C 13.507 5.757,13.500 6.006,13.500 8.000 C 13.500 9.994,13.507 10.243,13.569 10.444 C 13.706 10.885,14.115 11.294,14.556 11.431 C 14.757 11.493,15.006 11.500,17.000 11.500 C 18.994 11.500,19.243 11.493,19.444 11.431 C 19.885 11.294,20.294 10.885,20.431 10.444 C 20.493 10.243,20.500 9.994,20.500 8.000 C 20.500 6.006,20.493 5.757,20.431 5.556 C 20.300 5.133,19.918 4.736,19.507 4.594 C 19.317 4.529,19.104 4.523,16.980 4.523 C 14.807 4.524,14.648 4.528,14.468 4.599 M19.344 5.656 L 19.480 5.792 19.480 7.995 L 19.480 10.199 19.370 10.321 C 19.304 10.395,19.196 10.459,19.100 10.481 C 19.012 10.501,18.067 10.518,17.000 10.518 C 15.933 10.518,14.988 10.501,14.900 10.481 C 14.804 10.459,14.696 10.395,14.630 10.321 L 14.520 10.199 14.520 7.995 L 14.520 5.792 14.656 5.656 L 14.792 5.520 17.000 5.520 L 19.208 5.520 19.344 5.656 M3.656 6.656 C 3.537 6.775,3.520 6.817,3.520 6.995 C 3.520 7.250,3.657 7.425,3.900 7.481 C 4.110 7.530,9.890 7.530,10.100 7.481 C 10.343 7.425,10.480 7.250,10.480 6.995 C 10.480 6.817,10.463 6.775,10.344 6.656 L 10.208 6.520 7.000 6.520 L 3.792 6.520 3.656 6.656 M3.656 10.656 C 3.537 10.775,3.520 10.817,3.520 10.995 C 3.520 11.250,3.657 11.425,3.900 11.481 C 4.110 11.530,9.890 11.530,10.100 11.481 C 10.343 11.425,10.480 11.250,10.480 10.995 C 10.480 10.817,10.463 10.775,10.344 10.656 L 10.208 10.520 7.000 10.520 L 3.792 10.520 3.656 10.656 M3.656 14.656 C 3.537 14.775,3.520 14.817,3.520 14.995 C 3.520 15.250,3.657 15.425,3.900 15.481 C 4.114 15.531,19.886 15.531,20.100 15.481 C 20.343 15.425,20.480 15.250,20.480 14.995 C 20.480 14.817,20.463 14.775,20.344 14.656 L 20.208 14.520 12.000 14.520 L 3.792 14.520 3.656 14.656 M3.656 18.656 C 3.537 18.775,3.520 18.817,3.520 18.995 C 3.520 19.250,3.657 19.425,3.900 19.481 C 4.114 19.531,19.886 19.531,20.100 19.481 C 20.343 19.425,20.480 19.250,20.480 18.995 C 20.480 18.817,20.463 18.775,20.344 18.656 L 20.208 18.520 12.000 18.520 L 3.792 18.520 3.656 18.656 " stroke="none" fill="black" fill-rule="evenodd"></path></svg>