<svg xmlns="http://www.w3.org/2000/svg" class="icon icon-tabler icon-tabler-focus-2" width="24" height="24" viewBox="0 0 24 24" stroke-width="1" stroke="currentColor" fill="none" stroke-linecap="round" stroke-linejoin="round"><path d="M11.679 2.630 C 11.509 2.782,11.482 2.941,11.481 3.785 L 11.480 4.510 11.110 4.557 C 10.207 4.672,9.398 4.920,8.601 5.325 C 6.362 6.464,4.864 8.614,4.555 11.132 L 4.507 11.520 3.650 11.520 L 2.792 11.520 2.656 11.656 C 2.537 11.775,2.520 11.817,2.520 11.995 C 2.520 12.161,2.541 12.222,2.630 12.321 C 2.782 12.491,2.941 12.518,3.785 12.519 L 4.510 12.520 4.557 12.890 C 4.672 13.796,4.921 14.607,5.326 15.400 C 6.469 17.635,8.596 19.123,11.110 19.443 L 11.480 19.490 11.481 20.215 C 11.482 21.059,11.509 21.218,11.679 21.370 C 11.853 21.527,12.147 21.527,12.321 21.370 C 12.491 21.218,12.518 21.059,12.519 20.215 L 12.520 19.490 12.910 19.443 C 16.311 19.036,19.004 16.335,19.443 12.890 L 19.490 12.520 20.215 12.519 C 21.059 12.518,21.218 12.491,21.370 12.321 C 21.459 12.222,21.480 12.161,21.480 11.995 C 21.480 11.817,21.463 11.775,21.344 11.656 L 21.208 11.520 20.350 11.520 L 19.493 11.520 19.445 11.132 C 19.239 9.455,18.516 7.943,17.355 6.759 C 16.160 5.541,14.576 4.756,12.910 4.557 L 12.520 4.510 12.519 3.785 C 12.518 2.941,12.491 2.782,12.321 2.630 C 12.222 2.541,12.160 2.520,12.000 2.520 C 11.840 2.520,11.778 2.541,11.679 2.630 M13.400 5.653 C 16.023 6.280,17.958 8.314,18.401 10.907 C 18.509 11.537,18.509 12.463,18.401 13.093 C 17.997 15.455,16.280 17.441,14.005 18.177 C 12.714 18.594,11.233 18.589,9.959 18.163 C 7.752 17.425,6.151 15.631,5.633 13.314 C 5.551 12.948,5.540 12.795,5.540 12.000 C 5.540 11.205,5.551 11.052,5.633 10.686 C 6.141 8.415,7.727 6.609,9.866 5.866 C 10.223 5.743,10.815 5.598,11.180 5.545 C 11.246 5.535,11.678 5.533,12.140 5.540 C 12.872 5.550,13.034 5.565,13.400 5.653 M11.650 11.067 C 11.299 11.191,11.000 11.621,11.000 12.000 C 11.000 12.359,11.246 12.739,11.582 12.898 C 11.961 13.079,12.409 12.997,12.703 12.695 C 13.442 11.935,12.651 10.712,11.650 11.067 " stroke="none" fill="black" fill-rule="evenodd"></path></svg>