<svg xmlns="http://www.w3.org/2000/svg" class="icon icon-tabler icon-tabler-folder-plus" width="24" height="24" viewBox="0 0 24 24" stroke-width="1" stroke="currentColor" fill="none" stroke-linecap="round" stroke-linejoin="round"><path d="M4.274 3.615 C 3.870 3.734,3.561 3.922,3.242 4.242 C 2.922 4.561,2.739 4.864,2.603 5.294 L 2.500 5.620 2.500 11.480 C 2.500 17.000,2.504 17.355,2.572 17.593 C 2.838 18.528,3.447 19.146,4.380 19.425 C 4.606 19.493,5.025 19.498,11.700 19.510 C 16.315 19.519,18.922 19.509,19.189 19.482 C 20.305 19.371,21.121 18.684,21.427 17.600 C 21.496 17.355,21.500 17.085,21.500 13.000 C 21.500 8.915,21.496 8.645,21.427 8.400 C 21.196 7.582,20.666 6.982,19.900 6.670 L 19.580 6.540 15.900 6.529 L 12.220 6.518 10.719 5.019 L 9.218 3.520 6.899 3.522 C 4.609 3.524,4.576 3.525,4.274 3.615 M10.260 5.962 C 11.052 6.756,11.736 7.426,11.780 7.452 C 11.840 7.488,12.824 7.505,15.640 7.520 L 19.420 7.540 19.641 7.649 C 19.924 7.787,20.213 8.076,20.351 8.359 L 20.460 8.580 20.460 13.000 L 20.460 17.420 20.350 17.644 C 20.220 17.909,19.874 18.252,19.626 18.362 C 19.530 18.404,19.327 18.457,19.176 18.479 C 18.799 18.533,5.201 18.533,4.820 18.478 C 4.666 18.456,4.449 18.394,4.339 18.341 C 4.075 18.212,3.784 17.918,3.649 17.641 L 3.540 17.420 3.530 11.551 C 3.519 5.833,3.521 5.678,3.597 5.479 C 3.744 5.093,4.084 4.749,4.468 4.599 C 4.647 4.529,4.803 4.524,6.740 4.522 L 8.820 4.520 10.260 5.962 M11.679 9.630 C 11.605 9.696,11.541 9.804,11.519 9.900 C 11.499 9.988,11.481 10.614,11.481 11.290 L 11.480 12.520 10.136 12.520 L 8.792 12.520 8.656 12.656 C 8.537 12.775,8.520 12.817,8.520 12.995 C 8.520 13.250,8.657 13.425,8.900 13.481 C 8.988 13.501,9.604 13.519,10.270 13.519 L 11.480 13.520 11.481 14.730 C 11.481 15.396,11.499 16.012,11.519 16.100 C 11.574 16.341,11.751 16.480,12.000 16.480 C 12.249 16.480,12.426 16.341,12.481 16.100 C 12.501 16.012,12.519 15.396,12.519 14.730 L 12.520 13.520 13.730 13.519 C 14.396 13.519,15.012 13.501,15.100 13.481 C 15.343 13.425,15.480 13.250,15.480 12.995 C 15.480 12.817,15.463 12.775,15.344 12.656 L 15.208 12.520 13.864 12.520 L 12.520 12.520 12.519 11.290 C 12.519 10.614,12.501 9.988,12.481 9.900 C 12.426 9.659,12.249 9.520,12.000 9.520 C 11.840 9.520,11.778 9.541,11.679 9.630 " stroke="none" fill="black" fill-rule="evenodd"></path></svg>