<svg xmlns="http://www.w3.org/2000/svg" class="icon icon-tabler icon-tabler-folders" width="24" height="24" viewBox="0 0 24 24" stroke-width="1" stroke="currentColor" fill="none" stroke-linecap="round" stroke-linejoin="round"><path d="M8.274 3.615 C 7.870 3.734,7.561 3.922,7.242 4.242 C 6.918 4.566,6.735 4.870,6.609 5.294 C 6.522 5.586,6.510 5.719,6.490 6.570 L 6.469 7.520 5.539 7.520 C 4.685 7.520,4.583 7.528,4.288 7.613 C 3.872 7.733,3.566 7.917,3.242 8.242 C 2.922 8.561,2.739 8.864,2.603 9.294 L 2.500 9.620 2.500 14.480 C 2.500 19.038,2.504 19.356,2.572 19.593 C 2.838 20.528,3.449 21.148,4.380 21.425 C 4.604 21.491,4.964 21.497,9.700 21.510 C 12.980 21.519,14.925 21.509,15.189 21.483 C 16.297 21.372,17.130 20.676,17.419 19.620 C 17.467 19.445,17.491 19.128,17.508 18.450 L 17.531 17.520 18.196 17.519 C 18.561 17.519,19.027 17.501,19.231 17.480 C 20.308 17.366,21.127 16.666,21.427 15.600 C 21.495 15.356,21.500 15.101,21.500 11.500 C 21.500 7.899,21.495 7.644,21.427 7.400 C 21.196 6.582,20.666 5.982,19.900 5.670 L 19.580 5.540 16.900 5.529 L 14.220 5.518 13.218 4.519 L 12.216 3.520 10.398 3.522 C 8.629 3.524,8.572 3.527,8.274 3.615 M12.760 5.463 C 13.277 5.981,13.736 6.426,13.780 6.453 C 13.839 6.487,14.598 6.505,16.640 6.520 L 19.420 6.540 19.641 6.649 C 19.924 6.787,20.213 7.076,20.351 7.359 L 20.460 7.580 20.460 11.500 L 20.460 15.420 20.372 15.610 C 20.253 15.867,19.913 16.218,19.664 16.339 C 19.546 16.397,19.325 16.457,19.140 16.481 C 18.930 16.508,17.089 16.518,13.780 16.511 C 9.106 16.500,8.725 16.495,8.535 16.430 C 8.129 16.291,7.750 15.925,7.597 15.522 C 7.523 15.326,7.520 15.159,7.520 10.500 C 7.520 5.841,7.523 5.674,7.597 5.478 C 7.744 5.093,8.084 4.749,8.468 4.599 C 8.644 4.530,8.792 4.524,10.240 4.522 L 11.821 4.520 12.760 5.463 M6.490 11.950 C 6.504 15.067,6.512 15.401,6.575 15.614 C 6.851 16.541,7.460 17.152,8.380 17.424 C 8.601 17.490,8.930 17.496,12.553 17.510 L 16.485 17.524 16.473 18.472 C 16.458 19.569,16.441 19.634,16.077 20.020 C 15.814 20.297,15.550 20.427,15.140 20.482 C 14.925 20.510,13.159 20.520,9.780 20.511 C 5.115 20.500,4.725 20.494,4.535 20.429 C 4.129 20.292,3.750 19.925,3.597 19.522 C 3.523 19.326,3.520 19.159,3.520 14.500 C 3.520 9.841,3.523 9.674,3.597 9.478 C 3.744 9.093,4.084 8.749,4.468 8.599 C 4.635 8.533,4.778 8.523,5.568 8.522 L 6.476 8.520 6.490 11.950 " stroke="none" fill="black" fill-rule="evenodd"></path></svg>