<svg xmlns="http://www.w3.org/2000/svg" class="icon icon-tabler icon-tabler-folder-x" width="24" height="24" viewBox="0 0 24 24" stroke-width="1" stroke="currentColor" fill="none" stroke-linecap="round" stroke-linejoin="round"><path d="M4.274 3.615 C 3.870 3.734,3.561 3.922,3.242 4.242 C 2.922 4.561,2.739 4.864,2.603 5.294 L 2.500 5.620 2.500 11.480 C 2.500 17.000,2.504 17.355,2.572 17.593 C 2.838 18.528,3.447 19.146,4.380 19.425 C 4.606 19.493,5.025 19.498,11.700 19.510 C 16.315 19.519,18.922 19.509,19.189 19.482 C 20.305 19.371,21.121 18.684,21.427 17.600 C 21.496 17.355,21.500 17.085,21.500 13.000 C 21.500 8.915,21.496 8.645,21.427 8.400 C 21.196 7.582,20.666 6.982,19.900 6.670 L 19.580 6.540 15.900 6.529 L 12.220 6.518 10.719 5.019 L 9.218 3.520 6.899 3.522 C 4.609 3.524,4.576 3.525,4.274 3.615 M10.260 5.962 C 11.052 6.756,11.736 7.426,11.780 7.452 C 11.840 7.488,12.824 7.505,15.640 7.520 L 19.420 7.540 19.641 7.649 C 19.924 7.787,20.213 8.076,20.351 8.359 L 20.460 8.580 20.460 13.000 L 20.460 17.420 20.350 17.644 C 20.220 17.909,19.874 18.252,19.626 18.362 C 19.530 18.404,19.327 18.457,19.176 18.479 C 18.799 18.533,5.201 18.533,4.820 18.478 C 4.666 18.456,4.449 18.394,4.339 18.341 C 4.075 18.212,3.784 17.918,3.649 17.641 L 3.540 17.420 3.530 11.551 C 3.519 5.833,3.521 5.678,3.597 5.479 C 3.744 5.093,4.084 4.749,4.468 4.599 C 4.647 4.529,4.803 4.524,6.740 4.522 L 8.820 4.520 10.260 5.962 M9.656 10.656 C 9.536 10.776,9.520 10.816,9.520 11.004 L 9.520 11.216 10.409 12.108 L 11.298 13.000 10.409 13.892 L 9.520 14.784 9.520 14.996 C 9.520 15.184,9.536 15.224,9.656 15.344 C 9.776 15.464,9.816 15.480,10.004 15.480 L 10.216 15.480 11.108 14.591 L 12.000 13.702 12.892 14.591 L 13.784 15.480 13.996 15.480 C 14.184 15.480,14.224 15.464,14.344 15.344 C 14.464 15.224,14.480 15.184,14.480 14.996 L 14.480 14.784 13.591 13.892 L 12.702 13.000 13.591 12.108 L 14.480 11.216 14.480 11.004 C 14.480 10.816,14.464 10.776,14.344 10.656 C 14.224 10.536,14.184 10.520,13.996 10.520 L 13.784 10.520 12.892 11.409 L 12.000 12.298 11.108 11.409 L 10.216 10.520 10.004 10.520 C 9.816 10.520,9.776 10.536,9.656 10.656 " stroke="none" fill="black" fill-rule="evenodd"></path></svg>