<svg xmlns="http://www.w3.org/2000/svg" class="icon icon-tabler icon-tabler-forklift" width="24" height="24" viewBox="0 0 24 24" stroke-width="1" stroke="currentColor" fill="none" stroke-linecap="round" stroke-linejoin="round"><path d="M8.679 4.630 C 8.509 4.782,8.482 4.941,8.481 5.790 L 8.480 6.520 6.641 6.520 L 4.801 6.520 4.679 6.630 C 4.605 6.696,4.541 6.804,4.519 6.900 C 4.499 6.988,4.481 7.838,4.481 8.790 L 4.480 10.520 3.641 10.520 L 2.801 10.520 2.679 10.630 C 2.605 10.696,2.541 10.804,2.519 10.900 C 2.468 11.120,2.470 16.943,2.521 17.296 C 2.664 18.283,3.304 19.068,4.207 19.364 C 4.459 19.447,4.576 19.460,5.040 19.459 C 5.549 19.458,5.598 19.450,5.888 19.334 C 6.601 19.048,7.139 18.488,7.359 17.803 L 7.450 17.520 9.500 17.520 L 11.550 17.520 11.643 17.808 C 11.871 18.518,12.483 19.127,13.207 19.364 C 13.459 19.447,13.576 19.460,14.040 19.459 C 14.553 19.457,14.596 19.451,14.900 19.328 C 15.655 19.025,16.188 18.428,16.423 17.620 C 16.485 17.410,16.495 17.140,16.509 15.450 L 16.525 13.520 17.499 13.520 L 18.473 13.520 18.486 14.332 C 18.507 15.576,18.382 15.496,20.318 15.513 C 22.069 15.528,22.168 15.520,22.348 15.340 C 22.463 15.225,22.480 15.182,22.480 15.000 C 22.480 14.817,22.464 14.776,22.344 14.656 L 22.208 14.520 20.864 14.520 L 19.520 14.520 19.519 9.790 C 19.518 7.046,19.503 4.993,19.481 4.900 C 19.426 4.659,19.249 4.520,19.000 4.520 C 18.751 4.520,18.574 4.659,18.519 4.900 C 18.498 4.992,18.482 6.657,18.481 8.790 L 18.480 12.520 17.500 12.520 L 16.520 12.520 16.520 11.721 L 16.520 10.922 14.963 7.806 C 13.875 5.629,13.373 4.664,13.297 4.605 C 13.190 4.521,13.172 4.520,10.995 4.520 L 8.801 4.520 8.679 4.630 M13.930 7.980 C 14.607 9.333,15.160 10.458,15.160 10.480 C 15.160 10.506,14.189 10.520,12.340 10.520 L 9.520 10.520 9.520 8.020 L 9.520 5.520 11.110 5.520 L 12.700 5.520 13.930 7.980 M8.480 9.020 L 8.480 10.520 7.000 10.520 L 5.520 10.520 5.520 9.020 L 5.520 7.520 7.000 7.520 L 8.480 7.520 8.480 9.020 M15.480 13.240 C 15.480 14.186,15.471 14.960,15.459 14.960 C 15.448 14.960,15.371 14.916,15.289 14.862 C 14.969 14.651,14.613 14.549,14.120 14.529 C 13.730 14.514,13.609 14.525,13.330 14.600 C 12.552 14.810,11.902 15.422,11.642 16.189 L 11.536 16.500 9.507 16.510 L 7.479 16.521 7.444 16.430 C 7.424 16.381,7.362 16.214,7.305 16.060 C 7.085 15.469,6.529 14.921,5.900 14.673 C 5.625 14.565,5.516 14.545,5.120 14.529 C 4.731 14.514,4.608 14.525,4.330 14.600 C 4.149 14.648,3.900 14.750,3.776 14.824 C 3.652 14.899,3.543 14.960,3.535 14.960 C 3.527 14.960,3.520 14.186,3.520 13.240 L 3.520 11.520 9.500 11.520 L 15.480 11.520 15.480 13.240 M5.641 15.649 C 5.924 15.787,6.213 16.076,6.351 16.359 C 6.449 16.557,6.460 16.624,6.460 17.000 C 6.460 17.348,6.445 17.453,6.372 17.610 C 6.250 17.875,5.912 18.218,5.644 18.350 C 5.443 18.449,5.377 18.460,5.000 18.460 C 4.624 18.460,4.557 18.449,4.359 18.351 C 4.076 18.213,3.787 17.924,3.649 17.641 C 3.499 17.337,3.474 16.802,3.593 16.488 C 3.743 16.094,4.077 15.753,4.468 15.597 C 4.766 15.478,5.345 15.503,5.641 15.649 M14.641 15.649 C 14.924 15.787,15.213 16.076,15.351 16.359 C 15.449 16.557,15.460 16.624,15.460 17.000 C 15.460 17.348,15.445 17.453,15.372 17.610 C 15.250 17.875,14.912 18.218,14.644 18.350 C 14.443 18.449,14.377 18.460,14.000 18.460 C 13.624 18.460,13.557 18.449,13.359 18.351 C 13.076 18.213,12.787 17.924,12.649 17.641 C 12.499 17.337,12.474 16.802,12.593 16.488 C 12.743 16.094,13.077 15.753,13.468 15.597 C 13.766 15.478,14.345 15.503,14.641 15.649 " stroke="none" fill="black" fill-rule="evenodd"></path></svg>