<svg xmlns="http://www.w3.org/2000/svg" class="icon icon-tabler icon-tabler-friends" width="24" height="24" viewBox="0 0 24 24" stroke-width="1" stroke="currentColor" fill="none" stroke-linecap="round" stroke-linejoin="round"><path d="M6.274 2.613 C 5.869 2.736,5.560 2.923,5.242 3.241 C 4.718 3.764,4.500 4.331,4.528 5.098 C 4.541 5.446,4.567 5.603,4.652 5.839 C 4.908 6.557,5.492 7.130,6.207 7.364 C 6.459 7.447,6.576 7.460,7.040 7.459 C 7.553 7.457,7.596 7.451,7.900 7.328 C 8.882 6.933,9.480 6.053,9.480 5.000 C 9.480 3.947,8.879 3.061,7.900 2.673 C 7.612 2.559,7.530 2.545,7.080 2.533 C 6.647 2.521,6.539 2.532,6.274 2.613 M16.274 2.613 C 15.869 2.736,15.560 2.923,15.242 3.241 C 14.718 3.764,14.500 4.331,14.528 5.098 C 14.541 5.446,14.567 5.603,14.652 5.839 C 14.908 6.557,15.492 7.130,16.207 7.364 C 16.459 7.447,16.576 7.460,17.040 7.459 C 17.553 7.457,17.596 7.451,17.900 7.328 C 18.882 6.933,19.480 6.053,19.480 5.000 C 19.480 3.947,18.879 3.061,17.900 2.673 C 17.612 2.559,17.530 2.545,17.080 2.533 C 16.647 2.521,16.539 2.532,16.274 2.613 M7.641 3.649 C 7.924 3.787,8.213 4.076,8.351 4.359 C 8.449 4.557,8.460 4.624,8.460 5.000 C 8.460 5.348,8.445 5.453,8.372 5.610 C 8.250 5.875,7.912 6.218,7.644 6.350 C 7.443 6.449,7.377 6.460,7.000 6.460 C 6.624 6.460,6.557 6.449,6.359 6.351 C 6.076 6.213,5.787 5.924,5.649 5.641 C 5.499 5.337,5.474 4.802,5.593 4.488 C 5.743 4.094,6.077 3.753,6.468 3.597 C 6.766 3.478,7.345 3.503,7.641 3.649 M17.641 3.649 C 17.924 3.787,18.213 4.076,18.351 4.359 C 18.449 4.557,18.460 4.624,18.460 5.000 C 18.460 5.348,18.445 5.453,18.372 5.610 C 18.250 5.875,17.912 6.218,17.644 6.350 C 17.443 6.449,17.377 6.460,17.000 6.460 C 16.624 6.460,16.557 6.449,16.359 6.351 C 16.076 6.213,15.787 5.924,15.649 5.641 C 15.499 5.337,15.474 4.802,15.593 4.488 C 15.743 4.094,16.077 3.753,16.468 3.597 C 16.766 3.478,17.345 3.503,17.641 3.649 M4.468 10.599 C 4.071 10.754,3.704 11.137,3.572 11.535 C 3.513 11.714,3.502 11.993,3.489 13.760 C 3.481 14.871,3.486 15.879,3.501 16.000 C 3.527 16.216,3.536 16.228,4.004 16.702 L 4.480 17.184 4.481 19.562 C 4.481 20.870,4.499 22.012,4.519 22.100 C 4.574 22.341,4.751 22.480,5.000 22.480 C 5.249 22.480,5.426 22.341,5.481 22.100 C 5.529 21.893,5.530 17.109,5.482 16.903 C 5.453 16.778,5.351 16.652,4.983 16.283 L 4.520 15.819 4.520 13.805 L 4.520 11.792 4.656 11.656 L 4.792 11.520 7.000 11.520 L 9.208 11.520 9.344 11.656 L 9.480 11.792 9.480 13.805 L 9.480 15.819 9.017 16.283 C 8.649 16.652,8.547 16.778,8.518 16.903 C 8.470 17.109,8.471 21.893,8.519 22.100 C 8.574 22.341,8.751 22.480,9.000 22.480 C 9.249 22.480,9.426 22.341,9.481 22.100 C 9.501 22.012,9.519 20.870,9.519 19.562 L 9.520 17.184 9.996 16.702 C 10.464 16.228,10.473 16.216,10.499 16.000 C 10.514 15.879,10.519 14.871,10.511 13.760 C 10.498 11.993,10.487 11.714,10.428 11.535 C 10.292 11.125,9.908 10.733,9.507 10.594 C 9.317 10.529,9.104 10.523,6.980 10.523 C 4.807 10.524,4.648 10.528,4.468 10.599 M15.468 10.598 C 14.986 10.789,14.648 11.192,14.540 11.706 C 14.508 11.857,14.040 13.303,13.501 14.920 C 12.836 16.913,12.520 17.914,12.520 18.029 C 12.520 18.247,12.672 18.429,12.900 18.481 C 12.988 18.501,13.380 18.519,13.770 18.519 L 14.480 18.520 14.481 20.230 C 14.481 21.171,14.499 22.012,14.519 22.100 C 14.574 22.341,14.751 22.480,15.000 22.480 C 15.249 22.480,15.426 22.341,15.481 22.100 C 15.529 21.891,15.529 18.109,15.481 17.900 C 15.459 17.804,15.395 17.696,15.321 17.630 L 15.199 17.520 14.459 17.520 C 13.892 17.520,13.720 17.508,13.720 17.470 C 13.720 17.442,14.115 16.234,14.598 14.785 C 15.081 13.337,15.489 12.068,15.504 11.966 C 15.524 11.832,15.569 11.743,15.662 11.650 L 15.792 11.520 17.000 11.520 L 18.208 11.520 18.338 11.650 C 18.431 11.743,18.476 11.832,18.496 11.966 C 18.511 12.068,18.919 13.337,19.402 14.785 C 19.885 16.234,20.280 17.442,20.280 17.470 C 20.280 17.508,20.108 17.520,19.541 17.520 L 18.801 17.520 18.679 17.630 C 18.605 17.696,18.541 17.804,18.519 17.900 C 18.471 18.109,18.471 21.891,18.519 22.100 C 18.574 22.341,18.751 22.480,19.000 22.480 C 19.249 22.480,19.426 22.341,19.481 22.100 C 19.501 22.012,19.519 21.171,19.519 20.230 L 19.520 18.520 20.230 18.519 C 20.621 18.519,21.012 18.501,21.100 18.481 C 21.328 18.429,21.480 18.247,21.480 18.029 C 21.480 17.914,21.164 16.913,20.499 14.920 C 19.960 13.303,19.492 11.857,19.460 11.706 C 19.362 11.238,19.067 10.858,18.640 10.648 L 18.420 10.540 17.040 10.531 C 15.765 10.522,15.645 10.528,15.468 10.598 " stroke="none" fill="black" fill-rule="evenodd"></path></svg>