<svg xmlns="http://www.w3.org/2000/svg" class="icon icon-tabler icon-tabler-ghost" width="24" height="24" viewBox="0 0 24 24" stroke-width="1" stroke="currentColor" fill="none" stroke-linecap="round" stroke-linejoin="round"><path d="M10.900 3.583 C 7.891 4.044,5.468 6.245,4.722 9.195 C 4.508 10.040,4.508 10.046,4.491 14.360 C 4.473 18.801,4.467 18.689,4.724 19.230 C 4.972 19.752,5.558 20.237,6.160 20.417 C 6.514 20.523,7.088 20.506,7.467 20.379 C 7.846 20.252,8.265 19.980,8.487 19.717 C 8.723 19.437,9.050 19.280,9.396 19.280 C 9.775 19.281,9.997 19.397,10.406 19.808 C 10.910 20.314,11.371 20.520,12.000 20.520 C 12.629 20.520,13.090 20.314,13.594 19.808 C 14.003 19.397,14.225 19.281,14.604 19.280 C 14.949 19.280,15.277 19.437,15.511 19.714 C 15.735 19.980,16.159 20.256,16.532 20.380 C 16.913 20.506,17.488 20.522,17.840 20.417 C 18.438 20.238,19.018 19.758,19.273 19.231 C 19.533 18.697,19.527 18.807,19.509 14.360 C 19.495 10.794,19.485 10.293,19.424 9.920 C 19.207 8.599,18.746 7.502,17.981 6.487 C 16.793 4.911,15.014 3.856,13.076 3.581 C 12.556 3.507,11.390 3.508,10.900 3.583 M13.400 4.653 C 15.689 5.201,17.475 6.824,18.177 8.995 C 18.481 9.936,18.476 9.846,18.482 14.448 L 18.488 18.549 18.383 18.771 C 18.182 19.196,17.730 19.485,17.264 19.487 C 16.840 19.490,16.645 19.399,16.226 19.006 C 15.665 18.479,15.220 18.280,14.600 18.280 C 13.971 18.280,13.510 18.486,13.006 18.992 C 12.598 19.402,12.375 19.519,12.000 19.519 C 11.625 19.519,11.402 19.402,10.994 18.992 C 10.490 18.486,10.029 18.280,9.400 18.280 C 8.780 18.280,8.335 18.479,7.774 19.006 C 7.355 19.399,7.160 19.490,6.738 19.487 C 6.257 19.485,5.789 19.177,5.593 18.733 C 5.514 18.554,5.512 18.475,5.518 14.466 C 5.521 12.032,5.539 10.267,5.563 10.100 C 5.853 8.034,7.178 6.173,9.031 5.227 C 9.547 4.963,10.133 4.754,10.666 4.644 C 11.238 4.525,11.224 4.526,12.140 4.540 C 12.872 4.550,13.034 4.565,13.400 4.653 M9.656 9.656 C 9.536 9.776,9.520 9.817,9.520 10.000 C 9.520 10.183,9.536 10.224,9.656 10.344 C 9.775 10.463,9.818 10.480,9.993 10.480 C 10.150 10.480,10.220 10.458,10.314 10.379 C 10.477 10.242,10.540 10.043,10.480 9.861 C 10.408 9.643,10.233 9.520,9.993 9.520 C 9.818 9.520,9.775 9.537,9.656 9.656 M13.656 9.656 C 13.536 9.776,13.520 9.817,13.520 10.000 C 13.520 10.183,13.536 10.224,13.656 10.344 C 13.775 10.463,13.818 10.480,13.993 10.480 C 14.233 10.480,14.408 10.357,14.480 10.139 C 14.540 9.957,14.477 9.758,14.314 9.621 C 14.220 9.542,14.150 9.520,13.993 9.520 C 13.818 9.520,13.775 9.537,13.656 9.656 M9.656 13.656 C 9.537 13.775,9.520 13.818,9.520 13.993 C 9.520 14.251,9.612 14.364,10.007 14.590 C 11.236 15.293,12.764 15.293,13.993 14.590 C 14.388 14.364,14.480 14.251,14.480 13.993 C 14.480 13.818,14.463 13.775,14.344 13.656 C 14.146 13.458,13.928 13.464,13.571 13.680 C 13.079 13.976,12.570 14.119,12.000 14.119 C 11.430 14.119,10.921 13.976,10.429 13.680 C 10.072 13.464,9.854 13.458,9.656 13.656 " stroke="none" fill="black" fill-rule="evenodd"></path></svg>