<svg xmlns="http://www.w3.org/2000/svg" class="icon icon-tabler icon-tabler-gift" width="24" height="24" viewBox="0 0 24 24" stroke-width="1" stroke="currentColor" fill="none" stroke-linecap="round" stroke-linejoin="round"><path d="M6.780 2.584 C 6.447 2.664,5.863 2.963,5.599 3.189 C 5.106 3.611,4.714 4.232,4.582 4.800 C 4.503 5.139,4.503 5.863,4.582 6.200 C 4.656 6.514,4.901 7.031,5.097 7.288 C 5.175 7.391,5.240 7.484,5.240 7.495 C 5.240 7.506,4.867 7.521,4.410 7.528 C 3.600 7.540,3.575 7.543,3.359 7.649 C 3.083 7.784,2.788 8.075,2.659 8.339 C 2.507 8.650,2.469 9.077,2.490 10.233 C 2.505 11.036,2.523 11.305,2.574 11.465 C 2.708 11.881,3.127 12.300,3.531 12.420 C 3.641 12.452,3.899 12.491,4.104 12.505 L 4.476 12.531 4.490 15.956 C 4.504 19.067,4.512 19.401,4.575 19.614 C 4.851 20.541,5.458 21.150,6.380 21.425 C 6.604 21.491,6.964 21.497,11.700 21.510 C 14.980 21.519,16.925 21.509,17.189 21.483 C 18.296 21.372,19.107 20.695,19.424 19.620 C 19.489 19.401,19.496 19.085,19.510 15.956 L 19.524 12.531 19.896 12.505 C 20.101 12.491,20.359 12.452,20.469 12.420 C 20.873 12.300,21.292 11.881,21.426 11.465 C 21.477 11.305,21.495 11.036,21.510 10.233 C 21.531 9.077,21.493 8.650,21.341 8.339 C 21.212 8.075,20.917 7.784,20.641 7.649 C 20.425 7.543,20.400 7.540,19.590 7.527 C 19.133 7.520,18.760 7.505,18.760 7.495 C 18.760 7.484,18.825 7.391,18.903 7.288 C 19.095 7.038,19.337 6.522,19.416 6.197 C 19.500 5.854,19.500 5.148,19.417 4.803 C 19.328 4.434,19.038 3.863,18.795 3.580 C 18.375 3.092,17.779 2.719,17.196 2.582 C 16.815 2.492,16.061 2.501,15.640 2.601 C 14.506 2.871,13.413 3.781,12.606 5.125 C 12.400 5.469,12.040 6.202,12.040 6.279 C 12.040 6.302,12.022 6.320,12.000 6.320 C 11.978 6.320,11.960 6.299,11.960 6.274 C 11.960 6.248,11.853 6.008,11.723 5.740 C 11.247 4.761,10.534 3.849,9.827 3.314 C 9.421 3.007,8.807 2.709,8.360 2.602 C 7.949 2.504,7.154 2.495,6.780 2.584 M8.171 3.583 C 9.333 3.884,10.428 5.090,11.099 6.809 C 11.199 7.067,11.293 7.334,11.307 7.403 L 11.332 7.528 9.256 7.509 C 7.578 7.494,7.142 7.479,6.980 7.431 C 6.412 7.263,5.943 6.863,5.690 6.333 C 5.541 6.021,5.540 6.018,5.540 5.500 C 5.540 4.982,5.541 4.979,5.690 4.667 C 5.934 4.155,6.401 3.747,6.940 3.576 C 7.170 3.503,7.878 3.507,8.171 3.583 M17.334 3.691 C 17.866 3.943,18.279 4.431,18.426 4.980 C 18.494 5.237,18.494 5.763,18.426 6.020 C 18.249 6.681,17.703 7.229,17.020 7.431 C 16.858 7.479,16.423 7.494,14.750 7.509 C 12.900 7.526,12.680 7.521,12.680 7.466 C 12.680 7.432,12.744 7.228,12.822 7.012 C 13.367 5.504,14.275 4.310,15.255 3.811 C 15.733 3.568,15.951 3.520,16.521 3.532 C 17.006 3.542,17.032 3.547,17.334 3.691 M11.480 10.021 L 11.480 11.522 7.768 11.519 C 5.727 11.517,3.985 11.499,3.898 11.480 C 3.803 11.458,3.696 11.395,3.630 11.321 L 3.520 11.199 3.520 9.995 L 3.520 8.792 3.656 8.656 L 3.792 8.520 7.636 8.520 L 11.480 8.520 11.480 10.021 M20.344 8.656 L 20.480 8.792 20.480 9.995 L 20.480 11.199 20.370 11.321 C 20.304 11.395,20.197 11.458,20.102 11.480 C 20.015 11.499,18.273 11.517,16.232 11.519 L 12.520 11.522 12.520 10.021 L 12.520 8.520 16.364 8.520 L 20.208 8.520 20.344 8.656 M11.480 16.522 L 11.480 20.525 9.110 20.511 C 7.006 20.498,6.717 20.489,6.535 20.428 C 6.131 20.294,5.750 19.926,5.597 19.522 C 5.523 19.328,5.520 19.178,5.520 15.920 L 5.520 12.520 8.500 12.520 L 11.480 12.520 11.480 16.522 M18.471 15.970 L 18.460 19.420 18.372 19.610 C 18.253 19.868,17.913 20.218,17.664 20.339 C 17.552 20.394,17.334 20.456,17.180 20.478 C 17.021 20.501,15.951 20.519,14.710 20.519 L 12.520 20.520 12.520 16.520 L 12.520 12.520 15.501 12.520 L 18.482 12.520 18.471 15.970 " stroke="none" fill="black" fill-rule="evenodd"></path></svg>