<svg xmlns="http://www.w3.org/2000/svg" class="icon icon-tabler icon-tabler-git-commit" width="24" height="24" viewBox="0 0 24 24" stroke-width="1" stroke="currentColor" fill="none" stroke-linecap="round" stroke-linejoin="round"><path d="M11.679 2.630 C 11.605 2.696,11.541 2.804,11.519 2.900 C 11.498 2.989,11.481 4.276,11.481 5.810 L 11.480 8.560 11.370 8.560 C 11.174 8.561,10.496 8.822,10.174 9.020 C 9.760 9.275,9.235 9.808,8.992 10.221 C 8.888 10.396,8.744 10.711,8.672 10.920 C 8.543 11.293,8.541 11.313,8.541 12.000 C 8.541 12.687,8.543 12.707,8.672 13.080 C 8.744 13.289,8.888 13.604,8.992 13.779 C 9.235 14.192,9.760 14.725,10.174 14.980 C 10.496 15.178,11.174 15.439,11.370 15.440 L 11.480 15.440 11.481 18.190 C 11.481 19.724,11.498 21.011,11.519 21.100 C 11.574 21.341,11.751 21.480,12.000 21.480 C 12.249 21.480,12.426 21.341,12.481 21.100 C 12.502 21.011,12.519 19.724,12.519 18.190 L 12.520 15.440 12.624 15.440 C 12.779 15.440,13.427 15.213,13.679 15.071 C 14.449 14.635,15.035 13.930,15.324 13.090 C 15.457 12.705,15.459 12.690,15.459 12.000 C 15.459 11.310,15.457 11.295,15.324 10.910 C 15.035 10.070,14.449 9.365,13.679 8.929 C 13.427 8.787,12.779 8.560,12.624 8.560 L 12.520 8.560 12.519 5.810 C 12.519 4.276,12.502 2.989,12.481 2.900 C 12.426 2.659,12.249 2.520,12.000 2.520 C 11.840 2.520,11.778 2.541,11.679 2.630 M12.834 9.640 C 13.142 9.749,13.615 10.059,13.818 10.283 C 14.048 10.538,14.266 10.898,14.368 11.192 C 14.446 11.421,14.460 11.540,14.460 12.000 C 14.460 12.460,14.446 12.579,14.368 12.808 C 14.190 13.320,13.844 13.765,13.378 14.076 C 12.916 14.385,12.647 14.460,12.000 14.460 C 11.540 14.460,11.421 14.446,11.192 14.368 C 10.898 14.266,10.538 14.048,10.283 13.818 C 10.058 13.615,9.749 13.141,9.640 12.834 C 9.516 12.481,9.484 11.763,9.577 11.399 C 9.803 10.515,10.484 9.821,11.360 9.581 C 11.694 9.489,12.500 9.522,12.834 9.640 " stroke="none" fill="black" fill-rule="evenodd"></path></svg>