<svg xmlns="http://www.w3.org/2000/svg" class="icon icon-tabler icon-tabler-git-pull-request" width="24" height="24" viewBox="0 0 24 24" stroke-width="1" stroke="currentColor" fill="none" stroke-linecap="round" stroke-linejoin="round"><path d="M12.171 4.129 C 11.056 5.243,10.547 5.779,10.517 5.869 C 10.486 5.963,10.486 6.037,10.517 6.131 C 10.547 6.221,11.056 6.757,12.171 7.871 L 13.782 9.480 13.995 9.480 C 14.184 9.480,14.223 9.465,14.344 9.344 C 14.465 9.223,14.480 9.184,14.480 8.996 L 14.480 8.783 13.350 7.651 L 12.220 6.518 14.320 6.529 L 16.420 6.540 16.641 6.649 C 16.924 6.787,17.213 7.076,17.351 7.359 L 17.460 7.580 17.471 11.566 L 17.482 15.552 17.204 15.636 C 16.465 15.861,15.810 16.552,15.600 17.328 C 15.477 17.786,15.498 18.408,15.652 18.839 C 15.908 19.557,16.492 20.130,17.207 20.364 C 17.459 20.447,17.576 20.460,18.040 20.459 C 18.553 20.457,18.596 20.451,18.900 20.328 C 19.882 19.933,20.480 19.053,20.480 18.000 C 20.480 17.584,20.408 17.253,20.239 16.900 C 19.975 16.346,19.431 15.862,18.840 15.653 L 18.520 15.540 18.519 11.840 C 18.519 9.805,18.502 7.984,18.482 7.794 C 18.375 6.780,17.769 5.988,16.839 5.649 L 16.540 5.540 14.390 5.529 C 13.207 5.522,12.240 5.505,12.240 5.490 C 12.240 5.474,12.744 4.957,13.360 4.339 L 14.480 3.217 14.480 3.004 C 14.480 2.816,14.465 2.777,14.344 2.656 C 14.223 2.535,14.184 2.520,13.995 2.520 L 13.782 2.520 12.171 4.129 M5.274 3.613 C 4.869 3.736,4.560 3.923,4.242 4.241 C 3.718 4.764,3.500 5.331,3.528 6.098 C 3.541 6.446,3.567 6.603,3.652 6.839 C 3.907 7.554,4.496 8.134,5.197 8.359 L 5.480 8.450 5.480 12.001 L 5.480 15.552 5.203 15.636 C 4.465 15.860,3.810 16.552,3.600 17.328 C 3.477 17.786,3.498 18.408,3.652 18.839 C 3.908 19.557,4.492 20.130,5.207 20.364 C 5.459 20.447,5.576 20.460,6.040 20.459 C 6.553 20.457,6.596 20.451,6.900 20.328 C 7.661 20.022,8.216 19.396,8.417 18.614 C 8.498 18.298,8.498 17.702,8.417 17.386 C 8.211 16.586,7.609 15.925,6.840 15.653 L 6.520 15.540 6.520 12.000 L 6.520 8.460 6.840 8.347 C 7.431 8.138,7.975 7.654,8.239 7.100 C 8.408 6.747,8.480 6.416,8.480 6.000 C 8.480 4.947,7.879 4.061,6.900 3.673 C 6.612 3.559,6.530 3.545,6.080 3.533 C 5.647 3.521,5.539 3.532,5.274 3.613 M6.641 4.649 C 6.924 4.787,7.213 5.076,7.351 5.359 C 7.449 5.557,7.460 5.624,7.460 6.000 C 7.460 6.348,7.445 6.453,7.372 6.610 C 7.250 6.875,6.912 7.218,6.644 7.350 C 6.443 7.449,6.377 7.460,6.000 7.460 C 5.624 7.460,5.557 7.449,5.359 7.351 C 5.076 7.213,4.787 6.924,4.649 6.641 C 4.499 6.337,4.474 5.802,4.593 5.488 C 4.743 5.094,5.077 4.753,5.468 4.597 C 5.766 4.478,6.345 4.503,6.641 4.649 M6.641 16.649 C 6.924 16.787,7.213 17.076,7.351 17.359 C 7.449 17.557,7.460 17.624,7.460 18.000 C 7.460 18.348,7.445 18.453,7.372 18.610 C 7.250 18.875,6.912 19.218,6.644 19.350 C 6.443 19.449,6.377 19.460,6.000 19.460 C 5.624 19.460,5.557 19.449,5.359 19.351 C 5.076 19.213,4.787 18.924,4.649 18.641 C 4.499 18.337,4.474 17.802,4.593 17.488 C 4.743 17.094,5.077 16.753,5.468 16.597 C 5.766 16.478,6.345 16.503,6.641 16.649 M18.641 16.649 C 18.924 16.787,19.213 17.076,19.351 17.359 C 19.449 17.557,19.460 17.624,19.460 18.000 C 19.460 18.348,19.445 18.453,19.372 18.610 C 19.250 18.875,18.912 19.218,18.644 19.350 C 18.443 19.449,18.377 19.460,18.000 19.460 C 17.624 19.460,17.557 19.449,17.359 19.351 C 17.076 19.213,16.787 18.924,16.649 18.641 C 16.499 18.337,16.474 17.802,16.593 17.488 C 16.743 17.094,17.077 16.753,17.468 16.597 C 17.766 16.478,18.345 16.503,18.641 16.649 " stroke="none" fill="black" fill-rule="evenodd"></path></svg>