<svg xmlns="http://www.w3.org/2000/svg" class="icon icon-tabler icon-tabler-git-branch" width="24" height="24" viewBox="0 0 24 24" stroke-width="1" stroke="currentColor" fill="none" stroke-linecap="round" stroke-linejoin="round"><path d="M6.274 3.613 C 5.869 3.736,5.560 3.923,5.242 4.241 C 4.718 4.764,4.500 5.331,4.528 6.098 C 4.541 6.446,4.567 6.603,4.652 6.839 C 4.907 7.554,5.496 8.134,6.197 8.359 L 6.480 8.450 6.480 12.001 L 6.480 15.552 6.203 15.636 C 5.465 15.860,4.810 16.552,4.600 17.328 C 4.477 17.786,4.498 18.408,4.652 18.839 C 4.908 19.557,5.492 20.130,6.207 20.364 C 6.459 20.447,6.576 20.460,7.040 20.459 C 7.549 20.458,7.598 20.450,7.888 20.334 C 8.600 20.048,9.139 19.488,9.358 18.806 L 9.448 18.525 12.414 18.510 C 15.082 18.496,15.404 18.487,15.614 18.425 C 16.540 18.150,17.159 17.533,17.423 16.620 C 17.483 16.410,17.494 16.119,17.509 14.304 L 17.527 12.229 18.655 13.354 L 19.783 14.480 19.996 14.480 C 20.184 14.480,20.223 14.465,20.344 14.344 C 20.465 14.223,20.480 14.184,20.480 13.995 L 20.480 13.782 18.871 12.171 C 17.757 11.056,17.221 10.547,17.131 10.517 C 17.037 10.486,16.963 10.486,16.869 10.517 C 16.779 10.547,16.243 11.056,15.129 12.171 L 13.520 13.782 13.520 13.995 C 13.520 14.184,13.535 14.223,13.656 14.344 C 13.777 14.465,13.816 14.480,14.004 14.480 L 14.217 14.480 15.350 13.350 L 16.482 12.220 16.471 14.320 L 16.460 16.420 16.350 16.644 C 16.219 16.910,15.873 17.252,15.623 17.363 C 15.297 17.507,14.916 17.523,12.142 17.511 L 9.465 17.500 9.353 17.180 C 9.097 16.450,8.531 15.886,7.807 15.640 L 7.520 15.542 7.520 12.001 L 7.520 8.460 7.840 8.347 C 8.431 8.138,8.975 7.654,9.239 7.100 C 9.408 6.747,9.480 6.416,9.480 6.000 C 9.480 4.947,8.879 4.061,7.900 3.673 C 7.612 3.559,7.530 3.545,7.080 3.533 C 6.647 3.521,6.539 3.532,6.274 3.613 M16.274 3.613 C 15.869 3.736,15.560 3.923,15.242 4.241 C 14.718 4.764,14.500 5.331,14.528 6.098 C 14.541 6.446,14.567 6.603,14.652 6.839 C 14.908 7.557,15.492 8.130,16.207 8.364 C 16.459 8.447,16.576 8.460,17.040 8.459 C 17.553 8.457,17.596 8.451,17.900 8.328 C 18.882 7.933,19.480 7.053,19.480 6.000 C 19.480 4.947,18.879 4.061,17.900 3.673 C 17.612 3.559,17.530 3.545,17.080 3.533 C 16.647 3.521,16.539 3.532,16.274 3.613 M7.641 4.649 C 7.924 4.787,8.213 5.076,8.351 5.359 C 8.449 5.557,8.460 5.624,8.460 6.000 C 8.460 6.348,8.445 6.453,8.372 6.610 C 8.250 6.875,7.912 7.218,7.644 7.350 C 7.443 7.449,7.377 7.460,7.000 7.460 C 6.624 7.460,6.557 7.449,6.359 7.351 C 6.076 7.213,5.787 6.924,5.649 6.641 C 5.499 6.337,5.474 5.802,5.593 5.488 C 5.743 5.094,6.077 4.753,6.468 4.597 C 6.766 4.478,7.345 4.503,7.641 4.649 M17.641 4.649 C 17.924 4.787,18.213 5.076,18.351 5.359 C 18.449 5.557,18.460 5.624,18.460 6.000 C 18.460 6.348,18.445 6.453,18.372 6.610 C 18.250 6.875,17.912 7.218,17.644 7.350 C 17.443 7.449,17.377 7.460,17.000 7.460 C 16.624 7.460,16.557 7.449,16.359 7.351 C 16.076 7.213,15.787 6.924,15.649 6.641 C 15.499 6.337,15.474 5.802,15.593 5.488 C 15.743 5.094,16.077 4.753,16.468 4.597 C 16.766 4.478,17.345 4.503,17.641 4.649 M7.641 16.649 C 7.924 16.787,8.213 17.076,8.351 17.359 C 8.449 17.557,8.460 17.624,8.460 18.000 C 8.460 18.348,8.445 18.453,8.372 18.610 C 8.250 18.875,7.912 19.218,7.644 19.350 C 7.443 19.449,7.377 19.460,7.000 19.460 C 6.624 19.460,6.557 19.449,6.359 19.351 C 6.076 19.213,5.787 18.924,5.649 18.641 C 5.499 18.337,5.474 17.802,5.593 17.488 C 5.743 17.094,6.077 16.753,6.468 16.597 C 6.766 16.478,7.345 16.503,7.641 16.649 " stroke="none" fill="black" fill-rule="evenodd"></path></svg>