<svg xmlns="http://www.w3.org/2000/svg" class="icon icon-tabler icon-tabler-git-merge" width="24" height="24" viewBox="0 0 24 24" stroke-width="1" stroke="currentColor" fill="none" stroke-linecap="round" stroke-linejoin="round"><path d="M6.274 3.613 C 5.869 3.736,5.560 3.923,5.242 4.241 C 4.718 4.764,4.500 5.331,4.528 6.098 C 4.541 6.446,4.567 6.603,4.652 6.839 C 4.907 7.554,5.496 8.134,6.197 8.359 L 6.480 8.450 6.480 12.001 L 6.480 15.552 6.203 15.636 C 5.465 15.860,4.810 16.552,4.600 17.328 C 4.477 17.786,4.498 18.408,4.652 18.839 C 4.908 19.557,5.492 20.130,6.207 20.364 C 6.459 20.447,6.576 20.460,7.040 20.459 C 7.553 20.457,7.596 20.451,7.900 20.328 C 8.661 20.022,9.216 19.396,9.417 18.614 C 9.498 18.298,9.498 17.702,9.417 17.386 C 9.211 16.586,8.609 15.925,7.840 15.653 L 7.520 15.540 7.520 13.205 L 7.520 10.870 7.780 11.133 C 8.389 11.748,9.090 12.152,9.913 12.364 C 10.382 12.484,11.024 12.518,12.865 12.519 L 14.550 12.520 14.643 12.808 C 14.871 13.518,15.483 14.127,16.207 14.364 C 16.459 14.447,16.576 14.460,17.040 14.459 C 17.553 14.457,17.596 14.451,17.900 14.328 C 18.882 13.933,19.480 13.053,19.480 12.000 C 19.480 10.947,18.878 10.060,17.900 9.674 C 17.624 9.565,17.517 9.545,17.120 9.529 C 16.731 9.514,16.608 9.525,16.330 9.600 C 15.552 9.810,14.902 10.422,14.642 11.189 L 14.536 11.500 12.918 11.512 C 12.028 11.518,11.069 11.505,10.786 11.482 C 10.168 11.432,9.698 11.290,9.220 11.008 C 8.793 10.757,8.243 10.207,7.992 9.780 C 7.809 9.470,7.590 8.887,7.548 8.599 L 7.528 8.458 7.844 8.346 C 8.431 8.138,8.976 7.652,9.239 7.100 C 9.408 6.747,9.480 6.416,9.480 6.000 C 9.480 4.947,8.879 4.061,7.900 3.673 C 7.612 3.559,7.530 3.545,7.080 3.533 C 6.647 3.521,6.539 3.532,6.274 3.613 M7.641 4.649 C 7.924 4.787,8.213 5.076,8.351 5.359 C 8.449 5.557,8.460 5.624,8.460 6.000 C 8.460 6.348,8.445 6.453,8.372 6.610 C 8.250 6.875,7.912 7.218,7.644 7.350 C 7.443 7.449,7.377 7.460,7.000 7.460 C 6.624 7.460,6.557 7.449,6.359 7.351 C 6.076 7.213,5.787 6.924,5.649 6.641 C 5.499 6.337,5.474 5.802,5.593 5.488 C 5.743 5.094,6.077 4.753,6.468 4.597 C 6.766 4.478,7.345 4.503,7.641 4.649 M17.641 10.649 C 17.924 10.787,18.213 11.076,18.351 11.359 C 18.449 11.557,18.460 11.624,18.460 12.000 C 18.460 12.348,18.445 12.453,18.372 12.610 C 18.250 12.875,17.912 13.218,17.644 13.350 C 17.443 13.449,17.377 13.460,17.000 13.460 C 16.624 13.460,16.557 13.449,16.359 13.351 C 16.076 13.213,15.787 12.924,15.649 12.641 C 15.499 12.337,15.474 11.802,15.593 11.488 C 15.743 11.094,16.077 10.753,16.468 10.597 C 16.766 10.478,17.345 10.503,17.641 10.649 M7.641 16.649 C 7.924 16.787,8.213 17.076,8.351 17.359 C 8.449 17.557,8.460 17.624,8.460 18.000 C 8.460 18.348,8.445 18.453,8.372 18.610 C 8.250 18.875,7.912 19.218,7.644 19.350 C 7.443 19.449,7.377 19.460,7.000 19.460 C 6.624 19.460,6.557 19.449,6.359 19.351 C 6.076 19.213,5.787 18.924,5.649 18.641 C 5.499 18.337,5.474 17.802,5.593 17.488 C 5.743 17.094,6.077 16.753,6.468 16.597 C 6.766 16.478,7.345 16.503,7.641 16.649 " stroke="none" fill="black" fill-rule="evenodd"></path></svg>