<svg xmlns="http://www.w3.org/2000/svg" class="icon icon-tabler icon-tabler-git-fork" width="24" height="24" viewBox="0 0 24 24" stroke-width="1" stroke="currentColor" fill="none" stroke-linecap="round" stroke-linejoin="round"><path d="M6.274 3.613 C 5.869 3.736,5.560 3.923,5.242 4.241 C 4.718 4.764,4.500 5.331,4.528 6.098 C 4.541 6.446,4.567 6.603,4.652 6.839 C 4.906 7.552,5.496 8.134,6.191 8.357 L 6.469 8.446 6.492 9.413 C 6.509 10.124,6.532 10.442,6.580 10.614 C 6.832 11.522,7.471 12.164,8.380 12.421 C 8.578 12.477,8.870 12.493,10.050 12.509 L 11.480 12.529 11.480 14.041 L 11.480 15.552 11.203 15.636 C 10.465 15.860,9.810 16.552,9.600 17.328 C 9.477 17.786,9.498 18.408,9.652 18.839 C 9.908 19.557,10.492 20.130,11.207 20.364 C 11.459 20.447,11.576 20.460,12.040 20.459 C 12.553 20.457,12.596 20.451,12.900 20.328 C 13.882 19.933,14.480 19.053,14.480 18.000 C 14.480 17.584,14.408 17.253,14.239 16.900 C 13.975 16.346,13.431 15.862,12.840 15.653 L 12.520 15.540 12.520 14.030 L 12.520 12.520 13.690 12.519 C 14.333 12.519,15.027 12.501,15.231 12.480 C 16.300 12.367,17.134 11.659,17.419 10.620 C 17.468 10.442,17.491 10.130,17.508 9.418 L 17.531 8.457 17.845 8.346 C 18.610 8.075,19.212 7.412,19.417 6.614 C 19.498 6.298,19.498 5.702,19.417 5.386 C 19.215 4.603,18.657 3.973,17.900 3.674 C 17.624 3.565,17.517 3.545,17.120 3.529 C 16.732 3.514,16.608 3.525,16.333 3.599 C 15.911 3.713,15.567 3.915,15.241 4.241 C 14.717 4.765,14.500 5.331,14.528 6.098 C 14.541 6.446,14.567 6.603,14.652 6.839 C 14.907 7.555,15.496 8.134,16.199 8.360 L 16.485 8.452 16.472 9.436 C 16.460 10.417,16.460 10.421,16.350 10.644 C 16.220 10.909,15.874 11.252,15.626 11.362 C 15.530 11.404,15.325 11.457,15.171 11.478 C 14.799 11.531,9.202 11.531,8.824 11.478 C 8.668 11.456,8.449 11.394,8.339 11.341 C 8.075 11.212,7.784 10.918,7.649 10.641 C 7.541 10.421,7.540 10.414,7.528 9.440 L 7.517 8.460 7.838 8.347 C 8.430 8.139,8.974 7.655,9.239 7.100 C 9.408 6.747,9.480 6.416,9.480 6.000 C 9.480 4.947,8.879 4.061,7.900 3.673 C 7.612 3.559,7.530 3.545,7.080 3.533 C 6.647 3.521,6.539 3.532,6.274 3.613 M7.641 4.649 C 7.924 4.787,8.213 5.076,8.351 5.359 C 8.449 5.557,8.460 5.624,8.460 6.000 C 8.460 6.348,8.445 6.453,8.372 6.610 C 8.250 6.875,7.912 7.218,7.644 7.350 C 7.443 7.449,7.377 7.460,7.000 7.460 C 6.624 7.460,6.557 7.449,6.359 7.351 C 6.076 7.213,5.787 6.924,5.649 6.641 C 5.499 6.337,5.474 5.802,5.593 5.488 C 5.743 5.094,6.077 4.753,6.468 4.597 C 6.766 4.478,7.345 4.503,7.641 4.649 M17.641 4.649 C 17.924 4.787,18.213 5.076,18.351 5.359 C 18.449 5.557,18.460 5.624,18.460 6.000 C 18.460 6.348,18.445 6.453,18.372 6.610 C 18.250 6.875,17.912 7.218,17.644 7.350 C 17.443 7.449,17.377 7.460,17.000 7.460 C 16.624 7.460,16.557 7.449,16.359 7.351 C 16.076 7.213,15.787 6.924,15.649 6.641 C 15.499 6.337,15.474 5.802,15.593 5.488 C 15.743 5.094,16.077 4.753,16.468 4.597 C 16.766 4.478,17.345 4.503,17.641 4.649 M12.641 16.649 C 12.924 16.787,13.213 17.076,13.351 17.359 C 13.449 17.557,13.460 17.624,13.460 18.000 C 13.460 18.348,13.445 18.453,13.372 18.610 C 13.250 18.875,12.912 19.218,12.644 19.350 C 12.443 19.449,12.377 19.460,12.000 19.460 C 11.624 19.460,11.557 19.449,11.359 19.351 C 11.076 19.213,10.787 18.924,10.649 18.641 C 10.499 18.337,10.474 17.802,10.593 17.488 C 10.743 17.094,11.077 16.753,11.468 16.597 C 11.766 16.478,12.345 16.503,12.641 16.649 " stroke="none" fill="black" fill-rule="evenodd"></path></svg>