<svg xmlns="http://www.w3.org/2000/svg" class="icon icon-tabler icon-tabler-glass-full" width="24" height="24" viewBox="0 0 24 24" stroke-width="1" stroke="currentColor" fill="none" stroke-linecap="round" stroke-linejoin="round"><path d="M7.705 3.603 C 7.647 3.649,7.582 3.719,7.561 3.758 C 7.540 3.798,7.290 5.232,7.006 6.945 C 6.499 10.000,6.490 10.067,6.523 10.439 C 6.693 12.350,7.799 14.017,9.465 14.870 C 10.080 15.185,10.553 15.334,11.330 15.459 L 11.480 15.484 11.480 18.002 L 11.480 20.520 9.636 20.520 L 7.792 20.520 7.656 20.656 C 7.537 20.775,7.520 20.817,7.520 20.995 C 7.520 21.250,7.657 21.425,7.900 21.481 C 8.112 21.530,15.888 21.530,16.100 21.481 C 16.343 21.425,16.480 21.250,16.480 20.995 C 16.480 20.817,16.463 20.775,16.344 20.656 L 16.208 20.520 14.364 20.520 L 12.520 20.520 12.520 18.002 L 12.520 15.484 12.650 15.462 C 13.184 15.375,13.344 15.339,13.680 15.232 C 15.782 14.564,17.279 12.675,17.477 10.439 C 17.510 10.067,17.501 10.000,16.994 6.945 C 16.710 5.232,16.460 3.798,16.439 3.758 C 16.418 3.719,16.353 3.649,16.295 3.603 C 16.189 3.520,16.181 3.520,12.000 3.520 C 7.819 3.520,7.811 3.520,7.705 3.603 M16.018 7.145 C 16.445 9.711,16.453 9.772,16.377 9.828 C 16.228 9.941,15.857 10.112,15.520 10.224 C 15.200 10.330,15.139 10.337,14.500 10.337 C 13.841 10.337,13.808 10.333,13.437 10.209 C 13.083 10.090,12.492 9.776,12.301 9.604 C 12.016 9.348,11.424 9.025,10.948 8.866 C 10.394 8.681,10.006 8.629,9.340 8.651 C 8.723 8.671,8.289 8.753,7.886 8.926 C 7.789 8.968,7.702 8.995,7.693 8.987 C 7.685 8.978,7.845 7.970,8.049 6.746 L 8.419 4.520 12.000 4.520 L 15.581 4.520 16.018 7.145 M10.520 9.779 C 10.913 9.907,11.217 10.055,11.500 10.258 C 12.307 10.838,12.761 11.071,13.420 11.245 C 13.739 11.329,13.865 11.340,14.520 11.338 C 15.188 11.336,15.295 11.326,15.620 11.233 C 15.818 11.177,16.075 11.093,16.190 11.046 C 16.305 10.999,16.400 10.969,16.400 10.979 C 16.400 10.988,16.353 11.145,16.296 11.328 C 15.798 12.923,14.471 14.105,12.826 14.420 C 12.420 14.498,11.581 14.497,11.170 14.420 C 9.550 14.112,8.227 12.945,7.721 11.376 C 7.577 10.929,7.485 10.344,7.544 10.250 C 7.641 10.097,8.358 9.783,8.843 9.681 C 8.940 9.661,9.281 9.650,9.600 9.657 C 10.103 9.667,10.225 9.684,10.520 9.779 " stroke="none" fill="black" fill-rule="evenodd"></path></svg>