<svg xmlns="http://www.w3.org/2000/svg" class="icon icon-tabler icon-tabler-glass" width="24" height="24" viewBox="0 0 24 24" stroke-width="1" stroke="currentColor" fill="none" stroke-linecap="round" stroke-linejoin="round"><path d="M7.705 3.603 C 7.647 3.649,7.582 3.719,7.561 3.759 C 7.539 3.799,7.296 5.183,7.021 6.835 C 6.481 10.075,6.466 10.207,6.582 10.920 C 6.850 12.575,7.964 14.101,9.465 14.870 C 10.080 15.185,10.553 15.334,11.330 15.459 L 11.480 15.484 11.480 18.002 L 11.480 20.520 9.636 20.520 L 7.792 20.520 7.656 20.656 C 7.537 20.775,7.520 20.817,7.520 20.995 C 7.520 21.250,7.657 21.425,7.900 21.481 C 8.112 21.530,15.888 21.530,16.100 21.481 C 16.343 21.425,16.480 21.250,16.480 20.995 C 16.480 20.817,16.463 20.775,16.344 20.656 L 16.208 20.520 14.364 20.520 L 12.520 20.520 12.520 18.002 L 12.520 15.484 12.650 15.462 C 13.184 15.375,13.344 15.339,13.680 15.232 C 14.472 14.980,15.284 14.483,15.884 13.884 C 16.867 12.901,17.479 11.483,17.480 10.189 C 17.480 9.926,17.355 9.088,16.979 6.835 C 16.704 5.183,16.461 3.799,16.439 3.759 C 16.418 3.719,16.353 3.649,16.295 3.603 C 16.189 3.520,16.181 3.520,12.000 3.520 C 7.819 3.520,7.811 3.520,7.705 3.603 M16.036 7.258 C 16.465 9.835,16.491 10.018,16.469 10.388 C 16.373 12.002,15.244 13.544,13.706 14.160 C 13.053 14.422,12.856 14.456,12.000 14.456 C 11.156 14.456,10.944 14.420,10.338 14.178 C 8.756 13.545,7.628 12.022,7.531 10.388 C 7.509 10.018,7.535 9.835,7.964 7.258 L 8.419 4.520 12.000 4.520 L 15.581 4.520 16.036 7.258 " stroke="none" fill="black" fill-rule="evenodd"></path></svg>