<svg xmlns="http://www.w3.org/2000/svg" class="icon icon-tabler icon-tabler-globe" width="24" height="24" viewBox="0 0 24 24" stroke-width="1" stroke="currentColor" fill="none" stroke-linecap="round" stroke-linejoin="round"><path d="M15.656 2.656 C 15.539 2.773,15.520 2.819,15.520 2.987 C 15.520 3.094,15.546 3.220,15.578 3.265 C 15.610 3.311,15.867 3.502,16.148 3.691 C 17.038 4.287,17.674 4.920,18.241 5.772 C 20.107 8.576,19.911 12.193,17.754 14.780 C 15.730 17.208,12.315 18.102,9.358 16.978 C 8.628 16.701,7.940 16.306,7.283 15.786 C 6.975 15.542,6.931 15.520,6.757 15.520 C 6.528 15.520,6.350 15.647,6.280 15.861 C 6.178 16.170,6.399 16.432,7.240 16.995 C 8.373 17.754,9.613 18.221,10.950 18.390 L 11.480 18.458 11.480 19.989 L 11.480 21.520 9.636 21.520 L 7.792 21.520 7.656 21.656 C 7.537 21.775,7.520 21.817,7.520 21.995 C 7.520 22.250,7.657 22.425,7.900 22.481 C 8.112 22.530,15.888 22.530,16.100 22.481 C 16.343 22.425,16.480 22.250,16.480 21.995 C 16.480 21.817,16.463 21.775,16.344 21.656 L 16.208 21.520 14.364 21.520 L 12.520 21.520 12.520 19.987 L 12.520 18.453 12.950 18.406 C 16.936 17.968,20.073 14.785,20.478 10.766 C 20.800 7.576,19.202 4.358,16.475 2.705 C 16.226 2.554,16.135 2.520,15.981 2.520 C 15.819 2.520,15.772 2.540,15.656 2.656 M11.145 5.582 C 9.296 5.950,7.854 7.439,7.559 9.287 C 7.488 9.732,7.528 10.694,7.633 11.087 C 8.073 12.731,9.248 13.907,10.913 14.370 C 11.178 14.444,11.325 14.456,12.000 14.456 C 12.675 14.456,12.822 14.444,13.088 14.370 C 14.755 13.906,15.906 12.755,16.370 11.087 C 16.444 10.822,16.456 10.675,16.456 10.000 C 16.456 9.156,16.421 8.951,16.177 8.333 C 15.618 6.921,14.336 5.866,12.830 5.580 C 12.435 5.506,11.526 5.506,11.145 5.582 M13.080 6.675 C 13.629 6.861,14.035 7.115,14.460 7.540 C 14.883 7.963,15.137 8.366,15.328 8.920 C 15.457 9.293,15.459 9.313,15.459 10.000 C 15.459 10.687,15.457 10.707,15.328 11.080 C 15.137 11.634,14.883 12.037,14.460 12.460 C 14.037 12.883,13.634 13.137,13.080 13.328 C 12.707 13.457,12.687 13.459,12.000 13.459 C 11.313 13.459,11.293 13.457,10.920 13.328 C 10.366 13.137,9.963 12.883,9.540 12.460 C 9.114 12.034,8.860 11.628,8.676 11.080 C 8.565 10.752,8.545 10.629,8.529 10.175 C 8.518 9.864,8.529 9.542,8.557 9.383 C 8.758 8.223,9.642 7.154,10.740 6.738 C 11.225 6.554,11.450 6.521,12.100 6.534 C 12.652 6.546,12.730 6.557,13.080 6.675 " stroke="none" fill="black" fill-rule="evenodd"></path></svg>