<svg xmlns="http://www.w3.org/2000/svg" class="icon icon-tabler icon-tabler-grid" width="24" height="24" viewBox="0 0 24 24" stroke-width="1" stroke="currentColor" fill="none" stroke-linecap="round" stroke-linejoin="round"><path d="M4.468 3.599 C 4.060 3.758,3.697 4.145,3.569 4.556 C 3.507 4.757,3.500 5.006,3.500 7.000 C 3.500 8.994,3.507 9.243,3.569 9.444 C 3.706 9.885,4.115 10.294,4.556 10.431 C 4.757 10.493,5.006 10.500,7.000 10.500 C 8.994 10.500,9.243 10.493,9.444 10.431 C 9.885 10.294,10.294 9.885,10.431 9.444 C 10.493 9.243,10.500 8.994,10.500 7.000 C 10.500 5.006,10.493 4.757,10.431 4.556 C 10.300 4.133,9.918 3.736,9.507 3.594 C 9.317 3.529,9.104 3.523,6.980 3.523 C 4.807 3.524,4.648 3.528,4.468 3.599 M14.468 3.599 C 14.060 3.758,13.697 4.145,13.569 4.556 C 13.507 4.757,13.500 5.006,13.500 7.000 C 13.500 8.994,13.507 9.243,13.569 9.444 C 13.706 9.885,14.115 10.294,14.556 10.431 C 14.757 10.493,15.006 10.500,17.000 10.500 C 18.994 10.500,19.243 10.493,19.444 10.431 C 19.885 10.294,20.294 9.885,20.431 9.444 C 20.493 9.243,20.500 8.994,20.500 7.000 C 20.500 5.006,20.493 4.757,20.431 4.556 C 20.300 4.133,19.918 3.736,19.507 3.594 C 19.317 3.529,19.104 3.523,16.980 3.523 C 14.807 3.524,14.648 3.528,14.468 3.599 M9.344 4.656 L 9.480 4.792 9.480 6.995 L 9.480 9.199 9.370 9.321 C 9.304 9.395,9.196 9.459,9.100 9.481 C 9.012 9.501,8.067 9.518,7.000 9.518 C 5.933 9.518,4.988 9.501,4.900 9.481 C 4.804 9.459,4.696 9.395,4.630 9.321 L 4.520 9.199 4.520 6.995 L 4.520 4.792 4.656 4.656 L 4.792 4.520 7.000 4.520 L 9.208 4.520 9.344 4.656 M19.344 4.656 L 19.480 4.792 19.480 6.995 L 19.480 9.199 19.370 9.321 C 19.304 9.395,19.196 9.459,19.100 9.481 C 19.012 9.501,18.067 9.518,17.000 9.518 C 15.933 9.518,14.988 9.501,14.900 9.481 C 14.804 9.459,14.696 9.395,14.630 9.321 L 14.520 9.199 14.520 6.995 L 14.520 4.792 14.656 4.656 L 14.792 4.520 17.000 4.520 L 19.208 4.520 19.344 4.656 M4.468 13.599 C 4.060 13.758,3.697 14.145,3.569 14.556 C 3.507 14.757,3.500 15.006,3.500 17.000 C 3.500 18.994,3.507 19.243,3.569 19.444 C 3.706 19.885,4.115 20.294,4.556 20.431 C 4.757 20.493,5.006 20.500,7.000 20.500 C 8.994 20.500,9.243 20.493,9.444 20.431 C 9.885 20.294,10.294 19.885,10.431 19.444 C 10.493 19.243,10.500 18.994,10.500 17.000 C 10.500 15.006,10.493 14.757,10.431 14.556 C 10.300 14.133,9.918 13.736,9.507 13.594 C 9.317 13.529,9.104 13.523,6.980 13.523 C 4.807 13.524,4.648 13.528,4.468 13.599 M14.468 13.599 C 14.060 13.758,13.697 14.145,13.569 14.556 C 13.507 14.757,13.500 15.006,13.500 17.000 C 13.500 18.994,13.507 19.243,13.569 19.444 C 13.706 19.885,14.115 20.294,14.556 20.431 C 14.757 20.493,15.006 20.500,17.000 20.500 C 18.994 20.500,19.243 20.493,19.444 20.431 C 19.885 20.294,20.294 19.885,20.431 19.444 C 20.493 19.243,20.500 18.994,20.500 17.000 C 20.500 15.006,20.493 14.757,20.431 14.556 C 20.300 14.133,19.918 13.736,19.507 13.594 C 19.317 13.529,19.104 13.523,16.980 13.523 C 14.807 13.524,14.648 13.528,14.468 13.599 M9.344 14.656 L 9.480 14.792 9.480 16.995 L 9.480 19.199 9.370 19.321 C 9.304 19.395,9.196 19.459,9.100 19.481 C 9.012 19.501,8.067 19.518,7.000 19.518 C 5.933 19.518,4.988 19.501,4.900 19.481 C 4.804 19.459,4.696 19.395,4.630 19.321 L 4.520 19.199 4.520 16.995 L 4.520 14.792 4.656 14.656 L 4.792 14.520 7.000 14.520 L 9.208 14.520 9.344 14.656 M19.344 14.656 L 19.480 14.792 19.480 16.995 L 19.480 19.199 19.370 19.321 C 19.304 19.395,19.196 19.459,19.100 19.481 C 19.012 19.501,18.067 19.518,17.000 19.518 C 15.933 19.518,14.988 19.501,14.900 19.481 C 14.804 19.459,14.696 19.395,14.630 19.321 L 14.520 19.199 14.520 16.995 L 14.520 14.792 14.656 14.656 L 14.792 14.520 17.000 14.520 L 19.208 14.520 19.344 14.656 " stroke="none" fill="black" fill-rule="evenodd"></path></svg>