<svg xmlns="http://www.w3.org/2000/svg" class="icon icon-tabler icon-tabler-grid-dots" width="24" height="24" viewBox="0 0 24 24" stroke-width="1" stroke="currentColor" fill="none" stroke-linecap="round" stroke-linejoin="round"><path d="M4.468 3.597 C 4.055 3.763,3.691 4.152,3.575 4.552 C 3.480 4.879,3.514 5.364,3.651 5.646 C 3.787 5.924,4.077 6.213,4.359 6.351 C 4.557 6.449,4.624 6.460,5.000 6.460 C 5.376 6.460,5.443 6.449,5.641 6.351 C 5.924 6.213,6.213 5.924,6.351 5.641 C 6.449 5.443,6.460 5.376,6.460 5.000 C 6.460 4.624,6.449 4.557,6.351 4.359 C 6.213 4.076,5.924 3.787,5.643 3.650 C 5.345 3.504,4.763 3.478,4.468 3.597 M11.468 3.597 C 11.055 3.763,10.691 4.152,10.575 4.552 C 10.480 4.879,10.514 5.364,10.651 5.646 C 10.787 5.924,11.077 6.213,11.359 6.351 C 11.557 6.449,11.624 6.460,12.000 6.460 C 12.376 6.460,12.443 6.449,12.641 6.351 C 12.924 6.213,13.213 5.924,13.351 5.641 C 13.449 5.443,13.460 5.376,13.460 5.000 C 13.460 4.624,13.449 4.557,13.351 4.359 C 13.213 4.076,12.924 3.787,12.643 3.650 C 12.345 3.504,11.763 3.478,11.468 3.597 M18.468 3.597 C 18.055 3.763,17.691 4.152,17.575 4.552 C 17.480 4.879,17.514 5.364,17.651 5.646 C 17.787 5.924,18.077 6.213,18.359 6.351 C 18.557 6.449,18.624 6.460,19.000 6.460 C 19.376 6.460,19.443 6.449,19.641 6.351 C 19.924 6.213,20.213 5.924,20.351 5.641 C 20.449 5.443,20.460 5.376,20.460 5.000 C 20.460 4.624,20.449 4.557,20.351 4.359 C 20.213 4.076,19.924 3.787,19.643 3.650 C 19.345 3.504,18.763 3.478,18.468 3.597 M5.344 4.656 C 5.464 4.776,5.480 4.817,5.480 5.000 C 5.480 5.183,5.464 5.224,5.344 5.344 C 5.224 5.464,5.183 5.480,5.000 5.480 C 4.817 5.480,4.776 5.464,4.656 5.344 C 4.536 5.224,4.520 5.183,4.520 5.000 C 4.520 4.817,4.536 4.776,4.656 4.656 C 4.776 4.536,4.817 4.520,5.000 4.520 C 5.183 4.520,5.224 4.536,5.344 4.656 M12.344 4.656 C 12.464 4.776,12.480 4.817,12.480 5.000 C 12.480 5.183,12.464 5.224,12.344 5.344 C 12.224 5.464,12.183 5.480,12.000 5.480 C 11.817 5.480,11.776 5.464,11.656 5.344 C 11.536 5.224,11.520 5.183,11.520 5.000 C 11.520 4.698,11.698 4.520,12.000 4.520 C 12.183 4.520,12.224 4.536,12.344 4.656 M19.344 4.656 C 19.464 4.776,19.480 4.817,19.480 5.000 C 19.480 5.183,19.464 5.224,19.344 5.344 C 19.224 5.464,19.183 5.480,19.000 5.480 C 18.817 5.480,18.776 5.464,18.656 5.344 C 18.536 5.224,18.520 5.183,18.520 5.000 C 18.520 4.698,18.698 4.520,19.000 4.520 C 19.183 4.520,19.224 4.536,19.344 4.656 M4.468 10.597 C 4.055 10.763,3.691 11.152,3.575 11.552 C 3.480 11.879,3.514 12.364,3.651 12.646 C 3.787 12.924,4.077 13.213,4.359 13.351 C 4.557 13.449,4.624 13.460,5.000 13.460 C 5.376 13.460,5.443 13.449,5.641 13.351 C 5.924 13.213,6.213 12.924,6.351 12.641 C 6.449 12.443,6.460 12.376,6.460 12.000 C 6.460 11.624,6.449 11.557,6.351 11.359 C 6.213 11.076,5.924 10.787,5.643 10.650 C 5.345 10.504,4.763 10.478,4.468 10.597 M11.468 10.597 C 11.055 10.763,10.691 11.152,10.575 11.552 C 10.480 11.879,10.514 12.364,10.651 12.646 C 10.787 12.924,11.077 13.213,11.359 13.351 C 11.557 13.449,11.624 13.460,12.000 13.460 C 12.376 13.460,12.443 13.449,12.641 13.351 C 12.924 13.213,13.213 12.924,13.351 12.641 C 13.449 12.443,13.460 12.376,13.460 12.000 C 13.460 11.624,13.449 11.557,13.351 11.359 C 13.213 11.076,12.924 10.787,12.643 10.650 C 12.345 10.504,11.763 10.478,11.468 10.597 M18.468 10.597 C 18.055 10.763,17.691 11.152,17.575 11.552 C 17.480 11.879,17.514 12.364,17.651 12.646 C 17.787 12.924,18.077 13.213,18.359 13.351 C 18.557 13.449,18.624 13.460,19.000 13.460 C 19.376 13.460,19.443 13.449,19.641 13.351 C 19.924 13.213,20.213 12.924,20.351 12.641 C 20.449 12.443,20.460 12.376,20.460 12.000 C 20.460 11.624,20.449 11.557,20.351 11.359 C 20.213 11.076,19.924 10.787,19.643 10.650 C 19.345 10.504,18.763 10.478,18.468 10.597 M5.344 11.656 C 5.464 11.776,5.480 11.817,5.480 12.000 C 5.480 12.183,5.464 12.224,5.344 12.344 C 5.224 12.464,5.183 12.480,5.000 12.480 C 4.698 12.480,4.520 12.302,4.520 12.000 C 4.520 11.698,4.698 11.520,5.000 11.520 C 5.183 11.520,5.224 11.536,5.344 11.656 M12.344 11.656 C 12.464 11.776,12.480 11.817,12.480 12.000 C 12.480 12.183,12.464 12.224,12.344 12.344 C 12.224 12.464,12.183 12.480,12.000 12.480 C 11.817 12.480,11.776 12.464,11.656 12.344 C 11.536 12.224,11.520 12.183,11.520 12.000 C 11.520 11.817,11.536 11.776,11.656 11.656 C 11.776 11.536,11.817 11.520,12.000 11.520 C 12.183 11.520,12.224 11.536,12.344 11.656 M19.344 11.656 C 19.464 11.776,19.480 11.817,19.480 12.000 C 19.480 12.183,19.464 12.224,19.344 12.344 C 19.224 12.464,19.183 12.480,19.000 12.480 C 18.817 12.480,18.776 12.464,18.656 12.344 C 18.536 12.224,18.520 12.183,18.520 12.000 C 18.520 11.817,18.536 11.776,18.656 11.656 C 18.776 11.536,18.817 11.520,19.000 11.520 C 19.183 11.520,19.224 11.536,19.344 11.656 M4.468 17.597 C 4.055 17.763,3.691 18.152,3.575 18.552 C 3.480 18.879,3.514 19.364,3.651 19.646 C 3.787 19.924,4.077 20.213,4.359 20.351 C 4.557 20.449,4.624 20.460,5.000 20.460 C 5.376 20.460,5.443 20.449,5.641 20.351 C 5.924 20.213,6.213 19.924,6.351 19.641 C 6.449 19.443,6.460 19.376,6.460 19.000 C 6.460 18.624,6.449 18.557,6.351 18.359 C 6.213 18.076,5.924 17.787,5.643 17.650 C 5.345 17.504,4.763 17.478,4.468 17.597 M11.468 17.597 C 11.055 17.763,10.691 18.152,10.575 18.552 C 10.480 18.879,10.514 19.364,10.651 19.646 C 10.787 19.924,11.077 20.213,11.359 20.351 C 11.557 20.449,11.624 20.460,12.000 20.460 C 12.376 20.460,12.443 20.449,12.641 20.351 C 12.924 20.213,13.213 19.924,13.351 19.641 C 13.449 19.443,13.460 19.376,13.460 19.000 C 13.460 18.624,13.449 18.557,13.351 18.359 C 13.213 18.076,12.924 17.787,12.643 17.650 C 12.345 17.504,11.763 17.478,11.468 17.597 M18.468 17.597 C 18.055 17.763,17.691 18.152,17.575 18.552 C 17.480 18.879,17.514 19.364,17.651 19.646 C 17.787 19.924,18.077 20.213,18.359 20.351 C 18.557 20.449,18.624 20.460,19.000 20.460 C 19.376 20.460,19.443 20.449,19.641 20.351 C 19.924 20.213,20.213 19.924,20.351 19.641 C 20.449 19.443,20.460 19.376,20.460 19.000 C 20.460 18.624,20.449 18.557,20.351 18.359 C 20.213 18.076,19.924 17.787,19.643 17.650 C 19.345 17.504,18.763 17.478,18.468 17.597 M5.344 18.656 C 5.464 18.776,5.480 18.817,5.480 19.000 C 5.480 19.183,5.464 19.224,5.344 19.344 C 5.224 19.464,5.183 19.480,5.000 19.480 C 4.698 19.480,4.520 19.302,4.520 19.000 C 4.520 18.698,4.698 18.520,5.000 18.520 C 5.183 18.520,5.224 18.536,5.344 18.656 M12.344 18.656 C 12.464 18.776,12.480 18.817,12.480 19.000 C 12.480 19.183,12.464 19.224,12.344 19.344 C 12.224 19.464,12.183 19.480,12.000 19.480 C 11.817 19.480,11.776 19.464,11.656 19.344 C 11.536 19.224,11.520 19.183,11.520 19.000 C 11.520 18.817,11.536 18.776,11.656 18.656 C 11.776 18.536,11.817 18.520,12.000 18.520 C 12.183 18.520,12.224 18.536,12.344 18.656 M19.344 18.656 C 19.464 18.776,19.480 18.817,19.480 19.000 C 19.480 19.183,19.464 19.224,19.344 19.344 C 19.224 19.464,19.183 19.480,19.000 19.480 C 18.817 19.480,18.776 19.464,18.656 19.344 C 18.536 19.224,18.520 19.183,18.520 19.000 C 18.520 18.817,18.536 18.776,18.656 18.656 C 18.776 18.536,18.817 18.520,19.000 18.520 C 19.183 18.520,19.224 18.536,19.344 18.656 " stroke="none" fill="black" fill-rule="evenodd"></path></svg>