<svg xmlns="http://www.w3.org/2000/svg" class="icon icon-tabler icon-tabler-grip-horizontal" width="24" height="24" viewBox="0 0 24 24" stroke-width="1" stroke="currentColor" fill="none" stroke-linecap="round" stroke-linejoin="round"><path d="M4.468 7.597 C 4.055 7.763,3.691 8.152,3.575 8.552 C 3.480 8.879,3.514 9.364,3.651 9.646 C 3.787 9.924,4.077 10.213,4.359 10.351 C 4.557 10.449,4.624 10.460,5.000 10.460 C 5.376 10.460,5.443 10.449,5.641 10.351 C 5.924 10.213,6.213 9.924,6.351 9.641 C 6.449 9.443,6.460 9.376,6.460 9.000 C 6.460 8.624,6.449 8.557,6.351 8.359 C 6.213 8.076,5.924 7.787,5.643 7.650 C 5.345 7.504,4.763 7.478,4.468 7.597 M11.468 7.597 C 11.055 7.763,10.691 8.152,10.575 8.552 C 10.480 8.879,10.514 9.364,10.651 9.646 C 10.787 9.924,11.077 10.213,11.359 10.351 C 11.557 10.449,11.624 10.460,12.000 10.460 C 12.376 10.460,12.443 10.449,12.641 10.351 C 12.924 10.213,13.213 9.924,13.351 9.641 C 13.449 9.443,13.460 9.376,13.460 9.000 C 13.460 8.624,13.449 8.557,13.351 8.359 C 13.213 8.076,12.924 7.787,12.643 7.650 C 12.345 7.504,11.763 7.478,11.468 7.597 M18.468 7.597 C 18.055 7.763,17.691 8.152,17.575 8.552 C 17.480 8.879,17.514 9.364,17.651 9.646 C 17.787 9.924,18.077 10.213,18.359 10.351 C 18.557 10.449,18.624 10.460,19.000 10.460 C 19.376 10.460,19.443 10.449,19.641 10.351 C 19.924 10.213,20.213 9.924,20.351 9.641 C 20.449 9.443,20.460 9.376,20.460 9.000 C 20.460 8.624,20.449 8.557,20.351 8.359 C 20.213 8.076,19.924 7.787,19.643 7.650 C 19.345 7.504,18.763 7.478,18.468 7.597 M5.344 8.656 C 5.464 8.776,5.480 8.817,5.480 9.000 C 5.480 9.183,5.464 9.224,5.344 9.344 C 5.224 9.464,5.183 9.480,5.000 9.480 C 4.817 9.480,4.776 9.464,4.656 9.344 C 4.536 9.224,4.520 9.183,4.520 9.000 C 4.520 8.817,4.536 8.776,4.656 8.656 C 4.776 8.536,4.817 8.520,5.000 8.520 C 5.183 8.520,5.224 8.536,5.344 8.656 M12.344 8.656 C 12.464 8.776,12.480 8.817,12.480 9.000 C 12.480 9.183,12.464 9.224,12.344 9.344 C 12.224 9.464,12.183 9.480,12.000 9.480 C 11.817 9.480,11.776 9.464,11.656 9.344 C 11.536 9.224,11.520 9.183,11.520 9.000 C 11.520 8.817,11.536 8.776,11.656 8.656 C 11.776 8.536,11.817 8.520,12.000 8.520 C 12.183 8.520,12.224 8.536,12.344 8.656 M19.344 8.656 C 19.464 8.776,19.480 8.817,19.480 9.000 C 19.480 9.183,19.464 9.224,19.344 9.344 C 19.224 9.464,19.183 9.480,19.000 9.480 C 18.817 9.480,18.776 9.464,18.656 9.344 C 18.536 9.224,18.520 9.183,18.520 9.000 C 18.520 8.817,18.536 8.776,18.656 8.656 C 18.776 8.536,18.817 8.520,19.000 8.520 C 19.183 8.520,19.224 8.536,19.344 8.656 M4.468 13.597 C 4.055 13.763,3.691 14.152,3.575 14.552 C 3.480 14.879,3.514 15.364,3.651 15.646 C 3.787 15.924,4.077 16.213,4.359 16.351 C 4.557 16.449,4.624 16.460,5.000 16.460 C 5.376 16.460,5.443 16.449,5.641 16.351 C 5.924 16.213,6.213 15.924,6.351 15.641 C 6.449 15.443,6.460 15.376,6.460 15.000 C 6.460 14.624,6.449 14.557,6.351 14.359 C 6.213 14.076,5.924 13.787,5.643 13.650 C 5.345 13.504,4.763 13.478,4.468 13.597 M11.468 13.597 C 11.055 13.763,10.691 14.152,10.575 14.552 C 10.480 14.879,10.514 15.364,10.651 15.646 C 10.787 15.924,11.077 16.213,11.359 16.351 C 11.557 16.449,11.624 16.460,12.000 16.460 C 12.376 16.460,12.443 16.449,12.641 16.351 C 12.924 16.213,13.213 15.924,13.351 15.641 C 13.449 15.443,13.460 15.376,13.460 15.000 C 13.460 14.624,13.449 14.557,13.351 14.359 C 13.213 14.076,12.924 13.787,12.643 13.650 C 12.345 13.504,11.763 13.478,11.468 13.597 M18.468 13.597 C 18.055 13.763,17.691 14.152,17.575 14.552 C 17.480 14.879,17.514 15.364,17.651 15.646 C 17.787 15.924,18.077 16.213,18.359 16.351 C 18.557 16.449,18.624 16.460,19.000 16.460 C 19.376 16.460,19.443 16.449,19.641 16.351 C 19.924 16.213,20.213 15.924,20.351 15.641 C 20.449 15.443,20.460 15.376,20.460 15.000 C 20.460 14.624,20.449 14.557,20.351 14.359 C 20.213 14.076,19.924 13.787,19.643 13.650 C 19.345 13.504,18.763 13.478,18.468 13.597 M5.344 14.656 C 5.464 14.776,5.480 14.817,5.480 15.000 C 5.480 15.183,5.464 15.224,5.344 15.344 C 5.224 15.464,5.183 15.480,5.000 15.480 C 4.698 15.480,4.520 15.302,4.520 15.000 C 4.520 14.698,4.698 14.520,5.000 14.520 C 5.183 14.520,5.224 14.536,5.344 14.656 M12.344 14.656 C 12.464 14.776,12.480 14.817,12.480 15.000 C 12.480 15.183,12.464 15.224,12.344 15.344 C 12.224 15.464,12.183 15.480,12.000 15.480 C 11.817 15.480,11.776 15.464,11.656 15.344 C 11.536 15.224,11.520 15.183,11.520 15.000 C 11.520 14.817,11.536 14.776,11.656 14.656 C 11.776 14.536,11.817 14.520,12.000 14.520 C 12.183 14.520,12.224 14.536,12.344 14.656 M19.344 14.656 C 19.464 14.776,19.480 14.817,19.480 15.000 C 19.480 15.183,19.464 15.224,19.344 15.344 C 19.224 15.464,19.183 15.480,19.000 15.480 C 18.817 15.480,18.776 15.464,18.656 15.344 C 18.536 15.224,18.520 15.183,18.520 15.000 C 18.520 14.817,18.536 14.776,18.656 14.656 C 18.776 14.536,18.817 14.520,19.000 14.520 C 19.183 14.520,19.224 14.536,19.344 14.656 " stroke="none" fill="black" fill-rule="evenodd"></path></svg>