<svg xmlns="http://www.w3.org/2000/svg" class="icon icon-tabler icon-tabler-grip-vertical" width="24" height="24" viewBox="0 0 24 24" stroke-width="1" stroke="currentColor" fill="none" stroke-linecap="round" stroke-linejoin="round"><path d="M8.468 3.597 C 8.055 3.763,7.691 4.152,7.575 4.552 C 7.480 4.879,7.514 5.364,7.651 5.646 C 7.787 5.924,8.077 6.213,8.359 6.351 C 8.557 6.449,8.624 6.460,9.000 6.460 C 9.376 6.460,9.443 6.449,9.641 6.351 C 9.924 6.213,10.213 5.924,10.351 5.641 C 10.449 5.443,10.460 5.376,10.460 5.000 C 10.460 4.624,10.449 4.557,10.351 4.359 C 10.213 4.076,9.924 3.787,9.643 3.650 C 9.345 3.504,8.763 3.478,8.468 3.597 M14.468 3.597 C 14.055 3.763,13.691 4.152,13.575 4.552 C 13.480 4.879,13.514 5.364,13.651 5.646 C 13.787 5.924,14.077 6.213,14.359 6.351 C 14.557 6.449,14.624 6.460,15.000 6.460 C 15.376 6.460,15.443 6.449,15.641 6.351 C 15.924 6.213,16.213 5.924,16.351 5.641 C 16.449 5.443,16.460 5.376,16.460 5.000 C 16.460 4.624,16.449 4.557,16.351 4.359 C 16.213 4.076,15.924 3.787,15.643 3.650 C 15.345 3.504,14.763 3.478,14.468 3.597 M9.344 4.656 C 9.464 4.776,9.480 4.817,9.480 5.000 C 9.480 5.183,9.464 5.224,9.344 5.344 C 9.224 5.464,9.183 5.480,9.000 5.480 C 8.817 5.480,8.776 5.464,8.656 5.344 C 8.536 5.224,8.520 5.183,8.520 5.000 C 8.520 4.817,8.536 4.776,8.656 4.656 C 8.776 4.536,8.817 4.520,9.000 4.520 C 9.183 4.520,9.224 4.536,9.344 4.656 M15.344 4.656 C 15.464 4.776,15.480 4.817,15.480 5.000 C 15.480 5.183,15.464 5.224,15.344 5.344 C 15.224 5.464,15.183 5.480,15.000 5.480 C 14.817 5.480,14.776 5.464,14.656 5.344 C 14.536 5.224,14.520 5.183,14.520 5.000 C 14.520 4.698,14.698 4.520,15.000 4.520 C 15.183 4.520,15.224 4.536,15.344 4.656 M8.468 10.597 C 8.055 10.763,7.691 11.152,7.575 11.552 C 7.480 11.879,7.514 12.364,7.651 12.646 C 7.787 12.924,8.077 13.213,8.359 13.351 C 8.557 13.449,8.624 13.460,9.000 13.460 C 9.376 13.460,9.443 13.449,9.641 13.351 C 9.924 13.213,10.213 12.924,10.351 12.641 C 10.449 12.443,10.460 12.376,10.460 12.000 C 10.460 11.624,10.449 11.557,10.351 11.359 C 10.213 11.076,9.924 10.787,9.643 10.650 C 9.345 10.504,8.763 10.478,8.468 10.597 M14.468 10.597 C 14.055 10.763,13.691 11.152,13.575 11.552 C 13.480 11.879,13.514 12.364,13.651 12.646 C 13.787 12.924,14.077 13.213,14.359 13.351 C 14.557 13.449,14.624 13.460,15.000 13.460 C 15.376 13.460,15.443 13.449,15.641 13.351 C 15.924 13.213,16.213 12.924,16.351 12.641 C 16.449 12.443,16.460 12.376,16.460 12.000 C 16.460 11.624,16.449 11.557,16.351 11.359 C 16.213 11.076,15.924 10.787,15.643 10.650 C 15.345 10.504,14.763 10.478,14.468 10.597 M9.344 11.656 C 9.464 11.776,9.480 11.817,9.480 12.000 C 9.480 12.183,9.464 12.224,9.344 12.344 C 9.224 12.464,9.183 12.480,9.000 12.480 C 8.817 12.480,8.776 12.464,8.656 12.344 C 8.536 12.224,8.520 12.183,8.520 12.000 C 8.520 11.817,8.536 11.776,8.656 11.656 C 8.776 11.536,8.817 11.520,9.000 11.520 C 9.183 11.520,9.224 11.536,9.344 11.656 M15.344 11.656 C 15.464 11.776,15.480 11.817,15.480 12.000 C 15.480 12.183,15.464 12.224,15.344 12.344 C 15.224 12.464,15.183 12.480,15.000 12.480 C 14.817 12.480,14.776 12.464,14.656 12.344 C 14.536 12.224,14.520 12.183,14.520 12.000 C 14.520 11.817,14.536 11.776,14.656 11.656 C 14.776 11.536,14.817 11.520,15.000 11.520 C 15.183 11.520,15.224 11.536,15.344 11.656 M8.468 17.597 C 8.055 17.763,7.691 18.152,7.575 18.552 C 7.480 18.879,7.514 19.364,7.651 19.646 C 7.787 19.924,8.077 20.213,8.359 20.351 C 8.557 20.449,8.624 20.460,9.000 20.460 C 9.376 20.460,9.443 20.449,9.641 20.351 C 9.924 20.213,10.213 19.924,10.351 19.641 C 10.449 19.443,10.460 19.376,10.460 19.000 C 10.460 18.624,10.449 18.557,10.351 18.359 C 10.213 18.076,9.924 17.787,9.643 17.650 C 9.345 17.504,8.763 17.478,8.468 17.597 M14.468 17.597 C 14.055 17.763,13.691 18.152,13.575 18.552 C 13.480 18.879,13.514 19.364,13.651 19.646 C 13.787 19.924,14.077 20.213,14.359 20.351 C 14.557 20.449,14.624 20.460,15.000 20.460 C 15.376 20.460,15.443 20.449,15.641 20.351 C 15.924 20.213,16.213 19.924,16.351 19.641 C 16.449 19.443,16.460 19.376,16.460 19.000 C 16.460 18.624,16.449 18.557,16.351 18.359 C 16.213 18.076,15.924 17.787,15.643 17.650 C 15.345 17.504,14.763 17.478,14.468 17.597 M9.344 18.656 C 9.464 18.776,9.480 18.817,9.480 19.000 C 9.480 19.183,9.464 19.224,9.344 19.344 C 9.224 19.464,9.183 19.480,9.000 19.480 C 8.817 19.480,8.776 19.464,8.656 19.344 C 8.536 19.224,8.520 19.183,8.520 19.000 C 8.520 18.817,8.536 18.776,8.656 18.656 C 8.776 18.536,8.817 18.520,9.000 18.520 C 9.183 18.520,9.224 18.536,9.344 18.656 M15.344 18.656 C 15.464 18.776,15.480 18.817,15.480 19.000 C 15.480 19.183,15.464 19.224,15.344 19.344 C 15.224 19.464,15.183 19.480,15.000 19.480 C 14.817 19.480,14.776 19.464,14.656 19.344 C 14.536 19.224,14.520 19.183,14.520 19.000 C 14.520 18.817,14.536 18.776,14.656 18.656 C 14.776 18.536,14.817 18.520,15.000 18.520 C 15.183 18.520,15.224 18.536,15.344 18.656 " stroke="none" fill="black" fill-rule="evenodd"></path></svg>