<svg xmlns="http://www.w3.org/2000/svg" class="icon icon-tabler icon-tabler-hand-middle-finger" width="24" height="24" viewBox="0 0 24 24" stroke-width="1" stroke="currentColor" fill="none" stroke-linecap="round" stroke-linejoin="round"><path d="M11.920 1.595 C 11.562 1.711,11.356 1.836,11.096 2.097 C 10.840 2.352,10.699 2.587,10.577 2.960 C 10.512 3.159,10.503 3.398,10.490 5.470 L 10.474 7.759 10.347 7.693 C 9.857 7.440,9.107 7.463,8.541 7.750 C 8.286 7.879,7.879 8.286,7.750 8.541 C 7.529 8.977,7.511 9.097,7.490 10.322 L 7.471 11.463 7.228 11.210 C 6.951 10.922,6.512 10.677,6.132 10.598 C 5.801 10.530,5.237 10.569,4.940 10.681 C 3.693 11.152,3.124 12.562,3.714 13.720 C 4.801 15.855,6.604 19.308,6.711 19.460 C 7.796 20.999,9.600 22.092,11.634 22.442 C 11.989 22.503,12.273 22.520,12.934 22.519 C 14.963 22.517,15.725 22.379,16.900 21.799 C 18.751 20.887,20.032 19.159,20.411 17.066 C 20.497 16.592,20.499 16.501,20.500 13.400 C 20.500 10.426,20.495 10.205,20.426 9.982 C 20.309 9.600,20.167 9.359,19.904 9.096 C 19.479 8.672,19.028 8.501,18.405 8.528 C 18.100 8.542,17.966 8.568,17.760 8.656 C 17.361 8.825,17.387 8.829,17.278 8.593 C 17.146 8.307,16.724 7.883,16.420 7.730 C 16.086 7.562,15.796 7.506,15.375 7.528 C 15.119 7.541,14.951 7.574,14.773 7.647 L 14.526 7.748 14.510 5.464 C 14.497 3.398,14.488 3.159,14.423 2.960 C 14.193 2.258,13.680 1.751,13.020 1.574 C 12.736 1.498,12.187 1.509,11.920 1.595 M13.023 2.662 C 13.143 2.736,13.264 2.857,13.339 2.978 L 13.460 3.174 13.480 7.657 C 13.495 11.128,13.511 12.160,13.550 12.227 C 13.746 12.569,14.254 12.569,14.450 12.227 C 14.486 12.164,14.505 11.734,14.520 10.657 L 14.540 9.173 14.661 8.978 C 14.736 8.857,14.857 8.736,14.978 8.661 C 15.154 8.552,15.207 8.540,15.500 8.540 C 15.793 8.540,15.846 8.552,16.022 8.661 C 16.143 8.736,16.264 8.857,16.339 8.978 L 16.460 9.173 16.480 10.657 C 16.495 11.734,16.514 12.164,16.550 12.227 C 16.746 12.569,17.256 12.569,17.450 12.227 C 17.483 12.168,17.506 11.827,17.519 11.157 L 17.540 10.173 17.661 9.978 C 17.736 9.857,17.857 9.736,17.978 9.661 C 18.154 9.552,18.207 9.540,18.500 9.540 C 18.793 9.540,18.846 9.552,19.022 9.661 C 19.143 9.736,19.264 9.857,19.339 9.978 L 19.460 10.174 19.471 13.337 C 19.484 16.864,19.480 16.931,19.219 17.712 C 18.656 19.393,17.334 20.706,15.670 21.235 C 15.029 21.440,14.662 21.482,13.340 21.507 C 12.163 21.528,12.130 21.527,11.640 21.426 C 10.687 21.230,9.802 20.865,9.042 20.357 C 8.606 20.065,7.975 19.474,7.666 19.067 C 7.516 18.870,7.021 17.951,6.088 16.140 C 5.341 14.688,4.680 13.413,4.620 13.308 C 4.476 13.054,4.445 12.702,4.538 12.381 C 4.629 12.067,4.961 11.726,5.276 11.621 C 5.696 11.482,6.251 11.608,6.524 11.906 C 6.582 11.969,6.840 12.431,7.098 12.933 C 7.602 13.912,7.672 14.000,7.954 14.000 C 8.145 14.000,8.352 13.889,8.432 13.745 C 8.493 13.633,8.502 13.393,8.520 11.397 L 8.540 9.174 8.661 8.978 C 8.736 8.857,8.857 8.736,8.978 8.661 C 9.154 8.552,9.207 8.540,9.500 8.540 C 9.793 8.540,9.846 8.552,10.022 8.661 C 10.143 8.736,10.264 8.857,10.339 8.978 L 10.460 9.173 10.480 10.657 C 10.495 11.734,10.514 12.164,10.550 12.227 C 10.707 12.501,11.095 12.573,11.321 12.370 C 11.395 12.304,11.459 12.196,11.481 12.100 C 11.502 12.008,11.518 10.109,11.519 7.609 C 11.520 2.897,11.508 3.161,11.740 2.856 C 11.794 2.786,11.933 2.680,12.049 2.622 C 12.230 2.530,12.300 2.517,12.544 2.528 C 12.776 2.539,12.863 2.563,13.023 2.662 " stroke="none" fill="black" fill-rule="evenodd"></path></svg>