<svg xmlns="http://www.w3.org/2000/svg" class="icon icon-tabler icon-tabler-hand-stop" width="24" height="24" viewBox="0 0 24 24" stroke-width="1" stroke="currentColor" fill="none" stroke-linecap="round" stroke-linejoin="round"><path d="M11.920 1.595 C 11.562 1.711,11.356 1.836,11.096 2.097 C 10.726 2.466,10.554 2.868,10.498 3.489 L 10.474 3.759 10.347 3.693 C 9.857 3.440,9.107 3.463,8.541 3.750 C 8.286 3.879,7.879 4.286,7.750 4.541 C 7.492 5.049,7.505 4.873,7.489 8.324 L 7.476 11.468 7.230 11.213 C 6.951 10.922,6.514 10.678,6.132 10.598 C 5.801 10.530,5.237 10.569,4.940 10.681 C 3.693 11.152,3.124 12.562,3.714 13.720 C 4.801 15.855,6.604 19.308,6.711 19.460 C 7.796 20.999,9.600 22.092,11.634 22.442 C 11.989 22.503,12.273 22.520,12.934 22.519 C 14.963 22.517,15.725 22.379,16.900 21.799 C 18.751 20.887,20.030 19.162,20.412 17.066 C 20.500 16.582,20.500 16.556,20.500 11.900 C 20.500 7.470,20.496 7.207,20.426 6.982 C 20.309 6.600,20.167 6.359,19.904 6.096 C 19.479 5.672,19.028 5.501,18.405 5.528 C 18.112 5.541,17.961 5.570,17.773 5.647 L 17.525 5.749 17.501 5.484 C 17.446 4.868,17.273 4.465,16.903 4.096 C 16.631 3.824,16.299 3.636,15.955 3.560 C 15.615 3.484,15.074 3.524,14.773 3.647 L 14.525 3.749 14.501 3.484 C 14.446 2.868,14.273 2.465,13.904 2.096 C 13.644 1.836,13.350 1.663,13.020 1.574 C 12.736 1.498,12.187 1.509,11.920 1.595 M13.023 2.662 C 13.143 2.736,13.264 2.857,13.339 2.978 L 13.460 3.174 13.480 7.657 C 13.495 11.128,13.511 12.160,13.550 12.227 C 13.746 12.569,14.254 12.569,14.450 12.227 C 14.488 12.160,14.505 11.330,14.520 8.657 L 14.540 5.174 14.661 4.978 C 14.736 4.857,14.857 4.736,14.978 4.661 C 15.154 4.552,15.207 4.540,15.500 4.540 C 15.793 4.540,15.846 4.552,16.022 4.661 C 16.143 4.736,16.264 4.857,16.339 4.978 L 16.460 5.174 16.480 8.657 C 16.495 11.330,16.512 12.160,16.550 12.227 C 16.746 12.569,17.254 12.569,17.450 12.227 C 17.488 12.161,17.505 11.532,17.520 9.657 L 17.540 7.174 17.661 6.978 C 17.736 6.857,17.857 6.736,17.978 6.661 C 18.154 6.552,18.207 6.540,18.500 6.540 C 18.793 6.540,18.846 6.552,19.022 6.661 C 19.143 6.736,19.264 6.857,19.339 6.978 L 19.460 7.174 19.471 11.837 C 19.484 17.021,19.489 16.905,19.219 17.712 C 18.656 19.393,17.334 20.706,15.670 21.235 C 15.029 21.440,14.662 21.482,13.340 21.507 C 12.163 21.528,12.130 21.527,11.640 21.426 C 10.687 21.230,9.802 20.865,9.042 20.357 C 8.606 20.065,7.975 19.474,7.666 19.067 C 7.516 18.870,7.021 17.951,6.088 16.140 C 5.341 14.688,4.680 13.413,4.620 13.308 C 4.476 13.054,4.445 12.702,4.538 12.381 C 4.629 12.067,4.961 11.726,5.276 11.621 C 5.696 11.482,6.251 11.608,6.524 11.906 C 6.582 11.969,6.840 12.431,7.098 12.933 C 7.602 13.912,7.672 14.000,7.954 14.000 C 8.145 14.000,8.352 13.889,8.432 13.745 C 8.494 13.630,8.502 13.279,8.520 9.397 L 8.540 5.174 8.661 4.978 C 8.736 4.857,8.857 4.736,8.978 4.661 C 9.154 4.552,9.207 4.540,9.500 4.540 C 9.793 4.540,9.846 4.552,10.022 4.661 C 10.143 4.736,10.264 4.857,10.339 4.978 L 10.460 5.174 10.480 8.657 C 10.495 11.330,10.512 12.160,10.550 12.227 C 10.707 12.501,11.095 12.573,11.321 12.370 C 11.395 12.304,11.459 12.196,11.481 12.100 C 11.502 12.008,11.518 10.109,11.519 7.609 C 11.520 2.897,11.508 3.161,11.740 2.856 C 11.794 2.786,11.933 2.680,12.049 2.622 C 12.230 2.530,12.300 2.517,12.544 2.528 C 12.776 2.539,12.863 2.563,13.023 2.662 " stroke="none" fill="black" fill-rule="evenodd"></path></svg>