<svg xmlns="http://www.w3.org/2000/svg" class="icon icon-tabler icon-tabler-hash" width="24" height="24" viewBox="0 0 24 24" stroke-width="1" stroke="currentColor" fill="none" stroke-linecap="round" stroke-linejoin="round"><path d="M10.663 3.650 C 10.539 3.775,10.509 3.879,9.942 6.150 L 9.350 8.520 7.071 8.520 L 4.792 8.520 4.656 8.656 C 4.537 8.775,4.520 8.817,4.520 8.995 C 4.520 9.250,4.657 9.425,4.900 9.481 C 4.988 9.501,5.965 9.519,7.070 9.519 C 8.651 9.520,9.080 9.531,9.079 9.570 C 9.078 9.598,8.803 10.718,8.466 12.060 L 7.855 14.500 6.304 14.520 L 4.753 14.540 4.637 14.671 C 4.541 14.778,4.520 14.837,4.520 15.000 C 4.520 15.249,4.659 15.426,4.900 15.481 C 4.988 15.501,5.633 15.519,6.333 15.519 C 7.526 15.520,7.604 15.524,7.584 15.590 C 7.424 16.122,6.520 19.887,6.520 20.023 C 6.520 20.180,6.541 20.229,6.656 20.344 C 6.776 20.464,6.817 20.480,7.000 20.480 C 7.182 20.480,7.224 20.463,7.337 20.350 C 7.460 20.226,7.490 20.123,8.015 18.020 C 8.317 16.810,8.582 15.752,8.603 15.670 L 8.643 15.520 11.124 15.520 C 13.469 15.520,13.604 15.524,13.584 15.590 C 13.424 16.122,12.520 19.887,12.520 20.023 C 12.520 20.180,12.541 20.229,12.656 20.344 C 12.776 20.464,12.817 20.480,13.000 20.480 C 13.182 20.480,13.224 20.463,13.337 20.350 C 13.460 20.226,13.490 20.123,14.015 18.020 C 14.317 16.810,14.582 15.752,14.603 15.670 L 14.643 15.520 16.792 15.519 C 17.973 15.519,19.012 15.501,19.100 15.481 C 19.343 15.425,19.480 15.250,19.480 14.995 C 19.480 14.817,19.463 14.775,19.344 14.656 L 19.208 14.520 17.064 14.520 C 15.376 14.520,14.920 14.509,14.919 14.470 C 14.918 14.443,15.193 13.318,15.529 11.970 L 16.139 9.520 17.540 9.519 C 18.310 9.519,19.012 9.501,19.100 9.481 C 19.343 9.425,19.480 9.250,19.480 8.995 C 19.480 8.817,19.463 8.775,19.344 8.656 L 19.208 8.520 17.804 8.520 C 17.032 8.520,16.400 8.511,16.400 8.499 C 16.400 8.488,16.643 7.507,16.940 6.320 C 17.243 5.107,17.480 4.080,17.480 3.977 C 17.480 3.820,17.459 3.771,17.344 3.656 C 17.224 3.536,17.183 3.520,17.000 3.520 C 16.818 3.520,16.776 3.537,16.663 3.650 C 16.539 3.775,16.509 3.879,15.942 6.150 L 15.350 8.520 12.875 8.520 C 11.514 8.520,10.400 8.511,10.400 8.499 C 10.400 8.488,10.643 7.507,10.940 6.320 C 11.243 5.107,11.480 4.080,11.480 3.977 C 11.480 3.820,11.459 3.771,11.344 3.656 C 11.224 3.536,11.183 3.520,11.000 3.520 C 10.818 3.520,10.776 3.537,10.663 3.650 M15.079 9.570 C 15.078 9.598,14.803 10.718,14.466 12.060 L 13.855 14.500 11.388 14.510 C 9.427 14.518,8.920 14.510,8.919 14.470 C 8.918 14.443,9.193 13.318,9.529 11.970 L 10.139 9.520 12.610 9.520 C 14.560 9.520,15.080 9.531,15.079 9.570 " stroke="none" fill="black" fill-rule="evenodd"></path></svg>