<svg width="32" height="32" viewBox="0 0 32 32" fill="none" xmlns="http://www.w3.org/2000/svg">
<path d="M5.79407 22C5.79407 21.6773 5.9114 21.4867 6.14607 21.428L7.26807 21.164V8.756L5.79407 8.448C5.79407 8.272 5.81607 8.14733 5.86007 8.074C5.91874 8.00067 6.02874 7.942 6.19007 7.898H9.95207C9.95207 8.23533 9.83474 8.426 9.60007 8.47L8.41207 8.756V14.52H16.4421V8.756L14.9461 8.448C14.9461 8.272 14.9681 8.14733 15.0121 8.074C15.0707 8.00067 15.1807 7.942 15.3421 7.898H19.1481C19.1481 8.23533 19.0307 8.426 18.7961 8.47L17.5861 8.756V21.12L19.1481 21.45C19.1481 21.6113 19.1187 21.736 19.0601 21.824C19.0161 21.8973 18.9134 21.956 18.7521 22H14.9461C14.9461 21.6773 15.0634 21.4867 15.2981 21.428L16.4421 21.164V15.18H8.41207V21.142L9.95207 21.45C9.95207 21.6113 9.92274 21.736 9.86407 21.824C9.82007 21.8973 9.7174 21.956 9.55607 22H5.79407ZM22.4295 22C22.4295 21.6933 22.5362 21.52 22.7495 21.48L24.2295 21.2V10.04L21.7095 10.56C21.6428 10.4667 21.6095 10.3733 21.6095 10.28C21.6095 10.1733 21.6228 10.0933 21.6495 10.04L24.8495 8.9H25.2495V21.18L27.0695 21.5C27.0695 21.6467 27.0428 21.76 26.9895 21.84C26.9495 21.9067 26.8562 21.96 26.7095 22H22.4295Z" fill="black"/>
</svg>
