<svg width="32" height="32" viewBox="0 0 32 32" fill="none" xmlns="http://www.w3.org/2000/svg">
<path d="M4.18274 22C4.18274 21.6773 4.30008 21.4867 4.53474 21.428L5.65674 21.164V8.756L4.18274 8.448C4.18274 8.272 4.20474 8.14733 4.24874 8.074C4.30741 8.00067 4.41741 7.942 4.57874 7.898H8.34074C8.34074 8.23533 8.22341 8.426 7.98874 8.47L6.80074 8.756V14.52H14.8307V8.756L13.3347 8.448C13.3347 8.272 13.3567 8.14733 13.4007 8.074C13.4594 8.00067 13.5694 7.942 13.7307 7.898H17.5367C17.5367 8.23533 17.4194 8.426 17.1847 8.47L15.9747 8.756V21.12L17.5367 21.45C17.5367 21.6113 17.5074 21.736 17.4487 21.824C17.4047 21.8973 17.3021 21.956 17.1407 22H13.3347C13.3347 21.6773 13.4521 21.4867 13.6867 21.428L14.8307 21.164V15.18H6.80074V21.142L8.34074 21.45C8.34074 21.6113 8.31141 21.736 8.25274 21.824C8.20874 21.8973 8.10608 21.956 7.94474 22H4.18274ZM20.6382 22C20.3182 21.9467 20.1582 21.7133 20.1582 21.3C22.4115 19.5533 24.0582 17.96 25.0982 16.52C26.1515 15.08 26.6782 13.6733 26.6782 12.3C26.6782 11.3667 26.4515 10.66 25.9982 10.18C25.5582 9.68667 24.9115 9.44 24.0582 9.44C23.0582 9.44 22.1915 9.77333 21.4582 10.44L21.3382 12.06C21.3248 12.3133 21.1448 12.44 20.7982 12.44L20.4782 10.02C21.7315 9.27333 22.9248 8.9 24.0582 8.9C25.2182 8.9 26.1382 9.21333 26.8182 9.84C27.5115 10.4667 27.8582 11.3067 27.8582 12.36C27.8582 13.64 27.2848 15.0467 26.1382 16.58C24.9915 18.1 23.3715 19.6267 21.2782 21.16L27.1582 21.48L27.6582 19C27.9382 19 28.1115 19.0933 28.1782 19.28V22H20.6382Z" fill="black"/>
</svg>
