<svg xmlns="http://www.w3.org/2000/svg" class="icon icon-tabler icon-tabler-headphones" width="24" height="24" viewBox="0 0 24 24" stroke-width="1" stroke="currentColor" fill="none" stroke-linecap="round" stroke-linejoin="round"><path d="M10.800 3.585 C 8.339 3.953,6.214 5.319,4.850 7.408 C 4.214 8.382,3.762 9.608,3.572 10.868 C 3.509 11.292,3.502 11.699,3.501 14.840 C 3.500 18.090,3.505 18.358,3.572 18.593 C 3.839 19.535,4.487 20.186,5.388 20.417 C 5.727 20.505,6.644 20.540,7.169 20.486 C 8.309 20.369,9.119 19.691,9.427 18.600 C 9.493 18.365,9.500 18.162,9.500 16.500 C 9.500 14.838,9.493 14.635,9.427 14.400 C 9.196 13.582,8.665 12.980,7.900 12.671 L 7.580 12.542 6.614 12.528 C 5.721 12.515,5.624 12.520,5.325 12.601 C 5.147 12.649,4.900 12.750,4.776 12.824 C 4.652 12.899,4.543 12.960,4.535 12.960 C 4.489 12.960,4.527 11.302,4.582 10.925 C 5.025 7.912,7.233 5.471,10.195 4.722 C 11.270 4.450,12.730 4.450,13.805 4.722 C 16.501 5.404,18.596 7.499,19.278 10.195 C 19.424 10.772,19.480 11.316,19.480 12.155 C 19.480 12.598,19.471 12.960,19.459 12.960 C 19.448 12.960,19.371 12.916,19.289 12.862 C 19.207 12.808,19.014 12.714,18.860 12.653 C 18.587 12.545,18.558 12.542,17.614 12.528 C 16.723 12.515,16.624 12.521,16.327 12.600 C 15.910 12.713,15.565 12.917,15.241 13.242 C 14.921 13.563,14.738 13.866,14.604 14.294 L 14.503 14.620 14.501 16.480 C 14.500 18.152,14.507 18.366,14.572 18.593 C 14.839 19.535,15.487 20.186,16.388 20.417 C 16.727 20.505,17.644 20.540,18.169 20.486 C 19.309 20.369,20.119 19.692,20.427 18.600 C 20.495 18.357,20.500 18.113,20.500 14.880 C 20.500 12.284,20.487 11.325,20.448 11.040 C 20.211 9.291,19.569 7.809,18.489 6.520 C 17.156 4.928,15.243 3.872,13.168 3.583 C 12.602 3.504,11.333 3.505,10.800 3.585 M7.641 13.649 C 7.924 13.787,8.213 14.076,8.351 14.359 L 8.460 14.580 8.460 16.500 C 8.460 18.703,8.476 18.598,8.077 19.020 C 7.811 19.301,7.551 19.427,7.120 19.485 C 6.696 19.542,5.814 19.507,5.535 19.422 C 5.140 19.302,4.752 18.930,4.597 18.522 C 4.525 18.333,4.520 18.198,4.520 16.500 C 4.520 14.802,4.525 14.667,4.597 14.478 C 4.743 14.093,5.082 13.751,5.468 13.598 C 5.639 13.530,5.755 13.523,6.540 13.531 C 7.408 13.540,7.423 13.542,7.641 13.649 M18.641 13.649 C 18.924 13.787,19.213 14.076,19.351 14.359 L 19.460 14.580 19.460 16.500 C 19.460 18.703,19.476 18.598,19.077 19.020 C 18.811 19.301,18.551 19.427,18.120 19.485 C 17.696 19.542,16.814 19.507,16.535 19.422 C 16.140 19.302,15.752 18.930,15.597 18.522 C 15.525 18.333,15.520 18.198,15.520 16.500 C 15.520 14.802,15.525 14.667,15.597 14.478 C 15.743 14.093,16.082 13.751,16.468 13.598 C 16.639 13.530,16.755 13.523,17.540 13.531 C 18.408 13.540,18.423 13.542,18.641 13.649 " stroke="none" fill="black" fill-rule="evenodd"></path></svg>