<svg width="32" height="32" viewBox="0 0 32 32" fill="none" xmlns="http://www.w3.org/2000/svg">
<path d="M15.55 7.38C15.8286 7.38 16.0413 7.468 16.188 7.644C16.3493 7.80533 16.43 8.02533 16.43 8.304V22.186C16.43 22.4647 16.3493 22.692 16.188 22.868C16.0413 23.0293 15.8286 23.11 15.55 23.11C15.2713 23.11 15.0513 23.0293 14.89 22.868C14.7286 22.692 14.648 22.4647 14.648 22.186V15.894H5.36397V22.186C5.36397 22.4647 5.2833 22.692 5.12197 22.868C4.96064 23.0293 4.74064 23.11 4.46197 23.11C4.1833 23.11 3.9633 23.0293 3.80197 22.868C3.6553 22.692 3.58197 22.4647 3.58197 22.186V8.304C3.58197 8.02533 3.6553 7.80533 3.80197 7.644C3.9633 7.468 4.1833 7.38 4.46197 7.38C4.74064 7.38 4.96064 7.468 5.12197 7.644C5.2833 7.80533 5.36397 8.02533 5.36397 8.304V14.354H14.648V8.304C14.648 8.02533 14.7286 7.80533 14.89 7.644C15.0513 7.468 15.2713 7.38 15.55 7.38ZM28.4998 21.62C28.7398 21.62 28.9265 21.68 29.0598 21.8C29.1932 21.92 29.2598 22.0867 29.2598 22.3C29.2598 22.7667 29.0065 23 28.4998 23H20.6598C20.4332 23 20.2465 22.9333 20.0998 22.8C19.9532 22.6533 19.8798 22.48 19.8798 22.28C19.8798 22.0267 19.9732 21.8067 20.1598 21.62L24.9798 16.32C25.6465 15.5733 26.1265 14.9067 26.4198 14.32C26.7265 13.72 26.8798 13.12 26.8798 12.52C26.8798 11.7467 26.6532 11.1533 26.1998 10.74C25.7598 10.3267 25.1332 10.12 24.3198 10.12C23.6798 10.12 23.0665 10.24 22.4798 10.48C21.8932 10.7067 21.3065 11.06 20.7198 11.54C20.5198 11.7 20.3332 11.78 20.1598 11.78C20.0132 11.78 19.8865 11.7133 19.7798 11.58C19.6732 11.4333 19.6198 11.26 19.6198 11.06C19.6198 10.78 19.7265 10.5533 19.9398 10.38C20.4865 9.87333 21.1532 9.47333 21.9398 9.18C22.7265 8.88667 23.5332 8.74 24.3598 8.74C25.6265 8.74 26.6332 9.07333 27.3798 9.74C28.1398 10.4067 28.5198 11.3067 28.5198 12.44C28.5198 13.2533 28.3332 14.0333 27.9598 14.78C27.5998 15.5267 26.9998 16.36 26.1598 17.28L22.1598 21.62H28.4998Z" fill="black"/>
</svg>
