<svg xmlns="http://www.w3.org/2000/svg" class="icon icon-tabler icon-tabler-headset" width="24" height="24" viewBox="0 0 24 24" stroke-width="1" stroke="currentColor" fill="none" stroke-linecap="round" stroke-linejoin="round"><path d="M10.800 3.585 C 8.339 3.953,6.214 5.319,4.850 7.408 C 4.386 8.120,3.977 9.066,3.764 9.922 C 3.520 10.899,3.513 11.006,3.492 14.000 C 3.470 16.960,3.487 17.359,3.656 17.843 C 3.902 18.552,4.492 19.130,5.207 19.364 C 5.459 19.447,5.576 19.460,6.040 19.459 C 6.553 19.457,6.596 19.451,6.900 19.328 C 7.664 19.021,8.199 18.416,8.426 17.600 C 8.489 17.373,8.498 17.171,8.498 16.000 C 8.498 14.829,8.489 14.627,8.426 14.400 C 8.198 13.583,7.660 12.974,6.900 12.674 C 6.624 12.565,6.517 12.545,6.120 12.529 C 5.731 12.514,5.608 12.525,5.330 12.600 C 5.149 12.648,4.900 12.750,4.776 12.824 C 4.652 12.899,4.543 12.960,4.535 12.960 C 4.489 12.960,4.527 11.302,4.582 10.925 C 5.025 7.912,7.233 5.471,10.195 4.722 C 11.270 4.450,12.730 4.450,13.805 4.722 C 16.501 5.404,18.596 7.499,19.278 10.195 C 19.424 10.772,19.480 11.316,19.480 12.155 C 19.480 12.598,19.471 12.960,19.459 12.960 C 19.448 12.960,19.371 12.916,19.289 12.862 C 18.969 12.651,18.613 12.549,18.120 12.529 C 17.731 12.514,17.608 12.525,17.333 12.599 C 16.910 12.713,16.566 12.916,16.241 13.242 C 15.918 13.566,15.735 13.870,15.608 14.294 C 15.519 14.594,15.509 14.706,15.491 15.680 C 15.468 16.895,15.508 17.418,15.656 17.843 C 15.894 18.527,16.487 19.125,17.142 19.339 C 17.273 19.382,17.387 19.422,17.395 19.427 C 17.434 19.452,17.176 19.820,16.992 20.000 C 16.146 20.833,14.471 21.388,12.539 21.477 C 12.164 21.494,11.819 21.528,11.772 21.554 C 11.606 21.642,11.520 21.798,11.520 22.009 C 11.520 22.182,11.538 22.226,11.656 22.344 L 11.792 22.480 12.326 22.480 C 13.674 22.480,15.244 22.144,16.353 21.619 C 17.389 21.128,18.155 20.387,18.388 19.650 C 18.437 19.496,18.474 19.440,18.529 19.440 C 18.687 19.440,19.233 19.190,19.488 19.001 C 19.942 18.666,20.261 18.190,20.427 17.600 C 20.495 17.359,20.500 17.129,20.499 14.380 C 20.499 12.205,20.485 11.319,20.448 11.040 C 20.213 9.296,19.569 7.810,18.489 6.520 C 17.156 4.928,15.243 3.872,13.168 3.583 C 12.602 3.504,11.333 3.505,10.800 3.585 M6.641 13.649 C 6.924 13.787,7.213 14.076,7.351 14.359 L 7.460 14.580 7.460 16.000 C 7.460 17.377,7.457 17.426,7.372 17.610 C 7.250 17.875,6.912 18.218,6.644 18.350 C 6.443 18.449,6.377 18.460,6.000 18.460 C 5.624 18.460,5.557 18.449,5.359 18.351 C 5.076 18.213,4.787 17.924,4.649 17.641 L 4.540 17.420 4.529 16.054 C 4.518 14.779,4.522 14.675,4.595 14.482 C 4.743 14.094,5.080 13.752,5.468 13.597 C 5.766 13.478,6.345 13.503,6.641 13.649 M18.641 13.649 C 18.924 13.787,19.213 14.076,19.351 14.359 L 19.460 14.580 19.460 16.000 C 19.460 17.377,19.457 17.426,19.372 17.610 C 19.250 17.875,18.912 18.218,18.644 18.350 C 18.443 18.449,18.377 18.460,18.000 18.460 C 17.624 18.460,17.557 18.449,17.359 18.351 C 17.076 18.213,16.787 17.924,16.649 17.641 L 16.540 17.420 16.529 16.054 C 16.518 14.779,16.522 14.675,16.595 14.482 C 16.743 14.094,17.080 13.752,17.468 13.597 C 17.766 13.478,18.345 13.503,18.641 13.649 " stroke="none" fill="black" fill-rule="evenodd"></path></svg>