<svg width="32" height="32" viewBox="0 0 32 32" fill="none" xmlns="http://www.w3.org/2000/svg">
<path d="M15.55 7.38C15.8286 7.38 16.0413 7.468 16.188 7.644C16.3493 7.80533 16.43 8.02533 16.43 8.304V22.186C16.43 22.4647 16.3493 22.692 16.188 22.868C16.0413 23.0293 15.8286 23.11 15.55 23.11C15.2713 23.11 15.0513 23.0293 14.89 22.868C14.7286 22.692 14.648 22.4647 14.648 22.186V15.894H5.36397V22.186C5.36397 22.4647 5.2833 22.692 5.12197 22.868C4.96064 23.0293 4.74064 23.11 4.46197 23.11C4.1833 23.11 3.9633 23.0293 3.80197 22.868C3.6553 22.692 3.58197 22.4647 3.58197 22.186V8.304C3.58197 8.02533 3.6553 7.80533 3.80197 7.644C3.9633 7.468 4.1833 7.38 4.46197 7.38C4.74064 7.38 4.96064 7.468 5.12197 7.644C5.2833 7.80533 5.36397 8.02533 5.36397 8.304V14.354H14.648V8.304C14.648 8.02533 14.7286 7.80533 14.89 7.644C15.0513 7.468 15.2713 7.38 15.55 7.38ZM28.1798 21.62C28.4198 21.62 28.6065 21.68 28.7398 21.8C28.8732 21.92 28.9398 22.0867 28.9398 22.3C28.9398 22.5267 28.8732 22.7 28.7398 22.82C28.6198 22.94 28.4332 23 28.1798 23H21.5598C21.3065 23 21.1132 22.94 20.9798 22.82C20.8598 22.7 20.7998 22.5267 20.7998 22.3C20.7998 22.0867 20.8665 21.92 20.9998 21.8C21.1332 21.68 21.3198 21.62 21.5598 21.62H24.0398V10.9L21.8598 12.32C21.7532 12.3867 21.6465 12.42 21.5398 12.42C21.3532 12.42 21.1865 12.3333 21.0398 12.16C20.9065 11.9867 20.8398 11.8 20.8398 11.6C20.8398 11.32 20.9465 11.12 21.1598 11L24.1998 9.02C24.4265 8.87333 24.6598 8.8 24.8998 8.8C25.1265 8.8 25.3132 8.87333 25.4598 9.02C25.6065 9.16667 25.6798 9.37333 25.6798 9.64V21.62H28.1798Z" fill="black"/>
</svg>
