<svg xmlns="http://www.w3.org/2000/svg" class="icon icon-tabler icon-tabler-heart" width="24" height="24" viewBox="0 0 24 24" stroke-width="1" stroke="currentColor" fill="none" stroke-linecap="round" stroke-linejoin="round"><path d="M7.457 5.140 C 5.894 5.416,4.572 6.387,3.859 7.784 C 3.500 8.488,3.343 9.161,3.343 10.000 C 3.343 11.078,3.644 12.021,4.260 12.876 C 4.405 13.077,5.718 14.418,8.130 16.830 L 11.781 20.480 12.000 20.480 L 12.219 20.480 15.870 16.830 C 18.282 14.418,19.595 13.077,19.740 12.876 C 20.144 12.316,20.424 11.672,20.583 10.940 C 20.679 10.498,20.679 9.501,20.583 9.061 C 20.351 7.999,19.900 7.178,19.154 6.458 C 18.175 5.514,16.917 5.037,15.560 5.095 C 14.340 5.146,13.307 5.572,12.394 6.399 C 12.040 6.719,11.961 6.720,11.626 6.416 C 10.962 5.811,10.163 5.387,9.332 5.197 C 8.863 5.090,7.906 5.060,7.457 5.140 M9.155 6.178 C 9.792 6.336,10.412 6.670,10.880 7.109 C 11.050 7.268,11.286 7.448,11.404 7.509 C 11.597 7.608,11.661 7.620,12.000 7.618 C 12.488 7.616,12.645 7.546,13.092 7.133 C 13.791 6.485,14.579 6.148,15.523 6.093 C 17.402 5.984,19.061 7.193,19.547 9.025 C 19.637 9.365,19.652 9.501,19.652 10.000 C 19.652 10.499,19.637 10.635,19.547 10.975 C 19.414 11.477,19.185 11.950,18.883 12.347 C 18.748 12.525,17.205 14.099,15.323 15.980 L 12.000 19.300 8.677 15.980 C 6.795 14.099,5.252 12.525,5.117 12.347 C 4.815 11.950,4.586 11.477,4.453 10.975 C 4.363 10.635,4.348 10.499,4.348 10.000 C 4.348 9.501,4.363 9.365,4.453 9.025 C 4.852 7.522,6.030 6.431,7.573 6.137 C 7.933 6.068,8.800 6.091,9.155 6.178 " stroke="none" fill="black" fill-rule="evenodd"></path></svg>