<svg xmlns="http://www.w3.org/2000/svg" class="icon icon-tabler icon-tabler-help" width="24" height="24" viewBox="0 0 24 24" stroke-width="1" stroke="currentColor" fill="none" stroke-linecap="round" stroke-linejoin="round"><path d="M10.900 2.564 C 9.092 2.784,7.444 3.481,6.020 4.628 C 4.323 5.995,3.091 8.034,2.679 10.160 C 2.468 11.247,2.468 12.755,2.679 13.840 C 3.019 15.591,3.905 17.278,5.170 18.585 C 6.746 20.212,8.748 21.195,10.991 21.441 C 11.569 21.505,12.996 21.471,13.520 21.382 C 16.578 20.862,19.166 18.939,20.519 16.180 C 21.189 14.815,21.480 13.549,21.480 12.000 C 21.480 10.487,21.202 9.243,20.562 7.900 C 19.798 6.294,18.506 4.858,16.968 3.907 C 15.800 3.185,14.424 2.710,13.072 2.562 C 12.621 2.513,11.309 2.514,10.900 2.564 M13.160 3.581 C 14.081 3.712,14.852 3.948,15.700 4.360 C 16.622 4.807,17.277 5.273,18.002 5.998 C 19.251 7.248,20.028 8.728,20.365 10.500 C 20.470 11.053,20.512 12.362,20.444 12.946 C 20.245 14.630,19.576 16.182,18.485 17.486 C 17.115 19.122,15.119 20.188,12.946 20.444 C 12.362 20.512,11.053 20.470,10.500 20.365 C 7.839 19.860,5.635 18.221,4.428 15.851 C 4.054 15.115,3.799 14.359,3.635 13.500 C 3.515 12.874,3.486 11.525,3.577 10.868 C 4.105 7.087,7.016 4.152,10.800 3.585 C 11.320 3.507,12.623 3.505,13.160 3.581 M11.440 6.539 C 10.720 6.700,10.098 7.078,9.673 7.614 C 9.542 7.780,9.520 7.836,9.520 8.008 C 9.520 8.182,9.538 8.226,9.656 8.344 C 9.776 8.464,9.817 8.480,9.998 8.480 C 10.203 8.480,10.208 8.477,10.516 8.169 C 10.992 7.693,11.472 7.480,12.067 7.480 C 12.641 7.480,13.125 7.683,13.541 8.099 C 13.968 8.526,14.159 8.977,14.160 9.562 C 14.160 10.143,13.949 10.653,13.537 11.060 C 13.308 11.287,13.178 11.367,12.627 11.621 C 12.498 11.681,12.278 11.837,12.136 11.970 C 11.610 12.462,11.349 13.332,11.592 13.786 C 11.644 13.881,11.869 14.000,12.000 14.000 C 12.131 14.000,12.357 13.881,12.408 13.785 C 12.433 13.738,12.476 13.551,12.503 13.368 C 12.576 12.874,12.770 12.624,13.220 12.448 C 13.600 12.298,13.940 12.068,14.260 11.742 C 14.914 11.077,15.188 10.368,15.148 9.440 C 15.090 8.094,14.252 7.017,12.940 6.600 C 12.576 6.485,11.821 6.454,11.440 6.539 M11.656 16.656 C 11.537 16.775,11.520 16.818,11.520 16.993 C 11.520 17.150,11.542 17.220,11.621 17.314 C 11.758 17.477,11.957 17.540,12.139 17.480 C 12.357 17.408,12.480 17.233,12.480 16.993 C 12.480 16.818,12.463 16.775,12.344 16.656 C 12.224 16.536,12.183 16.520,12.000 16.520 C 11.817 16.520,11.776 16.536,11.656 16.656 " stroke="none" fill="black" fill-rule="evenodd"></path></svg>