<svg xmlns="http://www.w3.org/2000/svg" class="icon icon-tabler icon-tabler-hexagon" width="24" height="24" viewBox="0 0 24 24" stroke-width="1" stroke="currentColor" fill="none" stroke-linecap="round" stroke-linejoin="round"><path d="M11.412 2.861 C 11.297 2.892,11.135 2.946,11.052 2.980 C 10.968 3.014,9.479 3.829,7.742 4.791 C 4.596 6.533,4.583 6.541,4.257 6.860 C 3.989 7.122,3.901 7.241,3.769 7.520 C 3.488 8.114,3.500 7.913,3.500 11.900 C 3.500 15.225,3.505 15.520,3.571 15.757 C 3.720 16.297,4.049 16.803,4.448 17.110 C 4.744 17.337,10.971 20.788,11.218 20.862 C 11.769 21.027,12.269 21.024,12.800 20.852 C 13.071 20.765,19.258 17.336,19.552 17.110 C 19.951 16.803,20.273 16.307,20.427 15.760 C 20.495 15.517,20.500 15.265,20.500 11.900 C 20.500 7.879,20.514 8.100,20.214 7.480 C 20.103 7.251,19.991 7.104,19.743 6.860 C 19.419 6.540,19.414 6.538,16.299 4.814 C 14.584 3.865,13.108 3.053,13.020 3.009 C 12.616 2.809,11.862 2.740,11.412 2.861 M12.523 3.894 C 12.919 4.056,18.839 7.369,19.021 7.529 C 19.127 7.623,19.249 7.790,19.329 7.951 L 19.460 8.218 19.460 11.899 L 19.460 15.580 19.352 15.800 C 19.135 16.240,19.102 16.261,15.723 18.138 C 13.998 19.097,12.513 19.902,12.423 19.928 C 12.202 19.993,11.736 19.985,11.537 19.913 C 11.447 19.881,9.971 19.076,8.257 18.124 C 4.901 16.262,4.863 16.237,4.648 15.800 L 4.540 15.580 4.540 11.880 L 4.540 8.180 4.677 7.927 C 4.752 7.788,4.891 7.607,4.985 7.524 C 5.116 7.409,10.644 4.300,11.360 3.938 C 11.579 3.828,11.678 3.807,12.000 3.804 C 12.226 3.803,12.355 3.825,12.523 3.894 " stroke="none" fill="black" fill-rule="evenodd"></path></svg>