<svg xmlns="http://www.w3.org/2000/svg" class="icon icon-tabler icon-tabler-history" width="24" height="24" viewBox="0 0 24 24" stroke-width="1" stroke="currentColor" fill="none" stroke-linecap="round" stroke-linejoin="round"><path d="M11.480 2.427 C 9.640 2.527,7.779 3.209,6.284 4.332 C 5.815 4.684,5.092 5.376,4.686 5.860 C 4.109 6.549,3.520 7.541,3.185 8.385 C 2.883 9.146,2.630 10.148,2.575 10.808 C 2.536 11.269,2.683 11.480,3.046 11.480 C 3.189 11.480,3.263 11.456,3.354 11.379 C 3.495 11.260,3.537 11.141,3.600 10.680 C 3.918 8.336,5.315 6.146,7.337 4.818 C 8.751 3.890,10.270 3.433,11.960 3.428 C 13.559 3.423,15.006 3.809,16.314 4.589 C 20.155 6.880,21.582 11.655,19.622 15.660 C 18.359 18.240,15.919 19.976,13.041 20.341 C 12.329 20.432,11.181 20.406,10.537 20.285 C 8.199 19.845,6.221 18.552,4.932 16.620 C 4.710 16.287,4.320 15.604,4.320 15.548 C 4.320 15.534,5.192 15.518,6.257 15.512 C 8.142 15.500,8.197 15.498,8.307 15.417 C 8.369 15.372,8.454 15.267,8.495 15.184 C 8.559 15.055,8.563 15.009,8.524 14.879 C 8.499 14.795,8.423 14.680,8.356 14.623 L 8.234 14.520 5.546 14.520 C 2.595 14.520,2.751 14.507,2.620 14.760 C 2.569 14.860,2.560 15.250,2.560 17.500 C 2.560 20.330,2.556 20.268,2.769 20.418 C 2.900 20.510,3.206 20.498,3.335 20.397 C 3.542 20.234,3.539 20.265,3.560 18.226 L 3.580 16.313 3.758 16.626 C 4.978 18.770,7.086 20.408,9.467 21.061 C 10.421 21.323,10.864 21.379,11.980 21.379 C 13.076 21.380,13.440 21.339,14.336 21.115 C 17.794 20.250,20.496 17.464,21.281 13.956 C 21.481 13.058,21.551 11.740,21.444 10.860 C 21.179 8.682,20.230 6.711,18.720 5.200 C 16.810 3.291,14.172 2.280,11.480 2.427 M11.679 7.630 C 11.605 7.696,11.541 7.804,11.519 7.900 C 11.471 8.108,11.471 11.891,11.519 12.098 C 11.550 12.234,11.715 12.416,12.669 13.368 L 13.783 14.480 13.995 14.480 C 14.184 14.480,14.223 14.465,14.344 14.344 C 14.464 14.224,14.480 14.184,14.480 13.996 L 14.480 13.784 13.500 12.801 L 12.520 11.818 12.519 9.939 C 12.519 8.906,12.501 7.988,12.481 7.900 C 12.426 7.659,12.249 7.520,12.000 7.520 C 11.840 7.520,11.778 7.541,11.679 7.630 " stroke="none" fill="black" fill-rule="evenodd"></path></svg>