<svg xmlns="http://www.w3.org/2000/svg" class="icon icon-tabler icon-tabler-home" width="24" height="24" viewBox="0 0 24 24" stroke-width="1" stroke="currentColor" fill="none" stroke-linecap="round" stroke-linejoin="round"><path d="M7.150 7.150 L 2.520 11.780 2.520 11.990 C 2.520 12.161,2.540 12.221,2.630 12.321 C 2.781 12.490,2.941 12.518,3.768 12.519 L 4.476 12.520 4.490 15.950 C 4.504 19.067,4.512 19.401,4.575 19.614 C 4.851 20.541,5.458 21.150,6.380 21.425 C 6.604 21.491,6.964 21.497,11.700 21.510 C 14.980 21.519,16.925 21.509,17.189 21.483 C 18.296 21.372,19.107 20.695,19.424 19.620 C 19.489 19.401,19.496 19.085,19.510 15.950 L 19.524 12.520 20.232 12.519 C 21.059 12.518,21.219 12.490,21.370 12.321 C 21.460 12.221,21.480 12.161,21.480 11.990 L 21.480 11.780 16.850 7.150 L 12.220 2.520 12.000 2.520 L 11.780 2.520 7.150 7.150 M15.890 7.590 C 18.018 9.718,19.760 11.475,19.760 11.493 C 19.760 11.511,19.557 11.520,19.308 11.513 C 18.813 11.499,18.713 11.531,18.571 11.749 C 18.505 11.849,18.499 12.112,18.480 15.638 L 18.460 19.420 18.350 19.644 C 18.220 19.909,17.874 20.252,17.626 20.362 C 17.369 20.475,16.983 20.518,16.213 20.519 L 15.525 20.520 15.510 17.570 C 15.495 14.902,15.487 14.597,15.424 14.380 C 15.187 13.572,14.658 12.978,13.900 12.670 L 13.580 12.540 12.111 12.528 C 10.713 12.516,10.627 12.520,10.324 12.601 C 9.910 12.713,9.564 12.918,9.241 13.242 C 8.921 13.563,8.737 13.866,8.605 14.294 L 8.503 14.620 8.489 17.575 L 8.475 20.530 7.607 20.510 C 6.630 20.487,6.455 20.452,6.135 20.216 C 5.891 20.035,5.697 19.784,5.597 19.522 C 5.523 19.327,5.520 19.174,5.520 15.630 C 5.520 12.196,5.515 11.930,5.450 11.803 C 5.315 11.538,5.213 11.498,4.697 11.513 C 4.446 11.520,4.240 11.511,4.240 11.493 C 4.240 11.458,11.965 3.720,12.000 3.720 C 12.011 3.720,13.761 5.461,15.890 7.590 M13.641 13.649 C 13.924 13.787,14.213 14.076,14.351 14.359 L 14.460 14.580 14.471 17.550 L 14.482 20.520 12.001 20.520 L 9.520 20.520 9.520 17.600 C 9.520 14.816,9.524 14.671,9.597 14.478 C 9.743 14.093,10.083 13.750,10.468 13.598 C 10.645 13.528,10.767 13.523,12.040 13.531 L 13.420 13.540 13.641 13.649 " stroke="none" fill="black" fill-rule="evenodd"></path></svg>