<svg xmlns="http://www.w3.org/2000/svg" class="icon icon-tabler icon-tabler-home-2" width="24" height="24" viewBox="0 0 24 24" stroke-width="1" stroke="currentColor" fill="none" stroke-linecap="round" stroke-linejoin="round"><path d="M7.150 7.150 L 2.520 11.780 2.520 11.990 C 2.520 12.161,2.540 12.221,2.630 12.321 C 2.781 12.490,2.941 12.518,3.768 12.519 L 4.476 12.520 4.490 15.950 C 4.504 19.067,4.512 19.401,4.575 19.614 C 4.851 20.541,5.458 21.150,6.380 21.425 C 6.604 21.491,6.964 21.497,11.700 21.510 C 14.980 21.519,16.925 21.509,17.189 21.483 C 18.296 21.372,19.107 20.695,19.424 19.620 C 19.489 19.401,19.496 19.085,19.510 15.950 L 19.524 12.520 20.232 12.519 C 21.059 12.518,21.219 12.490,21.370 12.321 C 21.460 12.221,21.480 12.161,21.480 11.990 L 21.480 11.780 16.850 7.150 L 12.220 2.520 12.000 2.520 L 11.780 2.520 7.150 7.150 M15.890 7.590 C 18.018 9.718,19.760 11.475,19.760 11.493 C 19.760 11.511,19.557 11.520,19.308 11.513 C 18.813 11.499,18.713 11.531,18.571 11.749 C 18.505 11.849,18.499 12.112,18.480 15.638 L 18.460 19.420 18.350 19.644 C 18.220 19.909,17.874 20.252,17.626 20.362 C 17.530 20.404,17.327 20.457,17.176 20.479 C 16.802 20.533,7.199 20.533,6.820 20.478 C 6.666 20.456,6.449 20.394,6.339 20.341 C 6.075 20.212,5.784 19.918,5.649 19.641 L 5.540 19.420 5.520 15.638 C 5.501 12.112,5.495 11.849,5.429 11.749 C 5.287 11.531,5.187 11.499,4.692 11.513 C 4.443 11.520,4.240 11.511,4.240 11.493 C 4.240 11.458,11.965 3.720,12.000 3.720 C 12.011 3.720,13.761 5.461,15.890 7.590 M9.660 11.652 C 9.555 11.757,9.522 11.828,9.501 12.002 C 9.487 12.122,9.481 13.103,9.487 14.182 C 9.501 16.338,9.492 16.261,9.749 16.429 C 9.848 16.495,10.019 16.500,12.000 16.500 C 13.981 16.500,14.152 16.495,14.251 16.429 C 14.508 16.261,14.499 16.338,14.513 14.182 C 14.519 13.103,14.513 12.122,14.499 12.002 C 14.478 11.828,14.445 11.757,14.340 11.652 L 14.208 11.520 12.000 11.520 L 9.792 11.520 9.660 11.652 M13.480 14.020 L 13.480 15.520 12.000 15.520 L 10.520 15.520 10.520 14.020 L 10.520 12.520 12.000 12.520 L 13.480 12.520 13.480 14.020 " stroke="none" fill="black" fill-rule="evenodd"></path></svg>