<svg xmlns="http://www.w3.org/2000/svg" class="icon icon-tabler icon-tabler-ice-cream" width="24" height="24" viewBox="0 0 24 24" stroke-width="1" stroke="currentColor" fill="none" stroke-linecap="round" stroke-linejoin="round"><path d="M14.720 4.266 C 13.870 4.326,13.069 4.597,12.340 5.072 C 12.131 5.209,11.116 6.196,8.326 8.978 C 6.022 11.274,4.569 12.751,4.534 12.834 C 4.416 13.105,4.429 13.120,5.913 14.610 L 7.299 16.000 5.409 17.891 L 3.520 19.782 3.520 19.995 C 3.520 20.184,3.535 20.223,3.656 20.344 C 3.777 20.465,3.816 20.480,4.005 20.480 L 4.218 20.480 6.109 18.591 L 8.000 16.701 9.390 18.087 C 10.880 19.571,10.895 19.584,11.166 19.466 C 11.248 19.431,12.725 17.980,15.005 15.694 C 18.825 11.865,18.911 11.772,19.230 11.140 C 19.799 10.011,19.891 8.630,19.474 7.449 C 19.217 6.720,18.881 6.192,18.324 5.639 C 17.779 5.098,17.201 4.738,16.508 4.506 C 15.986 4.332,15.233 4.231,14.720 4.266 M15.360 5.282 C 17.042 5.454,18.347 6.656,18.683 8.340 C 18.709 8.472,18.731 8.769,18.731 9.000 C 18.731 9.787,18.523 10.459,18.069 11.140 C 17.969 11.290,16.618 12.674,14.455 14.840 L 11.001 18.300 8.350 15.650 L 5.700 12.999 9.160 9.545 C 11.326 7.382,12.710 6.031,12.860 5.931 C 13.395 5.575,14.009 5.344,14.580 5.284 C 14.756 5.266,14.912 5.248,14.926 5.245 C 14.940 5.242,15.135 5.259,15.360 5.282 " stroke="none" fill="black" fill-rule="evenodd"></path></svg>