<svg xmlns="http://www.w3.org/2000/svg" class="icon icon-tabler icon-tabler-id" width="24" height="24" viewBox="0 0 24 24" stroke-width="1" stroke="currentColor" fill="none" stroke-linecap="round" stroke-linejoin="round"><path d="M5.259 3.578 C 4.613 3.720,3.929 4.108,3.471 4.594 C 2.910 5.189,2.594 5.897,2.521 6.725 C 2.467 7.336,2.467 16.666,2.521 17.276 C 2.599 18.158,2.915 18.835,3.540 19.460 C 4.165 20.085,4.842 20.401,5.724 20.479 C 6.340 20.533,17.660 20.533,18.276 20.479 C 20.018 20.325,21.325 19.018,21.479 17.275 C 21.533 16.666,21.533 7.334,21.479 6.725 C 21.408 5.920,21.097 5.205,20.571 4.637 C 20.147 4.179,19.696 3.888,19.079 3.672 L 18.700 3.540 12.100 3.533 C 6.765 3.527,5.454 3.536,5.259 3.578 M18.834 4.635 C 19.147 4.752,19.619 5.063,19.818 5.283 C 20.048 5.538,20.266 5.898,20.368 6.192 L 20.460 6.460 20.460 12.000 L 20.460 17.540 20.368 17.808 C 20.190 18.320,19.844 18.765,19.378 19.076 C 19.023 19.313,18.682 19.432,18.213 19.481 C 17.748 19.530,6.252 19.530,5.787 19.481 C 5.186 19.418,4.719 19.212,4.283 18.818 C 4.063 18.619,3.752 18.147,3.635 17.834 L 3.540 17.580 3.529 12.104 C 3.520 7.250,3.526 6.600,3.581 6.384 C 3.761 5.679,4.248 5.080,4.900 4.759 C 5.407 4.510,4.965 4.524,12.080 4.532 L 18.580 4.540 18.834 4.635 M8.274 7.613 C 7.869 7.736,7.560 7.923,7.242 8.241 C 6.718 8.764,6.500 9.331,6.528 10.098 C 6.541 10.446,6.567 10.603,6.652 10.839 C 6.908 11.557,7.492 12.130,8.207 12.364 C 8.459 12.447,8.576 12.460,9.040 12.459 C 9.553 12.457,9.596 12.451,9.900 12.328 C 10.882 11.933,11.480 11.053,11.480 10.000 C 11.480 8.947,10.879 8.061,9.900 7.673 C 9.612 7.559,9.530 7.545,9.080 7.533 C 8.647 7.521,8.539 7.532,8.274 7.613 M14.656 7.656 C 14.537 7.775,14.520 7.817,14.520 7.995 C 14.520 8.250,14.657 8.425,14.900 8.481 C 15.108 8.529,16.892 8.529,17.100 8.481 C 17.343 8.425,17.480 8.250,17.480 7.995 C 17.480 7.817,17.463 7.775,17.344 7.656 L 17.208 7.520 16.000 7.520 L 14.792 7.520 14.656 7.656 M9.641 8.649 C 9.924 8.787,10.213 9.076,10.351 9.359 C 10.449 9.557,10.460 9.624,10.460 10.000 C 10.460 10.348,10.445 10.453,10.372 10.610 C 10.250 10.875,9.912 11.218,9.644 11.350 C 9.443 11.449,9.377 11.460,9.000 11.460 C 8.624 11.460,8.557 11.449,8.359 11.351 C 8.076 11.213,7.787 10.924,7.649 10.641 C 7.499 10.337,7.474 9.802,7.593 9.488 C 7.743 9.094,8.077 8.753,8.468 8.597 C 8.766 8.478,9.345 8.503,9.641 8.649 M14.656 11.656 C 14.537 11.775,14.520 11.817,14.520 11.995 C 14.520 12.250,14.657 12.425,14.900 12.481 C 14.988 12.501,15.483 12.518,16.000 12.518 C 16.517 12.518,17.012 12.501,17.100 12.481 C 17.343 12.425,17.480 12.250,17.480 11.995 C 17.480 11.817,17.463 11.775,17.344 11.656 L 17.208 11.520 16.000 11.520 L 14.792 11.520 14.656 11.656 M6.656 15.656 C 6.537 15.775,6.520 15.817,6.520 15.995 C 6.520 16.250,6.657 16.425,6.900 16.481 C 7.113 16.530,16.887 16.530,17.100 16.481 C 17.343 16.425,17.480 16.250,17.480 15.995 C 17.480 15.817,17.463 15.775,17.344 15.656 L 17.208 15.520 12.000 15.520 L 6.792 15.520 6.656 15.656 " stroke="none" fill="black" fill-rule="evenodd"></path></svg>