<svg xmlns="http://www.w3.org/2000/svg" class="icon icon-tabler icon-tabler-indent-increase" width="24" height="24" viewBox="0 0 24 24" stroke-width="1" stroke="currentColor" fill="none" stroke-linecap="round" stroke-linejoin="round"><path d="M8.656 5.656 C 8.537 5.775,8.520 5.817,8.520 5.995 C 8.520 6.250,8.657 6.425,8.900 6.481 C 9.113 6.530,19.887 6.530,20.100 6.481 C 20.343 6.425,20.480 6.250,20.480 5.995 C 20.480 5.817,20.463 5.775,20.344 5.656 L 20.208 5.520 14.500 5.520 L 8.792 5.520 8.656 5.656 M3.656 7.656 C 3.535 7.777,3.520 7.816,3.520 8.005 L 3.520 8.218 5.409 10.109 L 7.299 12.000 5.409 13.891 L 3.520 15.782 3.520 15.995 C 3.520 16.184,3.535 16.223,3.656 16.344 C 3.777 16.465,3.816 16.480,4.006 16.480 L 4.219 16.480 6.350 14.350 L 8.480 12.219 8.480 12.000 L 8.480 11.781 6.350 9.650 L 4.219 7.520 4.006 7.520 C 3.816 7.520,3.777 7.535,3.656 7.656 M12.656 11.656 C 12.537 11.775,12.520 11.817,12.520 11.995 C 12.520 12.250,12.657 12.425,12.900 12.481 C 13.111 12.530,19.889 12.530,20.100 12.481 C 20.343 12.425,20.480 12.250,20.480 11.995 C 20.480 11.817,20.463 11.775,20.344 11.656 L 20.208 11.520 16.500 11.520 L 12.792 11.520 12.656 11.656 M8.656 17.656 C 8.537 17.775,8.520 17.817,8.520 17.995 C 8.520 18.250,8.657 18.425,8.900 18.481 C 9.113 18.530,19.887 18.530,20.100 18.481 C 20.343 18.425,20.480 18.250,20.480 17.995 C 20.480 17.817,20.463 17.775,20.344 17.656 L 20.208 17.520 14.500 17.520 L 8.792 17.520 8.656 17.656 " stroke="none" fill="black" fill-rule="evenodd"></path></svg>