<svg xmlns="http://www.w3.org/2000/svg" class="icon icon-tabler icon-tabler-indent-decrease" width="24" height="24" viewBox="0 0 24 24" stroke-width="1" stroke="currentColor" fill="none" stroke-linecap="round" stroke-linejoin="round"><path d="M12.656 5.656 C 12.537 5.775,12.520 5.817,12.520 5.995 C 12.520 6.250,12.657 6.425,12.900 6.481 C 13.111 6.530,19.889 6.530,20.100 6.481 C 20.343 6.425,20.480 6.250,20.480 5.995 C 20.480 5.817,20.463 5.775,20.344 5.656 L 20.208 5.520 16.500 5.520 L 12.792 5.520 12.656 5.656 M5.650 9.650 L 3.520 11.781 3.520 12.000 L 3.520 12.219 5.650 14.350 L 7.781 16.480 7.994 16.480 C 8.184 16.480,8.223 16.465,8.344 16.344 C 8.465 16.223,8.480 16.184,8.480 15.995 L 8.480 15.782 6.591 13.891 L 4.701 12.000 6.591 10.109 L 8.480 8.218 8.480 8.005 C 8.480 7.816,8.465 7.777,8.344 7.656 C 8.223 7.535,8.184 7.520,7.994 7.520 L 7.781 7.520 5.650 9.650 M10.656 11.656 C 10.537 11.775,10.520 11.817,10.520 11.995 C 10.520 12.250,10.657 12.425,10.900 12.481 C 11.112 12.530,19.888 12.530,20.100 12.481 C 20.343 12.425,20.480 12.250,20.480 11.995 C 20.480 11.817,20.463 11.775,20.344 11.656 L 20.208 11.520 15.500 11.520 L 10.792 11.520 10.656 11.656 M12.656 17.656 C 12.537 17.775,12.520 17.817,12.520 17.995 C 12.520 18.250,12.657 18.425,12.900 18.481 C 13.111 18.530,19.889 18.530,20.100 18.481 C 20.343 18.425,20.480 18.250,20.480 17.995 C 20.480 17.817,20.463 17.775,20.344 17.656 L 20.208 17.520 16.500 17.520 L 12.792 17.520 12.656 17.656 " stroke="none" fill="black" fill-rule="evenodd"></path></svg>