<svg xmlns="http://www.w3.org/2000/svg" class="icon icon-tabler icon-tabler-infinity" width="24" height="24" viewBox="0 0 24 24" stroke-width="1" stroke="currentColor" fill="none" stroke-linecap="round" stroke-linejoin="round"><path d="M6.145 7.582 C 4.326 7.944,2.931 9.351,2.578 11.180 C 2.499 11.594,2.499 12.406,2.578 12.820 C 2.940 14.699,4.419 16.143,6.287 16.441 C 6.732 16.512,7.694 16.472,8.088 16.367 C 8.721 16.197,9.229 15.950,9.740 15.564 C 10.324 15.122,11.346 14.001,11.795 13.309 C 11.891 13.161,11.981 13.040,11.995 13.040 C 12.009 13.041,12.063 13.108,12.116 13.190 C 12.671 14.056,13.825 15.290,14.495 15.735 C 15.015 16.080,15.687 16.345,16.287 16.441 C 16.732 16.512,17.693 16.473,18.088 16.367 C 19.013 16.119,19.787 15.645,20.372 14.969 C 21.127 14.097,21.483 13.144,21.483 12.000 C 21.483 10.856,21.127 9.903,20.372 9.031 C 19.787 8.355,19.013 7.881,18.088 7.633 C 17.693 7.527,16.732 7.488,16.287 7.559 C 15.685 7.656,15.021 7.916,14.508 8.257 C 13.839 8.701,12.799 9.797,12.200 10.689 C 12.101 10.837,12.011 10.957,12.000 10.957 C 11.989 10.957,11.899 10.837,11.800 10.689 C 11.276 9.909,10.291 8.845,9.659 8.376 C 9.128 7.983,8.492 7.706,7.830 7.580 C 7.435 7.506,6.526 7.506,6.145 7.582 M7.723 8.577 C 8.130 8.663,8.564 8.849,8.928 9.091 C 9.317 9.350,10.068 10.079,10.493 10.608 C 10.826 11.023,11.351 11.812,11.386 11.949 C 11.445 12.184,10.564 13.393,9.735 14.216 C 8.754 15.190,8.013 15.511,6.841 15.471 C 6.366 15.455,6.254 15.437,5.921 15.324 C 5.313 15.118,4.856 14.824,4.433 14.367 C 3.821 13.706,3.515 12.918,3.515 12.000 C 3.515 11.310,3.700 10.655,4.047 10.120 C 4.263 9.787,4.787 9.263,5.120 9.047 C 5.413 8.858,5.901 8.657,6.260 8.579 C 6.581 8.509,7.396 8.508,7.723 8.577 M17.721 8.577 C 18.396 8.720,18.950 9.026,19.462 9.538 C 19.980 10.055,20.282 10.608,20.426 11.297 C 20.496 11.632,20.503 12.293,20.440 12.639 C 20.192 14.010,19.094 15.131,17.717 15.421 C 17.354 15.497,16.645 15.497,16.281 15.420 C 15.550 15.266,14.988 14.931,14.270 14.222 C 13.631 13.590,13.199 13.045,12.726 12.270 L 12.561 12.000 12.726 11.730 C 13.199 10.955,13.631 10.410,14.270 9.778 C 14.973 9.083,15.556 8.732,16.259 8.579 C 16.580 8.509,17.396 8.508,17.721 8.577 " stroke="none" fill="black" fill-rule="evenodd"></path></svg>