<svg xmlns="http://www.w3.org/2000/svg" class="icon icon-tabler icon-tabler-info-square" width="24" height="24" viewBox="0 0 24 24" stroke-width="1" stroke="currentColor" fill="none" stroke-linecap="round" stroke-linejoin="round"><path d="M5.274 3.615 C 4.870 3.735,4.561 3.922,4.242 4.242 C 3.922 4.561,3.739 4.864,3.603 5.294 L 3.500 5.620 3.500 11.980 C 3.500 17.982,3.504 18.354,3.572 18.593 C 3.838 19.528,4.448 20.147,5.380 20.425 C 5.605 20.492,5.994 20.497,11.700 20.510 C 15.647 20.519,17.924 20.509,18.189 20.482 C 19.305 20.371,20.121 19.684,20.427 18.600 C 20.496 18.353,20.500 18.024,20.500 12.000 C 20.500 5.976,20.496 5.647,20.427 5.400 C 20.196 4.582,19.666 3.982,18.900 3.670 L 18.580 3.540 12.080 3.532 L 5.580 3.524 5.274 3.615 M18.641 4.649 C 18.924 4.787,19.213 5.076,19.351 5.359 L 19.460 5.580 19.460 12.000 L 19.460 18.420 19.372 18.610 C 19.253 18.867,18.913 19.218,18.664 19.339 C 18.548 19.397,18.323 19.457,18.140 19.481 C 17.924 19.510,15.850 19.520,11.780 19.512 C 6.157 19.500,5.726 19.495,5.535 19.430 C 5.129 19.291,4.750 18.925,4.597 18.522 C 4.522 18.325,4.520 18.139,4.520 12.000 C 4.520 5.861,4.522 5.675,4.597 5.478 C 4.743 5.093,5.084 4.749,5.468 4.599 C 5.653 4.526,5.878 4.524,12.040 4.532 L 18.420 4.540 18.641 4.649 M11.656 7.656 C 11.536 7.776,11.520 7.817,11.520 8.000 C 11.520 8.183,11.536 8.224,11.656 8.344 C 11.775 8.463,11.818 8.480,11.993 8.480 C 12.233 8.480,12.408 8.357,12.480 8.139 C 12.540 7.957,12.477 7.758,12.314 7.621 C 12.220 7.542,12.150 7.520,11.993 7.520 C 11.818 7.520,11.775 7.537,11.656 7.656 M10.656 11.656 C 10.537 11.775,10.520 11.817,10.520 11.995 C 10.520 12.353,10.753 12.517,11.268 12.519 L 11.476 12.520 11.488 14.332 C 11.499 15.983,11.506 16.153,11.571 16.251 C 11.704 16.455,11.813 16.494,12.302 16.513 C 12.968 16.538,13.186 16.502,13.348 16.340 C 13.463 16.225,13.480 16.182,13.480 16.000 C 13.480 15.817,13.464 15.776,13.344 15.656 C 13.210 15.522,13.202 15.520,12.864 15.520 L 12.520 15.520 12.519 13.790 C 12.519 12.838,12.501 11.988,12.481 11.900 C 12.459 11.804,12.395 11.696,12.321 11.630 L 12.199 11.520 11.495 11.520 L 10.792 11.520 10.656 11.656 " stroke="none" fill="black" fill-rule="evenodd"></path></svg>