<svg xmlns="http://www.w3.org/2000/svg" class="icon icon-tabler icon-tabler-info-circle" width="24" height="24" viewBox="0 0 24 24" stroke-width="1" stroke="currentColor" fill="none" stroke-linecap="round" stroke-linejoin="round"><path d="M10.900 2.564 C 9.092 2.784,7.444 3.481,6.020 4.628 C 4.323 5.995,3.091 8.034,2.679 10.160 C 2.468 11.247,2.468 12.755,2.679 13.840 C 3.019 15.591,3.905 17.278,5.170 18.585 C 6.746 20.212,8.748 21.195,10.991 21.441 C 11.569 21.505,12.996 21.471,13.520 21.382 C 16.578 20.862,19.166 18.939,20.519 16.180 C 21.189 14.815,21.480 13.549,21.480 12.000 C 21.480 10.487,21.202 9.243,20.562 7.900 C 19.798 6.294,18.506 4.858,16.968 3.907 C 15.800 3.185,14.424 2.710,13.072 2.562 C 12.621 2.513,11.309 2.514,10.900 2.564 M13.160 3.581 C 14.081 3.712,14.852 3.948,15.700 4.360 C 16.622 4.807,17.277 5.273,18.002 5.998 C 19.251 7.248,20.028 8.728,20.365 10.500 C 20.470 11.053,20.512 12.362,20.444 12.946 C 20.245 14.630,19.576 16.182,18.485 17.486 C 17.115 19.122,15.119 20.188,12.946 20.444 C 12.362 20.512,11.053 20.470,10.500 20.365 C 7.839 19.860,5.635 18.221,4.428 15.851 C 4.054 15.115,3.799 14.359,3.635 13.500 C 3.515 12.874,3.486 11.525,3.577 10.868 C 4.105 7.087,7.016 4.152,10.800 3.585 C 11.320 3.507,12.623 3.505,13.160 3.581 M11.656 7.656 C 11.536 7.776,11.520 7.817,11.520 8.000 C 11.520 8.183,11.536 8.224,11.656 8.344 C 11.775 8.463,11.818 8.480,11.993 8.480 C 12.233 8.480,12.408 8.357,12.480 8.139 C 12.540 7.957,12.477 7.758,12.314 7.621 C 12.220 7.542,12.150 7.520,11.993 7.520 C 11.818 7.520,11.775 7.537,11.656 7.656 M10.656 11.656 C 10.537 11.775,10.520 11.817,10.520 11.995 C 10.520 12.353,10.753 12.517,11.268 12.519 L 11.476 12.520 11.488 14.332 C 11.499 15.983,11.506 16.153,11.571 16.251 C 11.704 16.455,11.813 16.494,12.302 16.513 C 12.968 16.538,13.186 16.502,13.348 16.340 C 13.463 16.225,13.480 16.182,13.480 16.000 C 13.480 15.817,13.464 15.776,13.344 15.656 C 13.210 15.522,13.202 15.520,12.864 15.520 L 12.520 15.520 12.519 13.790 C 12.519 12.838,12.501 11.988,12.481 11.900 C 12.459 11.804,12.395 11.696,12.321 11.630 L 12.199 11.520 11.495 11.520 L 10.792 11.520 10.656 11.656 " stroke="none" fill="black" fill-rule="evenodd"></path></svg>