<svg xmlns="http://www.w3.org/2000/svg" class="icon icon-tabler icon-tabler-italic" width="24" height="24" viewBox="0 0 24 24" stroke-width="1" stroke="currentColor" fill="none" stroke-linecap="round" stroke-linejoin="round"><path d="M12.327 4.517 L 10.753 4.540 10.637 4.671 C 10.541 4.778,10.520 4.837,10.520 5.000 C 10.520 5.249,10.659 5.426,10.900 5.481 C 10.988 5.501,11.568 5.519,12.190 5.519 C 12.812 5.520,13.319 5.534,13.319 5.550 C 13.318 5.566,12.485 8.487,11.469 12.040 L 9.620 18.500 8.187 18.520 L 6.753 18.540 6.637 18.671 C 6.541 18.778,6.520 18.837,6.520 19.000 C 6.520 19.249,6.659 19.426,6.900 19.481 C 7.110 19.530,12.890 19.530,13.100 19.481 C 13.343 19.425,13.480 19.250,13.480 18.995 C 13.480 18.817,13.463 18.775,13.344 18.656 L 13.208 18.520 11.939 18.520 L 10.671 18.520 10.689 18.430 C 10.699 18.381,11.531 15.456,12.539 11.930 L 14.371 5.520 15.656 5.519 C 16.362 5.519,17.012 5.501,17.100 5.481 C 17.343 5.425,17.480 5.250,17.480 4.995 C 17.480 4.817,17.463 4.775,17.344 4.656 L 17.208 4.520 15.730 4.520 C 14.916 4.520,14.172 4.514,14.076 4.507 C 13.979 4.500,13.192 4.505,12.327 4.517 " stroke="none" fill="black" fill-rule="evenodd"></path></svg>