<svg xmlns="http://www.w3.org/2000/svg" class="icon icon-tabler icon-tabler-key" width="24" height="24" viewBox="0 0 24 24" stroke-width="1" stroke="currentColor" fill="none" stroke-linecap="round" stroke-linejoin="round"><path d="M14.795 7.505 L 10.810 11.490 10.595 11.328 C 10.131 10.978,9.357 10.662,8.713 10.559 C 8.268 10.488,7.306 10.528,6.913 10.633 C 5.497 11.012,4.359 11.998,3.840 13.294 C 3.578 13.947,3.544 14.144,3.544 15.000 C 3.544 15.675,3.556 15.822,3.630 16.087 C 4.093 17.752,5.248 18.907,6.913 19.370 C 7.178 19.444,7.325 19.456,8.000 19.456 C 8.675 19.456,8.822 19.444,9.088 19.370 C 10.755 18.906,11.906 17.755,12.370 16.087 C 12.444 15.822,12.456 15.675,12.456 15.000 C 12.456 14.325,12.444 14.178,12.370 13.913 C 12.204 13.317,11.924 12.726,11.628 12.346 L 11.507 12.193 13.253 10.447 L 14.999 8.701 15.891 9.591 L 16.784 10.480 16.996 10.480 C 17.184 10.480,17.224 10.464,17.344 10.344 C 17.464 10.224,17.480 10.184,17.480 9.996 L 17.480 9.784 16.591 8.891 L 15.701 7.999 16.850 6.850 L 17.999 5.701 18.891 6.591 L 19.784 7.480 19.996 7.480 C 20.184 7.480,20.224 7.464,20.344 7.344 C 20.464 7.224,20.480 7.184,20.480 6.996 L 20.480 6.784 19.592 5.893 L 18.704 5.001 19.092 4.606 L 19.480 4.211 19.480 4.002 C 19.480 3.817,19.464 3.776,19.344 3.656 C 19.223 3.535,19.184 3.520,18.994 3.520 L 18.781 3.520 14.795 7.505 M9.080 11.675 C 9.629 11.861,10.035 12.115,10.460 12.540 C 10.883 12.963,11.137 13.366,11.328 13.920 C 11.457 14.293,11.459 14.313,11.459 15.000 C 11.459 15.687,11.457 15.707,11.328 16.080 C 11.137 16.634,10.883 17.037,10.460 17.460 C 10.037 17.883,9.634 18.137,9.080 18.328 C 8.707 18.457,8.687 18.459,8.000 18.459 C 7.313 18.459,7.293 18.457,6.920 18.328 C 6.366 18.137,5.963 17.883,5.540 17.460 C 5.114 17.034,4.860 16.628,4.676 16.080 C 4.565 15.752,4.545 15.629,4.529 15.175 C 4.518 14.864,4.529 14.542,4.557 14.383 C 4.758 13.223,5.642 12.154,6.740 11.738 C 7.225 11.554,7.450 11.521,8.100 11.534 C 8.652 11.546,8.730 11.557,9.080 11.675 " stroke="none" fill="black" fill-rule="evenodd"></path></svg>