<svg xmlns="http://www.w3.org/2000/svg" class="icon icon-tabler icon-tabler-keyboard" width="24" height="24" viewBox="0 0 24 24" stroke-width="1" stroke="currentColor" fill="none" stroke-linecap="round" stroke-linejoin="round"><path d="M4.274 3.615 C 3.870 3.734,3.561 3.922,3.242 4.242 C 2.922 4.561,2.739 4.864,2.603 5.294 L 2.500 5.620 2.500 11.980 C 2.500 17.982,2.504 18.354,2.572 18.593 C 2.838 19.528,3.447 20.146,4.380 20.425 C 4.606 20.493,5.025 20.498,11.700 20.510 C 16.315 20.519,18.922 20.509,19.189 20.482 C 20.305 20.371,21.121 19.684,21.427 18.600 C 21.496 18.353,21.500 18.024,21.500 12.000 C 21.500 5.976,21.496 5.647,21.427 5.400 C 21.196 4.582,20.666 3.982,19.900 3.670 L 19.580 3.540 12.080 3.532 L 4.580 3.524 4.274 3.615 M19.641 4.649 C 19.924 4.787,20.213 5.076,20.351 5.359 L 20.460 5.580 20.460 12.000 L 20.460 18.420 20.350 18.644 C 20.220 18.909,19.874 19.252,19.626 19.362 C 19.530 19.404,19.327 19.457,19.176 19.479 C 18.799 19.533,5.201 19.533,4.820 19.478 C 4.666 19.456,4.449 19.394,4.339 19.341 C 4.075 19.212,3.784 18.918,3.649 18.641 L 3.540 18.420 3.530 12.051 C 3.520 5.840,3.521 5.678,3.597 5.479 C 3.743 5.093,4.083 4.749,4.468 4.599 C 4.654 4.526,4.900 4.524,12.040 4.532 L 19.420 4.540 19.641 4.649 M6.656 7.656 C 6.537 7.775,6.520 7.818,6.520 7.993 C 6.520 8.477,7.069 8.682,7.379 8.314 C 7.458 8.220,7.480 8.150,7.480 7.993 C 7.480 7.818,7.463 7.775,7.344 7.656 C 7.224 7.536,7.183 7.520,7.000 7.520 C 6.817 7.520,6.776 7.536,6.656 7.656 M11.656 7.656 C 11.537 7.775,11.520 7.818,11.520 7.993 C 11.520 8.477,12.069 8.682,12.379 8.314 C 12.458 8.220,12.480 8.150,12.480 7.993 C 12.480 7.818,12.463 7.775,12.344 7.656 C 12.224 7.536,12.183 7.520,12.000 7.520 C 11.817 7.520,11.776 7.536,11.656 7.656 M16.656 7.656 C 16.537 7.775,16.520 7.818,16.520 7.993 C 16.520 8.477,17.069 8.682,17.379 8.314 C 17.458 8.220,17.480 8.150,17.480 7.993 C 17.480 7.818,17.463 7.775,17.344 7.656 C 17.224 7.536,17.183 7.520,17.000 7.520 C 16.817 7.520,16.776 7.536,16.656 7.656 M6.656 11.656 C 6.537 11.775,6.520 11.818,6.520 11.993 C 6.520 12.233,6.643 12.408,6.861 12.480 C 7.043 12.540,7.242 12.477,7.379 12.314 C 7.458 12.220,7.480 12.150,7.480 11.993 C 7.480 11.818,7.463 11.775,7.344 11.656 C 7.224 11.536,7.183 11.520,7.000 11.520 C 6.817 11.520,6.776 11.536,6.656 11.656 M11.656 11.656 C 11.537 11.775,11.520 11.818,11.520 11.993 C 11.520 12.150,11.542 12.220,11.621 12.314 C 11.758 12.477,11.957 12.540,12.139 12.480 C 12.357 12.408,12.480 12.233,12.480 11.993 C 12.480 11.818,12.463 11.775,12.344 11.656 C 12.224 11.536,12.183 11.520,12.000 11.520 C 11.817 11.520,11.776 11.536,11.656 11.656 M16.656 11.656 C 16.537 11.775,16.520 11.818,16.520 11.993 C 16.520 12.233,16.643 12.408,16.861 12.480 C 17.043 12.540,17.242 12.477,17.379 12.314 C 17.458 12.220,17.480 12.150,17.480 11.993 C 17.480 11.818,17.463 11.775,17.344 11.656 C 17.224 11.536,17.183 11.520,17.000 11.520 C 16.817 11.520,16.776 11.536,16.656 11.656 M6.656 15.656 C 6.537 15.775,6.520 15.817,6.520 15.995 C 6.520 16.250,6.657 16.425,6.900 16.481 C 7.113 16.530,16.887 16.530,17.100 16.481 C 17.343 16.425,17.480 16.250,17.480 15.995 C 17.480 15.817,17.463 15.775,17.344 15.656 L 17.208 15.520 12.000 15.520 L 6.792 15.520 6.656 15.656 " stroke="none" fill="black" fill-rule="evenodd"></path></svg>