<svg xmlns="http://www.w3.org/2000/svg" class="icon icon-tabler icon-tabler-language" width="24" height="24" viewBox="0 0 24 24" stroke-width="1" stroke="currentColor" fill="none" stroke-linecap="round" stroke-linejoin="round"><path d="M9.679 4.630 C 9.509 4.782,9.482 4.941,9.481 5.790 L 9.480 6.520 7.136 6.520 L 4.792 6.520 4.656 6.656 C 4.537 6.775,4.520 6.817,4.520 6.995 C 4.520 7.250,4.657 7.425,4.900 7.481 C 4.988 7.501,6.057 7.519,7.275 7.519 L 9.491 7.520 9.464 7.910 C 9.367 9.288,9.019 10.611,8.459 11.740 C 8.152 12.357,7.759 12.960,7.664 12.960 C 7.570 12.960,6.906 12.229,6.773 11.979 C 6.631 11.712,6.535 11.378,6.497 11.022 C 6.476 10.824,6.450 10.762,6.340 10.652 C 6.225 10.537,6.182 10.520,6.000 10.520 C 5.817 10.520,5.776 10.536,5.656 10.656 C 5.525 10.787,5.520 10.803,5.520 11.103 C 5.520 11.275,5.549 11.533,5.584 11.677 C 5.733 12.281,6.186 13.008,6.703 13.471 C 6.844 13.597,6.960 13.712,6.960 13.727 C 6.960 13.784,6.360 14.153,6.075 14.271 C 5.785 14.392,5.501 14.454,5.022 14.503 C 4.823 14.524,4.763 14.549,4.652 14.660 C 4.537 14.775,4.520 14.818,4.520 15.000 C 4.520 15.185,4.536 15.224,4.662 15.350 L 4.803 15.491 5.252 15.469 C 5.768 15.443,6.143 15.348,6.629 15.120 C 6.958 14.966,7.402 14.678,7.696 14.428 L 7.851 14.295 8.097 14.426 C 8.947 14.877,10.362 15.286,11.482 15.405 C 11.734 15.432,11.955 15.466,11.972 15.481 C 11.990 15.496,11.671 16.261,11.262 17.179 C 10.422 19.071,10.413 19.101,10.656 19.344 C 10.775 19.463,10.817 19.480,10.995 19.480 C 11.313 19.480,11.376 19.396,11.816 18.400 L 12.195 17.540 15.000 17.540 L 17.805 17.540 18.184 18.400 C 18.624 19.396,18.687 19.480,19.005 19.480 C 19.183 19.480,19.225 19.463,19.344 19.344 C 19.603 19.085,19.700 19.346,17.458 14.295 C 15.916 10.822,15.408 9.714,15.317 9.630 C 15.157 9.481,14.861 9.474,14.693 9.615 C 14.608 9.688,14.322 10.294,13.520 12.100 L 12.460 14.490 12.080 14.463 C 11.029 14.390,9.908 14.125,8.960 13.726 C 8.503 13.533,8.515 13.581,8.812 13.134 C 9.750 11.724,10.334 9.884,10.464 7.930 L 10.491 7.520 11.216 7.519 C 12.059 7.518,12.218 7.491,12.370 7.321 C 12.459 7.222,12.480 7.161,12.480 6.995 C 12.480 6.817,12.463 6.775,12.344 6.656 L 12.208 6.520 11.364 6.520 L 10.520 6.520 10.519 5.790 C 10.518 4.941,10.491 4.782,10.321 4.630 C 10.222 4.541,10.160 4.520,10.000 4.520 C 9.840 4.520,9.778 4.541,9.679 4.630 M16.172 13.870 C 16.805 15.295,17.321 16.473,17.321 16.490 C 17.320 16.507,16.276 16.520,15.000 16.520 C 13.724 16.520,12.680 16.507,12.679 16.490 C 12.678 16.439,14.976 11.280,15.000 11.280 C 15.013 11.280,15.540 12.445,16.172 13.870 " stroke="none" fill="black" fill-rule="evenodd"></path></svg>