<svg xmlns="http://www.w3.org/2000/svg" class="icon icon-tabler icon-tabler-layers-union" width="24" height="24" viewBox="0 0 24 24" stroke-width="1" stroke="currentColor" fill="none" stroke-linecap="round" stroke-linejoin="round"><path d="M9.274 3.614 C 8.870 3.735,8.561 3.922,8.242 4.242 C 7.918 4.566,7.735 4.870,7.609 5.294 C 7.522 5.586,7.510 5.719,7.490 6.570 L 7.469 7.520 6.539 7.520 C 5.685 7.520,5.583 7.528,5.288 7.613 C 4.872 7.733,4.566 7.917,4.242 8.242 C 3.922 8.561,3.739 8.864,3.603 9.294 L 3.500 9.620 3.500 13.980 C 3.500 18.056,3.505 18.356,3.572 18.593 C 3.838 19.529,4.451 20.149,5.380 20.424 C 5.602 20.490,5.934 20.496,9.700 20.510 C 12.314 20.519,13.927 20.509,14.189 20.483 C 15.297 20.371,16.130 19.676,16.419 18.620 C 16.467 18.445,16.491 18.129,16.508 17.456 L 16.531 16.531 17.456 16.508 C 18.124 16.491,18.445 16.467,18.614 16.420 C 19.529 16.167,20.165 15.529,20.427 14.600 C 20.496 14.355,20.500 14.085,20.500 10.000 C 20.500 5.915,20.496 5.645,20.427 5.400 C 20.196 4.582,19.666 3.982,18.900 3.670 L 18.580 3.540 14.080 3.532 L 9.580 3.523 9.274 3.614 M18.641 4.649 C 18.924 4.787,19.213 5.076,19.351 5.359 L 19.460 5.580 19.460 10.000 L 19.460 14.420 19.350 14.644 C 19.220 14.909,18.874 15.252,18.626 15.362 C 18.347 15.485,17.970 15.518,16.855 15.519 C 15.859 15.520,15.806 15.524,15.705 15.603 C 15.504 15.761,15.501 15.781,15.480 17.140 L 15.460 18.420 15.350 18.644 C 15.220 18.909,14.874 19.252,14.626 19.362 C 14.530 19.404,14.327 19.457,14.176 19.479 C 13.804 19.532,6.196 19.532,5.820 19.478 C 5.666 19.456,5.449 19.394,5.339 19.341 C 5.075 19.212,4.784 18.918,4.649 18.641 L 4.540 18.420 4.540 14.000 L 4.540 9.580 4.649 9.359 C 4.787 9.076,5.076 8.787,5.359 8.649 L 5.580 8.540 6.862 8.520 C 7.998 8.502,8.156 8.492,8.251 8.429 C 8.497 8.268,8.498 8.262,8.520 6.862 L 8.540 5.580 8.649 5.360 C 8.822 5.011,9.117 4.736,9.468 4.599 C 9.652 4.526,9.833 4.524,14.040 4.532 L 18.420 4.540 18.641 4.649 " stroke="none" fill="black" fill-rule="evenodd"></path></svg>