<svg xmlns="http://www.w3.org/2000/svg" class="icon icon-tabler icon-tabler-layers-difference" width="24" height="24" viewBox="0 0 24 24" stroke-width="1" stroke="currentColor" fill="none" stroke-linecap="round" stroke-linejoin="round"><path d="M9.274 3.614 C 8.870 3.735,8.561 3.922,8.242 4.242 C 7.918 4.566,7.735 4.870,7.609 5.294 C 7.522 5.586,7.510 5.719,7.490 6.570 L 7.469 7.520 6.539 7.520 C 5.685 7.520,5.583 7.528,5.288 7.613 C 4.872 7.733,4.566 7.917,4.242 8.242 C 3.922 8.561,3.739 8.864,3.603 9.294 L 3.500 9.620 3.500 13.980 C 3.500 18.056,3.505 18.356,3.572 18.593 C 3.838 19.529,4.451 20.149,5.380 20.424 C 5.602 20.490,5.934 20.496,9.700 20.510 C 12.314 20.519,13.927 20.509,14.189 20.483 C 15.297 20.371,16.130 19.676,16.419 18.620 C 16.467 18.445,16.491 18.129,16.508 17.456 L 16.531 16.531 17.456 16.508 C 18.124 16.491,18.445 16.467,18.614 16.420 C 19.529 16.167,20.165 15.529,20.427 14.600 C 20.496 14.355,20.500 14.085,20.500 10.000 C 20.500 5.915,20.496 5.645,20.427 5.400 C 20.196 4.582,19.666 3.982,18.900 3.670 L 18.580 3.540 14.080 3.532 L 9.580 3.523 9.274 3.614 M18.641 4.649 C 18.924 4.787,19.213 5.076,19.351 5.359 L 19.460 5.580 19.460 10.000 L 19.460 14.420 19.350 14.644 C 19.220 14.909,18.874 15.252,18.626 15.362 C 18.368 15.475,17.983 15.518,17.210 15.519 L 16.520 15.520 16.519 14.790 C 16.518 13.941,16.491 13.782,16.321 13.630 C 16.222 13.541,16.160 13.520,16.000 13.520 C 15.840 13.520,15.778 13.541,15.679 13.630 C 15.509 13.782,15.482 13.941,15.481 14.790 L 15.480 15.520 14.636 15.520 L 13.792 15.520 13.656 15.656 C 13.537 15.775,13.520 15.817,13.520 15.995 C 13.520 16.161,13.541 16.222,13.630 16.321 C 13.781 16.490,13.941 16.518,14.773 16.519 L 15.485 16.520 15.473 17.470 C 15.460 18.414,15.459 18.421,15.350 18.644 C 15.220 18.909,14.874 19.252,14.626 19.362 C 14.530 19.404,14.327 19.457,14.176 19.479 C 13.804 19.532,6.196 19.532,5.820 19.478 C 5.666 19.456,5.449 19.394,5.339 19.341 C 5.075 19.212,4.784 18.918,4.649 18.641 L 4.540 18.420 4.540 14.000 L 4.540 9.580 4.649 9.359 C 4.787 9.076,5.076 8.787,5.359 8.649 C 5.578 8.541,5.589 8.540,6.530 8.528 L 7.480 8.516 7.481 9.228 C 7.482 10.059,7.510 10.219,7.679 10.370 C 7.778 10.459,7.840 10.480,8.000 10.480 C 8.160 10.480,8.222 10.459,8.321 10.370 C 8.490 10.219,8.518 10.059,8.519 9.230 L 8.520 8.520 9.230 8.519 C 10.059 8.518,10.219 8.490,10.370 8.321 C 10.459 8.222,10.480 8.161,10.480 7.995 C 10.480 7.817,10.463 7.775,10.344 7.656 L 10.208 7.520 9.364 7.520 L 8.520 7.520 8.520 6.600 C 8.520 5.790,8.529 5.657,8.597 5.478 C 8.743 5.093,9.084 4.749,9.468 4.599 C 9.652 4.526,9.834 4.524,14.040 4.532 L 18.420 4.540 18.641 4.649 M13.656 7.656 C 13.537 7.775,13.520 7.817,13.520 7.995 C 13.520 8.161,13.541 8.222,13.630 8.321 C 13.781 8.490,13.941 8.518,14.770 8.519 L 15.480 8.520 15.481 9.230 C 15.482 10.059,15.510 10.219,15.679 10.370 C 15.778 10.459,15.840 10.480,16.000 10.480 C 16.249 10.480,16.426 10.341,16.481 10.100 C 16.501 10.012,16.518 9.517,16.518 9.000 C 16.518 8.483,16.501 7.988,16.481 7.900 C 16.459 7.804,16.395 7.696,16.321 7.630 L 16.199 7.520 14.995 7.520 L 13.792 7.520 13.656 7.656 M7.660 13.652 C 7.486 13.826,7.470 13.968,7.487 15.182 C 7.506 16.558,7.442 16.494,8.818 16.513 C 10.032 16.530,10.174 16.514,10.348 16.340 C 10.463 16.225,10.480 16.182,10.480 16.000 C 10.480 15.817,10.464 15.776,10.344 15.656 L 10.208 15.520 9.364 15.520 L 8.520 15.520 8.519 14.790 C 8.518 13.941,8.491 13.782,8.321 13.630 C 8.222 13.541,8.161 13.520,7.995 13.520 C 7.819 13.520,7.775 13.537,7.660 13.652 " stroke="none" fill="black" fill-rule="evenodd"></path></svg>