<svg xmlns="http://www.w3.org/2000/svg" class="icon icon-tabler icon-tabler-layers-subtract" width="24" height="24" viewBox="0 0 24 24" stroke-width="1" stroke="currentColor" fill="none" stroke-linecap="round" stroke-linejoin="round"><path d="M9.274 3.614 C 8.870 3.735,8.561 3.922,8.242 4.242 C 7.918 4.566,7.735 4.870,7.609 5.294 C 7.522 5.586,7.510 5.719,7.490 6.570 L 7.469 7.520 6.539 7.520 C 5.685 7.520,5.583 7.528,5.288 7.613 C 4.872 7.733,4.566 7.917,4.242 8.242 C 3.922 8.561,3.739 8.864,3.603 9.294 L 3.500 9.620 3.500 13.980 C 3.500 18.056,3.505 18.356,3.572 18.593 C 3.838 19.529,4.451 20.149,5.380 20.424 C 5.602 20.490,5.934 20.496,9.700 20.510 C 12.314 20.519,13.927 20.509,14.189 20.483 C 15.297 20.371,16.130 19.676,16.419 18.620 C 16.467 18.445,16.491 18.128,16.508 17.450 L 16.531 16.520 17.196 16.519 C 17.561 16.519,18.027 16.501,18.231 16.480 C 19.308 16.366,20.127 15.666,20.427 14.600 C 20.496 14.355,20.500 14.085,20.500 10.000 C 20.500 5.915,20.496 5.645,20.427 5.400 C 20.196 4.582,19.666 3.982,18.900 3.670 L 18.580 3.540 14.080 3.532 L 9.580 3.523 9.274 3.614 M18.641 4.649 C 18.924 4.787,19.213 5.076,19.351 5.359 L 19.460 5.580 19.460 10.000 L 19.460 14.420 19.350 14.644 C 19.219 14.910,18.873 15.252,18.623 15.363 C 18.285 15.512,17.947 15.523,13.780 15.511 C 10.066 15.500,9.723 15.493,9.535 15.429 C 9.129 15.292,8.750 14.925,8.597 14.522 C 8.523 14.326,8.520 14.166,8.520 10.000 C 8.520 5.834,8.523 5.674,8.597 5.478 C 8.743 5.093,9.084 4.749,9.468 4.599 C 9.652 4.526,9.834 4.524,14.040 4.532 L 18.420 4.540 18.641 4.649 M7.490 11.450 C 7.505 14.083,7.513 14.404,7.575 14.614 C 7.849 15.540,8.463 16.155,9.380 16.424 C 9.597 16.487,9.902 16.495,12.553 16.510 L 15.485 16.525 15.473 17.473 C 15.460 18.414,15.459 18.421,15.350 18.644 C 15.219 18.910,14.873 19.252,14.623 19.363 C 14.280 19.515,13.958 19.524,9.780 19.511 C 6.073 19.500,5.723 19.493,5.535 19.429 C 5.130 19.292,4.750 18.925,4.597 18.522 C 4.523 18.326,4.520 18.166,4.520 14.000 C 4.520 9.834,4.523 9.674,4.597 9.478 C 4.744 9.093,5.084 8.749,5.468 8.599 C 5.635 8.533,5.778 8.523,6.567 8.522 L 7.475 8.520 7.490 11.450 " stroke="none" fill="black" fill-rule="evenodd"></path></svg>