<svg xmlns="http://www.w3.org/2000/svg" class="icon icon-tabler icon-tabler-layout-kanban" width="24" height="24" viewBox="0 0 24 24" stroke-width="1" stroke="currentColor" fill="none" stroke-linecap="round" stroke-linejoin="round"><path d="M3.656 3.656 C 3.537 3.775,3.520 3.817,3.520 3.995 C 3.520 4.250,3.657 4.425,3.900 4.481 C 4.110 4.530,9.890 4.530,10.100 4.481 C 10.343 4.425,10.480 4.250,10.480 3.995 C 10.480 3.817,10.463 3.775,10.344 3.656 L 10.208 3.520 7.000 3.520 L 3.792 3.520 3.656 3.656 M13.656 3.656 C 13.537 3.775,13.520 3.817,13.520 3.995 C 13.520 4.250,13.657 4.425,13.900 4.481 C 14.110 4.530,19.890 4.530,20.100 4.481 C 20.343 4.425,20.480 4.250,20.480 3.995 C 20.480 3.817,20.463 3.775,20.344 3.656 L 20.208 3.520 17.000 3.520 L 13.792 3.520 13.656 3.656 M5.274 7.614 C 4.869 7.735,4.561 7.923,4.242 8.242 C 3.922 8.561,3.739 8.864,3.603 9.294 L 3.500 9.620 3.500 13.980 C 3.500 18.085,3.504 18.355,3.573 18.600 C 3.835 19.528,4.467 20.164,5.386 20.421 C 5.692 20.506,7.542 20.549,8.169 20.485 C 9.308 20.369,10.119 19.692,10.427 18.600 C 10.496 18.355,10.500 18.085,10.500 14.000 C 10.500 9.915,10.496 9.645,10.427 9.400 C 10.196 8.582,9.666 7.982,8.900 7.670 L 8.580 7.540 7.080 7.531 C 5.618 7.522,5.572 7.524,5.274 7.614 M15.274 7.614 C 14.869 7.735,14.561 7.923,14.242 8.242 C 13.921 8.563,13.737 8.866,13.605 9.294 C 13.506 9.615,13.504 9.642,13.503 10.980 C 13.501 12.167,13.510 12.372,13.573 12.593 C 13.836 13.528,14.469 14.167,15.380 14.420 C 15.693 14.506,17.537 14.550,18.169 14.485 C 19.308 14.369,20.123 13.689,20.426 12.600 C 20.489 12.373,20.498 12.171,20.498 11.000 C 20.498 9.829,20.489 9.627,20.426 9.400 C 20.199 8.585,19.667 7.982,18.900 7.670 L 18.580 7.540 17.080 7.531 C 15.618 7.522,15.572 7.524,15.274 7.614 M8.641 8.649 C 8.924 8.787,9.213 9.076,9.351 9.359 L 9.460 9.580 9.460 14.000 L 9.460 18.420 9.350 18.644 C 9.219 18.910,8.873 19.252,8.623 19.363 C 8.327 19.494,7.871 19.530,6.767 19.510 C 5.615 19.489,5.469 19.463,5.135 19.216 C 4.891 19.035,4.697 18.784,4.597 18.522 C 4.523 18.326,4.520 18.166,4.520 14.000 C 4.520 9.834,4.523 9.674,4.597 9.478 C 4.743 9.093,5.083 8.750,5.468 8.598 C 5.645 8.528,5.767 8.523,7.040 8.531 L 8.420 8.540 8.641 8.649 M18.641 8.649 C 18.924 8.787,19.213 9.076,19.351 9.359 L 19.460 9.580 19.460 11.000 L 19.460 12.420 19.350 12.644 C 19.219 12.910,18.873 13.252,18.623 13.363 C 18.327 13.494,17.871 13.530,16.767 13.510 C 15.615 13.489,15.469 13.463,15.135 13.216 C 14.891 13.035,14.697 12.784,14.597 12.522 C 14.527 12.337,14.520 12.205,14.520 11.000 C 14.520 9.795,14.527 9.663,14.597 9.478 C 14.743 9.093,15.083 8.750,15.468 8.598 C 15.645 8.528,15.767 8.523,17.040 8.531 L 18.420 8.540 18.641 8.649 " stroke="none" fill="black" fill-rule="evenodd"></path></svg>