<svg xmlns="http://www.w3.org/2000/svg" class="icon icon-tabler icon-tabler-layout-align-right" width="24" height="24" viewBox="0 0 24 24" stroke-width="1" stroke="currentColor" fill="none" stroke-linecap="round" stroke-linejoin="round"><path d="M19.679 3.630 C 19.605 3.696,19.541 3.804,19.519 3.900 C 19.469 4.114,19.469 19.886,19.519 20.100 C 19.574 20.341,19.751 20.480,20.000 20.480 C 20.249 20.480,20.426 20.341,20.481 20.100 C 20.531 19.886,20.531 4.114,20.481 3.900 C 20.426 3.659,20.249 3.520,20.000 3.520 C 19.840 3.520,19.778 3.541,19.679 3.630 M5.274 8.614 C 4.870 8.735,4.561 8.922,4.242 9.242 C 3.921 9.563,3.737 9.866,3.605 10.294 C 3.506 10.615,3.504 10.642,3.503 11.980 C 3.501 13.167,3.510 13.372,3.573 13.593 C 3.835 14.526,4.450 15.149,5.380 15.424 C 5.602 15.490,5.934 15.496,9.700 15.510 C 12.314 15.519,13.927 15.509,14.189 15.483 C 15.306 15.370,16.125 14.681,16.426 13.600 C 16.489 13.373,16.498 13.171,16.498 12.000 C 16.498 10.829,16.489 10.627,16.426 10.400 C 16.199 9.585,15.667 8.982,14.900 8.670 L 14.580 8.540 10.080 8.532 L 5.580 8.523 5.274 8.614 M14.641 9.649 C 14.924 9.787,15.213 10.076,15.351 10.359 L 15.460 10.580 15.460 12.000 L 15.460 13.420 15.350 13.644 C 15.220 13.909,14.874 14.252,14.626 14.362 C 14.530 14.404,14.327 14.457,14.176 14.479 C 13.804 14.532,6.196 14.532,5.820 14.478 C 5.666 14.456,5.449 14.394,5.339 14.341 C 5.075 14.212,4.784 13.918,4.649 13.641 L 4.540 13.420 4.529 12.054 C 4.518 10.779,4.522 10.675,4.595 10.482 C 4.743 10.093,5.082 9.750,5.468 9.599 C 5.652 9.526,5.834 9.524,10.040 9.532 L 14.420 9.540 14.641 9.649 " stroke="none" fill="black" fill-rule="evenodd"></path></svg>