<svg xmlns="http://www.w3.org/2000/svg" class="icon icon-tabler icon-tabler-layout-cards" width="24" height="24" viewBox="0 0 24 24" stroke-width="1" stroke="currentColor" fill="none" stroke-linecap="round" stroke-linejoin="round"><path d="M5.274 3.614 C 4.869 3.735,4.561 3.923,4.242 4.242 C 3.922 4.561,3.739 4.864,3.603 5.294 L 3.500 5.620 3.500 11.980 C 3.500 17.982,3.504 18.354,3.572 18.593 C 3.838 19.530,4.469 20.167,5.380 20.420 C 5.693 20.506,7.537 20.550,8.169 20.485 C 9.308 20.369,10.119 19.692,10.427 18.600 C 10.496 18.353,10.500 18.024,10.500 12.000 C 10.500 5.976,10.496 5.647,10.427 5.400 C 10.196 4.582,9.666 3.982,8.900 3.670 L 8.580 3.540 7.080 3.531 C 5.618 3.522,5.572 3.524,5.274 3.614 M15.274 3.614 C 14.869 3.735,14.561 3.923,14.242 4.242 C 13.922 4.561,13.738 4.864,13.603 5.294 L 13.501 5.620 13.500 8.980 C 13.500 12.116,13.505 12.357,13.573 12.600 C 13.835 13.528,14.467 14.164,15.386 14.421 C 15.692 14.506,17.542 14.549,18.169 14.485 C 19.308 14.369,20.119 13.692,20.427 12.600 C 20.495 12.357,20.500 12.116,20.500 9.000 C 20.500 5.884,20.495 5.643,20.427 5.400 C 20.196 4.582,19.666 3.982,18.900 3.670 L 18.580 3.540 17.080 3.531 C 15.618 3.522,15.572 3.524,15.274 3.614 M8.641 4.649 C 8.924 4.787,9.213 5.076,9.351 5.359 L 9.460 5.580 9.460 12.000 L 9.460 18.420 9.350 18.644 C 9.219 18.910,8.873 19.252,8.623 19.363 C 8.327 19.494,7.871 19.530,6.767 19.510 C 5.615 19.489,5.469 19.463,5.135 19.216 C 4.891 19.035,4.697 18.784,4.597 18.522 C 4.522 18.325,4.520 18.139,4.520 12.000 C 4.520 5.861,4.522 5.675,4.597 5.478 C 4.743 5.093,5.083 4.750,5.468 4.598 C 5.645 4.528,5.767 4.523,7.040 4.531 L 8.420 4.540 8.641 4.649 M18.641 4.649 C 18.924 4.787,19.213 5.076,19.351 5.359 L 19.460 5.580 19.460 9.000 L 19.460 12.420 19.372 12.610 C 19.253 12.867,18.913 13.218,18.664 13.339 C 18.350 13.493,17.926 13.531,16.767 13.510 C 15.615 13.489,15.469 13.463,15.135 13.216 C 14.891 13.035,14.697 12.784,14.597 12.522 C 14.523 12.328,14.520 12.179,14.520 9.000 C 14.520 5.821,14.523 5.672,14.597 5.478 C 14.743 5.093,15.083 4.750,15.468 4.598 C 15.645 4.528,15.767 4.523,17.040 4.531 L 18.420 4.540 18.641 4.649 " stroke="none" fill="black" fill-rule="evenodd"></path></svg>