<svg xmlns="http://www.w3.org/2000/svg" class="icon icon-tabler icon-tabler-layout-distribute-horizontal" width="24" height="24" viewBox="0 0 24 24" stroke-width="1" stroke="currentColor" fill="none" stroke-linecap="round" stroke-linejoin="round"><path d="M3.656 3.656 C 3.537 3.775,3.520 3.817,3.520 3.995 C 3.520 4.250,3.657 4.425,3.900 4.481 C 4.114 4.531,19.886 4.531,20.100 4.481 C 20.343 4.425,20.480 4.250,20.480 3.995 C 20.480 3.817,20.463 3.775,20.344 3.656 L 20.208 3.520 12.000 3.520 L 3.792 3.520 3.656 3.656 M7.274 8.614 C 6.870 8.735,6.561 8.922,6.242 9.242 C 5.921 9.563,5.737 9.866,5.605 10.294 C 5.506 10.615,5.504 10.642,5.503 11.980 C 5.501 13.167,5.510 13.372,5.573 13.593 C 5.835 14.526,6.450 15.149,7.380 15.424 C 7.602 15.490,7.934 15.496,11.700 15.510 C 14.314 15.519,15.927 15.509,16.189 15.483 C 17.306 15.370,18.125 14.681,18.426 13.600 C 18.489 13.373,18.498 13.171,18.498 12.000 C 18.498 10.829,18.489 10.627,18.426 10.400 C 18.199 9.585,17.667 8.982,16.900 8.670 L 16.580 8.540 12.080 8.532 L 7.580 8.523 7.274 8.614 M16.641 9.649 C 16.924 9.787,17.213 10.076,17.351 10.359 L 17.460 10.580 17.460 12.000 L 17.460 13.420 17.350 13.644 C 17.220 13.909,16.874 14.252,16.626 14.362 C 16.530 14.404,16.327 14.457,16.176 14.479 C 15.804 14.532,8.196 14.532,7.820 14.478 C 7.666 14.456,7.449 14.394,7.339 14.341 C 7.075 14.212,6.784 13.918,6.649 13.641 L 6.540 13.420 6.529 12.054 C 6.518 10.779,6.522 10.675,6.595 10.482 C 6.743 10.093,7.082 9.750,7.468 9.599 C 7.652 9.526,7.834 9.524,12.040 9.532 L 16.420 9.540 16.641 9.649 M3.656 19.656 C 3.537 19.775,3.520 19.817,3.520 19.995 C 3.520 20.250,3.657 20.425,3.900 20.481 C 4.114 20.531,19.886 20.531,20.100 20.481 C 20.343 20.425,20.480 20.250,20.480 19.995 C 20.480 19.817,20.463 19.775,20.344 19.656 L 20.208 19.520 12.000 19.520 L 3.792 19.520 3.656 19.656 " stroke="none" fill="black" fill-rule="evenodd"></path></svg>