<svg xmlns="http://www.w3.org/2000/svg" class="icon icon-tabler icon-tabler-layout-distribute-vertical" width="24" height="24" viewBox="0 0 24 24" stroke-width="1" stroke="currentColor" fill="none" stroke-linecap="round" stroke-linejoin="round"><path d="M3.679 3.630 C 3.605 3.696,3.541 3.804,3.519 3.900 C 3.469 4.114,3.469 19.886,3.519 20.100 C 3.574 20.341,3.751 20.480,4.000 20.480 C 4.249 20.480,4.426 20.341,4.481 20.100 C 4.531 19.886,4.531 4.114,4.481 3.900 C 4.426 3.659,4.249 3.520,4.000 3.520 C 3.840 3.520,3.778 3.541,3.679 3.630 M19.679 3.630 C 19.605 3.696,19.541 3.804,19.519 3.900 C 19.469 4.114,19.469 19.886,19.519 20.100 C 19.574 20.341,19.751 20.480,20.000 20.480 C 20.249 20.480,20.426 20.341,20.481 20.100 C 20.531 19.886,20.531 4.114,20.481 3.900 C 20.426 3.659,20.249 3.520,20.000 3.520 C 19.840 3.520,19.778 3.541,19.679 3.630 M10.274 5.614 C 9.869 5.735,9.561 5.923,9.242 6.242 C 8.922 6.561,8.739 6.864,8.603 7.294 L 8.500 7.620 8.500 11.980 C 8.500 16.085,8.504 16.355,8.573 16.600 C 8.835 17.528,9.467 18.164,10.386 18.421 C 10.692 18.506,12.542 18.549,13.169 18.485 C 14.308 18.369,15.119 17.692,15.427 16.600 C 15.496 16.355,15.500 16.085,15.500 12.000 C 15.500 7.915,15.496 7.645,15.427 7.400 C 15.196 6.582,14.666 5.982,13.900 5.670 L 13.580 5.540 12.080 5.531 C 10.618 5.522,10.572 5.524,10.274 5.614 M13.641 6.649 C 13.924 6.787,14.213 7.076,14.351 7.359 L 14.460 7.580 14.460 12.000 L 14.460 16.420 14.350 16.644 C 14.219 16.910,13.873 17.252,13.623 17.363 C 13.327 17.494,12.871 17.530,11.767 17.510 C 10.615 17.489,10.469 17.463,10.135 17.216 C 9.891 17.035,9.697 16.784,9.597 16.522 C 9.523 16.326,9.520 16.166,9.520 12.000 C 9.520 7.834,9.523 7.674,9.597 7.478 C 9.743 7.093,10.083 6.750,10.468 6.598 C 10.645 6.528,10.767 6.523,12.040 6.531 L 13.420 6.540 13.641 6.649 " stroke="none" fill="black" fill-rule="evenodd"></path></svg>