<svg xmlns="http://www.w3.org/2000/svg" class="icon icon-tabler icon-tabler-layout-align-middle" width="24" height="24" viewBox="0 0 24 24" stroke-width="1" stroke="currentColor" fill="none" stroke-linecap="round" stroke-linejoin="round"><path d="M10.274 5.614 C 9.869 5.735,9.561 5.923,9.242 6.242 C 8.920 6.563,8.737 6.867,8.606 7.294 C 8.506 7.619,8.506 7.626,8.489 9.570 L 8.473 11.520 6.132 11.520 L 3.792 11.520 3.656 11.656 C 3.537 11.775,3.520 11.817,3.520 11.995 C 3.520 12.250,3.657 12.425,3.900 12.481 C 3.988 12.501,5.053 12.519,6.266 12.519 L 8.473 12.520 8.491 14.450 C 8.506 16.122,8.518 16.412,8.578 16.620 C 8.840 17.533,9.476 18.166,10.386 18.421 C 10.692 18.506,12.542 18.549,13.169 18.485 C 14.299 18.370,15.113 17.697,15.422 16.620 C 15.482 16.412,15.494 16.122,15.509 14.450 L 15.527 12.520 17.734 12.519 C 18.947 12.519,20.012 12.501,20.100 12.481 C 20.343 12.425,20.480 12.250,20.480 11.995 C 20.480 11.817,20.463 11.775,20.344 11.656 L 20.208 11.520 17.868 11.520 L 15.527 11.520 15.509 9.570 C 15.494 7.878,15.482 7.588,15.422 7.380 C 15.191 6.577,14.658 5.978,13.900 5.670 L 13.580 5.540 12.080 5.531 C 10.618 5.522,10.572 5.524,10.274 5.614 M13.641 6.649 C 13.924 6.787,14.213 7.076,14.351 7.359 L 14.460 7.580 14.460 12.000 L 14.460 16.420 14.350 16.644 C 14.219 16.910,13.873 17.252,13.623 17.363 C 13.327 17.494,12.871 17.530,11.767 17.510 C 10.615 17.489,10.469 17.463,10.135 17.216 C 9.891 17.035,9.697 16.784,9.597 16.522 C 9.523 16.326,9.520 16.166,9.520 12.000 C 9.520 7.834,9.523 7.674,9.597 7.478 C 9.743 7.093,10.083 6.750,10.468 6.598 C 10.645 6.528,10.767 6.523,12.040 6.531 L 13.420 6.540 13.641 6.649 " stroke="none" fill="black" fill-rule="evenodd"></path></svg>