<svg xmlns="http://www.w3.org/2000/svg" class="icon icon-tabler icon-tabler-layout" width="24" height="24" viewBox="0 0 24 24" stroke-width="1" stroke="currentColor" fill="none" stroke-linecap="round" stroke-linejoin="round"><path d="M5.274 3.614 C 4.869 3.735,4.561 3.923,4.242 4.242 C 3.919 4.564,3.736 4.868,3.607 5.294 C 3.515 5.597,3.508 5.682,3.506 6.480 C 3.505 7.178,3.517 7.388,3.574 7.593 C 3.830 8.521,4.468 9.167,5.380 9.420 C 5.693 9.506,7.537 9.550,8.169 9.485 C 9.309 9.369,10.129 8.683,10.424 7.600 C 10.482 7.390,10.495 7.179,10.495 6.500 C 10.495 5.821,10.482 5.610,10.424 5.400 C 10.204 4.591,9.668 3.982,8.900 3.670 L 8.580 3.540 7.080 3.531 C 5.618 3.522,5.572 3.524,5.274 3.614 M15.274 3.614 C 14.869 3.735,14.561 3.923,14.242 4.242 C 13.922 4.561,13.739 4.864,13.603 5.294 L 13.500 5.620 13.500 11.980 C 13.500 17.982,13.504 18.354,13.572 18.593 C 13.838 19.530,14.469 20.167,15.380 20.420 C 15.693 20.506,17.537 20.550,18.169 20.485 C 19.308 20.369,20.119 19.692,20.427 18.600 C 20.496 18.353,20.500 18.024,20.500 12.000 C 20.500 5.976,20.496 5.647,20.427 5.400 C 20.196 4.582,19.666 3.982,18.900 3.670 L 18.580 3.540 17.080 3.531 C 15.618 3.522,15.572 3.524,15.274 3.614 M8.641 4.649 C 8.924 4.787,9.213 5.076,9.351 5.359 L 9.460 5.580 9.460 6.500 L 9.460 7.420 9.350 7.644 C 9.220 7.909,8.874 8.252,8.626 8.362 C 8.354 8.482,7.974 8.518,7.000 8.518 C 5.979 8.518,5.627 8.481,5.339 8.341 C 5.075 8.212,4.784 7.918,4.649 7.641 C 4.542 7.424,4.540 7.403,4.528 6.556 C 4.517 5.774,4.523 5.672,4.595 5.484 C 4.743 5.093,5.081 4.751,5.468 4.598 C 5.645 4.528,5.767 4.523,7.040 4.531 L 8.420 4.540 8.641 4.649 M18.641 4.649 C 18.924 4.787,19.213 5.076,19.351 5.359 L 19.460 5.580 19.460 12.000 L 19.460 18.420 19.350 18.644 C 19.219 18.910,18.873 19.252,18.623 19.363 C 18.327 19.494,17.871 19.530,16.767 19.510 C 15.615 19.489,15.469 19.463,15.135 19.216 C 14.891 19.035,14.697 18.784,14.597 18.522 C 14.522 18.325,14.520 18.139,14.520 12.000 C 14.520 5.861,14.522 5.675,14.597 5.478 C 14.743 5.093,15.083 4.750,15.468 4.598 C 15.645 4.528,15.767 4.523,17.040 4.531 L 18.420 4.540 18.641 4.649 M5.274 12.614 C 4.869 12.735,4.561 12.923,4.242 13.242 C 3.921 13.562,3.738 13.865,3.604 14.294 L 3.503 14.620 3.501 16.480 C 3.500 18.152,3.507 18.366,3.572 18.593 C 3.838 19.530,4.469 20.167,5.380 20.420 C 5.693 20.506,7.537 20.550,8.169 20.485 C 9.308 20.369,10.119 19.692,10.427 18.600 C 10.493 18.365,10.500 18.162,10.500 16.500 C 10.500 14.838,10.493 14.635,10.427 14.400 C 10.197 13.582,9.666 12.982,8.900 12.670 L 8.580 12.540 7.080 12.531 C 5.618 12.522,5.572 12.524,5.274 12.614 M8.641 13.649 C 8.924 13.787,9.213 14.076,9.351 14.359 L 9.460 14.580 9.460 16.500 C 9.460 18.703,9.476 18.598,9.077 19.020 C 8.653 19.468,8.321 19.538,6.767 19.510 C 5.615 19.489,5.469 19.463,5.135 19.216 C 4.891 19.035,4.697 18.784,4.597 18.522 C 4.525 18.333,4.520 18.198,4.520 16.500 C 4.520 14.802,4.525 14.667,4.597 14.478 C 4.743 14.093,5.083 13.750,5.468 13.598 C 5.645 13.528,5.767 13.523,7.040 13.531 L 8.420 13.540 8.641 13.649 " stroke="none" fill="black" fill-rule="evenodd"></path></svg>