<svg xmlns="http://www.w3.org/2000/svg" class="icon icon-tabler icon-tabler-layout-align-bottom" width="24" height="24" viewBox="0 0 24 24" stroke-width="1" stroke="currentColor" fill="none" stroke-linecap="round" stroke-linejoin="round"><path d="M10.274 3.614 C 9.869 3.735,9.561 3.923,9.242 4.242 C 8.922 4.561,8.739 4.864,8.603 5.294 L 8.500 5.620 8.500 9.980 C 8.500 14.085,8.504 14.355,8.573 14.600 C 8.835 15.528,9.467 16.164,10.386 16.421 C 10.692 16.506,12.542 16.549,13.169 16.485 C 14.308 16.369,15.119 15.692,15.427 14.600 C 15.496 14.355,15.500 14.085,15.500 10.000 C 15.500 5.915,15.496 5.645,15.427 5.400 C 15.196 4.582,14.666 3.982,13.900 3.670 L 13.580 3.540 12.080 3.531 C 10.618 3.522,10.572 3.524,10.274 3.614 M13.641 4.649 C 13.924 4.787,14.213 5.076,14.351 5.359 L 14.460 5.580 14.460 10.000 L 14.460 14.420 14.350 14.644 C 14.219 14.910,13.873 15.252,13.623 15.363 C 13.327 15.494,12.871 15.530,11.767 15.510 C 10.615 15.489,10.469 15.463,10.135 15.216 C 9.891 15.035,9.697 14.784,9.597 14.522 C 9.523 14.326,9.520 14.166,9.520 10.000 C 9.520 5.834,9.523 5.674,9.597 5.478 C 9.743 5.093,10.083 4.750,10.468 4.598 C 10.645 4.528,10.767 4.523,12.040 4.531 L 13.420 4.540 13.641 4.649 M3.656 19.656 C 3.537 19.775,3.520 19.817,3.520 19.995 C 3.520 20.250,3.657 20.425,3.900 20.481 C 4.114 20.531,19.886 20.531,20.100 20.481 C 20.343 20.425,20.480 20.250,20.480 19.995 C 20.480 19.817,20.463 19.775,20.344 19.656 L 20.208 19.520 12.000 19.520 L 3.792 19.520 3.656 19.656 " stroke="none" fill="black" fill-rule="evenodd"></path></svg>