<svg xmlns="http://www.w3.org/2000/svg" class="icon icon-tabler icon-tabler-layout-sidebar" width="24" height="24" viewBox="0 0 24 24" stroke-width="1" stroke="currentColor" fill="none" stroke-linecap="round" stroke-linejoin="round"><path d="M7.180 3.521 C 5.203 3.544,5.185 3.547,4.621 3.924 C 4.116 4.262,3.761 4.749,3.594 5.330 L 3.500 5.660 3.500 12.000 C 3.500 17.982,3.504 18.354,3.572 18.593 C 3.838 19.528,4.448 20.147,5.380 20.425 C 5.605 20.492,5.994 20.497,11.700 20.510 C 15.647 20.519,17.924 20.509,18.189 20.482 C 19.305 20.371,20.121 19.684,20.427 18.600 C 20.496 18.353,20.500 18.024,20.500 12.000 C 20.500 5.976,20.496 5.647,20.427 5.400 C 20.196 4.582,19.666 3.982,18.900 3.670 L 18.580 3.540 16.560 3.530 C 11.318 3.504,8.762 3.502,7.180 3.521 M8.480 12.024 L 8.480 19.527 7.110 19.510 C 5.580 19.491,5.489 19.478,5.135 19.216 C 4.891 19.035,4.697 18.784,4.597 18.522 C 4.522 18.325,4.520 18.139,4.520 12.000 C 4.520 5.861,4.522 5.675,4.597 5.478 C 4.744 5.093,5.084 4.749,5.468 4.599 C 5.642 4.531,5.789 4.524,7.070 4.522 L 8.480 4.520 8.480 12.024 M18.641 4.649 C 18.924 4.787,19.213 5.076,19.351 5.359 L 19.460 5.580 19.460 12.000 L 19.460 18.420 19.350 18.644 C 19.220 18.909,18.874 19.252,18.626 19.362 C 18.530 19.404,18.327 19.457,18.176 19.479 C 18.007 19.503,16.277 19.519,13.710 19.519 L 9.520 19.520 9.520 12.019 L 9.520 4.519 13.970 4.529 L 18.420 4.540 18.641 4.649 " stroke="none" fill="black" fill-rule="evenodd"></path></svg>