<svg xmlns="http://www.w3.org/2000/svg" class="icon icon-tabler icon-tabler-layout-align-top" width="24" height="24" viewBox="0 0 24 24" stroke-width="1" stroke="currentColor" fill="none" stroke-linecap="round" stroke-linejoin="round"><path d="M3.656 3.656 C 3.537 3.775,3.520 3.817,3.520 3.995 C 3.520 4.250,3.657 4.425,3.900 4.481 C 4.114 4.531,19.886 4.531,20.100 4.481 C 20.343 4.425,20.480 4.250,20.480 3.995 C 20.480 3.817,20.463 3.775,20.344 3.656 L 20.208 3.520 12.000 3.520 L 3.792 3.520 3.656 3.656 M10.274 7.614 C 9.869 7.735,9.561 7.923,9.242 8.242 C 8.922 8.561,8.739 8.864,8.603 9.294 L 8.500 9.620 8.500 13.980 C 8.500 18.085,8.504 18.355,8.573 18.600 C 8.835 19.528,9.467 20.164,10.386 20.421 C 10.692 20.506,12.542 20.549,13.169 20.485 C 14.308 20.369,15.119 19.692,15.427 18.600 C 15.496 18.355,15.500 18.085,15.500 14.000 C 15.500 9.915,15.496 9.645,15.427 9.400 C 15.196 8.582,14.666 7.982,13.900 7.670 L 13.580 7.540 12.080 7.531 C 10.618 7.522,10.572 7.524,10.274 7.614 M13.641 8.649 C 13.924 8.787,14.213 9.076,14.351 9.359 L 14.460 9.580 14.460 14.000 L 14.460 18.420 14.350 18.644 C 14.219 18.910,13.873 19.252,13.623 19.363 C 13.327 19.494,12.871 19.530,11.767 19.510 C 10.615 19.489,10.469 19.463,10.135 19.216 C 9.891 19.035,9.697 18.784,9.597 18.522 C 9.523 18.326,9.520 18.166,9.520 14.000 C 9.520 9.834,9.523 9.674,9.597 9.478 C 9.743 9.093,10.083 8.750,10.468 8.598 C 10.645 8.528,10.767 8.523,12.040 8.531 L 13.420 8.540 13.641 8.649 " stroke="none" fill="black" fill-rule="evenodd"></path></svg>