<svg xmlns="http://www.w3.org/2000/svg" class="icon icon-tabler icon-tabler-layout-sidebar-right" width="24" height="24" viewBox="0 0 24 24" stroke-width="1" stroke="currentColor" fill="none" stroke-linecap="round" stroke-linejoin="round"><path d="M10.160 3.520 L 5.460 3.540 5.192 3.631 C 4.444 3.885,3.817 4.552,3.594 5.330 L 3.500 5.660 3.500 12.000 C 3.500 17.982,3.504 18.354,3.572 18.593 C 3.838 19.528,4.448 20.147,5.380 20.425 C 5.605 20.492,5.994 20.497,11.700 20.510 C 15.647 20.519,17.924 20.509,18.189 20.482 C 19.305 20.371,20.121 19.684,20.427 18.600 C 20.496 18.353,20.500 18.024,20.500 12.000 C 20.500 5.976,20.496 5.647,20.427 5.400 C 20.196 4.581,19.663 3.978,18.900 3.672 C 18.584 3.545,18.570 3.543,17.820 3.532 C 15.931 3.503,14.554 3.501,10.160 3.520 M14.480 12.021 L 14.480 19.523 10.110 19.511 C 6.086 19.500,5.724 19.493,5.535 19.429 C 5.129 19.292,4.750 18.925,4.597 18.522 C 4.522 18.325,4.520 18.139,4.520 12.000 C 4.520 5.861,4.522 5.675,4.597 5.478 C 4.744 5.093,5.084 4.749,5.468 4.599 C 5.652 4.527,5.854 4.524,10.070 4.522 L 14.480 4.520 14.480 12.021 M18.641 4.649 C 18.924 4.787,19.213 5.076,19.351 5.359 L 19.460 5.580 19.460 12.000 L 19.460 18.420 19.350 18.644 C 19.220 18.909,18.874 19.252,18.626 19.362 C 18.341 19.487,17.965 19.518,16.710 19.519 L 15.520 19.520 15.520 12.019 L 15.520 4.517 16.970 4.529 L 18.420 4.540 18.641 4.649 " stroke="none" fill="black" fill-rule="evenodd"></path></svg>