<svg xmlns="http://www.w3.org/2000/svg" class="icon icon-tabler icon-tabler-layout-list" width="24" height="24" viewBox="0 0 24 24" stroke-width="1" stroke="currentColor" fill="none" stroke-linecap="round" stroke-linejoin="round"><path d="M5.274 3.615 C 4.870 3.735,4.561 3.922,4.242 4.242 C 3.921 4.563,3.737 4.866,3.605 5.294 C 3.506 5.615,3.504 5.642,3.503 6.980 C 3.501 8.167,3.510 8.372,3.573 8.593 C 3.835 9.526,4.448 10.147,5.380 10.425 C 5.605 10.492,5.994 10.497,11.700 10.510 C 15.647 10.519,17.924 10.509,18.189 10.482 C 19.305 10.371,20.125 9.681,20.426 8.600 C 20.489 8.373,20.498 8.171,20.498 7.000 C 20.498 5.829,20.489 5.627,20.426 5.400 C 20.199 4.585,19.667 3.982,18.900 3.670 L 18.580 3.540 12.080 3.532 L 5.580 3.524 5.274 3.615 M18.641 4.649 C 18.924 4.787,19.213 5.076,19.351 5.359 L 19.460 5.580 19.460 7.000 C 19.460 8.633,19.464 8.610,19.077 9.020 C 18.825 9.286,18.553 9.425,18.180 9.478 C 17.799 9.533,6.201 9.533,5.820 9.478 C 5.666 9.456,5.449 9.394,5.339 9.341 C 5.075 9.212,4.784 8.918,4.649 8.641 L 4.540 8.420 4.529 7.054 C 4.518 5.779,4.522 5.675,4.595 5.482 C 4.743 5.093,5.082 4.750,5.468 4.599 C 5.653 4.526,5.878 4.524,12.040 4.532 L 18.420 4.540 18.641 4.649 M5.274 13.615 C 4.870 13.735,4.561 13.922,4.242 14.242 C 3.921 14.563,3.737 14.866,3.605 15.294 C 3.506 15.615,3.504 15.642,3.503 16.980 C 3.501 18.167,3.510 18.372,3.573 18.593 C 3.835 19.526,4.448 20.147,5.380 20.425 C 5.605 20.492,5.994 20.497,11.700 20.510 C 15.647 20.519,17.924 20.509,18.189 20.482 C 19.305 20.371,20.125 19.681,20.426 18.600 C 20.489 18.373,20.498 18.171,20.498 17.000 C 20.498 15.829,20.489 15.627,20.426 15.400 C 20.199 14.585,19.667 13.982,18.900 13.670 L 18.580 13.540 12.080 13.532 L 5.580 13.524 5.274 13.615 M18.641 14.649 C 18.924 14.787,19.213 15.076,19.351 15.359 L 19.460 15.580 19.460 17.000 C 19.460 18.633,19.464 18.610,19.077 19.020 C 18.825 19.286,18.553 19.425,18.180 19.478 C 17.799 19.533,6.201 19.533,5.820 19.478 C 5.666 19.456,5.449 19.394,5.339 19.341 C 5.075 19.212,4.784 18.918,4.649 18.641 L 4.540 18.420 4.529 17.054 C 4.518 15.779,4.522 15.675,4.595 15.482 C 4.743 15.093,5.082 14.750,5.468 14.599 C 5.653 14.526,5.878 14.524,12.040 14.532 L 18.420 14.540 18.641 14.649 " stroke="none" fill="black" fill-rule="evenodd"></path></svg>