<svg xmlns="http://www.w3.org/2000/svg" class="icon icon-tabler icon-tabler-layout-navbar" width="24" height="24" viewBox="0 0 24 24" stroke-width="1" stroke="currentColor" fill="none" stroke-linecap="round" stroke-linejoin="round"><path d="M5.274 3.615 C 4.870 3.735,4.561 3.922,4.242 4.242 C 3.922 4.561,3.739 4.864,3.603 5.294 L 3.500 5.620 3.500 11.980 C 3.500 17.982,3.504 18.354,3.572 18.593 C 3.838 19.528,4.448 20.147,5.380 20.425 C 5.605 20.492,5.994 20.497,11.700 20.510 C 15.647 20.519,17.924 20.509,18.189 20.482 C 19.305 20.371,20.121 19.684,20.427 18.600 C 20.496 18.353,20.500 18.024,20.500 12.000 C 20.500 5.976,20.496 5.647,20.427 5.400 C 20.196 4.582,19.666 3.982,18.900 3.670 L 18.580 3.540 12.080 3.532 L 5.580 3.524 5.274 3.615 M18.641 4.649 C 18.924 4.787,19.213 5.076,19.351 5.359 L 19.460 5.580 19.472 7.050 L 19.484 8.520 12.002 8.520 L 4.520 8.520 4.520 7.100 C 4.520 5.796,4.526 5.664,4.597 5.478 C 4.743 5.093,5.084 4.749,5.468 4.599 C 5.653 4.526,5.878 4.524,12.040 4.532 L 18.420 4.540 18.641 4.649 M19.471 13.970 L 19.460 18.420 19.372 18.610 C 19.253 18.868,18.913 19.218,18.664 19.339 C 18.552 19.394,18.334 19.456,18.180 19.478 C 17.799 19.533,6.201 19.533,5.820 19.478 C 5.666 19.456,5.449 19.394,5.339 19.341 C 5.075 19.212,4.784 18.918,4.649 18.641 L 4.540 18.420 4.529 13.970 L 4.519 9.520 12.000 9.520 L 19.481 9.520 19.471 13.970 " stroke="none" fill="black" fill-rule="evenodd"></path></svg>