<svg xmlns="http://www.w3.org/2000/svg" class="icon icon-tabler icon-tabler-layout-align-left" width="24" height="24" viewBox="0 0 24 24" stroke-width="1" stroke="currentColor" fill="none" stroke-linecap="round" stroke-linejoin="round"><path d="M3.679 3.630 C 3.605 3.696,3.541 3.804,3.519 3.900 C 3.469 4.114,3.469 19.886,3.519 20.100 C 3.574 20.341,3.751 20.480,4.000 20.480 C 4.249 20.480,4.426 20.341,4.481 20.100 C 4.531 19.886,4.531 4.114,4.481 3.900 C 4.426 3.659,4.249 3.520,4.000 3.520 C 3.840 3.520,3.778 3.541,3.679 3.630 M9.274 8.614 C 8.870 8.735,8.561 8.922,8.242 9.242 C 7.921 9.563,7.737 9.866,7.605 10.294 C 7.506 10.615,7.504 10.642,7.503 11.980 C 7.501 13.167,7.510 13.372,7.573 13.593 C 7.835 14.526,8.450 15.149,9.380 15.424 C 9.602 15.490,9.934 15.496,13.700 15.510 C 16.314 15.519,17.927 15.509,18.189 15.483 C 19.306 15.370,20.125 14.681,20.426 13.600 C 20.489 13.373,20.498 13.171,20.498 12.000 C 20.498 10.829,20.489 10.627,20.426 10.400 C 20.199 9.585,19.667 8.982,18.900 8.670 L 18.580 8.540 14.080 8.532 L 9.580 8.523 9.274 8.614 M18.641 9.649 C 18.924 9.787,19.213 10.076,19.351 10.359 L 19.460 10.580 19.460 12.000 L 19.460 13.420 19.350 13.644 C 19.220 13.909,18.874 14.252,18.626 14.362 C 18.530 14.404,18.327 14.457,18.176 14.479 C 17.804 14.532,10.196 14.532,9.820 14.478 C 9.666 14.456,9.449 14.394,9.339 14.341 C 9.075 14.212,8.784 13.918,8.649 13.641 L 8.540 13.420 8.529 12.054 C 8.518 10.779,8.522 10.675,8.595 10.482 C 8.743 10.093,9.082 9.750,9.468 9.599 C 9.652 9.526,9.834 9.524,14.040 9.532 L 18.420 9.540 18.641 9.649 " stroke="none" fill="black" fill-rule="evenodd"></path></svg>