<svg xmlns="http://www.w3.org/2000/svg" class="icon icon-tabler icon-tabler-lego" width="24" height="24" viewBox="0 0 24 24" stroke-width="1" stroke="currentColor" fill="none" stroke-linecap="round" stroke-linejoin="round"><path d="M7.679 2.630 C 7.509 2.782,7.482 2.941,7.481 3.785 L 7.480 4.510 6.890 4.529 C 6.359 4.545,6.262 4.560,5.920 4.675 C 5.371 4.860,4.966 5.114,4.540 5.540 C 3.915 6.165,3.599 6.842,3.521 7.724 C 3.467 8.333,3.467 16.667,3.521 17.276 C 3.598 18.144,3.913 18.829,4.520 19.442 C 4.718 19.642,4.991 19.867,5.174 19.980 C 5.492 20.176,6.174 20.439,6.364 20.440 C 6.468 20.440,6.469 20.444,6.489 20.799 C 6.511 21.185,6.561 21.307,6.749 21.429 C 6.850 21.496,7.153 21.500,12.000 21.500 C 16.847 21.500,17.150 21.496,17.251 21.429 C 17.439 21.307,17.489 21.185,17.511 20.799 C 17.531 20.444,17.532 20.440,17.636 20.440 C 17.826 20.439,18.508 20.176,18.826 19.980 C 19.009 19.867,19.282 19.642,19.480 19.442 C 20.087 18.829,20.402 18.144,20.479 17.276 C 20.533 16.667,20.533 8.333,20.479 7.724 C 20.401 6.842,20.085 6.165,19.460 5.540 C 19.034 5.114,18.629 4.860,18.080 4.675 C 17.738 4.560,17.641 4.545,17.110 4.529 L 16.520 4.510 16.519 3.785 C 16.518 2.941,16.491 2.782,16.321 2.630 L 16.199 2.520 12.000 2.520 L 7.801 2.520 7.679 2.630 M15.486 4.332 C 15.506 5.517,15.476 5.488,16.717 5.524 C 17.466 5.546,17.613 5.561,17.829 5.638 C 18.108 5.737,18.471 5.959,18.717 6.182 C 18.949 6.391,19.255 6.865,19.366 7.187 L 19.460 7.460 19.460 12.500 L 19.460 17.540 19.366 17.813 C 19.255 18.135,18.949 18.609,18.717 18.818 C 18.276 19.217,17.813 19.419,17.196 19.483 C 16.628 19.541,16.523 19.644,16.490 20.180 L 16.469 20.520 12.000 20.520 L 7.531 20.520 7.510 20.180 C 7.477 19.644,7.372 19.541,6.804 19.483 C 6.187 19.419,5.724 19.217,5.283 18.818 C 5.051 18.609,4.745 18.135,4.634 17.813 L 4.540 17.540 4.540 12.500 L 4.540 7.460 4.634 7.187 C 4.745 6.865,5.051 6.391,5.283 6.182 C 5.529 5.959,5.892 5.737,6.171 5.638 C 6.387 5.561,6.534 5.546,7.283 5.524 C 8.524 5.488,8.494 5.517,8.514 4.332 L 8.527 3.520 12.000 3.520 L 15.473 3.520 15.486 4.332 M9.235 10.580 C 9.122 10.642,9.000 10.859,9.000 11.000 C 9.000 11.146,9.124 11.360,9.243 11.422 C 9.391 11.498,9.679 11.496,9.791 11.418 C 9.909 11.335,10.000 11.153,10.000 11.000 C 10.000 10.847,9.909 10.665,9.791 10.582 C 9.681 10.505,9.376 10.504,9.235 10.580 M14.235 10.580 C 14.122 10.642,14.000 10.859,14.000 11.000 C 14.000 11.146,14.124 11.360,14.243 11.422 C 14.391 11.498,14.679 11.496,14.791 11.418 C 14.909 11.335,15.000 11.153,15.000 11.000 C 15.000 10.847,14.909 10.665,14.791 10.582 C 14.681 10.505,14.376 10.504,14.235 10.580 M9.235 14.580 C 9.095 14.656,8.985 14.894,9.013 15.062 C 9.045 15.260,9.140 15.378,9.496 15.663 C 9.904 15.990,10.502 16.289,11.020 16.425 C 11.364 16.516,11.502 16.531,12.000 16.531 C 12.498 16.531,12.636 16.516,12.980 16.425 C 13.200 16.367,13.560 16.231,13.780 16.121 C 14.188 15.919,14.773 15.488,14.897 15.299 C 15.003 15.137,15.018 14.951,14.939 14.784 C 14.858 14.612,14.704 14.520,14.499 14.520 C 14.316 14.520,14.233 14.565,13.954 14.816 C 13.669 15.074,13.193 15.329,12.780 15.445 C 12.331 15.571,11.669 15.571,11.220 15.445 C 10.807 15.329,10.331 15.074,10.046 14.816 C 9.922 14.704,9.781 14.592,9.733 14.566 C 9.614 14.504,9.363 14.511,9.235 14.580 " stroke="none" fill="black" fill-rule="evenodd"></path></svg>