<svg xmlns="http://www.w3.org/2000/svg" class="icon icon-tabler icon-tabler-letter-case" width="24" height="24" viewBox="0 0 24 24" stroke-width="1" stroke="currentColor" fill="none" stroke-linecap="round" stroke-linejoin="round"><path d="M7.681 5.630 C 7.579 5.723,7.179 6.733,5.040 12.296 C 3.064 17.436,2.520 18.890,2.520 19.030 C 2.520 19.179,2.542 19.230,2.656 19.344 C 2.775 19.463,2.818 19.480,2.993 19.480 C 3.364 19.480,3.320 19.563,4.344 16.901 L 5.260 14.520 8.000 14.520 L 10.740 14.520 11.656 16.901 C 12.680 19.563,12.636 19.480,13.007 19.480 C 13.182 19.480,13.225 19.463,13.344 19.344 C 13.458 19.230,13.480 19.179,13.480 19.030 C 13.480 18.890,12.936 17.436,10.960 12.296 C 8.168 5.033,8.380 5.520,8.000 5.520 C 7.839 5.520,7.778 5.541,7.681 5.630 M9.160 10.406 C 9.787 12.037,10.306 13.405,10.313 13.446 C 10.325 13.517,10.243 13.520,8.000 13.520 C 5.757 13.520,5.675 13.517,5.687 13.446 C 5.706 13.336,7.977 7.441,8.000 7.441 C 8.011 7.441,8.533 8.775,9.160 10.406 M17.259 12.576 C 16.065 12.848,15.079 13.739,14.676 14.910 C 14.543 15.294,14.541 15.310,14.541 16.000 C 14.541 16.687,14.543 16.707,14.672 17.080 C 14.863 17.634,15.117 18.037,15.540 18.460 C 15.963 18.883,16.366 19.137,16.920 19.328 C 17.293 19.457,17.313 19.459,18.000 19.459 C 18.688 19.459,18.706 19.457,19.079 19.327 C 19.605 19.144,19.991 18.919,20.350 18.585 L 20.480 18.464 20.481 18.702 C 20.483 19.245,20.640 19.480,21.000 19.480 C 21.249 19.480,21.426 19.341,21.481 19.100 C 21.502 19.010,21.518 17.654,21.518 16.000 C 21.518 14.346,21.502 12.990,21.481 12.900 C 21.426 12.659,21.249 12.520,21.000 12.520 C 20.640 12.520,20.483 12.755,20.481 13.298 L 20.480 13.536 20.350 13.415 C 19.988 13.078,19.601 12.853,19.079 12.676 C 18.730 12.557,18.653 12.546,18.100 12.534 C 17.694 12.526,17.422 12.539,17.259 12.576 M18.834 13.640 C 19.142 13.749,19.615 14.059,19.818 14.283 C 20.048 14.538,20.266 14.898,20.368 15.192 C 20.446 15.421,20.460 15.540,20.460 16.000 C 20.460 16.460,20.446 16.579,20.368 16.808 C 20.190 17.320,19.844 17.765,19.378 18.076 C 18.916 18.385,18.647 18.460,18.000 18.460 C 17.540 18.460,17.421 18.446,17.192 18.368 C 16.898 18.266,16.538 18.048,16.283 17.818 C 16.058 17.615,15.749 17.141,15.640 16.834 C 15.516 16.481,15.484 15.763,15.577 15.399 C 15.803 14.515,16.484 13.821,17.360 13.581 C 17.694 13.489,18.500 13.522,18.834 13.640 " stroke="none" fill="black" fill-rule="evenodd"></path></svg>