<svg xmlns="http://www.w3.org/2000/svg" class="icon icon-tabler icon-tabler-license" width="24" height="24" viewBox="0 0 24 24" stroke-width="1" stroke="currentColor" fill="none" stroke-linecap="round" stroke-linejoin="round"><path d="M7.259 2.578 C 6.613 2.720,5.930 3.108,5.471 3.594 C 4.910 4.189,4.594 4.897,4.521 5.725 C 4.497 6.001,4.481 8.214,4.480 11.350 L 4.480 16.520 3.641 16.520 L 2.801 16.520 2.679 16.630 C 2.526 16.767,2.482 16.946,2.481 17.440 C 2.479 18.877,2.761 19.681,3.540 20.460 C 4.184 21.104,4.846 21.405,5.786 21.483 C 6.122 21.510,7.871 21.520,10.840 21.510 C 15.051 21.497,15.397 21.491,15.620 21.425 C 16.541 21.151,17.145 20.546,17.426 19.614 C 17.492 19.396,17.497 18.980,17.510 13.450 L 17.523 7.520 18.191 7.519 C 18.559 7.519,19.016 7.502,19.206 7.482 C 20.236 7.374,21.057 6.732,21.364 5.793 C 21.503 5.370,21.503 4.630,21.364 4.207 C 21.130 3.493,20.562 2.913,19.839 2.649 L 19.540 2.540 13.520 2.533 C 8.671 2.527,7.453 2.536,7.259 2.578 M16.960 3.535 C 16.960 3.543,16.899 3.652,16.825 3.775 C 16.750 3.899,16.647 4.140,16.596 4.310 L 16.502 4.620 16.481 12.020 L 16.460 19.420 16.350 19.644 C 16.218 19.912,15.875 20.250,15.610 20.372 C 15.453 20.445,15.348 20.460,15.000 20.460 C 14.624 20.460,14.557 20.449,14.359 20.351 C 14.076 20.213,13.787 19.924,13.649 19.641 L 13.540 19.420 13.520 18.140 C 13.499 16.781,13.496 16.761,13.295 16.603 C 13.190 16.520,13.176 16.520,9.355 16.520 L 5.520 16.520 5.520 11.068 C 5.520 6.278,5.528 5.588,5.582 5.378 C 5.764 4.676,6.250 4.079,6.900 3.759 C 7.398 3.514,7.148 3.526,12.270 3.523 C 14.850 3.521,16.960 3.527,16.960 3.535 M19.641 3.649 C 19.924 3.787,20.213 4.076,20.351 4.359 C 20.449 4.557,20.460 4.624,20.460 5.000 C 20.460 5.506,20.392 5.686,20.077 6.020 C 19.688 6.431,19.363 6.518,18.210 6.519 L 17.520 6.520 17.520 5.600 C 17.520 4.790,17.529 4.657,17.597 4.478 C 17.743 4.094,18.081 3.752,18.468 3.597 C 18.766 3.478,19.345 3.503,19.641 3.649 M8.656 6.656 C 8.537 6.775,8.520 6.817,8.520 6.995 C 8.520 7.250,8.657 7.425,8.900 7.481 C 9.109 7.529,12.891 7.529,13.100 7.481 C 13.343 7.425,13.480 7.250,13.480 6.995 C 13.480 6.817,13.463 6.775,13.344 6.656 L 13.208 6.520 11.000 6.520 L 8.792 6.520 8.656 6.656 M8.656 10.656 C 8.537 10.775,8.520 10.817,8.520 10.995 C 8.520 11.250,8.657 11.425,8.900 11.481 C 9.109 11.529,12.891 11.529,13.100 11.481 C 13.343 11.425,13.480 11.250,13.480 10.995 C 13.480 10.817,13.463 10.775,13.344 10.656 L 13.208 10.520 11.000 10.520 L 8.792 10.520 8.656 10.656 M12.481 18.190 C 12.482 19.306,12.570 19.807,12.842 20.253 C 12.907 20.359,12.960 20.462,12.960 20.483 C 12.960 20.532,6.257 20.531,5.787 20.481 C 4.976 20.396,4.361 20.032,3.925 19.379 C 3.630 18.938,3.553 18.681,3.530 18.050 L 3.511 17.520 7.995 17.520 L 12.480 17.520 12.481 18.190 " stroke="none" fill="black" fill-rule="evenodd"></path></svg>