<svg xmlns="http://www.w3.org/2000/svg" class="icon icon-tabler icon-tabler-lifebuoy" width="24" height="24" viewBox="0 0 24 24" stroke-width="1" stroke="currentColor" fill="none" stroke-linecap="round" stroke-linejoin="round"><path d="M10.900 2.564 C 9.092 2.784,7.444 3.481,6.020 4.628 C 4.323 5.995,3.091 8.034,2.679 10.160 C 2.468 11.247,2.468 12.755,2.679 13.840 C 3.019 15.591,3.905 17.278,5.170 18.585 C 6.746 20.212,8.748 21.195,10.991 21.441 C 11.569 21.505,12.996 21.471,13.520 21.382 C 16.578 20.862,19.166 18.939,20.519 16.180 C 21.189 14.815,21.480 13.549,21.480 12.000 C 21.480 10.487,21.202 9.243,20.562 7.900 C 19.798 6.294,18.506 4.858,16.968 3.907 C 15.800 3.185,14.424 2.710,13.072 2.562 C 12.621 2.513,11.309 2.514,10.900 2.564 M13.160 3.581 C 14.635 3.791,16.001 4.365,17.199 5.280 C 17.722 5.679,17.843 5.458,16.223 7.077 L 14.810 8.490 14.595 8.328 C 14.131 7.978,13.357 7.662,12.713 7.559 C 12.268 7.488,11.306 7.528,10.913 7.633 C 10.332 7.789,9.730 8.073,9.346 8.372 L 9.193 8.493 7.771 7.071 L 6.350 5.650 6.625 5.422 C 7.759 4.481,9.277 3.813,10.800 3.585 C 11.320 3.507,12.623 3.505,13.160 3.581 M8.373 9.346 C 8.065 9.744,7.800 10.301,7.630 10.912 C 7.556 11.178,7.544 11.325,7.544 12.000 C 7.544 12.675,7.556 12.822,7.630 13.087 C 7.796 13.683,8.076 14.274,8.372 14.654 L 8.492 14.807 7.078 16.222 C 5.457 17.843,5.679 17.722,5.280 17.199 C 4.431 16.087,3.901 14.895,3.635 13.500 C 3.515 12.874,3.486 11.525,3.577 10.868 C 3.781 9.410,4.350 8.031,5.232 6.860 C 5.331 6.728,5.468 6.561,5.535 6.489 L 5.658 6.358 7.075 7.775 L 8.493 9.193 8.373 9.346 M18.720 6.801 C 19.569 7.913,20.100 9.108,20.365 10.500 C 20.470 11.053,20.512 12.362,20.444 12.946 C 20.253 14.569,19.579 16.169,18.578 17.375 L 18.350 17.650 16.929 16.229 L 15.507 14.807 15.628 14.654 C 15.924 14.274,16.204 13.683,16.370 13.087 C 16.444 12.822,16.456 12.675,16.456 12.000 C 16.456 11.325,16.444 11.178,16.370 10.913 C 16.204 10.317,15.924 9.726,15.628 9.346 L 15.508 9.193 16.922 7.778 C 18.543 6.157,18.321 6.278,18.720 6.801 M13.080 8.675 C 13.629 8.861,14.035 9.115,14.460 9.540 C 14.883 9.963,15.137 10.366,15.328 10.920 C 15.457 11.293,15.459 11.313,15.459 12.000 C 15.459 12.687,15.457 12.707,15.328 13.080 C 15.137 13.634,14.883 14.037,14.460 14.460 C 14.037 14.883,13.634 15.137,13.080 15.328 C 12.707 15.457,12.687 15.459,12.000 15.459 C 11.313 15.459,11.293 15.457,10.920 15.328 C 10.366 15.137,9.963 14.883,9.540 14.460 C 9.114 14.034,8.860 13.628,8.676 13.080 C 8.565 12.752,8.545 12.629,8.529 12.175 C 8.518 11.864,8.529 11.542,8.557 11.383 C 8.758 10.223,9.642 9.154,10.740 8.738 C 11.225 8.554,11.450 8.521,12.100 8.534 C 12.652 8.546,12.730 8.557,13.080 8.675 M9.354 15.634 C 9.711 15.914,10.336 16.210,10.913 16.370 C 11.178 16.444,11.325 16.456,12.000 16.456 C 12.675 16.456,12.822 16.444,13.088 16.370 C 13.699 16.200,14.256 15.935,14.654 15.627 L 14.807 15.508 16.222 16.922 C 17.843 18.543,17.722 18.321,17.199 18.720 C 15.949 19.674,14.503 20.260,12.946 20.444 C 12.362 20.512,11.053 20.470,10.500 20.365 C 9.056 20.091,7.687 19.460,6.625 18.578 L 6.350 18.350 7.765 16.935 C 8.543 16.157,9.186 15.520,9.194 15.520 C 9.202 15.520,9.274 15.572,9.354 15.634 " stroke="none" fill="black" fill-rule="evenodd"></path></svg>