<svg xmlns="http://www.w3.org/2000/svg" class="icon icon-tabler icon-tabler-line-height" width="24" height="24" viewBox="0 0 24 24" stroke-width="1" stroke="currentColor" fill="none" stroke-linecap="round" stroke-linejoin="round"><path d="M5.820 4.537 C 5.754 4.567,4.985 5.310,4.110 6.187 L 2.520 7.782 2.520 7.995 C 2.520 8.184,2.535 8.223,2.656 8.344 C 2.777 8.465,2.816 8.480,3.004 8.480 L 3.217 8.480 4.348 7.351 L 5.480 6.222 5.480 12.000 L 5.480 17.778 4.348 16.649 L 3.217 15.520 3.004 15.520 C 2.816 15.520,2.777 15.535,2.656 15.656 C 2.535 15.777,2.520 15.816,2.520 16.005 L 2.520 16.218 4.129 17.829 C 5.243 18.944,5.779 19.453,5.869 19.483 C 5.963 19.514,6.037 19.514,6.131 19.483 C 6.221 19.453,6.757 18.944,7.871 17.829 L 9.480 16.218 9.480 16.005 C 9.480 15.816,9.465 15.777,9.344 15.656 C 9.223 15.535,9.184 15.520,8.996 15.520 L 8.783 15.520 7.652 16.649 L 6.520 17.778 6.520 12.000 L 6.520 6.222 7.652 7.351 L 8.783 8.480 8.996 8.480 C 9.184 8.480,9.223 8.465,9.344 8.344 C 9.465 8.223,9.480 8.184,9.480 7.995 L 9.480 7.782 7.890 6.187 C 6.996 5.290,6.244 4.567,6.171 4.536 C 6.014 4.468,5.973 4.468,5.820 4.537 M12.656 5.656 C 12.537 5.775,12.520 5.817,12.520 5.995 C 12.520 6.250,12.657 6.425,12.900 6.481 C 13.111 6.530,19.889 6.530,20.100 6.481 C 20.343 6.425,20.480 6.250,20.480 5.995 C 20.480 5.817,20.463 5.775,20.344 5.656 L 20.208 5.520 16.500 5.520 L 12.792 5.520 12.656 5.656 M12.656 11.656 C 12.537 11.775,12.520 11.817,12.520 11.995 C 12.520 12.250,12.657 12.425,12.900 12.481 C 13.111 12.530,19.889 12.530,20.100 12.481 C 20.343 12.425,20.480 12.250,20.480 11.995 C 20.480 11.817,20.463 11.775,20.344 11.656 L 20.208 11.520 16.500 11.520 L 12.792 11.520 12.656 11.656 M12.656 17.656 C 12.537 17.775,12.520 17.817,12.520 17.995 C 12.520 18.250,12.657 18.425,12.900 18.481 C 13.111 18.530,19.889 18.530,20.100 18.481 C 20.343 18.425,20.480 18.250,20.480 17.995 C 20.480 17.817,20.463 17.775,20.344 17.656 L 20.208 17.520 16.500 17.520 L 12.792 17.520 12.656 17.656 " stroke="none" fill="black" fill-rule="evenodd"></path></svg>