<svg xmlns="http://www.w3.org/2000/svg" class="icon icon-tabler icon-tabler-line" width="24" height="24" viewBox="0 0 24 24" stroke-width="1" stroke="currentColor" fill="none" stroke-linecap="round" stroke-linejoin="round"><path d="M17.274 3.613 C 17.106 3.664,16.863 3.767,16.736 3.843 C 16.438 4.019,16.019 4.438,15.843 4.735 C 15.435 5.425,15.408 6.406,15.778 7.127 L 15.908 7.380 11.650 11.644 L 7.392 15.908 7.126 15.775 C 6.751 15.589,6.446 15.520,5.996 15.520 C 5.289 15.520,4.737 15.747,4.242 16.241 C 3.718 16.764,3.500 17.331,3.528 18.098 C 3.541 18.446,3.567 18.603,3.652 18.839 C 3.908 19.557,4.492 20.130,5.207 20.364 C 5.459 20.447,5.576 20.460,6.040 20.459 C 6.553 20.457,6.596 20.451,6.900 20.328 C 7.882 19.933,8.480 19.053,8.480 18.000 C 8.480 17.569,8.406 17.243,8.224 16.874 L 8.092 16.608 12.356 12.350 L 16.620 8.092 16.875 8.223 C 17.274 8.427,17.607 8.493,18.133 8.471 C 18.514 8.455,18.627 8.434,18.900 8.326 C 19.878 7.940,20.480 7.053,20.480 6.000 C 20.480 4.947,19.879 4.061,18.900 3.673 C 18.612 3.559,18.530 3.545,18.080 3.533 C 17.647 3.521,17.539 3.532,17.274 3.613 M18.641 4.649 C 18.924 4.787,19.213 5.076,19.351 5.359 C 19.449 5.557,19.460 5.624,19.460 6.000 C 19.460 6.348,19.445 6.453,19.372 6.610 C 19.250 6.875,18.912 7.218,18.644 7.350 C 18.443 7.449,18.377 7.460,18.000 7.460 C 17.624 7.460,17.557 7.449,17.359 7.351 C 17.076 7.213,16.787 6.924,16.649 6.641 C 16.499 6.337,16.474 5.802,16.593 5.488 C 16.743 5.094,17.077 4.753,17.468 4.597 C 17.766 4.478,18.345 4.503,18.641 4.649 M6.641 16.649 C 6.924 16.787,7.213 17.076,7.351 17.359 C 7.449 17.557,7.460 17.624,7.460 18.000 C 7.460 18.348,7.445 18.453,7.372 18.610 C 7.250 18.875,6.912 19.218,6.644 19.350 C 6.443 19.449,6.377 19.460,6.000 19.460 C 5.624 19.460,5.557 19.449,5.359 19.351 C 5.076 19.213,4.787 18.924,4.649 18.641 C 4.499 18.337,4.474 17.802,4.593 17.488 C 4.743 17.094,5.077 16.753,5.468 16.597 C 5.766 16.478,6.345 16.503,6.641 16.649 " stroke="none" fill="black" fill-rule="evenodd"></path></svg>