<svg width="24" height="24" viewBox="0 0 24 24" fill="none" xmlns="http://www.w3.org/2000/svg">
<path fill-rule="evenodd" clip-rule="evenodd" d="M10.656 5.65599C10.537 5.77499 10.52 5.81699 10.52 5.99499C10.52 6.24999 10.657 6.42499 10.9 6.48099C11.112 6.52999 19.888 6.52999 20.1 6.48099C20.343 6.42499 20.48 6.24999 20.48 5.99499C20.48 5.81699 20.463 5.77499 20.344 5.65599L20.208 5.51999H15.5H10.792L10.656 5.65599ZM10.656 11.656C10.537 11.775 10.52 11.817 10.52 11.995C10.52 12.25 10.657 12.425 10.9 12.481C11.112 12.53 19.888 12.53 20.1 12.481C20.343 12.425 20.48 12.25 20.48 11.995C20.48 11.817 20.463 11.775 20.344 11.656L20.208 11.52H15.5H10.792L10.656 11.656ZM10.656 17.656C10.537 17.775 10.52 17.817 10.52 17.995C10.52 18.25 10.657 18.425 10.9 18.481C11.112 18.53 19.888 18.53 20.1 18.481C20.343 18.425 20.48 18.25 20.48 17.995C20.48 17.817 20.463 17.775 20.344 17.656L20.208 17.52H15.5H10.792L10.656 17.656Z" fill="black"/>
<path d="M5.47506 3.48473V6.47564C5.47506 6.51976 5.48609 6.5537 5.50815 6.57745C5.53191 6.60121 5.565 6.61648 5.60742 6.62327L6.1216 6.70727V7H4.08015V6.70727L4.67069 6.62327C4.71482 6.61648 4.75045 6.60121 4.7776 6.57745C4.80475 6.552 4.81833 6.51806 4.81833 6.47564V4.11855C4.781 4.13042 4.73263 4.144 4.67324 4.15927C4.61554 4.17285 4.5536 4.18642 4.48742 4.2C4.42124 4.21188 4.35506 4.22291 4.28888 4.23309C4.22269 4.24327 4.16415 4.25006 4.11324 4.25345L4.05215 3.94036C4.14548 3.9183 4.24221 3.88861 4.34233 3.85127C4.44245 3.81394 4.53918 3.77236 4.63251 3.72655C4.72754 3.68073 4.81663 3.63152 4.89979 3.57891C4.98463 3.52461 5.05845 3.47115 5.12124 3.41855L5.47506 3.48473Z" fill="black"/>
<path d="M6.15493 13H3.79784L3.66039 12.6207C3.97602 12.3407 4.24245 12.0989 4.45966 11.8953C4.67687 11.6916 4.85081 11.5126 4.98148 11.3582C5.11214 11.2038 5.20633 11.0638 5.26402 10.9382C5.32172 10.8126 5.35057 10.6879 5.35057 10.564C5.35057 10.3672 5.29033 10.217 5.16984 10.1135C5.04936 10.0099 4.90681 9.95818 4.74221 9.95818C4.59457 9.95818 4.46051 9.99891 4.34002 10.0804C4.21954 10.1601 4.11093 10.2747 4.01421 10.424L3.78766 10.2356C3.8233 10.1304 3.8759 10.0295 3.94548 9.93273C4.01505 9.8343 4.0999 9.74776 4.20002 9.67309C4.30015 9.59842 4.41639 9.53903 4.54875 9.49491C4.68111 9.44909 4.8279 9.42618 4.98911 9.42618C5.14354 9.42618 5.28778 9.44994 5.42184 9.49745C5.5559 9.54327 5.6713 9.6103 5.76802 9.69855C5.86645 9.78509 5.94366 9.892 5.99966 10.0193C6.05566 10.1448 6.08366 10.2865 6.08366 10.4444C6.08366 10.6192 6.04633 10.788 5.97166 10.9509C5.89869 11.1121 5.78754 11.275 5.63821 11.4396C5.49057 11.6025 5.30305 11.7739 5.07566 11.9538C4.84996 12.1337 4.58524 12.3297 4.28148 12.5418H4.93311C5.05699 12.5418 5.17069 12.5384 5.27421 12.5316C5.37772 12.5248 5.45833 12.5155 5.51602 12.5036C5.57881 12.4918 5.62293 12.4748 5.64839 12.4527C5.67554 12.429 5.69675 12.3984 5.71202 12.3611L5.90548 11.9004L6.25421 11.9436C6.25421 12.1082 6.24572 12.2847 6.22875 12.4731C6.21178 12.6615 6.18718 12.8371 6.15493 13Z" fill="black"/>
<path d="M6.2054 17.9844C6.2054 18.1439 6.16977 18.2907 6.09849 18.4247C6.02722 18.5588 5.93049 18.6733 5.80831 18.7684C5.68613 18.8634 5.54189 18.9381 5.37558 18.9924C5.21098 19.045 5.03619 19.0713 4.85122 19.0713C4.59667 19.0713 4.37183 19.0272 4.17667 18.9389C3.98322 18.849 3.8288 18.748 3.7134 18.636L3.88904 18.3891C3.99764 18.4621 4.12067 18.5232 4.25813 18.5724C4.39558 18.6199 4.54577 18.6436 4.70867 18.6436C4.8088 18.6436 4.90383 18.6318 4.99377 18.608C5.0854 18.5825 5.16516 18.5444 5.23304 18.4935C5.30092 18.4408 5.35522 18.373 5.39595 18.2898C5.43837 18.2067 5.46043 18.1065 5.46213 17.9895C5.46552 17.7994 5.41122 17.6458 5.29922 17.5287C5.18892 17.4116 5.04213 17.3421 4.85886 17.32C4.79946 17.3353 4.73498 17.3505 4.6654 17.3658C4.59583 17.3811 4.53219 17.393 4.47449 17.4015L4.38795 17.0833C4.51352 17.0561 4.63146 17.0205 4.74177 16.9764C4.85377 16.9322 4.95049 16.8796 5.03195 16.8185C5.1151 16.7558 5.18043 16.6836 5.22795 16.6022C5.27716 16.519 5.30177 16.4257 5.30177 16.3222C5.30177 16.1966 5.2568 16.0914 5.16686 16.0065C5.07861 15.92 4.95983 15.8767 4.81049 15.8767C4.66286 15.8767 4.5254 15.9141 4.39813 15.9887C4.27086 16.0634 4.16395 16.1465 4.0774 16.2382L3.87122 16.0396C3.97304 15.8665 4.12237 15.7215 4.31922 15.6044C4.51607 15.4856 4.75025 15.4262 5.02177 15.4262C5.15413 15.4262 5.28055 15.444 5.40104 15.4796C5.52152 15.5136 5.62674 15.5645 5.71667 15.6324C5.80661 15.6985 5.87789 15.7817 5.93049 15.8818C5.9848 15.9819 6.01195 16.0965 6.01195 16.2255C6.01195 16.3375 5.98904 16.4427 5.94322 16.5411C5.8974 16.6395 5.83716 16.7278 5.76249 16.8058C5.68952 16.8822 5.60637 16.9484 5.51304 17.0044C5.4214 17.0587 5.32977 17.0994 5.23813 17.1265C5.34504 17.1248 5.45534 17.1401 5.56904 17.1724C5.68443 17.2046 5.7888 17.2564 5.88213 17.3276C5.97546 17.3972 6.05267 17.4872 6.11377 17.5975C6.17486 17.7061 6.2054 17.835 6.2054 17.9844Z" fill="black"/>
</svg>
