<svg xmlns="http://www.w3.org/2000/svg" class="icon icon-tabler icon-tabler-list" width="24" height="24" viewBox="0 0 24 24" stroke-width="1" stroke="currentColor" fill="none" stroke-linecap="round" stroke-linejoin="round"><path d="M4.656 5.656 C 4.537 5.775,4.520 5.818,4.520 5.993 C 4.520 6.477,5.069 6.682,5.379 6.314 C 5.458 6.220,5.480 6.150,5.480 5.993 C 5.480 5.818,5.463 5.775,5.344 5.656 C 5.224 5.536,5.183 5.520,5.000 5.520 C 4.817 5.520,4.776 5.536,4.656 5.656 M8.656 5.656 C 8.537 5.775,8.520 5.817,8.520 5.995 C 8.520 6.250,8.657 6.425,8.900 6.481 C 9.113 6.530,19.887 6.530,20.100 6.481 C 20.343 6.425,20.480 6.250,20.480 5.995 C 20.480 5.817,20.463 5.775,20.344 5.656 L 20.208 5.520 14.500 5.520 L 8.792 5.520 8.656 5.656 M4.656 11.656 C 4.537 11.775,4.520 11.818,4.520 11.993 C 4.520 12.150,4.542 12.220,4.621 12.314 C 4.758 12.477,4.957 12.540,5.139 12.480 C 5.357 12.408,5.480 12.233,5.480 11.993 C 5.480 11.818,5.463 11.775,5.344 11.656 C 5.224 11.536,5.183 11.520,5.000 11.520 C 4.817 11.520,4.776 11.536,4.656 11.656 M8.656 11.656 C 8.537 11.775,8.520 11.817,8.520 11.995 C 8.520 12.250,8.657 12.425,8.900 12.481 C 9.113 12.530,19.887 12.530,20.100 12.481 C 20.343 12.425,20.480 12.250,20.480 11.995 C 20.480 11.817,20.463 11.775,20.344 11.656 L 20.208 11.520 14.500 11.520 L 8.792 11.520 8.656 11.656 M4.656 17.656 C 4.537 17.775,4.520 17.818,4.520 17.993 C 4.520 18.150,4.542 18.220,4.621 18.314 C 4.758 18.477,4.957 18.540,5.139 18.480 C 5.357 18.408,5.480 18.233,5.480 17.993 C 5.480 17.818,5.463 17.775,5.344 17.656 C 5.224 17.536,5.183 17.520,5.000 17.520 C 4.817 17.520,4.776 17.536,4.656 17.656 M8.656 17.656 C 8.537 17.775,8.520 17.817,8.520 17.995 C 8.520 18.250,8.657 18.425,8.900 18.481 C 9.113 18.530,19.887 18.530,20.100 18.481 C 20.343 18.425,20.480 18.250,20.480 17.995 C 20.480 17.817,20.463 17.775,20.344 17.656 L 20.208 17.520 14.500 17.520 L 8.792 17.520 8.656 17.656 " stroke="none" fill="black" fill-rule="evenodd"></path></svg>