<svg xmlns="http://www.w3.org/2000/svg" class="icon icon-tabler icon-tabler-list-check" width="24" height="24" viewBox="0 0 24 24" stroke-width="1" stroke="currentColor" fill="none" stroke-linecap="round" stroke-linejoin="round"><path d="M7.300 4.046 C 7.256 4.070,6.721 4.587,6.110 5.194 L 5.000 6.299 4.390 5.694 C 4.055 5.361,3.741 5.069,3.693 5.044 C 3.305 4.848,2.852 5.324,3.057 5.712 C 3.088 5.771,3.490 6.194,3.949 6.650 L 4.784 7.480 5.001 7.480 L 5.217 7.480 6.551 6.150 C 7.285 5.419,7.911 4.771,7.943 4.712 C 8.149 4.323,7.682 3.839,7.300 4.046 M10.656 5.656 C 10.537 5.775,10.520 5.817,10.520 5.995 C 10.520 6.250,10.657 6.425,10.900 6.481 C 11.112 6.530,19.888 6.530,20.100 6.481 C 20.343 6.425,20.480 6.250,20.480 5.995 C 20.480 5.817,20.463 5.775,20.344 5.656 L 20.208 5.520 15.500 5.520 L 10.792 5.520 10.656 5.656 M7.300 10.046 C 7.256 10.070,6.721 10.587,6.110 11.194 L 5.000 12.299 4.390 11.694 C 4.055 11.361,3.741 11.069,3.693 11.044 C 3.305 10.848,2.852 11.324,3.057 11.712 C 3.088 11.771,3.490 12.194,3.949 12.650 L 4.784 13.480 5.001 13.480 L 5.217 13.480 6.551 12.150 C 7.285 11.418,7.911 10.771,7.943 10.712 C 8.149 10.323,7.682 9.839,7.300 10.046 M10.656 11.656 C 10.537 11.775,10.520 11.817,10.520 11.995 C 10.520 12.250,10.657 12.425,10.900 12.481 C 11.112 12.530,19.888 12.530,20.100 12.481 C 20.343 12.425,20.480 12.250,20.480 11.995 C 20.480 11.817,20.463 11.775,20.344 11.656 L 20.208 11.520 15.500 11.520 L 10.792 11.520 10.656 11.656 M7.300 16.046 C 7.256 16.070,6.721 16.587,6.110 17.194 L 5.000 18.299 4.390 17.694 C 4.055 17.361,3.741 17.069,3.693 17.044 C 3.305 16.848,2.852 17.324,3.057 17.712 C 3.088 17.771,3.490 18.194,3.949 18.650 L 4.784 19.480 5.001 19.480 L 5.217 19.480 6.551 18.150 C 7.285 17.418,7.911 16.771,7.943 16.712 C 8.149 16.323,7.682 15.839,7.300 16.046 M10.656 17.656 C 10.537 17.775,10.520 17.817,10.520 17.995 C 10.520 18.250,10.657 18.425,10.900 18.481 C 11.112 18.530,19.888 18.530,20.100 18.481 C 20.343 18.425,20.480 18.250,20.480 17.995 C 20.480 17.817,20.463 17.775,20.344 17.656 L 20.208 17.520 15.500 17.520 L 10.792 17.520 10.656 17.656 " stroke="none" fill="black" fill-rule="evenodd"></path></svg>