<svg xmlns="http://www.w3.org/2000/svg" class="icon icon-tabler icon-tabler-live-photo" width="24" height="24" viewBox="0 0 24 24" stroke-width="1" stroke="currentColor" fill="none" stroke-linecap="round" stroke-linejoin="round"><path d="M13.606 2.821 C 13.291 3.086,13.389 3.543,13.791 3.683 C 14.070 3.780,14.400 3.537,14.400 3.235 C 14.400 3.148,14.373 3.023,14.339 2.959 C 14.211 2.711,13.823 2.639,13.606 2.821 M9.604 2.863 C 9.202 3.201,9.536 3.856,10.041 3.720 C 10.462 3.606,10.538 3.015,10.156 2.818 C 9.977 2.725,9.745 2.744,9.604 2.863 M17.295 4.474 C 17.114 4.588,17.040 4.714,17.040 4.909 C 17.040 5.048,17.066 5.109,17.171 5.225 C 17.430 5.507,17.859 5.424,17.996 5.065 C 18.154 4.649,17.668 4.240,17.295 4.474 M6.072 4.587 C 5.692 4.831,5.812 5.419,6.257 5.502 C 6.450 5.538,6.671 5.420,6.772 5.227 C 6.869 5.040,6.838 4.844,6.685 4.673 C 6.546 4.518,6.246 4.475,6.072 4.587 M11.044 6.584 C 10.584 6.661,9.953 6.879,9.471 7.126 C 8.191 7.784,7.249 8.891,6.782 10.285 C 6.598 10.836,6.520 11.345,6.520 12.000 C 6.520 12.938,6.705 13.708,7.126 14.529 C 7.902 16.039,9.422 17.149,11.080 17.418 C 11.563 17.496,12.432 17.497,12.910 17.420 C 14.581 17.149,16.095 16.044,16.874 14.529 C 17.295 13.708,17.480 12.938,17.480 12.000 C 17.480 11.062,17.295 10.292,16.874 9.471 C 16.089 7.943,14.595 6.854,12.910 6.580 C 12.450 6.506,11.501 6.508,11.044 6.584 M19.848 7.559 C 19.673 7.639,19.560 7.813,19.560 8.003 C 19.560 8.146,19.685 8.360,19.803 8.422 C 20.058 8.553,20.383 8.461,20.495 8.226 C 20.709 7.775,20.300 7.353,19.848 7.559 M13.088 7.632 C 14.738 8.078,15.906 9.245,16.370 10.913 C 16.444 11.178,16.456 11.325,16.456 12.000 C 16.456 12.844,16.421 13.049,16.177 13.667 C 15.739 14.774,14.799 15.723,13.706 16.160 C 13.053 16.422,12.856 16.456,12.000 16.456 C 11.325 16.456,11.178 16.444,10.913 16.370 C 9.247 15.906,8.074 14.732,7.633 13.088 C 7.528 12.694,7.488 11.732,7.559 11.287 C 7.854 9.440,9.280 7.965,11.145 7.580 C 11.564 7.493,12.685 7.524,13.088 7.632 M3.740 7.669 C 3.356 7.767,3.242 8.253,3.543 8.517 C 3.865 8.800,4.360 8.568,4.360 8.134 C 4.360 8.002,4.237 7.782,4.132 7.727 C 4.030 7.674,3.835 7.645,3.740 7.669 M11.468 10.597 C 11.055 10.763,10.691 11.152,10.575 11.552 C 10.480 11.879,10.514 12.364,10.651 12.646 C 10.787 12.924,11.077 13.213,11.359 13.351 C 11.557 13.449,11.624 13.460,12.000 13.460 C 12.376 13.460,12.443 13.449,12.641 13.351 C 12.924 13.213,13.213 12.924,13.351 12.641 C 13.449 12.443,13.460 12.376,13.460 12.000 C 13.460 11.624,13.449 11.557,13.351 11.359 C 13.213 11.076,12.924 10.787,12.643 10.650 C 12.345 10.504,11.763 10.478,11.468 10.597 M20.684 11.503 C 20.617 11.559,20.546 11.664,20.526 11.735 C 20.474 11.924,20.531 12.224,20.641 12.341 C 20.840 12.553,21.188 12.541,21.377 12.316 C 21.465 12.212,21.480 12.155,21.480 11.933 C 21.480 11.690,21.471 11.663,21.344 11.536 C 21.225 11.417,21.182 11.400,21.007 11.400 C 20.850 11.400,20.780 11.422,20.684 11.503 M12.344 11.656 C 12.464 11.776,12.480 11.817,12.480 12.000 C 12.480 12.183,12.464 12.224,12.344 12.344 C 12.224 12.464,12.183 12.480,12.000 12.480 C 11.817 12.480,11.776 12.464,11.656 12.344 C 11.536 12.224,11.520 12.183,11.520 12.000 C 11.520 11.817,11.536 11.776,11.656 11.656 C 11.776 11.536,11.817 11.520,12.000 11.520 C 12.183 11.520,12.224 11.536,12.344 11.656 M2.751 11.623 C 2.432 11.796,2.446 12.339,2.774 12.495 C 2.948 12.577,3.052 12.577,3.226 12.495 C 3.570 12.331,3.576 11.794,3.236 11.618 C 3.094 11.544,2.891 11.546,2.751 11.623 M19.853 15.478 C 19.690 15.577,19.627 15.697,19.627 15.904 C 19.627 16.360,20.174 16.562,20.477 16.217 C 20.847 15.796,20.332 15.186,19.853 15.478 M3.692 15.505 C 3.459 15.620,3.354 15.893,3.452 16.126 C 3.533 16.317,3.651 16.407,3.852 16.429 C 4.427 16.494,4.629 15.718,4.095 15.495 C 3.926 15.425,3.851 15.427,3.692 15.505 M17.411 18.579 C 17.255 18.647,17.120 18.854,17.120 19.024 C 17.120 19.171,17.262 19.398,17.401 19.471 C 17.458 19.501,17.574 19.516,17.675 19.506 C 18.146 19.459,18.276 18.847,17.868 18.598 C 17.718 18.507,17.590 18.502,17.411 18.579 M6.172 18.638 C 5.929 18.786,5.855 19.073,5.998 19.308 C 6.151 19.559,6.447 19.628,6.684 19.469 C 6.925 19.306,6.986 19.049,6.842 18.812 C 6.694 18.569,6.407 18.495,6.172 18.638 M9.760 20.368 C 9.563 20.501,9.484 20.734,9.564 20.945 C 9.701 21.304,10.130 21.387,10.389 21.105 C 10.497 20.987,10.520 20.929,10.520 20.780 C 10.520 20.389,10.081 20.151,9.760 20.368 M13.728 20.379 C 13.484 20.585,13.463 20.897,13.680 21.114 C 13.906 21.340,14.276 21.300,14.439 21.032 C 14.586 20.791,14.509 20.465,14.272 20.334 C 14.114 20.246,13.861 20.267,13.728 20.379 " stroke="none" fill="black" fill-rule="evenodd"></path></svg>