<svg xmlns="http://www.w3.org/2000/svg" class="icon icon-tabler icon-tabler-location" width="24" height="24" viewBox="0 0 24 24" stroke-width="1" stroke="currentColor" fill="none" stroke-linecap="round" stroke-linejoin="round"><path d="M11.766 5.800 C 4.854 8.299,2.677 9.101,2.566 9.191 C 2.206 9.481,2.091 10.045,2.303 10.471 C 2.360 10.585,2.462 10.725,2.531 10.783 C 2.599 10.841,4.224 11.672,6.141 12.630 L 9.627 14.373 11.370 17.859 C 12.328 19.776,13.159 21.401,13.217 21.469 C 13.275 21.538,13.415 21.640,13.529 21.697 C 13.955 21.909,14.519 21.794,14.809 21.435 C 14.977 21.227,21.480 3.224,21.480 2.967 C 21.480 2.821,21.457 2.769,21.344 2.656 C 21.225 2.537,21.183 2.520,21.014 2.523 C 20.862 2.526,18.844 3.241,11.766 5.800 M20.159 3.850 C 20.153 3.939,14.036 20.781,14.006 20.791 C 13.982 20.799,13.163 19.207,12.186 17.253 C 11.209 15.299,10.376 13.670,10.335 13.634 C 10.294 13.598,8.670 12.774,6.727 11.803 C 4.784 10.832,3.201 10.018,3.208 9.995 C 3.216 9.971,3.717 9.774,4.321 9.556 C 4.926 9.337,6.194 8.879,7.140 8.538 C 8.086 8.197,11.389 7.002,14.480 5.883 C 19.891 3.924,20.161 3.828,20.159 3.850 " stroke="none" fill="black" fill-rule="evenodd"></path></svg>