<svg xmlns="http://www.w3.org/2000/svg" class="icon icon-tabler icon-tabler-lock-open" width="24" height="24" viewBox="0 0 24 24" stroke-width="1" stroke="currentColor" fill="none" stroke-linecap="round" stroke-linejoin="round"><path d="M11.145 1.582 C 9.561 1.897,8.244 3.049,7.740 4.561 C 7.514 5.238,7.512 5.262,7.492 7.990 L 7.473 10.520 7.041 10.520 C 6.285 10.520,5.748 10.735,5.242 11.242 C 4.922 11.561,4.738 11.864,4.603 12.294 L 4.501 12.620 4.500 15.980 C 4.500 19.094,4.505 19.359,4.572 19.593 C 4.838 20.528,5.449 21.148,6.380 21.425 C 6.604 21.491,6.964 21.497,11.700 21.510 C 14.980 21.519,16.925 21.509,17.189 21.483 C 18.305 21.371,19.121 20.684,19.427 19.600 C 19.495 19.357,19.500 19.116,19.500 16.000 C 19.500 12.884,19.495 12.643,19.427 12.400 C 19.196 11.582,18.666 10.982,17.900 10.670 L 17.580 10.540 13.050 10.529 L 8.520 10.518 8.520 8.047 C 8.520 6.442,8.535 5.492,8.563 5.340 C 8.786 4.138,9.709 3.089,10.910 2.676 C 11.295 2.543,11.310 2.541,12.000 2.541 C 12.690 2.541,12.705 2.543,13.090 2.676 C 13.841 2.934,14.489 3.436,14.921 4.091 C 15.286 4.645,15.413 5.058,15.504 5.978 C 15.524 6.177,15.549 6.237,15.660 6.348 C 15.775 6.463,15.818 6.480,16.000 6.480 C 16.185 6.480,16.224 6.464,16.349 6.339 L 16.491 6.197 16.469 5.709 C 16.380 3.690,14.860 1.966,12.830 1.580 C 12.435 1.506,11.526 1.506,11.145 1.582 M17.641 11.649 C 17.924 11.787,18.213 12.076,18.351 12.359 L 18.460 12.580 18.460 16.000 L 18.460 19.420 18.372 19.610 C 18.253 19.868,17.913 20.218,17.664 20.339 C 17.552 20.394,17.334 20.456,17.180 20.478 C 16.800 20.533,7.200 20.533,6.820 20.478 C 6.666 20.456,6.449 20.394,6.339 20.341 C 6.075 20.212,5.784 19.918,5.649 19.641 L 5.540 19.420 5.529 16.052 C 5.519 12.801,5.521 12.677,5.596 12.480 C 5.743 12.093,6.083 11.749,6.468 11.599 C 6.653 11.526,6.856 11.524,12.040 11.532 L 17.420 11.540 17.641 11.649 M11.468 14.597 C 11.055 14.763,10.691 15.152,10.575 15.552 C 10.480 15.879,10.514 16.364,10.651 16.646 C 10.787 16.924,11.077 17.213,11.359 17.351 C 11.557 17.449,11.624 17.460,12.000 17.460 C 12.376 17.460,12.443 17.449,12.641 17.351 C 12.924 17.213,13.213 16.924,13.351 16.641 C 13.449 16.443,13.460 16.376,13.460 16.000 C 13.460 15.624,13.449 15.557,13.351 15.359 C 13.213 15.076,12.924 14.787,12.643 14.650 C 12.345 14.504,11.763 14.478,11.468 14.597 M12.344 15.656 C 12.464 15.776,12.480 15.817,12.480 16.000 C 12.480 16.183,12.464 16.224,12.344 16.344 C 12.224 16.464,12.183 16.480,12.000 16.480 C 11.817 16.480,11.776 16.464,11.656 16.344 C 11.536 16.224,11.520 16.183,11.520 16.000 C 11.520 15.817,11.536 15.776,11.656 15.656 C 11.776 15.536,11.817 15.520,12.000 15.520 C 12.183 15.520,12.224 15.536,12.344 15.656 " stroke="none" fill="black" fill-rule="evenodd"></path></svg>