<svg xmlns="http://www.w3.org/2000/svg" class="icon icon-tabler icon-tabler-login" width="24" height="24" viewBox="0 0 24 24" stroke-width="1" stroke="currentColor" fill="none" stroke-linecap="round" stroke-linejoin="round"><path d="M4.274 3.614 C 3.870 3.735,3.561 3.922,3.242 4.242 C 2.922 4.561,2.739 4.864,2.603 5.294 L 2.500 5.620 2.500 11.980 C 2.500 17.982,2.504 18.354,2.572 18.593 C 2.838 19.529,3.452 20.150,4.380 20.424 C 4.600 20.489,4.920 20.496,8.198 20.510 C 10.484 20.519,11.924 20.509,12.187 20.483 C 13.297 20.371,14.126 19.679,14.420 18.620 C 14.471 18.436,14.491 18.131,14.508 17.315 C 14.536 15.999,14.519 15.831,14.340 15.652 C 14.226 15.538,14.181 15.520,14.009 15.520 C 13.799 15.520,13.647 15.604,13.550 15.773 C 13.514 15.835,13.494 16.225,13.480 17.140 L 13.460 18.420 13.350 18.644 C 13.219 18.910,12.873 19.252,12.623 19.363 C 12.283 19.513,11.945 19.525,8.280 19.511 C 5.053 19.499,4.722 19.492,4.535 19.429 C 4.130 19.292,3.750 18.925,3.597 18.521 C 3.521 18.322,3.520 18.160,3.530 11.949 L 3.540 5.580 3.649 5.359 C 3.787 5.076,4.076 4.787,4.359 4.649 L 4.580 4.540 8.500 4.540 L 12.420 4.540 12.641 4.649 C 12.924 4.787,13.213 5.076,13.351 5.359 L 13.460 5.580 13.480 6.860 C 13.494 7.775,13.514 8.165,13.550 8.227 C 13.647 8.396,13.799 8.480,14.009 8.480 C 14.181 8.480,14.226 8.462,14.340 8.348 C 14.519 8.169,14.536 8.001,14.508 6.685 C 14.484 5.532,14.458 5.359,14.238 4.900 C 13.978 4.358,13.491 3.911,12.900 3.670 L 12.580 3.540 8.580 3.532 L 4.580 3.523 4.274 3.614 M8.151 10.151 L 6.520 11.781 6.520 12.000 L 6.520 12.219 8.151 13.849 L 9.781 15.480 9.995 15.480 C 10.184 15.480,10.223 15.465,10.344 15.344 C 10.465 15.223,10.480 15.184,10.480 14.996 L 10.480 14.783 9.351 13.652 L 8.222 12.520 14.081 12.519 C 17.515 12.518,20.006 12.503,20.100 12.481 C 20.343 12.425,20.480 12.250,20.480 11.995 C 20.480 11.817,20.463 11.775,20.344 11.656 L 20.208 11.520 14.224 11.520 C 10.933 11.520,8.240 11.507,8.240 11.491 C 8.240 11.475,8.744 10.957,9.360 10.339 L 10.480 9.217 10.480 9.004 C 10.480 8.816,10.465 8.777,10.344 8.656 C 10.223 8.535,10.184 8.520,9.995 8.520 L 9.781 8.520 8.151 10.151 " stroke="none" fill="black" fill-rule="evenodd"></path></svg>