<svg xmlns="http://www.w3.org/2000/svg" class="icon icon-tabler icon-tabler-logout" width="24" height="24" viewBox="0 0 24 24" stroke-width="1" stroke="currentColor" fill="none" stroke-linecap="round" stroke-linejoin="round"><path d="M4.274 3.614 C 3.870 3.735,3.561 3.922,3.242 4.242 C 2.922 4.561,2.739 4.864,2.603 5.294 L 2.500 5.620 2.500 11.980 C 2.500 17.982,2.504 18.354,2.572 18.593 C 2.838 19.529,3.452 20.150,4.380 20.424 C 4.600 20.489,4.920 20.496,8.198 20.510 C 10.484 20.519,11.924 20.509,12.187 20.483 C 13.297 20.371,14.126 19.679,14.420 18.620 C 14.471 18.436,14.491 18.131,14.508 17.315 C 14.536 15.999,14.519 15.831,14.340 15.652 C 14.226 15.538,14.181 15.520,14.009 15.520 C 13.799 15.520,13.647 15.604,13.550 15.773 C 13.514 15.835,13.494 16.225,13.480 17.140 L 13.460 18.420 13.350 18.644 C 13.219 18.910,12.873 19.252,12.623 19.363 C 12.283 19.513,11.945 19.525,8.280 19.511 C 5.053 19.499,4.722 19.492,4.535 19.429 C 4.130 19.292,3.750 18.925,3.597 18.521 C 3.521 18.322,3.520 18.160,3.530 11.949 L 3.540 5.580 3.649 5.359 C 3.787 5.076,4.076 4.787,4.359 4.649 L 4.580 4.540 8.500 4.540 L 12.420 4.540 12.641 4.649 C 12.924 4.787,13.213 5.076,13.351 5.359 L 13.460 5.580 13.480 6.860 C 13.494 7.775,13.514 8.165,13.550 8.227 C 13.647 8.396,13.799 8.480,14.009 8.480 C 14.181 8.480,14.226 8.462,14.340 8.348 C 14.519 8.169,14.536 8.001,14.508 6.685 C 14.484 5.532,14.458 5.359,14.238 4.900 C 13.978 4.358,13.491 3.911,12.900 3.670 L 12.580 3.540 8.580 3.532 L 4.580 3.523 4.274 3.614 M17.656 8.656 C 17.535 8.777,17.520 8.816,17.520 9.004 L 17.520 9.217 18.640 10.339 C 19.256 10.957,19.760 11.475,19.760 11.491 C 19.760 11.507,16.842 11.520,13.276 11.520 L 6.792 11.520 6.656 11.656 C 6.537 11.775,6.520 11.817,6.520 11.995 C 6.520 12.250,6.657 12.425,6.900 12.481 C 6.994 12.503,9.679 12.518,13.419 12.519 L 19.778 12.520 18.649 13.652 L 17.520 14.783 17.520 14.996 C 17.520 15.184,17.535 15.223,17.656 15.344 C 17.777 15.465,17.816 15.480,18.005 15.480 L 18.219 15.480 19.849 13.849 L 21.480 12.219 21.480 12.000 L 21.480 11.781 19.849 10.151 L 18.219 8.520 18.005 8.520 C 17.816 8.520,17.777 8.535,17.656 8.656 " stroke="none" fill="black" fill-rule="evenodd"></path></svg>