<svg xmlns="http://www.w3.org/2000/svg" class="icon icon-tabler icon-tabler-magnet" width="24" height="24" viewBox="0 0 24 24" stroke-width="1" stroke="currentColor" fill="none" stroke-linecap="round" stroke-linejoin="round"><path d="M5.274 2.613 C 4.869 2.735,4.560 2.923,4.242 3.242 C 3.922 3.561,3.739 3.864,3.603 4.294 L 3.500 4.620 3.500 9.140 C 3.500 14.131,3.493 13.976,3.760 15.060 C 4.599 18.462,7.483 21.003,10.999 21.438 C 11.477 21.497,12.623 21.489,13.120 21.422 C 16.335 20.994,19.034 18.764,20.052 15.695 C 20.244 15.116,20.361 14.603,20.448 13.960 C 20.488 13.668,20.500 12.542,20.500 9.120 C 20.500 4.919,20.496 4.645,20.427 4.400 C 20.196 3.582,19.665 2.980,18.900 2.671 L 18.580 2.542 17.614 2.528 C 16.724 2.515,16.623 2.521,16.327 2.600 C 15.910 2.713,15.565 2.917,15.241 3.242 C 14.921 3.562,14.738 3.866,14.604 4.294 L 14.502 4.620 14.480 9.100 L 14.458 13.580 14.364 13.834 C 14.248 14.146,13.938 14.619,13.717 14.818 C 13.462 15.048,13.102 15.266,12.808 15.368 C 12.579 15.446,12.460 15.460,12.000 15.460 C 11.353 15.460,11.084 15.385,10.622 15.076 C 10.168 14.772,9.823 14.337,9.634 13.829 L 9.542 13.580 9.518 9.100 C 9.497 4.973,9.489 4.601,9.424 4.380 C 9.185 3.570,8.656 2.976,7.900 2.671 L 7.580 2.542 6.580 2.531 C 5.635 2.522,5.563 2.526,5.274 2.613 M7.641 3.649 C 7.924 3.787,8.213 4.076,8.351 4.359 L 8.460 4.580 8.472 6.050 L 8.484 7.520 6.502 7.520 L 4.520 7.520 4.520 6.100 C 4.520 4.796,4.526 4.664,4.597 4.478 C 4.743 4.093,5.082 3.751,5.468 3.598 C 5.639 3.530,5.755 3.523,6.540 3.531 C 7.408 3.540,7.423 3.542,7.641 3.649 M18.641 3.649 C 18.924 3.787,19.213 4.076,19.351 4.359 L 19.460 4.580 19.472 6.188 L 19.483 7.795 19.346 7.658 L 19.208 7.520 17.364 7.520 L 15.520 7.520 15.520 6.100 C 15.520 4.796,15.526 4.664,15.597 4.478 C 15.743 4.093,16.082 3.751,16.468 3.598 C 16.639 3.530,16.755 3.523,17.540 3.531 C 18.408 3.540,18.423 3.542,18.641 3.649 M19.419 14.060 C 19.296 14.912,19.052 15.673,18.654 16.441 C 17.539 18.593,15.474 20.065,13.075 20.418 C 12.521 20.499,11.479 20.499,10.925 20.418 C 7.634 19.934,5.066 17.366,4.582 14.075 C 4.531 13.724,4.520 13.201,4.520 11.085 L 4.520 8.520 6.500 8.520 L 8.480 8.520 8.480 10.670 C 8.481 11.853,8.499 13.025,8.521 13.276 C 8.599 14.158,8.915 14.835,9.540 15.460 C 9.963 15.883,10.366 16.137,10.920 16.328 C 11.293 16.457,11.313 16.459,12.000 16.459 C 12.687 16.459,12.707 16.457,13.080 16.328 C 13.634 16.137,14.037 15.883,14.460 15.460 C 15.085 14.835,15.401 14.158,15.479 13.276 C 15.501 13.025,15.519 11.853,15.520 10.670 L 15.520 8.520 17.230 8.519 C 18.171 8.519,19.012 8.501,19.100 8.481 C 19.191 8.460,19.303 8.396,19.360 8.332 L 19.460 8.220 19.471 10.920 C 19.480 13.211,19.472 13.687,19.419 14.060 " stroke="none" fill="black" fill-rule="evenodd"></path></svg>