<svg xmlns="http://www.w3.org/2000/svg" class="icon icon-tabler icon-tabler-mail" width="24" height="24" viewBox="0 0 24 24" stroke-width="1" stroke="currentColor" fill="none" stroke-linecap="round" stroke-linejoin="round"><path d="M4.274 4.615 C 3.870 4.734,3.561 4.922,3.242 5.242 C 2.922 5.561,2.739 5.864,2.603 6.294 L 2.500 6.620 2.500 11.980 C 2.500 17.054,2.504 17.354,2.573 17.600 C 2.834 18.527,3.444 19.141,4.386 19.426 C 4.605 19.493,5.062 19.498,11.700 19.510 C 16.315 19.519,18.922 19.509,19.189 19.482 C 20.305 19.371,21.121 18.684,21.427 17.600 C 21.496 17.354,21.500 17.054,21.500 12.000 C 21.500 6.946,21.496 6.646,21.427 6.400 C 21.196 5.582,20.666 4.982,19.900 4.670 L 19.580 4.540 12.080 4.532 L 4.580 4.524 4.274 4.615 M19.641 5.649 C 20.023 5.836,20.371 6.261,20.455 6.644 C 20.477 6.743,20.293 6.871,16.239 9.574 L 12.000 12.400 7.790 9.595 C 5.474 8.053,3.565 6.776,3.546 6.759 C 3.491 6.708,3.633 6.340,3.787 6.131 C 3.962 5.896,4.214 5.698,4.468 5.599 C 4.654 5.526,4.900 5.524,12.040 5.532 L 19.420 5.540 19.641 5.649 M7.700 10.738 L 11.780 13.460 12.000 13.460 L 12.220 13.460 16.300 10.738 C 18.544 9.240,20.403 8.002,20.431 7.985 C 20.471 7.960,20.479 8.877,20.471 12.687 L 20.460 17.420 20.350 17.644 C 20.220 17.909,19.874 18.252,19.626 18.362 C 19.530 18.404,19.327 18.457,19.176 18.479 C 18.799 18.533,5.201 18.533,4.820 18.478 C 4.666 18.456,4.449 18.394,4.339 18.341 C 4.075 18.212,3.784 17.918,3.649 17.641 L 3.540 17.420 3.530 12.687 C 3.521 8.885,3.529 7.961,3.570 7.985 C 3.597 8.002,5.456 9.240,7.700 10.738 " stroke="none" fill="black" fill-rule="evenodd"></path></svg>