<svg xmlns="http://www.w3.org/2000/svg" class="icon icon-tabler icon-tabler-mail-opened" width="24" height="24" viewBox="0 0 24 24" stroke-width="1" stroke="currentColor" fill="none" stroke-linecap="round" stroke-linejoin="round"><path d="M7.220 5.590 C 3.349 8.174,2.609 8.682,2.549 8.800 C 2.483 8.932,2.480 9.238,2.491 14.160 C 2.502 19.021,2.508 19.396,2.574 19.614 C 2.856 20.547,3.457 21.149,4.380 21.425 C 4.606 21.493,5.025 21.498,11.700 21.510 C 16.315 21.519,18.922 21.509,19.189 21.482 C 20.295 21.372,21.102 20.701,21.425 19.620 C 21.493 19.395,21.498 19.047,21.509 14.160 C 21.520 9.238,21.517 8.932,21.451 8.800 C 21.391 8.682,20.651 8.174,16.780 5.590 C 12.386 2.657,12.172 2.520,12.000 2.520 C 11.828 2.520,11.614 2.657,7.220 5.590 M16.055 6.300 C 18.267 7.774,20.078 8.989,20.078 9.000 C 20.078 9.011,18.260 10.230,16.039 11.710 L 12.001 14.400 7.961 11.710 C 5.740 10.230,3.922 9.011,3.922 9.000 C 3.922 8.971,11.975 3.604,12.006 3.613 C 12.020 3.617,13.842 4.826,16.055 6.300 M5.975 11.580 C 7.197 12.394,8.198 13.069,8.199 13.080 C 8.200 13.091,7.147 14.153,5.860 15.440 L 3.520 17.780 3.520 13.866 L 3.520 9.952 3.636 10.026 C 3.699 10.067,4.752 10.766,5.975 11.580 M20.480 13.870 L 20.480 17.780 18.132 15.432 C 16.840 14.140,15.792 13.076,15.802 13.067 C 15.833 13.039,20.459 9.960,20.470 9.960 C 20.475 9.960,20.480 11.719,20.480 13.870 M10.540 14.627 C 11.733 15.422,11.832 15.480,12.000 15.480 C 12.168 15.480,12.271 15.419,13.560 14.560 L 14.940 13.640 17.712 16.410 L 20.483 19.180 20.459 19.320 C 20.415 19.566,20.290 19.794,20.077 20.020 C 19.825 20.286,19.553 20.425,19.180 20.478 C 18.798 20.533,5.202 20.533,4.820 20.478 C 4.472 20.429,4.192 20.295,3.966 20.072 C 3.754 19.862,3.621 19.642,3.554 19.389 L 3.503 19.197 6.280 16.420 L 9.058 13.642 9.159 13.708 C 9.214 13.744,9.836 14.158,10.540 14.627 " stroke="none" fill="black" fill-rule="evenodd"></path></svg>