<svg xmlns="http://www.w3.org/2000/svg" class="icon icon-tabler icon-tabler-man" width="24" height="24" viewBox="0 0 24 24" stroke-width="1" stroke="currentColor" fill="none" stroke-linecap="round" stroke-linejoin="round"><path d="M11.274 2.613 C 10.869 2.736,10.560 2.923,10.242 3.241 C 9.718 3.764,9.500 4.331,9.528 5.098 C 9.541 5.446,9.567 5.603,9.652 5.839 C 9.908 6.557,10.492 7.130,11.207 7.364 C 11.459 7.447,11.576 7.460,12.040 7.459 C 12.553 7.457,12.596 7.451,12.900 7.328 C 13.882 6.933,14.480 6.053,14.480 5.000 C 14.480 3.947,13.879 3.061,12.900 2.673 C 12.612 2.559,12.530 2.545,12.080 2.533 C 11.647 2.521,11.539 2.532,11.274 2.613 M12.641 3.649 C 12.924 3.787,13.213 4.076,13.351 4.359 C 13.449 4.557,13.460 4.624,13.460 5.000 C 13.460 5.348,13.445 5.453,13.372 5.610 C 13.250 5.875,12.912 6.218,12.644 6.350 C 12.443 6.449,12.377 6.460,12.000 6.460 C 11.624 6.460,11.557 6.449,11.359 6.351 C 11.076 6.213,10.787 5.924,10.649 5.641 C 10.499 5.337,10.474 4.802,10.593 4.488 C 10.743 4.094,11.077 3.753,11.468 3.597 C 11.766 3.478,12.345 3.503,12.641 3.649 M9.468 10.599 C 9.071 10.754,8.704 11.137,8.572 11.535 C 8.513 11.714,8.502 11.993,8.489 13.760 C 8.481 14.871,8.486 15.879,8.501 16.000 C 8.527 16.216,8.536 16.228,9.004 16.702 L 9.480 17.184 9.481 19.562 C 9.481 20.870,9.499 22.012,9.519 22.100 C 9.574 22.341,9.751 22.480,10.000 22.480 C 10.249 22.480,10.426 22.341,10.481 22.100 C 10.529 21.893,10.530 17.109,10.482 16.903 C 10.453 16.778,10.351 16.652,9.983 16.283 L 9.520 15.819 9.520 13.805 L 9.520 11.792 9.656 11.656 L 9.792 11.520 12.000 11.520 L 14.208 11.520 14.344 11.656 L 14.480 11.792 14.480 13.805 L 14.480 15.819 14.017 16.283 C 13.649 16.652,13.547 16.778,13.518 16.903 C 13.470 17.109,13.471 21.893,13.519 22.100 C 13.574 22.341,13.751 22.480,14.000 22.480 C 14.249 22.480,14.426 22.341,14.481 22.100 C 14.501 22.012,14.519 20.870,14.519 19.562 L 14.520 17.184 14.996 16.702 C 15.464 16.228,15.473 16.216,15.499 16.000 C 15.514 15.879,15.519 14.871,15.511 13.760 C 15.498 11.993,15.487 11.714,15.428 11.535 C 15.292 11.125,14.908 10.733,14.507 10.594 C 14.317 10.529,14.104 10.523,11.980 10.523 C 9.807 10.524,9.648 10.528,9.468 10.599 " stroke="none" fill="black" fill-rule="evenodd"></path></svg>