<svg xmlns="http://www.w3.org/2000/svg" class="icon icon-tabler icon-tabler-map-pin" width="24" height="24" viewBox="0 0 24 24" stroke-width="1" stroke="currentColor" fill="none" stroke-linecap="round" stroke-linejoin="round"><path d="M10.820 2.583 C 9.309 2.814,8.001 3.365,6.801 4.274 C 6.427 4.556,5.643 5.329,5.353 5.700 C 4.469 6.831,3.905 8.077,3.634 9.500 C 3.529 10.048,3.486 11.441,3.558 11.985 C 3.771 13.613,4.363 15.038,5.349 16.297 C 5.471 16.453,6.680 17.689,8.036 19.045 C 10.702 21.712,10.670 21.684,11.300 21.880 C 11.631 21.982,12.218 22.002,12.560 21.923 C 12.681 21.895,12.933 21.800,13.120 21.712 L 13.460 21.552 15.965 19.046 C 18.565 16.446,18.779 16.209,19.276 15.386 C 19.878 14.389,20.292 13.185,20.438 12.001 C 20.492 11.565,20.492 10.435,20.438 9.999 C 20.203 8.100,19.364 6.367,18.028 5.023 C 17.781 4.775,17.453 4.472,17.297 4.350 C 16.097 3.407,14.655 2.790,13.168 2.583 C 12.608 2.505,11.330 2.505,10.820 2.583 M13.501 3.654 C 16.502 4.294,18.757 6.580,19.367 9.600 C 19.449 10.004,19.460 10.175,19.460 11.000 C 19.460 11.825,19.449 11.996,19.367 12.400 C 19.094 13.754,18.506 14.942,17.591 15.989 C 17.422 16.182,16.298 17.324,15.092 18.528 C 13.205 20.411,12.869 20.730,12.676 20.818 C 12.205 21.034,11.797 21.034,11.324 20.819 C 11.130 20.730,10.790 20.406,8.757 18.368 C 7.468 17.077,6.305 15.885,6.172 15.720 C 5.424 14.789,4.909 13.694,4.649 12.481 C 4.549 12.015,4.542 11.912,4.542 11.000 C 4.542 10.088,4.549 9.985,4.649 9.519 C 5.027 7.756,5.922 6.286,7.305 5.156 C 8.194 4.429,9.433 3.857,10.580 3.644 C 11.229 3.524,11.190 3.526,12.140 3.540 C 12.903 3.550,13.084 3.566,13.501 3.654 M11.259 7.576 C 10.065 7.848,9.079 8.739,8.676 9.910 C 8.543 10.294,8.541 10.310,8.541 11.000 C 8.541 11.687,8.543 11.707,8.672 12.080 C 8.863 12.634,9.117 13.037,9.540 13.460 C 9.963 13.883,10.366 14.137,10.920 14.328 C 11.293 14.457,11.313 14.459,12.000 14.459 C 12.688 14.459,12.706 14.457,13.079 14.327 C 13.288 14.255,13.558 14.139,13.679 14.071 C 14.449 13.635,15.035 12.930,15.324 12.090 C 15.457 11.705,15.459 11.690,15.459 11.000 C 15.459 10.310,15.457 10.295,15.324 9.910 C 15.035 9.070,14.449 8.365,13.679 7.929 C 13.558 7.861,13.288 7.747,13.079 7.676 C 12.730 7.557,12.653 7.546,12.100 7.534 C 11.694 7.526,11.422 7.539,11.259 7.576 M12.834 8.640 C 13.142 8.749,13.615 9.059,13.818 9.283 C 14.048 9.538,14.266 9.898,14.368 10.192 C 14.446 10.421,14.460 10.540,14.460 11.000 C 14.460 11.460,14.446 11.579,14.368 11.808 C 14.190 12.320,13.844 12.765,13.378 13.076 C 12.916 13.385,12.647 13.460,12.000 13.460 C 11.540 13.460,11.421 13.446,11.192 13.368 C 10.898 13.266,10.538 13.048,10.283 12.818 C 10.058 12.615,9.749 12.141,9.640 11.834 C 9.516 11.481,9.484 10.763,9.577 10.399 C 9.803 9.515,10.484 8.821,11.360 8.581 C 11.694 8.489,12.500 8.522,12.834 8.640 " stroke="none" fill="black" fill-rule="evenodd"></path></svg>