<svg xmlns="http://www.w3.org/2000/svg" class="icon icon-tabler icon-tabler-map-2" width="24" height="24" viewBox="0 0 24 24" stroke-width="1" stroke="currentColor" fill="none" stroke-linecap="round" stroke-linejoin="round"><path d="M17.520 1.583 C 17.465 1.593,17.312 1.620,17.180 1.643 C 16.564 1.749,15.821 2.077,15.292 2.476 C 14.499 3.073,13.924 3.925,13.651 4.905 C 13.548 5.272,13.541 5.353,13.541 6.060 C 13.541 6.767,13.548 6.848,13.651 7.215 C 13.711 7.432,13.830 7.756,13.914 7.935 C 14.078 8.283,17.466 13.169,17.683 13.370 C 17.852 13.527,18.148 13.527,18.317 13.370 C 18.534 13.169,21.922 8.283,22.086 7.935 C 22.170 7.756,22.289 7.432,22.349 7.215 C 22.450 6.850,22.459 6.763,22.459 6.080 C 22.460 5.430,22.449 5.297,22.366 4.985 C 21.914 3.274,20.616 2.026,18.906 1.655 C 18.627 1.595,17.720 1.548,17.520 1.583 M18.937 2.700 C 20.123 3.045,20.958 3.857,21.341 5.040 C 21.433 5.324,21.454 5.472,21.470 5.940 C 21.491 6.575,21.420 6.980,21.205 7.456 C 21.088 7.715,18.062 12.080,18.000 12.080 C 17.938 12.080,14.913 7.715,14.796 7.457 C 14.414 6.616,14.422 5.473,14.815 4.622 C 15.317 3.537,16.309 2.787,17.493 2.598 C 17.866 2.538,18.544 2.586,18.937 2.700 M5.792 5.050 C 3.424 6.238,2.642 6.647,2.581 6.733 C 2.501 6.845,2.500 6.893,2.488 13.313 C 2.481 16.870,2.488 19.878,2.502 19.998 C 2.523 20.172,2.554 20.242,2.660 20.348 C 2.923 20.611,2.810 20.655,6.080 19.020 L 8.999 17.560 11.961 19.040 C 13.589 19.854,14.957 20.520,15.000 20.520 C 15.044 20.520,16.487 19.814,18.208 18.950 C 20.574 17.763,21.358 17.352,21.419 17.267 C 21.494 17.163,21.501 17.082,21.513 16.187 C 21.530 14.968,21.514 14.826,21.340 14.652 C 21.225 14.537,21.181 14.520,21.005 14.520 C 20.839 14.520,20.778 14.541,20.679 14.630 C 20.507 14.784,20.482 14.939,20.481 15.880 L 20.480 16.700 18.020 17.930 C 16.667 18.607,15.551 19.160,15.540 19.160 C 15.529 19.160,15.520 18.238,15.519 17.110 C 15.519 15.982,15.501 14.988,15.481 14.900 C 15.426 14.659,15.249 14.520,15.000 14.520 C 14.751 14.520,14.574 14.659,14.519 14.900 C 14.499 14.988,14.481 15.982,14.481 17.110 C 14.480 18.238,14.471 19.160,14.460 19.160 C 14.449 19.160,13.333 18.607,11.980 17.930 L 9.520 16.700 9.520 10.770 C 9.520 7.509,9.529 4.840,9.541 4.840 C 9.552 4.840,9.741 4.930,9.960 5.040 C 10.456 5.289,10.614 5.302,10.825 5.109 C 10.938 5.005,10.972 4.940,10.986 4.799 C 11.020 4.471,10.954 4.415,9.957 3.919 C 9.471 3.678,9.039 3.480,8.997 3.480 C 8.955 3.480,7.513 4.186,5.792 5.050 M8.480 10.770 L 8.480 16.700 6.020 17.930 C 4.667 18.607,3.551 19.160,3.540 19.160 C 3.529 19.160,3.520 16.491,3.520 13.230 L 3.520 7.300 5.970 6.072 C 7.317 5.397,8.434 4.843,8.450 4.842 C 8.466 4.841,8.480 7.509,8.480 10.770 M17.656 5.656 C 17.537 5.775,17.520 5.818,17.520 5.993 C 17.520 6.477,18.069 6.682,18.379 6.314 C 18.458 6.220,18.480 6.150,18.480 5.993 C 18.480 5.818,18.463 5.775,18.344 5.656 C 18.224 5.536,18.183 5.520,18.000 5.520 C 17.817 5.520,17.776 5.536,17.656 5.656 " stroke="none" fill="black" fill-rule="evenodd"></path></svg>