<svg xmlns="http://www.w3.org/2000/svg" class="icon icon-tabler icon-tabler-map" width="24" height="24" viewBox="0 0 24 24" stroke-width="1" stroke="currentColor" fill="none" stroke-linecap="round" stroke-linejoin="round"><path d="M5.792 5.050 C 3.424 6.238,2.642 6.647,2.581 6.733 C 2.501 6.845,2.500 6.893,2.488 13.313 C 2.481 16.870,2.488 19.878,2.502 19.998 C 2.523 20.172,2.554 20.242,2.660 20.348 C 2.923 20.611,2.810 20.655,6.080 19.020 L 8.999 17.560 11.961 19.040 C 13.589 19.854,14.957 20.520,15.000 20.520 C 15.044 20.520,16.487 19.814,18.208 18.950 C 20.576 17.762,21.358 17.353,21.419 17.267 C 21.499 17.155,21.500 17.107,21.512 10.687 C 21.519 7.130,21.512 4.122,21.498 4.002 C 21.477 3.828,21.446 3.758,21.340 3.652 C 21.077 3.389,21.190 3.345,17.920 4.980 L 15.001 6.440 12.039 4.960 C 10.411 4.146,9.043 3.480,9.000 3.480 C 8.956 3.480,7.513 4.186,5.792 5.050 M8.480 10.770 L 8.480 16.700 6.020 17.930 C 4.667 18.607,3.551 19.160,3.540 19.160 C 3.529 19.160,3.520 16.491,3.520 13.230 L 3.520 7.300 5.970 6.072 C 7.317 5.397,8.434 4.843,8.450 4.842 C 8.466 4.841,8.480 7.509,8.480 10.770 M12.020 6.070 L 14.480 7.300 14.480 13.230 C 14.480 16.491,14.471 19.160,14.460 19.160 C 14.449 19.160,13.333 18.607,11.980 17.930 L 9.520 16.700 9.520 10.770 C 9.520 7.509,9.529 4.840,9.540 4.840 C 9.551 4.840,10.667 5.393,12.020 6.070 M20.480 10.770 L 20.480 16.700 18.020 17.930 C 16.667 18.607,15.551 19.160,15.540 19.160 C 15.529 19.160,15.520 16.491,15.520 13.230 L 15.520 7.300 17.970 6.072 C 19.317 5.397,20.433 4.843,20.450 4.842 C 20.466 4.841,20.480 7.509,20.480 10.770 " stroke="none" fill="black" fill-rule="evenodd"></path></svg>