<svg xmlns="http://www.w3.org/2000/svg" class="icon icon-tabler icon-tabler-markdown" width="24" height="24" viewBox="0 0 24 24" stroke-width="1" stroke="currentColor" fill="none" stroke-linecap="round" stroke-linejoin="round"><path d="M4.274 4.615 C 3.870 4.734,3.561 4.922,3.242 5.242 C 2.922 5.561,2.739 5.864,2.603 6.294 L 2.500 6.620 2.500 11.980 C 2.500 17.054,2.504 17.354,2.573 17.600 C 2.834 18.527,3.444 19.141,4.386 19.426 C 4.605 19.493,5.062 19.498,11.700 19.510 C 16.315 19.519,18.922 19.509,19.189 19.482 C 20.305 19.371,21.121 18.684,21.427 17.600 C 21.496 17.354,21.500 17.054,21.500 12.000 C 21.500 6.946,21.496 6.646,21.427 6.400 C 21.196 5.582,20.666 4.982,19.900 4.670 L 19.580 4.540 12.080 4.532 L 4.580 4.524 4.274 4.615 M19.641 5.649 C 19.924 5.787,20.213 6.076,20.351 6.359 L 20.460 6.580 20.460 12.000 L 20.460 17.420 20.350 17.644 C 20.220 17.909,19.874 18.252,19.626 18.362 C 19.530 18.404,19.327 18.457,19.176 18.479 C 18.799 18.533,5.201 18.533,4.820 18.478 C 4.666 18.456,4.449 18.394,4.339 18.341 C 4.075 18.212,3.784 17.918,3.649 17.641 L 3.540 17.420 3.530 12.052 C 3.519 6.827,3.521 6.678,3.597 6.479 C 3.743 6.093,4.083 5.749,4.468 5.599 C 4.654 5.526,4.900 5.524,12.040 5.532 L 19.420 5.540 19.641 5.649 M6.679 8.630 C 6.605 8.696,6.541 8.804,6.519 8.900 C 6.470 9.110,6.470 14.890,6.519 15.100 C 6.574 15.341,6.751 15.480,7.000 15.480 C 7.249 15.480,7.426 15.341,7.481 15.100 C 7.501 15.012,7.519 13.879,7.519 12.582 L 7.520 10.223 8.153 10.852 L 8.786 11.480 9.000 11.480 L 9.214 11.480 9.847 10.852 L 10.480 10.223 10.481 12.582 C 10.481 13.879,10.499 15.012,10.519 15.100 C 10.574 15.341,10.751 15.480,11.000 15.480 C 11.249 15.480,11.426 15.341,11.481 15.100 C 11.530 14.890,11.530 9.110,11.481 8.900 C 11.425 8.656,11.250 8.520,10.991 8.520 L 10.784 8.520 9.892 9.409 L 9.000 10.298 8.108 9.409 L 7.216 8.520 7.009 8.520 C 6.839 8.520,6.779 8.540,6.679 8.630 M15.679 8.630 C 15.605 8.696,15.541 8.804,15.519 8.900 C 15.499 8.988,15.481 10.121,15.481 11.418 L 15.480 13.777 14.847 13.148 L 14.214 12.520 14.003 12.520 C 13.816 12.520,13.776 12.536,13.656 12.656 C 13.535 12.777,13.520 12.816,13.520 13.005 L 13.520 13.218 14.651 14.349 L 15.782 15.480 16.000 15.480 L 16.218 15.480 17.349 14.349 L 18.480 13.218 18.480 13.005 C 18.480 12.816,18.465 12.777,18.344 12.656 C 18.224 12.536,18.184 12.520,17.997 12.520 L 17.786 12.520 17.153 13.148 L 16.520 13.777 16.519 11.418 C 16.519 10.121,16.501 8.988,16.481 8.900 C 16.426 8.659,16.249 8.520,16.000 8.520 C 15.840 8.520,15.778 8.541,15.679 8.630 " stroke="none" fill="black" fill-rule="evenodd"></path></svg>