<svg xmlns="http://www.w3.org/2000/svg" class="icon icon-tabler icon-tabler-math" width="24" height="24" viewBox="0 0 24 24" stroke-width="1" stroke="currentColor" fill="none" stroke-linecap="round" stroke-linejoin="round"><path d="M12.678 4.630 C 12.560 4.735,12.465 5.053,10.779 10.953 C 9.803 14.369,8.974 17.267,8.938 17.392 L 8.871 17.620 7.638 15.155 C 6.788 13.456,6.371 12.663,6.297 12.605 C 6.193 12.523,6.151 12.520,4.991 12.520 L 3.792 12.520 3.656 12.656 C 3.537 12.775,3.520 12.817,3.520 12.995 C 3.520 13.161,3.541 13.222,3.630 13.321 C 3.784 13.493,3.939 13.518,4.880 13.519 L 5.700 13.520 7.140 16.404 C 8.132 18.389,8.615 19.317,8.693 19.384 C 8.780 19.458,8.853 19.480,9.007 19.480 C 9.181 19.480,9.225 19.463,9.335 19.350 C 9.453 19.228,9.581 18.802,11.416 12.370 L 13.371 5.520 16.656 5.519 C 18.517 5.519,20.009 5.502,20.100 5.481 C 20.343 5.425,20.480 5.250,20.480 4.995 C 20.480 4.817,20.463 4.775,20.344 4.656 L 20.208 4.520 16.505 4.520 L 12.801 4.520 12.678 4.630 M15.656 12.656 C 15.536 12.776,15.520 12.816,15.520 13.004 L 15.520 13.216 16.409 14.108 L 17.298 15.000 16.409 15.892 L 15.520 16.784 15.520 16.996 C 15.520 17.184,15.536 17.224,15.656 17.344 C 15.776 17.464,15.816 17.480,16.004 17.480 L 16.216 17.480 17.108 16.591 L 18.000 15.702 18.892 16.591 L 19.784 17.480 19.996 17.480 C 20.184 17.480,20.224 17.464,20.344 17.344 C 20.464 17.224,20.480 17.184,20.480 16.996 L 20.480 16.784 19.591 15.892 L 18.702 15.000 19.591 14.108 L 20.480 13.216 20.480 13.004 C 20.480 12.816,20.464 12.776,20.344 12.656 C 20.224 12.536,20.184 12.520,19.996 12.520 L 19.784 12.520 18.892 13.409 L 18.000 14.298 17.108 13.409 L 16.216 12.520 16.004 12.520 C 15.816 12.520,15.776 12.536,15.656 12.656 " stroke="none" fill="black" fill-rule="evenodd"></path></svg>