<svg xmlns="http://www.w3.org/2000/svg" class="icon icon-tabler icon-tabler-medical-cross" width="24" height="24" viewBox="0 0 24 24" stroke-width="1" stroke="currentColor" fill="none" stroke-linecap="round" stroke-linejoin="round"><path d="M10.468 2.598 C 10.069 2.756,9.704 3.138,9.572 3.535 C 9.513 3.714,9.503 3.990,9.489 5.690 C 9.481 6.763,9.469 7.640,9.463 7.640 C 9.457 7.640,8.761 7.241,7.916 6.754 C 7.071 6.266,6.281 5.822,6.161 5.766 C 5.854 5.625,5.421 5.603,5.113 5.712 C 4.810 5.819,4.539 6.011,4.386 6.228 C 4.114 6.612,3.198 8.256,3.136 8.468 C 3.041 8.795,3.075 9.207,3.221 9.506 C 3.422 9.916,3.575 10.027,5.331 11.039 C 6.227 11.555,6.960 11.987,6.960 12.000 C 6.960 12.013,6.227 12.445,5.331 12.961 C 3.565 13.979,3.398 14.101,3.211 14.508 C 3.075 14.805,3.045 15.218,3.136 15.532 C 3.195 15.736,4.083 17.334,4.369 17.752 C 4.502 17.946,4.733 18.129,5.000 18.252 C 5.140 18.316,5.265 18.335,5.560 18.337 C 6.037 18.341,5.983 18.366,7.957 17.225 C 8.780 16.749,9.458 16.360,9.464 16.360 C 9.470 16.360,9.481 17.238,9.489 18.310 C 9.503 20.010,9.513 20.286,9.572 20.465 C 9.714 20.893,10.126 21.297,10.556 21.431 C 10.748 21.490,10.955 21.500,12.000 21.500 C 13.045 21.500,13.252 21.490,13.444 21.431 C 13.874 21.297,14.286 20.893,14.428 20.465 C 14.487 20.286,14.497 20.010,14.511 18.310 C 14.519 17.238,14.532 16.360,14.540 16.360 C 14.547 16.360,15.244 16.759,16.087 17.247 C 16.930 17.734,17.717 18.178,17.836 18.232 C 18.098 18.352,18.507 18.390,18.796 18.321 C 19.072 18.255,19.453 18.001,19.610 17.778 C 19.870 17.410,20.799 15.754,20.858 15.553 C 20.936 15.293,20.937 14.950,20.862 14.702 C 20.782 14.434,20.552 14.104,20.339 13.950 C 20.240 13.879,19.457 13.416,18.599 12.921 C 17.742 12.427,17.040 12.012,17.040 12.000 C 17.040 11.987,17.742 11.573,18.600 11.078 C 19.458 10.584,20.241 10.121,20.340 10.050 C 20.685 9.800,20.920 9.327,20.920 8.881 C 20.920 8.515,20.826 8.291,20.268 7.323 C 19.629 6.213,19.541 6.086,19.301 5.921 C 18.857 5.615,18.298 5.556,17.839 5.766 C 17.719 5.821,16.930 6.266,16.087 6.753 C 15.244 7.241,14.546 7.640,14.537 7.640 C 14.528 7.640,14.520 6.844,14.519 5.870 C 14.518 3.985,14.495 3.657,14.341 3.339 C 14.212 3.075,13.918 2.784,13.641 2.649 L 13.420 2.540 12.040 2.531 C 10.765 2.522,10.645 2.528,10.468 2.598 M13.329 3.637 L 13.460 3.753 13.480 6.207 C 13.499 8.552,13.503 8.666,13.578 8.789 C 13.675 8.950,13.887 9.056,14.056 9.028 C 14.126 9.017,15.055 8.505,16.121 7.890 C 18.393 6.580,18.281 6.640,18.442 6.640 C 18.688 6.640,18.771 6.736,19.272 7.597 C 19.908 8.691,19.920 8.715,19.920 8.890 C 19.920 9.006,19.890 9.073,19.790 9.178 C 19.712 9.260,18.877 9.765,17.700 10.441 C 16.622 11.060,15.691 11.620,15.630 11.684 C 15.490 11.833,15.475 12.132,15.599 12.290 C 15.643 12.346,16.587 12.916,17.698 13.558 C 18.923 14.266,19.757 14.772,19.819 14.846 C 19.946 14.997,19.952 15.202,19.835 15.421 C 19.789 15.508,19.535 15.951,19.272 16.403 C 18.768 17.270,18.689 17.360,18.434 17.360 C 18.269 17.359,18.476 17.471,16.143 16.123 C 15.067 15.501,14.129 14.983,14.058 14.972 C 13.887 14.944,13.676 15.049,13.578 15.211 C 13.503 15.334,13.499 15.448,13.480 17.789 L 13.460 20.238 13.356 20.342 C 13.299 20.399,13.182 20.462,13.096 20.482 C 12.893 20.529,11.107 20.529,10.904 20.482 C 10.818 20.462,10.701 20.399,10.644 20.342 L 10.540 20.238 10.520 17.789 C 10.501 15.448,10.497 15.334,10.422 15.211 C 10.324 15.050,10.113 14.944,9.942 14.972 C 9.872 14.983,8.954 15.490,7.901 16.099 C 5.681 17.382,5.722 17.360,5.558 17.360 C 5.312 17.360,5.228 17.264,4.728 16.403 C 4.465 15.951,4.211 15.508,4.165 15.421 C 4.063 15.230,4.056 15.033,4.145 14.882 C 4.218 14.759,4.204 14.768,6.580 13.400 C 7.504 12.869,8.309 12.381,8.370 12.316 C 8.459 12.221,8.480 12.162,8.480 12.000 C 8.480 11.838,8.459 11.779,8.370 11.684 C 8.309 11.619,7.504 11.131,6.580 10.600 C 4.204 9.232,4.218 9.241,4.145 9.118 C 4.056 8.967,4.063 8.770,4.165 8.579 C 4.211 8.492,4.465 8.049,4.728 7.597 C 5.228 6.736,5.312 6.640,5.558 6.640 C 5.721 6.640,5.673 6.614,7.901 7.900 C 8.956 8.510,9.876 9.017,9.945 9.029 C 10.113 9.056,10.325 8.949,10.422 8.789 C 10.497 8.666,10.501 8.552,10.520 6.207 L 10.540 3.753 10.671 3.637 L 10.801 3.520 12.000 3.520 L 13.199 3.520 13.329 3.637 " stroke="none" fill="black" fill-rule="evenodd"></path></svg>