<svg xmlns="http://www.w3.org/2000/svg" class="icon icon-tabler icon-tabler-menu" width="24" height="24" viewBox="0 0 24 24" stroke-width="1" stroke="currentColor" fill="none" stroke-linecap="round" stroke-linejoin="round"><path d="M3.656 7.656 C 3.537 7.775,3.520 7.817,3.520 7.995 C 3.520 8.250,3.657 8.425,3.900 8.481 C 4.114 8.531,19.886 8.531,20.100 8.481 C 20.343 8.425,20.480 8.250,20.480 7.995 C 20.480 7.817,20.463 7.775,20.344 7.656 L 20.208 7.520 12.000 7.520 L 3.792 7.520 3.656 7.656 M3.656 15.656 C 3.537 15.775,3.520 15.817,3.520 15.995 C 3.520 16.250,3.657 16.425,3.900 16.481 C 4.114 16.531,19.886 16.531,20.100 16.481 C 20.343 16.425,20.480 16.250,20.480 15.995 C 20.480 15.817,20.463 15.775,20.344 15.656 L 20.208 15.520 12.000 15.520 L 3.792 15.520 3.656 15.656 " stroke="none" fill="black" fill-rule="evenodd"></path></svg>