<svg xmlns="http://www.w3.org/2000/svg" class="icon icon-tabler icon-tabler-messages" width="24" height="24" viewBox="0 0 24 24" stroke-width="1" stroke="currentColor" fill="none" stroke-linecap="round" stroke-linejoin="round"><path d="M10.468 2.598 C 10.060 2.759,9.696 3.146,9.569 3.556 C 9.506 3.761,9.500 4.056,9.500 7.000 C 9.500 9.944,9.506 10.239,9.569 10.444 C 9.702 10.873,10.105 11.284,10.535 11.429 C 10.722 11.492,11.051 11.499,14.280 11.510 L 17.820 11.523 19.301 13.001 L 20.782 14.480 20.991 14.480 C 21.250 14.480,21.425 14.344,21.481 14.100 C 21.533 13.877,21.530 4.182,21.478 3.820 C 21.456 3.666,21.394 3.449,21.341 3.339 C 21.212 3.075,20.918 2.784,20.641 2.649 L 20.420 2.540 15.540 2.532 C 10.843 2.523,10.653 2.526,10.468 2.598 M20.344 3.656 L 20.480 3.792 20.480 8.285 L 20.480 12.778 19.348 11.649 L 18.217 10.520 14.638 10.519 C 12.598 10.519,10.991 10.502,10.900 10.481 C 10.804 10.459,10.696 10.395,10.630 10.321 L 10.520 10.199 10.520 6.995 L 10.520 3.792 10.656 3.656 L 10.792 3.520 15.500 3.520 L 20.208 3.520 20.344 3.656 M3.468 9.599 C 3.072 9.754,2.706 10.135,2.571 10.535 C 2.506 10.725,2.500 11.115,2.488 15.760 C 2.481 18.521,2.487 20.878,2.502 20.998 C 2.522 21.172,2.554 21.242,2.660 21.348 C 2.776 21.464,2.817 21.480,3.005 21.480 L 3.218 21.480 4.699 20.001 L 6.180 18.523 9.720 18.510 C 12.949 18.499,13.278 18.492,13.465 18.429 C 13.885 18.287,14.293 17.878,14.425 17.465 C 14.477 17.305,14.495 17.036,14.510 16.249 C 14.534 14.987,14.517 14.829,14.340 14.652 C 14.225 14.537,14.181 14.520,14.005 14.520 C 13.750 14.520,13.575 14.657,13.519 14.900 C 13.499 14.988,13.481 15.541,13.481 16.129 L 13.480 17.199 13.370 17.321 C 13.304 17.395,13.196 17.459,13.100 17.481 C 13.009 17.502,11.402 17.519,9.362 17.519 L 5.783 17.520 4.652 18.649 L 3.520 19.778 3.520 15.285 L 3.520 10.792 3.656 10.656 L 3.792 10.520 4.866 10.519 C 5.457 10.519,6.012 10.501,6.100 10.481 C 6.343 10.425,6.480 10.250,6.480 9.995 C 6.480 9.817,6.463 9.775,6.344 9.656 L 6.208 9.520 4.934 9.522 C 3.786 9.524,3.641 9.531,3.468 9.599 " stroke="none" fill="black" fill-rule="evenodd"></path></svg>