<svg xmlns="http://www.w3.org/2000/svg" class="icon icon-tabler icon-tabler-message-circle" width="24" height="24" viewBox="0 0 24 24" stroke-width="1" stroke="currentColor" fill="none" stroke-linecap="round" stroke-linejoin="round"><path d="M11.200 3.508 C 8.083 3.749,5.231 5.403,3.710 7.851 C 2.169 10.332,2.130 13.448,3.608 15.937 L 3.749 16.174 3.135 18.016 C 2.717 19.267,2.520 19.915,2.520 20.034 C 2.520 20.179,2.543 20.231,2.656 20.344 C 2.770 20.458,2.821 20.480,2.971 20.480 C 3.070 20.480,4.159 20.265,5.391 20.003 L 7.631 19.525 8.065 19.705 C 8.865 20.036,9.848 20.292,10.760 20.407 C 11.294 20.474,12.779 20.473,13.280 20.405 C 14.952 20.177,16.385 19.654,17.667 18.803 C 19.319 17.705,20.517 16.180,21.098 14.435 C 21.650 12.775,21.649 11.183,21.096 9.520 C 20.107 6.545,17.322 4.271,13.922 3.660 C 13.042 3.501,12.019 3.444,11.200 3.508 M13.400 4.580 C 15.373 4.886,17.103 5.737,18.400 7.040 C 19.887 8.533,20.664 10.564,20.487 12.493 C 20.426 13.154,20.356 13.496,20.158 14.092 C 19.609 15.746,18.423 17.192,16.823 18.158 C 15.786 18.785,14.632 19.184,13.220 19.407 C 12.723 19.485,11.240 19.473,10.680 19.386 C 9.786 19.248,8.910 18.998,8.199 18.677 C 7.991 18.584,7.788 18.520,7.699 18.520 C 7.616 18.520,6.702 18.700,5.668 18.921 C 4.634 19.141,3.782 19.316,3.775 19.308 C 3.767 19.301,3.995 18.594,4.281 17.738 C 4.566 16.882,4.800 16.134,4.800 16.077 C 4.800 16.020,4.708 15.822,4.595 15.637 C 4.122 14.858,3.819 14.103,3.634 13.240 C 3.557 12.880,3.544 12.701,3.544 11.980 C 3.544 11.026,3.598 10.679,3.879 9.836 C 4.764 7.177,7.297 5.150,10.400 4.619 C 10.609 4.583,10.924 4.538,11.100 4.519 C 11.570 4.469,12.913 4.505,13.400 4.580 M7.656 11.656 C 7.537 11.775,7.520 11.818,7.520 11.993 C 7.520 12.233,7.643 12.408,7.861 12.480 C 8.043 12.540,8.242 12.477,8.379 12.314 C 8.458 12.220,8.480 12.150,8.480 11.993 C 8.480 11.818,8.463 11.775,8.344 11.656 C 8.224 11.536,8.183 11.520,8.000 11.520 C 7.817 11.520,7.776 11.536,7.656 11.656 M11.656 11.656 C 11.537 11.775,11.520 11.818,11.520 11.993 C 11.520 12.150,11.542 12.220,11.621 12.314 C 11.758 12.477,11.957 12.540,12.139 12.480 C 12.357 12.408,12.480 12.233,12.480 11.993 C 12.480 11.818,12.463 11.775,12.344 11.656 C 12.224 11.536,12.183 11.520,12.000 11.520 C 11.817 11.520,11.776 11.536,11.656 11.656 M15.656 11.656 C 15.537 11.775,15.520 11.818,15.520 11.993 C 15.520 12.233,15.643 12.408,15.861 12.480 C 16.043 12.540,16.242 12.477,16.379 12.314 C 16.458 12.220,16.480 12.150,16.480 11.993 C 16.480 11.818,16.463 11.775,16.344 11.656 C 16.224 11.536,16.183 11.520,16.000 11.520 C 15.817 11.520,15.776 11.536,15.656 11.656 " stroke="none" fill="black" fill-rule="evenodd"></path></svg>