<svg xmlns="http://www.w3.org/2000/svg" class="icon icon-tabler icon-tabler-message-2" width="24" height="24" viewBox="0 0 24 24" stroke-width="1" stroke="currentColor" fill="none" stroke-linecap="round" stroke-linejoin="round"><path d="M6.259 4.578 C 5.612 4.720,4.929 5.108,4.471 5.594 C 3.910 6.189,3.594 6.897,3.521 7.725 C 3.468 8.319,3.468 13.682,3.521 14.276 C 3.599 15.158,3.915 15.835,4.540 16.460 C 4.963 16.883,5.373 17.141,5.904 17.318 C 6.357 17.468,6.884 17.519,7.999 17.520 L 8.819 17.520 10.301 19.000 L 11.782 20.480 12.000 20.480 L 12.218 20.480 13.699 19.000 L 15.181 17.520 16.001 17.520 C 17.119 17.519,17.643 17.468,18.095 17.317 C 19.444 16.865,20.352 15.705,20.479 14.275 C 20.532 13.682,20.532 8.318,20.479 7.725 C 20.408 6.920,20.097 6.205,19.571 5.637 C 19.147 5.179,18.696 4.888,18.079 4.672 L 17.700 4.540 12.100 4.533 C 7.589 4.527,6.453 4.536,6.259 4.578 M17.829 5.633 C 18.112 5.740,18.476 5.964,18.717 6.182 C 18.937 6.381,19.248 6.853,19.365 7.166 L 19.460 7.420 19.471 10.895 C 19.481 13.946,19.474 14.400,19.419 14.615 C 19.195 15.493,18.511 16.180,17.620 16.424 C 17.429 16.476,17.117 16.493,16.080 16.509 L 14.780 16.527 13.390 17.913 L 12.000 19.298 10.610 17.913 L 9.220 16.527 7.920 16.509 C 6.883 16.493,6.571 16.476,6.380 16.424 C 5.492 16.181,4.809 15.496,4.582 14.622 C 4.528 14.416,4.520 13.924,4.520 11.000 C 4.520 8.076,4.528 7.584,4.582 7.378 C 4.764 6.676,5.250 6.079,5.900 5.759 C 6.405 5.511,6.062 5.524,12.080 5.532 L 17.580 5.540 17.829 5.633 M7.656 8.656 C 7.537 8.775,7.520 8.817,7.520 8.995 C 7.520 9.250,7.657 9.425,7.900 9.481 C 8.112 9.530,15.888 9.530,16.100 9.481 C 16.343 9.425,16.480 9.250,16.480 8.995 C 16.480 8.817,16.463 8.775,16.344 8.656 L 16.208 8.520 12.000 8.520 L 7.792 8.520 7.656 8.656 M7.656 12.656 C 7.537 12.775,7.520 12.817,7.520 12.995 C 7.520 13.250,7.657 13.425,7.900 13.481 C 8.110 13.530,13.890 13.530,14.100 13.481 C 14.343 13.425,14.480 13.250,14.480 12.995 C 14.480 12.817,14.463 12.775,14.344 12.656 L 14.208 12.520 11.000 12.520 L 7.792 12.520 7.656 12.656 " stroke="none" fill="black" fill-rule="evenodd"></path></svg>