<svg xmlns="http://www.w3.org/2000/svg" class="icon icon-tabler icon-tabler-message-dots" width="24" height="24" viewBox="0 0 24 24" stroke-width="1" stroke="currentColor" fill="none" stroke-linecap="round" stroke-linejoin="round"><path d="M6.259 4.578 C 5.612 4.720,4.929 5.108,4.471 5.594 C 3.910 6.189,3.594 6.897,3.521 7.725 C 3.469 8.312,3.467 20.876,3.519 21.100 C 3.575 21.345,3.750 21.480,4.010 21.480 L 4.218 21.480 6.200 19.500 L 8.181 17.520 12.501 17.520 C 15.077 17.519,17.004 17.503,17.276 17.479 C 19.018 17.325,20.325 16.018,20.479 14.275 C 20.532 13.682,20.532 8.318,20.479 7.725 C 20.408 6.920,20.097 6.205,19.571 5.637 C 19.147 5.179,18.696 4.888,18.079 4.672 L 17.700 4.540 12.100 4.533 C 7.589 4.527,6.453 4.536,6.259 4.578 M17.829 5.633 C 18.112 5.740,18.476 5.964,18.717 6.182 C 18.949 6.391,19.255 6.865,19.366 7.187 L 19.460 7.460 19.460 11.000 L 19.460 14.540 19.368 14.808 C 19.190 15.320,18.844 15.765,18.378 16.076 C 18.023 16.313,17.682 16.432,17.213 16.481 C 17.018 16.502,14.832 16.519,12.321 16.519 L 7.782 16.520 6.151 18.149 L 4.520 19.779 4.520 13.698 C 4.520 8.340,4.527 7.588,4.582 7.378 C 4.764 6.676,5.250 6.079,5.900 5.759 C 6.405 5.511,6.062 5.524,12.080 5.532 L 17.580 5.540 17.829 5.633 M7.656 10.656 C 7.537 10.775,7.520 10.818,7.520 10.993 C 7.520 11.233,7.643 11.408,7.861 11.480 C 8.043 11.540,8.242 11.477,8.379 11.314 C 8.458 11.220,8.480 11.150,8.480 10.993 C 8.480 10.818,8.463 10.775,8.344 10.656 C 8.224 10.536,8.183 10.520,8.000 10.520 C 7.817 10.520,7.776 10.536,7.656 10.656 M11.656 10.656 C 11.537 10.775,11.520 10.818,11.520 10.993 C 11.520 11.150,11.542 11.220,11.621 11.314 C 11.758 11.477,11.957 11.540,12.139 11.480 C 12.357 11.408,12.480 11.233,12.480 10.993 C 12.480 10.818,12.463 10.775,12.344 10.656 C 12.224 10.536,12.183 10.520,12.000 10.520 C 11.817 10.520,11.776 10.536,11.656 10.656 M15.656 10.656 C 15.537 10.775,15.520 10.818,15.520 10.993 C 15.520 11.233,15.643 11.408,15.861 11.480 C 16.043 11.540,16.242 11.477,16.379 11.314 C 16.458 11.220,16.480 11.150,16.480 10.993 C 16.480 10.818,16.463 10.775,16.344 10.656 C 16.224 10.536,16.183 10.520,16.000 10.520 C 15.817 10.520,15.776 10.536,15.656 10.656 " stroke="none" fill="black" fill-rule="evenodd"></path></svg>