<svg xmlns="http://www.w3.org/2000/svg" class="icon icon-tabler icon-tabler-microphone" width="24" height="24" viewBox="0 0 24 24" stroke-width="1" stroke="currentColor" fill="none" stroke-linecap="round" stroke-linejoin="round"><path d="M11.259 1.576 C 10.603 1.726,9.928 2.110,9.471 2.594 C 8.910 3.189,8.594 3.897,8.521 4.725 C 8.469 5.317,8.469 9.684,8.521 10.276 C 8.599 11.158,8.915 11.835,9.540 12.460 C 9.963 12.883,10.366 13.137,10.920 13.328 C 11.293 13.457,11.313 13.459,12.000 13.459 C 12.688 13.459,12.706 13.457,13.079 13.327 C 14.458 12.848,15.352 11.711,15.479 10.275 C 15.531 9.684,15.531 5.316,15.479 4.725 C 15.408 3.920,15.097 3.205,14.571 2.637 C 14.144 2.176,13.690 1.883,13.079 1.676 C 12.730 1.557,12.653 1.546,12.100 1.534 C 11.694 1.526,11.422 1.539,11.259 1.576 M12.834 2.640 C 13.142 2.749,13.615 3.059,13.818 3.283 C 14.048 3.538,14.266 3.898,14.368 4.192 L 14.460 4.460 14.460 7.500 L 14.460 10.540 14.368 10.808 C 14.190 11.320,13.844 11.765,13.378 12.076 C 12.916 12.385,12.647 12.460,12.000 12.460 C 11.353 12.460,11.084 12.385,10.622 12.076 C 10.168 11.773,9.824 11.338,9.634 10.829 L 9.541 10.580 9.529 7.606 C 9.519 5.006,9.525 4.601,9.580 4.386 C 9.803 3.516,10.490 2.820,11.360 2.581 C 11.694 2.489,12.500 2.522,12.834 2.640 M4.656 9.656 L 4.520 9.792 4.520 10.221 C 4.520 11.266,4.815 12.415,5.346 13.441 C 6.489 15.649,8.615 17.125,11.110 17.443 L 11.480 17.490 11.480 19.005 L 11.480 20.520 9.636 20.520 L 7.792 20.520 7.656 20.656 C 7.537 20.775,7.520 20.817,7.520 20.995 C 7.520 21.250,7.657 21.425,7.900 21.481 C 8.112 21.530,15.888 21.530,16.100 21.481 C 16.343 21.425,16.480 21.250,16.480 20.995 C 16.480 20.817,16.463 20.775,16.344 20.656 L 16.208 20.520 14.364 20.520 L 12.520 20.520 12.520 19.005 L 12.520 17.490 12.910 17.443 C 14.388 17.266,15.791 16.632,16.973 15.606 C 18.490 14.289,19.480 12.163,19.480 10.221 L 19.480 9.792 19.344 9.656 C 19.225 9.537,19.183 9.520,19.005 9.520 C 18.628 9.520,18.483 9.749,18.481 10.346 C 18.480 10.503,18.445 10.840,18.401 11.093 C 17.939 13.795,15.795 15.939,13.093 16.401 C 12.458 16.510,11.537 16.509,10.897 16.399 C 8.201 15.939,6.061 13.794,5.599 11.093 C 5.555 10.840,5.520 10.503,5.519 10.346 C 5.517 9.749,5.372 9.520,4.995 9.520 C 4.817 9.520,4.775 9.537,4.656 9.656 " stroke="none" fill="black" fill-rule="evenodd"></path></svg>