<svg xmlns="http://www.w3.org/2000/svg" class="icon icon-tabler icon-tabler-minimize" width="24" height="24" viewBox="0 0 24 24" stroke-width="1" stroke="currentColor" fill="none" stroke-linecap="round" stroke-linejoin="round"><path d="M8.705 4.603 C 8.504 4.761,8.501 4.781,8.480 6.140 C 8.461 7.350,8.455 7.430,8.372 7.610 C 8.253 7.868,7.913 8.218,7.664 8.339 C 7.366 8.484,7.023 8.518,5.846 8.519 L 4.792 8.520 4.656 8.656 C 4.536 8.776,4.520 8.817,4.520 9.000 C 4.520 9.182,4.537 9.225,4.652 9.340 C 4.831 9.519,4.999 9.536,6.315 9.508 C 7.125 9.492,7.436 9.471,7.614 9.421 C 8.525 9.166,9.170 8.523,9.420 7.620 C 9.471 7.436,9.491 7.131,9.508 6.315 C 9.536 4.999,9.519 4.831,9.340 4.652 C 9.226 4.538,9.181 4.520,9.009 4.520 C 8.869 4.520,8.780 4.544,8.705 4.603 M14.660 4.652 C 14.481 4.831,14.464 4.999,14.492 6.315 C 14.508 7.125,14.529 7.436,14.579 7.614 C 14.834 8.525,15.477 9.170,16.380 9.420 C 16.564 9.471,16.869 9.491,17.685 9.508 C 19.001 9.536,19.169 9.519,19.348 9.340 C 19.463 9.225,19.480 9.181,19.480 9.005 C 19.480 8.837,19.460 8.779,19.363 8.671 L 19.247 8.540 17.993 8.516 C 16.595 8.489,16.479 8.470,16.135 8.216 C 15.891 8.035,15.697 7.784,15.597 7.522 C 15.528 7.339,15.520 7.206,15.519 6.190 C 15.519 5.568,15.501 4.988,15.481 4.900 C 15.425 4.657,15.250 4.520,14.995 4.520 C 14.819 4.520,14.775 4.537,14.660 4.652 M4.656 14.656 C 4.538 14.774,4.520 14.818,4.520 14.991 C 4.520 15.201,4.604 15.353,4.773 15.450 C 4.835 15.486,5.225 15.506,6.140 15.520 L 7.420 15.540 7.641 15.649 C 7.924 15.787,8.213 16.076,8.351 16.359 L 8.460 16.580 8.480 17.860 C 8.494 18.775,8.514 19.165,8.550 19.227 C 8.647 19.396,8.799 19.480,9.009 19.480 C 9.181 19.480,9.226 19.462,9.340 19.348 C 9.519 19.169,9.536 19.001,9.508 17.685 C 9.491 16.869,9.471 16.564,9.420 16.380 C 9.168 15.473,8.505 14.814,7.607 14.582 C 7.416 14.532,7.114 14.520,6.080 14.520 L 4.792 14.520 4.656 14.656 M16.274 14.615 C 15.870 14.734,15.561 14.922,15.242 15.242 C 14.918 15.565,14.735 15.869,14.608 16.294 C 14.519 16.593,14.509 16.707,14.490 17.685 C 14.465 19.003,14.482 19.170,14.660 19.348 C 14.774 19.462,14.819 19.480,14.991 19.480 C 15.201 19.480,15.353 19.396,15.450 19.227 C 15.486 19.165,15.506 18.775,15.520 17.860 L 15.540 16.580 15.649 16.359 C 15.787 16.076,16.076 15.787,16.359 15.649 L 16.580 15.540 17.860 15.520 C 18.775 15.506,19.165 15.486,19.227 15.450 C 19.396 15.353,19.480 15.201,19.480 14.991 C 19.480 14.818,19.462 14.774,19.344 14.656 L 19.208 14.520 17.894 14.522 C 16.649 14.524,16.564 14.529,16.274 14.615 " stroke="none" fill="black" fill-rule="evenodd"></path></svg>