<svg xmlns="http://www.w3.org/2000/svg" class="icon icon-tabler icon-tabler-mist" width="24" height="24" viewBox="0 0 24 24" stroke-width="1" stroke="currentColor" fill="none" stroke-linecap="round" stroke-linejoin="round"><path d="M4.656 4.656 C 4.537 4.775,4.520 4.817,4.520 4.995 C 4.520 5.250,4.657 5.425,4.900 5.481 C 5.108 5.529,7.892 5.529,8.100 5.481 C 8.343 5.425,8.480 5.250,8.480 4.995 C 8.480 4.817,8.463 4.775,8.344 4.656 L 8.208 4.520 6.500 4.520 L 4.792 4.520 4.656 4.656 M11.656 4.656 C 11.537 4.775,11.520 4.817,11.520 4.995 C 11.520 5.250,11.657 5.425,11.900 5.481 C 12.112 5.530,20.888 5.530,21.100 5.481 C 21.343 5.425,21.480 5.250,21.480 4.995 C 21.480 4.817,21.463 4.775,21.344 4.656 L 21.208 4.520 16.500 4.520 L 11.792 4.520 11.656 4.656 M2.656 9.656 C 2.537 9.775,2.520 9.817,2.520 9.995 C 2.520 10.250,2.657 10.425,2.900 10.481 C 3.113 10.530,13.887 10.530,14.100 10.481 C 14.343 10.425,14.480 10.250,14.480 9.995 C 14.480 9.817,14.463 9.775,14.344 9.656 L 14.208 9.520 8.500 9.520 L 2.792 9.520 2.656 9.656 M17.656 9.656 C 17.537 9.775,17.520 9.817,17.520 9.995 C 17.520 10.250,17.657 10.425,17.900 10.481 C 18.107 10.529,18.893 10.529,19.100 10.481 C 19.343 10.425,19.480 10.250,19.480 9.995 C 19.480 9.817,19.463 9.775,19.344 9.656 L 19.208 9.520 18.500 9.520 L 17.792 9.520 17.656 9.656 M4.656 14.656 C 4.537 14.775,4.520 14.817,4.520 14.995 C 4.520 15.250,4.657 15.425,4.900 15.481 C 5.109 15.529,9.891 15.529,10.100 15.481 C 10.343 15.425,10.480 15.250,10.480 14.995 C 10.480 14.817,10.463 14.775,10.344 14.656 L 10.208 14.520 7.500 14.520 L 4.792 14.520 4.656 14.656 M13.656 14.656 C 13.537 14.775,13.520 14.817,13.520 14.995 C 13.520 15.250,13.657 15.425,13.900 15.481 C 14.111 15.530,20.889 15.530,21.100 15.481 C 21.343 15.425,21.480 15.250,21.480 14.995 C 21.480 14.817,21.463 14.775,21.344 14.656 L 21.208 14.520 17.500 14.520 L 13.792 14.520 13.656 14.656 M2.656 19.656 C 2.537 19.775,2.520 19.817,2.520 19.995 C 2.520 20.250,2.657 20.425,2.900 20.481 C 3.112 20.530,11.888 20.530,12.100 20.481 C 12.343 20.425,12.480 20.250,12.480 19.995 C 12.480 19.817,12.463 19.775,12.344 19.656 L 12.208 19.520 7.500 19.520 L 2.792 19.520 2.656 19.656 M15.656 19.656 C 15.537 19.775,15.520 19.817,15.520 19.995 C 15.520 20.250,15.657 20.425,15.900 20.481 C 15.988 20.501,16.708 20.518,17.500 20.518 C 18.292 20.518,19.012 20.501,19.100 20.481 C 19.343 20.425,19.480 20.250,19.480 19.995 C 19.480 19.817,19.463 19.775,19.344 19.656 L 19.208 19.520 17.500 19.520 L 15.792 19.520 15.656 19.656 " stroke="none" fill="black" fill-rule="evenodd"></path></svg>