<svg xmlns="http://www.w3.org/2000/svg" class="icon icon-tabler icon-tabler-mood-kid" width="24" height="24" viewBox="0 0 24 24" stroke-width="1" stroke="currentColor" fill="none" stroke-linecap="round" stroke-linejoin="round"><path d="M11.620 2.506 C 10.113 2.601,8.900 2.921,7.664 3.551 C 5.942 4.428,4.427 5.943,3.550 7.666 C 2.844 9.053,2.520 10.415,2.520 12.000 C 2.520 13.513,2.798 14.757,3.438 16.100 C 4.331 17.977,5.856 19.531,7.740 20.482 C 8.774 21.004,9.819 21.312,10.991 21.441 C 11.569 21.505,12.996 21.471,13.520 21.382 C 16.578 20.862,19.166 18.939,20.519 16.180 C 21.189 14.815,21.480 13.549,21.480 12.000 C 21.480 10.487,21.202 9.243,20.562 7.900 C 20.094 6.916,19.521 6.113,18.704 5.296 C 17.337 3.929,15.725 3.060,13.860 2.685 C 13.247 2.561,12.141 2.473,11.620 2.506 M13.160 3.581 C 14.081 3.712,14.852 3.948,15.700 4.360 C 16.622 4.807,17.277 5.273,18.002 5.998 C 19.251 7.248,20.028 8.728,20.365 10.500 C 20.470 11.053,20.512 12.362,20.444 12.946 C 20.245 14.630,19.576 16.182,18.485 17.486 C 17.115 19.122,15.119 20.188,12.946 20.444 C 12.362 20.512,11.053 20.470,10.500 20.365 C 7.251 19.748,4.693 17.420,3.814 14.280 C 3.615 13.569,3.552 13.105,3.531 12.200 C 3.509 11.221,3.559 10.730,3.766 9.909 C 4.405 7.370,6.239 5.220,8.640 4.196 C 8.953 4.063,9.698 3.800,9.764 3.800 C 9.785 3.800,9.775 3.852,9.742 3.916 C 9.491 4.402,9.450 5.273,9.652 5.839 C 9.989 6.786,10.840 7.424,11.829 7.472 L 12.199 7.489 12.339 7.349 C 12.464 7.224,12.480 7.185,12.480 7.000 C 12.480 6.818,12.463 6.775,12.348 6.660 C 12.239 6.551,12.175 6.523,11.978 6.501 C 11.280 6.422,10.813 6.091,10.597 5.522 C 10.492 5.246,10.492 4.754,10.597 4.478 C 10.744 4.093,11.084 3.749,11.468 3.599 C 11.713 3.503,12.548 3.494,13.160 3.581 M8.656 9.656 C 8.536 9.776,8.520 9.817,8.520 10.000 C 8.520 10.183,8.536 10.224,8.656 10.344 C 8.775 10.463,8.818 10.480,8.993 10.480 C 9.477 10.480,9.682 9.931,9.314 9.621 C 9.220 9.542,9.150 9.520,8.993 9.520 C 8.818 9.520,8.775 9.537,8.656 9.656 M14.656 9.656 C 14.536 9.776,14.520 9.817,14.520 10.000 C 14.520 10.183,14.536 10.224,14.656 10.344 C 14.775 10.463,14.818 10.480,14.993 10.480 C 15.233 10.480,15.408 10.357,15.480 10.139 C 15.540 9.957,15.477 9.758,15.314 9.621 C 15.220 9.542,15.150 9.520,14.993 9.520 C 14.818 9.520,14.775 9.537,14.656 9.656 M9.235 14.580 C 9.095 14.656,8.985 14.894,9.013 15.062 C 9.045 15.260,9.140 15.378,9.496 15.663 C 9.904 15.990,10.502 16.289,11.020 16.425 C 11.364 16.516,11.502 16.531,12.000 16.531 C 12.498 16.531,12.636 16.516,12.980 16.425 C 13.200 16.367,13.560 16.231,13.780 16.121 C 14.188 15.919,14.773 15.488,14.897 15.299 C 15.003 15.137,15.018 14.951,14.939 14.784 C 14.858 14.612,14.704 14.520,14.499 14.520 C 14.316 14.520,14.233 14.565,13.954 14.816 C 13.669 15.074,13.193 15.329,12.780 15.445 C 12.331 15.571,11.669 15.571,11.220 15.445 C 10.807 15.329,10.331 15.074,10.046 14.816 C 9.922 14.704,9.781 14.592,9.733 14.566 C 9.614 14.504,9.363 14.511,9.235 14.580 " stroke="none" fill="black" fill-rule="evenodd"></path></svg>