<svg xmlns="http://www.w3.org/2000/svg" class="icon icon-tabler icon-tabler-mood-tongue" width="24" height="24" viewBox="0 0 24 24" stroke-width="1" stroke="currentColor" fill="none" stroke-linecap="round" stroke-linejoin="round"><path d="M10.900 2.564 C 9.092 2.784,7.444 3.481,6.020 4.628 C 4.323 5.995,3.091 8.034,2.679 10.160 C 2.468 11.247,2.468 12.755,2.679 13.840 C 3.019 15.591,3.905 17.278,5.170 18.585 C 6.746 20.212,8.748 21.195,10.991 21.441 C 11.569 21.505,12.996 21.471,13.520 21.382 C 16.578 20.862,19.166 18.939,20.519 16.180 C 21.189 14.815,21.480 13.549,21.480 12.000 C 21.480 10.487,21.202 9.243,20.562 7.900 C 19.798 6.294,18.506 4.858,16.968 3.907 C 15.800 3.185,14.424 2.710,13.072 2.562 C 12.621 2.513,11.309 2.514,10.900 2.564 M13.160 3.581 C 14.081 3.712,14.852 3.948,15.700 4.360 C 16.622 4.807,17.277 5.273,18.002 5.998 C 19.251 7.248,20.028 8.728,20.365 10.500 C 20.470 11.053,20.512 12.362,20.444 12.946 C 20.245 14.630,19.576 16.182,18.485 17.486 C 17.115 19.122,15.119 20.188,12.946 20.444 C 12.362 20.512,11.053 20.470,10.500 20.365 C 7.839 19.860,5.635 18.221,4.428 15.851 C 4.054 15.115,3.799 14.359,3.635 13.500 C 3.515 12.874,3.486 11.525,3.577 10.868 C 4.105 7.087,7.016 4.152,10.800 3.585 C 11.320 3.507,12.623 3.505,13.160 3.581 M8.656 9.656 C 8.536 9.776,8.520 9.817,8.520 10.000 C 8.520 10.183,8.536 10.224,8.656 10.344 C 8.775 10.463,8.818 10.480,8.993 10.480 C 9.477 10.480,9.682 9.931,9.314 9.621 C 9.220 9.542,9.150 9.520,8.993 9.520 C 8.818 9.520,8.775 9.537,8.656 9.656 M14.656 9.656 C 14.536 9.776,14.520 9.817,14.520 10.000 C 14.520 10.183,14.536 10.224,14.656 10.344 C 14.775 10.463,14.818 10.480,14.993 10.480 C 15.233 10.480,15.408 10.357,15.480 10.139 C 15.540 9.957,15.477 9.758,15.314 9.621 C 15.220 9.542,15.150 9.520,14.993 9.520 C 14.818 9.520,14.775 9.537,14.656 9.656 M8.235 13.580 C 8.122 13.642,8.000 13.859,8.000 14.000 C 8.000 14.150,8.125 14.360,8.255 14.431 C 8.350 14.482,8.512 14.502,8.930 14.513 L 9.480 14.528 9.481 15.194 C 9.481 15.560,9.498 16.016,9.518 16.206 C 9.626 17.236,10.268 18.057,11.207 18.364 C 11.459 18.447,11.576 18.460,12.040 18.459 C 12.553 18.457,12.596 18.451,12.900 18.328 C 13.489 18.092,13.978 17.643,14.238 17.100 C 14.449 16.660,14.483 16.455,14.508 15.454 L 14.531 14.527 15.076 14.513 C 15.694 14.496,15.827 14.452,15.935 14.226 C 16.017 14.052,16.017 13.948,15.935 13.774 C 15.807 13.506,16.024 13.520,11.992 13.522 C 8.912 13.523,8.324 13.532,8.235 13.580 M13.473 15.470 C 13.461 16.349,13.453 16.434,13.372 16.610 C 13.250 16.875,12.912 17.218,12.644 17.350 C 12.443 17.449,12.377 17.460,12.000 17.460 C 11.624 17.460,11.557 17.449,11.359 17.351 C 11.076 17.213,10.787 16.924,10.649 16.641 C 10.541 16.422,10.540 16.411,10.528 15.470 L 10.516 14.520 12.001 14.520 L 13.485 14.520 13.473 15.470 " stroke="none" fill="black" fill-rule="evenodd"></path></svg>