<svg xmlns="http://www.w3.org/2000/svg" class="icon icon-tabler icon-tabler-mood-sad" width="24" height="24" viewBox="0 0 24 24" stroke-width="1" stroke="currentColor" fill="none" stroke-linecap="round" stroke-linejoin="round"><path d="M10.900 2.564 C 9.092 2.784,7.444 3.481,6.020 4.628 C 4.323 5.995,3.091 8.034,2.679 10.160 C 2.468 11.247,2.468 12.755,2.679 13.840 C 3.019 15.591,3.905 17.278,5.170 18.585 C 6.746 20.212,8.748 21.195,10.991 21.441 C 11.569 21.505,12.996 21.471,13.520 21.382 C 16.578 20.862,19.166 18.939,20.519 16.180 C 21.189 14.815,21.480 13.549,21.480 12.000 C 21.480 10.487,21.202 9.243,20.562 7.900 C 19.798 6.294,18.506 4.858,16.968 3.907 C 15.800 3.185,14.424 2.710,13.072 2.562 C 12.621 2.513,11.309 2.514,10.900 2.564 M13.160 3.581 C 14.081 3.712,14.852 3.948,15.700 4.360 C 16.622 4.807,17.277 5.273,18.002 5.998 C 19.251 7.248,20.028 8.728,20.365 10.500 C 20.470 11.053,20.512 12.362,20.444 12.946 C 20.245 14.630,19.576 16.182,18.485 17.486 C 17.115 19.122,15.119 20.188,12.946 20.444 C 12.362 20.512,11.053 20.470,10.500 20.365 C 7.839 19.860,5.635 18.221,4.428 15.851 C 4.054 15.115,3.799 14.359,3.635 13.500 C 3.515 12.874,3.486 11.525,3.577 10.868 C 4.105 7.087,7.016 4.152,10.800 3.585 C 11.320 3.507,12.623 3.505,13.160 3.581 M8.656 9.656 C 8.536 9.776,8.520 9.817,8.520 10.000 C 8.520 10.183,8.536 10.224,8.656 10.344 C 8.775 10.463,8.818 10.480,8.993 10.480 C 9.477 10.480,9.682 9.931,9.314 9.621 C 9.220 9.542,9.150 9.520,8.993 9.520 C 8.818 9.520,8.775 9.537,8.656 9.656 M14.656 9.656 C 14.536 9.776,14.520 9.817,14.520 10.000 C 14.520 10.183,14.536 10.224,14.656 10.344 C 14.775 10.463,14.818 10.480,14.993 10.480 C 15.233 10.480,15.408 10.357,15.480 10.139 C 15.540 9.957,15.477 9.758,15.314 9.621 C 15.220 9.542,15.150 9.520,14.993 9.520 C 14.818 9.520,14.775 9.537,14.656 9.656 M11.360 13.748 C 10.596 13.876,9.742 14.306,9.246 14.813 C 9.066 14.995,9.028 15.060,9.013 15.206 C 8.991 15.428,9.104 15.621,9.307 15.706 C 9.529 15.798,9.685 15.748,9.970 15.494 C 10.288 15.211,10.656 14.994,11.060 14.853 C 11.357 14.749,11.424 14.741,12.000 14.741 C 12.576 14.741,12.643 14.749,12.940 14.853 C 13.344 14.994,13.712 15.211,14.030 15.494 C 14.315 15.748,14.471 15.798,14.693 15.706 C 14.898 15.620,15.009 15.428,14.986 15.200 C 14.970 15.040,14.938 14.993,14.691 14.757 C 14.188 14.277,13.515 13.933,12.787 13.783 C 12.504 13.724,11.627 13.703,11.360 13.748 " stroke="none" fill="black" fill-rule="evenodd"></path></svg>