<svg xmlns="http://www.w3.org/2000/svg" class="icon icon-tabler icon-tabler-mood-smile" width="24" height="24" viewBox="0 0 24 24" stroke-width="1" stroke="currentColor" fill="none" stroke-linecap="round" stroke-linejoin="round"><path d="M10.900 2.564 C 9.092 2.784,7.444 3.481,6.020 4.628 C 4.323 5.995,3.091 8.034,2.679 10.160 C 2.468 11.247,2.468 12.755,2.679 13.840 C 3.019 15.591,3.905 17.278,5.170 18.585 C 6.746 20.212,8.748 21.195,10.991 21.441 C 11.569 21.505,12.996 21.471,13.520 21.382 C 16.578 20.862,19.166 18.939,20.519 16.180 C 21.189 14.815,21.480 13.549,21.480 12.000 C 21.480 10.487,21.202 9.243,20.562 7.900 C 19.798 6.294,18.506 4.858,16.968 3.907 C 15.800 3.185,14.424 2.710,13.072 2.562 C 12.621 2.513,11.309 2.514,10.900 2.564 M13.160 3.581 C 14.081 3.712,14.852 3.948,15.700 4.360 C 16.622 4.807,17.277 5.273,18.002 5.998 C 19.251 7.248,20.028 8.728,20.365 10.500 C 20.470 11.053,20.512 12.362,20.444 12.946 C 20.245 14.630,19.576 16.182,18.485 17.486 C 17.115 19.122,15.119 20.188,12.946 20.444 C 12.362 20.512,11.053 20.470,10.500 20.365 C 7.839 19.860,5.635 18.221,4.428 15.851 C 4.054 15.115,3.799 14.359,3.635 13.500 C 3.515 12.874,3.486 11.525,3.577 10.868 C 4.105 7.087,7.016 4.152,10.800 3.585 C 11.320 3.507,12.623 3.505,13.160 3.581 M8.656 9.656 C 8.536 9.776,8.520 9.817,8.520 10.000 C 8.520 10.183,8.536 10.224,8.656 10.344 C 8.775 10.463,8.818 10.480,8.993 10.480 C 9.477 10.480,9.682 9.931,9.314 9.621 C 9.220 9.542,9.150 9.520,8.993 9.520 C 8.818 9.520,8.775 9.537,8.656 9.656 M14.656 9.656 C 14.536 9.776,14.520 9.817,14.520 10.000 C 14.520 10.183,14.536 10.224,14.656 10.344 C 14.775 10.463,14.818 10.480,14.993 10.480 C 15.233 10.480,15.408 10.357,15.480 10.139 C 15.540 9.957,15.477 9.758,15.314 9.621 C 15.220 9.542,15.150 9.520,14.993 9.520 C 14.818 9.520,14.775 9.537,14.656 9.656 M9.235 14.580 C 9.095 14.656,8.985 14.894,9.013 15.062 C 9.045 15.260,9.140 15.378,9.496 15.663 C 9.904 15.990,10.502 16.289,11.020 16.425 C 11.364 16.516,11.502 16.531,12.000 16.531 C 12.498 16.531,12.636 16.516,12.980 16.425 C 13.200 16.367,13.560 16.231,13.780 16.121 C 14.188 15.919,14.773 15.488,14.897 15.299 C 15.003 15.137,15.018 14.951,14.939 14.784 C 14.858 14.612,14.704 14.520,14.499 14.520 C 14.316 14.520,14.233 14.565,13.954 14.816 C 13.669 15.074,13.193 15.329,12.780 15.445 C 12.331 15.571,11.669 15.571,11.220 15.445 C 10.807 15.329,10.331 15.074,10.046 14.816 C 9.922 14.704,9.781 14.592,9.733 14.566 C 9.614 14.504,9.363 14.511,9.235 14.580 " stroke="none" fill="black" fill-rule="evenodd"></path></svg>