<svg xmlns="http://www.w3.org/2000/svg" class="icon icon-tabler icon-tabler-mood-suprised" width="24" height="24" viewBox="0 0 24 24" stroke-width="1" stroke="currentColor" fill="none" stroke-linecap="round" stroke-linejoin="round"><path d="M10.900 2.564 C 9.092 2.784,7.444 3.481,6.020 4.628 C 4.323 5.995,3.091 8.034,2.679 10.160 C 2.468 11.247,2.468 12.755,2.679 13.840 C 3.019 15.591,3.905 17.278,5.170 18.585 C 6.746 20.212,8.748 21.195,10.991 21.441 C 11.569 21.505,12.996 21.471,13.520 21.382 C 16.578 20.862,19.166 18.939,20.519 16.180 C 21.189 14.815,21.480 13.549,21.480 12.000 C 21.480 10.487,21.202 9.243,20.562 7.900 C 19.798 6.294,18.506 4.858,16.968 3.907 C 15.800 3.185,14.424 2.710,13.072 2.562 C 12.621 2.513,11.309 2.514,10.900 2.564 M13.160 3.581 C 14.081 3.712,14.852 3.948,15.700 4.360 C 16.622 4.807,17.277 5.273,18.002 5.998 C 19.251 7.248,20.028 8.728,20.365 10.500 C 20.470 11.053,20.512 12.362,20.444 12.946 C 20.245 14.630,19.576 16.182,18.485 17.486 C 17.115 19.122,15.119 20.188,12.946 20.444 C 12.362 20.512,11.053 20.470,10.500 20.365 C 7.839 19.860,5.635 18.221,4.428 15.851 C 4.054 15.115,3.799 14.359,3.635 13.500 C 3.515 12.874,3.486 11.525,3.577 10.868 C 4.105 7.087,7.016 4.152,10.800 3.585 C 11.320 3.507,12.623 3.505,13.160 3.581 M8.656 8.656 C 8.536 8.776,8.520 8.817,8.520 9.000 C 8.520 9.183,8.536 9.224,8.656 9.344 C 8.775 9.463,8.818 9.480,8.993 9.480 C 9.477 9.480,9.682 8.931,9.314 8.621 C 9.220 8.542,9.150 8.520,8.993 8.520 C 8.818 8.520,8.775 8.537,8.656 8.656 M14.656 8.656 C 14.536 8.776,14.520 8.817,14.520 9.000 C 14.520 9.183,14.536 9.224,14.656 9.344 C 14.775 9.463,14.818 9.480,14.993 9.480 C 15.233 9.480,15.408 9.357,15.480 9.139 C 15.540 8.957,15.477 8.758,15.314 8.621 C 15.220 8.542,15.150 8.520,14.993 8.520 C 14.818 8.520,14.775 8.537,14.656 8.656 M11.274 12.613 C 10.869 12.736,10.560 12.923,10.242 13.241 C 9.718 13.764,9.500 14.331,9.528 15.098 C 9.541 15.446,9.567 15.603,9.652 15.839 C 9.908 16.557,10.492 17.130,11.207 17.364 C 11.459 17.447,11.576 17.460,12.040 17.459 C 12.553 17.457,12.596 17.451,12.900 17.328 C 13.882 16.933,14.480 16.053,14.480 15.000 C 14.480 13.947,13.879 13.061,12.900 12.673 C 12.612 12.559,12.530 12.545,12.080 12.533 C 11.647 12.521,11.539 12.532,11.274 12.613 M12.641 13.649 C 12.924 13.787,13.213 14.076,13.351 14.359 C 13.449 14.557,13.460 14.624,13.460 15.000 C 13.460 15.348,13.445 15.453,13.372 15.610 C 13.250 15.875,12.912 16.218,12.644 16.350 C 12.443 16.449,12.377 16.460,12.000 16.460 C 11.624 16.460,11.557 16.449,11.359 16.351 C 11.076 16.213,10.787 15.924,10.649 15.641 C 10.499 15.337,10.474 14.802,10.593 14.488 C 10.743 14.094,11.077 13.753,11.468 13.597 C 11.766 13.478,12.345 13.503,12.641 13.649 " stroke="none" fill="black" fill-rule="evenodd"></path></svg>