<svg xmlns="http://www.w3.org/2000/svg" class="icon icon-tabler icon-tabler-mood-happy" width="24" height="24" viewBox="0 0 24 24" stroke-width="1" stroke="currentColor" fill="none" stroke-linecap="round" stroke-linejoin="round"><path d="M10.900 2.564 C 9.092 2.784,7.444 3.481,6.020 4.628 C 4.323 5.995,3.091 8.034,2.679 10.160 C 2.468 11.247,2.468 12.755,2.679 13.840 C 3.019 15.591,3.905 17.278,5.170 18.585 C 6.746 20.212,8.748 21.195,10.991 21.441 C 11.569 21.505,12.996 21.471,13.520 21.382 C 16.578 20.862,19.166 18.939,20.519 16.180 C 21.189 14.815,21.480 13.549,21.480 12.000 C 21.480 10.487,21.202 9.243,20.562 7.900 C 19.798 6.294,18.506 4.858,16.968 3.907 C 15.800 3.185,14.424 2.710,13.072 2.562 C 12.621 2.513,11.309 2.514,10.900 2.564 M13.160 3.581 C 14.081 3.712,14.852 3.948,15.700 4.360 C 16.622 4.807,17.277 5.273,18.002 5.998 C 19.251 7.248,20.028 8.728,20.365 10.500 C 20.470 11.053,20.512 12.362,20.444 12.946 C 20.245 14.630,19.576 16.182,18.485 17.486 C 17.115 19.122,15.119 20.188,12.946 20.444 C 12.362 20.512,11.053 20.470,10.500 20.365 C 7.839 19.860,5.635 18.221,4.428 15.851 C 4.054 15.115,3.799 14.359,3.635 13.500 C 3.515 12.874,3.486 11.525,3.577 10.868 C 4.105 7.087,7.016 4.152,10.800 3.585 C 11.320 3.507,12.623 3.505,13.160 3.581 M8.656 8.656 C 8.536 8.776,8.520 8.817,8.520 9.000 C 8.520 9.183,8.536 9.224,8.656 9.344 C 8.775 9.463,8.818 9.480,8.993 9.480 C 9.477 9.480,9.682 8.931,9.314 8.621 C 9.220 8.542,9.150 8.520,8.993 8.520 C 8.818 8.520,8.775 8.537,8.656 8.656 M14.656 8.656 C 14.536 8.776,14.520 8.817,14.520 9.000 C 14.520 9.183,14.536 9.224,14.656 9.344 C 14.775 9.463,14.818 9.480,14.993 9.480 C 15.233 9.480,15.408 9.357,15.480 9.139 C 15.540 8.957,15.477 8.758,15.314 8.621 C 15.220 8.542,15.150 8.520,14.993 8.520 C 14.818 8.520,14.775 8.537,14.656 8.656 M7.651 12.661 L 7.509 12.803 7.531 13.291 C 7.606 14.994,8.714 16.528,10.338 17.178 C 10.944 17.420,11.156 17.456,12.000 17.456 C 12.675 17.456,12.822 17.444,13.088 17.370 C 14.337 17.022,15.289 16.297,15.908 15.220 C 16.260 14.608,16.438 13.996,16.469 13.291 L 16.491 12.803 16.349 12.661 L 16.208 12.520 12.000 12.520 L 7.792 12.520 7.651 12.661 M15.440 13.630 C 15.439 13.826,15.178 14.504,14.980 14.826 C 14.725 15.240,14.192 15.765,13.779 16.008 C 13.604 16.112,13.289 16.256,13.080 16.328 C 12.707 16.457,12.687 16.459,12.000 16.459 C 11.313 16.459,11.293 16.457,10.920 16.328 C 10.711 16.256,10.396 16.112,10.221 16.008 C 9.808 15.765,9.275 15.240,9.020 14.826 C 8.822 14.504,8.561 13.826,8.560 13.630 L 8.560 13.520 12.000 13.520 L 15.440 13.520 15.440 13.630 " stroke="none" fill="black" fill-rule="evenodd"></path></svg>