<svg xmlns="http://www.w3.org/2000/svg" class="icon icon-tabler icon-tabler-moon" width="24" height="24" viewBox="0 0 24 24" stroke-width="1" stroke="currentColor" fill="none" stroke-linecap="round" stroke-linejoin="round"><path d="M11.120 2.507 C 8.808 2.744,6.763 3.732,5.158 5.387 C 4.440 6.128,3.937 6.838,3.479 7.759 C 2.847 9.028,2.537 10.272,2.493 11.720 C 2.445 13.300,2.760 14.762,3.456 16.180 C 4.848 19.016,7.411 20.893,10.620 21.426 C 11.238 21.529,12.748 21.530,13.399 21.427 C 14.991 21.176,16.450 20.566,17.711 19.624 C 18.209 19.252,19.015 18.481,19.387 18.020 C 19.932 17.346,20.600 16.242,20.600 16.015 C 20.600 15.856,20.481 15.643,20.357 15.578 C 20.150 15.471,20.000 15.506,19.436 15.791 C 18.856 16.085,18.429 16.237,17.813 16.370 C 17.275 16.486,16.113 16.494,15.581 16.387 C 13.394 15.944,11.663 14.439,10.980 12.386 C 10.740 11.664,10.700 11.392,10.700 10.480 C 10.700 9.768,10.712 9.605,10.793 9.245 C 11.328 6.853,13.123 5.086,15.506 4.602 C 15.730 4.557,15.973 4.520,16.046 4.520 C 16.441 4.519,16.680 4.324,16.680 4.002 C 16.680 3.722,16.582 3.624,16.045 3.369 C 15.192 2.963,14.148 2.664,13.158 2.541 C 12.710 2.486,11.522 2.466,11.120 2.507 M13.380 3.576 C 13.919 3.675,14.447 3.810,14.411 3.839 C 14.394 3.854,14.252 3.914,14.096 3.974 C 13.076 4.363,11.962 5.177,11.242 6.057 C 10.542 6.914,10.043 7.969,9.793 9.120 C 9.713 9.490,9.702 9.652,9.702 10.480 C 9.702 11.543,9.749 11.853,10.039 12.724 C 10.386 13.766,10.908 14.595,11.737 15.421 C 12.375 16.057,12.890 16.428,13.620 16.779 C 14.660 17.279,15.484 17.461,16.680 17.457 C 17.484 17.455,17.861 17.409,18.459 17.243 C 18.613 17.200,18.746 17.173,18.755 17.182 C 18.786 17.213,18.462 17.584,18.003 18.042 C 15.429 20.610,11.530 21.252,8.260 19.647 C 5.737 18.409,4.048 16.116,3.572 13.284 C 3.462 12.631,3.473 11.269,3.593 10.591 C 3.980 8.417,5.095 6.563,6.813 5.234 C 8.036 4.289,9.522 3.698,11.160 3.505 C 11.508 3.464,13.034 3.513,13.380 3.576 " stroke="none" fill="black" fill-rule="evenodd"></path></svg>