<svg xmlns="http://www.w3.org/2000/svg" class="icon icon-tabler icon-tabler-movie" width="24" height="24" viewBox="0 0 24 24" stroke-width="1" stroke="currentColor" fill="none" stroke-linecap="round" stroke-linejoin="round"><path d="M6.680 3.521 C 5.269 3.546,5.153 3.569,4.621 3.924 C 4.116 4.262,3.761 4.749,3.594 5.330 L 3.500 5.660 3.500 12.000 C 3.500 17.982,3.504 18.354,3.572 18.593 C 3.838 19.528,4.448 20.147,5.380 20.425 C 5.605 20.492,5.994 20.497,11.700 20.510 C 15.647 20.519,17.924 20.509,18.189 20.482 C 19.305 20.371,20.121 19.684,20.427 18.600 C 20.496 18.353,20.500 18.024,20.500 12.000 C 20.500 5.976,20.496 5.647,20.427 5.400 C 20.386 5.257,20.302 5.032,20.238 4.900 C 19.872 4.137,19.062 3.578,18.260 3.533 C 17.787 3.506,8.100 3.497,6.680 3.521 M7.480 6.020 L 7.480 7.520 6.000 7.520 L 4.520 7.520 4.520 6.600 C 4.520 5.790,4.529 5.657,4.597 5.478 C 4.744 5.093,5.084 4.749,5.468 4.599 C 5.635 4.533,5.778 4.523,6.570 4.522 L 7.480 4.520 7.480 6.020 M15.480 8.020 L 15.480 11.520 12.000 11.520 L 8.520 11.520 8.520 8.020 L 8.520 4.520 12.000 4.520 L 15.480 4.520 15.480 8.020 M18.641 4.649 C 18.924 4.787,19.213 5.076,19.351 5.359 C 19.459 5.578,19.460 5.587,19.473 6.550 L 19.485 7.520 18.003 7.520 L 16.520 7.520 16.520 6.018 L 16.520 4.516 17.470 4.528 C 18.411 4.540,18.422 4.541,18.641 4.649 M7.480 10.020 L 7.480 11.520 6.000 11.520 L 4.520 11.520 4.520 10.020 L 4.520 8.520 6.000 8.520 L 7.480 8.520 7.480 10.020 M19.480 10.020 L 19.480 11.520 18.000 11.520 L 16.520 11.520 16.520 10.020 L 16.520 8.520 18.000 8.520 L 19.480 8.520 19.480 10.020 M7.480 14.020 L 7.480 15.520 6.000 15.520 L 4.520 15.520 4.520 14.020 L 4.520 12.520 6.000 12.520 L 7.480 12.520 7.480 14.020 M15.480 16.020 L 15.480 19.520 12.000 19.520 L 8.520 19.520 8.520 16.020 L 8.520 12.520 12.000 12.520 L 15.480 12.520 15.480 16.020 M19.480 14.020 L 19.480 15.520 18.000 15.520 L 16.520 15.520 16.520 14.020 L 16.520 12.520 18.000 12.520 L 19.480 12.520 19.480 14.020 M7.480 18.025 L 7.480 19.530 6.610 19.510 C 5.630 19.487,5.455 19.452,5.135 19.216 C 4.891 19.035,4.697 18.784,4.597 18.522 C 4.529 18.344,4.520 18.210,4.520 17.420 L 4.520 16.520 6.000 16.520 L 7.480 16.520 7.480 18.025 M19.473 17.470 C 19.458 18.569,19.441 18.634,19.077 19.020 C 18.688 19.431,18.363 19.518,17.210 19.519 L 16.520 19.520 16.520 18.020 L 16.520 16.520 18.003 16.520 L 19.485 16.520 19.473 17.470 " stroke="none" fill="black" fill-rule="evenodd"></path></svg>