<svg xmlns="http://www.w3.org/2000/svg" class="icon icon-tabler icon-tabler-mug" width="24" height="24" viewBox="0 0 24 24" stroke-width="1" stroke="currentColor" fill="none" stroke-linecap="round" stroke-linejoin="round"><path d="M4.468 5.599 C 4.060 5.758,3.697 6.145,3.569 6.556 C 3.505 6.763,3.500 7.112,3.500 11.100 C 3.500 14.576,3.511 15.479,3.555 15.720 C 3.900 17.617,5.267 19.021,7.161 19.424 C 7.405 19.476,7.850 19.492,9.560 19.508 C 12.381 19.535,12.874 19.493,13.706 19.160 C 14.801 18.722,15.739 17.774,16.179 16.662 C 16.272 16.428,16.398 15.960,16.463 15.616 C 16.478 15.533,16.503 15.531,17.429 15.508 C 18.123 15.491,18.443 15.468,18.614 15.420 C 19.522 15.169,20.170 14.523,20.420 13.620 C 20.504 13.316,20.550 11.464,20.488 10.856 C 20.379 9.782,19.792 8.997,18.839 8.649 C 18.548 8.543,18.514 8.540,17.535 8.528 L 16.529 8.515 16.510 7.628 C 16.488 6.628,16.454 6.457,16.216 6.135 C 16.030 5.885,15.768 5.684,15.507 5.594 C 15.312 5.527,14.983 5.523,9.980 5.523 C 4.873 5.524,4.652 5.527,4.468 5.599 M15.345 6.657 L 15.482 6.794 15.471 11.247 L 15.460 15.700 15.328 16.080 C 15.136 16.635,14.883 17.037,14.460 17.460 C 13.835 18.085,13.158 18.401,12.276 18.479 C 11.685 18.531,8.315 18.531,7.724 18.479 C 6.842 18.401,6.165 18.085,5.540 17.460 C 5.117 17.037,4.864 16.635,4.672 16.080 L 4.540 15.700 4.529 11.247 L 4.518 6.794 4.655 6.657 L 4.792 6.520 10.000 6.520 L 15.208 6.520 15.345 6.657 M18.641 9.649 C 18.924 9.787,19.213 10.076,19.351 10.359 L 19.460 10.580 19.460 12.000 C 19.460 13.633,19.464 13.610,19.077 14.020 C 18.688 14.431,18.363 14.518,17.210 14.519 L 16.520 14.520 16.520 12.018 L 16.520 9.516 17.470 9.528 C 18.411 9.540,18.422 9.541,18.641 9.649 " stroke="none" fill="black" fill-rule="evenodd"></path></svg>