<svg xmlns="http://www.w3.org/2000/svg" class="icon icon-tabler icon-tabler-music" width="24" height="24" viewBox="0 0 24 24" stroke-width="1" stroke="currentColor" fill="none" stroke-linecap="round" stroke-linejoin="round"><path d="M8.679 3.630 C 8.605 3.696,8.541 3.804,8.519 3.900 C 8.497 3.993,8.482 6.243,8.481 9.298 L 8.480 14.536 8.350 14.415 C 7.991 14.081,7.605 13.856,7.079 13.673 C 6.706 13.543,6.688 13.541,6.000 13.541 C 5.313 13.541,5.293 13.543,4.920 13.672 C 4.366 13.863,3.963 14.117,3.540 14.540 C 3.117 14.963,2.863 15.366,2.672 15.920 C 2.543 16.293,2.541 16.313,2.541 17.000 C 2.541 17.687,2.543 17.707,2.672 18.080 C 2.863 18.634,3.117 19.037,3.540 19.460 C 3.963 19.883,4.366 20.137,4.920 20.328 C 5.293 20.457,5.313 20.459,6.000 20.459 C 6.688 20.459,6.706 20.457,7.079 20.327 C 7.288 20.255,7.558 20.139,7.679 20.071 C 8.688 19.500,9.351 18.498,9.477 17.352 C 9.505 17.100,9.520 15.475,9.520 12.742 L 9.520 8.520 14.000 8.520 L 18.480 8.520 18.480 11.528 L 18.480 14.536 18.350 14.415 C 17.991 14.081,17.605 13.856,17.079 13.673 C 16.706 13.543,16.688 13.541,16.000 13.541 C 15.313 13.541,15.293 13.543,14.920 13.672 C 14.366 13.863,13.963 14.117,13.540 14.540 C 13.117 14.963,12.863 15.366,12.672 15.920 C 12.543 16.293,12.541 16.313,12.541 17.000 C 12.541 17.687,12.543 17.707,12.672 18.080 C 12.863 18.634,13.117 19.037,13.540 19.460 C 13.963 19.883,14.366 20.137,14.920 20.328 C 15.293 20.457,15.313 20.459,16.000 20.459 C 16.688 20.459,16.706 20.457,17.079 20.327 C 17.288 20.255,17.558 20.139,17.679 20.071 C 18.688 19.500,19.351 18.498,19.477 17.352 C 19.532 16.858,19.535 4.135,19.481 3.900 C 19.459 3.804,19.395 3.696,19.321 3.630 L 19.199 3.520 14.000 3.520 L 8.801 3.520 8.679 3.630 M18.480 6.020 L 18.480 7.520 14.000 7.520 L 9.520 7.520 9.520 6.020 L 9.520 4.520 14.000 4.520 L 18.480 4.520 18.480 6.020 M6.834 14.640 C 7.142 14.749,7.615 15.059,7.818 15.283 C 8.048 15.538,8.266 15.898,8.368 16.192 C 8.446 16.421,8.460 16.540,8.460 17.000 C 8.460 17.460,8.446 17.579,8.368 17.808 C 8.190 18.320,7.844 18.765,7.378 19.076 C 6.916 19.385,6.647 19.460,6.000 19.460 C 5.540 19.460,5.421 19.446,5.192 19.368 C 4.898 19.266,4.538 19.048,4.283 18.818 C 4.058 18.615,3.749 18.141,3.640 17.834 C 3.516 17.481,3.484 16.763,3.577 16.399 C 3.803 15.515,4.484 14.821,5.360 14.581 C 5.694 14.489,6.500 14.522,6.834 14.640 M16.834 14.640 C 17.142 14.749,17.615 15.059,17.818 15.283 C 18.048 15.538,18.266 15.898,18.368 16.192 C 18.446 16.421,18.460 16.540,18.460 17.000 C 18.460 17.460,18.446 17.579,18.368 17.808 C 18.190 18.320,17.844 18.765,17.378 19.076 C 16.916 19.385,16.647 19.460,16.000 19.460 C 15.540 19.460,15.421 19.446,15.192 19.368 C 14.898 19.266,14.538 19.048,14.283 18.818 C 14.058 18.615,13.749 18.141,13.640 17.834 C 13.516 17.481,13.484 16.763,13.577 16.399 C 13.803 15.515,14.484 14.821,15.360 14.581 C 15.694 14.489,16.500 14.522,16.834 14.640 " stroke="none" fill="black" fill-rule="evenodd"></path></svg>