<svg xmlns="http://www.w3.org/2000/svg" class="icon icon-tabler icon-tabler-new-section" width="24" height="24" viewBox="0 0 24 24" stroke-width="1" stroke="currentColor" fill="none" stroke-linecap="round" stroke-linejoin="round"><path d="M4.468 3.599 C 4.067 3.755,3.696 4.146,3.578 4.535 C 3.504 4.778,3.456 5.645,3.498 5.979 C 3.522 6.172,3.552 6.240,3.660 6.348 C 3.775 6.463,3.819 6.480,3.995 6.480 C 4.161 6.480,4.222 6.459,4.321 6.370 C 4.485 6.223,4.518 6.056,4.519 5.366 L 4.520 4.792 4.656 4.656 L 4.792 4.520 5.366 4.519 C 6.056 4.518,6.223 4.485,6.370 4.321 C 6.459 4.222,6.480 4.161,6.480 3.995 C 6.480 3.817,6.463 3.775,6.344 3.656 L 6.208 3.520 5.434 3.522 C 4.775 3.523,4.631 3.535,4.468 3.599 M10.656 3.656 C 10.537 3.775,10.520 3.817,10.520 3.995 C 10.520 4.250,10.657 4.425,10.900 4.481 C 11.108 4.529,12.892 4.529,13.100 4.481 C 13.343 4.425,13.480 4.250,13.480 3.995 C 13.480 3.817,13.463 3.775,13.344 3.656 L 13.208 3.520 12.000 3.520 L 10.792 3.520 10.656 3.656 M17.656 3.656 C 17.537 3.775,17.520 3.817,17.520 3.995 C 17.520 4.161,17.541 4.222,17.630 4.321 C 17.777 4.485,17.944 4.518,18.634 4.519 L 19.208 4.520 19.344 4.656 L 19.480 4.792 19.481 5.366 C 19.482 6.056,19.515 6.223,19.679 6.370 C 19.778 6.459,19.839 6.480,20.005 6.480 C 20.181 6.480,20.225 6.463,20.340 6.348 C 20.448 6.240,20.478 6.172,20.502 5.979 C 20.544 5.645,20.496 4.778,20.422 4.535 C 20.300 4.133,19.912 3.734,19.507 3.594 C 19.337 3.536,19.163 3.522,18.546 3.521 L 17.792 3.520 17.656 3.656 M11.679 8.630 C 11.605 8.696,11.541 8.804,11.519 8.900 C 11.499 8.988,11.481 9.614,11.481 10.290 L 11.480 11.520 10.136 11.520 L 8.792 11.520 8.656 11.656 C 8.537 11.775,8.520 11.817,8.520 11.995 C 8.520 12.250,8.657 12.425,8.900 12.481 C 8.988 12.501,9.604 12.519,10.270 12.519 L 11.480 12.520 11.481 13.730 C 11.481 14.396,11.499 15.012,11.519 15.100 C 11.574 15.341,11.751 15.480,12.000 15.480 C 12.249 15.480,12.426 15.341,12.481 15.100 C 12.501 15.012,12.519 14.396,12.519 13.730 L 12.520 12.520 13.730 12.519 C 14.396 12.519,15.012 12.501,15.100 12.481 C 15.343 12.425,15.480 12.250,15.480 11.995 C 15.480 11.817,15.463 11.775,15.344 11.656 L 15.208 11.520 13.864 11.520 L 12.520 11.520 12.519 10.290 C 12.519 9.614,12.501 8.988,12.481 8.900 C 12.426 8.659,12.249 8.520,12.000 8.520 C 11.840 8.520,11.778 8.541,11.679 8.630 M3.679 10.630 C 3.605 10.696,3.541 10.804,3.519 10.900 C 3.471 11.108,3.471 12.892,3.519 13.100 C 3.574 13.341,3.751 13.480,4.000 13.480 C 4.249 13.480,4.426 13.341,4.481 13.100 C 4.529 12.892,4.529 11.108,4.481 10.900 C 4.426 10.659,4.249 10.520,4.000 10.520 C 3.840 10.520,3.778 10.541,3.679 10.630 M19.679 10.630 C 19.605 10.696,19.541 10.804,19.519 10.900 C 19.471 11.108,19.471 12.892,19.519 13.100 C 19.574 13.341,19.751 13.480,20.000 13.480 C 20.249 13.480,20.426 13.341,20.481 13.100 C 20.501 13.012,20.518 12.517,20.518 12.000 C 20.518 11.483,20.501 10.988,20.481 10.900 C 20.426 10.659,20.249 10.520,20.000 10.520 C 19.840 10.520,19.778 10.541,19.679 10.630 M3.660 17.652 C 3.552 17.760,3.522 17.828,3.498 18.021 C 3.456 18.355,3.504 19.222,3.578 19.465 C 3.703 19.877,4.123 20.297,4.535 20.422 C 4.778 20.496,5.645 20.544,5.979 20.502 C 6.172 20.478,6.240 20.448,6.348 20.340 C 6.463 20.225,6.480 20.182,6.480 20.000 C 6.480 19.817,6.464 19.776,6.344 19.656 L 6.208 19.520 5.634 19.519 C 4.944 19.518,4.777 19.485,4.630 19.321 C 4.521 19.200,4.520 19.193,4.519 18.629 C 4.518 17.944,4.485 17.776,4.321 17.630 C 4.222 17.541,4.161 17.520,3.995 17.520 C 3.819 17.520,3.775 17.537,3.660 17.652 M19.679 17.630 C 19.515 17.776,19.482 17.944,19.481 18.629 C 19.480 19.193,19.479 19.200,19.370 19.321 C 19.223 19.485,19.056 19.518,18.366 19.519 L 17.792 19.520 17.656 19.656 C 17.536 19.776,17.520 19.817,17.520 20.000 C 17.520 20.182,17.537 20.225,17.652 20.340 C 17.760 20.448,17.828 20.478,18.021 20.502 C 18.355 20.544,19.222 20.496,19.465 20.422 C 19.877 20.297,20.297 19.877,20.422 19.465 C 20.496 19.222,20.544 18.355,20.502 18.021 C 20.478 17.828,20.448 17.760,20.340 17.652 C 20.225 17.537,20.181 17.520,20.005 17.520 C 19.839 17.520,19.778 17.541,19.679 17.630 M10.656 19.656 C 10.537 19.775,10.520 19.817,10.520 19.995 C 10.520 20.250,10.657 20.425,10.900 20.481 C 10.988 20.501,11.483 20.518,12.000 20.518 C 12.517 20.518,13.012 20.501,13.100 20.481 C 13.343 20.425,13.480 20.250,13.480 19.995 C 13.480 19.817,13.463 19.775,13.344 19.656 L 13.208 19.520 12.000 19.520 L 10.792 19.520 10.656 19.656 " stroke="none" fill="black" fill-rule="evenodd"></path></svg>