<svg xmlns="http://www.w3.org/2000/svg" class="icon icon-tabler icon-tabler-news" width="24" height="24" viewBox="0 0 24 24" stroke-width="1" stroke="currentColor" fill="none" stroke-linecap="round" stroke-linejoin="round"><path d="M4.493 3.594 C 4.106 3.728,3.758 4.071,3.587 4.488 L 3.500 4.700 3.488 10.700 C 3.480 14.642,3.490 16.876,3.518 17.214 C 3.594 18.153,3.896 18.816,4.540 19.460 C 5.184 20.104,5.846 20.405,6.786 20.482 C 7.125 20.510,9.186 20.520,12.840 20.511 C 18.021 20.497,18.396 20.492,18.620 20.425 C 19.542 20.150,20.145 19.545,20.426 18.614 C 20.492 18.396,20.497 17.991,20.510 12.780 C 20.520 8.989,20.510 7.077,20.482 6.860 C 20.458 6.680,20.396 6.452,20.341 6.339 C 20.212 6.075,19.917 5.784,19.641 5.649 L 19.420 5.540 17.976 5.528 L 16.532 5.516 16.506 5.127 C 16.492 4.912,16.454 4.645,16.420 4.533 C 16.302 4.135,15.912 3.734,15.507 3.594 C 15.312 3.527,14.983 3.523,10.000 3.523 C 5.017 3.523,4.688 3.527,4.493 3.594 M15.344 4.656 L 15.480 4.792 15.481 11.326 C 15.481 14.920,15.498 18.014,15.517 18.201 C 15.559 18.601,15.677 18.983,15.842 19.253 C 15.907 19.359,15.960 19.463,15.960 19.484 C 15.960 19.510,14.310 19.519,11.290 19.510 C 6.996 19.498,6.601 19.492,6.380 19.428 C 5.476 19.166,4.809 18.495,4.582 17.622 C 4.527 17.411,4.520 16.640,4.520 11.088 L 4.520 4.792 4.656 4.656 L 4.792 4.520 10.000 4.520 L 15.208 4.520 15.344 4.656 M19.345 6.657 L 19.481 6.793 19.471 12.607 L 19.460 18.420 19.350 18.644 C 19.218 18.912,18.875 19.250,18.610 19.372 C 18.453 19.445,18.348 19.460,18.000 19.460 C 17.624 19.460,17.557 19.449,17.359 19.351 C 17.076 19.213,16.787 18.924,16.649 18.641 L 16.540 18.420 16.530 12.470 L 16.519 6.520 17.864 6.520 L 19.208 6.520 19.345 6.657 M7.656 7.656 C 7.537 7.775,7.520 7.817,7.520 7.995 C 7.520 8.250,7.657 8.425,7.900 8.481 C 8.109 8.529,11.891 8.529,12.100 8.481 C 12.343 8.425,12.480 8.250,12.480 7.995 C 12.480 7.817,12.463 7.775,12.344 7.656 L 12.208 7.520 10.000 7.520 L 7.792 7.520 7.656 7.656 M7.656 11.656 C 7.537 11.775,7.520 11.817,7.520 11.995 C 7.520 12.250,7.657 12.425,7.900 12.481 C 8.109 12.529,11.891 12.529,12.100 12.481 C 12.343 12.425,12.480 12.250,12.480 11.995 C 12.480 11.817,12.463 11.775,12.344 11.656 L 12.208 11.520 10.000 11.520 L 7.792 11.520 7.656 11.656 M7.656 15.656 C 7.537 15.775,7.520 15.817,7.520 15.995 C 7.520 16.250,7.657 16.425,7.900 16.481 C 8.109 16.529,11.891 16.529,12.100 16.481 C 12.343 16.425,12.480 16.250,12.480 15.995 C 12.480 15.817,12.463 15.775,12.344 15.656 L 12.208 15.520 10.000 15.520 L 7.792 15.520 7.656 15.656 " stroke="none" fill="black" fill-rule="evenodd"></path></svg>