<svg xmlns="http://www.w3.org/2000/svg" class="icon icon-tabler icon-tabler-note" width="24" height="24" viewBox="0 0 24 24" stroke-width="1" stroke="currentColor" fill="none" stroke-linecap="round" stroke-linejoin="round"><path d="M5.274 3.615 C 4.870 3.735,4.561 3.922,4.242 4.242 C 3.922 4.561,3.739 4.864,3.603 5.294 L 3.500 5.620 3.500 11.980 C 3.500 17.982,3.504 18.354,3.572 18.593 C 3.838 19.529,4.452 20.150,5.380 20.424 C 5.600 20.489,5.924 20.496,9.300 20.510 C 11.781 20.520,13.026 20.512,13.120 20.484 C 13.229 20.451,14.062 19.639,16.867 16.831 C 19.965 13.730,20.478 13.200,20.500 13.080 C 20.513 13.003,20.518 11.293,20.510 9.280 C 20.496 5.922,20.489 5.600,20.424 5.380 C 20.185 4.570,19.657 3.978,18.900 3.670 L 18.580 3.540 12.080 3.532 L 5.580 3.524 5.274 3.615 M18.641 4.649 C 18.924 4.787,19.213 5.076,19.351 5.359 L 19.460 5.580 19.471 9.050 L 19.482 12.520 16.581 12.520 C 13.816 12.520,13.671 12.524,13.478 12.597 C 13.075 12.750,12.707 13.130,12.571 13.535 C 12.509 13.720,12.501 14.026,12.489 16.632 L 12.476 19.523 9.108 19.511 C 6.045 19.499,5.721 19.492,5.535 19.429 C 5.130 19.293,4.750 18.925,4.597 18.522 C 4.522 18.325,4.520 18.139,4.520 12.000 C 4.520 5.861,4.522 5.675,4.597 5.478 C 4.743 5.093,5.084 4.749,5.468 4.599 C 5.653 4.526,5.878 4.524,12.040 4.532 L 18.420 4.540 18.641 4.649 M18.760 13.530 C 18.760 13.536,17.581 14.719,16.140 16.160 L 13.520 18.780 13.520 16.286 L 13.520 13.792 13.656 13.656 L 13.792 13.520 16.276 13.520 C 17.642 13.520,18.760 13.525,18.760 13.530 " stroke="none" fill="black" fill-rule="evenodd"></path></svg>