<svg xmlns="http://www.w3.org/2000/svg" class="icon icon-tabler icon-tabler-notes" width="24" height="24" viewBox="0 0 24 24" stroke-width="1" stroke="currentColor" fill="none" stroke-linecap="round" stroke-linejoin="round"><path d="M6.274 2.615 C 5.870 2.735,5.561 2.922,5.242 3.242 C 4.922 3.561,4.739 3.864,4.603 4.294 L 4.500 4.620 4.500 11.980 C 4.500 18.944,4.504 19.354,4.572 19.593 C 4.838 20.528,5.449 21.148,6.380 21.425 C 6.604 21.491,6.964 21.497,11.700 21.510 C 14.980 21.519,16.925 21.509,17.189 21.483 C 18.305 21.371,19.121 20.684,19.427 19.600 C 19.497 19.352,19.500 18.993,19.500 12.000 C 19.500 5.007,19.497 4.648,19.427 4.400 C 19.196 3.582,18.666 2.982,17.900 2.670 L 17.580 2.540 12.080 2.532 L 6.580 2.524 6.274 2.615 M17.641 3.649 C 17.924 3.787,18.213 4.076,18.351 4.359 L 18.460 4.580 18.460 12.000 L 18.460 19.420 18.372 19.610 C 18.253 19.867,17.913 20.218,17.664 20.339 C 17.548 20.396,17.323 20.457,17.140 20.482 C 16.925 20.510,15.159 20.520,11.780 20.511 C 7.115 20.500,6.725 20.494,6.535 20.429 C 6.129 20.292,5.750 19.925,5.597 19.522 C 5.522 19.324,5.520 19.126,5.520 12.000 C 5.520 4.874,5.522 4.676,5.597 4.478 C 5.743 4.093,6.084 3.749,6.468 3.599 C 6.653 3.526,6.856 3.524,12.040 3.532 L 17.420 3.540 17.641 3.649 M8.656 6.656 C 8.537 6.775,8.520 6.817,8.520 6.995 C 8.520 7.250,8.657 7.425,8.900 7.481 C 9.110 7.530,14.890 7.530,15.100 7.481 C 15.343 7.425,15.480 7.250,15.480 6.995 C 15.480 6.817,15.463 6.775,15.344 6.656 L 15.208 6.520 12.000 6.520 L 8.792 6.520 8.656 6.656 M8.656 10.656 C 8.537 10.775,8.520 10.817,8.520 10.995 C 8.520 11.250,8.657 11.425,8.900 11.481 C 9.110 11.530,14.890 11.530,15.100 11.481 C 15.343 11.425,15.480 11.250,15.480 10.995 C 15.480 10.817,15.463 10.775,15.344 10.656 L 15.208 10.520 12.000 10.520 L 8.792 10.520 8.656 10.656 M8.656 14.656 C 8.537 14.775,8.520 14.817,8.520 14.995 C 8.520 15.250,8.657 15.425,8.900 15.481 C 9.109 15.529,12.891 15.529,13.100 15.481 C 13.343 15.425,13.480 15.250,13.480 14.995 C 13.480 14.817,13.463 14.775,13.344 14.656 L 13.208 14.520 11.000 14.520 L 8.792 14.520 8.656 14.656 " stroke="none" fill="black" fill-rule="evenodd"></path></svg>