<svg xmlns="http://www.w3.org/2000/svg" class="icon icon-tabler icon-tabler-notebook" width="24" height="24" viewBox="0 0 24 24" stroke-width="1" stroke="currentColor" fill="none" stroke-linecap="round" stroke-linejoin="round"><path d="M5.468 3.599 C 5.060 3.758,4.697 4.145,4.569 4.556 C 4.505 4.765,4.500 5.260,4.500 12.000 C 4.500 18.740,4.505 19.235,4.569 19.444 C 4.703 19.875,5.109 20.288,5.535 20.427 C 5.705 20.482,5.972 20.496,7.110 20.510 L 8.480 20.527 8.481 21.234 C 8.482 22.059,8.510 22.219,8.679 22.370 C 8.853 22.527,9.147 22.527,9.321 22.370 C 9.490 22.219,9.518 22.059,9.519 21.232 L 9.520 20.524 13.450 20.510 C 17.050 20.496,17.400 20.489,17.614 20.425 C 18.552 20.145,19.166 19.527,19.427 18.600 C 19.496 18.353,19.500 18.024,19.500 12.000 C 19.500 6.018,19.496 5.646,19.428 5.407 C 19.212 4.645,18.751 4.074,18.100 3.762 C 17.567 3.506,17.950 3.520,11.514 3.522 C 5.886 3.524,5.653 3.527,5.468 3.599 M8.480 12.020 L 8.480 19.520 7.270 19.519 C 6.605 19.519,5.988 19.501,5.900 19.481 C 5.804 19.459,5.696 19.395,5.630 19.321 L 5.520 19.199 5.520 11.995 L 5.520 4.792 5.656 4.656 L 5.792 4.520 7.136 4.520 L 8.480 4.520 8.480 12.020 M17.641 4.649 C 17.924 4.787,18.213 5.076,18.351 5.359 L 18.460 5.580 18.460 12.000 L 18.460 18.420 18.350 18.644 C 18.220 18.909,17.874 19.252,17.626 19.362 C 17.530 19.404,17.327 19.457,17.176 19.479 C 17.009 19.503,15.445 19.519,13.210 19.519 L 9.520 19.520 9.520 12.019 L 9.520 4.519 13.470 4.529 L 17.420 4.540 17.641 4.649 M12.656 7.656 C 12.537 7.775,12.520 7.817,12.520 7.995 C 12.520 8.250,12.657 8.425,12.900 8.481 C 13.108 8.529,14.892 8.529,15.100 8.481 C 15.343 8.425,15.480 8.250,15.480 7.995 C 15.480 7.817,15.463 7.775,15.344 7.656 L 15.208 7.520 14.000 7.520 L 12.792 7.520 12.656 7.656 M12.656 11.656 C 12.537 11.775,12.520 11.817,12.520 11.995 C 12.520 12.250,12.657 12.425,12.900 12.481 C 12.988 12.501,13.483 12.518,14.000 12.518 C 14.517 12.518,15.012 12.501,15.100 12.481 C 15.343 12.425,15.480 12.250,15.480 11.995 C 15.480 11.817,15.463 11.775,15.344 11.656 L 15.208 11.520 14.000 11.520 L 12.792 11.520 12.656 11.656 " stroke="none" fill="black" fill-rule="evenodd"></path></svg>