<svg xmlns="http://www.w3.org/2000/svg" class="icon icon-tabler icon-tabler-notification" width="24" height="24" viewBox="0 0 24 24" stroke-width="1" stroke="currentColor" fill="none" stroke-linecap="round" stroke-linejoin="round"><path d="M15.259 4.576 C 14.065 4.848,13.079 5.739,12.676 6.910 C 12.543 7.294,12.541 7.310,12.541 8.000 C 12.541 8.687,12.543 8.707,12.672 9.080 C 12.863 9.634,13.117 10.037,13.540 10.460 C 13.963 10.883,14.366 11.137,14.920 11.328 C 15.293 11.457,15.313 11.459,16.000 11.459 C 16.688 11.459,16.706 11.457,17.079 11.327 C 17.288 11.255,17.558 11.139,17.679 11.071 C 18.449 10.635,19.035 9.930,19.324 9.090 C 19.457 8.705,19.459 8.690,19.459 8.000 C 19.459 7.310,19.457 7.295,19.324 6.910 C 19.035 6.070,18.449 5.365,17.679 4.929 C 17.558 4.861,17.288 4.747,17.079 4.676 C 16.730 4.557,16.653 4.546,16.100 4.534 C 15.694 4.526,15.422 4.539,15.259 4.576 M16.834 5.640 C 17.142 5.749,17.615 6.059,17.818 6.283 C 18.048 6.538,18.266 6.898,18.368 7.192 C 18.446 7.421,18.460 7.540,18.460 8.000 C 18.460 8.460,18.446 8.579,18.368 8.808 C 18.190 9.320,17.844 9.765,17.378 10.076 C 16.916 10.385,16.647 10.460,16.000 10.460 C 15.540 10.460,15.421 10.446,15.192 10.368 C 14.898 10.266,14.538 10.048,14.283 9.818 C 14.058 9.615,13.749 9.141,13.640 8.834 C 13.516 8.481,13.484 7.763,13.577 7.399 C 13.803 6.515,14.484 5.821,15.360 5.581 C 15.694 5.489,16.500 5.522,16.834 5.640 M5.274 6.615 C 4.870 6.734,4.561 6.922,4.242 7.242 C 3.922 7.561,3.739 7.864,3.603 8.294 L 3.500 8.620 3.500 13.480 C 3.500 18.069,3.504 18.354,3.573 18.600 C 3.834 19.527,4.447 20.144,5.386 20.426 C 5.602 20.490,5.973 20.497,10.200 20.510 C 13.147 20.519,14.926 20.509,15.189 20.483 C 16.297 20.371,17.119 19.686,17.422 18.620 C 17.479 18.418,17.493 18.128,17.509 16.807 C 17.532 14.949,17.523 14.835,17.340 14.652 C 17.226 14.538,17.181 14.520,17.009 14.520 C 16.799 14.520,16.647 14.604,16.550 14.773 C 16.513 14.837,16.495 15.326,16.480 16.640 L 16.460 18.420 16.350 18.644 C 16.220 18.909,15.874 19.252,15.626 19.362 C 15.530 19.404,15.327 19.457,15.176 19.479 C 14.803 19.533,6.198 19.532,5.820 19.478 C 5.666 19.456,5.449 19.394,5.339 19.341 C 5.075 19.212,4.784 18.918,4.649 18.641 L 4.540 18.420 4.540 13.500 L 4.540 8.580 4.649 8.359 C 4.787 8.076,5.076 7.787,5.359 7.649 L 5.580 7.540 7.360 7.520 C 8.674 7.505,9.163 7.487,9.227 7.450 C 9.396 7.353,9.480 7.201,9.480 6.991 C 9.480 6.818,9.462 6.774,9.344 6.656 L 9.208 6.520 7.394 6.522 C 5.629 6.524,5.572 6.527,5.274 6.615 " stroke="none" fill="black" fill-rule="evenodd"></path></svg>