<svg xmlns="http://www.w3.org/2000/svg" class="icon icon-tabler icon-tabler-omega" width="24" height="24" viewBox="0 0 24 24" stroke-width="1" stroke="currentColor" fill="none" stroke-linecap="round" stroke-linejoin="round"><path d="M11.164 3.486 C 10.652 3.539,10.071 3.667,9.540 3.844 C 6.795 4.756,4.822 7.030,4.269 9.920 C 4.194 10.314,4.181 10.514,4.182 11.320 C 4.183 12.191,4.192 12.298,4.294 12.780 C 4.753 14.947,5.925 16.686,7.720 17.863 C 7.929 18.000,8.185 18.153,8.290 18.204 C 8.450 18.281,8.480 18.314,8.480 18.408 L 8.480 18.520 6.136 18.520 L 3.792 18.520 3.656 18.656 C 3.536 18.776,3.520 18.817,3.520 19.000 C 3.520 19.182,3.537 19.225,3.652 19.340 C 3.758 19.446,3.828 19.478,4.002 19.499 C 4.122 19.513,5.328 19.519,6.682 19.512 C 8.954 19.501,9.152 19.495,9.251 19.429 C 9.479 19.280,9.500 19.202,9.500 18.495 C 9.500 17.691,9.515 17.717,8.846 17.360 C 8.151 16.989,7.687 16.648,7.160 16.120 C 6.586 15.544,6.237 15.058,5.882 14.340 C 5.398 13.359,5.208 12.606,5.173 11.520 C 5.155 10.978,5.165 10.718,5.217 10.368 C 5.453 8.768,6.129 7.450,7.279 6.348 C 8.224 5.442,9.356 4.851,10.678 4.571 C 11.128 4.476,11.265 4.465,12.000 4.465 C 12.735 4.465,12.872 4.476,13.322 4.571 C 16.098 5.158,18.180 7.247,18.722 9.988 C 18.831 10.542,18.868 11.509,18.802 12.079 C 18.668 13.234,18.187 14.446,17.492 15.381 C 17.140 15.854,16.467 16.516,16.010 16.840 C 15.807 16.983,15.422 17.217,15.154 17.360 C 14.485 17.717,14.500 17.691,14.500 18.495 C 14.500 19.202,14.521 19.280,14.749 19.429 C 14.848 19.495,15.046 19.501,17.318 19.512 C 18.672 19.519,19.878 19.513,19.998 19.499 C 20.172 19.478,20.242 19.446,20.348 19.340 C 20.463 19.225,20.480 19.182,20.480 19.000 C 20.480 18.817,20.464 18.776,20.344 18.656 L 20.208 18.520 17.864 18.520 L 15.520 18.520 15.520 18.408 C 15.520 18.314,15.550 18.281,15.710 18.204 C 16.207 17.963,16.898 17.457,17.436 16.941 C 20.593 13.912,20.650 8.862,17.562 5.762 C 15.882 4.074,13.532 3.238,11.164 3.486 " stroke="none" fill="black" fill-rule="evenodd"></path></svg>