<svg xmlns="http://www.w3.org/2000/svg" class="icon icon-tabler icon-tabler-package" width="24" height="24" viewBox="0 0 24 24" stroke-width="1" stroke="currentColor" fill="none" stroke-linecap="round" stroke-linejoin="round"><path d="M7.720 4.832 C 4.014 6.918,3.613 7.154,3.550 7.280 C 3.483 7.412,3.480 7.697,3.490 12.020 C 3.498 15.910,3.509 16.637,3.557 16.731 C 3.630 16.873,3.385 16.730,7.960 19.303 C 11.036 21.033,11.890 21.497,12.000 21.497 C 12.111 21.497,12.912 21.064,15.900 19.383 C 20.536 16.777,20.370 16.874,20.442 16.733 C 20.491 16.637,20.502 15.944,20.510 12.020 C 20.520 7.697,20.517 7.412,20.450 7.280 C 20.374 7.129,20.533 7.221,14.472 3.816 C 12.416 2.662,12.146 2.520,11.992 2.522 C 11.840 2.523,11.342 2.793,7.720 4.832 M13.437 4.381 C 14.202 4.810,14.858 5.184,14.895 5.211 C 14.954 5.254,14.486 5.529,11.514 7.201 C 9.618 8.267,8.037 9.140,8.003 9.140 C 7.922 9.140,5.029 7.518,5.058 7.489 C 5.115 7.432,11.947 3.604,11.994 3.602 C 12.024 3.601,12.673 3.951,13.437 4.381 M17.466 6.645 C 18.255 7.088,18.915 7.464,18.933 7.480 C 18.966 7.510,12.088 11.400,12.002 11.400 C 11.957 11.400,9.132 9.825,9.071 9.766 C 9.043 9.739,15.895 5.852,15.986 5.844 C 16.011 5.842,16.677 6.202,17.466 6.645 M6.360 9.401 C 7.075 9.804,7.957 10.300,8.320 10.503 C 8.683 10.706,9.538 11.187,10.220 11.571 L 11.460 12.269 11.470 16.195 L 11.480 20.122 11.306 20.031 C 11.210 19.981,9.644 19.103,7.826 18.080 L 4.520 16.220 4.520 12.292 L 4.520 8.364 4.790 8.517 C 4.939 8.601,5.645 8.999,6.360 9.401 M19.480 12.290 L 19.480 16.220 16.033 18.160 C 14.138 19.227,12.572 20.106,12.553 20.113 C 12.535 20.121,12.524 18.359,12.530 16.198 L 12.540 12.270 16.000 10.319 C 17.903 9.246,19.465 8.366,19.470 8.364 C 19.476 8.362,19.480 10.129,19.480 12.290 " stroke="none" fill="black" fill-rule="evenodd"></path></svg>