<svg xmlns="http://www.w3.org/2000/svg" class="icon icon-tabler icon-tabler-paint" width="24" height="24" viewBox="0 0 24 24" stroke-width="1" stroke="currentColor" fill="none" stroke-linecap="round" stroke-linejoin="round"><path d="M6.274 2.615 C 5.870 2.735,5.561 2.922,5.242 3.242 C 4.921 3.563,4.737 3.866,4.605 4.294 C 4.506 4.615,4.504 4.642,4.503 5.980 C 4.501 7.167,4.510 7.372,4.573 7.593 C 4.835 8.526,5.449 9.148,6.380 9.425 C 6.604 9.491,6.964 9.497,11.700 9.510 C 14.980 9.519,16.925 9.509,17.189 9.483 C 18.112 9.390,18.862 8.884,19.238 8.100 C 19.398 7.767,19.470 7.453,19.503 6.947 L 19.531 6.513 19.976 6.527 C 20.362 6.538,20.449 6.554,20.641 6.649 C 20.924 6.787,21.213 7.076,21.351 7.359 C 21.456 7.571,21.460 7.605,21.457 8.180 C 21.454 8.658,21.436 8.842,21.369 9.087 C 20.914 10.746,19.713 11.946,18.088 12.364 C 17.588 12.492,16.957 12.518,14.311 12.519 L 11.801 12.520 11.679 12.630 C 11.509 12.782,11.482 12.941,11.481 13.787 L 11.480 14.513 11.030 14.527 C 10.637 14.538,10.552 14.554,10.359 14.649 C 10.083 14.784,9.788 15.075,9.659 15.339 C 9.494 15.677,9.474 16.021,9.489 18.221 C 9.502 20.006,9.513 20.285,9.572 20.465 C 9.714 20.893,10.126 21.298,10.556 21.431 C 10.748 21.490,10.955 21.500,12.000 21.500 C 13.045 21.500,13.252 21.490,13.444 21.431 C 13.874 21.298,14.286 20.893,14.428 20.465 C 14.487 20.285,14.498 20.006,14.511 18.221 C 14.526 16.021,14.506 15.677,14.341 15.339 C 14.212 15.075,13.917 14.784,13.641 14.649 C 13.449 14.555,13.361 14.538,12.970 14.526 L 12.520 14.511 12.520 14.019 L 12.520 13.528 15.030 13.510 C 17.128 13.494,17.601 13.481,17.910 13.426 C 19.934 13.065,21.568 11.657,22.219 9.712 C 22.511 8.840,22.566 7.766,22.350 7.165 C 22.096 6.456,21.545 5.904,20.839 5.651 C 20.590 5.562,20.456 5.541,20.035 5.528 L 19.531 5.512 19.503 5.066 C 19.488 4.821,19.448 4.512,19.415 4.380 C 19.218 3.608,18.662 2.980,17.900 2.670 L 17.580 2.540 12.080 2.532 L 6.580 2.524 6.274 2.615 M17.641 3.649 C 17.924 3.787,18.213 4.076,18.351 4.359 L 18.460 4.580 18.460 6.000 C 18.460 7.633,18.464 7.610,18.077 8.020 C 17.825 8.286,17.553 8.425,17.180 8.478 C 16.800 8.533,7.200 8.533,6.820 8.478 C 6.666 8.456,6.449 8.394,6.339 8.341 C 6.075 8.212,5.784 7.918,5.649 7.641 L 5.540 7.420 5.529 6.054 C 5.518 4.779,5.522 4.675,5.595 4.482 C 5.743 4.093,6.082 3.750,6.468 3.599 C 6.653 3.526,6.856 3.524,12.040 3.532 L 17.420 3.540 17.641 3.649 M13.344 15.656 L 13.480 15.792 13.480 17.995 L 13.480 20.199 13.370 20.321 C 13.304 20.395,13.196 20.459,13.100 20.481 C 12.892 20.529,11.108 20.529,10.900 20.481 C 10.804 20.459,10.696 20.395,10.630 20.321 L 10.520 20.199 10.520 17.995 L 10.520 15.792 10.656 15.656 L 10.792 15.520 12.000 15.520 L 13.208 15.520 13.344 15.656 " stroke="none" fill="black" fill-rule="evenodd"></path></svg>