<svg xmlns="http://www.w3.org/2000/svg" class="icon icon-tabler icon-tabler-palette" width="24" height="24" viewBox="0 0 24 24" stroke-width="1" stroke="currentColor" fill="none" stroke-linecap="round" stroke-linejoin="round"><path d="M10.900 2.564 C 9.444 2.742,7.999 3.264,6.824 4.039 C 5.434 4.956,4.278 6.237,3.550 7.666 C 2.844 9.053,2.520 10.415,2.520 12.000 C 2.520 13.513,2.798 14.757,3.438 16.100 C 3.906 17.084,4.479 17.887,5.296 18.704 C 7.095 20.503,9.368 21.461,11.900 21.487 C 12.383 21.492,12.493 21.481,12.700 21.406 C 13.738 21.031,14.207 19.868,13.717 18.887 C 13.604 18.661,13.464 18.512,12.965 18.088 C 12.828 17.972,12.721 17.830,12.632 17.649 C 12.511 17.403,12.500 17.351,12.500 17.001 C 12.500 16.666,12.514 16.590,12.615 16.371 C 12.749 16.080,13.043 15.783,13.340 15.638 L 13.540 15.540 15.300 15.514 C 16.667 15.494,17.140 15.474,17.420 15.423 C 19.362 15.070,20.838 13.821,21.345 12.100 C 21.486 11.621,21.521 10.660,21.423 9.956 C 20.891 6.128,17.558 3.111,13.276 2.581 C 12.741 2.515,11.384 2.505,10.900 2.564 M13.520 3.617 C 16.360 4.112,18.625 5.694,19.774 7.985 C 20.227 8.890,20.435 9.709,20.468 10.722 C 20.487 11.309,20.480 11.422,20.405 11.722 C 20.154 12.718,19.459 13.546,18.460 14.040 C 17.640 14.446,17.118 14.517,14.946 14.519 C 13.460 14.520,13.325 14.536,12.862 14.766 C 12.200 15.094,11.731 15.682,11.541 16.418 C 11.463 16.724,11.463 17.276,11.542 17.582 C 11.708 18.226,12.053 18.710,12.635 19.118 C 12.982 19.361,13.008 19.917,12.688 20.253 C 12.461 20.492,12.322 20.520,11.568 20.478 C 9.402 20.357,7.514 19.518,5.998 18.002 C 4.749 16.752,3.973 15.275,3.635 13.500 C 3.515 12.874,3.486 11.525,3.577 10.868 C 4.105 7.085,6.989 4.175,10.800 3.583 C 11.319 3.502,12.981 3.523,13.520 3.617 M11.617 6.577 C 11.434 6.656,11.207 6.871,11.109 7.056 C 10.988 7.285,10.988 7.715,11.109 7.944 C 11.209 8.134,11.437 8.346,11.626 8.425 C 11.795 8.496,12.205 8.496,12.374 8.425 C 12.563 8.346,12.791 8.134,12.891 7.944 C 12.956 7.821,12.978 7.710,12.978 7.500 C 12.978 7.290,12.956 7.179,12.891 7.056 C 12.791 6.866,12.563 6.654,12.374 6.575 C 12.208 6.505,11.778 6.506,11.617 6.577 M7.046 9.623 C 6.680 9.808,6.499 10.141,6.527 10.580 C 6.548 10.907,6.704 11.169,6.978 11.339 C 7.154 11.448,7.207 11.460,7.500 11.460 C 7.793 11.460,7.846 11.448,8.022 11.339 C 8.143 11.264,8.264 11.143,8.339 11.022 C 8.448 10.846,8.460 10.793,8.460 10.500 C 8.460 10.207,8.448 10.154,8.339 9.978 C 8.160 9.689,7.905 9.545,7.544 9.528 C 7.299 9.517,7.230 9.530,7.046 9.623 M16.046 9.623 C 15.680 9.808,15.499 10.141,15.527 10.580 C 15.548 10.907,15.704 11.169,15.978 11.339 C 16.154 11.448,16.207 11.460,16.500 11.460 C 16.793 11.460,16.846 11.448,17.022 11.339 C 17.143 11.264,17.264 11.143,17.339 11.022 C 17.448 10.846,17.460 10.793,17.460 10.500 C 17.460 10.207,17.448 10.154,17.339 9.978 C 17.160 9.689,16.905 9.545,16.544 9.528 C 16.299 9.517,16.230 9.530,16.046 9.623 " stroke="none" fill="black" fill-rule="evenodd"></path></svg>