<svg xmlns="http://www.w3.org/2000/svg" class="icon icon-tabler icon-tabler-paperclip" width="24" height="24" viewBox="0 0 24 24" stroke-width="1" stroke="currentColor" fill="none" stroke-linecap="round" stroke-linejoin="round"><path d="M14.580 2.280 C 13.702 2.359,12.845 2.688,12.151 3.215 C 11.991 3.336,10.247 5.052,8.276 7.027 C 4.562 10.750,4.467 10.853,4.028 11.620 C 3.692 12.207,3.402 12.988,3.263 13.684 C 3.112 14.436,3.112 15.564,3.263 16.316 C 3.749 18.738,5.490 20.724,7.807 21.499 C 10.059 22.251,12.534 21.797,14.360 20.298 C 14.503 20.180,16.163 18.540,18.050 16.652 L 21.480 13.219 21.480 13.005 C 21.480 12.816,21.465 12.777,21.344 12.656 C 21.223 12.535,21.184 12.520,20.995 12.520 L 20.782 12.520 17.301 15.995 C 15.135 18.157,13.707 19.553,13.520 19.689 C 12.597 20.362,11.575 20.748,10.479 20.837 C 7.446 21.082,4.754 18.994,4.218 15.980 C 4.133 15.500,4.133 14.500,4.218 14.020 C 4.403 12.982,4.852 12.020,5.530 11.210 C 5.942 10.718,12.606 4.100,12.860 3.931 C 14.403 2.903,16.361 3.078,17.641 4.359 C 18.354 5.071,18.731 5.985,18.731 7.000 C 18.731 7.786,18.523 8.458,18.069 9.140 C 17.969 9.292,16.627 10.663,14.425 12.865 C 10.617 16.673,10.790 16.519,10.242 16.594 C 9.717 16.666,9.226 16.504,8.861 16.139 C 8.496 15.774,8.334 15.283,8.406 14.758 C 8.481 14.212,8.336 14.375,12.065 10.639 L 15.480 7.218 15.480 7.005 C 15.480 6.816,15.465 6.777,15.344 6.656 C 15.223 6.535,15.184 6.520,14.994 6.520 L 14.780 6.520 11.314 9.990 L 7.848 13.460 7.667 13.840 C 7.459 14.277,7.394 14.554,7.394 15.000 C 7.394 15.447,7.459 15.724,7.667 16.156 C 7.922 16.687,8.313 17.078,8.844 17.333 C 9.280 17.543,9.557 17.607,10.013 17.606 C 10.557 17.604,10.977 17.478,11.440 17.178 C 11.827 16.926,18.635 10.093,18.909 9.680 C 19.468 8.840,19.729 7.986,19.729 7.000 C 19.729 5.694,19.257 4.564,18.324 3.639 C 17.925 3.243,17.574 2.988,17.099 2.750 C 16.359 2.379,15.423 2.204,14.580 2.280 " stroke="none" fill="black" fill-rule="evenodd"></path></svg>