<svg xmlns="http://www.w3.org/2000/svg" class="icon icon-tabler icon-tabler-parentheses" width="24" height="24" viewBox="0 0 24 24" stroke-width="1" stroke="currentColor" fill="none" stroke-linecap="round" stroke-linejoin="round"><path d="M6.602 3.710 C 6.502 3.814,6.262 4.109,6.070 4.365 C 4.711 6.176,3.891 8.260,3.594 10.660 C 3.530 11.176,3.530 12.824,3.594 13.340 C 3.906 15.858,4.763 17.963,6.253 19.873 C 6.681 20.421,6.754 20.480,7.007 20.480 C 7.182 20.480,7.225 20.463,7.344 20.344 C 7.462 20.226,7.480 20.182,7.480 20.010 C 7.480 19.822,7.463 19.791,7.133 19.376 C 5.574 17.414,4.722 15.207,4.551 12.690 C 4.433 10.933,4.772 9.006,5.498 7.320 C 5.878 6.439,6.480 5.446,7.133 4.624 C 7.463 4.209,7.480 4.178,7.480 3.990 C 7.480 3.818,7.462 3.774,7.344 3.656 C 7.224 3.536,7.184 3.520,6.997 3.520 C 6.797 3.520,6.775 3.530,6.602 3.710 M16.656 3.656 C 16.538 3.774,16.520 3.818,16.520 3.993 C 16.520 4.184,16.535 4.212,16.867 4.627 C 18.275 6.386,19.151 8.495,19.407 10.740 C 19.471 11.306,19.471 12.694,19.407 13.260 C 19.151 15.505,18.275 17.614,16.867 19.373 C 16.535 19.788,16.520 19.816,16.520 20.007 C 16.520 20.182,16.538 20.226,16.656 20.344 C 16.773 20.461,16.819 20.480,16.987 20.480 C 17.102 20.480,17.220 20.453,17.274 20.415 C 17.325 20.380,17.511 20.170,17.686 19.949 C 18.270 19.217,18.839 18.310,19.227 17.495 C 20.934 13.904,20.879 9.758,19.077 6.209 C 18.614 5.297,17.589 3.805,17.274 3.585 C 17.220 3.547,17.102 3.520,16.987 3.520 C 16.819 3.520,16.773 3.539,16.656 3.656 " stroke="none" fill="black" fill-rule="evenodd"></path></svg>