<svg xmlns="http://www.w3.org/2000/svg" class="icon icon-tabler icon-tabler-parking" width="24" height="24" viewBox="0 0 24 24" stroke-width="1" stroke="currentColor" fill="none" stroke-linecap="round" stroke-linejoin="round"><path d="M5.274 3.615 C 4.870 3.735,4.561 3.922,4.242 4.242 C 3.922 4.561,3.739 4.864,3.603 5.294 L 3.500 5.620 3.500 11.980 C 3.500 17.982,3.504 18.354,3.572 18.593 C 3.838 19.528,4.448 20.147,5.380 20.425 C 5.605 20.492,5.994 20.497,11.700 20.510 C 15.647 20.519,17.924 20.509,18.189 20.482 C 19.305 20.371,20.121 19.684,20.427 18.600 C 20.496 18.353,20.500 18.024,20.500 12.000 C 20.500 5.976,20.496 5.647,20.427 5.400 C 20.196 4.582,19.666 3.982,18.900 3.670 L 18.580 3.540 12.080 3.532 L 5.580 3.524 5.274 3.615 M18.641 4.649 C 18.924 4.787,19.213 5.076,19.351 5.359 L 19.460 5.580 19.460 12.000 L 19.460 18.420 19.372 18.610 C 19.253 18.867,18.913 19.218,18.664 19.339 C 18.548 19.397,18.323 19.457,18.140 19.481 C 17.924 19.510,15.850 19.520,11.780 19.512 C 6.157 19.500,5.726 19.495,5.535 19.430 C 5.129 19.291,4.750 18.925,4.597 18.522 C 4.522 18.325,4.520 18.139,4.520 12.000 C 4.520 5.861,4.522 5.675,4.597 5.478 C 4.743 5.093,5.084 4.749,5.468 4.599 C 5.653 4.526,5.878 4.524,12.040 4.532 L 18.420 4.540 18.641 4.649 M8.680 7.629 C 8.605 7.696,8.541 7.804,8.519 7.900 C 8.470 8.112,8.470 15.888,8.519 16.100 C 8.574 16.341,8.751 16.480,9.000 16.480 C 9.249 16.480,9.426 16.341,9.481 16.100 C 9.501 16.012,9.519 15.171,9.519 14.230 L 9.520 12.520 11.190 12.519 C 12.108 12.519,13.016 12.502,13.206 12.482 C 14.236 12.374,15.057 11.732,15.364 10.793 C 15.503 10.370,15.503 9.630,15.364 9.207 C 15.130 8.493,14.562 7.913,13.839 7.649 L 13.540 7.540 11.172 7.529 L 8.804 7.518 8.680 7.629 M13.641 8.649 C 13.924 8.787,14.213 9.076,14.351 9.359 C 14.449 9.557,14.460 9.624,14.460 10.000 C 14.460 10.377,14.449 10.443,14.350 10.644 C 14.220 10.909,13.874 11.252,13.626 11.362 C 13.326 11.494,12.952 11.518,11.210 11.519 L 9.520 11.520 9.520 10.019 L 9.520 8.518 11.470 8.529 L 13.420 8.540 13.641 8.649 " stroke="none" fill="black" fill-rule="evenodd"></path></svg>