<svg xmlns="http://www.w3.org/2000/svg" class="icon icon-tabler icon-tabler-pencil" width="24" height="24" viewBox="0 0 24 24" stroke-width="1" stroke="currentColor" fill="none" stroke-linecap="round" stroke-linejoin="round"><path d="M16.055 4.202 C 15.565 4.266,15.102 4.445,14.660 4.741 C 14.402 4.913,13.285 6.011,8.933 10.368 L 3.526 15.780 3.500 16.000 C 3.486 16.121,3.481 17.103,3.487 18.182 C 3.501 20.338,3.492 20.261,3.749 20.429 C 3.847 20.494,4.024 20.501,5.818 20.513 C 6.897 20.519,7.879 20.514,8.000 20.500 L 8.220 20.474 13.632 15.067 C 19.355 9.351,19.327 9.380,19.573 8.772 C 19.997 7.721,19.883 6.596,19.257 5.654 C 18.724 4.852,17.867 4.321,16.914 4.202 C 16.545 4.155,16.413 4.155,16.055 4.202 M17.075 5.246 C 18.178 5.511,18.970 6.674,18.804 7.786 C 18.709 8.428,18.534 8.742,17.923 9.372 L 17.504 9.804 15.852 8.152 L 14.201 6.501 14.570 6.128 C 15.148 5.545,15.553 5.307,16.148 5.199 C 16.369 5.159,16.807 5.181,17.075 5.246 M12.290 15.010 L 7.780 19.520 6.150 19.520 L 4.520 19.520 4.520 17.850 L 4.520 16.180 9.010 11.690 L 13.500 7.200 15.150 8.850 L 16.800 10.500 12.290 15.010 " stroke="none" fill="black" fill-rule="evenodd"></path></svg>