<svg xmlns="http://www.w3.org/2000/svg" class="icon icon-tabler icon-tabler-phone" width="24" height="24" viewBox="0 0 24 24" stroke-width="1" stroke="currentColor" fill="none" stroke-linecap="round" stroke-linejoin="round"><path d="M4.274 3.615 C 3.870 3.734,3.561 3.922,3.242 4.242 C 2.580 4.903,2.423 5.542,2.583 6.920 C 3.418 14.132,8.866 19.953,16.000 21.256 C 17.385 21.509,18.303 21.539,18.839 21.348 C 19.763 21.019,20.375 20.221,20.482 19.206 C 20.529 18.757,20.529 15.108,20.482 14.904 C 20.462 14.818,20.404 14.707,20.353 14.657 C 20.297 14.602,19.244 14.160,17.700 13.543 C 14.909 12.427,14.902 12.425,14.685 12.630 C 14.621 12.691,14.286 13.213,13.942 13.790 L 13.315 14.841 13.128 14.733 C 11.601 13.859,10.142 12.400,9.268 10.874 L 9.161 10.687 10.239 10.041 C 10.833 9.686,11.354 9.349,11.399 9.292 C 11.564 9.083,11.543 9.016,10.458 6.300 C 9.637 4.243,9.413 3.718,9.318 3.630 L 9.199 3.520 6.889 3.522 C 4.610 3.524,4.576 3.525,4.274 3.615 M9.521 6.643 C 10.237 8.431,10.362 8.775,10.315 8.818 C 10.285 8.846,9.786 9.152,9.207 9.499 C 8.108 10.156,8.000 10.244,8.000 10.496 C 8.000 10.638,8.372 11.357,8.728 11.902 C 9.771 13.503,11.293 14.900,12.933 15.761 C 13.186 15.895,13.439 16.000,13.504 16.000 C 13.756 16.000,13.844 15.892,14.501 14.793 C 14.848 14.214,15.154 13.715,15.182 13.685 C 15.225 13.638,15.569 13.763,17.358 14.479 L 19.483 15.329 19.471 17.375 L 19.460 19.420 19.350 19.644 C 19.217 19.915,18.872 20.252,18.610 20.369 C 18.363 20.479,17.927 20.504,17.350 20.442 C 11.745 19.837,6.913 16.273,4.723 11.130 C 4.024 9.487,3.520 7.341,3.520 6.002 C 3.520 5.496,3.709 5.109,4.106 4.805 C 4.477 4.519,4.433 4.524,6.666 4.522 L 8.672 4.520 9.521 6.643 " stroke="none" fill="black" fill-rule="evenodd"></path></svg>