<svg xmlns="http://www.w3.org/2000/svg" class="icon icon-tabler icon-tabler-phone-call" width="24" height="24" viewBox="0 0 24 24" stroke-width="1" stroke="currentColor" fill="none" stroke-linecap="round" stroke-linejoin="round"><path d="M14.662 2.650 C 14.537 2.775,14.520 2.816,14.520 2.995 C 14.520 3.361,14.752 3.517,15.300 3.519 C 16.489 3.525,17.937 4.170,18.884 5.116 C 19.828 6.061,20.475 7.513,20.481 8.700 C 20.483 9.248,20.639 9.480,21.005 9.480 C 21.183 9.480,21.225 9.463,21.344 9.344 L 21.480 9.208 21.480 8.788 C 21.480 7.921,21.226 6.928,20.776 6.042 C 19.740 3.999,17.628 2.622,15.392 2.532 L 14.803 2.509 14.662 2.650 M4.274 3.615 C 3.870 3.734,3.561 3.922,3.242 4.242 C 2.580 4.903,2.423 5.542,2.583 6.920 C 3.418 14.132,8.866 19.953,16.000 21.256 C 17.385 21.509,18.303 21.539,18.839 21.348 C 19.763 21.019,20.375 20.221,20.482 19.206 C 20.529 18.757,20.529 15.108,20.482 14.904 C 20.462 14.818,20.404 14.707,20.353 14.657 C 20.297 14.602,19.244 14.160,17.700 13.543 C 14.909 12.427,14.902 12.425,14.685 12.630 C 14.621 12.691,14.286 13.213,13.942 13.790 L 13.315 14.841 13.128 14.733 C 11.601 13.859,10.142 12.400,9.268 10.874 L 9.161 10.687 10.239 10.041 C 10.833 9.686,11.354 9.349,11.399 9.292 C 11.564 9.083,11.543 9.016,10.458 6.300 C 9.637 4.243,9.413 3.718,9.318 3.630 L 9.199 3.520 6.889 3.522 C 4.610 3.524,4.576 3.525,4.274 3.615 M9.521 6.643 C 10.237 8.431,10.362 8.775,10.315 8.818 C 10.285 8.846,9.786 9.152,9.207 9.499 C 8.108 10.156,8.000 10.244,8.000 10.496 C 8.000 10.638,8.372 11.357,8.728 11.902 C 9.771 13.503,11.293 14.900,12.933 15.761 C 13.186 15.895,13.439 16.000,13.504 16.000 C 13.756 16.000,13.844 15.892,14.501 14.793 C 14.848 14.214,15.154 13.715,15.182 13.685 C 15.225 13.638,15.569 13.763,17.358 14.479 L 19.483 15.329 19.471 17.375 L 19.460 19.420 19.350 19.644 C 19.217 19.915,18.872 20.252,18.610 20.369 C 18.363 20.479,17.927 20.504,17.350 20.442 C 11.745 19.837,6.913 16.273,4.723 11.130 C 4.024 9.487,3.520 7.341,3.520 6.002 C 3.520 5.496,3.709 5.109,4.106 4.805 C 4.477 4.519,4.433 4.524,6.666 4.522 L 8.672 4.520 9.521 6.643 M14.661 6.651 C 14.536 6.776,14.520 6.815,14.520 7.000 C 14.520 7.182,14.537 7.225,14.652 7.340 C 14.762 7.450,14.824 7.476,15.022 7.497 C 15.566 7.554,15.929 7.748,16.214 8.133 C 16.372 8.347,16.458 8.599,16.501 8.978 C 16.523 9.175,16.551 9.239,16.660 9.348 C 16.775 9.463,16.818 9.480,17.000 9.480 C 17.185 9.480,17.224 9.464,17.349 9.339 L 17.489 9.199 17.472 8.829 C 17.411 7.581,16.419 6.589,15.171 6.528 L 14.801 6.511 14.661 6.651 " stroke="none" fill="black" fill-rule="evenodd"></path></svg>