<svg xmlns="http://www.w3.org/2000/svg" class="icon icon-tabler icon-tabler-photo" width="24" height="24" viewBox="0 0 24 24" stroke-width="1" stroke="currentColor" fill="none" stroke-linecap="round" stroke-linejoin="round"><path d="M6.259 3.578 C 5.612 3.720,4.929 4.108,4.471 4.594 C 3.910 5.189,3.594 5.897,3.521 6.725 C 3.467 7.336,3.467 16.666,3.521 17.276 C 3.599 18.158,3.915 18.835,4.540 19.460 C 5.165 20.085,5.842 20.401,6.724 20.479 C 7.336 20.533,16.664 20.533,17.276 20.479 C 19.018 20.325,20.325 19.018,20.479 17.275 C 20.533 16.666,20.533 7.334,20.479 6.725 C 20.408 5.920,20.097 5.205,19.571 4.637 C 19.147 4.179,18.696 3.888,18.079 3.672 L 17.700 3.540 12.100 3.533 C 7.589 3.527,6.453 3.536,6.259 3.578 M17.829 4.633 C 18.112 4.740,18.476 4.964,18.717 5.182 C 18.937 5.381,19.248 5.853,19.365 6.166 L 19.460 6.420 19.471 10.098 L 19.482 13.776 18.751 13.058 C 17.965 12.286,17.717 12.106,17.220 11.949 C 16.797 11.815,16.129 11.824,15.727 11.969 C 15.269 12.134,15.022 12.303,14.491 12.817 L 13.997 13.294 12.509 11.816 C 10.914 10.233,10.785 10.128,10.220 9.949 C 9.797 9.815,9.129 9.824,8.727 9.969 C 8.162 10.172,8.073 10.247,6.250 12.058 L 4.520 13.777 4.520 10.197 C 4.520 7.096,4.528 6.585,4.582 6.378 C 4.764 5.676,5.250 5.079,5.900 4.759 C 6.405 4.511,6.062 4.524,12.080 4.532 L 17.580 4.540 17.829 4.633 M14.656 7.656 C 14.536 7.776,14.520 7.817,14.520 8.000 C 14.520 8.183,14.536 8.224,14.656 8.344 C 14.775 8.463,14.818 8.480,14.993 8.480 C 15.233 8.480,15.408 8.357,15.480 8.139 C 15.540 7.957,15.477 7.758,15.314 7.621 C 15.220 7.542,15.150 7.520,14.993 7.520 C 14.818 7.520,14.775 7.537,14.656 7.656 M10.147 10.999 C 10.399 11.121,10.626 11.336,13.102 13.805 L 15.783 16.480 15.996 16.480 C 16.184 16.480,16.223 16.465,16.344 16.344 C 16.464 16.224,16.480 16.184,16.480 15.996 L 16.480 15.784 15.590 14.889 L 14.700 13.994 15.149 13.560 C 15.746 12.983,15.983 12.860,16.500 12.860 C 16.830 12.860,16.886 12.872,17.141 12.996 C 17.386 13.116,17.545 13.257,18.453 14.156 L 19.485 15.180 19.470 16.380 C 19.457 17.510,19.451 17.595,19.365 17.829 C 19.179 18.334,18.833 18.772,18.378 19.076 C 18.023 19.313,17.682 19.432,17.213 19.481 C 17.016 19.502,14.715 19.519,12.000 19.519 C 9.285 19.519,6.984 19.502,6.787 19.481 C 6.318 19.432,5.977 19.313,5.622 19.076 C 5.167 18.772,4.821 18.334,4.635 17.829 C 4.549 17.594,4.543 17.511,4.530 16.380 L 4.516 15.180 6.528 13.175 C 7.782 11.927,8.612 11.129,8.731 11.061 C 9.032 10.888,9.228 10.839,9.567 10.854 C 9.817 10.864,9.926 10.891,10.147 10.999 " stroke="none" fill="black" fill-rule="evenodd"></path></svg>