<svg xmlns="http://www.w3.org/2000/svg" class="icon icon-tabler icon-tabler-pill" width="24" height="24" viewBox="0 0 24 24" stroke-width="1" stroke="currentColor" fill="none" stroke-linecap="round" stroke-linejoin="round"><path d="M15.360 2.583 C 15.305 2.593,15.152 2.620,15.020 2.643 C 14.649 2.707,14.014 2.912,13.653 3.084 C 12.823 3.479,12.944 3.368,8.156 8.156 C 4.250 12.061,3.702 12.624,3.486 12.951 C 3.078 13.572,2.812 14.201,2.653 14.929 C 2.551 15.397,2.551 16.603,2.653 17.071 C 2.894 18.172,3.377 19.061,4.158 19.842 C 4.953 20.637,5.842 21.111,7.020 21.367 C 7.397 21.449,8.660 21.436,9.071 21.347 C 9.799 21.188,10.428 20.922,11.049 20.514 C 11.376 20.298,11.939 19.750,15.844 15.844 C 19.750 11.939,20.298 11.376,20.514 11.049 C 20.922 10.428,21.188 9.799,21.347 9.071 C 21.449 8.603,21.449 7.397,21.347 6.929 C 21.106 5.828,20.624 4.939,19.842 4.157 C 19.069 3.383,18.189 2.903,17.100 2.659 C 16.830 2.598,15.582 2.544,15.360 2.583 M16.773 3.620 C 17.213 3.697,17.808 3.910,18.186 4.126 C 20.591 5.502,21.181 8.701,19.424 10.833 C 19.303 10.980,18.371 11.932,17.352 12.950 L 15.500 14.800 12.349 11.649 L 9.198 8.498 11.189 6.516 C 13.281 4.433,13.489 4.252,14.124 3.964 C 14.433 3.825,14.979 3.655,15.280 3.606 C 15.632 3.548,16.400 3.555,16.773 3.620 M12.950 17.352 C 11.932 18.371,10.980 19.303,10.833 19.424 C 9.604 20.437,7.957 20.712,6.430 20.159 C 5.790 19.927,5.078 19.429,4.631 18.901 C 3.960 18.108,3.618 17.239,3.572 16.216 C 3.537 15.430,3.653 14.814,3.965 14.124 C 4.251 13.490,4.433 13.281,6.516 11.189 L 8.498 9.198 11.649 12.349 L 14.800 15.500 12.950 17.352 " stroke="none" fill="black" fill-rule="evenodd"></path></svg>