<svg xmlns="http://www.w3.org/2000/svg" class="icon icon-tabler icon-tabler-plane-arrival" width="24" height="24" viewBox="0 0 24 24" stroke-width="1" stroke="currentColor" fill="none" stroke-linecap="round" stroke-linejoin="round"><path d="M10.058 2.764 C 9.991 2.783,9.892 2.845,9.838 2.902 L 9.740 3.006 9.740 4.153 C 9.740 4.784,9.756 6.323,9.774 7.574 L 9.809 9.848 9.676 9.819 C 9.602 9.803,9.140 9.680,8.647 9.545 L 7.752 9.300 7.094 8.160 C 6.732 7.533,6.396 6.979,6.346 6.929 C 6.276 6.858,5.915 6.746,4.698 6.419 C 3.654 6.138,3.103 6.008,3.029 6.023 C 2.868 6.057,2.688 6.225,2.645 6.380 C 2.614 6.492,2.725 7.090,3.285 9.828 C 3.657 11.649,3.980 13.198,4.004 13.269 C 4.027 13.340,4.094 13.433,4.153 13.475 C 4.212 13.516,4.701 13.668,5.240 13.812 C 5.779 13.956,8.884 14.788,12.140 15.661 C 19.792 17.712,19.034 17.519,19.448 17.520 C 19.908 17.520,20.151 17.466,20.560 17.271 C 21.009 17.057,21.476 16.602,21.691 16.170 C 22.318 14.907,21.797 13.376,20.538 12.781 C 20.417 12.724,19.255 12.391,17.956 12.042 C 16.657 11.694,15.587 11.400,15.576 11.390 C 15.566 11.379,15.108 9.663,14.559 7.576 C 13.653 4.136,13.549 3.771,13.448 3.669 C 13.350 3.571,13.149 3.507,11.858 3.163 C 10.114 2.698,10.212 2.720,10.058 2.764 M12.077 4.255 L 12.695 4.420 13.721 8.318 L 14.747 12.217 17.323 12.907 C 18.740 13.287,19.977 13.627,20.071 13.662 C 20.331 13.761,20.657 14.083,20.809 14.392 C 20.929 14.636,20.940 14.690,20.940 15.039 C 20.940 15.368,20.925 15.451,20.834 15.647 C 20.685 15.965,20.439 16.216,20.126 16.370 C 19.884 16.489,19.830 16.500,19.481 16.500 C 19.114 16.500,19.011 16.476,16.680 15.847 C 15.349 15.487,12.883 14.824,11.200 14.373 C 5.580 12.867,4.914 12.688,4.899 12.672 C 4.862 12.635,3.788 7.278,3.813 7.254 C 3.840 7.226,5.519 7.657,5.644 7.722 C 5.679 7.741,6.010 8.280,6.379 8.921 C 6.748 9.561,7.090 10.111,7.139 10.143 C 7.268 10.228,10.164 11.000,10.352 11.000 C 10.538 11.000,10.706 10.884,10.780 10.703 C 10.821 10.604,10.820 9.999,10.777 7.580 C 10.748 5.930,10.723 4.424,10.722 4.234 L 10.720 3.888 11.090 3.989 C 11.293 4.045,11.738 4.165,12.077 4.255 M2.656 20.656 C 2.537 20.775,2.520 20.817,2.520 20.995 C 2.520 21.250,2.657 21.425,2.900 21.481 C 3.114 21.531,20.886 21.531,21.100 21.481 C 21.343 21.425,21.480 21.250,21.480 20.995 C 21.480 20.817,21.463 20.775,21.344 20.656 L 21.208 20.520 12.000 20.520 L 2.792 20.520 2.656 20.656 " stroke="none" fill="black" fill-rule="evenodd"></path></svg>