<svg xmlns="http://www.w3.org/2000/svg" class="icon icon-tabler icon-tabler-plane-departure" width="24" height="24" viewBox="0 0 24 24" stroke-width="1" stroke="currentColor" fill="none" stroke-linecap="round" stroke-linejoin="round"><path d="M7.340 4.446 C 6.526 4.666,5.818 4.873,5.767 4.906 C 5.663 4.973,5.560 5.186,5.560 5.333 C 5.560 5.387,6.305 6.672,7.294 8.324 C 8.248 9.917,9.024 11.226,9.017 11.234 C 9.011 11.241,8.551 11.370,7.995 11.520 L 6.983 11.793 5.821 11.123 C 5.183 10.754,4.615 10.441,4.560 10.427 C 4.498 10.412,4.223 10.464,3.840 10.565 C 2.549 10.904,1.456 11.203,1.345 11.248 C 1.092 11.349,0.996 11.752,1.170 11.985 C 1.340 12.211,5.592 16.986,5.719 17.093 C 5.803 17.164,5.893 17.200,5.983 17.200 C 6.059 17.200,9.419 16.317,13.450 15.239 C 19.629 13.585,20.832 13.252,21.111 13.116 C 21.699 12.830,22.149 12.295,22.385 11.600 C 22.476 11.331,22.490 10.513,22.407 10.260 C 22.190 9.597,21.849 9.132,21.332 8.795 C 20.968 8.558,20.579 8.437,20.100 8.413 C 19.644 8.389,19.861 8.340,16.563 9.223 L 14.787 9.699 12.023 6.913 C 10.503 5.380,9.221 4.107,9.173 4.083 C 9.125 4.059,9.026 4.041,8.953 4.043 C 8.880 4.045,8.154 4.226,7.340 4.446 M11.637 7.940 C 13.186 9.502,14.473 10.785,14.498 10.791 C 14.522 10.797,15.685 10.495,17.081 10.118 C 18.565 9.718,19.729 9.425,19.883 9.412 C 20.781 9.338,21.536 10.092,21.471 11.000 C 21.435 11.503,21.113 12.001,20.682 12.219 C 20.582 12.270,20.095 12.420,19.600 12.552 C 19.105 12.685,15.904 13.543,12.486 14.459 C 9.069 15.375,6.243 16.119,6.208 16.112 C 6.148 16.100,2.474 11.995,2.499 11.968 C 2.516 11.950,4.292 11.474,4.360 11.469 C 4.393 11.467,4.937 11.764,5.568 12.129 C 6.200 12.494,6.767 12.804,6.828 12.817 C 6.978 12.848,10.013 12.036,10.129 11.933 C 10.250 11.825,10.329 11.611,10.298 11.472 C 10.284 11.407,9.499 10.065,8.555 8.491 C 7.610 6.917,6.842 5.625,6.849 5.620 C 6.869 5.603,8.779 5.089,8.801 5.095 C 8.812 5.098,10.089 6.378,11.637 7.940 M2.656 20.656 C 2.537 20.775,2.520 20.817,2.520 20.995 C 2.520 21.250,2.657 21.425,2.900 21.481 C 3.114 21.531,20.886 21.531,21.100 21.481 C 21.343 21.425,21.480 21.250,21.480 20.995 C 21.480 20.817,21.463 20.775,21.344 20.656 L 21.208 20.520 12.000 20.520 L 2.792 20.520 2.656 20.656 " stroke="none" fill="black" fill-rule="evenodd"></path></svg>