<svg xmlns="http://www.w3.org/2000/svg" class="icon icon-tabler icon-tabler-planet" width="24" height="24" viewBox="0 0 24 24" stroke-width="1" stroke="currentColor" fill="none" stroke-linecap="round" stroke-linejoin="round"><path d="M10.865 5.601 C 9.991 5.759,8.964 6.185,8.292 6.667 L 7.988 6.885 7.524 6.723 C 6.201 6.261,4.981 5.999,4.161 6.001 C 3.136 6.003,2.520 6.462,2.520 7.224 C 2.520 7.730,2.711 8.177,3.224 8.868 C 3.491 9.229,4.755 10.500,5.222 10.877 L 5.540 11.134 5.526 11.859 C 5.515 12.453,5.528 12.672,5.595 13.068 C 6.059 15.804,8.195 17.939,10.934 18.406 C 11.349 18.477,11.531 18.486,12.180 18.468 C 12.988 18.447,13.399 18.382,14.025 18.178 C 14.483 18.028,15.331 17.604,15.695 17.343 L 16.010 17.117 16.535 17.296 C 19.272 18.234,20.902 18.225,21.377 17.270 C 21.461 17.103,21.480 17.007,21.479 16.762 C 21.478 16.266,21.283 15.815,20.772 15.127 C 20.505 14.767,19.238 13.493,18.779 13.123 L 18.460 12.866 18.474 12.141 C 18.485 11.547,18.472 11.328,18.405 10.932 C 18.056 8.875,16.754 7.117,14.900 6.200 C 14.284 5.895,14.028 5.801,13.400 5.652 C 13.039 5.566,12.863 5.550,12.140 5.537 C 11.431 5.524,11.232 5.534,10.865 5.601 M12.910 6.580 C 14.277 6.802,15.588 7.609,16.427 8.745 C 16.904 9.390,17.293 10.307,17.418 11.080 C 17.497 11.569,17.497 12.414,17.418 12.910 C 17.257 13.916,16.736 14.974,16.016 15.755 L 15.818 15.969 15.366 15.784 C 12.787 14.728,9.395 12.802,7.164 11.128 C 6.910 10.936,6.687 10.769,6.669 10.756 C 6.618 10.720,6.870 9.979,7.068 9.580 C 7.619 8.475,8.456 7.633,9.545 7.084 C 9.965 6.874,10.617 6.656,11.044 6.584 C 11.501 6.508,12.450 6.506,12.910 6.580 M4.860 7.060 C 5.491 7.154,5.794 7.228,6.768 7.524 L 7.157 7.642 6.824 8.081 C 6.474 8.545,6.104 9.210,5.926 9.696 C 5.868 9.857,5.805 9.992,5.787 9.998 C 5.734 10.013,4.983 9.337,4.592 8.922 C 3.932 8.220,3.520 7.590,3.520 7.282 C 3.520 7.153,3.537 7.123,3.630 7.087 C 3.892 6.986,4.300 6.977,4.860 7.060 M7.369 12.505 C 9.497 13.998,12.214 15.522,14.492 16.499 C 14.786 16.625,14.871 16.677,14.832 16.709 C 14.700 16.815,14.022 17.122,13.670 17.235 C 13.132 17.407,12.636 17.480,12.000 17.480 C 11.348 17.480,10.836 17.402,10.294 17.221 C 8.895 16.753,7.784 15.808,7.126 14.529 C 6.745 13.787,6.521 12.933,6.520 12.225 C 6.520 11.920,6.522 11.912,6.599 11.965 C 6.643 11.995,6.989 12.238,7.369 12.505 M19.181 14.860 C 20.003 15.681,20.480 16.364,20.480 16.718 C 20.480 16.938,20.355 16.981,19.720 16.977 C 19.047 16.972,18.405 16.844,17.294 16.492 L 16.848 16.351 17.178 15.916 C 17.600 15.359,17.930 14.730,18.182 14.006 C 18.208 13.931,18.505 14.184,19.181 14.860 " stroke="none" fill="black" fill-rule="evenodd"></path></svg>