<svg xmlns="http://www.w3.org/2000/svg" class="icon icon-tabler icon-tabler-plane" width="24" height="24" viewBox="0 0 24 24" stroke-width="1" stroke="currentColor" fill="none" stroke-linecap="round" stroke-linejoin="round"><path d="M8.656 2.656 C 8.543 2.769,8.520 2.821,8.520 2.966 C 8.520 3.073,8.867 4.353,9.420 6.290 C 9.915 8.022,10.320 9.457,10.320 9.480 C 10.320 9.506,9.787 9.520,8.771 9.520 L 7.222 9.520 6.219 8.520 L 5.216 7.520 3.504 7.520 L 1.792 7.520 1.656 7.656 C 1.396 7.916,1.394 7.908,2.480 10.080 L 3.440 12.000 2.480 13.920 C 1.654 15.571,1.520 15.865,1.520 16.019 C 1.520 16.248,1.668 16.428,1.900 16.481 C 2.107 16.529,4.891 16.529,5.097 16.482 C 5.230 16.451,5.402 16.298,6.217 15.483 L 7.181 14.520 8.750 14.520 C 9.614 14.520,10.320 14.529,10.320 14.540 C 10.320 14.552,9.915 15.978,9.420 17.710 C 8.867 19.647,8.520 20.927,8.520 21.034 C 8.520 21.178,8.543 21.231,8.652 21.340 C 8.832 21.520,8.931 21.528,10.687 21.513 C 12.096 21.501,12.159 21.497,12.267 21.417 C 12.343 21.362,13.020 20.216,14.324 17.937 L 16.269 14.540 18.324 14.517 C 20.089 14.496,20.414 14.483,20.617 14.425 C 21.760 14.098,22.480 13.160,22.480 12.000 C 22.480 10.948,21.885 10.071,20.900 9.670 L 20.580 9.540 18.449 9.528 L 16.319 9.517 16.223 9.368 C 16.170 9.287,15.296 7.762,14.281 5.980 C 13.265 4.198,12.381 2.691,12.317 2.630 L 12.199 2.520 10.495 2.520 L 8.792 2.520 8.656 2.656 M13.720 7.020 L 15.709 10.500 18.064 10.520 L 20.420 10.540 20.641 10.649 C 20.924 10.787,21.213 11.076,21.351 11.359 C 21.449 11.557,21.460 11.624,21.460 12.000 C 21.460 12.506,21.392 12.686,21.077 13.020 C 20.825 13.286,20.553 13.425,20.180 13.478 C 20.023 13.501,18.998 13.519,17.851 13.519 L 15.801 13.520 15.683 13.630 C 15.619 13.691,14.735 15.198,13.719 16.980 C 12.704 18.762,11.829 20.288,11.776 20.370 L 11.679 20.520 10.679 20.520 C 10.033 20.520,9.680 20.506,9.680 20.480 C 9.680 20.457,10.085 19.022,10.580 17.290 C 11.133 15.353,11.480 14.073,11.480 13.966 C 11.480 13.821,11.457 13.769,11.344 13.656 L 11.208 13.520 8.996 13.520 L 6.784 13.520 5.781 14.520 L 4.778 15.520 3.809 15.520 C 3.187 15.520,2.840 15.506,2.840 15.480 C 2.840 15.458,3.209 14.702,3.660 13.800 C 4.318 12.485,4.480 12.129,4.480 12.000 C 4.480 11.871,4.318 11.515,3.660 10.200 C 3.209 9.298,2.840 8.551,2.840 8.540 C 2.840 8.529,3.285 8.520,3.830 8.520 L 4.819 8.520 5.783 9.483 C 6.598 10.298,6.770 10.451,6.903 10.482 C 7.109 10.529,10.893 10.529,11.100 10.481 C 11.328 10.429,11.480 10.247,11.480 10.029 C 11.480 9.928,11.117 8.588,10.580 6.710 C 10.085 4.978,9.680 3.551,9.680 3.540 C 9.680 3.528,10.142 3.523,10.706 3.529 L 11.731 3.540 13.720 7.020 " stroke="none" fill="black" fill-rule="evenodd"></path></svg>