<svg xmlns="http://www.w3.org/2000/svg" class="icon icon-tabler icon-tabler-plug" width="24" height="24" viewBox="0 0 24 24" stroke-width="1" stroke="currentColor" fill="none" stroke-linecap="round" stroke-linejoin="round"><path d="M8.679 2.630 C 8.605 2.696,8.541 2.804,8.519 2.900 C 8.499 2.988,8.481 3.838,8.481 4.790 L 8.480 6.520 7.641 6.520 L 6.801 6.520 6.679 6.630 C 6.605 6.696,6.541 6.804,6.519 6.900 C 6.468 7.119,6.470 12.702,6.521 13.276 C 6.599 14.158,6.915 14.835,7.540 15.460 C 7.963 15.883,8.373 16.141,8.904 16.318 C 9.337 16.462,9.882 16.519,10.824 16.520 L 11.469 16.520 11.492 17.450 C 11.509 18.123,11.533 18.445,11.580 18.614 C 11.831 19.521,12.470 20.163,13.380 20.422 C 13.582 20.479,13.872 20.493,15.193 20.509 C 17.051 20.532,17.165 20.523,17.348 20.340 C 17.463 20.225,17.480 20.182,17.480 20.000 C 17.480 19.817,17.464 19.776,17.344 19.656 L 17.208 19.520 15.654 19.519 C 13.984 19.518,13.652 19.493,13.339 19.341 C 13.075 19.212,12.784 18.918,12.649 18.641 C 12.541 18.422,12.540 18.411,12.528 17.470 L 12.516 16.520 13.168 16.520 C 14.121 16.519,14.662 16.462,15.095 16.317 C 16.444 15.865,17.352 14.705,17.479 13.275 C 17.530 12.702,17.532 7.118,17.481 6.900 C 17.459 6.804,17.395 6.696,17.321 6.630 L 17.199 6.520 16.359 6.520 L 15.520 6.520 15.519 4.790 C 15.519 3.838,15.501 2.988,15.481 2.900 C 15.426 2.659,15.249 2.520,15.000 2.520 C 14.751 2.520,14.574 2.659,14.519 2.900 C 14.499 2.988,14.481 3.838,14.481 4.790 L 14.480 6.520 12.000 6.520 L 9.520 6.520 9.519 4.790 C 9.519 3.838,9.501 2.988,9.481 2.900 C 9.426 2.659,9.249 2.520,9.000 2.520 C 8.840 2.520,8.778 2.541,8.679 2.630 M16.480 10.452 C 16.480 13.661,16.484 13.604,16.240 14.100 C 15.919 14.754,15.339 15.225,14.600 15.428 C 14.364 15.493,14.126 15.500,12.000 15.500 C 9.888 15.500,9.635 15.493,9.400 15.429 C 8.493 15.183,7.811 14.505,7.582 13.622 C 7.529 13.417,7.520 12.968,7.520 10.452 L 7.520 7.520 12.000 7.520 L 16.480 7.520 16.480 10.452 " stroke="none" fill="black" fill-rule="evenodd"></path></svg>