<svg xmlns="http://www.w3.org/2000/svg" class="icon icon-tabler icon-tabler-plus" width="24" height="24" viewBox="0 0 24 24" stroke-width="1" stroke="currentColor" fill="none" stroke-linecap="round" stroke-linejoin="round"><path d="M11.679 4.630 C 11.605 4.696,11.541 4.804,11.519 4.900 C 11.498 4.991,11.481 6.462,11.481 8.290 L 11.480 11.520 8.136 11.520 L 4.792 11.520 4.656 11.656 C 4.537 11.775,4.520 11.817,4.520 11.995 C 4.520 12.250,4.657 12.425,4.900 12.481 C 4.990 12.502,6.454 12.519,8.270 12.519 L 11.480 12.520 11.481 15.730 C 11.481 17.546,11.498 19.010,11.519 19.100 C 11.574 19.341,11.751 19.480,12.000 19.480 C 12.249 19.480,12.426 19.341,12.481 19.100 C 12.502 19.010,12.519 17.546,12.519 15.730 L 12.520 12.520 15.730 12.519 C 17.546 12.519,19.010 12.502,19.100 12.481 C 19.343 12.425,19.480 12.250,19.480 11.995 C 19.480 11.817,19.463 11.775,19.344 11.656 L 19.208 11.520 15.864 11.520 L 12.520 11.520 12.519 8.290 C 12.519 6.462,12.502 4.991,12.481 4.900 C 12.426 4.659,12.249 4.520,12.000 4.520 C 11.840 4.520,11.778 4.541,11.679 4.630 " stroke="none" fill="black" fill-rule="evenodd"></path></svg>