<svg xmlns="http://www.w3.org/2000/svg" class="icon icon-tabler icon-tabler-point" width="24" height="24" viewBox="0 0 24 24" stroke-width="1" stroke="currentColor" fill="none" stroke-linecap="round" stroke-linejoin="round"><path d="M11.145 7.582 C 9.296 7.950,7.854 9.439,7.559 11.287 C 7.488 11.732,7.528 12.694,7.633 13.087 C 8.073 14.731,9.248 15.907,10.913 16.370 C 11.178 16.444,11.325 16.456,12.000 16.456 C 12.675 16.456,12.822 16.444,13.088 16.370 C 14.755 15.906,15.906 14.755,16.370 13.087 C 16.444 12.822,16.456 12.675,16.456 12.000 C 16.456 11.156,16.421 10.951,16.177 10.333 C 15.618 8.921,14.336 7.866,12.830 7.580 C 12.435 7.506,11.526 7.506,11.145 7.582 M13.080 8.675 C 13.629 8.861,14.035 9.115,14.460 9.540 C 14.883 9.963,15.137 10.366,15.328 10.920 C 15.457 11.293,15.459 11.313,15.459 12.000 C 15.459 12.687,15.457 12.707,15.328 13.080 C 15.137 13.634,14.883 14.037,14.460 14.460 C 14.037 14.883,13.634 15.137,13.080 15.328 C 12.707 15.457,12.687 15.459,12.000 15.459 C 11.313 15.459,11.293 15.457,10.920 15.328 C 10.366 15.137,9.963 14.883,9.540 14.460 C 9.114 14.034,8.860 13.628,8.676 13.080 C 8.565 12.752,8.545 12.629,8.529 12.175 C 8.518 11.864,8.529 11.542,8.557 11.383 C 8.758 10.223,9.642 9.154,10.740 8.738 C 11.225 8.554,11.450 8.521,12.100 8.534 C 12.652 8.546,12.730 8.557,13.080 8.675 " stroke="none" fill="black" fill-rule="evenodd"></path></svg>