<svg xmlns="http://www.w3.org/2000/svg" class="icon icon-tabler icon-tabler-power" width="24" height="24" viewBox="0 0 24 24" stroke-width="1" stroke="currentColor" fill="none" stroke-linecap="round" stroke-linejoin="round"><path d="M11.679 3.630 C 11.605 3.696,11.541 3.804,11.519 3.900 C 11.470 4.112,11.470 11.888,11.519 12.100 C 11.574 12.341,11.751 12.480,12.000 12.480 C 12.249 12.480,12.426 12.341,12.481 12.100 C 12.530 11.888,12.530 4.112,12.481 3.900 C 12.426 3.659,12.249 3.520,12.000 3.520 C 11.840 3.520,11.778 3.541,11.679 3.630 M6.572 5.714 C 6.053 6.146,5.397 6.921,4.972 7.602 C 4.447 8.445,4.054 9.495,3.859 10.580 C 3.759 11.134,3.737 12.352,3.816 12.950 C 4.263 16.332,6.670 19.063,9.947 19.902 C 12.400 20.531,14.976 20.011,17.009 18.475 C 17.191 18.338,17.558 18.008,17.824 17.743 C 19.062 16.507,19.823 15.036,20.141 13.260 C 20.244 12.685,20.264 11.563,20.182 10.920 C 19.942 9.034,19.068 7.275,17.735 5.997 C 17.273 5.554,17.219 5.520,16.993 5.520 C 16.818 5.520,16.775 5.537,16.656 5.656 C 16.535 5.777,16.520 5.816,16.520 6.005 L 16.520 6.217 16.936 6.619 C 17.439 7.104,17.728 7.447,18.066 7.963 C 18.562 8.720,18.906 9.563,19.109 10.520 C 19.205 10.970,19.216 11.106,19.218 11.880 C 19.220 12.788,19.193 13.031,19.011 13.740 C 18.364 16.261,16.395 18.245,13.871 18.919 C 12.201 19.364,10.444 19.201,8.880 18.455 C 6.719 17.424,5.265 15.478,4.833 13.040 C 4.762 12.640,4.762 11.200,4.833 10.800 C 5.022 9.731,5.390 8.788,5.951 7.936 C 6.275 7.444,6.569 7.096,7.064 6.619 L 7.480 6.217 7.480 6.005 C 7.480 5.816,7.465 5.777,7.344 5.656 C 7.225 5.537,7.182 5.520,7.006 5.520 C 6.823 5.520,6.782 5.538,6.572 5.714 " stroke="none" fill="black" fill-rule="evenodd"></path></svg>