<svg xmlns="http://www.w3.org/2000/svg" class="icon icon-tabler icon-tabler-presentation" width="24" height="24" viewBox="0 0 24 24" stroke-width="1" stroke="currentColor" fill="none" stroke-linecap="round" stroke-linejoin="round"><path d="M3.327 3.520 L 2.753 3.540 2.637 3.671 C 2.541 3.778,2.520 3.837,2.520 4.000 C 2.520 4.353,2.756 4.517,3.268 4.519 L 3.477 4.520 3.490 9.450 C 3.503 14.041,3.509 14.397,3.575 14.620 C 3.849 15.542,4.460 16.151,5.386 16.425 C 5.596 16.487,5.917 16.495,8.550 16.510 L 11.480 16.525 11.480 18.023 L 11.480 19.520 10.136 19.520 L 8.792 19.520 8.656 19.656 C 8.537 19.775,8.520 19.817,8.520 19.995 C 8.520 20.250,8.657 20.425,8.900 20.481 C 9.110 20.530,14.890 20.530,15.100 20.481 C 15.343 20.425,15.480 20.250,15.480 19.995 C 15.480 19.817,15.463 19.775,15.344 19.656 L 15.208 19.520 13.864 19.520 L 12.520 19.520 12.520 18.020 L 12.520 16.520 15.190 16.519 C 16.659 16.519,18.027 16.501,18.231 16.480 C 19.299 16.367,20.109 15.680,20.425 14.620 C 20.491 14.397,20.497 14.041,20.510 9.450 L 20.523 4.520 20.732 4.519 C 21.247 4.517,21.480 4.353,21.480 3.995 C 21.480 3.817,21.463 3.775,21.344 3.656 L 21.208 3.520 20.674 3.520 C 20.380 3.519,16.486 3.515,12.020 3.510 C 7.554 3.504,3.642 3.509,3.327 3.520 M19.471 9.470 L 19.460 14.420 19.350 14.644 C 19.219 14.910,18.873 15.252,18.623 15.363 C 18.526 15.406,18.306 15.459,18.133 15.482 C 17.927 15.509,15.755 15.519,11.780 15.511 C 6.164 15.500,5.726 15.494,5.535 15.429 C 5.129 15.292,4.750 14.925,4.597 14.522 C 4.523 14.326,4.520 14.158,4.520 9.420 L 4.520 4.520 12.001 4.520 L 19.481 4.520 19.471 9.470 M14.392 8.909 L 13.000 10.298 12.108 9.409 L 11.216 8.520 10.999 8.520 L 10.781 8.520 9.151 10.151 L 7.520 11.781 7.520 11.995 C 7.520 12.184,7.535 12.223,7.656 12.344 C 7.777 12.465,7.816 12.480,8.005 12.480 L 8.217 12.480 9.608 11.091 L 11.000 9.702 11.892 10.591 L 12.784 11.480 13.001 11.480 L 13.219 11.480 14.849 9.849 L 16.480 8.219 16.480 8.005 C 16.480 7.816,16.465 7.777,16.344 7.656 C 16.223 7.535,16.184 7.520,15.995 7.520 L 15.783 7.520 14.392 8.909 " stroke="none" fill="black" fill-rule="evenodd"></path></svg>