<svg xmlns="http://www.w3.org/2000/svg" class="icon icon-tabler icon-tabler-printer" width="24" height="24" viewBox="0 0 24 24" stroke-width="1" stroke="currentColor" fill="none" stroke-linecap="round" stroke-linejoin="round"><path d="M8.274 2.614 C 7.870 2.735,7.561 2.922,7.242 3.242 C 6.920 3.563,6.737 3.867,6.606 4.294 C 6.506 4.619,6.506 4.626,6.489 6.570 L 6.473 8.520 5.541 8.520 C 4.684 8.520,4.583 8.528,4.288 8.613 C 3.872 8.733,3.566 8.917,3.242 9.242 C 2.922 9.562,2.738 9.865,2.604 10.294 L 2.502 10.620 2.501 12.980 C 2.500 15.148,2.506 15.361,2.573 15.600 C 2.835 16.529,3.471 17.167,4.386 17.420 C 4.555 17.467,4.876 17.491,5.544 17.508 L 6.469 17.531 6.492 18.456 C 6.509 19.124,6.533 19.445,6.580 19.614 C 6.831 20.521,7.461 21.154,8.380 21.424 C 8.598 21.488,8.906 21.496,11.695 21.510 C 13.654 21.519,14.920 21.510,15.184 21.483 C 16.298 21.371,17.129 20.678,17.419 19.620 C 17.467 19.445,17.491 19.129,17.508 18.456 L 17.531 17.531 18.456 17.508 C 19.455 17.483,19.660 17.449,20.100 17.238 C 20.750 16.926,21.212 16.355,21.428 15.593 C 21.494 15.363,21.500 15.132,21.500 13.000 C 21.500 10.853,21.494 10.639,21.427 10.400 C 21.196 9.582,20.665 8.980,19.900 8.671 L 19.580 8.541 18.554 8.528 L 17.527 8.514 17.509 6.567 C 17.494 4.878,17.482 4.588,17.422 4.380 C 17.191 3.577,16.658 2.978,15.900 2.670 L 15.580 2.540 12.080 2.532 L 8.580 2.523 8.274 2.614 M15.641 3.649 C 15.924 3.787,16.213 4.076,16.351 4.359 L 16.460 4.580 16.471 6.550 L 16.483 8.520 12.001 8.520 L 7.520 8.520 7.520 6.600 C 7.520 4.803,7.525 4.668,7.597 4.478 C 7.743 4.093,8.083 3.749,8.468 3.598 C 8.651 3.526,8.812 3.523,12.040 3.532 L 15.420 3.540 15.641 3.649 M19.641 9.649 C 19.924 9.787,20.213 10.076,20.351 10.359 L 20.460 10.580 20.460 13.000 C 20.460 15.407,20.460 15.421,20.372 15.610 C 20.253 15.868,19.913 16.218,19.664 16.339 C 19.388 16.474,19.028 16.518,18.216 16.519 L 17.531 16.520 17.508 15.570 C 17.483 14.543,17.451 14.344,17.238 13.900 C 16.978 13.358,16.491 12.911,15.900 12.670 L 15.580 12.540 12.107 12.529 C 8.678 12.518,8.629 12.519,8.320 12.602 C 7.910 12.713,7.563 12.918,7.241 13.242 C 6.918 13.566,6.735 13.871,6.609 14.294 C 6.522 14.586,6.510 14.719,6.490 15.575 L 6.469 16.529 5.604 16.510 C 4.631 16.487,4.454 16.452,4.135 16.216 C 3.891 16.035,3.697 15.784,3.597 15.522 C 3.524 15.330,3.520 15.192,3.520 13.000 C 3.520 10.808,3.524 10.670,3.597 10.478 C 3.743 10.093,4.084 9.749,4.468 9.599 C 4.654 9.526,4.900 9.524,12.040 9.532 L 19.420 9.540 19.641 9.649 M15.641 13.649 C 15.924 13.787,16.213 14.076,16.351 14.359 L 16.460 14.580 16.460 17.000 C 16.460 19.407,16.460 19.421,16.372 19.610 C 16.253 19.868,15.913 20.218,15.664 20.339 C 15.552 20.394,15.334 20.456,15.180 20.478 C 15.014 20.502,13.719 20.518,12.000 20.518 C 10.281 20.518,8.986 20.502,8.820 20.478 C 8.666 20.456,8.449 20.394,8.339 20.341 C 8.075 20.212,7.784 19.918,7.649 19.641 L 7.540 19.420 7.529 17.053 C 7.519 14.789,7.522 14.677,7.596 14.481 C 7.743 14.093,8.083 13.750,8.468 13.598 C 8.651 13.526,8.812 13.523,12.040 13.532 L 15.420 13.540 15.641 13.649 " stroke="none" fill="black" fill-rule="evenodd"></path></svg>