<svg xmlns="http://www.w3.org/2000/svg" class="icon icon-tabler icon-tabler-prompt" width="24" height="24" viewBox="0 0 24 24" stroke-width="1" stroke="currentColor" fill="none" stroke-linecap="round" stroke-linejoin="round"><path d="M4.656 6.656 C 4.535 6.777,4.520 6.816,4.520 7.005 L 4.520 7.218 6.910 9.609 L 9.299 12.000 6.910 14.391 L 4.520 16.782 4.520 16.995 C 4.520 17.184,4.535 17.223,4.656 17.344 C 4.777 17.465,4.816 17.480,5.006 17.480 L 5.219 17.480 7.850 14.850 L 10.480 12.219 10.480 12.000 L 10.480 11.781 7.850 9.150 L 5.219 6.520 5.006 6.520 C 4.816 6.520,4.777 6.535,4.656 6.656 M12.656 16.656 C 12.537 16.775,12.520 16.817,12.520 16.995 C 12.520 17.250,12.657 17.425,12.900 17.481 C 13.110 17.530,18.890 17.530,19.100 17.481 C 19.343 17.425,19.480 17.250,19.480 16.995 C 19.480 16.817,19.463 16.775,19.344 16.656 L 19.208 16.520 16.000 16.520 L 12.792 16.520 12.656 16.656 " stroke="none" fill="black" fill-rule="evenodd"></path></svg>