<svg xmlns="http://www.w3.org/2000/svg" class="icon icon-tabler icon-tabler-puzzle" width="24" height="24" viewBox="0 0 24 24" stroke-width="1" stroke="currentColor" fill="none" stroke-linecap="round" stroke-linejoin="round"><path d="M9.274 2.613 C 8.868 2.736,8.560 2.924,8.242 3.242 C 7.917 3.566,7.734 3.871,7.610 4.294 C 7.529 4.571,7.511 4.738,7.491 5.416 C 7.468 6.202,7.466 6.214,7.364 6.328 C 7.304 6.395,7.192 6.460,7.100 6.481 C 7.012 6.501,6.207 6.519,5.310 6.519 C 3.800 6.520,3.666 6.526,3.478 6.597 C 3.063 6.755,2.698 7.140,2.569 7.556 C 2.508 7.754,2.500 7.980,2.500 9.500 C 2.500 11.020,2.508 11.246,2.569 11.444 C 2.703 11.876,3.113 12.292,3.535 12.424 C 3.680 12.469,3.987 12.495,4.580 12.514 C 5.387 12.539,5.429 12.544,5.641 12.649 C 5.924 12.787,6.213 13.076,6.351 13.359 C 6.449 13.557,6.460 13.624,6.460 14.000 C 6.460 14.347,6.445 14.453,6.373 14.609 C 6.267 14.838,5.961 15.173,5.741 15.300 C 5.472 15.456,5.255 15.491,4.400 15.516 C 3.613 15.539,3.571 15.544,3.359 15.649 C 3.083 15.784,2.788 16.075,2.659 16.339 C 2.499 16.667,2.472 17.048,2.490 18.726 C 2.503 20.023,2.516 20.292,2.573 20.465 C 2.713 20.892,3.126 21.297,3.556 21.431 C 3.754 21.492,3.980 21.500,5.500 21.500 C 7.020 21.500,7.246 21.492,7.444 21.431 C 7.876 21.297,8.292 20.887,8.424 20.465 C 8.469 20.320,8.495 20.013,8.514 19.420 C 8.539 18.613,8.544 18.571,8.649 18.359 C 8.787 18.076,9.076 17.787,9.359 17.649 C 9.557 17.551,9.624 17.540,10.000 17.540 C 10.376 17.540,10.443 17.551,10.641 17.649 C 10.924 17.788,11.213 18.076,11.351 18.358 C 11.454 18.570,11.460 18.615,11.486 19.420 C 11.505 20.008,11.532 20.322,11.577 20.465 C 11.707 20.886,12.123 21.297,12.556 21.431 C 12.754 21.492,12.980 21.500,14.500 21.500 C 16.020 21.500,16.246 21.492,16.444 21.431 C 16.874 21.297,17.287 20.892,17.427 20.465 C 17.484 20.291,17.498 19.998,17.517 18.507 L 17.540 16.753 17.664 16.643 L 17.787 16.532 18.584 16.508 C 19.122 16.491,19.458 16.462,19.620 16.418 C 20.527 16.173,21.185 15.507,21.422 14.593 C 21.522 14.209,21.488 13.552,21.348 13.161 C 21.097 12.455,20.544 11.904,19.835 11.650 C 19.563 11.552,19.474 11.542,18.700 11.521 C 17.815 11.496,17.751 11.483,17.603 11.295 C 17.522 11.192,17.520 11.147,17.519 9.645 C 17.518 7.984,17.493 7.651,17.341 7.339 C 17.212 7.075,16.918 6.784,16.641 6.649 L 16.420 6.540 14.638 6.520 C 13.024 6.502,12.846 6.493,12.749 6.429 C 12.545 6.296,12.531 6.234,12.506 5.400 C 12.481 4.557,12.438 4.316,12.238 3.900 C 11.977 3.356,11.486 2.906,10.900 2.673 C 10.612 2.559,10.530 2.545,10.080 2.533 C 9.647 2.521,9.539 2.532,9.274 2.613 M10.641 3.649 C 10.924 3.788,11.213 4.076,11.351 4.358 C 11.454 4.570,11.460 4.615,11.486 5.420 C 11.505 6.008,11.532 6.322,11.577 6.465 C 11.704 6.876,12.116 7.290,12.535 7.427 C 12.709 7.484,13.002 7.498,14.489 7.517 L 16.238 7.540 16.349 7.651 L 16.460 7.762 16.483 9.511 C 16.502 10.998,16.516 11.291,16.573 11.465 C 16.710 11.884,17.124 12.296,17.535 12.424 C 17.680 12.469,17.987 12.495,18.580 12.514 C 19.387 12.539,19.429 12.544,19.641 12.649 C 19.924 12.787,20.213 13.076,20.351 13.359 C 20.449 13.557,20.460 13.624,20.460 14.000 C 20.460 14.347,20.445 14.453,20.373 14.609 C 20.267 14.838,19.961 15.173,19.741 15.300 C 19.473 15.455,19.256 15.490,18.400 15.516 C 17.615 15.540,17.571 15.545,17.359 15.649 C 16.902 15.873,16.583 16.319,16.518 16.828 C 16.498 16.977,16.482 17.797,16.481 18.649 L 16.480 20.199 16.370 20.321 C 16.304 20.395,16.196 20.459,16.100 20.481 C 15.892 20.529,13.108 20.529,12.900 20.481 C 12.804 20.459,12.696 20.395,12.630 20.321 C 12.522 20.201,12.520 20.190,12.519 19.669 C 12.519 19.378,12.502 18.984,12.482 18.794 C 12.375 17.778,11.764 16.982,10.835 16.650 C 10.604 16.568,10.445 16.541,10.098 16.528 C 9.331 16.500,8.764 16.718,8.241 17.242 C 7.917 17.567,7.734 17.872,7.610 18.294 C 7.529 18.571,7.511 18.738,7.491 19.416 C 7.468 20.202,7.466 20.214,7.364 20.328 C 7.304 20.395,7.192 20.460,7.100 20.481 C 6.892 20.529,4.108 20.529,3.900 20.481 C 3.804 20.459,3.696 20.395,3.630 20.321 L 3.520 20.199 3.520 18.495 L 3.520 16.792 3.650 16.662 L 3.780 16.532 4.580 16.508 C 5.118 16.491,5.457 16.462,5.614 16.419 C 6.528 16.170,7.187 15.507,7.421 14.600 C 7.521 14.210,7.489 13.554,7.350 13.165 C 7.097 12.457,6.546 11.904,5.839 11.651 C 5.562 11.552,5.477 11.542,4.700 11.521 C 3.815 11.496,3.751 11.483,3.603 11.295 C 3.522 11.192,3.520 11.150,3.520 9.495 L 3.520 7.801 3.637 7.671 L 3.753 7.540 5.507 7.517 C 6.998 7.498,7.291 7.484,7.465 7.427 C 7.884 7.290,8.296 6.876,8.424 6.465 C 8.469 6.320,8.495 6.013,8.514 5.420 C 8.539 4.612,8.544 4.572,8.649 4.360 C 8.822 4.012,9.115 3.738,9.468 3.597 C 9.766 3.478,10.345 3.503,10.641 3.649 " stroke="none" fill="black" fill-rule="evenodd"></path></svg>