<svg xmlns="http://www.w3.org/2000/svg" class="icon icon-tabler icon-tabler-qrcode" width="24" height="24" viewBox="0 0 24 24" stroke-width="1" stroke="currentColor" fill="none" stroke-linecap="round" stroke-linejoin="round"><path d="M4.468 3.599 C 4.060 3.758,3.697 4.145,3.569 4.556 C 3.507 4.757,3.500 5.006,3.500 7.000 C 3.500 8.994,3.507 9.243,3.569 9.444 C 3.706 9.885,4.115 10.294,4.556 10.431 C 4.757 10.493,5.006 10.500,7.000 10.500 C 8.994 10.500,9.243 10.493,9.444 10.431 C 9.885 10.294,10.294 9.885,10.431 9.444 C 10.493 9.243,10.500 8.994,10.500 7.000 C 10.500 5.006,10.493 4.757,10.431 4.556 C 10.300 4.133,9.918 3.736,9.507 3.594 C 9.317 3.529,9.104 3.523,6.980 3.523 C 4.807 3.524,4.648 3.528,4.468 3.599 M14.468 3.599 C 14.060 3.758,13.697 4.145,13.569 4.556 C 13.507 4.757,13.500 5.006,13.500 7.000 C 13.500 8.994,13.507 9.243,13.569 9.444 C 13.706 9.885,14.115 10.294,14.556 10.431 C 14.757 10.493,15.006 10.500,17.000 10.500 C 18.994 10.500,19.243 10.493,19.444 10.431 C 19.885 10.294,20.294 9.885,20.431 9.444 C 20.493 9.243,20.500 8.994,20.500 7.000 C 20.500 5.006,20.493 4.757,20.431 4.556 C 20.300 4.133,19.918 3.736,19.507 3.594 C 19.317 3.529,19.104 3.523,16.980 3.523 C 14.807 3.524,14.648 3.528,14.468 3.599 M9.344 4.656 L 9.480 4.792 9.480 6.995 L 9.480 9.199 9.370 9.321 C 9.304 9.395,9.196 9.459,9.100 9.481 C 9.012 9.501,8.067 9.518,7.000 9.518 C 5.933 9.518,4.988 9.501,4.900 9.481 C 4.804 9.459,4.696 9.395,4.630 9.321 L 4.520 9.199 4.520 6.995 L 4.520 4.792 4.656 4.656 L 4.792 4.520 7.000 4.520 L 9.208 4.520 9.344 4.656 M19.344 4.656 L 19.480 4.792 19.480 6.995 L 19.480 9.199 19.370 9.321 C 19.304 9.395,19.196 9.459,19.100 9.481 C 19.012 9.501,18.067 9.518,17.000 9.518 C 15.933 9.518,14.988 9.501,14.900 9.481 C 14.804 9.459,14.696 9.395,14.630 9.321 L 14.520 9.199 14.520 6.995 L 14.520 4.792 14.656 4.656 L 14.792 4.520 17.000 4.520 L 19.208 4.520 19.344 4.656 M6.656 6.656 C 6.537 6.775,6.520 6.818,6.520 6.993 C 6.520 7.477,7.069 7.682,7.379 7.314 C 7.458 7.220,7.480 7.150,7.480 6.993 C 7.480 6.818,7.463 6.775,7.344 6.656 C 7.224 6.536,7.183 6.520,7.000 6.520 C 6.817 6.520,6.776 6.536,6.656 6.656 M16.656 6.656 C 16.537 6.775,16.520 6.818,16.520 6.993 C 16.520 7.477,17.069 7.682,17.379 7.314 C 17.458 7.220,17.480 7.150,17.480 6.993 C 17.480 6.818,17.463 6.775,17.344 6.656 C 17.224 6.536,17.183 6.520,17.000 6.520 C 16.817 6.520,16.776 6.536,16.656 6.656 M13.803 13.548 C 13.727 13.588,13.628 13.671,13.583 13.733 C 13.503 13.841,13.500 13.902,13.488 15.313 C 13.473 17.074,13.481 17.169,13.660 17.348 C 13.775 17.463,13.819 17.480,13.995 17.480 C 14.250 17.480,14.425 17.343,14.481 17.100 C 14.501 17.012,14.519 16.395,14.519 15.730 L 14.520 14.520 15.730 14.519 C 16.395 14.519,17.012 14.501,17.100 14.481 C 17.343 14.425,17.480 14.250,17.480 13.995 C 17.480 13.817,17.463 13.775,17.344 13.656 L 17.208 13.520 15.714 13.520 C 14.892 13.519,14.157 13.509,14.080 13.498 C 13.987 13.483,13.894 13.500,13.803 13.548 M4.468 13.599 C 4.060 13.758,3.697 14.145,3.569 14.556 C 3.507 14.757,3.500 15.006,3.500 17.000 C 3.500 18.994,3.507 19.243,3.569 19.444 C 3.706 19.885,4.115 20.294,4.556 20.431 C 4.757 20.493,5.006 20.500,7.000 20.500 C 8.994 20.500,9.243 20.493,9.444 20.431 C 9.885 20.294,10.294 19.885,10.431 19.444 C 10.493 19.243,10.500 18.994,10.500 17.000 C 10.500 15.006,10.493 14.757,10.431 14.556 C 10.300 14.133,9.918 13.736,9.507 13.594 C 9.317 13.529,9.104 13.523,6.980 13.523 C 4.807 13.524,4.648 13.528,4.468 13.599 M19.656 13.656 C 19.537 13.775,19.520 13.818,19.520 13.993 C 19.520 14.233,19.643 14.408,19.861 14.480 C 20.043 14.540,20.242 14.477,20.379 14.314 C 20.458 14.220,20.480 14.150,20.480 13.993 C 20.480 13.818,20.463 13.775,20.344 13.656 C 20.224 13.536,20.183 13.520,20.000 13.520 C 19.817 13.520,19.776 13.536,19.656 13.656 M9.344 14.656 L 9.480 14.792 9.480 16.995 L 9.480 19.199 9.370 19.321 C 9.304 19.395,9.196 19.459,9.100 19.481 C 9.012 19.501,8.067 19.518,7.000 19.518 C 5.933 19.518,4.988 19.501,4.900 19.481 C 4.804 19.459,4.696 19.395,4.630 19.321 L 4.520 19.199 4.520 16.995 L 4.520 14.792 4.656 14.656 L 4.792 14.520 7.000 14.520 L 9.208 14.520 9.344 14.656 M18.327 16.517 L 16.753 16.540 16.637 16.671 C 16.541 16.778,16.520 16.837,16.520 17.000 C 16.520 17.249,16.659 17.426,16.900 17.481 C 16.988 17.501,17.605 17.519,18.270 17.519 L 19.480 17.520 19.481 18.730 C 19.481 19.395,19.499 20.012,19.519 20.100 C 19.574 20.341,19.751 20.480,20.000 20.480 C 20.249 20.480,20.426 20.341,20.481 20.100 C 20.501 20.012,20.518 19.265,20.519 18.440 C 20.520 16.800,20.515 16.765,20.279 16.592 C 20.143 16.492,20.125 16.492,18.327 16.517 M6.656 16.656 C 6.537 16.775,6.520 16.818,6.520 16.993 C 6.520 17.233,6.643 17.408,6.861 17.480 C 7.043 17.540,7.242 17.477,7.379 17.314 C 7.458 17.220,7.480 17.150,7.480 16.993 C 7.480 16.818,7.463 16.775,7.344 16.656 C 7.224 16.536,7.183 16.520,7.000 16.520 C 6.817 16.520,6.776 16.536,6.656 16.656 M13.656 19.656 C 13.537 19.775,13.520 19.817,13.520 19.995 C 13.520 20.250,13.657 20.425,13.900 20.481 C 13.988 20.501,14.708 20.518,15.500 20.518 C 16.292 20.518,17.012 20.501,17.100 20.481 C 17.343 20.425,17.480 20.250,17.480 19.995 C 17.480 19.817,17.463 19.775,17.344 19.656 L 17.208 19.520 15.500 19.520 L 13.792 19.520 13.656 19.656 " stroke="none" fill="black" fill-rule="evenodd"></path></svg>