<svg xmlns="http://www.w3.org/2000/svg" class="icon icon-tabler icon-tabler-record-mail" width="24" height="24" viewBox="0 0 24 24" stroke-width="1" stroke="currentColor" fill="none" stroke-linecap="round" stroke-linejoin="round"><path d="M6.259 8.576 C 5.065 8.848,4.079 9.739,3.676 10.910 C 3.543 11.294,3.541 11.310,3.541 12.000 C 3.541 12.687,3.543 12.707,3.672 13.080 C 3.863 13.634,4.117 14.037,4.540 14.460 C 5.137 15.057,5.819 15.386,6.648 15.477 C 7.183 15.536,16.817 15.536,17.352 15.477 C 18.735 15.325,19.868 14.416,20.324 13.090 C 20.457 12.705,20.459 12.690,20.459 12.000 C 20.459 11.310,20.457 11.295,20.324 10.910 C 20.035 10.070,19.449 9.365,18.679 8.929 C 18.558 8.861,18.288 8.745,18.079 8.673 C 17.706 8.543,17.688 8.541,17.000 8.541 C 16.313 8.541,16.293 8.543,15.920 8.672 C 15.366 8.863,14.963 9.117,14.540 9.540 C 14.117 9.963,13.863 10.366,13.672 10.920 C 13.543 11.293,13.541 11.313,13.541 12.000 C 13.541 12.690,13.543 12.706,13.676 13.090 C 13.820 13.508,14.091 13.986,14.356 14.286 C 14.446 14.389,14.520 14.483,14.520 14.496 C 14.520 14.509,13.386 14.520,12.000 14.520 C 10.614 14.520,9.480 14.509,9.480 14.496 C 9.480 14.483,9.554 14.389,9.644 14.286 C 9.909 13.986,10.180 13.508,10.324 13.090 C 10.457 12.705,10.459 12.690,10.459 12.000 C 10.459 11.310,10.457 11.295,10.324 10.910 C 10.035 10.070,9.449 9.365,8.679 8.929 C 8.558 8.861,8.288 8.747,8.079 8.676 C 7.730 8.557,7.653 8.546,7.100 8.534 C 6.694 8.526,6.422 8.539,6.259 8.576 M7.834 9.640 C 8.142 9.749,8.615 10.059,8.818 10.283 C 9.048 10.538,9.266 10.898,9.368 11.192 C 9.446 11.421,9.460 11.540,9.460 12.000 C 9.460 12.460,9.446 12.579,9.368 12.808 C 9.190 13.320,8.844 13.765,8.378 14.076 C 7.916 14.385,7.647 14.460,7.000 14.460 C 6.540 14.460,6.421 14.446,6.192 14.368 C 5.898 14.266,5.538 14.048,5.283 13.818 C 5.058 13.615,4.749 13.141,4.640 12.834 C 4.516 12.481,4.484 11.763,4.577 11.399 C 4.803 10.515,5.484 9.821,6.360 9.581 C 6.694 9.489,7.500 9.522,7.834 9.640 M17.834 9.640 C 18.142 9.749,18.615 10.059,18.818 10.283 C 19.048 10.538,19.266 10.898,19.368 11.192 C 19.446 11.421,19.460 11.540,19.460 12.000 C 19.460 12.460,19.446 12.579,19.368 12.808 C 19.190 13.320,18.844 13.765,18.378 14.076 C 17.916 14.385,17.647 14.460,17.000 14.460 C 16.540 14.460,16.421 14.446,16.192 14.368 C 15.898 14.266,15.538 14.048,15.283 13.818 C 15.058 13.615,14.749 13.141,14.640 12.834 C 14.516 12.481,14.484 11.763,14.577 11.399 C 14.803 10.515,15.484 9.821,16.360 9.581 C 16.694 9.489,17.500 9.522,17.834 9.640 " stroke="none" fill="black" fill-rule="evenodd"></path></svg>