<svg xmlns="http://www.w3.org/2000/svg" class="icon icon-tabler icon-tabler-recycle" width="24" height="24" viewBox="0 0 24 24" stroke-width="1" stroke="currentColor" fill="none" stroke-linecap="round" stroke-linejoin="round"><path d="M11.507 2.585 C 11.153 2.661,10.851 2.796,10.538 3.020 C 10.216 3.250,10.083 3.415,9.684 4.080 C 9.417 4.525,9.360 4.649,9.360 4.787 C 9.360 5.196,9.870 5.424,10.168 5.147 C 10.222 5.097,10.398 4.837,10.558 4.569 C 10.723 4.293,10.927 4.010,11.028 3.917 C 11.621 3.370,12.544 3.406,13.092 3.997 C 13.255 4.173,17.150 10.863,17.112 10.901 C 17.103 10.911,16.759 10.829,16.349 10.719 C 15.540 10.503,15.373 10.484,15.197 10.588 C 14.867 10.783,14.900 11.269,15.254 11.434 C 15.540 11.567,18.183 12.253,18.298 12.224 C 18.354 12.210,18.456 12.149,18.524 12.088 C 18.639 11.985,18.676 11.871,19.046 10.499 C 19.487 8.857,19.490 8.836,19.236 8.623 C 19.092 8.501,18.794 8.481,18.649 8.582 C 18.513 8.677,18.465 8.800,18.262 9.560 C 18.024 10.456,18.037 10.414,18.000 10.374 C 17.982 10.355,17.101 8.837,16.041 7.000 C 14.981 5.163,14.038 3.562,13.947 3.443 C 13.629 3.028,13.082 2.702,12.510 2.583 C 12.139 2.507,11.870 2.507,11.507 2.585 M6.270 8.158 C 4.741 8.573,4.687 8.596,4.598 8.866 C 4.502 9.156,4.740 9.480,5.049 9.480 C 5.139 9.480,5.553 9.389,5.970 9.277 C 6.387 9.166,6.733 9.080,6.738 9.087 C 6.744 9.094,5.861 10.636,4.777 12.514 C 3.692 14.392,2.766 16.039,2.718 16.174 C 2.596 16.519,2.567 17.203,2.658 17.560 C 2.886 18.445,3.590 19.165,4.439 19.383 C 4.616 19.428,4.900 19.449,5.427 19.453 L 6.165 19.460 6.303 19.311 C 6.413 19.191,6.440 19.128,6.440 18.997 C 6.440 18.906,6.411 18.783,6.375 18.722 C 6.255 18.519,6.157 18.493,5.403 18.466 C 4.741 18.442,4.693 18.435,4.454 18.323 C 4.150 18.181,3.884 17.918,3.734 17.612 C 3.584 17.305,3.555 16.797,3.669 16.497 C 3.796 16.166,7.611 9.589,7.643 9.648 C 7.658 9.677,7.754 10.015,7.857 10.400 C 7.959 10.785,8.063 11.152,8.088 11.215 C 8.182 11.453,8.559 11.556,8.803 11.412 C 8.921 11.342,9.040 11.144,9.040 11.017 C 9.040 10.904,8.287 8.129,8.222 8.004 C 8.158 7.879,7.940 7.758,7.794 7.764 C 7.742 7.767,7.056 7.944,6.270 8.158 M19.956 14.820 C 19.804 14.902,19.720 15.054,19.720 15.245 C 19.720 15.379,19.782 15.525,20.024 15.967 C 20.255 16.389,20.338 16.582,20.372 16.780 C 20.506 17.567,19.955 18.328,19.143 18.477 C 18.875 18.526,11.240 18.540,11.240 18.492 C 11.240 18.476,11.519 18.182,11.860 17.839 L 12.480 17.214 12.480 17.003 C 12.480 16.816,12.464 16.776,12.344 16.656 C 12.223 16.535,12.184 16.520,11.995 16.520 L 11.782 16.520 10.651 17.651 L 9.520 18.782 9.520 19.000 L 9.520 19.218 10.651 20.349 L 11.782 21.480 11.995 21.480 C 12.184 21.480,12.223 21.465,12.344 21.344 C 12.464 21.224,12.480 21.184,12.480 20.997 L 12.480 20.786 11.853 20.154 L 11.226 19.523 15.263 19.510 C 19.001 19.497,19.318 19.491,19.540 19.425 C 20.109 19.255,20.669 18.846,20.985 18.369 C 21.068 18.245,21.190 17.990,21.256 17.802 C 21.364 17.496,21.377 17.412,21.375 17.000 C 21.373 16.420,21.316 16.238,20.896 15.478 C 20.557 14.865,20.455 14.759,20.200 14.762 C 20.123 14.763,20.013 14.789,19.956 14.820 " stroke="none" fill="black" fill-rule="evenodd"></path></svg>