<svg xmlns="http://www.w3.org/2000/svg" class="icon icon-tabler icon-tabler-refresh" width="24" height="24" viewBox="0 0 24 24" stroke-width="1" stroke="currentColor" fill="none" stroke-linecap="round" stroke-linejoin="round"><path d="M3.660 3.652 C 3.554 3.758,3.522 3.828,3.501 4.002 C 3.487 4.122,3.481 5.328,3.488 6.682 C 3.499 8.954,3.505 9.152,3.571 9.251 C 3.741 9.512,3.607 9.499,6.318 9.512 C 7.672 9.519,8.878 9.513,8.998 9.499 C 9.172 9.478,9.242 9.446,9.348 9.340 C 9.463 9.225,9.480 9.182,9.480 9.000 C 9.480 8.817,9.464 8.776,9.344 8.656 L 9.208 8.520 7.264 8.520 C 5.734 8.520,5.320 8.509,5.322 8.470 C 5.325 8.402,5.607 7.956,5.900 7.553 C 6.032 7.371,6.338 7.023,6.580 6.779 C 7.226 6.129,7.866 5.668,8.658 5.283 C 11.951 3.684,15.926 4.665,18.094 7.611 C 18.772 8.533,19.192 9.495,19.434 10.686 C 19.540 11.206,19.561 11.266,19.676 11.368 C 19.778 11.460,19.838 11.480,20.005 11.480 C 20.184 11.480,20.225 11.463,20.350 11.338 L 20.492 11.196 20.468 10.868 C 20.455 10.688,20.380 10.289,20.301 9.982 C 19.450 6.665,16.728 4.185,13.320 3.620 C 12.787 3.531,11.678 3.499,11.140 3.557 C 8.523 3.838,6.265 5.197,4.819 7.362 L 4.520 7.809 4.519 5.935 C 4.519 4.904,4.501 3.988,4.481 3.900 C 4.425 3.657,4.250 3.520,3.995 3.520 C 3.819 3.520,3.775 3.537,3.660 3.652 M3.650 12.662 L 3.508 12.804 3.532 13.132 C 3.562 13.559,3.795 14.458,4.025 15.039 C 5.150 17.878,7.652 19.878,10.716 20.388 C 11.315 20.487,12.734 20.488,13.324 20.388 C 15.777 19.975,17.829 18.662,19.181 16.638 L 19.480 16.191 19.481 18.065 C 19.481 19.096,19.499 20.012,19.519 20.100 C 19.574 20.341,19.751 20.480,20.000 20.480 C 20.249 20.480,20.426 20.341,20.481 20.100 C 20.529 19.891,20.529 15.109,20.481 14.900 C 20.459 14.804,20.395 14.696,20.321 14.630 L 20.199 14.520 17.495 14.520 L 14.792 14.520 14.656 14.656 C 14.537 14.775,14.520 14.817,14.520 14.995 C 14.520 15.250,14.657 15.425,14.900 15.481 C 14.988 15.501,15.875 15.519,16.870 15.519 C 17.866 15.520,18.680 15.529,18.680 15.541 C 18.680 15.552,18.590 15.706,18.481 15.883 C 17.877 16.856,17.133 17.614,16.160 18.249 C 14.375 19.414,12.196 19.768,10.100 19.235 C 8.737 18.888,7.259 17.987,6.363 16.955 C 5.403 15.850,4.857 14.744,4.566 13.314 C 4.460 12.794,4.439 12.734,4.324 12.632 C 4.222 12.540,4.162 12.520,3.995 12.520 C 3.816 12.520,3.775 12.537,3.650 12.662 " stroke="none" fill="black" fill-rule="evenodd"></path></svg>