<svg xmlns="http://www.w3.org/2000/svg" class="icon icon-tabler icon-tabler-registered" width="24" height="24" viewBox="0 0 24 24" stroke-width="1" stroke="currentColor" fill="none" stroke-linecap="round" stroke-linejoin="round"><path d="M10.900 2.564 C 9.092 2.784,7.444 3.481,6.020 4.628 C 4.323 5.995,3.091 8.034,2.679 10.160 C 2.468 11.247,2.468 12.755,2.679 13.840 C 3.019 15.591,3.905 17.278,5.170 18.585 C 6.746 20.212,8.748 21.195,10.991 21.441 C 11.569 21.505,12.996 21.471,13.520 21.382 C 16.578 20.862,19.166 18.939,20.519 16.180 C 21.189 14.815,21.480 13.549,21.480 12.000 C 21.480 10.487,21.202 9.243,20.562 7.900 C 19.798 6.294,18.506 4.858,16.968 3.907 C 15.800 3.185,14.424 2.710,13.072 2.562 C 12.621 2.513,11.309 2.514,10.900 2.564 M13.160 3.581 C 14.081 3.712,14.852 3.948,15.700 4.360 C 16.622 4.807,17.277 5.273,18.002 5.998 C 19.251 7.248,20.028 8.728,20.365 10.500 C 20.470 11.053,20.512 12.362,20.444 12.946 C 20.245 14.630,19.576 16.182,18.485 17.486 C 17.115 19.122,15.119 20.188,12.946 20.444 C 12.362 20.512,11.053 20.470,10.500 20.365 C 7.839 19.860,5.635 18.221,4.428 15.851 C 4.054 15.115,3.799 14.359,3.635 13.500 C 3.515 12.874,3.486 11.525,3.577 10.868 C 4.105 7.087,7.016 4.152,10.800 3.585 C 11.320 3.507,12.623 3.505,13.160 3.581 M8.680 7.629 C 8.605 7.696,8.541 7.804,8.519 7.900 C 8.470 8.112,8.470 15.888,8.519 16.100 C 8.574 16.341,8.751 16.480,9.000 16.480 C 9.249 16.480,9.426 16.341,9.481 16.100 C 9.501 16.012,9.519 15.171,9.519 14.230 L 9.520 12.520 10.640 12.520 L 11.759 12.520 13.197 14.436 C 13.987 15.489,14.676 16.380,14.726 16.416 C 14.780 16.453,14.898 16.480,15.013 16.480 C 15.181 16.480,15.227 16.461,15.344 16.344 C 15.463 16.225,15.480 16.183,15.480 16.005 L 15.480 15.802 14.277 14.197 C 13.616 13.315,13.066 12.570,13.055 12.542 C 13.041 12.506,13.107 12.486,13.288 12.471 C 13.808 12.429,14.471 12.101,14.821 11.713 C 15.058 11.452,15.261 11.106,15.364 10.793 C 15.503 10.370,15.503 9.630,15.364 9.207 C 15.130 8.493,14.562 7.913,13.839 7.649 L 13.540 7.540 11.172 7.529 L 8.804 7.518 8.680 7.629 M13.641 8.649 C 13.924 8.787,14.213 9.076,14.351 9.359 C 14.449 9.557,14.460 9.624,14.460 10.000 C 14.460 10.377,14.449 10.443,14.350 10.644 C 14.220 10.909,13.874 11.252,13.626 11.362 C 13.326 11.494,12.952 11.518,11.210 11.519 L 9.520 11.520 9.520 10.019 L 9.520 8.518 11.470 8.529 L 13.420 8.540 13.641 8.649 " stroke="none" fill="black" fill-rule="evenodd"></path></svg>