<svg xmlns="http://www.w3.org/2000/svg" class="icon icon-tabler icon-tabler-repeat-once" width="24" height="24" viewBox="0 0 24 24" stroke-width="1" stroke="currentColor" fill="none" stroke-linecap="round" stroke-linejoin="round"><path d="M16.656 2.656 C 16.535 2.777,16.520 2.816,16.520 3.004 L 16.520 3.217 17.640 4.339 C 18.256 4.957,18.760 5.475,18.760 5.490 C 18.760 5.506,15.957 5.523,12.530 5.529 L 6.300 5.540 5.920 5.672 C 5.365 5.864,4.963 6.117,4.540 6.540 C 3.915 7.165,3.599 7.842,3.521 8.724 C 3.471 9.294,3.469 11.884,3.519 12.100 C 3.541 12.196,3.605 12.304,3.679 12.370 C 3.905 12.573,4.293 12.501,4.450 12.227 C 4.487 12.163,4.506 11.655,4.522 10.280 C 4.547 8.154,4.541 8.194,4.925 7.621 C 5.227 7.168,5.662 6.824,6.171 6.633 L 6.420 6.540 12.600 6.529 L 18.779 6.519 17.650 7.651 L 16.520 8.783 16.520 8.996 C 16.520 9.184,16.535 9.223,16.656 9.344 C 16.777 9.465,16.816 9.480,17.005 9.480 L 17.219 9.480 18.849 7.849 L 20.480 6.219 20.480 6.000 L 20.480 5.781 18.849 4.151 L 17.219 2.520 17.005 2.520 C 16.816 2.520,16.777 2.535,16.656 2.656 M11.151 10.151 L 10.520 10.783 10.520 10.995 C 10.520 11.184,10.535 11.223,10.656 11.344 C 10.775 11.463,10.818 11.480,10.995 11.480 C 11.164 11.480,11.220 11.460,11.339 11.356 L 11.480 11.232 11.481 12.586 C 11.481 13.331,11.499 14.012,11.519 14.100 C 11.574 14.341,11.751 14.480,12.000 14.480 C 12.249 14.480,12.426 14.341,12.481 14.100 C 12.529 13.891,12.529 10.109,12.481 9.900 C 12.425 9.656,12.250 9.520,11.991 9.520 L 11.783 9.520 11.151 10.151 M19.705 11.603 C 19.499 11.766,19.501 11.740,19.478 13.720 C 19.453 15.846,19.459 15.806,19.075 16.379 C 18.639 17.032,18.024 17.396,17.213 17.481 C 16.798 17.525,5.240 17.534,5.240 17.491 C 5.240 17.475,5.744 16.957,6.360 16.339 L 7.480 15.217 7.480 15.004 C 7.480 14.816,7.465 14.777,7.344 14.656 C 7.223 14.535,7.184 14.520,6.995 14.520 L 6.781 14.520 5.151 16.151 L 3.520 17.781 3.520 18.000 L 3.520 18.219 5.151 19.849 L 6.781 21.480 6.995 21.480 C 7.184 21.480,7.223 21.465,7.344 21.344 C 7.465 21.223,7.480 21.184,7.480 20.996 L 7.480 20.783 6.351 19.652 L 5.222 18.520 11.021 18.520 C 14.593 18.519,16.995 18.504,17.276 18.479 C 18.158 18.401,18.835 18.085,19.460 17.460 C 20.085 16.835,20.401 16.158,20.479 15.276 C 20.529 14.706,20.531 12.116,20.481 11.900 C 20.426 11.661,20.249 11.520,20.005 11.520 C 19.869 11.520,19.779 11.545,19.705 11.603 " stroke="none" fill="black" fill-rule="evenodd"></path></svg>