<svg xmlns="http://www.w3.org/2000/svg" class="icon icon-tabler icon-tabler-replace" width="24" height="24" viewBox="0 0 24 24" stroke-width="1" stroke="currentColor" fill="none" stroke-linecap="round" stroke-linejoin="round"><path d="M3.468 2.599 C 3.060 2.758,2.697 3.145,2.569 3.556 C 2.507 3.757,2.500 4.006,2.500 6.000 C 2.500 7.994,2.507 8.243,2.569 8.444 C 2.706 8.885,3.115 9.294,3.556 9.431 C 3.757 9.493,4.006 9.500,6.000 9.500 C 7.994 9.500,8.243 9.493,8.444 9.431 C 8.885 9.294,9.294 8.885,9.431 8.444 C 9.493 8.243,9.500 7.994,9.500 6.000 C 9.500 4.006,9.493 3.757,9.431 3.556 C 9.300 3.133,8.918 2.736,8.507 2.594 C 8.317 2.529,8.104 2.523,5.980 2.523 C 3.807 2.524,3.648 2.528,3.468 2.599 M14.151 4.151 L 12.520 5.781 12.520 6.000 L 12.520 6.219 14.151 7.849 L 15.781 9.480 15.995 9.480 C 16.184 9.480,16.223 9.465,16.344 9.344 C 16.465 9.223,16.480 9.184,16.480 8.996 L 16.480 8.783 15.350 7.651 L 14.220 6.518 16.820 6.529 L 19.420 6.540 19.641 6.649 C 19.924 6.787,20.213 7.076,20.351 7.359 L 20.460 7.580 20.480 9.360 C 20.495 10.674,20.513 11.163,20.550 11.227 C 20.647 11.396,20.799 11.480,21.009 11.480 C 21.181 11.480,21.226 11.462,21.340 11.348 C 21.523 11.165,21.532 11.051,21.509 9.193 C 21.493 7.872,21.479 7.582,21.422 7.380 C 21.162 6.466,20.504 5.814,19.607 5.582 C 19.404 5.529,18.989 5.520,16.804 5.520 C 15.394 5.520,14.240 5.507,14.240 5.491 C 14.240 5.475,14.744 4.957,15.360 4.339 L 16.480 3.217 16.480 3.004 C 16.480 2.816,16.465 2.777,16.344 2.656 C 16.223 2.535,16.184 2.520,15.995 2.520 L 15.781 2.520 14.151 4.151 M8.344 3.656 L 8.480 3.792 8.480 5.995 L 8.480 8.199 8.370 8.321 C 8.304 8.395,8.196 8.459,8.100 8.481 C 8.012 8.501,7.067 8.518,6.000 8.518 C 4.933 8.518,3.988 8.501,3.900 8.481 C 3.804 8.459,3.696 8.395,3.630 8.321 L 3.520 8.199 3.520 5.995 L 3.520 3.792 3.656 3.656 L 3.792 3.520 6.000 3.520 L 8.208 3.520 8.344 3.656 M2.660 12.652 C 2.477 12.835,2.468 12.949,2.491 14.807 C 2.507 16.120,2.521 16.419,2.577 16.614 C 2.841 17.531,3.464 18.156,4.380 18.423 C 4.595 18.486,4.893 18.495,7.196 18.509 L 9.772 18.526 8.646 19.654 L 7.520 20.783 7.520 20.996 C 7.520 21.184,7.535 21.223,7.656 21.344 C 7.777 21.465,7.816 21.480,8.005 21.480 L 8.219 21.480 9.849 19.849 L 11.480 18.219 11.480 18.000 L 11.480 17.781 9.849 16.151 L 8.219 14.520 8.005 14.520 C 7.816 14.520,7.777 14.535,7.656 14.656 C 7.535 14.777,7.520 14.816,7.520 15.004 L 7.520 15.217 8.640 16.339 C 9.256 16.957,9.760 17.475,9.760 17.491 C 9.760 17.536,5.140 17.524,4.820 17.478 C 4.666 17.456,4.449 17.394,4.339 17.341 C 4.075 17.212,3.784 16.918,3.649 16.641 L 3.540 16.420 3.520 14.640 C 3.505 13.326,3.487 12.837,3.450 12.773 C 3.353 12.604,3.201 12.520,2.991 12.520 C 2.819 12.520,2.774 12.538,2.660 12.652 M15.468 14.599 C 15.060 14.758,14.697 15.145,14.569 15.556 C 14.507 15.757,14.500 16.006,14.500 18.000 C 14.500 19.994,14.507 20.243,14.569 20.444 C 14.706 20.885,15.115 21.294,15.556 21.431 C 15.757 21.493,16.006 21.500,18.000 21.500 C 20.488 21.500,20.480 21.501,20.867 21.214 C 21.126 21.023,21.344 20.725,21.431 20.444 C 21.493 20.243,21.500 19.994,21.500 18.000 C 21.500 16.006,21.493 15.757,21.431 15.556 C 21.300 15.133,20.918 14.736,20.507 14.594 C 20.317 14.529,20.104 14.523,17.980 14.523 C 15.807 14.524,15.648 14.528,15.468 14.599 M20.344 15.656 L 20.480 15.792 20.480 17.995 L 20.480 20.199 20.370 20.321 C 20.304 20.395,20.196 20.459,20.100 20.481 C 19.891 20.529,16.109 20.529,15.900 20.481 C 15.804 20.459,15.696 20.395,15.630 20.321 L 15.520 20.199 15.520 17.995 L 15.520 15.792 15.656 15.656 L 15.792 15.520 18.000 15.520 L 20.208 15.520 20.344 15.656 " stroke="none" fill="black" fill-rule="evenodd"></path></svg>