<svg xmlns="http://www.w3.org/2000/svg" class="icon icon-tabler icon-tabler-rocket" width="24" height="24" viewBox="0 0 24 24" stroke-width="1" stroke="currentColor" fill="none" stroke-linecap="round" stroke-linejoin="round"><path d="M16.140 3.580 C 14.406 3.855,12.809 4.557,11.500 5.620 C 11.048 5.987,10.292 6.760,9.973 7.182 C 9.480 7.832,8.985 8.679,8.732 9.305 L 8.649 9.510 8.314 9.557 C 7.329 9.697,6.412 10.050,5.560 10.617 C 4.968 11.010,4.191 11.791,3.806 12.376 C 3.549 12.769,3.520 12.832,3.520 13.010 C 3.520 13.181,3.538 13.226,3.652 13.340 C 3.752 13.440,3.833 13.480,3.982 13.500 C 4.620 13.588,5.584 13.844,5.899 14.009 C 5.995 14.060,5.994 14.062,5.670 14.340 C 4.741 15.137,4.010 16.307,3.681 17.524 C 3.483 18.256,3.404 19.112,3.474 19.774 C 3.539 20.390,3.622 20.467,4.288 20.529 C 5.080 20.604,5.976 20.489,6.844 20.201 C 7.926 19.842,8.942 19.167,9.660 18.330 C 9.938 18.006,9.940 18.005,9.991 18.101 C 10.156 18.416,10.412 19.380,10.500 20.018 C 10.520 20.167,10.560 20.248,10.660 20.348 C 10.774 20.462,10.819 20.480,10.990 20.480 C 11.168 20.480,11.231 20.451,11.624 20.193 C 12.170 19.834,12.946 19.073,13.329 18.520 C 13.915 17.674,14.326 16.601,14.461 15.566 C 14.488 15.353,14.490 15.351,14.694 15.269 C 15.382 14.990,16.329 14.423,16.979 13.899 C 17.452 13.519,18.228 12.718,18.588 12.236 C 19.343 11.231,19.920 10.029,20.219 8.843 C 20.410 8.084,20.455 7.734,20.458 7.000 C 20.459 6.310,20.458 6.295,20.328 5.920 C 20.136 5.366,19.883 4.963,19.460 4.540 C 19.035 4.115,18.629 3.861,18.080 3.675 C 17.730 3.557,17.653 3.546,17.100 3.535 C 16.718 3.527,16.369 3.544,16.140 3.580 M17.834 4.640 C 18.142 4.749,18.615 5.059,18.818 5.283 C 19.048 5.538,19.266 5.898,19.368 6.192 C 19.449 6.428,19.460 6.532,19.457 7.060 C 19.453 7.759,19.341 8.386,19.081 9.165 C 18.280 11.567,16.469 13.494,14.160 14.401 C 13.929 14.492,13.698 14.607,13.647 14.657 C 13.545 14.756,13.482 14.971,13.481 15.225 C 13.478 15.727,13.227 16.629,12.915 17.255 C 12.632 17.823,12.326 18.240,11.823 18.738 L 11.382 19.177 11.329 18.978 C 10.741 16.756,9.536 15.045,7.700 13.828 C 7.002 13.365,5.956 12.913,5.020 12.669 L 4.820 12.617 5.260 12.176 C 6.255 11.179,7.372 10.647,8.731 10.522 C 9.339 10.466,9.358 10.451,9.582 9.880 C 10.013 8.781,10.638 7.833,11.496 6.978 C 12.791 5.688,14.392 4.874,16.210 4.583 C 16.749 4.496,17.504 4.523,17.834 4.640 M14.468 7.597 C 14.055 7.763,13.691 8.152,13.575 8.552 C 13.480 8.879,13.514 9.364,13.651 9.646 C 13.787 9.924,14.077 10.213,14.359 10.351 C 14.557 10.449,14.624 10.460,15.000 10.460 C 15.376 10.460,15.443 10.449,15.641 10.351 C 15.924 10.213,16.213 9.924,16.351 9.641 C 16.449 9.443,16.460 9.376,16.460 9.000 C 16.460 8.624,16.449 8.557,16.351 8.359 C 16.213 8.076,15.924 7.787,15.643 7.650 C 15.345 7.504,14.763 7.478,14.468 7.597 M15.344 8.656 C 15.464 8.776,15.480 8.817,15.480 9.000 C 15.480 9.183,15.464 9.224,15.344 9.344 C 15.224 9.464,15.183 9.480,15.000 9.480 C 14.817 9.480,14.776 9.464,14.656 9.344 C 14.536 9.224,14.520 9.183,14.520 9.000 C 14.520 8.817,14.536 8.776,14.656 8.656 C 14.776 8.536,14.817 8.520,15.000 8.520 C 15.183 8.520,15.224 8.536,15.344 8.656 M7.424 14.850 C 7.900 15.186,8.662 15.930,9.029 16.417 C 9.446 16.970,9.441 16.955,9.271 17.209 C 8.347 18.584,6.631 19.505,4.943 19.532 L 4.460 19.540 4.467 19.075 C 4.488 17.569,5.202 16.049,6.342 15.081 C 6.676 14.797,6.955 14.600,7.025 14.600 C 7.050 14.600,7.229 14.713,7.424 14.850 " stroke="none" fill="black" fill-rule="evenodd"></path></svg>