<svg xmlns="http://www.w3.org/2000/svg" class="icon icon-tabler icon-tabler-rotate-clockwise-2" width="24" height="24" viewBox="0 0 24 24" stroke-width="1" stroke="currentColor" fill="none" stroke-linecap="round" stroke-linejoin="round"><path d="M11.140 3.507 C 10.037 3.642,8.832 3.996,8.622 4.245 C 8.432 4.470,8.505 4.848,8.764 4.982 C 8.933 5.070,9.053 5.054,9.557 4.882 C 9.812 4.794,10.254 4.674,10.540 4.613 C 11.020 4.512,11.131 4.503,11.980 4.503 C 13.003 4.502,13.278 4.538,14.122 4.781 C 15.303 5.120,16.446 5.798,17.322 6.677 C 18.381 7.739,19.061 9.013,19.388 10.550 C 19.489 11.023,19.497 11.129,19.497 12.000 C 19.497 12.869,19.489 12.978,19.389 13.446 C 18.934 15.580,17.747 17.294,15.955 18.405 C 15.778 18.515,15.608 18.615,15.577 18.627 C 15.528 18.645,15.520 18.384,15.519 16.854 C 15.519 15.867,15.501 14.988,15.481 14.900 C 15.425 14.657,15.250 14.520,14.995 14.520 C 14.819 14.520,14.775 14.537,14.660 14.652 C 14.554 14.758,14.522 14.828,14.501 15.002 C 14.487 15.122,14.481 16.328,14.488 17.682 C 14.501 20.393,14.488 20.259,14.749 20.429 C 14.848 20.495,15.046 20.501,17.318 20.512 C 18.672 20.519,19.878 20.513,19.998 20.499 C 20.172 20.478,20.242 20.446,20.348 20.340 C 20.463 20.225,20.480 20.182,20.480 20.000 C 20.480 19.817,20.464 19.776,20.344 19.656 L 20.208 19.520 18.164 19.520 C 17.040 19.520,16.121 19.507,16.122 19.490 C 16.123 19.473,16.271 19.374,16.452 19.269 C 16.977 18.964,17.463 18.580,18.004 18.041 C 19.282 16.770,20.082 15.233,20.412 13.420 C 20.486 13.013,20.499 12.793,20.499 11.980 C 20.499 10.908,20.449 10.533,20.184 9.615 C 19.536 7.366,17.917 5.424,15.808 4.365 C 15.044 3.981,13.938 3.648,13.072 3.541 C 12.632 3.486,11.473 3.466,11.140 3.507 M5.311 6.903 C 5.168 6.980,5.080 7.155,5.080 7.362 C 5.080 7.497,5.105 7.553,5.213 7.661 C 5.483 7.931,5.859 7.867,6.011 7.524 C 6.084 7.359,6.086 7.328,6.036 7.183 C 5.934 6.890,5.583 6.755,5.311 6.903 M3.836 10.731 C 3.655 10.853,3.593 10.983,3.614 11.195 C 3.661 11.666,4.273 11.796,4.522 11.388 C 4.668 11.148,4.577 10.833,4.324 10.702 C 4.156 10.615,3.994 10.625,3.836 10.731 M4.452 14.758 C 4.209 14.906,4.135 15.193,4.278 15.428 C 4.449 15.707,4.822 15.756,5.049 15.529 C 5.452 15.126,4.938 14.462,4.452 14.758 M7.008 17.959 C 6.749 18.078,6.654 18.350,6.781 18.616 C 6.946 18.964,7.491 18.970,7.655 18.626 C 7.869 18.175,7.460 17.753,7.008 17.959 M10.803 19.510 C 10.609 19.609,10.510 19.760,10.513 19.954 C 10.516 20.159,10.572 20.264,10.733 20.362 C 10.962 20.502,11.273 20.439,11.414 20.223 C 11.510 20.077,11.499 19.796,11.393 19.661 C 11.310 19.555,11.100 19.440,10.991 19.440 C 10.963 19.440,10.878 19.472,10.803 19.510 " stroke="none" fill="black" fill-rule="evenodd"></path></svg>