<svg xmlns="http://www.w3.org/2000/svg" class="icon icon-tabler icon-tabler-rotate-2" width="24" height="24" viewBox="0 0 24 24" stroke-width="1" stroke="currentColor" fill="none" stroke-linecap="round" stroke-linejoin="round"><path d="M10.886 3.540 C 7.888 3.942,5.296 5.928,4.137 8.711 C 3.682 9.803,3.480 10.807,3.480 11.980 C 3.480 13.557,3.880 15.021,4.679 16.375 C 5.346 17.503,6.528 18.690,7.588 19.295 C 7.747 19.386,7.878 19.473,7.879 19.490 C 7.879 19.507,6.960 19.520,5.836 19.520 L 3.792 19.520 3.656 19.656 C 3.536 19.776,3.520 19.817,3.520 20.000 C 3.520 20.182,3.537 20.225,3.652 20.340 C 3.758 20.446,3.828 20.478,4.002 20.499 C 4.122 20.513,5.328 20.519,6.682 20.512 C 8.954 20.501,9.152 20.495,9.251 20.429 C 9.512 20.259,9.499 20.393,9.512 17.682 C 9.519 16.328,9.513 15.122,9.499 15.002 C 9.478 14.828,9.446 14.758,9.340 14.652 C 9.225 14.537,9.181 14.520,9.005 14.520 C 8.750 14.520,8.575 14.657,8.519 14.900 C 8.499 14.988,8.481 15.865,8.481 16.850 C 8.480 17.835,8.472 18.640,8.461 18.640 C 8.451 18.640,8.302 18.557,8.131 18.457 C 6.540 17.519,5.295 15.908,4.781 14.122 C 4.538 13.278,4.502 13.003,4.503 11.980 C 4.503 11.131,4.512 11.020,4.614 10.540 C 5.207 7.736,7.206 5.550,9.882 4.780 C 10.721 4.538,10.998 4.502,12.020 4.503 C 12.869 4.503,12.980 4.512,13.460 4.613 C 13.746 4.674,14.188 4.794,14.443 4.882 C 14.947 5.054,15.067 5.070,15.236 4.982 C 15.495 4.848,15.568 4.470,15.378 4.245 C 15.210 4.045,14.425 3.779,13.460 3.595 C 12.889 3.486,11.509 3.456,10.886 3.540 M18.216 6.879 C 18.103 6.925,17.971 7.097,17.940 7.240 C 17.923 7.316,17.941 7.417,17.992 7.531 C 18.140 7.867,18.519 7.929,18.787 7.661 C 18.895 7.553,18.920 7.497,18.920 7.362 C 18.920 7.150,18.831 6.978,18.681 6.901 C 18.554 6.835,18.349 6.825,18.216 6.879 M19.652 10.718 C 19.409 10.866,19.335 11.153,19.478 11.388 C 19.727 11.796,20.339 11.666,20.386 11.195 C 20.407 10.983,20.345 10.853,20.164 10.731 C 19.998 10.619,19.821 10.615,19.652 10.718 M19.052 14.758 C 18.654 15.001,18.771 15.606,19.227 15.667 C 19.517 15.706,19.800 15.466,19.800 15.180 C 19.800 14.928,19.547 14.680,19.292 14.680 C 19.230 14.680,19.122 14.715,19.052 14.758 M16.662 17.909 C 16.342 17.992,16.199 18.317,16.345 18.626 C 16.509 18.970,17.054 18.964,17.219 18.616 C 17.294 18.458,17.296 18.355,17.225 18.187 C 17.141 17.985,16.875 17.854,16.662 17.909 M12.817 19.495 C 12.442 19.663,12.410 20.199,12.764 20.382 C 12.919 20.462,13.116 20.454,13.267 20.362 C 13.427 20.265,13.484 20.159,13.487 19.958 C 13.492 19.608,13.127 19.356,12.817 19.495 " stroke="none" fill="black" fill-rule="evenodd"></path></svg>