<svg xmlns="http://www.w3.org/2000/svg" class="icon icon-tabler icon-tabler-rotate-clockwise" width="24" height="24" viewBox="0 0 24 24" stroke-width="1" stroke="currentColor" fill="none" stroke-linecap="round" stroke-linejoin="round"><path d="M11.040 3.588 C 10.758 3.617,10.011 3.768,9.660 3.866 C 7.001 4.607,4.808 6.704,3.924 9.348 C 3.754 9.855,3.560 10.725,3.560 10.977 C 3.560 11.287,3.746 11.480,4.046 11.480 C 4.189 11.480,4.263 11.456,4.356 11.377 C 4.491 11.264,4.518 11.183,4.638 10.553 C 5.145 7.890,7.206 5.635,9.840 4.860 C 10.686 4.611,10.919 4.580,11.980 4.580 C 12.825 4.580,12.995 4.591,13.396 4.672 C 15.750 5.149,17.663 6.616,18.701 8.740 C 19.006 9.363,19.158 9.791,19.294 10.403 C 19.542 11.518,19.542 12.562,19.294 13.677 C 19.158 14.291,19.005 14.719,18.701 15.340 C 17.657 17.468,15.764 18.920,13.400 19.405 C 12.993 19.489,12.832 19.500,12.000 19.500 C 11.021 19.500,10.871 19.484,10.100 19.293 C 8.541 18.906,6.995 17.882,6.027 16.594 C 5.791 16.280,5.360 15.609,5.360 15.556 C 5.360 15.538,6.223 15.518,7.277 15.512 C 9.141 15.500,9.197 15.498,9.307 15.417 C 9.369 15.372,9.454 15.267,9.495 15.184 C 9.559 15.055,9.563 15.009,9.524 14.879 C 9.499 14.795,9.423 14.680,9.356 14.623 L 9.234 14.520 6.546 14.520 C 3.595 14.520,3.751 14.507,3.620 14.760 C 3.569 14.860,3.560 15.250,3.560 17.500 C 3.560 20.330,3.556 20.268,3.769 20.418 C 3.903 20.511,4.206 20.498,4.339 20.393 C 4.559 20.221,4.560 20.206,4.560 18.114 L 4.560 16.185 4.710 16.433 C 5.179 17.205,5.940 18.081,6.618 18.629 C 7.836 19.615,9.298 20.244,10.878 20.464 C 11.469 20.546,12.840 20.524,13.380 20.424 C 14.279 20.257,14.977 20.031,15.740 19.658 C 17.047 19.021,18.229 17.982,19.059 16.740 C 19.370 16.275,19.819 15.378,20.000 14.860 C 20.874 12.355,20.520 9.526,19.060 7.341 C 17.673 5.267,15.472 3.909,13.001 3.602 C 12.688 3.563,11.364 3.553,11.040 3.588 " stroke="none" fill="black" fill-rule="evenodd"></path></svg>