<svg xmlns="http://www.w3.org/2000/svg" class="icon icon-tabler icon-tabler-rotate-rectangle" width="24" height="24" viewBox="0 0 24 24" stroke-width="1" stroke="currentColor" fill="none" stroke-linecap="round" stroke-linejoin="round"><path d="M11.374 2.517 C 10.996 2.619,10.715 2.765,10.399 3.022 C 10.032 3.321,9.649 3.729,9.617 3.856 C 9.549 4.130,9.689 4.397,9.946 4.482 C 10.183 4.560,10.302 4.499,10.744 4.074 C 11.289 3.551,11.475 3.460,12.000 3.460 C 12.676 3.460,12.322 3.156,16.552 7.376 C 20.819 11.635,20.540 11.311,20.540 12.000 C 20.540 12.689,20.819 12.365,16.552 16.624 C 12.322 20.844,12.676 20.540,12.000 20.540 C 11.324 20.540,11.678 20.844,7.448 16.624 C 3.181 12.365,3.460 12.689,3.460 12.000 C 3.460 11.357,3.462 11.355,5.138 9.680 L 6.560 8.260 6.560 9.712 C 6.560 11.305,6.564 11.338,6.799 11.459 C 7.091 11.610,7.433 11.472,7.521 11.167 C 7.550 11.068,7.560 10.340,7.552 8.953 C 7.540 6.926,7.538 6.884,7.456 6.773 C 7.296 6.557,7.342 6.561,5.029 6.561 L 2.879 6.560 2.735 6.691 C 2.466 6.939,2.531 7.365,2.860 7.502 C 2.971 7.549,3.271 7.560,4.408 7.560 L 5.818 7.560 4.436 8.950 C 3.676 9.715,2.999 10.412,2.932 10.500 C 2.785 10.694,2.637 10.984,2.536 11.280 C 2.428 11.592,2.428 12.408,2.536 12.720 C 2.652 13.058,2.792 13.317,3.002 13.580 C 3.108 13.712,4.829 15.450,6.827 17.441 C 10.733 21.335,10.648 21.257,11.260 21.451 C 11.636 21.571,12.389 21.577,12.720 21.464 C 13.057 21.349,13.317 21.208,13.580 20.998 C 13.712 20.892,15.450 19.171,17.441 17.173 C 21.335 13.267,21.257 13.352,21.451 12.740 C 21.524 12.510,21.539 12.371,21.537 11.960 C 21.534 11.526,21.521 11.425,21.432 11.190 C 21.212 10.608,21.244 10.644,17.441 6.827 C 15.449 4.829,13.712 3.108,13.580 3.002 C 13.109 2.626,12.712 2.479,12.100 2.456 C 11.750 2.443,11.601 2.455,11.374 2.517 " stroke="none" fill="black" fill-rule="evenodd"></path></svg>