<svg xmlns="http://www.w3.org/2000/svg" class="icon icon-tabler icon-tabler-rotate" width="24" height="24" viewBox="0 0 24 24" stroke-width="1" stroke="currentColor" fill="none" stroke-linecap="round" stroke-linejoin="round"><path d="M10.962 3.601 C 9.040 3.867,7.355 4.695,6.017 6.030 C 4.743 7.300,3.933 8.889,3.614 10.740 C 3.517 11.302,3.517 12.778,3.614 13.340 C 3.878 14.875,4.504 16.274,5.433 17.412 C 5.720 17.763,6.364 18.401,6.720 18.686 C 7.813 19.561,9.126 20.146,10.620 20.424 C 11.160 20.524,12.531 20.546,13.122 20.464 C 14.318 20.297,15.388 19.921,16.435 19.298 C 17.497 18.666,18.615 17.544,19.290 16.433 L 19.440 16.185 19.440 18.114 C 19.440 20.206,19.441 20.221,19.661 20.393 C 19.794 20.498,20.097 20.511,20.231 20.418 C 20.444 20.268,20.440 20.330,20.440 17.500 C 20.440 15.250,20.431 14.860,20.380 14.760 C 20.249 14.507,20.405 14.520,17.454 14.520 L 14.766 14.520 14.644 14.623 C 14.577 14.680,14.501 14.795,14.476 14.879 C 14.437 15.009,14.441 15.055,14.505 15.184 C 14.546 15.267,14.631 15.372,14.693 15.417 C 14.803 15.498,14.859 15.500,16.723 15.512 C 17.777 15.518,18.640 15.538,18.640 15.556 C 18.640 15.608,18.211 16.277,17.970 16.600 C 17.670 17.002,16.939 17.725,16.520 18.036 C 15.601 18.717,14.636 19.144,13.424 19.409 C 13.070 19.486,12.898 19.497,12.040 19.499 C 10.922 19.500,10.550 19.446,9.660 19.152 C 5.677 17.837,3.546 13.472,4.959 9.520 C 5.850 7.026,7.969 5.206,10.604 4.672 C 11.005 4.591,11.175 4.580,12.020 4.580 C 12.785 4.580,13.053 4.595,13.340 4.652 C 14.863 4.958,16.126 5.604,17.205 6.632 C 18.292 7.665,19.087 9.110,19.361 10.548 C 19.482 11.183,19.509 11.264,19.644 11.377 C 19.825 11.529,20.122 11.524,20.281 11.365 C 20.344 11.302,20.409 11.199,20.425 11.136 C 20.493 10.865,20.241 9.744,19.938 8.966 C 19.472 7.772,18.837 6.830,17.872 5.899 C 16.692 4.760,15.307 4.040,13.637 3.696 C 13.202 3.606,13.020 3.592,12.180 3.579 C 11.652 3.572,11.104 3.581,10.962 3.601 " stroke="none" fill="black" fill-rule="evenodd"></path></svg>