<svg xmlns="http://www.w3.org/2000/svg" class="icon icon-tabler icon-tabler-route" width="24" height="24" viewBox="0 0 24 24" stroke-width="1" stroke="currentColor" fill="none" stroke-linecap="round" stroke-linejoin="round"><path d="M17.274 2.613 C 16.869 2.736,16.560 2.923,16.242 3.241 C 15.718 3.764,15.500 4.331,15.528 5.098 C 15.541 5.446,15.567 5.603,15.652 5.839 C 15.908 6.557,16.492 7.130,17.207 7.364 C 17.459 7.447,17.576 7.460,18.040 7.459 C 18.553 7.457,18.596 7.451,18.900 7.328 C 19.882 6.933,20.480 6.053,20.480 5.000 C 20.480 3.947,19.879 3.061,18.900 2.673 C 18.612 2.559,18.530 2.545,18.080 2.533 C 17.647 2.521,17.539 2.532,17.274 2.613 M18.641 3.649 C 18.924 3.787,19.213 4.076,19.351 4.359 C 19.449 4.557,19.460 4.624,19.460 5.000 C 19.460 5.348,19.445 5.453,19.372 5.610 C 19.250 5.875,18.912 6.218,18.644 6.350 C 18.443 6.449,18.377 6.460,18.000 6.460 C 17.624 6.460,17.557 6.449,17.359 6.351 C 17.076 6.213,16.787 5.924,16.649 5.641 C 16.499 5.337,16.474 4.802,16.593 4.488 C 16.743 4.094,17.077 3.753,17.468 3.597 C 17.766 3.478,18.345 3.503,18.641 3.649 M7.607 4.602 C 6.112 4.939,4.928 6.138,4.594 7.653 C 4.485 8.147,4.505 9.059,4.635 9.540 C 4.925 10.614,5.726 11.581,6.738 12.079 C 7.222 12.317,7.632 12.428,8.220 12.480 C 8.470 12.502,10.448 12.520,12.800 12.520 C 17.401 12.521,17.169 12.508,17.776 12.794 C 18.579 13.172,19.203 13.936,19.416 14.803 C 19.501 15.149,19.501 15.851,19.416 16.197 C 19.203 17.063,18.575 17.832,17.780 18.202 C 17.140 18.500,17.236 18.491,14.363 18.510 L 11.785 18.527 11.653 18.659 C 11.537 18.775,11.520 18.818,11.520 18.995 C 11.520 19.250,11.657 19.425,11.900 19.481 C 12.114 19.530,16.222 19.530,16.780 19.480 C 17.368 19.428,17.778 19.317,18.262 19.079 C 19.048 18.692,19.692 18.048,20.079 17.262 C 20.392 16.627,20.460 16.312,20.460 15.500 C 20.460 14.691,20.393 14.379,20.082 13.740 C 19.592 12.736,18.629 11.937,17.540 11.632 L 17.220 11.542 12.640 11.519 C 7.487 11.492,7.879 11.517,7.180 11.178 C 6.574 10.885,6.081 10.386,5.794 9.776 C 5.588 9.337,5.521 9.026,5.521 8.500 C 5.521 7.955,5.590 7.648,5.818 7.180 C 6.115 6.571,6.570 6.116,7.180 5.818 C 7.784 5.524,7.806 5.521,10.000 5.520 C 11.067 5.519,12.012 5.501,12.100 5.481 C 12.343 5.425,12.480 5.250,12.480 4.995 C 12.480 4.817,12.463 4.775,12.344 4.656 L 12.208 4.520 10.074 4.523 C 8.138 4.526,7.909 4.534,7.607 4.602 M5.274 16.613 C 4.869 16.736,4.560 16.923,4.242 17.241 C 3.718 17.764,3.500 18.331,3.528 19.098 C 3.541 19.446,3.567 19.603,3.652 19.839 C 3.908 20.557,4.492 21.130,5.207 21.364 C 5.459 21.447,5.576 21.460,6.040 21.459 C 6.553 21.457,6.596 21.451,6.900 21.328 C 7.882 20.933,8.480 20.053,8.480 19.000 C 8.480 17.947,7.879 17.061,6.900 16.673 C 6.612 16.559,6.530 16.545,6.080 16.533 C 5.647 16.521,5.539 16.532,5.274 16.613 M6.641 17.649 C 6.924 17.787,7.213 18.076,7.351 18.359 C 7.449 18.557,7.460 18.624,7.460 19.000 C 7.460 19.348,7.445 19.453,7.372 19.610 C 7.250 19.875,6.912 20.218,6.644 20.350 C 6.443 20.449,6.377 20.460,6.000 20.460 C 5.624 20.460,5.557 20.449,5.359 20.351 C 5.076 20.213,4.787 19.924,4.649 19.641 C 4.499 19.337,4.474 18.802,4.593 18.488 C 4.743 18.094,5.077 17.753,5.468 17.597 C 5.766 17.478,6.345 17.503,6.641 17.649 " stroke="none" fill="black" fill-rule="evenodd"></path></svg>