<svg xmlns="http://www.w3.org/2000/svg" class="icon icon-tabler icon-tabler-router" width="24" height="24" viewBox="0 0 24 24" stroke-width="1" stroke="currentColor" fill="none" stroke-linecap="round" stroke-linejoin="round"><path d="M13.880 2.739 C 12.055 3.009,10.484 3.755,9.177 4.973 C 8.571 5.538,8.000 6.272,8.000 6.486 C 8.000 6.743,8.245 7.000,8.492 7.000 C 8.682 7.000,8.821 6.895,9.093 6.547 C 10.196 5.135,11.796 4.158,13.604 3.793 C 14.003 3.712,14.177 3.700,15.000 3.700 C 15.823 3.700,15.997 3.712,16.396 3.793 C 18.210 4.159,19.801 5.131,20.909 6.550 C 21.175 6.891,21.318 7.000,21.500 7.000 C 21.750 7.000,22.000 6.748,22.000 6.494 C 22.000 6.158,21.032 5.074,20.110 4.377 C 18.955 3.505,17.587 2.943,16.129 2.742 C 15.586 2.667,14.376 2.666,13.880 2.739 M14.180 6.659 C 13.425 6.797,12.608 7.195,12.035 7.704 C 11.752 7.956,11.374 8.389,11.297 8.551 C 11.162 8.836,11.354 9.185,11.669 9.228 C 11.902 9.259,12.055 9.185,12.217 8.965 C 12.663 8.356,13.439 7.858,14.223 7.677 C 14.541 7.604,14.679 7.594,15.129 7.610 C 15.436 7.622,15.761 7.658,15.900 7.696 C 16.190 7.776,16.731 8.029,16.990 8.206 C 17.242 8.378,17.614 8.734,17.783 8.965 C 17.944 9.183,18.099 9.259,18.325 9.228 C 18.517 9.203,18.660 9.082,18.723 8.892 C 18.807 8.637,18.697 8.441,18.172 7.910 C 17.529 7.259,16.685 6.813,15.805 6.659 C 15.400 6.588,14.566 6.588,14.180 6.659 M14.679 10.630 C 14.509 10.782,14.482 10.941,14.481 11.790 L 14.480 12.520 9.545 12.520 L 4.609 12.520 4.288 12.613 C 3.872 12.733,3.566 12.917,3.242 13.242 C 2.922 13.562,2.738 13.865,2.604 14.294 L 2.502 14.620 2.501 16.980 C 2.500 19.133,2.506 19.362,2.572 19.593 C 2.838 20.528,3.447 21.146,4.380 21.425 C 4.606 21.493,5.025 21.498,11.700 21.510 C 16.315 21.519,18.922 21.509,19.189 21.482 C 20.305 21.371,21.121 20.684,21.427 19.600 C 21.494 19.361,21.500 19.147,21.500 17.000 C 21.500 14.853,21.494 14.639,21.427 14.400 C 21.196 13.582,20.666 12.982,19.900 12.670 L 19.580 12.540 17.550 12.528 L 15.520 12.517 15.519 11.788 C 15.518 10.941,15.491 10.782,15.321 10.630 C 15.222 10.541,15.160 10.520,15.000 10.520 C 14.840 10.520,14.778 10.541,14.679 10.630 M19.641 13.649 C 19.924 13.787,20.213 14.076,20.351 14.359 L 20.460 14.580 20.460 17.000 C 20.460 19.407,20.460 19.421,20.372 19.610 C 20.253 19.868,19.913 20.218,19.664 20.339 C 19.552 20.394,19.334 20.456,19.180 20.478 C 18.798 20.533,5.202 20.533,4.820 20.478 C 4.666 20.456,4.449 20.394,4.339 20.341 C 4.075 20.212,3.784 19.918,3.649 19.641 L 3.540 19.420 3.529 17.053 C 3.519 14.789,3.522 14.677,3.596 14.481 C 3.743 14.093,4.083 13.749,4.468 13.599 C 4.654 13.526,4.900 13.524,12.040 13.532 L 19.420 13.540 19.641 13.649 M12.656 16.656 C 12.537 16.775,12.520 16.818,12.520 16.993 C 12.520 17.150,12.542 17.220,12.621 17.314 C 12.758 17.477,12.957 17.540,13.139 17.480 C 13.357 17.408,13.480 17.233,13.480 16.993 C 13.480 16.818,13.463 16.775,13.344 16.656 C 13.224 16.536,13.183 16.520,13.000 16.520 C 12.817 16.520,12.776 16.536,12.656 16.656 M16.656 16.656 C 16.537 16.775,16.520 16.818,16.520 16.993 C 16.520 17.233,16.643 17.408,16.861 17.480 C 17.043 17.540,17.242 17.477,17.379 17.314 C 17.458 17.220,17.480 17.150,17.480 16.993 C 17.480 16.818,17.463 16.775,17.344 16.656 C 17.224 16.536,17.183 16.520,17.000 16.520 C 16.817 16.520,16.776 16.536,16.656 16.656 " stroke="none" fill="black" fill-rule="evenodd"></path></svg>