<svg xmlns="http://www.w3.org/2000/svg" class="icon icon-tabler icon-tabler-rss" width="24" height="24" viewBox="0 0 24 24" stroke-width="1" stroke="currentColor" fill="none" stroke-linecap="round" stroke-linejoin="round"><path d="M3.662 3.650 C 3.537 3.775,3.520 3.816,3.520 3.991 C 3.520 4.202,3.606 4.358,3.773 4.447 C 3.824 4.475,4.181 4.506,4.640 4.524 C 6.074 4.579,7.321 4.795,8.680 5.224 C 12.058 6.291,15.015 8.536,16.970 11.520 C 18.515 13.876,19.367 16.545,19.476 19.360 C 19.494 19.819,19.525 20.176,19.553 20.227 C 19.642 20.394,19.798 20.480,20.009 20.480 C 20.184 20.480,20.225 20.463,20.350 20.338 L 20.492 20.196 20.467 19.328 C 20.369 15.900,19.101 12.480,16.908 9.728 C 13.905 5.961,9.365 3.662,4.672 3.532 L 3.804 3.508 3.662 3.650 M3.656 10.656 C 3.537 10.775,3.520 10.817,3.520 10.995 C 3.520 11.161,3.541 11.222,3.630 11.321 C 3.764 11.471,3.945 11.518,4.400 11.520 C 5.042 11.523,6.002 11.703,6.774 11.964 C 6.976 12.032,7.392 12.210,7.700 12.360 C 8.622 12.807,9.277 13.273,10.002 13.998 C 10.889 14.885,11.529 15.875,11.954 17.020 C 12.271 17.872,12.425 18.618,12.477 19.560 C 12.495 19.883,12.530 20.184,12.555 20.230 C 12.642 20.394,12.799 20.480,13.009 20.480 C 13.182 20.480,13.226 20.462,13.344 20.344 L 13.480 20.208 13.480 19.752 C 13.480 18.500,13.160 17.155,12.562 15.900 C 11.798 14.294,10.506 12.858,8.969 11.907 C 7.551 11.030,5.814 10.520,4.248 10.520 L 3.792 10.520 3.656 10.656 M4.468 17.597 C 4.055 17.763,3.691 18.152,3.575 18.552 C 3.480 18.879,3.514 19.364,3.651 19.646 C 3.787 19.924,4.077 20.213,4.359 20.351 C 4.557 20.449,4.624 20.460,5.000 20.460 C 5.376 20.460,5.443 20.449,5.641 20.351 C 5.924 20.213,6.213 19.924,6.351 19.641 C 6.449 19.443,6.460 19.376,6.460 19.000 C 6.460 18.624,6.449 18.557,6.351 18.359 C 6.213 18.076,5.924 17.787,5.643 17.650 C 5.345 17.504,4.763 17.478,4.468 17.597 M5.344 18.656 C 5.464 18.776,5.480 18.817,5.480 19.000 C 5.480 19.183,5.464 19.224,5.344 19.344 C 5.224 19.464,5.183 19.480,5.000 19.480 C 4.698 19.480,4.520 19.302,4.520 19.000 C 4.520 18.698,4.698 18.520,5.000 18.520 C 5.183 18.520,5.224 18.536,5.344 18.656 " stroke="none" fill="black" fill-rule="evenodd"></path></svg>