<svg xmlns="http://www.w3.org/2000/svg" class="icon icon-tabler icon-tabler-ruler" width="24" height="24" viewBox="0 0 24 24" stroke-width="1" stroke="currentColor" fill="none" stroke-linecap="round" stroke-linejoin="round"><path d="M6.240 3.520 L 4.580 3.540 4.359 3.649 C 4.083 3.784,3.788 4.075,3.659 4.339 C 3.603 4.453,3.542 4.679,3.519 4.860 C 3.490 5.076,3.480 7.458,3.488 12.220 C 3.499 18.801,3.505 19.273,3.570 19.465 C 3.717 19.896,4.127 20.298,4.556 20.431 C 4.759 20.494,5.031 20.500,7.500 20.500 C 9.969 20.500,10.241 20.494,10.444 20.431 C 10.873 20.298,11.284 19.895,11.429 19.465 C 11.492 19.279,11.500 18.921,11.519 15.511 L 11.540 11.762 11.651 11.651 L 11.762 11.540 15.511 11.519 C 18.921 11.500,19.279 11.492,19.465 11.429 C 19.895 11.284,20.298 10.873,20.431 10.444 C 20.494 10.241,20.500 9.969,20.500 7.500 C 20.500 5.031,20.494 4.759,20.431 4.556 C 20.296 4.121,19.879 3.700,19.463 3.579 C 19.286 3.528,18.475 3.518,13.579 3.510 C 10.455 3.504,7.153 3.509,6.240 3.520 M7.481 5.230 C 7.482 6.059,7.510 6.219,7.679 6.370 C 7.778 6.459,7.840 6.480,8.000 6.480 C 8.160 6.480,8.222 6.459,8.321 6.370 C 8.490 6.219,8.518 6.059,8.519 5.230 L 8.520 4.520 10.000 4.520 L 11.480 4.520 11.481 5.730 C 11.481 6.395,11.499 7.012,11.519 7.100 C 11.574 7.341,11.751 7.480,12.000 7.480 C 12.249 7.480,12.426 7.341,12.481 7.100 C 12.501 7.012,12.519 6.395,12.519 5.730 L 12.520 4.520 14.000 4.520 L 15.480 4.520 15.481 5.230 C 15.482 6.059,15.510 6.219,15.679 6.370 C 15.778 6.459,15.840 6.480,16.000 6.480 C 16.160 6.480,16.222 6.459,16.321 6.370 C 16.490 6.219,16.518 6.059,16.519 5.230 L 16.520 4.520 17.864 4.520 L 19.208 4.520 19.344 4.656 L 19.480 4.792 19.480 7.495 L 19.480 10.199 19.370 10.321 C 19.304 10.395,19.196 10.459,19.100 10.481 C 19.009 10.502,17.381 10.519,15.320 10.520 C 11.953 10.522,11.686 10.528,11.493 10.594 C 11.106 10.728,10.758 11.071,10.587 11.488 C 10.500 11.699,10.500 11.714,10.480 15.469 L 10.460 19.238 10.356 19.342 C 10.299 19.399,10.182 19.462,10.096 19.482 C 9.890 19.530,5.107 19.529,4.900 19.481 C 4.804 19.459,4.696 19.395,4.630 19.321 L 4.520 19.199 4.520 17.859 L 4.520 16.520 5.230 16.519 C 6.059 16.518,6.219 16.490,6.370 16.321 C 6.459 16.222,6.480 16.161,6.480 15.995 C 6.480 15.817,6.463 15.775,6.344 15.656 L 6.208 15.520 5.364 15.520 L 4.520 15.520 4.520 14.020 L 4.520 12.520 5.730 12.519 C 6.395 12.519,7.012 12.501,7.100 12.481 C 7.343 12.425,7.480 12.250,7.480 11.995 C 7.480 11.817,7.463 11.775,7.344 11.656 L 7.208 11.520 5.864 11.520 L 4.520 11.520 4.520 10.020 L 4.520 8.520 5.230 8.519 C 6.059 8.518,6.219 8.490,6.370 8.321 C 6.459 8.222,6.480 8.161,6.480 7.995 C 6.480 7.817,6.463 7.775,6.344 7.656 L 6.208 7.520 5.364 7.520 L 4.520 7.520 4.520 6.156 L 4.520 4.792 4.656 4.656 L 4.792 4.520 6.136 4.520 L 7.480 4.520 7.481 5.230 " stroke="none" fill="black" fill-rule="evenodd"></path></svg>