<svg xmlns="http://www.w3.org/2000/svg" class="icon icon-tabler icon-tabler-scale" width="24" height="24" viewBox="0 0 24 24" stroke-width="1" stroke="currentColor" fill="none" stroke-linecap="round" stroke-linejoin="round"><path d="M11.705 2.603 C 11.512 2.755,11.502 2.808,11.480 3.757 L 11.460 4.653 8.730 5.564 L 6.000 6.474 4.570 5.997 C 2.950 5.456,2.870 5.442,2.656 5.656 C 2.537 5.775,2.520 5.818,2.520 5.993 C 2.520 6.362,2.541 6.374,4.011 6.862 C 4.720 7.097,5.313 7.302,5.330 7.317 C 5.346 7.331,4.720 9.259,3.940 11.601 C 2.992 14.443,2.520 15.914,2.520 16.024 C 2.520 16.235,2.607 16.346,2.951 16.573 C 3.565 16.979,4.368 17.298,5.077 17.417 C 5.565 17.499,6.435 17.499,6.923 17.417 C 7.634 17.297,8.444 16.976,9.049 16.574 C 9.393 16.345,9.480 16.235,9.480 16.024 C 9.480 15.914,9.008 14.443,8.060 11.601 C 7.280 9.259,6.654 7.331,6.670 7.317 C 6.701 7.289,11.398 5.720,11.450 5.720 C 11.467 5.720,11.480 9.050,11.480 13.120 L 11.480 20.520 10.136 20.520 L 8.792 20.520 8.656 20.656 C 8.537 20.775,8.520 20.817,8.520 20.995 C 8.520 21.250,8.657 21.425,8.900 21.481 C 8.990 21.502,10.346 21.518,12.000 21.518 C 13.654 21.518,15.010 21.502,15.100 21.481 C 15.343 21.425,15.480 21.250,15.480 20.995 C 15.480 20.817,15.463 20.775,15.344 20.656 L 15.208 20.520 13.864 20.520 L 12.520 20.520 12.520 13.120 C 12.520 9.050,12.533 5.720,12.550 5.720 C 12.602 5.720,17.299 7.289,17.330 7.317 C 17.346 7.331,16.720 9.259,15.940 11.601 C 14.992 14.443,14.520 15.914,14.520 16.024 C 14.520 16.235,14.607 16.346,14.951 16.573 C 15.565 16.979,16.368 17.298,17.077 17.417 C 17.565 17.499,18.435 17.499,18.923 17.417 C 19.634 17.297,20.444 16.976,21.049 16.574 C 21.393 16.345,21.480 16.235,21.480 16.024 C 21.480 15.914,21.008 14.443,20.060 11.601 C 19.280 9.259,18.654 7.331,18.670 7.317 C 18.687 7.302,19.280 7.097,19.989 6.862 C 21.459 6.374,21.480 6.362,21.480 5.993 C 21.480 5.818,21.463 5.775,21.344 5.656 C 21.130 5.442,21.050 5.456,19.430 5.997 L 18.000 6.474 15.270 5.564 L 12.540 4.653 12.520 3.757 C 12.506 3.151,12.483 2.832,12.450 2.773 C 12.355 2.607,12.201 2.520,12.000 2.520 C 11.869 2.520,11.778 2.546,11.705 2.603 M7.210 12.209 C 8.152 15.035,8.389 15.788,8.350 15.826 C 8.267 15.906,7.729 16.162,7.430 16.263 C 6.984 16.415,6.555 16.480,5.999 16.480 C 5.439 16.480,5.028 16.417,4.560 16.259 C 4.146 16.119,3.619 15.836,3.624 15.757 C 3.631 15.666,5.976 8.640,6.000 8.640 C 6.011 8.640,6.556 10.246,7.210 12.209 M19.210 12.209 C 20.152 15.035,20.389 15.788,20.350 15.826 C 20.267 15.906,19.729 16.162,19.430 16.263 C 18.984 16.415,18.555 16.480,17.999 16.480 C 17.439 16.480,17.028 16.417,16.560 16.259 C 16.146 16.119,15.619 15.836,15.624 15.757 C 15.631 15.666,17.976 8.640,18.000 8.640 C 18.011 8.640,18.556 10.246,19.210 12.209 " stroke="none" fill="black" fill-rule="evenodd"></path></svg>