<svg xmlns="http://www.w3.org/2000/svg" class="icon icon-tabler icon-tabler-selector" width="24" height="24" viewBox="0 0 24 24" stroke-width="1" stroke="currentColor" fill="none" stroke-linecap="round" stroke-linejoin="round"><path d="M9.650 6.650 L 7.520 8.781 7.520 8.994 C 7.520 9.184,7.535 9.223,7.656 9.344 C 7.777 9.465,7.816 9.480,8.005 9.480 L 8.218 9.480 10.109 7.591 L 12.000 5.701 13.891 7.591 L 15.782 9.480 15.995 9.480 C 16.184 9.480,16.223 9.465,16.344 9.344 C 16.465 9.223,16.480 9.184,16.480 8.994 L 16.480 8.781 14.350 6.650 L 12.219 4.520 12.000 4.520 L 11.781 4.520 9.650 6.650 M7.656 14.656 C 7.535 14.777,7.520 14.816,7.520 15.006 L 7.520 15.219 9.650 17.350 L 11.781 19.480 12.000 19.480 L 12.219 19.480 14.350 17.350 L 16.480 15.219 16.480 15.006 C 16.480 14.816,16.465 14.777,16.344 14.656 C 16.223 14.535,16.184 14.520,15.995 14.520 L 15.782 14.520 13.891 16.409 L 12.000 18.299 10.109 16.409 L 8.218 14.520 8.005 14.520 C 7.816 14.520,7.777 14.535,7.656 14.656 " stroke="none" fill="black" fill-rule="evenodd"></path></svg>