<svg xmlns="http://www.w3.org/2000/svg" class="icon icon-tabler icon-tabler-send" width="24" height="24" viewBox="0 0 24 24" stroke-width="1" stroke="currentColor" fill="none" stroke-linecap="round" stroke-linejoin="round"><path d="M11.826 5.779 C 4.865 8.295,2.677 9.101,2.566 9.191 C 2.206 9.481,2.091 10.045,2.303 10.471 C 2.360 10.585,2.462 10.725,2.531 10.783 C 2.599 10.841,4.224 11.672,6.141 12.630 L 9.627 14.373 11.370 17.859 C 12.328 19.776,13.159 21.401,13.217 21.469 C 13.275 21.538,13.415 21.640,13.529 21.697 C 13.955 21.909,14.519 21.794,14.809 21.434 C 14.978 21.226,21.534 3.074,21.499 2.914 C 21.452 2.702,21.183 2.473,20.991 2.482 C 20.963 2.484,16.838 3.967,11.826 5.779 M14.483 8.817 L 9.907 13.393 6.551 11.715 C 4.705 10.792,3.201 10.018,3.208 9.995 C 3.216 9.971,3.717 9.774,4.321 9.556 C 4.926 9.337,6.167 8.889,7.080 8.560 C 7.993 8.230,11.053 7.125,13.880 6.102 C 16.707 5.080,19.029 4.243,19.040 4.242 C 19.051 4.241,17.000 6.300,14.483 8.817 M19.640 5.290 C 16.377 14.347,14.039 20.780,14.006 20.791 C 13.982 20.799,13.208 19.297,12.285 17.453 L 10.606 14.100 15.173 9.530 C 17.685 7.016,19.744 4.960,19.749 4.960 C 19.754 4.960,19.705 5.109,19.640 5.290 " stroke="none" fill="black" fill-rule="evenodd"></path></svg>