<svg xmlns="http://www.w3.org/2000/svg" class="icon icon-tabler icon-tabler-separator" width="24" height="24" viewBox="0 0 24 24" stroke-width="1" stroke="currentColor" fill="none" stroke-linecap="round" stroke-linejoin="round"><path d="M2.656 11.656 C 2.537 11.775,2.520 11.818,2.520 11.993 C 2.520 12.150,2.542 12.220,2.621 12.314 C 2.758 12.477,2.957 12.540,3.139 12.480 C 3.357 12.408,3.480 12.233,3.480 11.993 C 3.480 11.818,3.463 11.775,3.344 11.656 C 3.224 11.536,3.183 11.520,3.000 11.520 C 2.817 11.520,2.776 11.536,2.656 11.656 M6.656 11.656 C 6.537 11.775,6.520 11.817,6.520 11.995 C 6.520 12.250,6.657 12.425,6.900 12.481 C 7.113 12.530,16.887 12.530,17.100 12.481 C 17.343 12.425,17.480 12.250,17.480 11.995 C 17.480 11.817,17.463 11.775,17.344 11.656 L 17.208 11.520 12.000 11.520 L 6.792 11.520 6.656 11.656 M20.656 11.656 C 20.537 11.775,20.520 11.818,20.520 11.993 C 20.520 12.233,20.643 12.408,20.861 12.480 C 21.043 12.540,21.242 12.477,21.379 12.314 C 21.458 12.220,21.480 12.150,21.480 11.993 C 21.480 11.818,21.463 11.775,21.344 11.656 C 21.224 11.536,21.183 11.520,21.000 11.520 C 20.817 11.520,20.776 11.536,20.656 11.656 " stroke="none" fill="black" fill-rule="evenodd"></path></svg>