<svg xmlns="http://www.w3.org/2000/svg" class="icon icon-tabler icon-tabler-server" width="24" height="24" viewBox="0 0 24 24" stroke-width="1" stroke="currentColor" fill="none" stroke-linecap="round" stroke-linejoin="round"><path d="M5.259 3.578 C 4.081 3.837,3.065 4.752,2.686 5.896 C 2.531 6.362,2.481 6.878,2.481 8.000 C 2.481 9.122,2.531 9.638,2.686 10.104 C 2.903 10.761,3.413 11.459,3.941 11.822 C 4.061 11.905,4.160 11.985,4.160 12.000 C 4.160 12.015,4.061 12.095,3.941 12.178 C 3.633 12.390,3.244 12.815,3.010 13.196 C 2.735 13.642,2.571 14.154,2.521 14.725 C 2.469 15.311,2.469 16.690,2.521 17.276 C 2.599 18.158,2.915 18.835,3.540 19.460 C 4.165 20.085,4.842 20.401,5.724 20.479 C 6.340 20.533,17.660 20.533,18.276 20.479 C 20.018 20.325,21.325 19.018,21.479 17.275 C 21.531 16.690,21.531 15.310,21.479 14.725 C 21.388 13.698,20.862 12.750,20.065 12.180 C 19.942 12.092,19.842 12.011,19.842 12.000 C 19.842 11.989,19.942 11.908,20.065 11.820 C 20.607 11.432,21.098 10.758,21.314 10.104 C 21.469 9.638,21.519 9.122,21.519 8.000 C 21.519 6.468,21.408 5.874,20.993 5.200 C 20.538 4.461,19.916 3.964,19.079 3.672 L 18.700 3.540 12.100 3.533 C 6.765 3.527,5.454 3.536,5.259 3.578 M18.834 4.635 C 19.147 4.752,19.619 5.063,19.818 5.283 C 20.048 5.538,20.266 5.898,20.368 6.192 C 20.458 6.454,20.460 6.495,20.460 8.000 C 20.460 9.505,20.458 9.546,20.368 9.808 C 20.266 10.102,20.048 10.462,19.818 10.717 C 19.609 10.949,19.135 11.255,18.813 11.366 L 18.540 11.460 12.000 11.460 L 5.460 11.460 5.192 11.368 C 4.680 11.191,4.235 10.844,3.925 10.379 C 3.550 9.819,3.545 9.794,3.529 8.110 C 3.518 6.861,3.525 6.602,3.579 6.390 C 3.761 5.679,4.246 5.081,4.900 4.759 C 5.407 4.510,4.965 4.524,12.080 4.532 L 18.580 4.540 18.834 4.635 M6.656 7.656 C 6.537 7.775,6.520 7.818,6.520 7.993 C 6.520 8.477,7.069 8.682,7.379 8.314 C 7.458 8.220,7.480 8.150,7.480 7.993 C 7.480 7.818,7.463 7.775,7.344 7.656 C 7.224 7.536,7.183 7.520,7.000 7.520 C 6.817 7.520,6.776 7.536,6.656 7.656 M18.834 12.635 C 19.147 12.752,19.619 13.063,19.818 13.283 C 20.048 13.538,20.266 13.898,20.368 14.192 C 20.458 14.454,20.460 14.495,20.460 16.000 C 20.460 17.505,20.458 17.546,20.368 17.808 C 20.190 18.320,19.844 18.765,19.378 19.076 C 19.023 19.313,18.682 19.432,18.213 19.481 C 17.748 19.530,6.252 19.530,5.787 19.481 C 4.976 19.396,4.361 19.032,3.925 18.379 C 3.550 17.819,3.545 17.794,3.529 16.110 C 3.518 14.861,3.525 14.602,3.579 14.390 C 3.761 13.679,4.246 13.081,4.900 12.759 C 5.407 12.510,4.965 12.524,12.080 12.532 L 18.580 12.540 18.834 12.635 M6.656 15.656 C 6.537 15.775,6.520 15.818,6.520 15.993 C 6.520 16.233,6.643 16.408,6.861 16.480 C 7.043 16.540,7.242 16.477,7.379 16.314 C 7.458 16.220,7.480 16.150,7.480 15.993 C 7.480 15.818,7.463 15.775,7.344 15.656 C 7.224 15.536,7.183 15.520,7.000 15.520 C 6.817 15.520,6.776 15.536,6.656 15.656 " stroke="none" fill="black" fill-rule="evenodd"></path></svg>