<svg xmlns="http://www.w3.org/2000/svg" class="icon icon-tabler icon-tabler-servicemark" width="24" height="24" viewBox="0 0 24 24" stroke-width="1" stroke="currentColor" fill="none" stroke-linecap="round" stroke-linejoin="round"><path d="M5.920 8.595 C 5.562 8.711,5.356 8.836,5.096 9.097 C 4.703 9.490,4.520 9.935,4.520 10.500 C 4.520 11.065,4.703 11.510,5.096 11.904 C 5.566 12.374,5.909 12.482,7.023 12.516 L 7.826 12.540 8.022 12.661 C 8.143 12.736,8.264 12.857,8.339 12.978 C 8.448 13.154,8.460 13.207,8.460 13.500 C 8.460 13.793,8.448 13.846,8.339 14.022 C 8.187 14.267,7.933 14.429,7.618 14.481 C 7.487 14.502,6.798 14.520,6.086 14.520 L 4.792 14.520 4.656 14.656 C 4.536 14.776,4.520 14.817,4.520 15.000 C 4.520 15.182,4.537 15.225,4.652 15.340 C 4.832 15.520,4.964 15.532,6.526 15.510 C 7.920 15.491,8.008 15.479,8.459 15.250 C 8.714 15.121,9.121 14.714,9.250 14.459 C 9.561 13.845,9.561 13.155,9.250 12.541 C 9.121 12.286,8.714 11.879,8.459 11.750 C 8.084 11.560,7.870 11.520,7.223 11.520 C 6.891 11.520,6.513 11.502,6.382 11.481 C 6.067 11.429,5.813 11.267,5.661 11.022 C 5.552 10.846,5.540 10.793,5.540 10.500 C 5.540 10.207,5.552 10.154,5.661 9.978 C 5.736 9.857,5.857 9.736,5.978 9.661 L 6.173 9.540 7.657 9.520 C 8.734 9.505,9.164 9.486,9.227 9.450 C 9.396 9.353,9.480 9.201,9.480 8.991 C 9.480 8.818,9.462 8.774,9.344 8.656 L 9.208 8.520 7.674 8.522 C 6.317 8.524,6.115 8.532,5.920 8.595 M12.679 8.630 C 12.605 8.696,12.541 8.804,12.519 8.900 C 12.470 9.110,12.470 14.890,12.519 15.100 C 12.541 15.196,12.605 15.304,12.679 15.370 C 12.905 15.573,13.293 15.501,13.450 15.227 C 13.488 15.162,13.505 14.571,13.520 12.849 L 13.540 10.559 14.576 11.941 C 15.146 12.702,15.657 13.359,15.711 13.402 C 15.846 13.508,16.154 13.508,16.289 13.402 C 16.343 13.359,16.854 12.702,17.424 11.941 L 18.460 10.559 18.480 12.849 C 18.495 14.571,18.512 15.162,18.550 15.227 C 18.707 15.501,19.095 15.573,19.321 15.370 C 19.395 15.304,19.459 15.196,19.481 15.100 C 19.502 15.010,19.518 13.654,19.518 12.000 C 19.518 10.346,19.502 8.990,19.481 8.900 C 19.426 8.661,19.249 8.520,19.005 8.520 C 18.873 8.520,18.779 8.545,18.712 8.598 C 18.657 8.641,18.032 9.451,17.322 10.398 C 16.611 11.345,16.017 12.120,16.000 12.120 C 15.983 12.120,15.389 11.345,14.678 10.398 C 13.968 9.451,13.343 8.641,13.288 8.598 C 13.132 8.475,12.834 8.491,12.679 8.630 " stroke="none" fill="black" fill-rule="evenodd"></path></svg>