<svg xmlns="http://www.w3.org/2000/svg" class="icon icon-tabler icon-tabler-settings" width="24" height="24" viewBox="0 0 24 24" stroke-width="1" stroke="currentColor" fill="none" stroke-linecap="round" stroke-linejoin="round"><path d="M11.287 2.622 C 10.562 2.869,10.102 3.364,9.843 4.177 C 9.731 4.528,9.573 4.758,9.334 4.916 C 9.087 5.079,8.882 5.131,8.557 5.113 C 8.341 5.101,8.233 5.067,7.975 4.933 C 7.544 4.708,7.264 4.633,6.857 4.634 C 6.242 4.636,5.745 4.847,5.296 5.296 C 4.846 5.745,4.640 6.230,4.640 6.839 C 4.640 7.269,4.713 7.554,4.929 7.968 C 5.193 8.474,5.189 8.921,4.916 9.334 C 4.758 9.573,4.528 9.731,4.177 9.843 C 3.360 10.104,2.865 10.565,2.621 11.294 C 2.478 11.719,2.478 12.281,2.621 12.706 C 2.865 13.435,3.360 13.896,4.177 14.157 C 4.528 14.269,4.758 14.427,4.916 14.666 C 5.079 14.913,5.131 15.118,5.113 15.443 C 5.101 15.659,5.067 15.767,4.933 16.025 C 4.708 16.456,4.633 16.736,4.634 17.143 C 4.636 17.758,4.847 18.255,5.296 18.704 C 5.745 19.154,6.230 19.360,6.839 19.360 C 7.269 19.360,7.554 19.287,7.968 19.071 C 8.474 18.807,8.921 18.811,9.334 19.084 C 9.573 19.242,9.731 19.472,9.843 19.823 C 10.104 20.640,10.565 21.135,11.294 21.379 C 11.651 21.499,12.203 21.517,12.575 21.420 C 13.347 21.219,13.889 20.672,14.158 19.823 C 14.269 19.472,14.427 19.243,14.666 19.084 C 14.913 18.921,15.118 18.869,15.443 18.887 C 15.658 18.899,15.768 18.933,16.024 19.067 C 16.463 19.296,16.708 19.360,17.140 19.360 C 17.772 19.360,18.249 19.160,18.704 18.704 C 19.154 18.255,19.360 17.770,19.360 17.161 C 19.360 16.731,19.287 16.446,19.071 16.032 C 18.807 15.526,18.811 15.079,19.084 14.666 C 19.243 14.427,19.472 14.269,19.823 14.158 C 20.672 13.889,21.219 13.347,21.420 12.575 C 21.517 12.203,21.499 11.651,21.379 11.294 C 21.135 10.565,20.640 10.104,19.823 9.843 C 19.472 9.731,19.242 9.573,19.084 9.334 C 18.921 9.087,18.869 8.882,18.887 8.557 C 18.899 8.342,18.933 8.232,19.067 7.976 C 19.296 7.537,19.360 7.292,19.360 6.860 C 19.360 6.228,19.160 5.751,18.704 5.296 C 18.255 4.846,17.770 4.640,17.161 4.640 C 16.731 4.640,16.446 4.713,16.030 4.930 C 15.717 5.093,15.690 5.100,15.342 5.100 C 15.011 5.100,14.961 5.089,14.760 4.976 C 14.477 4.817,14.272 4.547,14.159 4.184 C 13.900 3.359,13.399 2.829,12.666 2.604 C 12.262 2.480,11.680 2.488,11.287 2.622 M12.448 3.582 C 12.805 3.704,13.079 4.031,13.200 4.480 C 13.297 4.842,13.493 5.173,13.780 5.462 C 14.229 5.913,14.722 6.120,15.347 6.120 C 15.749 6.120,16.031 6.046,16.489 5.820 C 16.818 5.657,16.881 5.640,17.140 5.640 C 17.380 5.640,17.467 5.660,17.671 5.762 C 18.110 5.981,18.365 6.387,18.365 6.865 C 18.365 7.102,18.344 7.176,18.182 7.506 C 17.953 7.974,17.880 8.251,17.880 8.653 C 17.880 9.264,18.085 9.761,18.520 10.204 C 18.790 10.479,19.170 10.706,19.521 10.800 C 19.976 10.923,20.300 11.198,20.423 11.568 C 20.516 11.850,20.490 12.322,20.366 12.560 C 20.182 12.915,20.013 13.036,19.430 13.232 C 18.476 13.553,17.880 14.366,17.880 15.347 C 17.880 15.753,17.958 16.052,18.182 16.500 C 18.344 16.825,18.361 16.887,18.360 17.144 C 18.359 17.824,17.816 18.365,17.135 18.365 C 16.898 18.365,16.824 18.344,16.494 18.182 C 16.026 17.953,15.749 17.880,15.347 17.880 C 14.724 17.880,14.233 18.087,13.780 18.540 C 13.493 18.827,13.298 19.157,13.200 19.520 C 13.022 20.182,12.590 20.505,11.927 20.474 C 11.337 20.446,10.965 20.132,10.800 19.520 C 10.702 19.157,10.507 18.827,10.220 18.540 C 9.767 18.087,9.276 17.880,8.653 17.880 C 8.247 17.880,7.948 17.958,7.500 18.182 C 7.175 18.344,7.113 18.361,6.856 18.360 C 6.178 18.359,5.635 17.816,5.635 17.138 C 5.635 16.904,5.658 16.825,5.836 16.447 C 6.073 15.942,6.118 15.768,6.119 15.340 C 6.120 14.331,5.457 13.481,4.440 13.187 C 3.836 13.012,3.520 12.605,3.520 12.002 C 3.520 11.619,3.613 11.381,3.862 11.133 C 4.035 10.959,4.117 10.911,4.365 10.837 C 4.853 10.690,5.191 10.499,5.480 10.204 C 5.915 9.761,6.120 9.264,6.120 8.653 C 6.120 8.251,6.046 7.969,5.820 7.511 C 5.657 7.182,5.640 7.119,5.641 6.863 C 5.642 6.436,5.827 6.082,6.171 5.847 C 6.400 5.691,6.594 5.633,6.888 5.635 C 7.098 5.636,7.189 5.663,7.507 5.818 C 7.976 6.048,8.251 6.120,8.658 6.120 C 9.215 6.119,9.717 5.928,10.128 5.561 C 10.440 5.282,10.650 4.944,10.798 4.482 C 10.965 3.956,11.149 3.742,11.580 3.573 C 11.755 3.505,12.236 3.510,12.448 3.582 M11.259 8.576 C 10.065 8.848,9.079 9.739,8.676 10.910 C 8.543 11.294,8.541 11.310,8.541 12.000 C 8.541 12.687,8.543 12.707,8.672 13.080 C 8.863 13.634,9.117 14.037,9.540 14.460 C 9.963 14.883,10.366 15.137,10.920 15.328 C 11.293 15.457,11.313 15.459,12.000 15.459 C 12.688 15.459,12.706 15.457,13.079 15.327 C 13.288 15.255,13.558 15.139,13.679 15.071 C 14.449 14.635,15.035 13.930,15.324 13.090 C 15.457 12.705,15.459 12.690,15.459 12.000 C 15.459 11.310,15.457 11.295,15.324 10.910 C 15.035 10.070,14.449 9.365,13.679 8.929 C 13.558 8.861,13.288 8.747,13.079 8.676 C 12.730 8.557,12.653 8.546,12.100 8.534 C 11.694 8.526,11.422 8.539,11.259 8.576 M12.834 9.640 C 13.142 9.749,13.615 10.059,13.818 10.283 C 14.048 10.538,14.266 10.898,14.368 11.192 C 14.446 11.421,14.460 11.540,14.460 12.000 C 14.460 12.460,14.446 12.579,14.368 12.808 C 14.190 13.320,13.844 13.765,13.378 14.076 C 12.916 14.385,12.647 14.460,12.000 14.460 C 11.540 14.460,11.421 14.446,11.192 14.368 C 10.898 14.266,10.538 14.048,10.283 13.818 C 10.058 13.615,9.749 13.141,9.640 12.834 C 9.516 12.481,9.484 11.763,9.577 11.399 C 9.803 10.515,10.484 9.821,11.360 9.581 C 11.694 9.489,12.500 9.522,12.834 9.640 " stroke="none" fill="black" fill-rule="evenodd"></path></svg>