<svg xmlns="http://www.w3.org/2000/svg" class="icon icon-tabler icon-tabler-shape" width="24" height="24" viewBox="0 0 24 24" stroke-width="1" stroke="currentColor" fill="none" stroke-linecap="round" stroke-linejoin="round"><path d="M5.274 3.613 C 4.869 3.736,4.560 3.923,4.242 4.241 C 3.718 4.764,3.500 5.331,3.528 6.098 C 3.541 6.446,3.567 6.603,3.652 6.839 C 3.907 7.554,4.496 8.134,5.197 8.359 L 5.480 8.450 5.480 12.001 L 5.480 15.552 5.203 15.636 C 4.465 15.860,3.810 16.552,3.600 17.328 C 3.477 17.786,3.498 18.408,3.652 18.839 C 3.908 19.557,4.492 20.130,5.207 20.364 C 5.459 20.447,5.576 20.460,6.040 20.459 C 6.549 20.458,6.598 20.450,6.888 20.334 C 7.601 20.048,8.139 19.488,8.359 18.803 L 8.450 18.520 12.000 18.520 L 15.550 18.520 15.643 18.808 C 15.871 19.518,16.483 20.127,17.207 20.364 C 17.459 20.447,17.576 20.460,18.040 20.459 C 18.553 20.457,18.596 20.451,18.900 20.328 C 19.661 20.022,20.216 19.396,20.417 18.614 C 20.498 18.298,20.498 17.702,20.417 17.386 C 20.211 16.586,19.609 15.925,18.840 15.653 L 18.520 15.540 18.520 12.000 L 18.520 8.460 18.840 8.347 C 19.609 8.075,20.211 7.414,20.417 6.614 C 20.498 6.298,20.498 5.702,20.417 5.386 C 20.215 4.603,19.657 3.973,18.900 3.674 C 18.624 3.565,18.517 3.545,18.120 3.529 C 17.731 3.514,17.608 3.525,17.330 3.600 C 16.552 3.810,15.902 4.422,15.642 5.189 L 15.536 5.500 12.007 5.510 L 8.478 5.520 8.444 5.430 C 8.424 5.381,8.362 5.214,8.305 5.060 C 8.085 4.470,7.530 3.921,6.900 3.673 C 6.613 3.559,6.529 3.545,6.080 3.533 C 5.647 3.521,5.539 3.532,5.274 3.613 M6.641 4.649 C 6.924 4.787,7.213 5.076,7.351 5.359 C 7.449 5.557,7.460 5.624,7.460 6.000 C 7.460 6.348,7.445 6.453,7.372 6.610 C 7.250 6.875,6.912 7.218,6.644 7.350 C 6.443 7.449,6.377 7.460,6.000 7.460 C 5.624 7.460,5.557 7.449,5.359 7.351 C 5.076 7.213,4.787 6.924,4.649 6.641 C 4.499 6.337,4.474 5.802,4.593 5.488 C 4.743 5.094,5.077 4.753,5.468 4.597 C 5.766 4.478,6.345 4.503,6.641 4.649 M18.641 4.649 C 18.924 4.787,19.213 5.076,19.351 5.359 C 19.449 5.557,19.460 5.624,19.460 6.000 C 19.460 6.348,19.445 6.453,19.372 6.610 C 19.250 6.875,18.912 7.218,18.644 7.350 C 18.443 7.449,18.377 7.460,18.000 7.460 C 17.624 7.460,17.557 7.449,17.359 7.351 C 17.076 7.213,16.787 6.924,16.649 6.641 C 16.499 6.337,16.474 5.802,16.593 5.488 C 16.743 5.094,17.077 4.753,17.468 4.597 C 17.766 4.478,18.345 4.503,18.641 4.649 M15.643 6.808 C 15.870 7.515,16.487 8.131,17.197 8.359 L 17.480 8.450 17.480 12.001 L 17.480 15.552 17.208 15.635 C 16.919 15.722,16.551 15.940,16.287 16.179 C 16.042 16.400,15.759 16.842,15.642 17.189 L 15.536 17.500 12.001 17.500 L 8.465 17.500 8.353 17.180 C 8.097 16.450,7.531 15.886,6.807 15.640 L 6.520 15.542 6.520 12.000 L 6.520 8.458 6.807 8.360 C 7.119 8.254,7.457 8.053,7.717 7.818 C 7.958 7.600,8.252 7.137,8.357 6.808 L 8.450 6.520 12.000 6.520 L 15.550 6.520 15.643 6.808 M6.641 16.649 C 6.924 16.787,7.213 17.076,7.351 17.359 C 7.449 17.557,7.460 17.624,7.460 18.000 C 7.460 18.348,7.445 18.453,7.372 18.610 C 7.250 18.875,6.912 19.218,6.644 19.350 C 6.443 19.449,6.377 19.460,6.000 19.460 C 5.624 19.460,5.557 19.449,5.359 19.351 C 5.076 19.213,4.787 18.924,4.649 18.641 C 4.499 18.337,4.474 17.802,4.593 17.488 C 4.743 17.094,5.077 16.753,5.468 16.597 C 5.766 16.478,6.345 16.503,6.641 16.649 M18.641 16.649 C 18.924 16.787,19.213 17.076,19.351 17.359 C 19.449 17.557,19.460 17.624,19.460 18.000 C 19.460 18.348,19.445 18.453,19.372 18.610 C 19.250 18.875,18.912 19.218,18.644 19.350 C 18.443 19.449,18.377 19.460,18.000 19.460 C 17.624 19.460,17.557 19.449,17.359 19.351 C 17.076 19.213,16.787 18.924,16.649 18.641 C 16.499 18.337,16.474 17.802,16.593 17.488 C 16.743 17.094,17.077 16.753,17.468 16.597 C 17.766 16.478,18.345 16.503,18.641 16.649 " stroke="none" fill="black" fill-rule="evenodd"></path></svg>