<svg xmlns="http://www.w3.org/2000/svg" class="icon icon-tabler icon-tabler-share" width="24" height="24" viewBox="0 0 24 24" stroke-width="1" stroke="currentColor" fill="none" stroke-linecap="round" stroke-linejoin="round"><path d="M17.259 2.576 C 16.064 2.848,15.070 3.747,14.679 4.910 C 14.564 5.254,14.546 5.365,14.529 5.844 C 14.515 6.256,14.526 6.467,14.577 6.719 C 14.614 6.902,14.630 7.065,14.612 7.081 C 14.595 7.097,13.302 7.769,11.740 8.574 L 8.900 10.038 8.821 9.929 C 8.674 9.726,8.341 9.391,8.120 9.222 C 7.795 8.974,7.504 8.820,7.079 8.673 C 6.706 8.543,6.688 8.541,6.000 8.541 C 5.313 8.541,5.293 8.543,4.920 8.672 C 4.366 8.863,3.963 9.117,3.540 9.540 C 3.117 9.963,2.863 10.366,2.672 10.920 C 2.543 11.293,2.541 11.313,2.541 12.000 C 2.541 12.687,2.543 12.707,2.672 13.080 C 2.863 13.634,3.117 14.037,3.540 14.460 C 3.963 14.883,4.366 15.137,4.920 15.328 C 5.293 15.457,5.313 15.459,6.000 15.459 C 6.688 15.459,6.706 15.457,7.079 15.327 C 7.504 15.180,7.795 15.026,8.120 14.778 C 8.341 14.609,8.674 14.274,8.821 14.071 L 8.900 13.962 11.740 15.426 C 13.302 16.231,14.595 16.903,14.612 16.919 C 14.630 16.935,14.614 17.098,14.577 17.281 C 14.526 17.532,14.515 17.745,14.529 18.156 C 14.545 18.633,14.563 18.747,14.675 19.080 C 14.860 19.629,15.114 20.034,15.540 20.460 C 15.963 20.883,16.366 21.137,16.920 21.328 C 17.293 21.457,17.313 21.459,18.000 21.459 C 18.688 21.459,18.706 21.457,19.079 21.327 C 19.288 21.255,19.558 21.139,19.679 21.071 C 20.449 20.635,21.035 19.930,21.324 19.090 C 21.457 18.705,21.459 18.690,21.459 18.000 C 21.459 17.310,21.457 17.295,21.324 16.910 C 21.035 16.070,20.449 15.365,19.679 14.929 C 19.558 14.861,19.288 14.745,19.079 14.673 C 18.706 14.543,18.688 14.541,18.000 14.541 C 17.313 14.541,17.293 14.543,16.920 14.672 C 16.711 14.744,16.397 14.888,16.222 14.992 C 15.922 15.169,15.350 15.682,15.176 15.928 L 15.100 16.036 12.253 14.568 C 10.688 13.760,9.395 13.088,9.381 13.074 C 9.367 13.060,9.383 12.912,9.418 12.746 C 9.498 12.357,9.498 11.643,9.418 11.254 C 9.383 11.088,9.367 10.940,9.381 10.926 C 9.395 10.912,10.688 10.240,12.253 9.432 L 15.100 7.964 15.176 8.072 C 15.350 8.318,15.922 8.831,16.222 9.008 C 16.397 9.112,16.711 9.256,16.920 9.328 C 17.293 9.457,17.313 9.459,18.000 9.459 C 18.688 9.459,18.706 9.457,19.079 9.327 C 19.288 9.255,19.558 9.139,19.679 9.071 C 20.449 8.635,21.035 7.930,21.324 7.090 C 21.457 6.705,21.459 6.690,21.459 6.000 C 21.459 5.310,21.457 5.295,21.324 4.910 C 21.035 4.070,20.449 3.365,19.679 2.929 C 19.558 2.861,19.288 2.747,19.079 2.676 C 18.730 2.557,18.653 2.546,18.100 2.534 C 17.694 2.526,17.422 2.539,17.259 2.576 M18.834 3.640 C 19.142 3.749,19.615 4.059,19.818 4.283 C 20.048 4.538,20.266 4.898,20.368 5.192 C 20.446 5.421,20.460 5.540,20.460 6.000 C 20.460 6.460,20.446 6.579,20.368 6.808 C 20.266 7.102,20.048 7.462,19.818 7.717 C 19.615 7.942,19.141 8.251,18.834 8.360 C 18.481 8.484,17.763 8.516,17.399 8.423 C 16.503 8.194,15.812 7.504,15.578 6.605 C 15.502 6.313,15.504 5.679,15.582 5.378 C 15.807 4.512,16.493 3.819,17.360 3.581 C 17.694 3.489,18.500 3.522,18.834 3.640 M6.622 9.582 C 7.500 9.810,8.190 10.505,8.422 11.395 C 8.496 11.680,8.496 12.320,8.422 12.605 C 8.188 13.504,7.497 14.194,6.601 14.423 C 6.240 14.515,5.519 14.484,5.171 14.361 C 4.892 14.263,4.530 14.041,4.283 13.818 C 4.058 13.615,3.749 13.141,3.640 12.834 C 3.516 12.481,3.484 11.763,3.577 11.399 C 3.804 10.514,4.493 9.812,5.360 9.583 C 5.657 9.505,6.322 9.504,6.622 9.582 M18.834 15.640 C 19.142 15.749,19.615 16.059,19.818 16.283 C 20.048 16.538,20.266 16.898,20.368 17.192 C 20.446 17.421,20.460 17.540,20.460 18.000 C 20.460 18.460,20.446 18.579,20.368 18.808 C 20.190 19.320,19.844 19.765,19.378 20.076 C 18.916 20.385,18.647 20.460,18.000 20.460 C 17.540 20.460,17.421 20.446,17.192 20.368 C 16.898 20.266,16.538 20.048,16.283 19.818 C 16.058 19.615,15.749 19.141,15.640 18.834 C 15.519 18.490,15.484 17.762,15.573 17.417 C 15.802 16.519,16.475 15.829,17.360 15.582 C 17.693 15.489,18.498 15.521,18.834 15.640 " stroke="none" fill="black" fill-rule="evenodd"></path></svg>