<svg xmlns="http://www.w3.org/2000/svg" class="icon icon-tabler icon-tabler-shield" width="24" height="24" viewBox="0 0 24 24" stroke-width="1" stroke="currentColor" fill="none" stroke-linecap="round" stroke-linejoin="round"><path d="M11.336 2.902 C 10.042 3.942,8.733 4.630,7.228 5.059 C 6.204 5.352,5.382 5.472,4.160 5.507 C 3.256 5.533,3.170 5.554,3.067 5.770 C 2.893 6.138,2.640 7.421,2.557 8.360 C 2.491 9.099,2.531 10.416,2.640 11.140 C 2.926 13.036,3.560 14.709,4.581 16.260 C 6.201 18.721,8.642 20.533,11.455 21.362 C 11.999 21.523,12.114 21.513,12.907 21.248 C 14.788 20.617,16.397 19.631,17.780 18.260 C 20.658 15.405,21.960 11.396,21.317 7.360 C 21.228 6.797,21.027 5.970,20.932 5.769 C 20.832 5.559,20.711 5.520,20.150 5.520 C 17.331 5.520,14.832 4.646,12.664 2.903 C 12.214 2.541,12.178 2.520,12.000 2.520 C 11.822 2.520,11.786 2.541,11.336 2.902 M12.342 3.925 C 14.393 5.504,16.826 6.379,19.510 6.504 L 20.120 6.532 20.158 6.676 C 20.425 7.682,20.545 9.240,20.442 10.362 C 20.184 13.180,18.985 15.698,16.976 17.640 C 15.688 18.884,14.265 19.746,12.573 20.306 L 12.006 20.493 11.433 20.306 C 9.767 19.762,8.278 18.860,7.005 17.622 C 5.156 15.826,4.028 13.606,3.621 10.960 C 3.530 10.367,3.497 9.062,3.558 8.400 C 3.604 7.887,3.751 6.987,3.840 6.676 L 3.880 6.532 4.490 6.504 C 7.177 6.379,9.604 5.506,11.658 3.925 C 11.833 3.790,11.987 3.680,12.000 3.680 C 12.013 3.680,12.167 3.790,12.342 3.925 " stroke="none" fill="black" fill-rule="evenodd"></path></svg>