<svg xmlns="http://www.w3.org/2000/svg" class="icon icon-tabler icon-tabler-shirt" width="24" height="24" viewBox="0 0 24 24" stroke-width="1" stroke="currentColor" fill="none" stroke-linecap="round" stroke-linejoin="round"><path d="M5.780 4.542 C 2.376 5.680,2.550 5.603,2.501 6.007 C 2.487 6.124,2.481 7.328,2.488 8.682 C 2.499 10.954,2.505 11.152,2.571 11.251 C 2.733 11.499,2.732 11.499,4.167 11.512 L 5.477 11.525 5.489 15.392 C 5.501 18.935,5.507 19.277,5.571 19.465 C 5.716 19.895,6.127 20.298,6.556 20.431 C 6.764 20.495,7.158 20.500,12.000 20.500 C 16.842 20.500,17.236 20.495,17.444 20.431 C 17.873 20.298,18.284 19.895,18.429 19.465 C 18.493 19.277,18.499 18.935,18.511 15.392 L 18.523 11.525 19.833 11.512 C 21.268 11.499,21.267 11.499,21.429 11.251 C 21.495 11.152,21.501 10.954,21.512 8.682 C 21.519 7.328,21.513 6.125,21.499 6.010 C 21.450 5.602,21.640 5.687,18.209 4.543 C 16.078 3.833,15.087 3.520,14.966 3.520 C 14.822 3.520,14.769 3.543,14.660 3.652 C 14.549 3.763,14.524 3.823,14.503 4.022 C 14.433 4.716,14.329 5.027,14.027 5.448 C 13.685 5.926,13.175 6.278,12.622 6.419 C 12.315 6.497,11.685 6.497,11.378 6.419 C 10.825 6.278,10.315 5.926,9.973 5.448 C 9.671 5.027,9.567 4.716,9.497 4.022 C 9.476 3.823,9.451 3.763,9.340 3.652 C 9.226 3.538,9.182 3.520,9.014 3.523 C 8.873 3.525,7.995 3.802,5.780 4.542 M8.677 5.078 C 8.855 5.619,9.131 6.059,9.557 6.480 C 9.965 6.882,10.383 7.142,10.920 7.328 C 11.293 7.457,11.313 7.459,12.000 7.459 C 12.688 7.459,12.706 7.457,13.079 7.327 C 13.288 7.255,13.558 7.139,13.679 7.071 C 14.458 6.630,15.049 5.914,15.323 5.077 C 15.425 4.764,15.467 4.683,15.517 4.699 C 15.552 4.710,16.678 5.086,18.020 5.533 L 20.460 6.347 20.470 8.433 L 20.481 10.520 19.141 10.520 L 17.801 10.520 17.679 10.630 C 17.605 10.696,17.541 10.804,17.519 10.900 C 17.498 10.992,17.482 12.789,17.481 15.129 L 17.480 19.199 17.370 19.321 C 17.304 19.395,17.196 19.459,17.100 19.481 C 16.887 19.530,7.113 19.530,6.900 19.481 C 6.804 19.459,6.696 19.395,6.630 19.321 L 6.520 19.199 6.519 15.129 C 6.518 12.789,6.502 10.992,6.481 10.900 C 6.459 10.804,6.395 10.696,6.321 10.630 L 6.199 10.520 4.859 10.520 L 3.519 10.520 3.530 8.433 L 3.540 6.347 6.020 5.516 C 7.384 5.060,8.511 4.685,8.524 4.683 C 8.536 4.681,8.606 4.859,8.677 5.078 " stroke="none" fill="black" fill-rule="evenodd"></path></svg>