<svg xmlns="http://www.w3.org/2000/svg" class="icon icon-tabler icon-tabler-shopping-cart" width="24" height="24" viewBox="0 0 24 24" stroke-width="1" stroke="currentColor" fill="none" stroke-linecap="round" stroke-linejoin="round"><path d="M2.656 2.656 C 2.537 2.775,2.520 2.817,2.520 2.995 C 2.520 3.161,2.541 3.222,2.630 3.321 C 2.783 3.492,2.940 3.518,3.821 3.519 L 4.581 3.520 4.952 5.790 C 5.156 7.038,5.340 8.141,5.361 8.240 C 5.382 8.339,5.652 9.939,5.961 11.795 C 6.484 14.939,6.531 15.189,6.656 15.459 C 6.880 15.944,7.226 16.396,7.609 16.703 L 7.757 16.823 7.507 17.004 C 7.070 17.322,6.743 17.798,6.600 18.328 C 6.477 18.786,6.498 19.408,6.652 19.839 C 6.908 20.557,7.492 21.130,8.207 21.364 C 8.459 21.447,8.576 21.460,9.040 21.459 C 9.553 21.457,9.596 21.451,9.900 21.328 C 10.667 21.020,11.215 20.397,11.421 19.600 C 11.470 19.407,11.483 19.227,11.471 18.900 C 11.452 18.413,11.362 18.082,11.158 17.747 C 11.093 17.641,11.040 17.547,11.040 17.537 C 11.040 17.528,11.922 17.520,13.000 17.520 C 14.078 17.520,14.960 17.527,14.960 17.535 C 14.960 17.543,14.899 17.652,14.824 17.776 C 14.498 18.317,14.424 19.202,14.652 19.839 C 14.908 20.557,15.492 21.130,16.207 21.364 C 16.459 21.447,16.576 21.460,17.040 21.459 C 17.553 21.457,17.596 21.451,17.900 21.328 C 18.882 20.933,19.480 20.053,19.480 19.000 C 19.480 18.383,19.303 17.881,18.916 17.402 C 18.798 17.256,18.728 17.137,18.754 17.129 C 18.779 17.120,18.930 17.028,19.090 16.924 C 19.628 16.572,20.068 16.058,20.346 15.455 C 20.479 15.167,20.495 15.071,20.981 11.671 C 21.256 9.752,21.480 8.097,21.480 7.992 C 21.480 7.838,21.458 7.776,21.363 7.671 L 21.247 7.540 13.753 7.520 L 6.260 7.500 5.894 5.320 C 5.693 4.121,5.515 3.060,5.500 2.962 C 5.481 2.838,5.433 2.745,5.340 2.652 L 5.208 2.520 4.000 2.520 L 2.792 2.520 2.656 2.656 M20.400 8.590 C 20.400 8.629,20.202 10.055,19.961 11.760 L 19.521 14.860 19.373 15.160 C 19.156 15.599,18.730 16.016,18.280 16.230 C 17.683 16.514,17.929 16.500,13.500 16.500 C 9.071 16.500,9.317 16.514,8.720 16.230 C 8.271 16.017,7.844 15.600,7.626 15.160 C 7.480 14.866,7.468 14.802,6.959 11.731 C 6.673 10.010,6.440 8.583,6.440 8.561 C 6.440 8.533,8.686 8.520,13.420 8.520 C 20.041 8.520,20.400 8.524,20.400 8.590 M9.641 17.649 C 9.924 17.787,10.213 18.076,10.351 18.359 C 10.449 18.557,10.460 18.624,10.460 19.000 C 10.460 19.348,10.445 19.453,10.372 19.610 C 10.250 19.875,9.912 20.218,9.644 20.350 C 9.443 20.449,9.377 20.460,9.000 20.460 C 8.624 20.460,8.557 20.449,8.359 20.351 C 8.076 20.213,7.787 19.924,7.649 19.641 C 7.499 19.337,7.474 18.802,7.593 18.488 C 7.743 18.094,8.077 17.753,8.468 17.597 C 8.766 17.478,9.345 17.503,9.641 17.649 M17.641 17.649 C 17.924 17.787,18.213 18.076,18.351 18.359 C 18.449 18.557,18.460 18.624,18.460 19.000 C 18.460 19.348,18.445 19.453,18.372 19.610 C 18.250 19.875,17.912 20.218,17.644 20.350 C 17.443 20.449,17.377 20.460,17.000 20.460 C 16.624 20.460,16.557 20.449,16.359 20.351 C 16.076 20.213,15.787 19.924,15.649 19.641 C 15.499 19.337,15.474 18.802,15.593 18.488 C 15.743 18.094,16.077 17.753,16.468 17.597 C 16.766 17.478,17.345 17.503,17.641 17.649 " stroke="none" fill="black" fill-rule="evenodd"></path></svg>