<svg xmlns="http://www.w3.org/2000/svg" class="icon icon-tabler icon-tabler-slice" width="24" height="24" viewBox="0 0 24 24" stroke-width="1" stroke="currentColor" fill="none" stroke-linecap="round" stroke-linejoin="round"><path d="M10.150 11.150 L 2.520 18.780 2.520 18.994 C 2.520 19.182,2.536 19.224,2.650 19.338 C 2.764 19.452,2.849 19.485,3.300 19.591 C 3.862 19.724,4.584 19.851,5.220 19.928 C 5.850 20.005,7.706 19.992,8.380 19.907 C 10.751 19.606,12.790 18.857,14.720 17.578 C 15.677 16.945,16.579 16.186,17.252 15.450 C 17.468 15.214,17.480 15.190,17.480 14.992 L 17.480 14.784 16.591 13.892 L 15.702 12.999 18.591 10.109 L 21.480 7.219 21.480 7.000 L 21.480 6.781 19.849 5.151 L 18.219 3.520 18.000 3.520 L 17.780 3.520 10.150 11.150 M19.160 5.860 L 20.299 7.000 17.410 9.891 L 14.520 12.781 14.520 12.999 L 14.520 13.216 15.410 14.111 L 16.300 15.007 15.940 15.348 C 13.868 17.317,11.155 18.565,8.160 18.928 C 7.605 18.995,5.823 18.995,5.280 18.928 C 4.818 18.871,4.183 18.769,4.064 18.734 C 4.005 18.716,5.442 17.258,10.984 11.716 C 14.832 7.868,17.989 4.720,18.000 4.720 C 18.011 4.720,18.533 5.233,19.160 5.860 " stroke="none" fill="black" fill-rule="evenodd"></path></svg>