<svg xmlns="http://www.w3.org/2000/svg" class="icon icon-tabler icon-tabler-slideshow" width="24" height="24" viewBox="0 0 24 24" stroke-width="1" stroke="currentColor" fill="none" stroke-linecap="round" stroke-linejoin="round"><path d="M5.259 2.578 C 4.613 2.720,3.929 3.108,3.471 3.594 C 2.910 4.189,2.594 4.897,2.521 5.725 C 2.467 6.330,2.468 13.672,2.521 14.276 C 2.599 15.158,2.915 15.835,3.540 16.460 C 4.165 17.085,4.842 17.401,5.724 17.479 C 6.340 17.533,17.660 17.533,18.276 17.479 C 20.018 17.325,21.325 16.018,21.479 14.275 C 21.532 13.672,21.532 6.328,21.479 5.725 C 21.408 4.920,21.097 4.205,20.571 3.637 C 20.147 3.179,19.696 2.888,19.079 2.672 L 18.700 2.540 12.100 2.533 C 6.765 2.527,5.454 2.536,5.259 2.578 M18.834 3.635 C 19.147 3.752,19.619 4.063,19.818 4.283 C 20.036 4.525,20.261 4.888,20.366 5.171 L 20.459 5.420 20.471 8.599 L 20.482 11.778 19.251 10.559 C 17.932 9.252,17.769 9.123,17.220 8.949 C 16.797 8.815,16.129 8.824,15.727 8.969 C 15.199 9.159,15.032 9.289,13.990 10.318 L 12.999 11.296 11.510 9.817 C 9.914 8.233,9.785 8.128,9.220 7.949 C 8.797 7.815,8.129 7.824,7.727 7.969 C 7.162 8.172,7.073 8.247,5.250 10.058 L 3.520 11.777 3.520 8.697 C 3.520 6.047,3.529 5.584,3.582 5.378 C 3.764 4.676,4.250 4.079,4.900 3.759 C 5.407 3.510,4.965 3.524,12.080 3.532 L 18.580 3.540 18.834 3.635 M14.656 5.656 C 14.536 5.776,14.520 5.817,14.520 6.000 C 14.520 6.183,14.536 6.224,14.656 6.344 C 14.775 6.463,14.818 6.480,14.993 6.480 C 15.233 6.480,15.408 6.357,15.480 6.139 C 15.540 5.957,15.477 5.758,15.314 5.621 C 15.220 5.542,15.150 5.520,14.993 5.520 C 14.818 5.520,14.775 5.537,14.656 5.656 M9.147 8.999 C 9.397 9.120,9.604 9.315,11.602 11.306 L 13.784 13.480 13.996 13.480 C 14.184 13.480,14.224 13.464,14.344 13.344 C 14.464 13.224,14.480 13.183,14.480 12.998 L 14.480 12.789 14.090 12.392 L 13.700 11.995 14.640 11.064 C 15.456 10.257,15.617 10.116,15.859 9.997 C 16.114 9.872,16.169 9.860,16.500 9.860 C 16.830 9.860,16.886 9.872,17.141 9.996 C 17.394 10.119,17.562 10.273,18.953 11.656 L 20.486 13.180 20.469 13.880 C 20.450 14.697,20.397 14.899,20.075 15.379 C 19.639 16.032,19.024 16.396,18.213 16.481 C 17.748 16.530,6.252 16.530,5.787 16.481 C 5.318 16.432,4.977 16.313,4.622 16.076 C 4.294 15.857,4.104 15.662,3.880 15.315 C 3.601 14.883,3.550 14.672,3.531 13.880 L 3.514 13.180 5.527 11.175 C 6.780 9.927,7.612 9.129,7.731 9.061 C 8.032 8.888,8.228 8.839,8.567 8.854 C 8.817 8.864,8.926 8.891,9.147 8.999 M7.656 20.656 C 7.536 20.776,7.520 20.817,7.520 21.000 C 7.520 21.183,7.536 21.224,7.656 21.344 C 7.775 21.463,7.818 21.480,7.993 21.480 C 8.477 21.480,8.682 20.931,8.314 20.621 C 8.220 20.542,8.150 20.520,7.993 20.520 C 7.818 20.520,7.775 20.537,7.656 20.656 M11.656 20.656 C 11.536 20.776,11.520 20.817,11.520 21.000 C 11.520 21.183,11.536 21.224,11.656 21.344 C 11.775 21.463,11.818 21.480,11.993 21.480 C 12.233 21.480,12.408 21.357,12.480 21.139 C 12.540 20.957,12.477 20.758,12.314 20.621 C 12.220 20.542,12.150 20.520,11.993 20.520 C 11.818 20.520,11.775 20.537,11.656 20.656 M15.656 20.656 C 15.536 20.776,15.520 20.817,15.520 21.000 C 15.520 21.183,15.536 21.224,15.656 21.344 C 15.775 21.463,15.818 21.480,15.993 21.480 C 16.233 21.480,16.408 21.357,16.480 21.139 C 16.540 20.957,16.477 20.758,16.314 20.621 C 16.220 20.542,16.150 20.520,15.993 20.520 C 15.818 20.520,15.775 20.537,15.656 20.656 " stroke="none" fill="black" fill-rule="evenodd"></path></svg>