<svg xmlns="http://www.w3.org/2000/svg" class="icon icon-tabler icon-tabler-snowflake" width="24" height="24" viewBox="0 0 24 24" stroke-width="1" stroke="currentColor" fill="none" stroke-linecap="round" stroke-linejoin="round"><path d="M11.679 1.630 C 11.605 1.696,11.541 1.804,11.519 1.900 C 11.499 1.988,11.481 2.533,11.481 3.110 C 11.480 3.688,11.471 4.160,11.460 4.160 C 11.448 4.160,11.151 4.016,10.800 3.840 C 10.032 3.455,9.881 3.431,9.656 3.656 C 9.537 3.775,9.520 3.818,9.520 3.993 C 9.520 4.147,9.542 4.220,9.616 4.307 C 9.676 4.378,10.043 4.584,10.596 4.859 L 11.480 5.299 11.479 6.759 L 11.479 8.220 10.869 8.570 C 10.534 8.763,9.969 9.089,9.614 9.295 L 8.968 9.671 7.800 8.998 C 7.158 8.627,6.594 8.299,6.546 8.268 L 6.459 8.211 6.506 7.435 C 6.532 7.009,6.555 6.528,6.557 6.366 C 6.560 6.085,6.554 6.066,6.427 5.939 C 6.258 5.770,6.060 5.728,5.866 5.820 C 5.617 5.938,5.593 6.015,5.537 6.851 C 5.510 7.267,5.479 7.614,5.470 7.624 C 5.460 7.633,5.229 7.512,4.956 7.354 C 3.564 6.548,3.509 6.520,3.351 6.520 C 3.137 6.520,2.983 6.610,2.901 6.784 C 2.824 6.947,2.836 7.136,2.935 7.287 C 2.969 7.338,3.429 7.630,3.958 7.934 C 4.487 8.238,4.929 8.502,4.939 8.519 C 4.950 8.537,4.679 8.735,4.337 8.961 C 3.995 9.186,3.685 9.417,3.647 9.474 C 3.562 9.604,3.566 9.871,3.656 10.008 C 3.753 10.157,3.975 10.254,4.145 10.222 C 4.224 10.207,4.637 9.960,5.118 9.641 L 5.953 9.085 7.187 9.798 L 8.420 10.510 8.446 10.705 C 8.461 10.812,8.474 11.476,8.476 12.180 L 8.479 13.460 7.215 14.187 L 5.952 14.914 5.117 14.359 C 4.637 14.040,4.224 13.793,4.145 13.778 C 3.975 13.746,3.753 13.843,3.656 13.992 C 3.566 14.129,3.562 14.396,3.647 14.526 C 3.685 14.583,3.995 14.814,4.337 15.039 C 4.679 15.265,4.950 15.463,4.939 15.481 C 4.929 15.498,4.487 15.762,3.958 16.066 C 3.429 16.370,2.969 16.662,2.935 16.713 C 2.836 16.864,2.824 17.053,2.901 17.216 C 2.983 17.390,3.137 17.480,3.351 17.480 C 3.509 17.480,3.564 17.452,4.956 16.646 C 5.229 16.488,5.460 16.367,5.470 16.376 C 5.479 16.386,5.510 16.733,5.537 17.149 C 5.593 17.985,5.617 18.062,5.866 18.180 C 6.060 18.272,6.258 18.230,6.427 18.061 C 6.554 17.934,6.560 17.915,6.557 17.634 C 6.555 17.472,6.532 16.991,6.506 16.564 L 6.459 15.789 6.600 15.701 C 6.982 15.461,8.922 14.360,8.962 14.360 C 8.987 14.360,9.564 14.679,10.244 15.069 L 11.480 15.779 11.480 17.240 L 11.480 18.701 10.596 19.141 C 10.043 19.416,9.676 19.622,9.616 19.693 C 9.542 19.780,9.520 19.853,9.520 20.007 C 9.520 20.182,9.537 20.225,9.656 20.344 C 9.881 20.569,10.032 20.545,10.800 20.160 C 11.151 19.984,11.448 19.840,11.460 19.840 C 11.471 19.840,11.480 20.313,11.481 20.890 C 11.481 21.468,11.499 22.012,11.519 22.100 C 11.574 22.341,11.751 22.480,12.000 22.480 C 12.249 22.480,12.426 22.341,12.481 22.100 C 12.501 22.012,12.519 21.468,12.519 20.890 C 12.520 20.313,12.529 19.840,12.540 19.840 C 12.552 19.840,12.849 19.984,13.200 20.160 C 13.968 20.545,14.119 20.569,14.344 20.344 C 14.463 20.225,14.480 20.182,14.480 20.007 C 14.480 19.853,14.458 19.780,14.384 19.693 C 14.324 19.622,13.957 19.416,13.404 19.141 L 12.520 18.701 12.521 17.241 L 12.522 15.780 13.271 15.349 C 13.683 15.112,14.248 14.786,14.526 14.623 L 15.032 14.328 16.246 15.028 C 16.914 15.413,17.478 15.742,17.500 15.761 C 17.527 15.783,17.525 16.049,17.493 16.567 C 17.468 16.992,17.445 17.472,17.443 17.634 C 17.440 17.915,17.446 17.934,17.573 18.061 C 17.742 18.230,17.940 18.272,18.134 18.180 C 18.383 18.062,18.407 17.985,18.463 17.149 C 18.490 16.733,18.521 16.386,18.531 16.376 C 18.540 16.366,18.987 16.611,19.523 16.919 C 20.561 17.516,20.663 17.553,20.917 17.422 C 21.144 17.304,21.219 16.948,21.065 16.713 C 21.031 16.661,20.569 16.368,20.039 16.062 C 19.509 15.756,19.068 15.493,19.058 15.477 C 19.048 15.461,19.319 15.266,19.659 15.045 C 19.999 14.823,20.310 14.592,20.349 14.532 C 20.438 14.396,20.436 14.132,20.344 13.992 C 20.247 13.843,20.025 13.746,19.855 13.778 C 19.776 13.793,19.363 14.040,18.883 14.359 L 18.049 14.914 17.594 14.651 C 17.344 14.507,16.787 14.185,16.356 13.935 L 15.571 13.481 15.546 13.270 C 15.532 13.155,15.521 12.493,15.521 11.800 L 15.521 10.540 15.711 10.434 C 15.815 10.376,16.384 10.049,16.975 9.708 L 18.049 9.087 18.884 9.642 C 19.363 9.960,19.776 10.207,19.855 10.222 C 20.025 10.254,20.247 10.157,20.344 10.008 C 20.436 9.867,20.438 9.604,20.347 9.466 C 20.308 9.405,19.997 9.174,19.658 8.953 C 19.318 8.732,19.048 8.539,19.058 8.523 C 19.068 8.507,19.509 8.244,20.039 7.938 C 20.569 7.632,21.031 7.339,21.065 7.287 C 21.219 7.052,21.144 6.696,20.917 6.578 C 20.663 6.447,20.561 6.484,19.523 7.081 C 18.987 7.389,18.540 7.634,18.531 7.624 C 18.521 7.614,18.490 7.267,18.463 6.851 C 18.407 6.015,18.383 5.938,18.134 5.820 C 17.940 5.728,17.742 5.770,17.573 5.939 C 17.446 6.066,17.440 6.085,17.443 6.366 C 17.445 6.528,17.468 7.009,17.494 7.436 L 17.541 8.212 17.400 8.302 C 17.073 8.511,15.085 9.640,15.043 9.640 C 15.018 9.640,14.440 9.321,13.759 8.930 L 12.520 8.221 12.520 6.760 L 12.520 5.299 13.404 4.859 C 13.957 4.584,14.324 4.378,14.384 4.307 C 14.458 4.220,14.480 4.147,14.480 3.993 C 14.480 3.818,14.463 3.775,14.344 3.656 C 14.119 3.431,13.968 3.455,13.200 3.840 C 12.849 4.016,12.552 4.160,12.540 4.160 C 12.529 4.160,12.520 3.688,12.519 3.110 C 12.519 2.533,12.501 1.988,12.481 1.900 C 12.426 1.659,12.249 1.520,12.000 1.520 C 11.840 1.520,11.778 1.541,11.679 1.630 M13.262 9.799 C 13.921 10.177,14.472 10.499,14.488 10.513 C 14.503 10.528,14.519 11.197,14.524 12.000 L 14.532 13.460 13.796 13.890 C 13.391 14.126,12.823 14.456,12.534 14.623 L 12.008 14.925 10.774 14.220 C 10.095 13.832,9.528 13.502,9.513 13.487 C 9.498 13.472,9.481 12.803,9.476 12.000 L 9.465 10.541 10.722 9.810 C 11.414 9.408,11.998 9.086,12.021 9.095 C 12.044 9.104,12.603 9.421,13.262 9.799 " stroke="none" fill="black" fill-rule="evenodd"></path></svg>