<svg xmlns="http://www.w3.org/2000/svg" class="icon icon-tabler icon-tabler-social" width="24" height="24" viewBox="0 0 24 24" stroke-width="1" stroke="currentColor" fill="none" stroke-linecap="round" stroke-linejoin="round"><path d="M11.274 2.613 C 10.869 2.736,10.560 2.923,10.242 3.241 C 9.718 3.764,9.500 4.331,9.528 5.098 C 9.541 5.446,9.567 5.603,9.652 5.839 C 9.907 6.554,10.496 7.134,11.197 7.359 L 11.480 7.450 11.480 9.005 L 11.480 10.560 11.370 10.560 C 11.174 10.561,10.496 10.822,10.174 11.020 C 9.760 11.275,9.235 11.808,8.992 12.221 C 8.888 12.396,8.744 12.711,8.672 12.920 C 8.543 13.293,8.541 13.313,8.540 14.000 L 8.540 14.700 8.684 15.100 C 8.764 15.320,8.841 15.529,8.856 15.564 C 8.878 15.613,8.664 15.784,7.912 16.321 C 7.377 16.703,6.892 17.050,6.834 17.092 L 6.728 17.169 6.461 16.980 C 6.315 16.875,6.057 16.735,5.888 16.668 C 5.625 16.565,5.512 16.544,5.120 16.529 C 4.732 16.514,4.608 16.525,4.333 16.599 C 3.911 16.713,3.567 16.915,3.241 17.241 C 2.717 17.765,2.500 18.331,2.528 19.098 C 2.541 19.446,2.567 19.603,2.652 19.839 C 2.908 20.557,3.492 21.130,4.207 21.364 C 4.459 21.447,4.576 21.460,5.040 21.459 C 5.553 21.457,5.596 21.451,5.900 21.328 C 6.667 21.020,7.215 20.397,7.421 19.600 C 7.512 19.247,7.488 18.555,7.373 18.228 L 7.291 17.995 8.385 17.214 L 9.480 16.432 9.686 16.618 C 9.999 16.900,10.477 17.175,10.910 17.324 C 11.294 17.457,11.310 17.459,12.000 17.459 C 12.689 17.459,12.706 17.457,13.079 17.327 C 13.617 17.140,13.997 16.916,14.370 16.565 L 14.519 16.424 14.630 16.505 C 14.690 16.549,15.177 16.897,15.710 17.277 C 16.244 17.658,16.680 17.985,16.680 18.004 C 16.680 18.023,16.642 18.177,16.596 18.346 C 16.476 18.781,16.500 19.415,16.652 19.839 C 16.908 20.557,17.492 21.130,18.207 21.364 C 18.459 21.447,18.576 21.460,19.040 21.459 C 19.553 21.457,19.596 21.451,19.900 21.328 C 20.882 20.933,21.480 20.053,21.480 19.000 C 21.480 17.947,20.882 17.067,19.900 16.672 C 19.596 16.549,19.553 16.543,19.040 16.541 C 18.360 16.540,18.069 16.620,17.596 16.943 L 17.273 17.163 16.195 16.394 C 15.374 15.807,15.124 15.610,15.144 15.562 C 15.159 15.528,15.236 15.320,15.316 15.100 L 15.460 14.700 15.459 14.000 C 15.459 13.311,15.457 13.294,15.324 12.910 C 15.035 12.070,14.449 11.365,13.679 10.929 C 13.427 10.787,12.779 10.560,12.624 10.560 L 12.520 10.560 12.520 9.010 L 12.520 7.460 12.840 7.347 C 13.431 7.138,13.975 6.654,14.239 6.100 C 14.408 5.747,14.480 5.416,14.480 5.000 C 14.480 3.947,13.879 3.061,12.900 2.673 C 12.612 2.559,12.530 2.545,12.080 2.533 C 11.647 2.521,11.539 2.532,11.274 2.613 M12.641 3.649 C 12.924 3.787,13.213 4.076,13.351 4.359 C 13.449 4.557,13.460 4.624,13.460 5.000 C 13.460 5.348,13.445 5.453,13.372 5.610 C 13.250 5.875,12.912 6.218,12.644 6.350 C 12.443 6.449,12.377 6.460,12.000 6.460 C 11.624 6.460,11.557 6.449,11.359 6.351 C 11.076 6.213,10.787 5.924,10.649 5.641 C 10.499 5.337,10.474 4.802,10.593 4.488 C 10.743 4.094,11.077 3.753,11.468 3.597 C 11.766 3.478,12.345 3.503,12.641 3.649 M12.834 11.640 C 13.142 11.749,13.615 12.059,13.818 12.283 C 14.048 12.538,14.266 12.898,14.368 13.192 C 14.446 13.421,14.460 13.540,14.460 14.000 C 14.460 14.460,14.446 14.579,14.368 14.808 C 14.190 15.320,13.844 15.765,13.378 16.076 C 12.916 16.385,12.647 16.460,12.000 16.460 C 11.540 16.460,11.421 16.446,11.192 16.368 C 10.898 16.266,10.538 16.048,10.283 15.818 C 10.058 15.615,9.749 15.141,9.640 14.834 C 9.516 14.481,9.484 13.763,9.577 13.399 C 9.803 12.515,10.484 11.821,11.360 11.581 C 11.694 11.489,12.500 11.522,12.834 11.640 M5.641 17.649 C 5.924 17.787,6.213 18.076,6.351 18.359 C 6.449 18.557,6.460 18.624,6.460 19.000 C 6.460 19.348,6.445 19.453,6.372 19.610 C 6.250 19.875,5.912 20.218,5.644 20.350 C 5.443 20.449,5.377 20.460,5.000 20.460 C 4.624 20.460,4.557 20.449,4.359 20.351 C 4.076 20.213,3.787 19.924,3.649 19.641 C 3.499 19.337,3.474 18.802,3.593 18.488 C 3.743 18.094,4.077 17.753,4.468 17.597 C 4.766 17.478,5.345 17.503,5.641 17.649 M19.641 17.649 C 19.924 17.787,20.213 18.076,20.351 18.359 C 20.449 18.557,20.460 18.624,20.460 19.000 C 20.460 19.348,20.445 19.453,20.372 19.610 C 20.250 19.875,19.912 20.218,19.644 20.350 C 19.443 20.449,19.377 20.460,19.000 20.460 C 18.624 20.460,18.557 20.449,18.359 20.351 C 18.076 20.213,17.787 19.924,17.649 19.641 C 17.499 19.337,17.474 18.802,17.593 18.488 C 17.743 18.094,18.077 17.753,18.468 17.597 C 18.766 17.478,19.345 17.503,19.641 17.649 " stroke="none" fill="black" fill-rule="evenodd"></path></svg>