<svg xmlns="http://www.w3.org/2000/svg" class="icon icon-tabler icon-tabler-sort-descending" width="24" height="24" viewBox="0 0 24 24" stroke-width="1" stroke="currentColor" fill="none" stroke-linecap="round" stroke-linejoin="round"><path d="M3.656 5.656 C 3.537 5.775,3.520 5.817,3.520 5.995 C 3.520 6.250,3.657 6.425,3.900 6.481 C 4.112 6.530,12.888 6.530,13.100 6.481 C 13.343 6.425,13.480 6.250,13.480 5.995 C 13.480 5.817,13.463 5.775,13.344 5.656 L 13.208 5.520 8.500 5.520 L 3.792 5.520 3.656 5.656 M17.679 5.630 C 17.605 5.696,17.541 5.804,17.519 5.900 C 17.497 5.993,17.482 8.290,17.481 11.419 L 17.480 16.778 16.348 15.649 L 15.217 14.520 15.004 14.520 C 14.816 14.520,14.777 14.535,14.656 14.656 C 14.535 14.777,14.520 14.816,14.520 15.005 L 14.520 15.218 16.129 16.829 C 17.243 17.944,17.779 18.453,17.869 18.483 C 17.963 18.514,18.037 18.514,18.131 18.483 C 18.221 18.453,18.757 17.944,19.871 16.829 L 21.480 15.218 21.480 15.005 C 21.480 14.816,21.465 14.777,21.344 14.656 C 21.223 14.535,21.184 14.520,20.996 14.520 L 20.783 14.520 19.652 15.649 L 18.520 16.778 18.519 11.419 C 18.518 8.290,18.503 5.993,18.481 5.900 C 18.426 5.659,18.249 5.520,18.000 5.520 C 17.840 5.520,17.778 5.541,17.679 5.630 M3.656 11.656 C 3.537 11.775,3.520 11.817,3.520 11.995 C 3.520 12.250,3.657 12.425,3.900 12.481 C 4.111 12.530,10.889 12.530,11.100 12.481 C 11.343 12.425,11.480 12.250,11.480 11.995 C 11.480 11.817,11.463 11.775,11.344 11.656 L 11.208 11.520 7.500 11.520 L 3.792 11.520 3.656 11.656 M3.656 17.656 C 3.537 17.775,3.520 17.817,3.520 17.995 C 3.520 18.250,3.657 18.425,3.900 18.481 C 4.111 18.530,10.889 18.530,11.100 18.481 C 11.343 18.425,11.480 18.250,11.480 17.995 C 11.480 17.817,11.463 17.775,11.344 17.656 L 11.208 17.520 7.500 17.520 L 3.792 17.520 3.656 17.656 " stroke="none" fill="black" fill-rule="evenodd"></path></svg>