<svg xmlns="http://www.w3.org/2000/svg" class="icon icon-tabler icon-tabler-sort-ascending" width="24" height="24" viewBox="0 0 24 24" stroke-width="1" stroke="currentColor" fill="none" stroke-linecap="round" stroke-linejoin="round"><path d="M17.820 5.537 C 17.754 5.567,16.985 6.310,16.110 7.187 L 14.520 8.782 14.520 8.995 C 14.520 9.184,14.535 9.223,14.656 9.344 C 14.777 9.465,14.816 9.480,15.004 9.480 L 15.217 9.480 16.348 8.351 L 17.480 7.222 17.481 12.581 C 17.482 15.710,17.497 18.007,17.519 18.100 C 17.574 18.341,17.751 18.480,18.000 18.480 C 18.249 18.480,18.426 18.341,18.481 18.100 C 18.503 18.007,18.518 15.710,18.519 12.581 L 18.520 7.222 19.652 8.351 L 20.783 9.480 20.996 9.480 C 21.184 9.480,21.223 9.465,21.344 9.344 C 21.465 9.223,21.480 9.184,21.480 8.995 L 21.480 8.782 19.890 7.187 C 18.996 6.290,18.244 5.567,18.171 5.536 C 18.014 5.468,17.973 5.468,17.820 5.537 M3.656 5.656 C 3.537 5.775,3.520 5.817,3.520 5.995 C 3.520 6.250,3.657 6.425,3.900 6.481 C 4.111 6.530,10.889 6.530,11.100 6.481 C 11.343 6.425,11.480 6.250,11.480 5.995 C 11.480 5.817,11.463 5.775,11.344 5.656 L 11.208 5.520 7.500 5.520 L 3.792 5.520 3.656 5.656 M3.656 11.656 C 3.537 11.775,3.520 11.817,3.520 11.995 C 3.520 12.250,3.657 12.425,3.900 12.481 C 4.111 12.530,10.889 12.530,11.100 12.481 C 11.343 12.425,11.480 12.250,11.480 11.995 C 11.480 11.817,11.463 11.775,11.344 11.656 L 11.208 11.520 7.500 11.520 L 3.792 11.520 3.656 11.656 M3.656 17.656 C 3.537 17.775,3.520 17.817,3.520 17.995 C 3.520 18.250,3.657 18.425,3.900 18.481 C 4.112 18.530,12.888 18.530,13.100 18.481 C 13.343 18.425,13.480 18.250,13.480 17.995 C 13.480 17.817,13.463 17.775,13.344 17.656 L 13.208 17.520 8.500 17.520 L 3.792 17.520 3.656 17.656 " stroke="none" fill="black" fill-rule="evenodd"></path></svg>