<svg xmlns="http://www.w3.org/2000/svg" class="icon icon-tabler icon-tabler-stack" width="24" height="24" viewBox="0 0 24 24" stroke-width="1" stroke="currentColor" fill="none" stroke-linecap="round" stroke-linejoin="round"><path d="M7.755 5.560 C 4.904 6.987,3.664 7.628,3.605 7.703 C 3.489 7.851,3.489 8.149,3.605 8.297 C 3.664 8.373,4.904 9.012,7.765 10.442 C 11.109 12.115,11.869 12.480,12.000 12.480 C 12.131 12.480,12.891 12.115,16.235 10.442 C 19.096 9.012,20.336 8.373,20.395 8.297 C 20.511 8.149,20.511 7.851,20.395 7.703 C 20.336 7.627,19.096 6.988,16.235 5.558 C 12.721 3.801,12.137 3.520,11.990 3.522 C 11.848 3.524,11.159 3.856,7.755 5.560 M15.420 6.270 C 17.301 7.210,18.840 7.989,18.840 8.000 C 18.840 8.011,17.301 8.790,15.420 9.730 L 12.000 11.440 8.580 9.730 C 6.699 8.790,5.160 8.011,5.160 8.000 C 5.160 7.985,11.936 4.574,11.990 4.562 C 11.995 4.561,13.539 5.329,15.420 6.270 M3.656 11.656 C 3.538 11.774,3.520 11.818,3.520 11.991 C 3.520 12.132,3.544 12.220,3.605 12.297 C 3.664 12.373,4.904 13.012,7.765 14.442 C 11.109 16.115,11.869 16.480,12.000 16.480 C 12.131 16.480,12.891 16.115,16.235 14.442 C 19.096 13.012,20.336 12.373,20.395 12.297 C 20.456 12.220,20.480 12.132,20.480 11.991 C 20.480 11.818,20.462 11.774,20.344 11.656 C 20.072 11.384,20.302 11.289,15.920 13.480 L 12.000 15.440 8.080 13.480 C 3.698 11.289,3.928 11.384,3.656 11.656 M3.656 15.656 C 3.538 15.774,3.520 15.818,3.520 15.991 C 3.520 16.132,3.544 16.220,3.605 16.297 C 3.664 16.373,4.904 17.012,7.765 18.442 C 11.109 20.115,11.869 20.480,12.000 20.480 C 12.131 20.480,12.891 20.115,16.235 18.442 C 19.096 17.012,20.336 16.373,20.395 16.297 C 20.456 16.220,20.480 16.132,20.480 15.991 C 20.480 15.818,20.462 15.774,20.344 15.656 C 20.072 15.384,20.302 15.289,15.920 17.480 L 12.000 19.440 8.080 17.480 C 3.698 15.289,3.928 15.384,3.656 15.656 " stroke="none" fill="black" fill-rule="evenodd"></path></svg>