<svg xmlns="http://www.w3.org/2000/svg" class="icon icon-tabler icon-tabler-star" width="24" height="24" viewBox="0 0 24 24" stroke-width="1" stroke="currentColor" fill="none" stroke-linecap="round" stroke-linejoin="round"><path d="M11.682 1.630 C 11.600 1.706,11.101 2.680,10.078 4.760 C 9.261 6.421,8.589 7.784,8.584 7.789 C 8.579 7.795,7.088 8.014,5.271 8.278 C 3.454 8.541,1.921 8.768,1.864 8.783 C 1.807 8.797,1.707 8.870,1.640 8.946 C 1.514 9.089,1.485 9.263,1.556 9.448 C 1.575 9.500,2.690 10.612,4.034 11.921 C 5.963 13.800,6.472 14.317,6.458 14.380 C 6.447 14.424,6.187 15.934,5.878 17.736 C 5.263 21.328,5.279 21.171,5.526 21.379 C 5.781 21.593,5.691 21.632,8.991 19.898 L 12.003 18.315 15.013 19.898 C 18.310 21.631,18.220 21.592,18.474 21.379 C 18.721 21.171,18.736 21.326,18.124 17.756 C 17.817 15.965,17.560 14.452,17.553 14.394 C 17.542 14.301,17.832 14.003,19.985 11.905 C 21.330 10.594,22.441 9.481,22.455 9.431 C 22.509 9.228,22.481 9.083,22.360 8.946 C 22.293 8.870,22.197 8.798,22.144 8.785 C 22.056 8.762,21.251 8.643,17.100 8.038 C 16.176 7.903,15.417 7.790,15.414 7.786 C 15.410 7.783,14.739 6.421,13.922 4.760 C 12.901 2.685,12.399 1.706,12.318 1.630 C 12.221 1.541,12.161 1.520,12.000 1.520 C 11.839 1.520,11.779 1.541,11.682 1.630 M13.340 5.845 C 14.668 8.544,14.750 8.690,14.973 8.739 C 15.021 8.749,16.320 8.939,17.860 9.160 C 19.400 9.381,20.712 9.575,20.776 9.591 C 20.889 9.620,20.833 9.678,18.740 11.720 C 17.408 13.020,16.567 13.870,16.533 13.950 C 16.483 14.070,16.520 14.319,16.986 17.040 C 17.265 18.668,17.483 20.010,17.470 20.023 C 17.457 20.037,16.225 19.405,14.733 18.620 C 12.538 17.465,12.004 17.199,11.935 17.226 C 11.888 17.245,10.658 17.887,9.202 18.654 C 7.746 19.421,6.544 20.037,6.531 20.024 C 6.517 20.010,6.735 18.668,7.014 17.040 C 7.480 14.322,7.517 14.070,7.467 13.950 C 7.433 13.870,6.597 13.024,5.265 11.725 C 4.084 10.572,3.124 9.622,3.133 9.613 C 3.149 9.597,4.023 9.468,7.260 9.001 C 8.184 8.867,8.979 8.750,9.027 8.739 C 9.250 8.690,9.333 8.544,10.660 5.845 C 11.386 4.369,11.989 3.161,12.000 3.161 C 12.011 3.161,12.614 4.369,13.340 5.845 " stroke="none" fill="black" fill-rule="evenodd"></path></svg>