<svg xmlns="http://www.w3.org/2000/svg" class="icon icon-tabler icon-tabler-sticker" width="24" height="24" viewBox="0 0 24 24" stroke-width="1" stroke="currentColor" fill="none" stroke-linecap="round" stroke-linejoin="round"><path d="M11.440 3.522 C 8.762 3.697,6.341 5.125,4.850 7.408 C 4.218 8.376,3.748 9.646,3.581 10.840 C 3.502 11.401,3.502 12.605,3.581 13.155 C 4.136 17.008,7.143 19.961,10.999 20.438 C 11.477 20.497,12.623 20.489,13.120 20.422 C 16.777 19.935,19.713 17.129,20.361 13.501 C 20.477 12.856,20.529 11.977,20.461 11.822 C 20.390 11.660,12.293 3.576,12.147 3.522 C 12.085 3.499,12.004 3.483,11.967 3.486 C 11.930 3.489,11.693 3.505,11.440 3.522 M11.194 5.130 C 10.998 5.895,10.948 6.384,11.003 7.020 C 11.142 8.629,11.763 9.968,12.898 11.102 C 14.160 12.365,15.715 13.010,17.480 13.003 C 18.078 13.001,18.125 12.994,18.791 12.825 L 19.482 12.649 19.462 12.774 C 19.452 12.843,19.423 13.035,19.398 13.200 C 19.288 13.931,19.025 14.725,18.654 15.441 C 17.539 17.593,15.474 19.065,13.075 19.418 C 12.521 19.499,11.479 19.499,10.925 19.418 C 7.908 18.975,5.472 16.770,4.722 13.805 C 4.450 12.730,4.450 11.270,4.722 10.195 C 5.341 7.747,7.180 5.728,9.520 4.929 C 10.120 4.724,10.820 4.565,11.305 4.524 C 11.334 4.521,11.293 4.747,11.194 5.130 M18.969 11.723 C 18.916 11.770,18.065 11.970,17.780 12.003 C 17.456 12.041,16.730 11.988,16.333 11.898 C 15.263 11.656,14.354 11.159,13.600 10.402 C 13.124 9.924,12.847 9.542,12.564 8.973 C 12.185 8.212,11.993 7.412,11.990 6.580 C 11.989 6.168,12.006 6.029,12.116 5.600 C 12.186 5.325,12.252 5.074,12.263 5.042 C 12.277 5.004,13.433 6.133,15.641 8.341 C 17.487 10.187,18.985 11.709,18.969 11.723 " stroke="none" fill="black" fill-rule="evenodd"></path></svg>