<svg xmlns="http://www.w3.org/2000/svg" class="icon icon-tabler icon-tabler-sum" width="24" height="24" viewBox="0 0 24 24" stroke-width="1" stroke="currentColor" fill="none" stroke-linecap="round" stroke-linejoin="round"><path d="M5.656 4.656 C 5.537 4.775,5.520 4.818,5.520 4.994 C 5.520 5.177,5.538 5.218,5.714 5.428 C 5.820 5.556,7.125 7.081,8.614 8.817 C 10.102 10.553,11.320 11.985,11.320 12.000 C 11.320 12.015,10.102 13.447,8.614 15.183 C 7.125 16.919,5.820 18.444,5.714 18.572 C 5.538 18.782,5.520 18.823,5.520 19.006 C 5.520 19.181,5.538 19.226,5.652 19.340 C 5.758 19.446,5.828 19.478,6.002 19.498 C 6.122 19.513,8.704 19.519,11.740 19.512 C 16.864 19.500,17.275 19.494,17.465 19.430 C 17.886 19.286,18.293 18.877,18.425 18.465 C 18.477 18.305,18.495 18.036,18.510 17.249 C 18.534 15.987,18.517 15.829,18.340 15.652 C 18.225 15.537,18.181 15.520,18.005 15.520 C 17.750 15.520,17.575 15.657,17.519 15.900 C 17.499 15.988,17.481 16.541,17.481 17.129 L 17.480 18.199 17.370 18.321 C 17.304 18.395,17.196 18.459,17.100 18.481 C 16.908 18.525,7.120 18.534,7.120 18.490 C 7.120 18.473,8.193 17.209,9.504 15.680 C 12.824 11.808,12.480 12.234,12.480 12.002 C 12.480 11.847,12.457 11.778,12.370 11.673 C 12.290 11.577,7.650 6.150,7.168 5.590 C 7.111 5.523,7.352 5.520,12.158 5.520 L 17.208 5.520 17.344 5.656 L 17.480 5.792 17.481 6.866 C 17.481 7.457,17.499 8.012,17.519 8.100 C 17.575 8.343,17.750 8.480,18.005 8.480 C 18.181 8.480,18.225 8.463,18.340 8.348 C 18.517 8.171,18.534 8.013,18.510 6.751 C 18.489 5.617,18.462 5.467,18.216 5.135 C 18.030 4.885,17.768 4.684,17.507 4.594 C 17.312 4.527,16.963 4.523,11.546 4.521 L 5.792 4.520 5.656 4.656 " stroke="none" fill="black" fill-rule="evenodd"></path></svg>