<svg xmlns="http://www.w3.org/2000/svg" class="icon icon-tabler icon-tabler-sun" width="24" height="24" viewBox="0 0 24 24" stroke-width="1" stroke="currentColor" fill="none" stroke-linecap="round" stroke-linejoin="round"><path d="M11.679 2.630 C 11.522 2.771,11.482 2.946,11.482 3.500 C 11.482 4.054,11.522 4.229,11.679 4.370 C 11.853 4.527,12.147 4.527,12.321 4.370 C 12.478 4.229,12.518 4.054,12.518 3.500 C 12.518 2.946,12.478 2.771,12.321 2.630 C 12.222 2.541,12.160 2.520,12.000 2.520 C 11.840 2.520,11.778 2.541,11.679 2.630 M5.256 5.256 C 5.136 5.376,5.120 5.417,5.120 5.602 L 5.120 5.812 5.550 6.249 C 5.787 6.490,6.029 6.712,6.088 6.743 C 6.491 6.954,6.954 6.491,6.743 6.088 C 6.712 6.029,6.490 5.787,6.249 5.550 L 5.812 5.120 5.602 5.120 C 5.417 5.120,5.376 5.136,5.256 5.256 M17.751 5.550 C 17.510 5.787,17.288 6.029,17.257 6.088 C 17.046 6.491,17.509 6.954,17.912 6.743 C 17.971 6.712,18.213 6.490,18.450 6.249 L 18.880 5.812 18.880 5.602 C 18.880 5.417,18.864 5.376,18.744 5.256 C 18.624 5.136,18.583 5.120,18.398 5.120 L 18.188 5.120 17.751 5.550 M11.145 7.582 C 9.296 7.950,7.854 9.439,7.559 11.287 C 7.488 11.732,7.528 12.694,7.633 13.087 C 8.073 14.731,9.248 15.907,10.913 16.370 C 11.178 16.444,11.325 16.456,12.000 16.456 C 12.675 16.456,12.822 16.444,13.088 16.370 C 14.755 15.906,15.906 14.755,16.370 13.087 C 16.444 12.822,16.456 12.675,16.456 12.000 C 16.456 11.156,16.421 10.951,16.177 10.333 C 15.618 8.921,14.336 7.866,12.830 7.580 C 12.435 7.506,11.526 7.506,11.145 7.582 M13.080 8.675 C 13.629 8.861,14.035 9.115,14.460 9.540 C 14.883 9.963,15.137 10.366,15.328 10.920 C 15.457 11.293,15.459 11.313,15.459 12.000 C 15.459 12.687,15.457 12.707,15.328 13.080 C 15.137 13.634,14.883 14.037,14.460 14.460 C 14.037 14.883,13.634 15.137,13.080 15.328 C 12.707 15.457,12.687 15.459,12.000 15.459 C 11.313 15.459,11.293 15.457,10.920 15.328 C 10.366 15.137,9.963 14.883,9.540 14.460 C 9.114 14.034,8.860 13.628,8.676 13.080 C 8.565 12.752,8.545 12.629,8.529 12.175 C 8.518 11.864,8.529 11.542,8.557 11.383 C 8.758 10.223,9.642 9.154,10.740 8.738 C 11.225 8.554,11.450 8.521,12.100 8.534 C 12.652 8.546,12.730 8.557,13.080 8.675 M2.656 11.656 C 2.537 11.775,2.520 11.817,2.520 11.995 C 2.520 12.250,2.657 12.425,2.900 12.481 C 3.107 12.529,3.893 12.529,4.100 12.481 C 4.343 12.425,4.480 12.250,4.480 11.995 C 4.480 11.817,4.463 11.775,4.344 11.656 L 4.208 11.520 3.500 11.520 L 2.792 11.520 2.656 11.656 M19.656 11.656 C 19.537 11.775,19.520 11.817,19.520 11.995 C 19.520 12.250,19.657 12.425,19.900 12.481 C 20.107 12.529,20.893 12.529,21.100 12.481 C 21.343 12.425,21.480 12.250,21.480 11.995 C 21.480 11.817,21.463 11.775,21.344 11.656 L 21.208 11.520 20.500 11.520 L 19.792 11.520 19.656 11.656 M6.060 17.275 C 5.994 17.316,5.755 17.539,5.530 17.769 L 5.120 18.188 5.120 18.398 C 5.120 18.583,5.136 18.624,5.256 18.744 C 5.376 18.864,5.417 18.880,5.602 18.880 L 5.812 18.880 6.249 18.450 C 6.490 18.213,6.712 17.971,6.743 17.912 C 6.822 17.763,6.814 17.603,6.722 17.452 C 6.575 17.212,6.286 17.134,6.060 17.275 M17.452 17.278 C 17.224 17.417,17.140 17.690,17.257 17.912 C 17.288 17.971,17.510 18.213,17.751 18.450 L 18.188 18.880 18.398 18.880 C 18.583 18.880,18.624 18.864,18.744 18.744 C 18.864 18.624,18.880 18.583,18.880 18.398 L 18.880 18.188 18.450 17.751 C 18.213 17.510,17.971 17.288,17.912 17.257 C 17.763 17.178,17.603 17.186,17.452 17.278 M11.679 19.630 C 11.522 19.771,11.482 19.946,11.482 20.500 C 11.482 21.054,11.522 21.229,11.679 21.370 C 11.778 21.459,11.840 21.480,12.000 21.480 C 12.160 21.480,12.222 21.459,12.321 21.370 C 12.478 21.229,12.518 21.054,12.518 20.500 C 12.518 19.946,12.478 19.771,12.321 19.630 C 12.222 19.541,12.160 19.520,12.000 19.520 C 11.840 19.520,11.778 19.541,11.679 19.630 " stroke="none" fill="black" fill-rule="evenodd"></path></svg>