<svg xmlns="http://www.w3.org/2000/svg" class="icon icon-tabler icon-tabler-sunset" width="24" height="24" viewBox="0 0 24 24" stroke-width="1" stroke="currentColor" fill="none" stroke-linecap="round" stroke-linejoin="round"><path d="M10.151 4.151 L 8.520 5.781 8.520 5.995 C 8.520 6.184,8.535 6.223,8.656 6.344 C 8.777 6.465,8.816 6.480,9.004 6.480 L 9.217 6.480 10.348 5.351 L 11.480 4.222 11.481 6.581 C 11.481 7.878,11.499 9.012,11.519 9.100 C 11.574 9.341,11.751 9.480,12.000 9.480 C 12.249 9.480,12.426 9.341,12.481 9.100 C 12.501 9.012,12.519 7.878,12.519 6.581 L 12.520 4.222 13.652 5.351 L 14.783 6.480 14.996 6.480 C 15.184 6.480,15.223 6.465,15.344 6.344 C 15.465 6.223,15.480 6.184,15.480 5.995 L 15.480 5.781 13.849 4.151 L 12.219 2.520 12.000 2.520 L 11.781 2.520 10.151 4.151 M5.256 10.256 C 5.136 10.376,5.120 10.417,5.120 10.602 L 5.120 10.812 5.550 11.249 C 5.787 11.490,6.029 11.712,6.088 11.743 C 6.491 11.954,6.954 11.491,6.743 11.088 C 6.712 11.029,6.490 10.787,6.249 10.550 L 5.812 10.120 5.602 10.120 C 5.417 10.120,5.376 10.136,5.256 10.256 M17.751 10.550 C 17.510 10.787,17.288 11.029,17.257 11.088 C 17.046 11.491,17.509 11.954,17.912 11.743 C 17.971 11.712,18.213 11.490,18.450 11.249 L 18.880 10.812 18.880 10.602 C 18.880 10.417,18.864 10.376,18.744 10.256 C 18.624 10.136,18.583 10.120,18.398 10.120 L 18.188 10.120 17.751 10.550 M11.145 12.582 C 9.084 12.992,7.520 14.832,7.520 16.848 C 7.520 17.204,7.521 17.209,7.656 17.344 C 7.776 17.464,7.817 17.480,8.000 17.480 C 8.182 17.480,8.225 17.463,8.340 17.348 C 8.451 17.237,8.476 17.177,8.496 16.978 C 8.587 16.053,8.720 15.625,9.084 15.080 C 9.520 14.429,10.165 13.932,10.910 13.676 C 11.295 13.543,11.310 13.541,12.000 13.541 C 12.690 13.541,12.705 13.543,13.090 13.676 C 13.841 13.934,14.489 14.436,14.921 15.091 C 15.286 15.645,15.413 16.058,15.504 16.978 C 15.524 17.177,15.549 17.237,15.660 17.348 C 15.775 17.463,15.818 17.480,16.000 17.480 C 16.185 17.480,16.224 17.464,16.349 17.339 L 16.491 17.197 16.469 16.709 C 16.380 14.690,14.860 12.966,12.830 12.580 C 12.435 12.506,11.526 12.506,11.145 12.582 M2.656 16.656 C 2.537 16.775,2.520 16.817,2.520 16.995 C 2.520 17.250,2.657 17.425,2.900 17.481 C 3.107 17.529,3.893 17.529,4.100 17.481 C 4.343 17.425,4.480 17.250,4.480 16.995 C 4.480 16.817,4.463 16.775,4.344 16.656 L 4.208 16.520 3.500 16.520 L 2.792 16.520 2.656 16.656 M19.656 16.656 C 19.537 16.775,19.520 16.817,19.520 16.995 C 19.520 17.250,19.657 17.425,19.900 17.481 C 20.107 17.529,20.893 17.529,21.100 17.481 C 21.343 17.425,21.480 17.250,21.480 16.995 C 21.480 16.817,21.463 16.775,21.344 16.656 L 21.208 16.520 20.500 16.520 L 19.792 16.520 19.656 16.656 M2.656 20.656 C 2.537 20.775,2.520 20.817,2.520 20.995 C 2.520 21.250,2.657 21.425,2.900 21.481 C 3.114 21.531,20.886 21.531,21.100 21.481 C 21.343 21.425,21.480 21.250,21.480 20.995 C 21.480 20.817,21.463 20.775,21.344 20.656 L 21.208 20.520 12.000 20.520 L 2.792 20.520 2.656 20.656 " stroke="none" fill="black" fill-rule="evenodd"></path></svg>