<svg xmlns="http://www.w3.org/2000/svg" class="icon icon-tabler icon-tabler-superscript" width="24" height="24" viewBox="0 0 24 24" stroke-width="1" stroke="currentColor" fill="none" stroke-linecap="round" stroke-linejoin="round"><path d="M18.323 3.524 C 17.639 3.658,17.087 4.005,16.714 4.536 C 16.545 4.776,16.520 4.838,16.520 5.010 C 16.520 5.182,16.538 5.226,16.656 5.344 C 16.776 5.464,16.816 5.480,17.002 5.480 C 17.199 5.480,17.222 5.469,17.356 5.315 C 17.943 4.640,18.172 4.508,18.760 4.503 C 19.061 4.501,19.130 4.515,19.368 4.627 C 20.118 4.982,20.457 5.829,20.145 6.574 C 20.113 6.651,19.333 7.575,18.413 8.627 C 17.493 9.679,16.691 10.600,16.630 10.673 C 16.390 10.963,16.535 11.397,16.900 11.481 C 17.109 11.529,20.891 11.529,21.100 11.481 C 21.343 11.425,21.480 11.250,21.480 10.995 C 21.480 10.817,21.463 10.775,21.344 10.656 L 21.208 10.520 19.664 10.520 C 18.815 10.520,18.120 10.511,18.120 10.500 C 18.120 10.488,18.752 9.756,19.525 8.873 C 21.006 7.182,21.077 7.083,21.202 6.560 C 21.230 6.439,21.252 6.169,21.250 5.960 C 21.243 5.280,21.010 4.731,20.519 4.236 C 19.935 3.648,19.088 3.373,18.323 3.524 M4.656 6.656 C 4.537 6.775,4.520 6.817,4.520 6.996 L 4.520 7.199 6.440 9.600 L 8.360 12.000 6.440 14.400 L 4.520 16.801 4.520 17.004 C 4.520 17.183,4.537 17.225,4.656 17.344 C 4.773 17.461,4.819 17.480,4.987 17.480 C 5.094 17.480,5.220 17.453,5.266 17.421 C 5.313 17.389,6.164 16.345,7.159 15.101 C 8.154 13.857,8.982 12.840,9.000 12.840 C 9.018 12.840,9.846 13.857,10.841 15.101 C 11.836 16.345,12.687 17.389,12.734 17.421 C 12.780 17.453,12.906 17.480,13.013 17.480 C 13.181 17.480,13.227 17.461,13.344 17.344 C 13.463 17.225,13.480 17.183,13.480 17.004 L 13.480 16.801 11.560 14.400 L 9.640 12.000 11.560 9.600 L 13.480 7.199 13.480 6.996 C 13.480 6.817,13.463 6.775,13.344 6.656 C 13.227 6.539,13.181 6.520,13.013 6.520 C 12.906 6.520,12.780 6.547,12.734 6.579 C 12.687 6.611,11.836 7.655,10.841 8.899 C 9.846 10.143,9.018 11.160,9.000 11.160 C 8.982 11.160,8.154 10.143,7.159 8.899 C 6.164 7.655,5.313 6.611,5.266 6.579 C 5.220 6.547,5.094 6.520,4.987 6.520 C 4.819 6.520,4.773 6.539,4.656 6.656 " stroke="none" fill="black" fill-rule="evenodd"></path></svg>