<svg xmlns="http://www.w3.org/2000/svg" class="icon icon-tabler icon-tabler-switch-horizontal" width="24" height="24" viewBox="0 0 24 24" stroke-width="1" stroke="currentColor" fill="none" stroke-linecap="round" stroke-linejoin="round"><path d="M15.656 2.656 C 15.535 2.777,15.520 2.816,15.520 3.005 L 15.520 3.218 17.140 4.840 C 18.031 5.731,18.760 6.475,18.760 6.491 C 18.760 6.507,16.742 6.520,14.276 6.520 L 9.792 6.520 9.656 6.656 C 9.537 6.775,9.520 6.817,9.520 6.995 C 9.520 7.250,9.657 7.425,9.900 7.481 C 9.992 7.502,11.901 7.518,14.419 7.519 L 18.779 7.520 17.149 9.151 L 15.520 10.782 15.520 10.995 C 15.520 11.184,15.535 11.223,15.656 11.344 C 15.777 11.465,15.816 11.480,16.005 11.480 L 16.218 11.480 18.329 9.370 C 19.804 7.897,20.453 7.222,20.483 7.130 C 20.514 7.037,20.514 6.963,20.483 6.870 C 20.453 6.778,19.804 6.103,18.329 4.630 L 16.218 2.520 16.005 2.520 C 15.816 2.520,15.777 2.535,15.656 2.656 M5.671 14.630 C 4.196 16.103,3.547 16.778,3.517 16.870 C 3.486 16.963,3.486 17.037,3.517 17.130 C 3.547 17.222,4.196 17.897,5.671 19.370 L 7.782 21.480 7.995 21.480 C 8.184 21.480,8.223 21.465,8.344 21.344 C 8.465 21.223,8.480 21.184,8.480 20.995 L 8.480 20.782 6.851 19.151 L 5.221 17.520 9.081 17.519 C 11.293 17.518,13.008 17.502,13.100 17.481 C 13.343 17.425,13.480 17.250,13.480 16.995 C 13.480 16.817,13.463 16.775,13.344 16.656 L 13.208 16.520 9.224 16.520 C 7.033 16.520,5.240 16.507,5.240 16.491 C 5.240 16.475,5.969 15.731,6.860 14.840 L 8.480 13.218 8.480 13.005 C 8.480 12.816,8.465 12.777,8.344 12.656 C 8.223 12.535,8.184 12.520,7.995 12.520 L 7.782 12.520 5.671 14.630 " stroke="none" fill="black" fill-rule="evenodd"></path></svg>