<svg xmlns="http://www.w3.org/2000/svg" class="icon icon-tabler icon-tabler-switch-vertical" width="24" height="24" viewBox="0 0 24 24" stroke-width="1" stroke="currentColor" fill="none" stroke-linecap="round" stroke-linejoin="round"><path d="M6.820 3.538 C 6.754 3.567,5.760 4.535,4.610 5.687 L 2.520 7.782 2.520 7.995 C 2.520 8.184,2.535 8.223,2.656 8.344 C 2.777 8.465,2.816 8.480,3.005 8.480 L 3.218 8.480 4.849 6.851 L 6.480 5.221 6.481 9.081 C 6.482 11.293,6.498 13.008,6.519 13.100 C 6.574 13.341,6.751 13.480,7.000 13.480 C 7.249 13.480,7.426 13.341,7.481 13.100 C 7.502 13.008,7.518 11.293,7.519 9.081 L 7.520 5.221 9.151 6.851 L 10.782 8.480 10.995 8.480 C 11.184 8.480,11.223 8.465,11.344 8.344 C 11.465 8.223,11.480 8.184,11.480 7.995 L 11.480 7.782 9.390 5.687 C 8.197 4.491,7.245 3.568,7.171 3.536 C 7.014 3.468,6.973 3.468,6.820 3.538 M16.679 9.630 C 16.605 9.696,16.541 9.804,16.519 9.900 C 16.498 9.992,16.482 11.901,16.481 14.419 L 16.480 18.779 14.849 17.149 L 13.218 15.520 13.005 15.520 C 12.816 15.520,12.777 15.535,12.656 15.656 C 12.535 15.777,12.520 15.816,12.520 16.005 L 12.520 16.218 14.630 18.329 C 16.103 19.804,16.778 20.453,16.870 20.483 C 16.963 20.514,17.037 20.514,17.130 20.483 C 17.222 20.453,17.897 19.804,19.370 18.329 L 21.480 16.218 21.480 16.005 C 21.480 15.816,21.465 15.777,21.344 15.656 C 21.223 15.535,21.184 15.520,20.995 15.520 L 20.782 15.520 19.151 17.149 L 17.520 18.779 17.519 14.419 C 17.518 11.901,17.502 9.992,17.481 9.900 C 17.426 9.659,17.249 9.520,17.000 9.520 C 16.840 9.520,16.778 9.541,16.679 9.630 " stroke="none" fill="black" fill-rule="evenodd"></path></svg>