<svg xmlns="http://www.w3.org/2000/svg" class="icon icon-tabler icon-tabler-switch" width="24" height="24" viewBox="0 0 24 24" stroke-width="1" stroke="currentColor" fill="none" stroke-linecap="round" stroke-linejoin="round"><path d="M16.827 3.518 L 14.753 3.540 14.637 3.671 C 14.427 3.905,14.494 4.291,14.773 4.450 C 14.836 4.486,15.275 4.505,16.390 4.520 L 17.920 4.540 16.136 6.740 C 15.155 7.950,14.325 9.001,14.293 9.076 C 14.257 9.160,14.243 9.264,14.258 9.345 C 14.290 9.514,14.486 9.710,14.655 9.742 C 14.948 9.797,14.961 9.783,16.765 7.554 L 18.460 5.461 18.480 6.800 C 18.494 7.763,18.514 8.164,18.550 8.227 C 18.707 8.501,19.095 8.573,19.321 8.370 C 19.395 8.304,19.459 8.196,19.481 8.100 C 19.501 8.012,19.518 7.040,19.519 5.940 C 19.520 4.114,19.514 3.928,19.450 3.803 C 19.360 3.626,19.214 3.521,19.039 3.507 C 18.963 3.500,17.967 3.505,16.827 3.518 M4.656 4.656 C 4.535 4.777,4.520 4.816,4.520 5.006 L 4.520 5.219 11.140 11.840 C 14.781 15.481,17.760 18.474,17.760 18.490 C 17.760 18.507,17.092 18.520,16.276 18.520 L 14.792 18.520 14.656 18.656 C 14.536 18.776,14.520 18.817,14.520 19.000 C 14.520 19.182,14.537 19.225,14.652 19.340 C 14.758 19.446,14.828 19.478,15.002 19.498 C 15.122 19.513,16.105 19.519,17.187 19.512 C 19.104 19.500,19.157 19.498,19.267 19.417 C 19.524 19.229,19.520 19.266,19.519 17.060 C 19.518 15.960,19.501 14.988,19.481 14.900 C 19.426 14.659,19.249 14.520,19.000 14.520 C 18.751 14.520,18.574 14.659,18.519 14.900 C 18.499 14.988,18.481 15.672,18.481 16.420 L 18.480 17.780 11.850 11.150 L 5.219 4.520 5.006 4.520 C 4.816 4.520,4.777 4.535,4.656 4.656 M6.650 16.650 L 4.520 18.781 4.520 18.994 C 4.520 19.184,4.535 19.223,4.656 19.344 C 4.777 19.465,4.816 19.480,5.006 19.480 L 5.219 19.480 7.350 17.350 L 9.480 15.219 9.480 15.006 C 9.480 14.816,9.465 14.777,9.344 14.656 C 9.223 14.535,9.184 14.520,8.994 14.520 L 8.781 14.520 6.650 16.650 " stroke="none" fill="black" fill-rule="evenodd"></path></svg>