<svg xmlns="http://www.w3.org/2000/svg" class="icon icon-tabler icon-tabler-table" width="24" height="24" viewBox="0 0 24 24" stroke-width="1" stroke="currentColor" fill="none" stroke-linecap="round" stroke-linejoin="round"><path d="M7.680 3.520 C 5.504 3.540,5.455 3.542,5.192 3.631 C 4.444 3.884,3.817 4.551,3.594 5.330 L 3.500 5.660 3.500 12.000 C 3.500 17.982,3.504 18.354,3.572 18.593 C 3.838 19.528,4.448 20.147,5.380 20.425 C 5.605 20.492,5.994 20.497,11.700 20.510 C 15.647 20.519,17.924 20.509,18.189 20.482 C 19.305 20.371,20.121 19.684,20.427 18.600 C 20.496 18.353,20.500 18.024,20.500 12.000 C 20.500 5.976,20.496 5.647,20.427 5.400 C 20.196 4.582,19.666 3.982,18.900 3.670 L 18.580 3.540 16.780 3.530 C 12.099 3.504,9.724 3.502,7.680 3.520 M9.480 7.020 L 9.480 9.520 7.000 9.520 L 4.520 9.520 4.520 7.600 C 4.520 5.803,4.525 5.668,4.597 5.478 C 4.744 5.093,5.084 4.749,5.468 4.599 C 5.646 4.529,5.800 4.524,7.570 4.522 L 9.480 4.520 9.480 7.020 M18.641 4.649 C 18.924 4.787,19.213 5.076,19.351 5.359 L 19.460 5.580 19.471 7.550 L 19.483 9.520 15.001 9.520 L 10.520 9.520 10.520 7.019 L 10.520 4.519 14.470 4.529 L 18.420 4.540 18.641 4.649 M9.480 15.023 L 9.480 19.526 7.610 19.510 C 5.987 19.497,5.713 19.486,5.535 19.428 C 5.132 19.294,4.751 18.926,4.597 18.522 C 4.523 18.327,4.520 18.171,4.520 14.420 L 4.520 10.520 7.000 10.520 L 9.480 10.520 9.480 15.023 M19.471 14.470 L 19.460 18.420 19.372 18.610 C 19.253 18.868,18.913 19.218,18.664 19.339 C 18.552 19.394,18.334 19.456,18.180 19.478 C 18.010 19.503,16.451 19.519,14.210 19.519 L 10.520 19.520 10.520 15.020 L 10.520 10.520 15.001 10.520 L 19.482 10.520 19.471 14.470 " stroke="none" fill="black" fill-rule="evenodd"></path></svg>