<svg xmlns="http://www.w3.org/2000/svg" class="icon icon-tabler icon-tabler-tag" width="24" height="24" viewBox="0 0 24 24" stroke-width="1" stroke="currentColor" fill="none" stroke-linecap="round" stroke-linejoin="round"><path d="M6.145 2.582 C 4.561 2.897,3.244 4.049,2.740 5.561 C 2.520 6.220,2.514 6.301,2.492 8.613 C 2.481 9.797,2.484 10.868,2.499 10.993 L 2.526 11.220 7.133 15.831 C 9.667 18.368,11.824 20.497,11.926 20.563 C 12.268 20.784,12.533 20.856,13.000 20.856 C 13.467 20.856,13.732 20.784,14.074 20.563 C 14.176 20.497,15.675 19.025,17.405 17.292 C 20.314 14.378,20.560 14.120,20.672 13.880 C 20.973 13.234,20.932 12.498,20.563 11.926 C 20.497 11.824,18.368 9.666,15.831 7.130 L 11.219 2.520 8.820 2.524 C 6.965 2.527,6.358 2.540,6.145 2.582 M15.266 7.970 C 17.711 10.418,19.745 12.483,19.785 12.560 C 19.837 12.659,19.859 12.788,19.859 13.000 C 19.860 13.255,19.844 13.327,19.753 13.480 C 19.618 13.706,13.632 19.685,13.440 19.785 C 13.246 19.886,12.754 19.887,12.560 19.785 C 12.483 19.745,10.418 17.711,7.970 15.266 L 3.520 10.820 3.520 8.698 C 3.520 7.344,3.536 6.490,3.563 6.340 C 3.773 5.206,4.658 4.147,5.740 3.738 C 6.287 3.531,6.346 3.527,8.660 3.523 L 10.820 3.520 15.266 7.970 M8.274 6.613 C 7.869 6.736,7.560 6.923,7.242 7.241 C 6.718 7.764,6.500 8.331,6.528 9.098 C 6.541 9.446,6.567 9.603,6.652 9.839 C 6.908 10.557,7.492 11.130,8.207 11.364 C 8.459 11.447,8.576 11.460,9.040 11.459 C 9.553 11.457,9.596 11.451,9.900 11.328 C 10.882 10.933,11.480 10.053,11.480 9.000 C 11.480 7.947,10.879 7.061,9.900 6.673 C 9.612 6.559,9.530 6.545,9.080 6.533 C 8.647 6.521,8.539 6.532,8.274 6.613 M9.641 7.649 C 9.924 7.787,10.213 8.076,10.351 8.359 C 10.449 8.557,10.460 8.624,10.460 9.000 C 10.460 9.348,10.445 9.453,10.372 9.610 C 10.250 9.875,9.912 10.218,9.644 10.350 C 9.443 10.449,9.377 10.460,9.000 10.460 C 8.624 10.460,8.557 10.449,8.359 10.351 C 8.076 10.213,7.787 9.924,7.649 9.641 C 7.499 9.337,7.474 8.802,7.593 8.488 C 7.743 8.094,8.077 7.753,8.468 7.597 C 8.766 7.478,9.345 7.503,9.641 7.649 " stroke="none" fill="black" fill-rule="evenodd"></path></svg>