<svg xmlns="http://www.w3.org/2000/svg" class="icon icon-tabler icon-tabler-tallymark-2" width="24" height="24" viewBox="0 0 24 24" stroke-width="1" stroke="currentColor" fill="none" stroke-linecap="round" stroke-linejoin="round"><path d="M9.679 4.630 C 9.605 4.696,9.541 4.804,9.519 4.900 C 9.470 5.114,9.470 18.886,9.519 19.100 C 9.574 19.341,9.751 19.480,10.000 19.480 C 10.249 19.480,10.426 19.341,10.481 19.100 C 10.530 18.886,10.530 5.114,10.481 4.900 C 10.426 4.659,10.249 4.520,10.000 4.520 C 9.840 4.520,9.778 4.541,9.679 4.630 M13.679 4.630 C 13.605 4.696,13.541 4.804,13.519 4.900 C 13.470 5.114,13.470 18.886,13.519 19.100 C 13.574 19.341,13.751 19.480,14.000 19.480 C 14.249 19.480,14.426 19.341,14.481 19.100 C 14.530 18.886,14.530 5.114,14.481 4.900 C 14.426 4.659,14.249 4.520,14.000 4.520 C 13.840 4.520,13.778 4.541,13.679 4.630 " stroke="none" fill="black" fill-rule="evenodd"></path></svg>