<svg xmlns="http://www.w3.org/2000/svg" class="icon icon-tabler icon-tabler-tallymark-3" width="24" height="24" viewBox="0 0 24 24" stroke-width="1" stroke="currentColor" fill="none" stroke-linecap="round" stroke-linejoin="round"><path d="M7.679 4.630 C 7.605 4.696,7.541 4.804,7.519 4.900 C 7.470 5.114,7.470 18.886,7.519 19.100 C 7.574 19.341,7.751 19.480,8.000 19.480 C 8.249 19.480,8.426 19.341,8.481 19.100 C 8.530 18.886,8.530 5.114,8.481 4.900 C 8.426 4.659,8.249 4.520,8.000 4.520 C 7.840 4.520,7.778 4.541,7.679 4.630 M11.679 4.630 C 11.605 4.696,11.541 4.804,11.519 4.900 C 11.470 5.114,11.470 18.886,11.519 19.100 C 11.574 19.341,11.751 19.480,12.000 19.480 C 12.249 19.480,12.426 19.341,12.481 19.100 C 12.530 18.886,12.530 5.114,12.481 4.900 C 12.426 4.659,12.249 4.520,12.000 4.520 C 11.840 4.520,11.778 4.541,11.679 4.630 M15.679 4.630 C 15.605 4.696,15.541 4.804,15.519 4.900 C 15.470 5.114,15.470 18.886,15.519 19.100 C 15.574 19.341,15.751 19.480,16.000 19.480 C 16.249 19.480,16.426 19.341,16.481 19.100 C 16.530 18.886,16.530 5.114,16.481 4.900 C 16.426 4.659,16.249 4.520,16.000 4.520 C 15.840 4.520,15.778 4.541,15.679 4.630 " stroke="none" fill="black" fill-rule="evenodd"></path></svg>