<svg xmlns="http://www.w3.org/2000/svg" class="icon icon-tabler icon-tabler-tallymarks" width="24" height="24" viewBox="0 0 24 24" stroke-width="1" stroke="currentColor" fill="none" stroke-linecap="round" stroke-linejoin="round"><path d="M5.679 4.630 C 5.605 4.696,5.541 4.804,5.519 4.900 C 5.497 4.993,5.481 7.156,5.480 10.060 L 5.477 15.060 4.080 15.832 C 3.295 16.266,2.646 16.650,2.601 16.708 C 2.544 16.780,2.520 16.871,2.520 17.009 C 2.520 17.182,2.538 17.226,2.656 17.344 C 2.774 17.462,2.817 17.480,2.986 17.478 C 3.160 17.476,3.296 17.412,4.320 16.842 L 5.460 16.209 5.480 17.674 C 5.495 18.738,5.514 19.164,5.550 19.227 C 5.707 19.501,6.095 19.573,6.321 19.370 C 6.395 19.304,6.459 19.196,6.481 19.100 C 6.501 19.012,6.519 18.193,6.519 17.280 L 6.520 15.620 7.978 14.810 C 8.779 14.365,9.445 14.000,9.458 14.000 C 9.470 14.000,9.480 15.112,9.481 16.470 C 9.481 17.833,9.498 19.012,9.519 19.100 C 9.541 19.196,9.605 19.304,9.679 19.370 C 9.905 19.573,10.293 19.501,10.450 19.227 C 10.488 19.161,10.505 18.453,10.520 16.264 L 10.540 13.387 12.000 12.576 L 13.460 11.764 13.480 15.452 C 13.495 18.289,13.511 19.160,13.550 19.227 C 13.707 19.501,14.095 19.573,14.321 19.370 C 14.395 19.304,14.459 19.196,14.481 19.100 C 14.502 19.008,14.518 17.284,14.519 15.058 L 14.520 11.175 15.974 10.368 C 16.774 9.923,17.440 9.560,17.454 9.560 C 17.468 9.560,17.480 11.671,17.481 14.250 C 17.482 16.970,17.497 19.007,17.519 19.100 C 17.541 19.196,17.605 19.304,17.679 19.370 C 17.905 19.573,18.293 19.501,18.450 19.227 C 18.489 19.159,18.504 18.003,18.520 14.041 L 18.540 8.942 19.917 8.177 C 20.675 7.756,21.336 7.363,21.387 7.304 C 21.458 7.221,21.480 7.147,21.480 6.994 C 21.480 6.818,21.463 6.775,21.344 6.656 C 21.228 6.540,21.180 6.520,21.021 6.520 C 20.855 6.520,20.710 6.589,19.687 7.158 L 18.540 7.796 18.520 6.328 C 18.505 5.263,18.486 4.836,18.450 4.773 C 18.293 4.499,17.905 4.427,17.679 4.630 C 17.605 4.696,17.541 4.804,17.519 4.900 C 17.499 4.988,17.481 5.808,17.481 6.722 L 17.480 8.385 16.026 9.192 C 15.226 9.637,14.560 10.000,14.546 10.000 C 14.532 10.000,14.520 8.889,14.519 7.530 C 14.519 6.167,14.502 4.988,14.481 4.900 C 14.459 4.804,14.395 4.696,14.321 4.630 C 14.095 4.427,13.707 4.499,13.550 4.773 C 13.512 4.839,13.495 5.548,13.480 7.739 L 13.460 10.618 12.000 11.429 L 10.540 12.239 10.520 8.550 C 10.505 5.712,10.489 4.840,10.450 4.773 C 10.293 4.499,9.905 4.427,9.679 4.630 C 9.605 4.696,9.541 4.804,9.519 4.900 C 9.498 4.992,9.482 6.717,9.481 8.945 L 9.480 12.830 8.000 13.651 L 6.520 14.473 6.519 9.767 C 6.518 7.036,6.503 4.993,6.481 4.900 C 6.426 4.659,6.249 4.520,6.000 4.520 C 5.840 4.520,5.778 4.541,5.679 4.630 " stroke="none" fill="black" fill-rule="evenodd"></path></svg>