<svg xmlns="http://www.w3.org/2000/svg" class="icon icon-tabler icon-tabler-target" width="24" height="24" viewBox="0 0 24 24" stroke-width="1" stroke="currentColor" fill="none" stroke-linecap="round" stroke-linejoin="round"><path d="M10.900 2.564 C 9.092 2.784,7.444 3.481,6.020 4.628 C 4.323 5.995,3.091 8.034,2.679 10.160 C 2.468 11.247,2.468 12.755,2.679 13.840 C 3.019 15.591,3.905 17.278,5.170 18.585 C 6.746 20.212,8.748 21.195,10.991 21.441 C 11.569 21.505,12.996 21.471,13.520 21.382 C 16.578 20.862,19.166 18.939,20.519 16.180 C 21.189 14.815,21.480 13.549,21.480 12.000 C 21.480 10.487,21.202 9.243,20.562 7.900 C 19.798 6.294,18.506 4.858,16.968 3.907 C 15.800 3.185,14.424 2.710,13.072 2.562 C 12.621 2.513,11.309 2.514,10.900 2.564 M13.160 3.581 C 14.081 3.712,14.852 3.948,15.700 4.360 C 16.622 4.807,17.277 5.273,18.002 5.998 C 19.251 7.248,20.028 8.728,20.365 10.500 C 20.470 11.053,20.512 12.362,20.444 12.946 C 20.245 14.630,19.576 16.182,18.485 17.486 C 17.115 19.122,15.119 20.188,12.946 20.444 C 12.362 20.512,11.053 20.470,10.500 20.365 C 7.839 19.860,5.635 18.221,4.428 15.851 C 4.054 15.115,3.799 14.359,3.635 13.500 C 3.515 12.874,3.486 11.525,3.577 10.868 C 4.105 7.087,7.016 4.152,10.800 3.585 C 11.320 3.507,12.623 3.505,13.160 3.581 M11.044 6.584 C 10.584 6.661,9.953 6.879,9.471 7.126 C 8.191 7.784,7.249 8.891,6.782 10.285 C 6.598 10.836,6.520 11.345,6.520 12.000 C 6.520 12.938,6.705 13.708,7.126 14.529 C 7.902 16.039,9.422 17.149,11.080 17.418 C 11.563 17.496,12.432 17.497,12.910 17.420 C 14.581 17.149,16.095 16.044,16.874 14.529 C 17.295 13.708,17.480 12.938,17.480 12.000 C 17.480 11.062,17.295 10.292,16.874 9.471 C 16.089 7.943,14.595 6.854,12.910 6.580 C 12.450 6.506,11.501 6.508,11.044 6.584 M13.088 7.632 C 14.738 8.078,15.906 9.245,16.370 10.913 C 16.444 11.178,16.456 11.325,16.456 12.000 C 16.456 12.844,16.421 13.049,16.177 13.667 C 15.739 14.774,14.799 15.723,13.706 16.160 C 13.053 16.422,12.856 16.456,12.000 16.456 C 11.325 16.456,11.178 16.444,10.913 16.370 C 9.247 15.906,8.074 14.732,7.633 13.088 C 7.528 12.694,7.488 11.732,7.559 11.287 C 7.854 9.440,9.280 7.965,11.145 7.580 C 11.564 7.493,12.685 7.524,13.088 7.632 M11.468 10.597 C 11.055 10.763,10.691 11.152,10.575 11.552 C 10.480 11.879,10.514 12.364,10.651 12.646 C 10.787 12.924,11.077 13.213,11.359 13.351 C 11.557 13.449,11.624 13.460,12.000 13.460 C 12.376 13.460,12.443 13.449,12.641 13.351 C 12.924 13.213,13.213 12.924,13.351 12.641 C 13.449 12.443,13.460 12.376,13.460 12.000 C 13.460 11.624,13.449 11.557,13.351 11.359 C 13.213 11.076,12.924 10.787,12.643 10.650 C 12.345 10.504,11.763 10.478,11.468 10.597 M12.344 11.656 C 12.464 11.776,12.480 11.817,12.480 12.000 C 12.480 12.183,12.464 12.224,12.344 12.344 C 12.224 12.464,12.183 12.480,12.000 12.480 C 11.817 12.480,11.776 12.464,11.656 12.344 C 11.536 12.224,11.520 12.183,11.520 12.000 C 11.520 11.817,11.536 11.776,11.656 11.656 C 11.776 11.536,11.817 11.520,12.000 11.520 C 12.183 11.520,12.224 11.536,12.344 11.656 " stroke="none" fill="black" fill-rule="evenodd"></path></svg>