<svg xmlns="http://www.w3.org/2000/svg" class="icon icon-tabler icon-tabler-tax" width="24" height="24" viewBox="0 0 24 24" stroke-width="1" stroke="currentColor" fill="none" stroke-linecap="round" stroke-linejoin="round"><path d="M6.274 2.615 C 5.870 2.735,5.561 2.922,5.242 3.242 C 4.922 3.561,4.739 3.864,4.603 4.294 L 4.500 4.620 4.488 12.700 C 4.481 17.144,4.487 20.878,4.502 20.998 C 4.522 21.172,4.554 21.242,4.660 21.348 C 4.773 21.461,4.820 21.480,4.986 21.480 C 5.172 21.480,5.234 21.444,6.559 20.560 L 7.939 19.641 8.861 20.560 L 9.784 21.480 10.000 21.480 L 10.216 21.480 11.108 20.591 L 12.000 19.702 12.892 20.591 L 13.784 21.480 14.000 21.480 L 14.216 21.480 15.139 20.560 L 16.061 19.641 17.441 20.560 C 18.766 21.444,18.828 21.480,19.014 21.480 C 19.180 21.480,19.227 21.461,19.340 21.348 C 19.446 21.242,19.478 21.172,19.498 20.998 C 19.513 20.878,19.518 17.144,19.511 12.700 C 19.498 5.057,19.493 4.607,19.425 4.380 C 19.181 3.565,18.657 2.978,17.900 2.670 L 17.580 2.540 12.080 2.532 L 6.580 2.524 6.274 2.615 M17.522 3.597 C 17.785 3.697,18.035 3.891,18.216 4.136 C 18.500 4.519,18.481 3.913,18.470 12.391 L 18.460 20.040 17.320 19.280 C 16.224 18.549,16.172 18.520,15.982 18.520 L 15.784 18.520 14.892 19.409 L 14.000 20.298 13.108 19.409 L 12.216 18.520 12.000 18.520 L 11.784 18.520 10.892 19.409 L 10.000 20.298 9.108 19.409 L 8.216 18.520 8.018 18.520 C 7.828 18.520,7.776 18.549,6.680 19.280 L 5.540 20.040 5.530 12.361 C 5.520 4.863,5.522 4.677,5.597 4.479 C 5.744 4.093,6.084 3.749,6.468 3.599 C 6.652 3.527,6.875 3.524,11.990 3.522 C 17.155 3.520,17.325 3.522,17.522 3.597 M9.046 7.623 C 8.680 7.808,8.499 8.141,8.527 8.580 C 8.548 8.907,8.704 9.169,8.978 9.339 C 9.154 9.448,9.207 9.460,9.500 9.460 C 9.793 9.460,9.846 9.448,10.022 9.339 C 10.143 9.264,10.264 9.143,10.339 9.022 C 10.448 8.846,10.460 8.793,10.460 8.500 C 10.460 8.207,10.448 8.154,10.339 7.978 C 10.160 7.689,9.905 7.545,9.544 7.528 C 9.299 7.517,9.230 7.530,9.046 7.623 M11.650 10.650 L 8.520 13.781 8.520 13.994 C 8.520 14.184,8.535 14.223,8.656 14.344 C 8.777 14.465,8.816 14.480,9.006 14.480 L 9.219 14.480 12.350 11.350 L 15.480 8.219 15.480 8.006 C 15.480 7.816,15.465 7.777,15.344 7.656 C 15.223 7.535,15.184 7.520,14.994 7.520 L 14.781 7.520 11.650 10.650 M14.046 12.623 C 13.680 12.808,13.499 13.141,13.527 13.580 C 13.548 13.907,13.704 14.169,13.978 14.339 C 14.154 14.448,14.207 14.460,14.500 14.460 C 14.793 14.460,14.846 14.448,15.022 14.339 C 15.143 14.264,15.264 14.143,15.339 14.022 C 15.448 13.846,15.460 13.793,15.460 13.500 C 15.460 13.207,15.448 13.154,15.339 12.978 C 15.160 12.689,14.905 12.545,14.544 12.528 C 14.299 12.517,14.230 12.530,14.046 12.623 " stroke="none" fill="black" fill-rule="evenodd"></path></svg>