<svg xmlns="http://www.w3.org/2000/svg" class="icon icon-tabler icon-tabler-temperature-fahrenheit" width="24" height="24" viewBox="0 0 24 24" stroke-width="1" stroke="currentColor" fill="none" stroke-linecap="round" stroke-linejoin="round"><path d="M5.274 5.613 C 4.869 5.736,4.560 5.923,4.242 6.241 C 3.718 6.764,3.500 7.331,3.528 8.098 C 3.541 8.446,3.567 8.603,3.652 8.839 C 3.908 9.557,4.492 10.130,5.207 10.364 C 5.459 10.447,5.576 10.460,6.040 10.459 C 6.553 10.457,6.596 10.451,6.900 10.328 C 7.882 9.933,8.480 9.053,8.480 8.000 C 8.480 6.947,7.879 6.061,6.900 5.673 C 6.612 5.559,6.530 5.545,6.080 5.533 C 5.647 5.521,5.539 5.532,5.274 5.613 M13.493 5.594 C 13.106 5.728,12.758 6.071,12.587 6.488 L 12.500 6.700 12.488 12.240 C 12.481 15.287,12.487 17.878,12.502 17.998 C 12.522 18.172,12.554 18.242,12.660 18.348 C 12.775 18.463,12.819 18.480,12.995 18.480 C 13.250 18.480,13.425 18.343,13.481 18.100 C 13.502 18.011,13.519 16.740,13.519 15.230 L 13.520 12.520 15.730 12.519 C 16.945 12.519,18.012 12.501,18.100 12.481 C 18.343 12.425,18.480 12.250,18.480 11.995 C 18.480 11.817,18.463 11.775,18.344 11.656 L 18.208 11.520 15.864 11.520 L 13.520 11.520 13.520 9.156 L 13.520 6.792 13.656 6.656 L 13.792 6.520 16.866 6.519 C 18.598 6.519,20.010 6.502,20.100 6.481 C 20.343 6.425,20.480 6.250,20.480 5.995 C 20.480 5.817,20.463 5.775,20.344 5.656 L 20.208 5.520 16.954 5.521 C 13.937 5.523,13.685 5.528,13.493 5.594 M6.641 6.649 C 6.763 6.708,6.948 6.843,7.053 6.947 C 7.157 7.052,7.292 7.237,7.351 7.359 C 7.449 7.557,7.460 7.624,7.460 8.000 C 7.460 8.348,7.445 8.453,7.372 8.610 C 7.250 8.875,6.912 9.218,6.644 9.350 C 6.443 9.449,6.377 9.460,6.000 9.460 C 5.624 9.460,5.557 9.449,5.359 9.351 C 5.076 9.213,4.787 8.924,4.649 8.641 C 4.499 8.337,4.474 7.802,4.593 7.488 C 4.743 7.094,5.077 6.753,5.468 6.597 C 5.766 6.478,6.345 6.503,6.641 6.649 " stroke="none" fill="black" fill-rule="evenodd"></path></svg>