<svg xmlns="http://www.w3.org/2000/svg" class="icon icon-tabler icon-tabler-temperature-celsius" width="24" height="24" viewBox="0 0 24 24" stroke-width="1" stroke="currentColor" fill="none" stroke-linecap="round" stroke-linejoin="round"><path d="M5.274 5.613 C 4.869 5.736,4.560 5.923,4.242 6.241 C 3.718 6.764,3.500 7.331,3.528 8.098 C 3.541 8.446,3.567 8.603,3.652 8.839 C 3.908 9.557,4.492 10.130,5.207 10.364 C 5.459 10.447,5.576 10.460,6.040 10.459 C 6.553 10.457,6.596 10.451,6.900 10.328 C 7.882 9.933,8.480 9.053,8.480 8.000 C 8.480 6.947,7.879 6.061,6.900 5.673 C 6.612 5.559,6.530 5.545,6.080 5.533 C 5.647 5.521,5.539 5.532,5.274 5.613 M15.259 5.577 C 14.606 5.724,13.929 6.109,13.471 6.594 C 12.910 7.189,12.594 7.897,12.521 8.725 C 12.468 9.319,12.468 14.682,12.521 15.276 C 12.599 16.158,12.915 16.835,13.540 17.460 C 13.966 17.886,14.374 18.141,14.915 18.321 C 15.700 18.583,17.305 18.582,18.086 18.320 C 19.154 17.962,19.966 17.151,20.320 16.090 C 20.425 15.774,20.454 15.615,20.471 15.252 L 20.491 14.803 20.350 14.662 C 20.224 14.536,20.185 14.520,20.000 14.520 C 19.818 14.520,19.775 14.537,19.660 14.652 C 19.549 14.763,19.524 14.823,19.503 15.022 C 19.433 15.716,19.329 16.027,19.027 16.448 C 18.681 16.931,18.182 17.273,17.600 17.428 C 17.393 17.482,17.167 17.496,16.500 17.496 C 15.833 17.496,15.607 17.482,15.400 17.428 C 14.497 17.188,13.808 16.502,13.581 15.615 C 13.526 15.400,13.519 14.946,13.529 11.895 L 13.540 8.420 13.635 8.166 C 13.752 7.853,14.063 7.381,14.283 7.182 C 14.527 6.961,14.890 6.738,15.171 6.636 C 15.398 6.553,15.505 6.544,16.387 6.530 C 17.178 6.517,17.400 6.525,17.607 6.578 C 18.173 6.720,18.681 7.069,19.027 7.552 C 19.329 7.973,19.433 8.284,19.503 8.978 C 19.524 9.177,19.549 9.237,19.660 9.348 C 19.775 9.463,19.818 9.480,20.000 9.480 C 20.185 9.480,20.224 9.464,20.350 9.338 L 20.491 9.197 20.471 8.748 C 20.445 8.192,20.286 7.677,19.993 7.200 C 19.537 6.460,18.914 5.962,18.079 5.673 L 17.700 5.542 16.600 5.533 C 15.792 5.526,15.436 5.537,15.259 5.577 M6.641 6.649 C 6.763 6.708,6.948 6.843,7.053 6.947 C 7.157 7.052,7.292 7.237,7.351 7.359 C 7.449 7.557,7.460 7.624,7.460 8.000 C 7.460 8.348,7.445 8.453,7.372 8.610 C 7.250 8.875,6.912 9.218,6.644 9.350 C 6.443 9.449,6.377 9.460,6.000 9.460 C 5.624 9.460,5.557 9.449,5.359 9.351 C 5.076 9.213,4.787 8.924,4.649 8.641 C 4.499 8.337,4.474 7.802,4.593 7.488 C 4.743 7.094,5.077 6.753,5.468 6.597 C 5.766 6.478,6.345 6.503,6.641 6.649 " stroke="none" fill="black" fill-rule="evenodd"></path></svg>