<svg xmlns="http://www.w3.org/2000/svg" class="icon icon-tabler icon-tabler-temperature-minus" width="24" height="24" viewBox="0 0 24 24" stroke-width="1" stroke="currentColor" fill="none" stroke-linecap="round" stroke-linejoin="round"><path d="M9.274 2.613 C 8.868 2.736,8.560 2.924,8.242 3.242 C 7.922 3.562,7.738 3.864,7.604 4.294 L 7.502 4.620 7.489 8.928 L 7.476 13.236 7.288 13.374 C 7.022 13.570,6.483 14.136,6.292 14.420 C 5.764 15.206,5.518 16.012,5.517 16.960 C 5.516 18.165,5.947 19.244,6.767 20.086 C 8.520 21.886,11.380 21.921,13.152 20.166 C 14.037 19.289,14.480 18.220,14.480 16.961 C 14.480 16.008,14.236 15.205,13.708 14.420 C 13.517 14.136,12.978 13.570,12.712 13.374 L 12.524 13.236 12.510 8.928 C 12.497 4.941,12.490 4.602,12.424 4.380 C 12.184 3.567,11.651 2.971,10.900 2.673 C 10.612 2.559,10.530 2.545,10.080 2.533 C 9.647 2.521,9.539 2.532,9.274 2.613 M10.641 3.649 C 10.924 3.787,11.213 4.076,11.351 4.359 L 11.460 4.580 11.471 6.550 L 11.483 8.520 10.001 8.520 L 8.520 8.520 8.520 6.600 C 8.520 4.803,8.525 4.668,8.597 4.478 C 8.743 4.094,9.081 3.752,9.468 3.597 C 9.766 3.478,10.345 3.503,10.641 3.649 M15.656 8.656 C 15.537 8.775,15.520 8.817,15.520 8.995 C 15.520 9.250,15.657 9.425,15.900 9.481 C 16.110 9.530,21.890 9.530,22.100 9.481 C 22.343 9.425,22.480 9.250,22.480 8.995 C 22.480 8.817,22.463 8.775,22.344 8.656 L 22.208 8.520 19.000 8.520 L 15.792 8.520 15.656 8.656 M11.488 11.570 C 11.498 13.220,11.511 13.641,11.555 13.728 C 11.586 13.787,11.739 13.921,11.895 14.025 C 12.464 14.402,12.861 14.861,13.158 15.483 C 13.417 16.028,13.460 16.243,13.459 17.000 C 13.458 17.640,13.454 17.672,13.327 18.040 C 13.121 18.638,12.916 18.964,12.460 19.420 C 12.004 19.876,11.670 20.086,11.098 20.277 C 10.378 20.517,9.648 20.518,8.909 20.280 C 8.422 20.124,8.005 19.874,7.605 19.497 C 7.073 18.997,6.722 18.372,6.574 17.665 C 6.500 17.309,6.501 16.607,6.576 16.248 C 6.760 15.362,7.324 14.543,8.105 14.024 C 8.261 13.920,8.414 13.787,8.445 13.728 C 8.489 13.641,8.502 13.220,8.512 11.570 L 8.523 9.520 10.000 9.520 L 11.477 9.520 11.488 11.570 " stroke="none" fill="black" fill-rule="evenodd"></path></svg>