<svg xmlns="http://www.w3.org/2000/svg" class="icon icon-tabler icon-tabler-temperature" width="24" height="24" viewBox="0 0 24 24" stroke-width="1" stroke="currentColor" fill="none" stroke-linecap="round" stroke-linejoin="round"><path d="M11.274 2.613 C 10.868 2.736,10.560 2.924,10.242 3.242 C 9.922 3.562,9.738 3.864,9.604 4.294 L 9.502 4.620 9.489 8.928 L 9.476 13.236 9.288 13.374 C 9.022 13.570,8.483 14.136,8.292 14.420 C 7.764 15.206,7.518 16.012,7.517 16.960 C 7.516 18.165,7.947 19.244,8.767 20.086 C 10.520 21.886,13.380 21.921,15.152 20.166 C 16.037 19.289,16.480 18.220,16.480 16.961 C 16.480 16.008,16.236 15.205,15.708 14.420 C 15.517 14.136,14.978 13.570,14.712 13.374 L 14.524 13.236 14.510 8.928 C 14.497 4.941,14.490 4.602,14.424 4.380 C 14.184 3.567,13.651 2.971,12.900 2.673 C 12.612 2.559,12.530 2.545,12.080 2.533 C 11.647 2.521,11.539 2.532,11.274 2.613 M12.641 3.649 C 12.924 3.787,13.213 4.076,13.351 4.359 L 13.460 4.580 13.471 6.550 L 13.483 8.520 12.001 8.520 L 10.520 8.520 10.520 6.600 C 10.520 4.803,10.525 4.668,10.597 4.478 C 10.743 4.094,11.081 3.752,11.468 3.597 C 11.766 3.478,12.345 3.503,12.641 3.649 M13.488 11.570 C 13.498 13.220,13.511 13.641,13.555 13.728 C 13.586 13.787,13.739 13.921,13.895 14.025 C 14.464 14.402,14.861 14.861,15.158 15.483 C 15.417 16.028,15.460 16.243,15.459 17.000 C 15.458 17.640,15.454 17.672,15.327 18.040 C 15.121 18.638,14.916 18.964,14.460 19.420 C 14.004 19.876,13.670 20.086,13.098 20.277 C 12.378 20.517,11.648 20.518,10.909 20.280 C 10.422 20.124,10.005 19.874,9.605 19.497 C 9.073 18.997,8.722 18.372,8.574 17.665 C 8.500 17.309,8.501 16.607,8.576 16.248 C 8.760 15.362,9.324 14.543,10.105 14.024 C 10.261 13.920,10.414 13.787,10.445 13.728 C 10.489 13.641,10.502 13.220,10.512 11.570 L 10.523 9.520 12.000 9.520 L 13.477 9.520 13.488 11.570 " stroke="none" fill="black" fill-rule="evenodd"></path></svg>