<svg xmlns="http://www.w3.org/2000/svg" class="icon icon-tabler icon-tabler-template" width="24" height="24" viewBox="0 0 24 24" stroke-width="1" stroke="currentColor" fill="none" stroke-linecap="round" stroke-linejoin="round"><path d="M4.468 3.599 C 4.060 3.758,3.697 4.145,3.569 4.556 C 3.510 4.748,3.500 4.955,3.500 6.000 C 3.500 7.045,3.510 7.252,3.569 7.444 C 3.706 7.885,4.115 8.294,4.556 8.431 C 4.765 8.495,5.260 8.500,12.000 8.500 C 18.740 8.500,19.235 8.495,19.444 8.431 C 19.885 8.294,20.294 7.885,20.431 7.444 C 20.490 7.252,20.500 7.045,20.500 6.000 C 20.500 4.955,20.490 4.748,20.431 4.556 C 20.300 4.133,19.918 3.736,19.507 3.594 C 19.311 3.526,18.903 3.523,11.980 3.523 C 4.917 3.524,4.653 3.526,4.468 3.599 M19.344 4.656 L 19.480 4.792 19.480 5.995 L 19.480 7.199 19.370 7.321 C 19.304 7.395,19.196 7.459,19.100 7.481 C 18.886 7.530,5.114 7.530,4.900 7.481 C 4.804 7.459,4.696 7.395,4.630 7.321 L 4.520 7.199 4.520 5.995 L 4.520 4.792 4.656 4.656 L 4.792 4.520 12.000 4.520 L 19.208 4.520 19.344 4.656 M4.468 11.598 C 4.059 11.759,3.696 12.146,3.569 12.556 C 3.506 12.761,3.500 13.056,3.500 16.000 C 3.500 18.944,3.506 19.239,3.569 19.444 C 3.706 19.885,4.115 20.294,4.556 20.431 C 4.757 20.493,5.006 20.500,7.000 20.500 C 8.994 20.500,9.243 20.493,9.444 20.431 C 9.873 20.298,10.284 19.894,10.429 19.465 C 10.491 19.280,10.499 18.968,10.511 16.220 C 10.525 12.978,10.513 12.690,10.341 12.339 C 10.212 12.075,9.917 11.784,9.641 11.649 L 9.420 11.540 7.040 11.531 C 4.788 11.523,4.650 11.527,4.468 11.598 M13.656 11.656 C 13.537 11.775,13.520 11.817,13.520 11.995 C 13.520 12.250,13.657 12.425,13.900 12.481 C 14.110 12.530,19.890 12.530,20.100 12.481 C 20.343 12.425,20.480 12.250,20.480 11.995 C 20.480 11.817,20.463 11.775,20.344 11.656 L 20.208 11.520 17.000 11.520 L 13.792 11.520 13.656 11.656 M9.344 12.656 L 9.480 12.792 9.480 15.995 L 9.480 19.199 9.370 19.321 C 9.304 19.395,9.196 19.459,9.100 19.481 C 8.891 19.529,5.109 19.529,4.900 19.481 C 4.804 19.459,4.696 19.395,4.630 19.321 L 4.520 19.199 4.520 15.995 L 4.520 12.792 4.656 12.656 L 4.792 12.520 7.000 12.520 L 9.208 12.520 9.344 12.656 M13.656 15.656 C 13.537 15.775,13.520 15.817,13.520 15.995 C 13.520 16.250,13.657 16.425,13.900 16.481 C 14.110 16.530,19.890 16.530,20.100 16.481 C 20.343 16.425,20.480 16.250,20.480 15.995 C 20.480 15.817,20.463 15.775,20.344 15.656 L 20.208 15.520 17.000 15.520 L 13.792 15.520 13.656 15.656 M13.656 19.656 C 13.537 19.775,13.520 19.817,13.520 19.995 C 13.520 20.250,13.657 20.425,13.900 20.481 C 13.990 20.502,15.346 20.518,17.000 20.518 C 18.654 20.518,20.010 20.502,20.100 20.481 C 20.343 20.425,20.480 20.250,20.480 19.995 C 20.480 19.817,20.463 19.775,20.344 19.656 L 20.208 19.520 17.000 19.520 L 13.792 19.520 13.656 19.656 " stroke="none" fill="black" fill-rule="evenodd"></path></svg>