<svg xmlns="http://www.w3.org/2000/svg" class="icon icon-tabler icon-tabler-terminal-2" width="24" height="24" viewBox="0 0 24 24" stroke-width="1" stroke="currentColor" fill="none" stroke-linecap="round" stroke-linejoin="round"><path d="M4.274 3.615 C 3.870 3.734,3.561 3.922,3.242 4.242 C 2.922 4.561,2.739 4.864,2.603 5.294 L 2.500 5.620 2.500 11.980 C 2.500 17.982,2.504 18.354,2.572 18.593 C 2.838 19.528,3.447 20.146,4.380 20.425 C 4.606 20.493,5.025 20.498,11.700 20.510 C 16.315 20.519,18.922 20.509,19.189 20.482 C 20.305 20.371,21.121 19.684,21.427 18.600 C 21.496 18.353,21.500 18.024,21.500 12.000 C 21.500 5.976,21.496 5.647,21.427 5.400 C 21.196 4.582,20.666 3.982,19.900 3.670 L 19.580 3.540 12.080 3.532 L 4.580 3.524 4.274 3.615 M19.641 4.649 C 19.924 4.787,20.213 5.076,20.351 5.359 L 20.460 5.580 20.460 12.000 L 20.460 18.420 20.350 18.644 C 20.220 18.909,19.874 19.252,19.626 19.362 C 19.530 19.404,19.327 19.457,19.176 19.479 C 18.799 19.533,5.201 19.533,4.820 19.478 C 4.666 19.456,4.449 19.394,4.339 19.341 C 4.075 19.212,3.784 18.918,3.649 18.641 L 3.540 18.420 3.530 12.051 C 3.520 5.840,3.521 5.678,3.597 5.479 C 3.743 5.093,4.083 4.749,4.468 4.599 C 4.654 4.526,4.900 4.524,12.040 4.532 L 19.420 4.540 19.641 4.649 M7.656 8.656 C 7.535 8.777,7.520 8.816,7.520 9.005 L 7.520 9.217 8.909 10.609 L 10.298 12.000 8.909 13.391 L 7.520 14.783 7.520 14.995 C 7.520 15.184,7.535 15.223,7.656 15.344 C 7.777 15.465,7.816 15.480,8.005 15.480 L 8.219 15.480 9.849 13.849 L 11.480 12.219 11.480 12.000 L 11.480 11.781 9.849 10.151 L 8.219 8.520 8.005 8.520 C 7.816 8.520,7.777 8.535,7.656 8.656 M12.656 14.656 C 12.537 14.775,12.520 14.817,12.520 14.995 C 12.520 15.250,12.657 15.425,12.900 15.481 C 13.108 15.529,15.892 15.529,16.100 15.481 C 16.343 15.425,16.480 15.250,16.480 14.995 C 16.480 14.817,16.463 14.775,16.344 14.656 L 16.208 14.520 14.500 14.520 L 12.792 14.520 12.656 14.656 " stroke="none" fill="black" fill-rule="evenodd"></path></svg>