<svg xmlns="http://www.w3.org/2000/svg" class="icon icon-tabler icon-tabler-text-wrap" width="24" height="24" viewBox="0 0 24 24" stroke-width="1" stroke="currentColor" fill="none" stroke-linecap="round" stroke-linejoin="round"><path d="M3.656 5.656 C 3.537 5.775,3.520 5.817,3.520 5.995 C 3.520 6.250,3.657 6.425,3.900 6.481 C 4.114 6.531,19.886 6.531,20.100 6.481 C 20.343 6.425,20.480 6.250,20.480 5.995 C 20.480 5.817,20.463 5.775,20.344 5.656 L 20.208 5.520 12.000 5.520 L 3.792 5.520 3.656 5.656 M3.657 11.655 C 3.538 11.774,3.520 11.818,3.520 11.991 C 3.520 12.201,3.604 12.353,3.773 12.450 C 3.841 12.489,5.354 12.504,10.720 12.520 L 17.580 12.540 17.834 12.635 C 18.147 12.752,18.619 13.063,18.818 13.283 C 19.048 13.538,19.266 13.898,19.368 14.192 C 19.446 14.421,19.460 14.540,19.460 15.000 C 19.460 15.460,19.446 15.579,19.368 15.808 C 19.190 16.320,18.844 16.765,18.378 17.076 C 18.023 17.313,17.682 17.432,17.213 17.481 C 16.801 17.525,14.240 17.534,14.240 17.492 C 14.240 17.476,14.519 17.182,14.860 16.839 L 15.480 16.214 15.480 16.003 C 15.480 15.816,15.464 15.776,15.344 15.656 C 15.223 15.535,15.184 15.520,14.995 15.520 L 14.782 15.520 13.651 16.651 L 12.520 17.782 12.520 18.000 L 12.520 18.218 13.651 19.349 L 14.782 20.480 14.995 20.480 C 15.184 20.480,15.223 20.465,15.344 20.344 C 15.464 20.224,15.480 20.184,15.480 19.997 L 15.480 19.786 14.852 19.153 L 14.223 18.520 15.522 18.520 C 16.236 18.519,17.025 18.501,17.276 18.479 C 18.158 18.401,18.835 18.085,19.460 17.460 C 19.883 17.037,20.137 16.634,20.328 16.080 C 20.457 15.707,20.459 15.687,20.459 15.000 C 20.459 14.313,20.457 14.293,20.328 13.920 C 20.137 13.366,19.883 12.963,19.460 12.540 C 19.037 12.117,18.635 11.864,18.080 11.672 L 17.700 11.540 10.747 11.529 L 3.793 11.519 3.657 11.655 M3.656 17.656 C 3.537 17.775,3.520 17.817,3.520 17.995 C 3.520 18.250,3.657 18.425,3.900 18.481 C 4.109 18.529,8.891 18.529,9.100 18.481 C 9.343 18.425,9.480 18.250,9.480 17.995 C 9.480 17.817,9.463 17.775,9.344 17.656 L 9.208 17.520 6.500 17.520 L 3.792 17.520 3.656 17.656 " stroke="none" fill="black" fill-rule="evenodd"></path></svg>