<svg xmlns="http://www.w3.org/2000/svg" class="icon icon-tabler icon-tabler-thumb-up" width="24" height="24" viewBox="0 0 24 24" stroke-width="1" stroke="currentColor" fill="none" stroke-linecap="round" stroke-linejoin="round"><path d="M12.274 3.613 C 11.868 3.736,11.560 3.924,11.242 4.242 C 10.917 4.566,10.734 4.871,10.610 5.294 C 10.525 5.583,10.511 5.737,10.483 6.660 C 10.452 7.691,10.451 7.704,10.321 8.090 C 9.928 9.261,8.945 10.145,7.723 10.428 C 7.517 10.476,7.041 10.494,5.520 10.514 L 3.580 10.540 3.359 10.649 C 3.083 10.784,2.788 11.075,2.659 11.339 C 2.485 11.695,2.475 11.956,2.489 15.720 C 2.501 18.947,2.508 19.278,2.571 19.465 C 2.713 19.885,3.122 20.293,3.535 20.426 C 3.695 20.477,3.964 20.495,4.767 20.510 C 5.923 20.531,6.350 20.493,6.661 20.341 C 6.930 20.210,7.222 19.911,7.352 19.634 L 7.458 19.409 7.672 19.604 C 8.216 20.101,8.939 20.409,9.725 20.479 C 10.328 20.533,16.994 20.532,17.373 20.478 C 18.195 20.362,18.956 19.644,19.323 18.638 C 19.406 18.412,19.619 17.443,19.966 15.720 C 20.440 13.363,20.484 13.111,20.469 12.800 C 20.424 11.844,19.779 10.992,18.839 10.649 L 18.540 10.540 17.033 10.528 L 15.526 10.516 15.509 8.068 C 15.495 5.889,15.485 5.594,15.423 5.380 C 15.188 4.572,14.652 3.971,13.900 3.673 C 13.612 3.559,13.530 3.545,13.080 3.533 C 12.647 3.521,12.539 3.532,12.274 3.613 M13.641 4.649 C 13.924 4.787,14.213 5.076,14.351 5.359 L 14.460 5.580 14.480 8.362 C 14.498 10.932,14.505 11.152,14.571 11.251 C 14.737 11.505,14.684 11.498,16.638 11.520 L 18.420 11.540 18.641 11.649 C 18.921 11.786,19.212 12.076,19.346 12.348 C 19.543 12.752,19.538 12.796,18.984 15.548 C 18.648 17.219,18.446 18.132,18.369 18.330 C 18.166 18.853,17.880 19.211,17.509 19.410 L 17.340 19.500 13.500 19.500 C 9.954 19.500,9.640 19.495,9.400 19.429 C 8.493 19.183,7.811 18.505,7.582 17.622 C 7.529 17.417,7.520 16.966,7.520 14.432 L 7.520 11.482 7.610 11.464 C 8.277 11.337,8.843 11.140,9.258 10.891 C 10.326 10.249,11.058 9.275,11.364 8.087 C 11.459 7.717,11.518 7.021,11.519 6.250 C 11.520 5.787,11.534 5.643,11.597 5.478 C 11.743 5.094,12.081 4.752,12.468 4.597 C 12.766 4.478,13.345 4.503,13.641 4.649 M6.480 15.359 L 6.480 19.199 6.370 19.321 C 6.304 19.395,6.196 19.459,6.100 19.481 C 6.012 19.501,5.517 19.518,5.000 19.518 C 4.483 19.518,3.988 19.501,3.900 19.481 C 3.804 19.459,3.696 19.395,3.630 19.321 L 3.520 19.199 3.520 15.495 L 3.520 11.792 3.656 11.656 L 3.792 11.520 5.136 11.520 L 6.480 11.520 6.480 15.359 " stroke="none" fill="black" fill-rule="evenodd"></path></svg>