<svg xmlns="http://www.w3.org/2000/svg" class="icon icon-tabler icon-tabler-ticket" width="24" height="24" viewBox="0 0 24 24" stroke-width="1" stroke="currentColor" fill="none" stroke-linecap="round" stroke-linejoin="round"><path d="M9.660 4.520 L 4.460 4.540 4.192 4.631 C 3.443 4.885,2.816 5.553,2.595 6.330 C 2.503 6.653,2.501 6.695,2.500 8.402 C 2.500 9.999,2.506 10.152,2.571 10.251 C 2.680 10.419,2.795 10.473,3.132 10.514 C 3.318 10.537,3.529 10.594,3.654 10.655 C 3.925 10.788,4.214 11.080,4.351 11.359 C 4.449 11.557,4.460 11.624,4.460 12.000 C 4.460 12.506,4.392 12.686,4.077 13.020 C 3.816 13.295,3.551 13.426,3.140 13.482 C 2.793 13.529,2.679 13.583,2.571 13.749 C 2.506 13.848,2.500 14.001,2.501 15.598 C 2.502 17.154,2.510 17.368,2.574 17.600 C 2.831 18.523,3.444 19.141,4.386 19.426 C 4.605 19.493,5.062 19.498,11.700 19.510 C 16.315 19.519,18.922 19.509,19.189 19.482 C 20.305 19.371,21.125 18.681,21.426 17.600 C 21.490 17.368,21.498 17.154,21.499 15.598 C 21.500 14.001,21.494 13.848,21.429 13.749 C 21.321 13.583,21.207 13.529,20.860 13.482 C 20.683 13.458,20.450 13.395,20.339 13.341 C 20.075 13.212,19.784 12.918,19.649 12.641 C 19.551 12.443,19.540 12.376,19.540 12.000 C 19.540 11.624,19.551 11.557,19.649 11.359 C 19.786 11.080,20.075 10.788,20.346 10.655 C 20.471 10.594,20.682 10.537,20.868 10.514 C 21.205 10.473,21.320 10.419,21.429 10.251 C 21.494 10.152,21.500 9.999,21.499 8.402 C 21.498 6.846,21.490 6.632,21.426 6.400 C 21.168 5.473,20.511 4.815,19.613 4.584 C 19.316 4.507,16.937 4.492,9.660 4.520 M14.481 6.230 C 14.482 7.059,14.510 7.219,14.679 7.370 C 14.778 7.459,14.840 7.480,15.000 7.480 C 15.160 7.480,15.222 7.459,15.321 7.370 C 15.490 7.219,15.518 7.059,15.519 6.229 L 15.520 5.518 17.470 5.529 L 19.420 5.540 19.641 5.649 C 19.924 5.787,20.213 6.076,20.351 6.359 L 20.460 6.580 20.472 8.066 L 20.484 9.551 20.205 9.636 C 19.465 9.861,18.810 10.551,18.600 11.328 C 18.477 11.786,18.498 12.408,18.652 12.839 C 18.907 13.555,19.496 14.134,20.199 14.360 L 20.484 14.451 20.472 15.936 L 20.460 17.420 20.350 17.644 C 20.220 17.909,19.874 18.252,19.626 18.362 C 19.326 18.494,18.952 18.518,17.210 18.519 L 15.520 18.520 15.519 17.790 C 15.518 16.941,15.491 16.782,15.321 16.630 C 15.147 16.473,14.853 16.473,14.679 16.630 C 14.509 16.782,14.482 16.941,14.481 17.790 L 14.480 18.520 9.790 18.519 C 6.882 18.519,4.994 18.503,4.820 18.478 C 4.666 18.456,4.449 18.394,4.339 18.341 C 4.075 18.212,3.784 17.918,3.649 17.641 L 3.540 17.420 3.529 15.940 L 3.518 14.460 3.838 14.347 C 4.431 14.139,4.974 13.655,5.239 13.100 C 5.408 12.747,5.480 12.416,5.480 12.000 C 5.480 11.584,5.408 11.253,5.239 10.900 C 4.975 10.346,4.431 9.862,3.840 9.653 L 3.520 9.540 3.520 8.110 C 3.520 6.796,3.526 6.664,3.597 6.478 C 3.744 6.093,4.084 5.749,4.468 5.599 C 4.652 5.527,4.865 5.524,9.570 5.522 L 14.480 5.520 14.481 6.230 M14.679 10.630 C 14.605 10.696,14.541 10.804,14.519 10.900 C 14.471 11.108,14.471 12.892,14.519 13.100 C 14.574 13.341,14.751 13.480,15.000 13.480 C 15.249 13.480,15.426 13.341,15.481 13.100 C 15.529 12.892,15.529 11.108,15.481 10.900 C 15.426 10.659,15.249 10.520,15.000 10.520 C 14.840 10.520,14.778 10.541,14.679 10.630 " stroke="none" fill="black" fill-rule="evenodd"></path></svg>