<svg xmlns="http://www.w3.org/2000/svg" class="icon icon-tabler icon-tabler-tir" width="24" height="24" viewBox="0 0 24 24" stroke-width="1" stroke="currentColor" fill="none" stroke-linecap="round" stroke-linejoin="round"><path d="M13.331 4.520 L 11.762 4.540 11.658 4.644 C 11.601 4.701,11.538 4.818,11.518 4.904 C 11.498 4.990,11.481 6.505,11.481 8.290 L 11.480 11.520 7.141 11.520 L 2.801 11.520 2.679 11.630 C 2.605 11.696,2.541 11.804,2.519 11.900 C 2.468 12.118,2.471 16.945,2.521 17.296 C 2.664 18.283,3.304 19.068,4.207 19.364 C 4.459 19.447,4.576 19.460,5.040 19.459 C 5.549 19.458,5.598 19.450,5.888 19.334 C 6.240 19.192,6.650 18.914,6.850 18.681 L 6.988 18.520 10.999 18.520 L 15.010 18.520 15.167 18.698 C 15.389 18.951,15.852 19.248,16.202 19.362 C 16.459 19.447,16.573 19.460,17.040 19.459 C 17.549 19.458,17.598 19.450,17.888 19.334 C 18.239 19.193,18.650 18.914,18.848 18.683 L 18.983 18.526 20.063 18.513 C 21.243 18.499,21.271 18.494,21.429 18.251 C 21.495 18.151,21.501 17.938,21.512 15.322 C 21.529 11.388,21.479 10.580,21.140 9.343 C 20.514 7.058,19.074 5.310,17.337 4.726 C 16.699 4.511,16.166 4.484,13.331 4.520 M14.614 5.590 C 14.625 5.629,14.943 7.109,15.321 8.880 C 15.699 10.651,16.036 12.159,16.069 12.232 C 16.196 12.504,16.153 12.499,18.430 12.511 L 20.480 12.523 20.480 15.023 L 20.480 17.522 19.975 17.511 L 19.470 17.500 19.477 17.074 C 19.485 16.594,19.422 16.283,19.238 15.900 C 18.977 15.355,18.486 14.905,17.900 14.674 C 17.624 14.565,17.517 14.545,17.120 14.529 C 16.732 14.514,16.608 14.525,16.333 14.599 C 15.910 14.713,15.566 14.916,15.241 15.242 C 14.727 15.757,14.511 16.303,14.523 17.060 L 14.530 17.500 13.525 17.511 L 12.520 17.521 12.520 11.521 L 12.520 5.520 13.557 5.520 C 14.511 5.520,14.596 5.526,14.614 5.590 M16.749 5.599 C 18.344 5.982,19.685 7.613,20.235 9.840 C 20.351 10.307,20.480 11.132,20.480 11.402 L 20.480 11.521 18.692 11.510 L 16.904 11.500 16.273 8.560 C 15.926 6.943,15.642 5.598,15.641 5.570 C 15.639 5.487,16.361 5.506,16.749 5.599 M11.480 15.020 L 11.480 17.521 9.475 17.510 L 7.470 17.500 7.477 17.074 C 7.485 16.594,7.422 16.282,7.238 15.900 C 6.977 15.355,6.486 14.905,5.900 14.674 C 5.624 14.565,5.517 14.545,5.120 14.529 C 4.731 14.514,4.608 14.525,4.330 14.600 C 4.149 14.648,3.900 14.750,3.776 14.824 C 3.652 14.899,3.543 14.960,3.535 14.960 C 3.527 14.960,3.520 14.411,3.520 13.740 L 3.520 12.520 7.500 12.520 L 11.480 12.520 11.480 15.020 M5.641 15.649 C 5.924 15.787,6.213 16.076,6.351 16.359 C 6.449 16.557,6.460 16.624,6.460 17.000 C 6.460 17.348,6.445 17.453,6.372 17.610 C 6.250 17.875,5.912 18.218,5.644 18.350 C 5.443 18.449,5.377 18.460,5.000 18.460 C 4.624 18.460,4.557 18.449,4.359 18.351 C 4.076 18.213,3.787 17.924,3.649 17.641 C 3.499 17.337,3.474 16.802,3.593 16.488 C 3.743 16.094,4.077 15.753,4.468 15.597 C 4.766 15.478,5.345 15.503,5.641 15.649 M17.641 15.649 C 17.924 15.787,18.213 16.076,18.351 16.359 C 18.449 16.557,18.460 16.624,18.460 17.000 C 18.460 17.348,18.445 17.453,18.372 17.610 C 18.250 17.875,17.912 18.218,17.644 18.350 C 17.443 18.449,17.377 18.460,17.000 18.460 C 16.624 18.460,16.557 18.449,16.359 18.351 C 16.076 18.213,15.787 17.924,15.649 17.641 C 15.499 17.337,15.474 16.802,15.593 16.488 C 15.743 16.094,16.077 15.753,16.468 15.597 C 16.766 15.478,17.345 15.503,17.641 15.649 " stroke="none" fill="black" fill-rule="evenodd"></path></svg>