<svg xmlns="http://www.w3.org/2000/svg" class="icon icon-tabler icon-tabler-toggle-left" width="24" height="24" viewBox="0 0 24 24" stroke-width="1" stroke="currentColor" fill="none" stroke-linecap="round" stroke-linejoin="round"><path d="M6.875 5.601 C 4.907 5.950,3.151 7.238,2.247 8.995 C 1.970 9.533,1.794 10.008,1.653 10.600 C 1.504 11.223,1.477 12.379,1.594 13.066 C 1.941 15.098,3.228 16.856,5.042 17.776 C 5.622 18.070,6.257 18.287,6.893 18.407 C 7.325 18.489,7.474 18.492,11.475 18.509 C 14.148 18.520,15.845 18.511,16.275 18.483 C 17.368 18.413,17.976 18.255,18.900 17.799 C 20.742 16.891,22.053 15.129,22.401 13.093 C 22.509 12.463,22.509 11.537,22.401 10.907 C 22.053 8.871,20.745 7.113,18.900 6.200 C 18.293 5.899,18.044 5.808,17.400 5.647 L 16.980 5.543 12.140 5.534 C 7.552 5.526,7.278 5.529,6.875 5.601 M16.910 6.580 C 18.581 6.851,20.095 7.956,20.874 9.471 C 21.295 10.292,21.480 11.062,21.480 12.000 C 21.480 12.655,21.402 13.164,21.218 13.714 C 20.565 15.665,18.938 17.062,16.889 17.430 C 16.534 17.494,16.110 17.500,12.000 17.500 C 6.983 17.500,7.153 17.508,6.294 17.221 C 4.606 16.656,3.345 15.396,2.782 13.714 C 2.598 13.164,2.520 12.655,2.520 12.000 C 2.520 10.624,2.956 9.446,3.855 8.393 C 4.634 7.480,5.866 6.782,7.044 6.584 C 7.561 6.498,16.378 6.494,16.910 6.580 M7.274 9.613 C 6.869 9.736,6.560 9.923,6.242 10.241 C 5.718 10.764,5.500 11.331,5.528 12.098 C 5.541 12.446,5.567 12.603,5.652 12.839 C 5.908 13.557,6.492 14.130,7.207 14.364 C 7.459 14.447,7.576 14.460,8.040 14.459 C 8.553 14.457,8.596 14.451,8.900 14.328 C 9.882 13.933,10.480 13.053,10.480 12.000 C 10.480 10.947,9.879 10.061,8.900 9.673 C 8.612 9.559,8.530 9.545,8.080 9.533 C 7.647 9.521,7.539 9.532,7.274 9.613 M8.641 10.649 C 8.924 10.787,9.213 11.076,9.351 11.359 C 9.449 11.557,9.460 11.624,9.460 12.000 C 9.460 12.348,9.445 12.453,9.372 12.610 C 9.250 12.875,8.912 13.218,8.644 13.350 C 8.443 13.449,8.377 13.460,8.000 13.460 C 7.624 13.460,7.557 13.449,7.359 13.351 C 7.076 13.213,6.787 12.924,6.649 12.641 C 6.499 12.337,6.474 11.802,6.593 11.488 C 6.743 11.094,7.077 10.753,7.468 10.597 C 7.766 10.478,8.345 10.503,8.641 10.649 " stroke="none" fill="black" fill-rule="evenodd"></path></svg>