<svg xmlns="http://www.w3.org/2000/svg" class="icon icon-tabler icon-tabler-toggle-right" width="24" height="24" viewBox="0 0 24 24" stroke-width="1" stroke="currentColor" fill="none" stroke-linecap="round" stroke-linejoin="round"><path d="M6.875 5.601 C 4.907 5.950,3.151 7.238,2.247 8.995 C 1.970 9.533,1.794 10.008,1.653 10.600 C 1.504 11.223,1.477 12.379,1.594 13.066 C 1.941 15.098,3.228 16.856,5.042 17.776 C 5.622 18.070,6.257 18.287,6.893 18.407 C 7.325 18.489,7.474 18.492,11.475 18.509 C 14.148 18.520,15.845 18.511,16.275 18.483 C 17.368 18.413,17.976 18.255,18.900 17.799 C 20.742 16.891,22.053 15.129,22.401 13.093 C 22.509 12.463,22.509 11.537,22.401 10.907 C 22.053 8.871,20.745 7.113,18.900 6.200 C 18.293 5.899,18.044 5.808,17.400 5.647 L 16.980 5.543 12.140 5.534 C 7.552 5.526,7.278 5.529,6.875 5.601 M16.910 6.580 C 18.581 6.851,20.095 7.956,20.874 9.471 C 21.295 10.292,21.480 11.062,21.480 12.000 C 21.480 12.655,21.402 13.164,21.218 13.714 C 20.565 15.665,18.938 17.062,16.889 17.430 C 16.534 17.494,16.110 17.500,12.000 17.500 C 6.983 17.500,7.153 17.508,6.294 17.221 C 4.606 16.656,3.345 15.396,2.782 13.714 C 2.598 13.164,2.520 12.655,2.520 12.000 C 2.520 10.624,2.956 9.446,3.855 8.393 C 4.634 7.480,5.866 6.782,7.044 6.584 C 7.561 6.498,16.378 6.494,16.910 6.580 M15.274 9.613 C 14.869 9.736,14.560 9.923,14.242 10.241 C 13.718 10.764,13.500 11.331,13.528 12.098 C 13.541 12.446,13.567 12.603,13.652 12.839 C 13.908 13.557,14.492 14.130,15.207 14.364 C 15.459 14.447,15.576 14.460,16.040 14.459 C 16.553 14.457,16.596 14.451,16.900 14.328 C 17.882 13.933,18.480 13.053,18.480 12.000 C 18.480 10.947,17.879 10.061,16.900 9.673 C 16.612 9.559,16.530 9.545,16.080 9.533 C 15.647 9.521,15.539 9.532,15.274 9.613 M16.641 10.649 C 16.924 10.787,17.213 11.076,17.351 11.359 C 17.449 11.557,17.460 11.624,17.460 12.000 C 17.460 12.348,17.445 12.453,17.372 12.610 C 17.250 12.875,16.912 13.218,16.644 13.350 C 16.443 13.449,16.377 13.460,16.000 13.460 C 15.624 13.460,15.557 13.449,15.359 13.351 C 15.076 13.213,14.787 12.924,14.649 12.641 C 14.499 12.337,14.474 11.802,14.593 11.488 C 14.743 11.094,15.077 10.753,15.468 10.597 C 15.766 10.478,16.345 10.503,16.641 10.649 " stroke="none" fill="black" fill-rule="evenodd"></path></svg>