<svg xmlns="http://www.w3.org/2000/svg" class="icon icon-tabler icon-tabler-tools" width="24" height="24" viewBox="0 0 24 24" stroke-width="1" stroke="currentColor" fill="none" stroke-linecap="round" stroke-linejoin="round"><path d="M4.650 4.650 L 2.520 6.781 2.520 7.000 L 2.520 7.218 4.910 9.609 L 7.299 12.000 4.913 14.390 L 2.526 16.780 2.500 17.000 C 2.486 17.121,2.481 18.103,2.487 19.182 C 2.501 21.338,2.492 21.261,2.749 21.429 C 2.847 21.494,3.024 21.501,4.818 21.513 C 5.897 21.519,6.879 21.514,7.000 21.500 L 7.220 21.474 9.610 19.087 L 12.000 16.701 14.391 19.090 L 16.782 21.480 17.000 21.480 L 17.219 21.480 19.350 19.350 L 21.480 17.219 21.480 17.000 L 21.480 16.782 19.090 14.391 L 16.701 12.000 18.667 10.030 C 20.006 8.688,20.684 7.980,20.793 7.809 C 21.648 6.470,21.446 4.703,20.312 3.614 C 19.191 2.538,17.500 2.371,16.191 3.207 C 16.020 3.316,15.312 3.994,13.970 5.333 L 12.000 7.299 9.609 4.910 L 7.218 2.520 7.000 2.520 L 6.781 2.520 4.650 4.650 M18.488 3.724 C 18.605 3.748,18.851 3.839,19.035 3.927 C 19.497 4.148,19.852 4.503,20.073 4.965 C 20.416 5.684,20.410 6.348,20.053 7.078 C 19.927 7.337,19.812 7.473,19.204 8.090 L 18.500 8.803 16.848 7.150 L 15.196 5.496 15.910 4.794 C 16.529 4.186,16.666 4.072,16.931 3.941 C 17.099 3.857,17.332 3.766,17.449 3.738 C 17.715 3.674,18.211 3.667,18.488 3.724 M9.160 5.860 L 11.300 8.000 9.650 9.650 L 8.000 11.300 7.101 10.401 L 6.201 9.502 6.841 8.858 L 7.480 8.215 7.480 8.003 C 7.480 7.816,7.464 7.776,7.344 7.656 C 7.224 7.536,7.184 7.520,6.997 7.520 L 6.785 7.520 6.142 8.159 L 5.498 8.799 4.599 7.899 L 3.701 7.000 5.340 5.360 C 6.242 4.458,6.989 3.720,7.000 3.720 C 7.011 3.720,7.983 4.683,9.160 5.860 M12.290 15.010 L 6.780 20.520 5.150 20.520 L 3.520 20.520 3.520 18.850 L 3.520 17.180 9.010 11.690 L 14.500 6.200 16.150 7.850 L 17.800 9.500 12.290 15.010 M18.160 14.860 L 20.300 17.000 18.650 18.650 L 17.000 20.300 16.101 19.401 L 15.201 18.502 15.841 17.858 L 16.480 17.215 16.480 17.003 C 16.480 16.816,16.464 16.776,16.344 16.656 C 16.224 16.536,16.184 16.520,15.997 16.520 L 15.785 16.520 15.142 17.159 L 14.498 17.799 13.599 16.899 L 12.701 16.000 14.340 14.360 C 15.242 13.458,15.989 12.720,16.000 12.720 C 16.011 12.720,16.983 13.683,18.160 14.860 " stroke="none" fill="black" fill-rule="evenodd"></path></svg>