<svg xmlns="http://www.w3.org/2000/svg" class="icon icon-tabler icon-tabler-tool" width="24" height="24" viewBox="0 0 24 24" stroke-width="1" stroke="currentColor" fill="none" stroke-linecap="round" stroke-linejoin="round"><path d="M8.680 2.425 C 7.821 2.497,6.927 2.730,6.315 3.043 C 6.040 3.183,5.929 3.471,6.057 3.712 C 6.089 3.771,6.872 4.576,7.797 5.500 L 9.480 7.180 9.480 8.350 L 9.480 9.520 8.350 9.520 L 7.220 9.520 5.520 7.817 C 4.585 6.881,3.771 6.089,3.712 6.057 C 3.471 5.929,3.183 6.040,3.043 6.315 C 2.807 6.777,2.572 7.550,2.477 8.180 C 2.404 8.659,2.413 9.584,2.496 10.097 C 2.955 12.932,5.147 15.086,8.020 15.523 C 8.196 15.550,8.601 15.572,8.920 15.572 C 9.720 15.572,10.189 15.496,11.012 15.232 L 11.404 15.106 14.432 18.129 L 17.460 21.152 17.840 21.333 C 18.281 21.543,18.558 21.607,19.016 21.606 C 20.033 21.603,20.899 21.057,21.340 20.140 C 21.541 19.724,21.606 19.444,21.606 19.000 C 21.606 18.554,21.541 18.277,21.333 17.840 L 21.152 17.460 18.129 14.432 L 15.106 11.404 15.232 11.012 C 15.496 10.189,15.572 9.720,15.572 8.920 C 15.572 8.285,15.527 7.909,15.375 7.300 C 14.762 4.829,12.642 2.895,10.120 2.504 C 9.713 2.440,8.974 2.400,8.680 2.425 M10.122 3.519 C 11.218 3.729,12.155 4.230,12.963 5.037 C 14.554 6.629,15.014 8.935,14.157 11.033 C 13.991 11.438,13.972 11.551,14.044 11.693 C 14.069 11.741,15.497 13.193,17.219 14.920 C 20.636 18.347,20.519 18.215,20.594 18.758 C 20.666 19.283,20.504 19.774,20.139 20.139 C 19.774 20.504,19.283 20.666,18.758 20.594 C 18.215 20.519,18.349 20.638,14.900 17.197 C 12.634 14.937,11.707 14.037,11.622 14.016 C 11.488 13.983,11.339 14.022,10.933 14.193 C 10.021 14.578,8.807 14.681,7.766 14.462 C 5.892 14.066,4.314 12.653,3.698 10.819 C 3.361 9.813,3.332 8.582,3.623 7.602 L 3.687 7.388 5.233 8.931 L 6.780 10.474 7.000 10.500 C 7.121 10.514,7.878 10.520,8.682 10.513 C 9.998 10.501,10.154 10.493,10.251 10.429 C 10.502 10.265,10.499 10.284,10.513 8.682 C 10.520 7.878,10.514 7.121,10.500 7.000 L 10.474 6.780 8.932 5.235 L 7.391 3.689 7.525 3.646 C 8.280 3.401,9.256 3.354,10.122 3.519 " stroke="none" fill="black" fill-rule="evenodd"></path></svg>