<svg xmlns="http://www.w3.org/2000/svg" class="icon icon-tabler icon-tabler-tractor" width="24" height="24" viewBox="0 0 24 24" stroke-width="1" stroke="currentColor" fill="none" stroke-linecap="round" stroke-linejoin="round"><path d="M4.679 4.630 C 4.605 4.696,4.541 4.804,4.519 4.900 C 4.498 4.990,4.481 6.414,4.481 8.165 L 4.480 11.270 4.270 11.429 C 3.654 11.895,3.122 12.589,2.840 13.294 C 2.578 13.947,2.544 14.144,2.544 15.000 C 2.544 15.675,2.556 15.822,2.630 16.087 C 3.093 17.752,4.248 18.907,5.913 19.370 C 6.178 19.444,6.325 19.456,7.000 19.456 C 7.856 19.456,8.053 19.422,8.706 19.160 C 9.411 18.878,10.105 18.346,10.571 17.730 L 10.730 17.520 13.640 17.520 L 16.550 17.520 16.643 17.808 C 16.871 18.518,17.483 19.127,18.207 19.364 C 18.459 19.447,18.576 19.460,19.040 19.459 C 19.553 19.457,19.596 19.451,19.900 19.328 C 20.667 19.020,21.215 18.397,21.421 17.600 C 21.522 17.208,21.489 16.554,21.348 16.161 C 21.223 15.810,20.942 15.382,20.695 15.164 L 20.520 15.010 20.519 13.055 C 20.519 11.970,20.501 10.975,20.478 10.820 C 20.456 10.666,20.394 10.449,20.341 10.339 C 20.212 10.075,19.918 9.784,19.641 9.649 L 19.420 9.540 17.970 9.528 L 16.520 9.516 16.520 7.654 L 16.520 5.792 16.656 5.656 L 16.792 5.520 17.366 5.519 C 18.056 5.518,18.223 5.485,18.370 5.321 C 18.459 5.222,18.480 5.161,18.480 4.995 C 18.480 4.817,18.463 4.775,18.341 4.653 L 18.202 4.514 17.391 4.527 C 16.602 4.540,16.574 4.543,16.359 4.649 C 15.901 4.873,15.583 5.319,15.518 5.828 C 15.498 5.977,15.482 6.870,15.481 7.811 L 15.480 9.521 14.410 9.511 L 13.340 9.500 12.380 7.106 C 11.618 5.206,11.397 4.693,11.308 4.616 L 11.196 4.520 7.998 4.520 L 4.801 4.520 4.679 4.630 M11.619 7.890 C 12.188 9.314,12.602 10.297,12.657 10.353 C 12.707 10.404,12.818 10.462,12.904 10.482 C 12.990 10.502,14.442 10.519,16.134 10.519 L 19.208 10.520 19.344 10.656 L 19.480 10.792 19.480 12.666 L 19.480 14.540 19.062 14.527 C 18.730 14.518,18.578 14.533,18.322 14.602 C 17.553 14.809,16.901 15.425,16.642 16.189 L 16.536 16.500 13.898 16.500 C 11.574 16.500,11.262 16.493,11.274 16.440 C 11.281 16.407,11.325 16.245,11.372 16.080 C 11.444 15.822,11.456 15.671,11.456 15.000 C 11.456 14.156,11.421 13.951,11.177 13.333 C 10.618 11.921,9.336 10.866,7.830 10.580 C 7.213 10.463,6.190 10.520,5.681 10.699 L 5.520 10.756 5.520 8.138 L 5.520 5.520 8.096 5.520 L 10.672 5.520 11.619 7.890 M8.080 11.675 C 8.629 11.861,9.035 12.115,9.460 12.540 C 9.883 12.963,10.137 13.366,10.328 13.920 C 10.457 14.293,10.459 14.313,10.459 15.000 C 10.459 15.687,10.457 15.707,10.328 16.080 C 10.137 16.634,9.883 17.037,9.460 17.460 C 9.037 17.883,8.634 18.137,8.080 18.328 C 7.707 18.457,7.687 18.459,7.000 18.459 C 6.313 18.459,6.293 18.457,5.920 18.328 C 5.366 18.137,4.963 17.883,4.540 17.460 C 4.114 17.034,3.860 16.628,3.676 16.080 C 3.565 15.752,3.545 15.629,3.529 15.175 C 3.518 14.864,3.529 14.542,3.557 14.383 C 3.758 13.223,4.642 12.154,5.740 11.738 C 6.225 11.554,6.450 11.521,7.100 11.534 C 7.652 11.546,7.730 11.557,8.080 11.675 M6.656 14.656 C 6.537 14.775,6.520 14.818,6.520 14.993 C 6.520 15.233,6.643 15.408,6.861 15.480 C 7.043 15.540,7.242 15.477,7.379 15.314 C 7.458 15.220,7.480 15.150,7.480 14.993 C 7.480 14.818,7.463 14.775,7.344 14.656 C 7.224 14.536,7.183 14.520,7.000 14.520 C 6.817 14.520,6.776 14.536,6.656 14.656 M19.641 15.649 C 19.924 15.787,20.213 16.076,20.351 16.359 C 20.449 16.557,20.460 16.624,20.460 17.000 C 20.460 17.348,20.445 17.453,20.372 17.610 C 20.250 17.875,19.912 18.218,19.644 18.350 C 19.443 18.449,19.377 18.460,19.000 18.460 C 18.624 18.460,18.557 18.449,18.359 18.351 C 18.076 18.213,17.787 17.924,17.649 17.641 C 17.499 17.337,17.474 16.802,17.593 16.488 C 17.743 16.094,18.077 15.753,18.468 15.597 C 18.766 15.478,19.345 15.503,19.641 15.649 " stroke="none" fill="black" fill-rule="evenodd"></path></svg>