<svg xmlns="http://www.w3.org/2000/svg" class="icon icon-tabler icon-tabler-trademark" width="24" height="24" viewBox="0 0 24 24" stroke-width="1" stroke="currentColor" fill="none" stroke-linecap="round" stroke-linejoin="round"><path d="M4.235 8.580 C 4.122 8.642,4.000 8.859,4.000 9.000 C 4.000 9.149,4.125 9.360,4.255 9.432 C 4.362 9.490,4.531 9.502,5.430 9.512 L 6.480 9.525 6.481 12.232 C 6.481 13.741,6.498 15.011,6.519 15.100 C 6.574 15.341,6.751 15.480,7.000 15.480 C 7.249 15.480,7.426 15.341,7.481 15.100 C 7.502 15.011,7.519 13.741,7.519 12.232 L 7.520 9.525 8.570 9.512 C 9.743 9.499,9.812 9.484,9.935 9.226 C 10.017 9.052,10.017 8.948,9.935 8.774 C 9.809 8.510,9.922 8.520,6.992 8.522 C 4.776 8.523,4.323 8.533,4.235 8.580 M12.679 8.630 C 12.605 8.696,12.541 8.804,12.519 8.900 C 12.470 9.110,12.470 14.890,12.519 15.100 C 12.541 15.196,12.605 15.304,12.679 15.370 C 12.905 15.573,13.293 15.501,13.450 15.227 C 13.488 15.162,13.505 14.571,13.520 12.849 L 13.540 10.559 14.576 11.941 C 15.146 12.702,15.657 13.359,15.711 13.402 C 15.846 13.508,16.154 13.508,16.289 13.402 C 16.343 13.359,16.854 12.702,17.424 11.941 L 18.460 10.559 18.480 12.849 C 18.495 14.571,18.512 15.162,18.550 15.227 C 18.707 15.501,19.095 15.573,19.321 15.370 C 19.395 15.304,19.459 15.196,19.481 15.100 C 19.502 15.010,19.518 13.654,19.518 12.000 C 19.518 10.346,19.502 8.990,19.481 8.900 C 19.426 8.661,19.249 8.520,19.005 8.520 C 18.873 8.520,18.779 8.545,18.712 8.598 C 18.657 8.641,18.032 9.451,17.322 10.398 C 16.611 11.345,16.017 12.120,16.000 12.120 C 15.983 12.120,15.389 11.345,14.678 10.398 C 13.968 9.451,13.343 8.641,13.288 8.598 C 13.132 8.475,12.834 8.491,12.679 8.630 " stroke="none" fill="black" fill-rule="evenodd"></path></svg>