<svg xmlns="http://www.w3.org/2000/svg" class="icon icon-tabler icon-tabler-traffic-cone" width="24" height="24" viewBox="0 0 24 24" stroke-width="1" stroke="currentColor" fill="none" stroke-linecap="round" stroke-linejoin="round"><path d="M10.686 4.621 C 10.576 4.713,10.350 5.369,8.100 12.121 L 5.633 19.520 4.713 19.520 L 3.792 19.520 3.656 19.656 C 3.537 19.775,3.520 19.817,3.520 19.995 C 3.520 20.250,3.657 20.425,3.900 20.481 C 4.114 20.531,19.886 20.531,20.100 20.481 C 20.343 20.425,20.480 20.250,20.480 19.995 C 20.480 19.817,20.463 19.775,20.344 19.656 L 20.208 19.520 19.287 19.520 L 18.367 19.520 15.900 12.121 C 13.650 5.369,13.424 4.713,13.314 4.621 L 13.194 4.520 12.000 4.520 L 10.806 4.520 10.686 4.621 M13.307 7.500 C 13.666 8.578,13.960 9.473,13.960 9.490 C 13.960 9.506,13.078 9.520,12.000 9.520 C 10.922 9.520,10.040 9.506,10.040 9.490 C 10.040 9.465,11.272 5.745,11.339 5.569 C 11.354 5.530,11.510 5.521,12.006 5.529 L 12.653 5.540 13.307 7.500 M14.963 12.470 C 15.320 13.543,15.620 14.443,15.630 14.470 C 15.645 14.510,14.902 14.520,12.000 14.520 C 9.098 14.520,8.355 14.510,8.370 14.470 C 8.380 14.443,8.680 13.543,9.037 12.470 L 9.687 10.520 12.000 10.520 L 14.313 10.520 14.963 12.470 M16.630 17.470 C 16.988 18.543,17.280 19.443,17.280 19.470 C 17.280 19.510,16.172 19.520,12.000 19.520 C 7.828 19.520,6.720 19.510,6.720 19.470 C 6.720 19.443,7.012 18.543,7.370 17.470 L 8.019 15.520 12.000 15.520 L 15.981 15.520 16.630 17.470 " stroke="none" fill="black" fill-rule="evenodd"></path></svg>