<svg xmlns="http://www.w3.org/2000/svg" class="icon icon-tabler icon-tabler-trash" width="24" height="24" viewBox="0 0 24 24" stroke-width="1" stroke="currentColor" fill="none" stroke-linecap="round" stroke-linejoin="round"><path d="M9.468 2.599 C 9.070 2.754,8.702 3.139,8.573 3.535 C 8.518 3.706,8.504 3.972,8.490 5.132 L 8.473 6.525 6.686 6.520 C 5.704 6.517,4.651 6.516,4.346 6.517 L 3.792 6.520 3.656 6.656 C 3.537 6.775,3.520 6.817,3.520 6.995 C 3.520 7.361,3.752 7.517,4.300 7.519 L 4.541 7.520 5.036 13.466 C 5.312 16.780,5.556 19.508,5.588 19.630 C 5.816 20.505,6.464 21.153,7.380 21.424 C 7.602 21.490,7.934 21.496,11.700 21.510 C 14.314 21.519,15.927 21.509,16.189 21.483 C 17.298 21.371,18.157 20.652,18.413 19.620 C 18.447 19.483,18.684 16.837,18.964 13.450 L 19.456 7.520 19.698 7.519 C 20.248 7.517,20.480 7.362,20.480 6.995 C 20.480 6.817,20.463 6.775,20.344 6.656 L 20.208 6.520 19.654 6.517 C 19.349 6.516,18.296 6.517,17.314 6.520 L 15.527 6.525 15.510 5.132 C 15.492 3.578,15.479 3.490,15.216 3.135 C 15.030 2.885,14.768 2.684,14.507 2.594 C 14.317 2.529,14.104 2.523,11.980 2.523 C 9.807 2.524,9.648 2.528,9.468 2.599 M14.344 3.656 L 14.480 3.792 14.480 5.156 L 14.480 6.520 12.000 6.520 L 9.520 6.520 9.520 5.156 L 9.520 3.792 9.656 3.656 L 9.792 3.520 12.000 3.520 L 14.208 3.520 14.344 3.656 M18.440 7.601 C 18.440 7.870,17.473 19.253,17.438 19.400 C 17.377 19.653,17.240 19.872,17.002 20.094 C 16.746 20.334,16.532 20.429,16.133 20.482 C 15.928 20.510,14.423 20.520,11.780 20.511 C 8.073 20.500,7.723 20.493,7.535 20.429 C 7.111 20.286,6.702 19.873,6.580 19.466 C 6.540 19.331,6.354 17.270,6.039 13.471 C 5.776 10.286,5.560 7.645,5.560 7.601 C 5.560 7.520,5.571 7.520,12.000 7.520 C 18.432 7.520,18.440 7.520,18.440 7.601 M9.679 10.630 C 9.605 10.696,9.541 10.804,9.519 10.900 C 9.470 11.110,9.470 16.890,9.519 17.100 C 9.574 17.341,9.751 17.480,10.000 17.480 C 10.249 17.480,10.426 17.341,10.481 17.100 C 10.530 16.890,10.530 11.110,10.481 10.900 C 10.426 10.659,10.249 10.520,10.000 10.520 C 9.840 10.520,9.778 10.541,9.679 10.630 M13.679 10.630 C 13.605 10.696,13.541 10.804,13.519 10.900 C 13.470 11.110,13.470 16.890,13.519 17.100 C 13.574 17.341,13.751 17.480,14.000 17.480 C 14.249 17.480,14.426 17.341,14.481 17.100 C 14.530 16.890,14.530 11.110,14.481 10.900 C 14.426 10.659,14.249 10.520,14.000 10.520 C 13.840 10.520,13.778 10.541,13.679 10.630 " stroke="none" fill="black" fill-rule="evenodd"></path></svg>