<svg xmlns="http://www.w3.org/2000/svg" class="icon icon-tabler icon-tabler-trees" width="24" height="24" viewBox="0 0 24 24" stroke-width="1" stroke="currentColor" fill="none" stroke-linecap="round" stroke-linejoin="round"><path d="M7.145 2.582 C 5.561 2.897,4.244 4.049,3.740 5.561 C 3.507 6.258,3.511 6.202,3.492 9.566 C 3.473 12.834,3.495 13.541,3.636 14.087 C 4.001 15.503,4.998 16.642,6.344 17.180 C 6.574 17.272,7.024 17.395,7.390 17.464 L 7.480 17.482 7.481 19.211 C 7.481 20.162,7.499 21.012,7.519 21.100 C 7.574 21.341,7.751 21.480,8.000 21.480 C 8.249 21.480,8.426 21.341,8.481 21.100 C 8.501 21.012,8.519 20.162,8.519 19.211 L 8.520 17.482 8.610 17.464 C 9.940 17.210,10.864 16.663,11.600 15.691 L 11.789 15.442 12.001 15.791 C 12.272 16.239,12.786 16.752,13.221 17.008 C 13.727 17.307,14.174 17.436,14.883 17.489 L 15.480 17.534 15.481 19.237 C 15.481 20.174,15.499 21.012,15.519 21.100 C 15.574 21.341,15.751 21.480,16.000 21.480 C 16.249 21.480,16.426 21.341,16.481 21.100 C 16.501 21.012,16.519 20.174,16.519 19.237 L 16.520 17.534 17.117 17.489 C 17.600 17.453,17.786 17.421,18.086 17.320 C 19.444 16.865,20.352 15.709,20.479 14.275 C 20.531 13.685,20.531 10.315,20.479 9.725 C 20.408 8.920,20.097 8.205,19.571 7.637 C 19.147 7.179,18.696 6.888,18.079 6.672 L 17.700 6.540 16.000 6.540 L 14.300 6.540 13.910 6.675 C 13.493 6.820,13.014 7.092,12.716 7.354 L 12.533 7.515 12.489 6.868 C 12.463 6.492,12.411 6.091,12.365 5.913 C 11.916 4.190,10.557 2.908,8.830 2.580 C 8.435 2.506,7.526 2.506,7.145 2.582 M9.080 3.675 C 9.629 3.861,10.035 4.115,10.460 4.540 C 10.883 4.963,11.136 5.365,11.328 5.920 L 11.460 6.300 11.460 10.000 L 11.460 13.700 11.328 14.080 C 11.256 14.289,11.112 14.604,11.008 14.779 C 10.765 15.192,10.240 15.725,9.826 15.980 C 9.504 16.178,8.826 16.439,8.630 16.440 L 8.520 16.440 8.519 14.750 C 8.519 13.820,8.501 12.988,8.481 12.900 C 8.426 12.659,8.249 12.520,8.000 12.520 C 7.751 12.520,7.574 12.659,7.519 12.900 C 7.499 12.988,7.481 13.820,7.481 14.750 L 7.480 16.440 7.370 16.440 C 7.174 16.439,6.496 16.178,6.174 15.980 C 5.760 15.725,5.235 15.192,4.992 14.779 C 4.888 14.604,4.744 14.289,4.672 14.080 L 4.540 13.700 4.528 10.160 C 4.520 7.747,4.530 6.540,4.560 6.368 C 4.756 5.227,5.648 4.151,6.740 3.738 C 7.225 3.554,7.450 3.521,8.100 3.534 C 8.652 3.546,8.730 3.557,9.080 3.675 M17.829 7.635 C 18.111 7.739,18.474 7.962,18.717 8.182 C 18.937 8.381,19.248 8.854,19.364 9.166 L 19.459 9.420 19.471 11.893 C 19.481 14.043,19.475 14.399,19.420 14.613 C 19.239 15.321,18.753 15.920,18.100 16.240 C 17.769 16.403,17.488 16.468,16.966 16.501 L 16.520 16.530 16.519 15.295 C 16.519 14.616,16.501 13.988,16.481 13.900 C 16.426 13.659,16.249 13.520,16.000 13.520 C 15.751 13.520,15.574 13.659,15.519 13.900 C 15.499 13.988,15.481 14.616,15.481 15.295 L 15.480 16.530 15.034 16.501 C 14.512 16.468,14.231 16.403,13.900 16.240 C 13.251 15.922,12.764 15.324,12.582 14.622 C 12.490 14.266,12.490 9.734,12.582 9.378 C 12.764 8.676,13.250 8.079,13.900 7.759 C 14.367 7.530,14.439 7.522,16.080 7.533 C 17.532 7.543,17.588 7.546,17.829 7.635 " stroke="none" fill="black" fill-rule="evenodd"></path></svg>