<svg xmlns="http://www.w3.org/2000/svg" class="icon icon-tabler icon-tabler-trending-up" width="24" height="24" viewBox="0 0 24 24" stroke-width="1" stroke="currentColor" fill="none" stroke-linecap="round" stroke-linejoin="round"><path d="M17.327 6.518 L 13.753 6.540 13.637 6.671 C 13.541 6.778,13.520 6.837,13.520 7.000 C 13.520 7.249,13.659 7.426,13.900 7.481 C 13.990 7.502,15.318 7.519,16.920 7.519 L 19.780 7.520 16.390 10.910 L 13.001 14.299 11.109 12.410 L 9.218 10.520 8.999 10.520 L 8.781 10.520 5.650 13.650 L 2.520 16.781 2.520 16.994 C 2.520 17.184,2.535 17.223,2.656 17.344 C 2.777 17.465,2.816 17.480,3.005 17.480 L 3.219 17.480 6.109 14.590 L 9.000 11.701 10.891 13.590 L 12.782 15.480 13.000 15.480 L 13.219 15.480 16.849 11.850 L 20.480 8.221 20.481 11.080 C 20.481 12.682,20.498 14.010,20.519 14.100 C 20.574 14.341,20.751 14.480,21.000 14.480 C 21.249 14.480,21.426 14.341,21.481 14.100 C 21.502 14.009,21.518 12.433,21.519 10.440 C 21.520 7.186,21.515 6.930,21.450 6.803 C 21.360 6.626,21.214 6.521,21.039 6.507 C 20.963 6.501,19.292 6.506,17.327 6.518 " stroke="none" fill="black" fill-rule="evenodd"></path></svg>