<svg xmlns="http://www.w3.org/2000/svg" class="icon icon-tabler icon-tabler-trending-down" width="24" height="24" viewBox="0 0 24 24" stroke-width="1" stroke="currentColor" fill="none" stroke-linecap="round" stroke-linejoin="round"><path d="M2.656 6.656 C 2.535 6.777,2.520 6.816,2.520 7.006 L 2.520 7.219 5.650 10.350 L 8.781 13.480 8.999 13.480 L 9.218 13.480 11.109 11.590 L 13.000 9.701 16.380 13.080 C 18.239 14.939,19.760 16.473,19.760 16.490 C 19.760 16.506,18.417 16.520,16.776 16.520 L 13.792 16.520 13.656 16.656 C 13.537 16.775,13.520 16.817,13.520 16.995 C 13.520 17.250,13.657 17.425,13.900 17.481 C 13.991 17.502,15.567 17.518,17.560 17.519 C 20.814 17.520,21.070 17.515,21.197 17.450 C 21.273 17.411,21.372 17.329,21.417 17.267 C 21.499 17.155,21.500 17.121,21.512 13.687 C 21.519 11.780,21.512 10.122,21.498 10.002 C 21.477 9.828,21.446 9.758,21.340 9.652 C 21.225 9.537,21.181 9.520,21.005 9.520 C 20.750 9.520,20.575 9.657,20.519 9.900 C 20.498 9.990,20.481 11.318,20.481 12.920 L 20.480 15.779 16.849 12.150 L 13.219 8.520 13.000 8.520 L 12.782 8.520 10.891 10.410 L 9.000 12.299 6.109 9.410 L 3.219 6.520 3.005 6.520 C 2.816 6.520,2.777 6.535,2.656 6.656 " stroke="none" fill="black" fill-rule="evenodd"></path></svg>