<svg xmlns="http://www.w3.org/2000/svg" class="icon icon-tabler icon-tabler-triangle" width="24" height="24" viewBox="0 0 24 24" stroke-width="1" stroke="currentColor" fill="none" stroke-linecap="round" stroke-linejoin="round"><path d="M11.400 2.543 C 10.984 2.652,10.539 2.903,10.249 3.194 C 9.994 3.450,9.797 3.784,6.384 9.757 C 4.227 13.532,2.756 16.148,2.708 16.295 C 2.646 16.482,2.626 16.649,2.625 17.000 C 2.623 17.412,2.636 17.496,2.744 17.802 C 2.810 17.990,2.932 18.245,3.015 18.369 C 3.337 18.855,3.903 19.264,4.480 19.427 C 4.728 19.497,5.078 19.500,12.000 19.500 C 18.922 19.500,19.272 19.497,19.520 19.427 C 20.097 19.264,20.663 18.855,20.985 18.369 C 21.068 18.245,21.190 17.990,21.256 17.802 C 21.364 17.496,21.377 17.412,21.375 17.000 C 21.374 16.649,21.354 16.482,21.292 16.295 C 21.244 16.148,19.773 13.532,17.616 9.757 C 14.193 3.767,14.007 3.451,13.749 3.192 C 13.538 2.981,13.396 2.881,13.109 2.744 C 12.906 2.646,12.645 2.547,12.528 2.523 C 12.236 2.464,11.665 2.474,11.400 2.543 M12.620 3.613 C 12.752 3.674,12.938 3.800,13.032 3.892 C 13.164 4.021,14.039 5.520,16.766 10.292 C 20.028 15.999,20.332 16.545,20.372 16.782 C 20.506 17.567,19.954 18.328,19.143 18.477 C 18.809 18.538,5.190 18.538,4.859 18.476 C 4.427 18.397,4.071 18.162,3.847 17.809 C 3.618 17.448,3.544 16.998,3.654 16.636 C 3.741 16.348,10.741 4.129,10.934 3.927 C 11.235 3.612,11.575 3.478,12.040 3.492 C 12.315 3.499,12.426 3.523,12.620 3.613 " stroke="none" fill="black" fill-rule="evenodd"></path></svg>