<svg xmlns="http://www.w3.org/2000/svg" class="icon icon-tabler icon-tabler-truck-return" width="24" height="24" viewBox="0 0 24 24" stroke-width="1" stroke="currentColor" fill="none" stroke-linecap="round" stroke-linejoin="round"><path d="M3.468 4.599 C 3.060 4.758,2.697 5.145,2.569 5.556 C 2.505 5.764,2.500 6.182,2.500 11.462 C 2.500 16.823,2.504 17.150,2.571 17.251 C 2.724 17.486,2.781 17.499,3.704 17.513 L 4.552 17.527 4.644 17.811 C 4.749 18.138,5.043 18.601,5.283 18.818 C 5.548 19.058,5.893 19.261,6.207 19.364 C 6.459 19.447,6.576 19.460,7.040 19.459 C 7.549 19.458,7.598 19.450,7.888 19.334 C 8.601 19.048,9.139 18.488,9.359 17.803 L 9.450 17.520 12.000 17.520 L 14.550 17.520 14.643 17.808 C 14.871 18.518,15.483 19.127,16.207 19.364 C 16.459 19.447,16.576 19.460,17.040 19.459 C 17.549 19.458,17.598 19.450,17.888 19.334 C 18.599 19.048,19.139 18.488,19.358 17.806 L 19.448 17.527 20.296 17.513 C 21.219 17.499,21.276 17.486,21.429 17.251 C 21.495 17.151,21.500 16.936,21.500 14.002 L 21.500 10.860 19.966 8.300 C 19.122 6.892,18.379 5.690,18.315 5.630 L 18.199 5.520 15.859 5.520 L 13.520 5.520 13.519 5.290 C 13.518 4.945,13.461 4.755,13.321 4.630 L 13.199 4.520 8.429 4.522 C 3.862 4.524,3.652 4.527,3.468 4.599 M12.480 8.020 L 12.480 10.520 10.860 10.520 C 9.969 10.520,9.240 10.507,9.240 10.492 C 9.240 10.476,9.519 10.182,9.860 9.839 L 10.480 9.214 10.480 9.003 C 10.480 8.816,10.464 8.776,10.344 8.656 C 10.223 8.535,10.184 8.520,9.995 8.520 L 9.782 8.520 8.651 9.651 L 7.520 10.782 7.520 11.000 L 7.520 11.218 8.651 12.349 L 9.782 13.480 9.995 13.480 C 10.184 13.480,10.223 13.465,10.344 13.344 C 10.464 13.224,10.480 13.184,10.480 12.997 L 10.480 12.786 9.853 12.155 L 9.227 11.524 11.185 11.512 C 13.338 11.499,13.261 11.508,13.429 11.251 C 13.494 11.152,13.501 10.962,13.512 8.832 L 13.523 6.520 15.632 6.521 L 17.740 6.523 19.110 8.812 L 20.480 11.101 20.480 13.811 L 20.480 16.520 19.979 16.520 C 19.497 16.520,19.477 16.517,19.443 16.430 C 19.424 16.381,19.362 16.214,19.305 16.060 C 19.085 15.469,18.529 14.921,17.900 14.673 C 17.625 14.565,17.516 14.545,17.120 14.529 C 16.731 14.514,16.608 14.525,16.330 14.600 C 15.552 14.810,14.902 15.422,14.642 16.189 L 14.536 16.500 12.007 16.510 L 9.479 16.521 9.444 16.430 C 9.424 16.381,9.362 16.214,9.305 16.060 C 9.085 15.469,8.529 14.921,7.900 14.673 C 7.625 14.565,7.516 14.545,7.120 14.529 C 6.731 14.514,6.608 14.525,6.330 14.600 C 5.552 14.810,4.902 15.422,4.642 16.189 L 4.536 16.500 4.028 16.511 L 3.520 16.522 3.520 11.157 L 3.520 5.792 3.656 5.656 L 3.792 5.520 8.136 5.520 L 12.480 5.520 12.480 8.020 M7.641 15.649 C 7.924 15.787,8.213 16.076,8.351 16.359 C 8.449 16.557,8.460 16.624,8.460 17.000 C 8.460 17.348,8.445 17.453,8.372 17.610 C 8.250 17.875,7.912 18.218,7.644 18.350 C 7.443 18.449,7.377 18.460,7.000 18.460 C 6.624 18.460,6.557 18.449,6.359 18.351 C 6.076 18.213,5.787 17.924,5.649 17.641 C 5.499 17.337,5.474 16.802,5.593 16.488 C 5.743 16.094,6.077 15.753,6.468 15.597 C 6.766 15.478,7.345 15.503,7.641 15.649 M17.641 15.649 C 17.924 15.787,18.213 16.076,18.351 16.359 C 18.449 16.557,18.460 16.624,18.460 17.000 C 18.460 17.348,18.445 17.453,18.372 17.610 C 18.250 17.875,17.912 18.218,17.644 18.350 C 17.443 18.449,17.377 18.460,17.000 18.460 C 16.624 18.460,16.557 18.449,16.359 18.351 C 16.076 18.213,15.787 17.924,15.649 17.641 C 15.499 17.337,15.474 16.802,15.593 16.488 C 15.743 16.094,16.077 15.753,16.468 15.597 C 16.766 15.478,17.345 15.503,17.641 15.649 " stroke="none" fill="black" fill-rule="evenodd"></path></svg>