<svg xmlns="http://www.w3.org/2000/svg" class="icon icon-tabler icon-tabler-typography" width="24" height="24" viewBox="0 0 24 24" stroke-width="1" stroke="currentColor" fill="none" stroke-linecap="round" stroke-linejoin="round"><path d="M10.681 3.630 C 10.577 3.725,10.151 4.831,7.606 11.620 L 4.653 19.500 4.203 19.520 C 3.756 19.540,3.752 19.541,3.637 19.671 C 3.541 19.778,3.520 19.837,3.520 20.000 C 3.520 20.249,3.659 20.426,3.900 20.481 C 4.108 20.529,6.892 20.529,7.100 20.481 C 7.343 20.425,7.480 20.250,7.480 19.995 C 7.480 19.817,7.463 19.775,7.344 19.656 L 7.208 19.520 6.491 19.520 C 6.096 19.520,5.764 19.510,5.752 19.499 C 5.740 19.487,6.065 18.587,6.473 17.499 L 7.215 15.520 10.391 15.530 L 13.568 15.540 14.404 17.513 C 14.864 18.598,15.240 19.494,15.240 19.503 C 15.240 19.512,14.914 19.520,14.516 19.520 L 13.792 19.520 13.656 19.656 C 13.537 19.775,13.520 19.817,13.520 19.995 C 13.520 20.250,13.657 20.425,13.900 20.481 C 14.111 20.530,20.889 20.530,21.100 20.481 C 21.343 20.425,21.480 20.250,21.480 19.995 C 21.480 19.817,21.463 19.775,21.344 19.656 L 21.208 19.520 20.789 19.520 C 20.502 19.520,20.357 19.504,20.330 19.470 C 20.307 19.442,18.747 15.892,16.863 11.580 C 14.192 5.470,13.410 3.716,13.317 3.630 L 13.199 3.520 12.000 3.520 L 10.801 3.520 10.681 3.630 M15.946 11.978 C 17.736 16.069,19.200 19.440,19.200 19.468 C 19.200 19.543,16.388 19.544,16.331 19.470 C 16.287 19.412,10.720 6.261,10.720 6.212 C 10.719 6.195,10.859 5.806,11.029 5.349 L 11.340 4.518 12.016 4.529 L 12.691 4.540 15.946 11.978 M11.677 11.070 C 12.471 12.945,13.120 14.488,13.120 14.500 C 13.120 14.511,11.876 14.520,10.356 14.520 C 8.161 14.520,7.595 14.510,7.610 14.470 C 9.081 10.521,10.186 7.612,10.207 7.633 C 10.222 7.648,10.883 9.194,11.677 11.070 " stroke="none" fill="black" fill-rule="evenodd"></path></svg>