<svg xmlns="http://www.w3.org/2000/svg" class="icon icon-tabler icon-tabler-umbrella" width="24" height="24" viewBox="0 0 24 24" stroke-width="1" stroke="currentColor" fill="none" stroke-linecap="round" stroke-linejoin="round"><path d="M10.800 3.585 C 8.339 3.953,6.214 5.319,4.850 7.408 C 4.036 8.656,3.523 10.323,3.521 11.729 C 3.520 12.185,3.523 12.202,3.630 12.321 C 3.696 12.395,3.804 12.459,3.900 12.481 C 3.991 12.502,5.649 12.519,7.770 12.519 L 11.480 12.520 11.481 15.190 C 11.481 16.659,11.498 18.016,11.518 18.206 C 11.626 19.236,12.268 20.057,13.207 20.364 C 13.459 20.447,13.576 20.460,14.040 20.459 C 14.553 20.457,14.596 20.451,14.900 20.328 C 15.849 19.947,16.480 19.049,16.480 18.080 C 16.480 17.806,16.474 17.786,16.344 17.656 C 16.226 17.538,16.182 17.520,16.009 17.520 C 15.869 17.520,15.780 17.544,15.705 17.603 C 15.558 17.719,15.533 17.779,15.483 18.136 C 15.459 18.308,15.405 18.529,15.362 18.625 C 15.252 18.873,14.909 19.220,14.644 19.350 C 14.443 19.449,14.377 19.460,14.000 19.460 C 13.624 19.460,13.557 19.449,13.359 19.351 C 13.076 19.213,12.787 18.924,12.649 18.641 L 12.540 18.420 12.529 15.470 L 12.518 12.520 16.229 12.519 C 18.351 12.519,20.009 12.502,20.100 12.481 C 20.196 12.459,20.304 12.395,20.370 12.321 C 20.476 12.204,20.480 12.181,20.480 11.768 C 20.480 10.644,20.162 9.346,19.615 8.240 C 18.368 5.715,15.955 3.972,13.168 3.583 C 12.602 3.504,11.333 3.505,10.800 3.585 M13.075 4.582 C 16.089 5.025,18.529 7.232,19.278 10.195 C 19.354 10.495,19.480 11.269,19.480 11.435 L 19.480 11.519 12.000 11.519 L 4.520 11.519 4.520 11.435 C 4.520 11.269,4.646 10.495,4.722 10.195 C 4.858 9.656,5.081 9.073,5.345 8.560 C 6.443 6.428,8.508 4.949,10.900 4.583 C 11.405 4.506,12.550 4.505,13.075 4.582 " stroke="none" fill="black" fill-rule="evenodd"></path></svg>