<svg xmlns="http://www.w3.org/2000/svg" class="icon icon-tabler icon-tabler-underline" width="24" height="24" viewBox="0 0 24 24" stroke-width="1" stroke="currentColor" fill="none" stroke-linecap="round" stroke-linejoin="round"><path d="M7.679 4.630 C 7.605 4.696,7.541 4.804,7.519 4.900 C 7.470 5.111,7.471 10.679,7.520 11.300 C 7.578 12.037,7.756 12.636,8.092 13.220 C 8.709 14.292,9.668 15.024,10.913 15.370 C 11.178 15.444,11.325 15.456,12.000 15.456 C 12.675 15.456,12.822 15.444,13.088 15.370 C 14.337 15.022,15.289 14.297,15.908 13.220 C 16.244 12.636,16.422 12.037,16.480 11.300 C 16.529 10.679,16.530 5.111,16.481 4.900 C 16.459 4.804,16.395 4.696,16.321 4.630 C 16.095 4.427,15.707 4.499,15.550 4.773 C 15.512 4.840,15.495 5.657,15.480 8.280 L 15.460 11.700 15.328 12.080 C 15.136 12.635,14.883 13.037,14.460 13.460 C 14.037 13.883,13.634 14.137,13.080 14.328 C 12.707 14.457,12.687 14.459,12.000 14.459 C 11.313 14.459,11.293 14.457,10.920 14.328 C 10.366 14.137,9.963 13.883,9.540 13.460 C 9.117 13.037,8.864 12.635,8.672 12.080 L 8.540 11.700 8.520 8.280 C 8.505 5.657,8.488 4.840,8.450 4.773 C 8.293 4.499,7.905 4.427,7.679 4.630 M5.656 19.656 C 5.537 19.775,5.520 19.817,5.520 19.995 C 5.520 20.250,5.657 20.425,5.900 20.481 C 6.113 20.530,17.887 20.530,18.100 20.481 C 18.343 20.425,18.480 20.250,18.480 19.995 C 18.480 19.817,18.463 19.775,18.344 19.656 L 18.208 19.520 12.000 19.520 L 5.792 19.520 5.656 19.656 " stroke="none" fill="black" fill-rule="evenodd"></path></svg>