<svg xmlns="http://www.w3.org/2000/svg" class="icon icon-tabler icon-tabler-unlink" width="24" height="24" viewBox="0 0 24 24" stroke-width="1" stroke="currentColor" fill="none" stroke-linecap="round" stroke-linejoin="round"><path d="M7.679 2.630 C 7.605 2.696,7.541 2.804,7.519 2.900 C 7.471 3.108,7.471 4.892,7.519 5.100 C 7.574 5.341,7.751 5.480,8.000 5.480 C 8.249 5.480,8.426 5.341,8.481 5.100 C 8.529 4.892,8.529 3.108,8.481 2.900 C 8.426 2.659,8.249 2.520,8.000 2.520 C 7.840 2.520,7.778 2.541,7.679 2.630 M15.720 3.540 C 15.189 3.646,14.685 3.859,14.220 4.173 C 13.939 4.363,13.137 5.131,13.056 5.288 C 12.853 5.679,13.308 6.155,13.693 5.955 C 13.741 5.930,13.960 5.735,14.180 5.523 C 14.639 5.079,14.851 4.925,15.253 4.741 C 16.045 4.378,17.015 4.391,17.820 4.775 C 19.529 5.590,20.062 7.827,18.908 9.340 C 18.615 9.725,14.416 13.883,14.140 14.062 C 14.008 14.148,13.746 14.276,13.557 14.347 C 12.474 14.755,11.349 14.530,10.425 13.721 C 10.214 13.537,10.179 13.520,9.994 13.520 C 9.818 13.520,9.775 13.537,9.656 13.656 C 9.537 13.775,9.520 13.817,9.520 13.997 C 9.520 14.181,9.536 14.220,9.685 14.381 C 9.914 14.629,10.321 14.922,10.700 15.112 C 11.953 15.739,13.342 15.687,14.580 14.967 C 14.864 14.802,15.160 14.523,17.213 12.481 C 18.485 11.215,19.615 10.063,19.724 9.920 C 19.977 9.588,20.249 9.040,20.387 8.580 C 20.488 8.246,20.496 8.168,20.496 7.500 C 20.496 6.829,20.489 6.755,20.386 6.420 C 19.922 4.895,18.758 3.827,17.246 3.536 C 16.886 3.467,16.072 3.469,15.720 3.540 M2.656 7.656 C 2.537 7.775,2.520 7.817,2.520 7.995 C 2.520 8.250,2.657 8.425,2.900 8.481 C 3.108 8.529,4.892 8.529,5.100 8.481 C 5.343 8.425,5.480 8.250,5.480 7.995 C 5.480 7.817,5.463 7.775,5.344 7.656 L 5.208 7.520 4.000 7.520 L 2.792 7.520 2.656 7.656 M10.980 8.485 C 10.373 8.560,9.628 8.862,9.124 9.238 C 8.733 9.530,4.368 13.924,4.160 14.235 C 3.926 14.586,3.704 15.074,3.593 15.480 C 3.513 15.773,3.500 15.913,3.500 16.500 C 3.500 17.087,3.513 17.227,3.593 17.520 C 3.785 18.224,4.132 18.818,4.657 19.343 C 5.177 19.864,5.695 20.169,6.420 20.383 C 6.906 20.527,7.743 20.563,8.242 20.462 C 9.143 20.279,9.708 19.968,10.454 19.242 C 10.906 18.803,11.000 18.675,11.000 18.500 C 11.000 18.162,10.595 17.896,10.307 18.045 C 10.259 18.070,10.040 18.265,9.820 18.477 C 9.600 18.690,9.334 18.922,9.229 18.994 C 8.342 19.602,7.158 19.692,6.180 19.225 C 5.379 18.843,4.782 18.106,4.560 17.224 C 4.461 16.831,4.454 16.231,4.544 15.828 C 4.626 15.459,4.857 14.966,5.091 14.660 C 5.386 14.274,9.585 10.116,9.860 9.938 C 9.992 9.852,10.255 9.724,10.444 9.652 C 11.530 9.244,12.647 9.467,13.575 10.279 C 13.786 10.463,13.821 10.480,14.006 10.480 C 14.182 10.480,14.225 10.463,14.344 10.344 C 14.465 10.223,14.480 10.184,14.480 9.994 C 14.480 9.780,14.480 9.780,14.186 9.500 C 13.601 8.945,12.817 8.586,11.961 8.481 C 11.577 8.435,11.381 8.435,10.980 8.485 M18.656 15.656 C 18.537 15.775,18.520 15.817,18.520 15.995 C 18.520 16.250,18.657 16.425,18.900 16.481 C 18.988 16.501,19.483 16.518,20.000 16.518 C 20.517 16.518,21.012 16.501,21.100 16.481 C 21.343 16.425,21.480 16.250,21.480 15.995 C 21.480 15.817,21.463 15.775,21.344 15.656 L 21.208 15.520 20.000 15.520 L 18.792 15.520 18.656 15.656 M15.679 18.630 C 15.605 18.696,15.541 18.804,15.519 18.900 C 15.471 19.108,15.471 20.892,15.519 21.100 C 15.574 21.341,15.751 21.480,16.000 21.480 C 16.249 21.480,16.426 21.341,16.481 21.100 C 16.529 20.892,16.529 19.108,16.481 18.900 C 16.426 18.659,16.249 18.520,16.000 18.520 C 15.840 18.520,15.778 18.541,15.679 18.630 " stroke="none" fill="black" fill-rule="evenodd"></path></svg>