<svg xmlns="http://www.w3.org/2000/svg" class="icon icon-tabler icon-tabler-urgent" width="24" height="24" viewBox="0 0 24 24" stroke-width="1" stroke="currentColor" fill="none" stroke-linecap="round" stroke-linejoin="round"><path d="M11.679 2.630 C 11.522 2.771,11.482 2.946,11.482 3.500 C 11.482 4.054,11.522 4.229,11.679 4.370 C 11.853 4.527,12.147 4.527,12.321 4.370 C 12.478 4.229,12.518 4.054,12.518 3.500 C 12.518 2.946,12.478 2.771,12.321 2.630 C 12.222 2.541,12.160 2.520,12.000 2.520 C 11.840 2.520,11.778 2.541,11.679 2.630 M5.256 5.256 C 5.136 5.376,5.120 5.417,5.120 5.602 L 5.120 5.812 5.550 6.249 C 5.787 6.490,6.029 6.712,6.088 6.743 C 6.491 6.954,6.954 6.491,6.743 6.088 C 6.712 6.029,6.490 5.787,6.249 5.550 L 5.812 5.120 5.602 5.120 C 5.417 5.120,5.376 5.136,5.256 5.256 M17.751 5.550 C 17.510 5.787,17.288 6.029,17.257 6.088 C 17.046 6.491,17.509 6.954,17.912 6.743 C 17.971 6.712,18.213 6.490,18.450 6.249 L 18.880 5.812 18.880 5.602 C 18.880 5.417,18.864 5.376,18.744 5.256 C 18.624 5.136,18.583 5.120,18.398 5.120 L 18.188 5.120 17.751 5.550 M11.145 7.582 C 9.561 7.897,8.244 9.049,7.740 10.561 C 7.523 11.212,7.514 11.313,7.492 13.487 L 7.471 15.513 7.026 15.527 C 6.638 15.538,6.551 15.554,6.359 15.649 C 6.083 15.784,5.788 16.075,5.659 16.339 C 5.507 16.650,5.469 17.077,5.490 18.233 C 5.505 19.036,5.523 19.305,5.574 19.465 C 5.710 19.889,6.125 20.297,6.556 20.431 C 6.764 20.495,7.158 20.500,12.000 20.500 C 16.842 20.500,17.236 20.495,17.444 20.431 C 17.875 20.297,18.290 19.889,18.426 19.465 C 18.477 19.305,18.495 19.036,18.510 18.233 C 18.531 17.077,18.493 16.650,18.341 16.339 C 18.212 16.075,17.917 15.784,17.641 15.649 C 17.449 15.555,17.361 15.538,16.970 15.526 L 16.520 15.511 16.519 13.846 C 16.518 12.024,16.484 11.381,16.364 10.913 C 15.922 9.195,14.557 7.908,12.830 7.580 C 12.435 7.506,11.526 7.506,11.145 7.582 M13.080 8.675 C 13.629 8.861,14.035 9.115,14.460 9.540 C 14.883 9.963,15.136 10.365,15.328 10.920 L 15.460 11.300 15.472 13.410 L 15.484 15.520 12.002 15.520 L 8.520 15.520 8.520 13.547 C 8.520 12.301,8.536 11.488,8.563 11.340 C 8.773 10.206,9.658 9.147,10.740 8.738 C 11.225 8.554,11.450 8.521,12.100 8.534 C 12.652 8.546,12.730 8.557,13.080 8.675 M2.656 11.656 C 2.537 11.775,2.520 11.817,2.520 11.995 C 2.520 12.250,2.657 12.425,2.900 12.481 C 3.107 12.529,3.893 12.529,4.100 12.481 C 4.343 12.425,4.480 12.250,4.480 11.995 C 4.480 11.817,4.463 11.775,4.344 11.656 L 4.208 11.520 3.500 11.520 L 2.792 11.520 2.656 11.656 M19.656 11.656 C 19.537 11.775,19.520 11.817,19.520 11.995 C 19.520 12.250,19.657 12.425,19.900 12.481 C 20.107 12.529,20.893 12.529,21.100 12.481 C 21.343 12.425,21.480 12.250,21.480 11.995 C 21.480 11.817,21.463 11.775,21.344 11.656 L 21.208 11.520 20.500 11.520 L 19.792 11.520 19.656 11.656 M17.344 16.656 L 17.480 16.792 17.480 17.995 L 17.480 19.199 17.370 19.321 C 17.304 19.395,17.196 19.459,17.100 19.481 C 16.887 19.530,7.113 19.530,6.900 19.481 C 6.804 19.459,6.696 19.395,6.630 19.321 L 6.520 19.199 6.520 17.995 L 6.520 16.792 6.656 16.656 L 6.792 16.520 12.000 16.520 L 17.208 16.520 17.344 16.656 " stroke="none" fill="black" fill-rule="evenodd"></path></svg>