<svg xmlns="http://www.w3.org/2000/svg" class="icon icon-tabler icon-tabler-users" width="24" height="24" viewBox="0 0 24 24" stroke-width="1" stroke="currentColor" fill="none" stroke-linecap="round" stroke-linejoin="round"><path d="M8.145 2.582 C 6.296 2.950,4.854 4.439,4.559 6.287 C 4.488 6.732,4.528 7.694,4.633 8.087 C 5.073 9.731,6.248 10.907,7.913 11.370 C 8.178 11.444,8.325 11.456,9.000 11.456 C 9.675 11.456,9.822 11.444,10.088 11.370 C 11.755 10.906,12.906 9.755,13.370 8.087 C 13.444 7.822,13.456 7.675,13.456 7.000 C 13.456 6.156,13.421 5.951,13.177 5.333 C 12.618 3.921,11.336 2.866,9.830 2.580 C 9.435 2.506,8.526 2.506,8.145 2.582 M15.756 2.700 C 15.600 2.785,15.520 2.934,15.520 3.143 C 15.520 3.299,15.541 3.349,15.652 3.460 C 15.728 3.536,15.860 3.613,15.962 3.640 C 16.903 3.892,17.783 4.654,18.202 5.579 C 18.604 6.465,18.597 7.566,18.183 8.462 C 17.756 9.386,16.927 10.097,15.953 10.375 C 15.646 10.463,15.520 10.612,15.520 10.887 C 15.520 11.062,15.537 11.105,15.656 11.224 C 15.772 11.340,15.820 11.360,15.979 11.360 C 16.541 11.360,17.558 10.812,18.203 10.162 C 19.860 8.493,19.943 5.866,18.396 4.045 C 18.181 3.791,17.726 3.400,17.425 3.211 C 16.966 2.920,16.252 2.638,15.986 2.642 C 15.917 2.642,15.813 2.669,15.756 2.700 M10.080 3.675 C 10.629 3.861,11.035 4.115,11.460 4.540 C 11.883 4.963,12.137 5.366,12.328 5.920 C 12.457 6.293,12.459 6.313,12.459 7.000 C 12.459 7.687,12.457 7.707,12.328 8.080 C 12.137 8.634,11.883 9.037,11.460 9.460 C 11.037 9.883,10.634 10.137,10.080 10.328 C 9.707 10.457,9.687 10.459,9.000 10.459 C 8.313 10.459,8.293 10.457,7.920 10.328 C 7.366 10.137,6.963 9.883,6.540 9.460 C 6.114 9.034,5.860 8.628,5.676 8.080 C 5.565 7.752,5.545 7.629,5.529 7.175 C 5.518 6.864,5.529 6.542,5.557 6.383 C 5.758 5.223,6.642 4.154,7.740 3.738 C 8.225 3.554,8.450 3.521,9.100 3.534 C 9.652 3.546,9.730 3.557,10.080 3.675 M6.145 14.582 C 4.561 14.897,3.244 16.049,2.740 17.561 C 2.553 18.121,2.520 18.397,2.493 19.600 C 2.463 20.993,2.479 21.167,2.660 21.348 C 2.775 21.463,2.819 21.480,2.995 21.480 C 3.250 21.480,3.425 21.343,3.481 21.100 C 3.501 21.012,3.519 20.408,3.519 19.757 C 3.520 19.083,3.539 18.474,3.563 18.340 C 3.785 17.139,4.708 16.091,5.910 15.675 L 6.300 15.540 9.000 15.540 L 11.700 15.540 12.080 15.672 C 12.635 15.864,13.037 16.117,13.460 16.540 C 13.884 16.964,14.138 17.368,14.327 17.920 L 14.457 18.300 14.479 19.720 C 14.494 20.745,14.514 21.164,14.550 21.227 C 14.707 21.501,15.095 21.573,15.321 21.370 C 15.395 21.304,15.459 21.196,15.481 21.100 C 15.529 20.891,15.529 19.315,15.480 18.700 C 15.460 18.436,15.407 18.082,15.364 17.913 C 14.922 16.195,13.557 14.908,11.830 14.580 C 11.386 14.496,6.570 14.498,6.145 14.582 M17.817 14.697 C 17.622 14.782,17.520 14.941,17.520 15.161 C 17.520 15.423,17.651 15.558,18.020 15.679 C 19.049 16.015,19.834 16.728,20.232 17.688 C 20.449 18.210,20.480 18.470,20.481 19.768 C 20.481 20.413,20.499 21.012,20.519 21.100 C 20.574 21.341,20.751 21.480,21.000 21.480 C 21.249 21.480,21.426 21.341,21.481 21.100 C 21.529 20.893,21.529 19.310,21.482 18.734 C 21.413 17.897,21.183 17.208,20.760 16.563 C 20.191 15.697,19.343 15.053,18.368 14.745 C 17.988 14.625,17.983 14.625,17.817 14.697 " stroke="none" fill="black" fill-rule="evenodd"></path></svg>