<svg xmlns="http://www.w3.org/2000/svg" class="icon icon-tabler icon-tabler-user" width="24" height="24" viewBox="0 0 24 24" stroke-width="1" stroke="currentColor" fill="none" stroke-linecap="round" stroke-linejoin="round"><path d="M11.145 2.582 C 9.296 2.950,7.854 4.439,7.559 6.287 C 7.488 6.732,7.528 7.694,7.633 8.087 C 8.073 9.731,9.248 10.907,10.913 11.370 C 11.178 11.444,11.325 11.456,12.000 11.456 C 12.675 11.456,12.822 11.444,13.088 11.370 C 14.755 10.906,15.906 9.755,16.370 8.087 C 16.444 7.822,16.456 7.675,16.456 7.000 C 16.456 6.156,16.421 5.951,16.177 5.333 C 15.618 3.921,14.336 2.866,12.830 2.580 C 12.435 2.506,11.526 2.506,11.145 2.582 M13.080 3.675 C 13.629 3.861,14.035 4.115,14.460 4.540 C 14.883 4.963,15.137 5.366,15.328 5.920 C 15.457 6.293,15.459 6.313,15.459 7.000 C 15.459 7.687,15.457 7.707,15.328 8.080 C 15.137 8.634,14.883 9.037,14.460 9.460 C 14.037 9.883,13.634 10.137,13.080 10.328 C 12.707 10.457,12.687 10.459,12.000 10.459 C 11.313 10.459,11.293 10.457,10.920 10.328 C 10.366 10.137,9.963 9.883,9.540 9.460 C 9.114 9.034,8.860 8.628,8.676 8.080 C 8.565 7.752,8.545 7.629,8.529 7.175 C 8.518 6.864,8.529 6.542,8.557 6.383 C 8.758 5.223,9.642 4.154,10.740 3.738 C 11.225 3.554,11.450 3.521,12.100 3.534 C 12.652 3.546,12.730 3.557,13.080 3.675 M9.145 14.582 C 7.561 14.897,6.244 16.049,5.740 17.561 C 5.553 18.121,5.520 18.397,5.493 19.600 C 5.463 20.993,5.479 21.167,5.660 21.348 C 5.775 21.463,5.819 21.480,5.995 21.480 C 6.250 21.480,6.425 21.343,6.481 21.100 C 6.501 21.012,6.519 20.408,6.519 19.757 C 6.520 19.083,6.539 18.474,6.563 18.340 C 6.785 17.139,7.708 16.091,8.910 15.675 L 9.300 15.540 12.000 15.540 L 14.700 15.540 15.080 15.672 C 15.635 15.864,16.037 16.117,16.460 16.540 C 16.884 16.964,17.138 17.368,17.327 17.920 L 17.457 18.300 17.479 19.720 C 17.494 20.745,17.514 21.164,17.550 21.227 C 17.707 21.501,18.095 21.573,18.321 21.370 C 18.395 21.304,18.459 21.196,18.481 21.100 C 18.529 20.891,18.529 19.315,18.480 18.700 C 18.460 18.436,18.407 18.082,18.364 17.913 C 17.922 16.195,16.557 14.908,14.830 14.580 C 14.386 14.496,9.570 14.498,9.145 14.582 " stroke="none" fill="black" fill-rule="evenodd"></path></svg>