<svg xmlns="http://www.w3.org/2000/svg" class="icon icon-tabler icon-tabler-user-plus" width="24" height="24" viewBox="0 0 24 24" stroke-width="1" stroke="currentColor" fill="none" stroke-linecap="round" stroke-linejoin="round"><path d="M8.145 2.582 C 6.296 2.950,4.854 4.439,4.559 6.287 C 4.488 6.732,4.528 7.694,4.633 8.087 C 5.073 9.731,6.248 10.907,7.913 11.370 C 8.178 11.444,8.325 11.456,9.000 11.456 C 9.675 11.456,9.822 11.444,10.088 11.370 C 11.755 10.906,12.906 9.755,13.370 8.087 C 13.444 7.822,13.456 7.675,13.456 7.000 C 13.456 6.156,13.421 5.951,13.177 5.333 C 12.618 3.921,11.336 2.866,9.830 2.580 C 9.435 2.506,8.526 2.506,8.145 2.582 M10.080 3.675 C 10.629 3.861,11.035 4.115,11.460 4.540 C 11.883 4.963,12.137 5.366,12.328 5.920 C 12.457 6.293,12.459 6.313,12.459 7.000 C 12.459 7.687,12.457 7.707,12.328 8.080 C 12.137 8.634,11.883 9.037,11.460 9.460 C 11.037 9.883,10.634 10.137,10.080 10.328 C 9.707 10.457,9.687 10.459,9.000 10.459 C 8.313 10.459,8.293 10.457,7.920 10.328 C 7.366 10.137,6.963 9.883,6.540 9.460 C 6.114 9.034,5.860 8.628,5.676 8.080 C 5.565 7.752,5.545 7.629,5.529 7.175 C 5.518 6.864,5.529 6.542,5.557 6.383 C 5.758 5.223,6.642 4.154,7.740 3.738 C 8.225 3.554,8.450 3.521,9.100 3.534 C 9.652 3.546,9.730 3.557,10.080 3.675 M18.679 7.630 C 18.605 7.696,18.541 7.804,18.519 7.900 C 18.499 7.988,18.481 8.614,18.481 9.290 L 18.480 10.520 17.136 10.520 L 15.792 10.520 15.656 10.656 C 15.537 10.775,15.520 10.817,15.520 10.995 C 15.520 11.250,15.657 11.425,15.900 11.481 C 15.988 11.501,16.605 11.519,17.270 11.519 L 18.480 11.520 18.481 12.730 C 18.481 13.396,18.499 14.012,18.519 14.100 C 18.574 14.341,18.751 14.480,19.000 14.480 C 19.249 14.480,19.426 14.341,19.481 14.100 C 19.501 14.012,19.519 13.396,19.519 12.730 L 19.520 11.520 20.730 11.519 C 21.396 11.519,22.012 11.501,22.100 11.481 C 22.343 11.425,22.480 11.250,22.480 10.995 C 22.480 10.817,22.463 10.775,22.344 10.656 L 22.208 10.520 20.864 10.520 L 19.520 10.520 19.519 9.290 C 19.519 8.614,19.501 7.988,19.481 7.900 C 19.426 7.659,19.249 7.520,19.000 7.520 C 18.840 7.520,18.778 7.541,18.679 7.630 M6.145 14.582 C 4.561 14.897,3.244 16.049,2.740 17.561 C 2.553 18.121,2.520 18.397,2.493 19.600 C 2.463 20.993,2.479 21.167,2.660 21.348 C 2.775 21.463,2.819 21.480,2.995 21.480 C 3.250 21.480,3.425 21.343,3.481 21.100 C 3.501 21.012,3.519 20.408,3.519 19.757 C 3.520 19.083,3.539 18.474,3.563 18.340 C 3.785 17.139,4.708 16.091,5.910 15.675 L 6.300 15.540 9.000 15.540 L 11.700 15.540 12.080 15.672 C 12.635 15.864,13.037 16.117,13.460 16.540 C 13.884 16.964,14.138 17.368,14.327 17.920 L 14.457 18.300 14.479 19.720 C 14.494 20.745,14.514 21.164,14.550 21.227 C 14.707 21.501,15.095 21.573,15.321 21.370 C 15.395 21.304,15.459 21.196,15.481 21.100 C 15.529 20.891,15.529 19.315,15.480 18.700 C 15.460 18.436,15.407 18.082,15.364 17.913 C 14.922 16.195,13.557 14.908,11.830 14.580 C 11.386 14.496,6.570 14.498,6.145 14.582 " stroke="none" fill="black" fill-rule="evenodd"></path></svg>