<svg xmlns="http://www.w3.org/2000/svg" class="icon icon-tabler icon-tabler-viewport-wide" width="24" height="24" viewBox="0 0 24 24" stroke-width="1" stroke="currentColor" fill="none" stroke-linecap="round" stroke-linejoin="round"><path d="M2.679 2.630 C 2.605 2.696,2.541 2.804,2.519 2.900 C 2.471 3.108,2.471 5.892,2.519 6.100 C 2.574 6.341,2.751 6.480,3.000 6.480 C 3.249 6.480,3.426 6.341,3.481 6.100 C 3.501 6.012,3.519 5.395,3.519 4.730 L 3.520 3.520 12.000 3.520 L 20.480 3.520 20.481 4.730 C 20.481 5.395,20.499 6.012,20.519 6.100 C 20.574 6.341,20.751 6.480,21.000 6.480 C 21.249 6.480,21.426 6.341,21.481 6.100 C 21.529 5.892,21.529 3.108,21.481 2.900 C 21.459 2.804,21.395 2.696,21.321 2.630 L 21.199 2.520 12.000 2.520 L 2.801 2.520 2.679 2.630 M4.151 10.151 L 2.520 11.781 2.520 12.000 L 2.520 12.219 4.151 13.849 L 5.781 15.480 5.995 15.480 C 6.184 15.480,6.223 15.465,6.344 15.344 C 6.465 15.223,6.480 15.184,6.480 14.996 L 6.480 14.783 5.351 13.652 L 4.222 12.520 7.081 12.519 C 8.682 12.519,10.010 12.502,10.100 12.481 C 10.343 12.425,10.480 12.250,10.480 11.995 C 10.480 11.817,10.463 11.775,10.344 11.656 L 10.208 11.520 7.224 11.520 C 5.583 11.520,4.240 11.507,4.240 11.491 C 4.240 11.475,4.744 10.957,5.360 10.339 L 6.480 9.217 6.480 9.004 C 6.480 8.816,6.465 8.777,6.344 8.656 C 6.223 8.535,6.184 8.520,5.995 8.520 L 5.781 8.520 4.151 10.151 M17.656 8.656 C 17.535 8.777,17.520 8.816,17.520 9.004 L 17.520 9.217 18.640 10.339 C 19.256 10.957,19.760 11.475,19.760 11.491 C 19.760 11.507,18.417 11.520,16.776 11.520 L 13.792 11.520 13.656 11.656 C 13.537 11.775,13.520 11.817,13.520 11.995 C 13.520 12.250,13.657 12.425,13.900 12.481 C 13.990 12.502,15.318 12.519,16.919 12.519 L 19.778 12.520 18.649 13.652 L 17.520 14.783 17.520 14.996 C 17.520 15.184,17.535 15.223,17.656 15.344 C 17.777 15.465,17.816 15.480,18.005 15.480 L 18.219 15.480 19.849 13.849 L 21.480 12.219 21.480 12.000 L 21.480 11.781 19.849 10.151 L 18.219 8.520 18.005 8.520 C 17.816 8.520,17.777 8.535,17.656 8.656 M2.660 17.652 C 2.480 17.832,2.472 17.931,2.487 19.682 C 2.501 21.284,2.498 21.265,2.749 21.429 C 2.851 21.496,3.332 21.500,12.000 21.500 C 20.668 21.500,21.149 21.496,21.251 21.429 C 21.502 21.265,21.499 21.284,21.513 19.682 C 21.528 17.931,21.520 17.832,21.340 17.652 C 21.225 17.537,21.181 17.520,21.005 17.520 C 20.750 17.520,20.575 17.657,20.519 17.900 C 20.499 17.988,20.481 18.613,20.481 19.290 L 20.480 20.520 12.000 20.520 L 3.520 20.520 3.519 19.290 C 3.519 18.613,3.501 17.988,3.481 17.900 C 3.425 17.657,3.250 17.520,2.995 17.520 C 2.819 17.520,2.775 17.537,2.660 17.652 " stroke="none" fill="black" fill-rule="evenodd"></path></svg>