<svg xmlns="http://www.w3.org/2000/svg" class="icon icon-tabler icon-tabler-viewport-narrow" width="24" height="24" viewBox="0 0 24 24" stroke-width="1" stroke="currentColor" fill="none" stroke-linecap="round" stroke-linejoin="round"><path d="M8.679 2.630 C 8.605 2.696,8.541 2.804,8.519 2.900 C 8.471 3.108,8.471 5.892,8.519 6.100 C 8.574 6.341,8.751 6.480,9.000 6.480 C 9.249 6.480,9.426 6.341,9.481 6.100 C 9.501 6.012,9.519 5.395,9.519 4.730 L 9.520 3.520 12.000 3.520 L 14.480 3.520 14.481 4.730 C 14.481 5.395,14.499 6.012,14.519 6.100 C 14.574 6.341,14.751 6.480,15.000 6.480 C 15.249 6.480,15.426 6.341,15.481 6.100 C 15.501 6.012,15.518 5.292,15.518 4.500 C 15.518 3.708,15.501 2.988,15.481 2.900 C 15.459 2.804,15.395 2.696,15.321 2.630 L 15.199 2.520 12.000 2.520 L 8.801 2.520 8.679 2.630 M6.656 8.656 C 6.535 8.777,6.520 8.816,6.520 9.004 L 6.520 9.217 7.640 10.339 C 8.256 10.957,8.760 11.475,8.760 11.491 C 8.760 11.507,7.417 11.520,5.776 11.520 L 2.792 11.520 2.656 11.656 C 2.537 11.775,2.520 11.817,2.520 11.995 C 2.520 12.250,2.657 12.425,2.900 12.481 C 2.990 12.502,4.318 12.519,5.919 12.519 L 8.778 12.520 7.649 13.652 L 6.520 14.783 6.520 14.996 C 6.520 15.184,6.535 15.223,6.656 15.344 C 6.777 15.465,6.816 15.480,7.005 15.480 L 7.219 15.480 8.849 13.849 L 10.480 12.219 10.480 12.000 L 10.480 11.781 8.849 10.151 L 7.219 8.520 7.005 8.520 C 6.816 8.520,6.777 8.535,6.656 8.656 M15.151 10.151 L 13.520 11.781 13.520 12.000 L 13.520 12.219 15.151 13.849 L 16.781 15.480 16.995 15.480 C 17.184 15.480,17.223 15.465,17.344 15.344 C 17.465 15.223,17.480 15.184,17.480 14.996 L 17.480 14.783 16.351 13.652 L 15.222 12.520 18.081 12.519 C 19.682 12.519,21.010 12.502,21.100 12.481 C 21.343 12.425,21.480 12.250,21.480 11.995 C 21.480 11.817,21.463 11.775,21.344 11.656 L 21.208 11.520 18.224 11.520 C 16.583 11.520,15.240 11.507,15.240 11.491 C 15.240 11.475,15.744 10.957,16.360 10.339 L 17.480 9.217 17.480 9.004 C 17.480 8.816,17.465 8.777,17.344 8.656 C 17.223 8.535,17.184 8.520,16.995 8.520 L 16.781 8.520 15.151 10.151 M8.660 17.652 C 8.480 17.832,8.472 17.931,8.487 19.682 C 8.501 21.284,8.498 21.265,8.749 21.429 C 8.849 21.495,9.064 21.500,12.000 21.500 C 14.936 21.500,15.151 21.495,15.251 21.429 C 15.502 21.265,15.499 21.284,15.513 19.682 C 15.528 17.931,15.520 17.832,15.340 17.652 C 15.225 17.537,15.181 17.520,15.005 17.520 C 14.750 17.520,14.575 17.657,14.519 17.900 C 14.499 17.988,14.481 18.613,14.481 19.290 L 14.480 20.520 12.000 20.520 L 9.520 20.520 9.519 19.290 C 9.519 18.613,9.501 17.988,9.481 17.900 C 9.425 17.657,9.250 17.520,8.995 17.520 C 8.819 17.520,8.775 17.537,8.660 17.652 " stroke="none" fill="black" fill-rule="evenodd"></path></svg>