<svg xmlns="http://www.w3.org/2000/svg" class="icon icon-tabler icon-tabler-virus" width="24" height="24" viewBox="0 0 24 24" stroke-width="1" stroke="currentColor" fill="none" stroke-linecap="round" stroke-linejoin="round"><path d="M10.656 2.656 C 10.537 2.775,10.520 2.817,10.520 2.995 C 10.520 3.354,10.753 3.517,11.270 3.519 L 11.480 3.520 11.480 5.018 L 11.480 6.516 11.330 6.541 C 10.306 6.706,9.490 7.028,8.776 7.550 L 8.472 7.772 7.407 6.706 L 6.341 5.641 6.546 5.431 C 6.857 5.111,6.903 4.966,6.779 4.704 C 6.700 4.537,6.529 4.440,6.315 4.440 C 6.143 4.440,6.136 4.446,5.291 5.291 C 4.446 6.136,4.440 6.143,4.440 6.315 C 4.440 6.529,4.537 6.700,4.704 6.779 C 4.966 6.903,5.111 6.857,5.431 6.546 L 5.641 6.341 6.707 7.407 L 7.773 8.473 7.571 8.746 C 7.066 9.434,6.714 10.268,6.579 11.098 C 6.547 11.297,6.520 11.473,6.520 11.490 C 6.520 11.507,5.845 11.520,5.020 11.520 L 3.520 11.520 3.519 11.290 C 3.517 10.755,3.358 10.520,3.000 10.520 C 2.751 10.520,2.574 10.659,2.519 10.900 C 2.472 11.102,2.472 12.839,2.518 13.079 C 2.568 13.339,2.738 13.480,3.000 13.480 C 3.357 13.480,3.513 13.248,3.518 12.710 L 3.520 12.520 5.018 12.520 L 6.516 12.520 6.541 12.670 C 6.706 13.694,7.028 14.510,7.550 15.224 L 7.772 15.528 6.706 16.593 L 5.641 17.659 5.431 17.454 C 5.111 17.143,4.966 17.097,4.704 17.221 C 4.537 17.300,4.440 17.471,4.440 17.685 C 4.440 17.857,4.446 17.864,5.291 18.709 C 6.136 19.554,6.143 19.560,6.315 19.560 C 6.529 19.560,6.700 19.463,6.779 19.296 C 6.903 19.034,6.857 18.889,6.546 18.569 L 6.341 18.359 7.407 17.294 L 8.472 16.228 8.776 16.450 C 9.490 16.972,10.306 17.294,11.330 17.459 L 11.480 17.484 11.480 19.002 L 11.480 20.520 11.136 20.520 C 10.798 20.520,10.790 20.522,10.656 20.656 C 10.537 20.775,10.520 20.817,10.520 20.995 C 10.520 21.250,10.657 21.425,10.900 21.481 C 10.988 21.501,11.483 21.518,12.000 21.518 C 12.517 21.518,13.012 21.501,13.100 21.481 C 13.343 21.425,13.480 21.250,13.480 20.995 C 13.480 20.817,13.463 20.775,13.344 20.656 C 13.210 20.522,13.202 20.520,12.864 20.520 L 12.520 20.520 12.520 19.002 L 12.520 17.484 12.650 17.462 C 13.184 17.375,13.344 17.339,13.680 17.232 C 14.156 17.081,14.824 16.743,15.223 16.451 L 15.528 16.228 16.593 17.294 L 17.659 18.359 17.454 18.569 C 17.143 18.889,17.097 19.034,17.221 19.296 C 17.300 19.463,17.471 19.560,17.685 19.560 C 17.857 19.560,17.864 19.554,18.709 18.709 C 19.554 17.864,19.560 17.857,19.560 17.685 C 19.560 17.471,19.463 17.300,19.296 17.221 C 19.034 17.097,18.889 17.143,18.569 17.454 L 18.359 17.659 17.294 16.593 L 16.228 15.528 16.450 15.224 C 16.972 14.510,17.294 13.694,17.459 12.670 L 17.484 12.520 18.982 12.520 L 20.480 12.520 20.482 12.710 C 20.487 13.248,20.643 13.480,21.000 13.480 C 21.262 13.480,21.432 13.339,21.482 13.079 C 21.528 12.839,21.528 11.102,21.481 10.900 C 21.426 10.659,21.249 10.520,21.000 10.520 C 20.642 10.520,20.483 10.755,20.481 11.290 L 20.480 11.520 18.980 11.520 C 18.155 11.520,17.480 11.507,17.480 11.490 C 17.480 11.473,17.452 11.289,17.418 11.080 C 17.295 10.321,16.911 9.406,16.450 8.776 L 16.228 8.472 17.294 7.407 L 18.359 6.341 18.569 6.546 C 18.889 6.857,19.034 6.903,19.296 6.779 C 19.463 6.700,19.560 6.529,19.560 6.315 C 19.560 6.143,19.554 6.136,18.709 5.291 C 17.864 4.446,17.857 4.440,17.685 4.440 C 17.471 4.440,17.300 4.537,17.221 4.704 C 17.097 4.966,17.143 5.111,17.454 5.431 L 17.659 5.641 16.593 6.707 L 15.527 7.773 15.254 7.572 C 14.744 7.199,14.274 6.959,13.679 6.768 C 13.344 6.661,13.185 6.625,12.650 6.538 L 12.520 6.516 12.520 5.018 L 12.520 3.520 12.730 3.519 C 13.247 3.517,13.480 3.354,13.480 2.995 C 13.480 2.817,13.463 2.775,13.344 2.656 L 13.208 2.520 12.000 2.520 L 10.792 2.520 10.656 2.656 M12.826 7.580 C 13.424 7.694,13.980 7.920,14.500 8.259 C 14.804 8.457,15.538 9.189,15.732 9.487 C 16.250 10.282,16.480 11.054,16.480 12.000 C 16.480 12.946,16.250 13.718,15.732 14.513 C 15.538 14.811,14.804 15.543,14.500 15.741 C 13.718 16.252,12.945 16.480,12.001 16.480 C 11.054 16.480,10.285 16.250,9.480 15.727 C 9.188 15.538,8.455 14.801,8.259 14.500 C 7.748 13.717,7.520 12.945,7.520 12.000 C 7.520 11.055,7.748 10.283,8.259 9.500 C 8.455 9.199,9.188 8.462,9.480 8.272 C 9.987 7.942,10.589 7.693,11.145 7.582 C 11.525 7.507,12.437 7.506,12.826 7.580 " stroke="none" fill="black" fill-rule="evenodd"></path></svg>