<svg xmlns="http://www.w3.org/2000/svg" class="icon icon-tabler icon-tabler-volume-3" width="24" height="24" viewBox="0 0 24 24" stroke-width="1" stroke="currentColor" fill="none" stroke-linecap="round" stroke-linejoin="round"><path d="M9.909 3.604 C 9.656 3.663,9.460 3.786,9.263 4.008 C 9.160 4.125,8.329 5.183,7.416 6.360 L 5.756 8.500 4.668 8.520 C 3.584 8.540,3.579 8.540,3.359 8.649 C 3.083 8.784,2.788 9.075,2.659 9.339 C 2.494 9.677,2.474 10.021,2.489 12.221 C 2.502 14.006,2.513 14.285,2.572 14.465 C 2.711 14.884,3.121 15.293,3.535 15.426 C 3.695 15.477,3.964 15.495,4.760 15.510 L 5.780 15.529 7.440 17.672 C 8.353 18.850,9.186 19.908,9.292 20.023 C 9.617 20.376,10.090 20.513,10.538 20.382 C 10.961 20.259,11.203 20.050,11.396 19.640 L 11.500 19.420 11.500 12.000 L 11.500 4.580 11.388 4.340 C 11.207 3.955,10.963 3.743,10.559 3.623 C 10.326 3.554,10.142 3.549,9.909 3.604 M10.430 4.653 C 10.471 4.694,10.481 6.122,10.481 11.973 C 10.481 16.782,10.468 19.268,10.441 19.318 C 10.391 19.412,10.191 19.459,10.085 19.403 C 10.041 19.379,9.964 19.302,9.914 19.230 C 9.641 18.845,6.451 14.760,6.336 14.650 L 6.201 14.520 5.131 14.519 C 4.542 14.519,3.988 14.501,3.900 14.481 C 3.804 14.459,3.696 14.395,3.630 14.321 L 3.520 14.199 3.520 12.000 L 3.520 9.801 3.637 9.671 L 3.753 9.540 4.948 9.520 C 5.982 9.503,6.158 9.491,6.247 9.432 C 6.304 9.395,7.149 8.334,8.125 7.075 C 9.101 5.815,9.950 4.732,10.012 4.668 C 10.105 4.570,10.144 4.555,10.251 4.576 C 10.321 4.590,10.402 4.625,10.430 4.653 M15.656 9.656 C 15.536 9.776,15.520 9.816,15.520 10.004 L 15.520 10.216 16.409 11.108 L 17.298 12.000 16.409 12.892 L 15.520 13.784 15.520 13.996 C 15.520 14.184,15.536 14.224,15.656 14.344 C 15.776 14.464,15.816 14.480,16.004 14.480 L 16.216 14.480 17.108 13.591 L 18.000 12.702 18.892 13.591 L 19.784 14.480 19.996 14.480 C 20.184 14.480,20.224 14.464,20.344 14.344 C 20.464 14.224,20.480 14.184,20.480 13.996 L 20.480 13.784 19.591 12.892 L 18.702 12.000 19.591 11.108 L 20.480 10.216 20.480 10.004 C 20.480 9.816,20.464 9.776,20.344 9.656 C 20.224 9.536,20.184 9.520,19.996 9.520 L 19.784 9.520 18.892 10.409 L 18.000 11.298 17.108 10.409 L 16.216 9.520 16.004 9.520 C 15.816 9.520,15.776 9.536,15.656 9.656 " stroke="none" fill="black" fill-rule="evenodd"></path></svg>