<svg xmlns="http://www.w3.org/2000/svg" class="icon icon-tabler icon-tabler-volume" width="24" height="24" viewBox="0 0 24 24" stroke-width="1" stroke="currentColor" fill="none" stroke-linecap="round" stroke-linejoin="round"><path d="M9.909 3.604 C 9.656 3.663,9.460 3.786,9.263 4.008 C 9.160 4.125,8.329 5.183,7.416 6.360 L 5.756 8.500 4.668 8.520 C 3.584 8.540,3.579 8.540,3.359 8.649 C 3.083 8.784,2.788 9.075,2.659 9.339 C 2.494 9.677,2.474 10.021,2.489 12.221 C 2.502 14.006,2.513 14.285,2.572 14.465 C 2.711 14.884,3.121 15.293,3.535 15.426 C 3.695 15.477,3.964 15.495,4.760 15.510 L 5.780 15.529 7.440 17.672 C 8.353 18.850,9.186 19.908,9.292 20.023 C 9.617 20.376,10.090 20.513,10.538 20.382 C 10.961 20.259,11.203 20.050,11.396 19.640 L 11.500 19.420 11.500 12.000 L 11.500 4.580 11.388 4.340 C 11.207 3.955,10.963 3.743,10.559 3.623 C 10.326 3.554,10.142 3.549,9.909 3.604 M17.435 4.580 C 17.320 4.643,17.200 4.860,17.200 5.007 C 17.200 5.166,17.325 5.336,17.660 5.630 C 18.530 6.396,19.170 7.241,19.683 8.300 C 20.268 9.510,20.528 10.648,20.528 12.000 C 20.528 13.352,20.268 14.490,19.683 15.700 C 19.170 16.759,18.530 17.604,17.660 18.370 C 17.202 18.774,17.127 18.935,17.265 19.226 C 17.383 19.475,17.731 19.559,17.989 19.401 C 18.184 19.282,19.013 18.467,19.353 18.060 C 20.467 16.728,21.233 14.968,21.461 13.220 C 21.550 12.537,21.550 11.463,21.461 10.780 C 21.237 9.058,20.516 7.379,19.418 6.019 C 19.096 5.620,18.196 4.725,17.991 4.600 C 17.838 4.507,17.587 4.498,17.435 4.580 M10.430 4.653 C 10.471 4.694,10.481 6.122,10.481 11.973 C 10.481 16.782,10.468 19.268,10.441 19.318 C 10.391 19.412,10.191 19.459,10.085 19.403 C 10.041 19.379,9.964 19.302,9.914 19.230 C 9.641 18.845,6.451 14.760,6.336 14.650 L 6.201 14.520 5.131 14.519 C 4.542 14.519,3.988 14.501,3.900 14.481 C 3.804 14.459,3.696 14.395,3.630 14.321 L 3.520 14.199 3.520 12.000 L 3.520 9.801 3.637 9.671 L 3.753 9.540 4.948 9.520 C 5.982 9.503,6.158 9.491,6.247 9.432 C 6.304 9.395,7.149 8.334,8.125 7.075 C 9.101 5.815,9.950 4.732,10.012 4.668 C 10.105 4.570,10.144 4.555,10.251 4.576 C 10.321 4.590,10.402 4.625,10.430 4.653 M14.656 7.656 C 14.541 7.771,14.520 7.821,14.520 7.973 C 14.520 8.227,14.535 8.252,14.854 8.523 C 15.681 9.225,16.225 10.145,16.420 11.170 C 16.498 11.582,16.498 12.418,16.420 12.830 C 16.221 13.879,15.720 14.711,14.790 15.541 C 14.521 15.781,14.520 15.782,14.520 15.995 C 14.520 16.184,14.535 16.223,14.656 16.344 C 14.775 16.463,14.818 16.480,14.994 16.480 C 15.180 16.480,15.217 16.462,15.494 16.240 C 16.475 15.451,17.203 14.194,17.417 12.923 C 17.499 12.435,17.499 11.565,17.417 11.077 C 17.203 9.806,16.475 8.549,15.494 7.760 C 15.217 7.538,15.180 7.520,14.994 7.520 C 14.818 7.520,14.775 7.537,14.656 7.656 " stroke="none" fill="black" fill-rule="evenodd"></path></svg>