<svg xmlns="http://www.w3.org/2000/svg" class="icon icon-tabler icon-tabler-wallet" width="24" height="24" viewBox="0 0 24 24" stroke-width="1" stroke="currentColor" fill="none" stroke-linecap="round" stroke-linejoin="round"><path d="M5.274 3.615 C 4.870 3.734,4.561 3.922,4.242 4.242 C 3.922 4.561,3.739 4.864,3.603 5.294 L 3.500 5.620 3.500 11.980 C 3.500 17.982,3.504 18.354,3.572 18.593 C 3.840 19.538,4.464 20.163,5.400 20.427 C 5.647 20.496,5.975 20.500,11.940 20.500 C 17.788 20.500,18.235 20.495,18.444 20.431 C 18.875 20.297,19.288 19.891,19.427 19.465 C 19.482 19.295,19.496 19.029,19.510 17.895 L 19.527 16.531 19.845 16.509 C 20.186 16.486,20.312 16.430,20.429 16.251 C 20.494 16.153,20.501 15.976,20.513 14.182 C 20.519 13.103,20.513 12.122,20.499 12.002 C 20.478 11.828,20.445 11.757,20.340 11.652 C 20.211 11.523,20.200 11.520,19.864 11.520 L 19.520 11.520 19.519 10.310 C 19.518 8.982,19.487 8.641,19.341 8.339 C 19.212 8.075,18.918 7.784,18.641 7.649 C 18.449 7.555,18.361 7.538,17.974 7.526 L 17.527 7.512 17.510 6.126 C 17.492 4.579,17.478 4.490,17.216 4.135 C 17.030 3.885,16.768 3.684,16.507 3.594 C 16.312 3.527,15.982 3.523,10.940 3.523 L 5.580 3.524 5.274 3.615 M16.344 4.656 L 16.480 4.792 16.480 6.156 L 16.480 7.520 11.290 7.519 C 8.049 7.519,5.995 7.503,5.820 7.478 C 5.464 7.428,5.188 7.293,4.947 7.053 C 4.655 6.761,4.543 6.495,4.526 6.060 C 4.516 5.772,4.529 5.657,4.593 5.488 C 4.744 5.093,5.080 4.750,5.468 4.599 C 5.652 4.527,5.873 4.524,10.934 4.522 L 16.208 4.520 16.344 4.656 M4.747 8.158 C 5.017 8.323,5.399 8.441,5.799 8.483 C 5.986 8.502,8.855 8.519,12.174 8.519 L 18.208 8.520 18.344 8.656 L 18.480 8.792 18.480 10.156 L 18.480 11.520 17.045 11.520 C 15.661 11.520,15.597 11.523,15.288 11.613 C 14.873 11.733,14.567 11.917,14.242 12.241 C 13.718 12.764,13.500 13.331,13.528 14.098 C 13.541 14.445,13.568 14.604,13.650 14.835 C 13.982 15.764,14.778 16.375,15.794 16.482 C 15.984 16.502,16.667 16.519,17.310 16.519 L 18.480 16.520 18.480 17.859 L 18.480 19.199 18.370 19.321 C 18.304 19.395,18.196 19.459,18.100 19.481 C 17.876 19.533,6.183 19.530,5.820 19.478 C 5.666 19.456,5.449 19.394,5.339 19.341 C 5.075 19.212,4.784 18.918,4.649 18.641 L 4.540 18.420 4.530 13.230 C 4.524 10.376,4.527 8.040,4.537 8.040 C 4.547 8.040,4.641 8.093,4.747 8.158 M19.480 14.015 L 19.480 15.510 17.810 15.517 C 16.013 15.523,15.664 15.498,15.339 15.341 C 15.075 15.212,14.784 14.918,14.649 14.641 C 14.499 14.337,14.474 13.802,14.593 13.488 C 14.744 13.093,15.080 12.750,15.468 12.599 C 15.646 12.529,15.800 12.524,17.570 12.522 L 19.480 12.520 19.480 14.015 " stroke="none" fill="black" fill-rule="evenodd"></path></svg>