<svg xmlns="http://www.w3.org/2000/svg" class="icon icon-tabler icon-tabler-wand" width="24" height="24" viewBox="0 0 24 24" stroke-width="1" stroke="currentColor" fill="none" stroke-linecap="round" stroke-linejoin="round"><path d="M8.705 2.603 C 8.558 2.719,8.533 2.779,8.483 3.136 C 8.426 3.544,8.331 3.751,8.077 4.020 C 7.817 4.295,7.551 4.426,7.141 4.483 C 6.779 4.533,6.719 4.557,6.603 4.705 C 6.544 4.780,6.520 4.869,6.520 5.009 C 6.520 5.181,6.538 5.226,6.652 5.340 C 6.762 5.450,6.824 5.476,7.022 5.497 C 7.566 5.554,7.929 5.748,8.214 6.133 C 8.372 6.347,8.458 6.599,8.501 6.978 C 8.523 7.175,8.551 7.239,8.660 7.348 C 8.775 7.463,8.818 7.480,9.000 7.480 C 9.182 7.480,9.225 7.463,9.340 7.348 C 9.450 7.238,9.476 7.176,9.497 6.978 C 9.535 6.615,9.627 6.348,9.788 6.131 C 10.071 5.748,10.435 5.554,10.978 5.497 C 11.176 5.476,11.238 5.450,11.348 5.340 C 11.463 5.225,11.480 5.182,11.480 5.000 C 11.480 4.818,11.463 4.775,11.348 4.660 C 11.239 4.551,11.175 4.523,10.978 4.501 C 10.599 4.458,10.347 4.372,10.133 4.214 C 9.748 3.929,9.554 3.566,9.497 3.022 C 9.476 2.824,9.450 2.762,9.340 2.652 C 9.226 2.538,9.181 2.520,9.009 2.520 C 8.869 2.520,8.780 2.544,8.705 2.603 M10.150 10.150 L 2.520 17.780 2.520 18.000 L 2.520 18.219 4.151 19.849 L 5.781 21.480 6.000 21.480 L 6.220 21.480 13.850 13.850 L 21.480 6.220 21.480 6.000 L 21.480 5.781 19.849 4.151 L 18.219 2.520 18.000 2.520 L 17.780 2.520 10.150 10.150 M19.160 4.860 L 20.300 6.000 19.150 7.150 L 18.000 8.300 16.850 7.150 L 15.700 6.000 16.840 4.860 C 17.467 4.233,17.989 3.720,18.000 3.720 C 18.011 3.720,18.533 4.233,19.160 4.860 M9.234 4.760 L 9.474 5.000 9.237 5.237 L 9.000 5.474 8.763 5.237 L 8.526 5.000 8.753 4.764 C 8.878 4.635,8.983 4.527,8.987 4.525 C 8.991 4.522,9.102 4.628,9.234 4.760 M16.160 7.860 L 17.300 9.000 11.650 14.650 L 6.000 20.300 4.850 19.150 L 3.700 18.000 9.340 12.360 C 12.442 9.258,14.989 6.720,15.000 6.720 C 15.011 6.720,15.533 7.233,16.160 7.860 M18.705 12.603 C 18.558 12.719,18.533 12.779,18.483 13.136 C 18.426 13.544,18.331 13.751,18.077 14.020 C 17.817 14.295,17.551 14.426,17.141 14.483 C 16.779 14.533,16.719 14.557,16.603 14.705 C 16.544 14.780,16.520 14.869,16.520 15.009 C 16.520 15.181,16.538 15.226,16.652 15.340 C 16.762 15.450,16.824 15.476,17.022 15.497 C 17.566 15.554,17.929 15.748,18.214 16.133 C 18.372 16.347,18.458 16.599,18.501 16.978 C 18.523 17.175,18.551 17.239,18.660 17.348 C 18.775 17.463,18.818 17.480,19.000 17.480 C 19.182 17.480,19.225 17.463,19.340 17.348 C 19.450 17.238,19.476 17.176,19.497 16.978 C 19.535 16.615,19.627 16.348,19.788 16.131 C 20.071 15.748,20.435 15.554,20.978 15.497 C 21.176 15.476,21.238 15.450,21.348 15.340 C 21.463 15.225,21.480 15.182,21.480 15.000 C 21.480 14.818,21.463 14.775,21.348 14.660 C 21.239 14.551,21.175 14.523,20.978 14.501 C 20.599 14.458,20.347 14.372,20.133 14.214 C 19.748 13.929,19.554 13.566,19.497 13.022 C 19.476 12.824,19.450 12.762,19.340 12.652 C 19.226 12.538,19.181 12.520,19.009 12.520 C 18.869 12.520,18.780 12.544,18.705 12.603 M19.234 14.760 L 19.474 15.000 19.237 15.237 L 19.000 15.474 18.763 15.237 L 18.526 15.000 18.753 14.764 C 18.878 14.635,18.983 14.527,18.987 14.525 C 18.991 14.522,19.102 14.628,19.234 14.760 " stroke="none" fill="black" fill-rule="evenodd"></path></svg>