<svg xmlns="http://www.w3.org/2000/svg" class="icon icon-tabler icon-tabler-wifi-2" width="24" height="24" viewBox="0 0 24 24" stroke-width="1" stroke="currentColor" fill="none" stroke-linecap="round" stroke-linejoin="round"><path d="M10.820 9.583 C 9.528 9.781,8.378 10.214,7.347 10.890 C 6.725 11.299,6.010 11.908,5.898 12.124 C 5.720 12.468,6.020 12.880,6.409 12.828 C 6.530 12.812,6.634 12.746,6.872 12.533 C 7.580 11.901,8.036 11.592,8.780 11.237 C 9.363 10.959,9.858 10.792,10.520 10.650 C 10.986 10.549,11.087 10.542,12.000 10.542 C 12.912 10.542,13.015 10.549,13.481 10.649 C 14.421 10.851,15.323 11.219,16.080 11.710 C 16.449 11.949,16.655 12.111,17.128 12.533 C 17.366 12.746,17.470 12.812,17.591 12.828 C 17.980 12.880,18.280 12.468,18.102 12.124 C 18.071 12.063,17.934 11.911,17.799 11.786 C 16.515 10.596,14.888 9.823,13.168 9.583 C 12.608 9.505,11.330 9.505,10.820 9.583 M11.145 13.580 C 10.360 13.742,9.677 14.076,9.062 14.597 C 8.739 14.872,8.665 14.997,8.690 15.224 C 8.714 15.434,8.829 15.577,9.026 15.642 C 9.228 15.709,9.365 15.658,9.646 15.415 C 10.008 15.100,10.332 14.897,10.699 14.755 C 11.216 14.556,11.506 14.510,12.140 14.530 C 12.640 14.546,12.741 14.562,13.090 14.679 C 13.530 14.827,13.979 15.088,14.354 15.414 C 14.635 15.658,14.772 15.709,14.974 15.642 C 15.171 15.577,15.286 15.434,15.310 15.224 C 15.336 14.994,15.271 14.890,14.900 14.567 C 14.411 14.142,13.794 13.823,13.088 13.632 C 12.685 13.524,11.564 13.493,11.145 13.580 M11.817 17.535 C 11.618 17.624,11.520 17.781,11.520 18.009 C 11.520 18.182,11.538 18.226,11.656 18.344 C 11.775 18.463,11.818 18.480,11.993 18.480 C 12.239 18.480,12.415 18.351,12.484 18.121 C 12.595 17.753,12.168 17.378,11.817 17.535 " stroke="none" fill="black" fill-rule="evenodd"></path></svg>