<svg xmlns="http://www.w3.org/2000/svg" class="icon icon-tabler icon-tabler-wifi-1" width="24" height="24" viewBox="0 0 24 24" stroke-width="1" stroke="currentColor" fill="none" stroke-linecap="round" stroke-linejoin="round"><path d="M11.145 13.580 C 10.360 13.742,9.677 14.076,9.062 14.597 C 8.739 14.872,8.665 14.997,8.690 15.224 C 8.714 15.434,8.829 15.577,9.026 15.642 C 9.228 15.709,9.365 15.658,9.646 15.415 C 10.008 15.100,10.332 14.897,10.699 14.755 C 11.216 14.556,11.506 14.510,12.140 14.530 C 12.640 14.546,12.741 14.562,13.090 14.679 C 13.530 14.827,13.979 15.088,14.354 15.414 C 14.635 15.658,14.772 15.709,14.974 15.642 C 15.171 15.577,15.286 15.434,15.310 15.224 C 15.336 14.994,15.271 14.890,14.900 14.567 C 14.411 14.142,13.794 13.823,13.088 13.632 C 12.685 13.524,11.564 13.493,11.145 13.580 M11.817 17.535 C 11.618 17.624,11.520 17.781,11.520 18.009 C 11.520 18.182,11.538 18.226,11.656 18.344 C 11.775 18.463,11.818 18.480,11.993 18.480 C 12.239 18.480,12.415 18.351,12.484 18.121 C 12.595 17.753,12.168 17.378,11.817 17.535 " stroke="none" fill="black" fill-rule="evenodd"></path></svg>