<svg xmlns="http://www.w3.org/2000/svg" class="icon icon-tabler icon-tabler-wind" width="24" height="24" viewBox="0 0 24 24" stroke-width="1" stroke="currentColor" fill="none" stroke-linecap="round" stroke-linejoin="round"><path d="M12.804 2.599 C 12.236 2.753,11.769 3.030,11.373 3.449 C 10.976 3.870,10.680 4.440,10.680 4.783 C 10.680 4.940,10.701 4.989,10.816 5.104 C 10.935 5.223,10.978 5.240,11.153 5.240 C 11.411 5.240,11.568 5.116,11.660 4.841 C 11.852 4.263,12.360 3.780,12.974 3.593 C 13.200 3.524,13.320 3.513,13.664 3.528 C 14.053 3.546,14.101 3.557,14.415 3.713 C 14.667 3.838,14.808 3.941,14.985 4.131 C 16.128 5.355,15.408 7.290,13.740 7.479 C 13.518 7.504,11.731 7.519,9.086 7.520 L 4.792 7.520 4.656 7.656 C 4.536 7.776,4.520 7.817,4.520 8.000 C 4.520 8.182,4.537 8.225,4.652 8.340 C 4.757 8.445,4.829 8.478,5.002 8.499 C 5.122 8.514,7.191 8.519,9.600 8.511 C 13.957 8.497,13.982 8.497,14.291 8.410 C 15.359 8.111,16.165 7.301,16.447 6.245 C 16.564 5.810,16.562 5.169,16.444 4.740 C 16.167 3.732,15.452 2.983,14.440 2.639 C 14.056 2.509,13.215 2.488,12.804 2.599 M2.656 11.656 C 2.537 11.775,2.520 11.817,2.520 11.995 C 2.520 12.250,2.657 12.425,2.900 12.481 C 2.995 12.503,6.290 12.518,10.991 12.519 C 18.864 12.520,18.924 12.521,19.164 12.601 C 19.470 12.704,19.688 12.839,19.932 13.075 C 20.928 14.037,20.666 15.667,19.415 16.287 C 19.101 16.443,19.053 16.454,18.664 16.472 C 18.319 16.487,18.200 16.476,17.972 16.406 C 17.361 16.221,16.851 15.735,16.658 15.155 C 16.568 14.884,16.410 14.760,16.153 14.760 C 15.978 14.760,15.935 14.777,15.816 14.896 C 15.701 15.011,15.680 15.060,15.680 15.217 C 15.680 15.606,16.051 16.258,16.517 16.688 C 16.860 17.004,17.143 17.175,17.590 17.335 C 17.923 17.454,17.969 17.460,18.540 17.460 C 19.062 17.460,19.176 17.448,19.420 17.367 C 20.450 17.023,21.159 16.283,21.446 15.252 C 21.563 14.833,21.563 14.189,21.447 13.755 C 21.164 12.694,20.336 11.865,19.295 11.599 C 18.994 11.522,18.813 11.520,10.890 11.520 L 2.792 11.520 2.656 11.656 M3.656 15.656 C 3.537 15.775,3.520 15.817,3.520 15.995 C 3.520 16.250,3.657 16.425,3.900 16.481 C 3.990 16.502,5.346 16.519,6.991 16.519 C 9.833 16.520,9.930 16.522,10.164 16.601 C 10.470 16.704,10.688 16.839,10.932 17.075 C 11.928 18.037,11.666 19.667,10.415 20.287 C 10.101 20.443,10.053 20.454,9.664 20.472 C 9.319 20.487,9.200 20.476,8.972 20.406 C 8.361 20.221,7.851 19.735,7.658 19.155 C 7.568 18.884,7.410 18.760,7.153 18.760 C 6.978 18.760,6.935 18.777,6.816 18.896 C 6.701 19.011,6.680 19.060,6.680 19.217 C 6.680 19.606,7.051 20.258,7.517 20.688 C 7.860 21.004,8.143 21.175,8.590 21.335 C 8.923 21.454,8.969 21.460,9.540 21.460 C 10.062 21.460,10.176 21.448,10.420 21.367 C 11.450 21.023,12.159 20.283,12.446 19.252 C 12.563 18.833,12.563 18.189,12.447 17.755 C 12.164 16.694,11.336 15.865,10.295 15.599 C 10.002 15.524,9.840 15.520,6.890 15.520 L 3.792 15.520 3.656 15.656 " stroke="none" fill="black" fill-rule="evenodd"></path></svg>