<svg xmlns="http://www.w3.org/2000/svg" class="icon icon-tabler icon-tabler-woman" width="24" height="24" viewBox="0 0 24 24" stroke-width="1" stroke="currentColor" fill="none" stroke-linecap="round" stroke-linejoin="round"><path d="M11.274 2.613 C 10.869 2.736,10.560 2.923,10.242 3.241 C 9.718 3.764,9.500 4.331,9.528 5.098 C 9.541 5.446,9.567 5.603,9.652 5.839 C 9.908 6.557,10.492 7.130,11.207 7.364 C 11.459 7.447,11.576 7.460,12.040 7.459 C 12.553 7.457,12.596 7.451,12.900 7.328 C 13.882 6.933,14.480 6.053,14.480 5.000 C 14.480 3.947,13.879 3.061,12.900 2.673 C 12.612 2.559,12.530 2.545,12.080 2.533 C 11.647 2.521,11.539 2.532,11.274 2.613 M12.641 3.649 C 12.924 3.787,13.213 4.076,13.351 4.359 C 13.449 4.557,13.460 4.624,13.460 5.000 C 13.460 5.348,13.445 5.453,13.372 5.610 C 13.250 5.875,12.912 6.218,12.644 6.350 C 12.443 6.449,12.377 6.460,12.000 6.460 C 11.624 6.460,11.557 6.449,11.359 6.351 C 11.076 6.213,10.787 5.924,10.649 5.641 C 10.499 5.337,10.474 4.802,10.593 4.488 C 10.743 4.094,11.077 3.753,11.468 3.597 C 11.766 3.478,12.345 3.503,12.641 3.649 M10.468 10.598 C 9.986 10.789,9.648 11.192,9.540 11.706 C 9.508 11.857,9.040 13.303,8.501 14.920 C 7.836 16.913,7.520 17.914,7.520 18.029 C 7.520 18.247,7.672 18.429,7.900 18.481 C 7.988 18.501,8.380 18.519,8.770 18.519 L 9.480 18.520 9.481 20.230 C 9.481 21.171,9.499 22.012,9.519 22.100 C 9.574 22.341,9.751 22.480,10.000 22.480 C 10.249 22.480,10.426 22.341,10.481 22.100 C 10.529 21.891,10.529 18.109,10.481 17.900 C 10.459 17.804,10.395 17.696,10.321 17.630 L 10.199 17.520 9.459 17.520 C 8.892 17.520,8.720 17.508,8.720 17.470 C 8.720 17.442,9.115 16.234,9.598 14.785 C 10.081 13.337,10.489 12.068,10.504 11.966 C 10.524 11.832,10.569 11.743,10.662 11.650 L 10.792 11.520 12.000 11.520 L 13.208 11.520 13.338 11.650 C 13.431 11.743,13.476 11.832,13.496 11.966 C 13.511 12.068,13.919 13.337,14.402 14.785 C 14.885 16.234,15.280 17.442,15.280 17.470 C 15.280 17.508,15.108 17.520,14.541 17.520 L 13.801 17.520 13.679 17.630 C 13.605 17.696,13.541 17.804,13.519 17.900 C 13.471 18.109,13.471 21.891,13.519 22.100 C 13.574 22.341,13.751 22.480,14.000 22.480 C 14.249 22.480,14.426 22.341,14.481 22.100 C 14.501 22.012,14.519 21.171,14.519 20.230 L 14.520 18.520 15.230 18.519 C 15.620 18.519,16.012 18.501,16.100 18.481 C 16.328 18.429,16.480 18.247,16.480 18.029 C 16.480 17.914,16.164 16.913,15.499 14.920 C 14.960 13.303,14.492 11.857,14.460 11.706 C 14.362 11.238,14.067 10.858,13.640 10.648 L 13.420 10.540 12.040 10.531 C 10.765 10.522,10.645 10.528,10.468 10.598 " stroke="none" fill="black" fill-rule="evenodd"></path></svg>