<svg xmlns="http://www.w3.org/2000/svg" class="icon icon-tabler icon-tabler-world" width="24" height="24" viewBox="0 0 24 24" stroke-width="1" stroke="currentColor" fill="none" stroke-linecap="round" stroke-linejoin="round"><path d="M11.080 2.547 C 9.802 2.691,8.740 3.003,7.664 3.551 C 5.942 4.428,4.427 5.943,3.550 7.666 C 2.844 9.053,2.520 10.415,2.520 12.000 C 2.520 13.513,2.798 14.757,3.438 16.100 C 4.331 17.977,5.856 19.531,7.740 20.482 C 9.091 21.165,10.454 21.485,12.000 21.485 C 12.961 21.484,13.525 21.413,14.424 21.180 C 17.064 20.493,19.305 18.655,20.519 16.180 C 21.189 14.815,21.480 13.549,21.480 12.000 C 21.480 10.487,21.202 9.243,20.562 7.900 C 20.094 6.916,19.521 6.113,18.704 5.296 C 17.337 3.929,15.725 3.060,13.860 2.685 C 13.018 2.515,11.870 2.458,11.080 2.547 M12.463 3.925 C 12.966 4.822,13.443 5.911,13.767 6.900 C 13.900 7.309,14.200 8.411,14.200 8.493 C 14.200 8.508,13.210 8.520,12.000 8.520 C 10.790 8.520,9.800 8.508,9.800 8.493 C 9.800 8.479,9.864 8.213,9.943 7.903 C 10.288 6.539,10.852 5.141,11.568 3.870 L 11.765 3.520 12.000 3.520 L 12.235 3.520 12.463 3.925 M10.520 3.654 C 10.520 3.662,10.369 3.982,10.185 4.364 C 9.614 5.551,9.225 6.626,8.942 7.800 C 8.860 8.141,8.786 8.443,8.777 8.470 C 8.756 8.540,4.280 8.544,4.280 8.473 C 4.280 8.448,4.379 8.240,4.500 8.011 C 5.615 5.904,7.588 4.359,9.932 3.759 C 10.353 3.651,10.520 3.621,10.520 3.654 M13.996 3.741 C 14.621 3.892,15.080 4.059,15.700 4.360 C 17.103 5.041,18.212 6.011,19.113 7.348 C 19.303 7.629,19.720 8.403,19.720 8.473 C 19.720 8.544,15.244 8.540,15.223 8.470 C 15.214 8.443,15.140 8.141,15.058 7.800 C 14.771 6.616,14.385 5.548,13.815 4.364 C 13.631 3.982,13.480 3.662,13.480 3.654 C 13.480 3.624,13.593 3.643,13.996 3.741 M8.585 9.630 C 8.409 10.550,8.408 13.205,8.584 14.370 L 8.607 14.520 6.245 14.520 L 3.883 14.520 3.820 14.310 C 3.733 14.015,3.611 13.402,3.562 13.001 C 3.501 12.511,3.511 11.331,3.580 10.848 C 3.637 10.444,3.777 9.788,3.844 9.610 L 3.878 9.520 6.242 9.520 L 8.606 9.520 8.585 9.630 M14.400 9.543 C 14.400 9.556,14.431 9.795,14.469 10.073 C 14.567 10.802,14.568 13.153,14.469 13.914 C 14.431 14.207,14.390 14.464,14.378 14.484 C 14.349 14.530,9.652 14.532,9.623 14.486 C 9.612 14.467,9.571 14.219,9.532 13.936 C 9.432 13.199,9.432 10.806,9.531 10.073 C 9.569 9.795,9.600 9.556,9.600 9.543 C 9.600 9.531,10.680 9.520,12.000 9.520 C 13.320 9.520,14.400 9.531,14.400 9.543 M20.210 9.800 C 20.381 10.425,20.448 10.933,20.469 11.746 C 20.495 12.758,20.405 13.552,20.180 14.310 L 20.117 14.520 17.758 14.520 C 16.461 14.520,15.400 14.509,15.400 14.497 C 15.400 14.484,15.431 14.245,15.468 13.967 C 15.521 13.572,15.537 13.147,15.538 12.040 C 15.540 10.741,15.512 10.216,15.414 9.650 L 15.391 9.519 17.765 9.530 L 20.139 9.540 20.210 9.800 M8.800 15.585 C 8.800 15.712,9.122 16.927,9.295 17.449 C 9.546 18.211,9.803 18.841,10.185 19.636 C 10.370 20.019,10.511 20.342,10.500 20.354 C 10.465 20.388,9.486 20.130,9.080 19.980 C 7.106 19.246,5.469 17.820,4.500 15.989 C 4.379 15.760,4.280 15.561,4.280 15.547 C 4.280 15.532,5.297 15.520,6.540 15.520 C 8.598 15.520,8.800 15.526,8.800 15.585 M14.185 15.590 C 14.175 15.628,14.111 15.877,14.044 16.142 C 13.722 17.420,13.137 18.873,12.463 20.075 L 12.235 20.480 12.000 20.480 L 11.765 20.480 11.568 20.130 C 10.867 18.887,10.282 17.442,9.960 16.160 C 9.891 15.885,9.825 15.628,9.815 15.590 C 9.796 15.524,9.919 15.520,12.000 15.520 C 14.081 15.520,14.204 15.524,14.185 15.590 M19.720 15.547 C 19.720 15.561,19.620 15.762,19.498 15.993 C 18.370 18.123,16.351 19.685,13.980 20.263 C 13.760 20.316,13.553 20.360,13.520 20.360 C 13.477 20.360,13.554 20.169,13.784 19.700 C 14.153 18.948,14.440 18.244,14.703 17.450 C 14.880 16.913,15.200 15.714,15.200 15.585 C 15.200 15.526,15.402 15.520,17.460 15.520 C 18.703 15.520,19.720 15.532,19.720 15.547 " stroke="none" fill="black" fill-rule="evenodd"></path></svg>