<svg xmlns="http://www.w3.org/2000/svg" class="icon icon-tabler icon-tabler-x" width="24" height="24" viewBox="0 0 24 24" stroke-width="1" stroke="currentColor" fill="none" stroke-linecap="round" stroke-linejoin="round"><path d="M5.656 5.656 C 5.535 5.777,5.520 5.816,5.520 6.005 L 5.520 6.219 8.410 9.109 L 11.299 12.000 8.410 14.891 L 5.520 17.781 5.520 17.995 C 5.520 18.184,5.535 18.223,5.656 18.344 C 5.777 18.465,5.816 18.480,6.005 18.480 L 6.219 18.480 9.109 15.590 L 12.000 12.701 14.891 15.590 L 17.781 18.480 17.995 18.480 C 18.184 18.480,18.223 18.465,18.344 18.344 C 18.465 18.223,18.480 18.184,18.480 17.995 L 18.480 17.781 15.590 14.891 L 12.701 12.000 15.590 9.109 L 18.480 6.219 18.480 6.005 C 18.480 5.816,18.465 5.777,18.344 5.656 C 18.223 5.535,18.184 5.520,17.995 5.520 L 17.781 5.520 14.891 8.410 L 12.000 11.299 9.109 8.410 L 6.219 5.520 6.005 5.520 C 5.816 5.520,5.777 5.535,5.656 5.656 " stroke="none" fill="black" fill-rule="evenodd"></path></svg>