<svg xmlns="http://www.w3.org/2000/svg" class="icon icon-tabler icon-tabler-yin-yang" width="24" height="24" viewBox="0 0 24 24" stroke-width="1" stroke="currentColor" fill="none" stroke-linecap="round" stroke-linejoin="round"><path d="M11.560 2.505 C 11.483 2.513,11.222 2.539,10.980 2.564 C 8.158 2.850,5.619 4.417,4.011 6.866 C 3.405 7.789,2.893 9.056,2.679 10.160 C 2.468 11.247,2.468 12.755,2.679 13.840 C 3.019 15.591,3.905 17.278,5.170 18.585 C 7.586 21.080,11.073 22.058,14.424 21.181 C 17.072 20.487,19.305 18.655,20.519 16.180 C 21.189 14.815,21.480 13.549,21.480 12.000 C 21.480 10.487,21.202 9.243,20.562 7.900 C 19.798 6.294,18.506 4.858,16.968 3.907 C 15.792 3.179,14.386 2.696,13.060 2.565 C 12.583 2.517,11.756 2.484,11.560 2.505 M13.160 3.581 C 14.081 3.712,14.852 3.948,15.700 4.360 C 16.622 4.807,17.277 5.273,18.002 5.998 C 19.251 7.248,20.028 8.728,20.365 10.500 C 20.470 11.053,20.512 12.362,20.444 12.946 C 20.167 15.298,18.937 17.439,17.071 18.813 C 16.684 19.098,16.073 19.486,16.049 19.463 C 16.043 19.456,16.107 19.344,16.193 19.215 C 16.516 18.728,16.767 18.116,16.904 17.480 C 17.006 17.006,17.006 15.994,16.904 15.520 C 16.478 13.542,15.051 12.087,13.080 11.620 C 12.937 11.587,12.469 11.533,12.040 11.502 C 11.200 11.440,10.817 11.357,10.318 11.125 C 9.559 10.773,8.881 10.133,8.479 9.388 C 7.262 7.131,8.482 4.308,10.965 3.644 C 11.380 3.532,11.389 3.531,12.100 3.526 C 12.480 3.523,12.911 3.546,13.160 3.581 M7.817 4.764 C 7.501 5.233,7.232 5.887,7.096 6.520 C 7.042 6.769,7.023 7.030,7.023 7.500 C 7.023 8.208,7.080 8.566,7.289 9.160 C 7.707 10.352,8.593 11.369,9.700 11.929 C 10.439 12.303,10.912 12.422,11.960 12.498 C 12.782 12.558,13.156 12.638,13.660 12.861 C 14.243 13.119,14.935 13.706,15.308 14.260 C 16.228 15.628,16.228 17.372,15.308 18.740 C 14.921 19.315,14.225 19.897,13.613 20.157 C 12.978 20.427,12.785 20.460,11.840 20.458 C 10.926 20.456,10.605 20.417,9.840 20.217 C 8.058 19.750,6.386 18.643,5.281 17.199 C 4.433 16.092,3.901 14.896,3.635 13.500 C 3.515 12.874,3.486 11.525,3.577 10.868 C 3.935 8.307,5.417 6.051,7.620 4.717 C 7.795 4.611,7.944 4.530,7.950 4.537 C 7.957 4.543,7.897 4.646,7.817 4.764 M11.617 6.577 C 11.434 6.656,11.207 6.871,11.109 7.056 C 10.988 7.285,10.988 7.715,11.109 7.944 C 11.209 8.134,11.437 8.346,11.626 8.425 C 11.795 8.496,12.205 8.496,12.374 8.425 C 12.563 8.346,12.791 8.134,12.891 7.944 C 12.956 7.821,12.978 7.710,12.978 7.500 C 12.978 7.290,12.956 7.179,12.891 7.056 C 12.791 6.866,12.563 6.654,12.374 6.575 C 12.208 6.505,11.778 6.506,11.617 6.577 M11.617 15.577 C 11.434 15.656,11.207 15.871,11.109 16.056 C 10.988 16.285,10.988 16.715,11.109 16.944 C 11.209 17.134,11.437 17.346,11.626 17.425 C 11.795 17.496,12.205 17.496,12.374 17.425 C 12.563 17.346,12.791 17.134,12.891 16.944 C 12.956 16.821,12.978 16.710,12.978 16.500 C 12.978 16.290,12.956 16.179,12.891 16.056 C 12.791 15.866,12.563 15.654,12.374 15.575 C 12.208 15.505,11.778 15.506,11.617 15.577 " stroke="none" fill="black" fill-rule="evenodd"></path></svg>