<svg xmlns="http://www.w3.org/2000/svg" class="icon icon-tabler icon-tabler-zoom-cancel" width="24" height="24" viewBox="0 0 24 24" stroke-width="1" stroke="currentColor" fill="none" stroke-linecap="round" stroke-linejoin="round"><path d="M8.900 2.583 C 5.617 3.086,3.064 5.648,2.582 8.925 C 2.501 9.479,2.501 10.521,2.582 11.075 C 2.706 11.919,2.952 12.680,3.346 13.441 C 4.460 15.592,6.528 17.066,8.925 17.418 C 9.465 17.497,10.525 17.498,11.076 17.419 C 12.381 17.234,13.702 16.656,14.720 15.824 L 14.940 15.645 17.861 18.562 L 20.781 21.480 20.995 21.480 C 21.184 21.480,21.223 21.465,21.344 21.344 C 21.465 21.223,21.480 21.184,21.480 20.995 L 21.480 20.781 18.562 17.861 L 15.645 14.940 15.824 14.720 C 16.482 13.914,17.014 12.847,17.278 11.805 C 17.550 10.730,17.550 9.270,17.278 8.195 C 17.028 7.206,16.594 6.300,15.981 5.487 C 14.793 3.911,13.014 2.856,11.076 2.581 C 10.556 2.507,9.390 2.508,8.900 2.583 M11.400 3.653 C 14.023 4.280,15.958 6.314,16.401 8.907 C 16.509 9.537,16.509 10.463,16.401 11.093 C 15.997 13.455,14.280 15.441,12.005 16.177 C 10.714 16.594,9.233 16.589,7.959 16.163 C 5.752 15.425,4.151 13.631,3.633 11.314 C 3.551 10.948,3.540 10.795,3.540 10.000 C 3.540 9.205,3.551 9.052,3.633 8.686 C 4.141 6.415,5.727 4.609,7.866 3.866 C 8.223 3.743,8.815 3.598,9.180 3.545 C 9.246 3.535,9.678 3.533,10.140 3.540 C 10.872 3.550,11.034 3.565,11.400 3.653 M7.656 7.656 C 7.536 7.776,7.520 7.816,7.520 8.004 L 7.520 8.216 8.409 9.108 L 9.298 10.000 8.409 10.892 L 7.520 11.784 7.520 11.996 C 7.520 12.184,7.536 12.224,7.656 12.344 C 7.776 12.464,7.816 12.480,8.004 12.480 L 8.216 12.480 9.108 11.591 L 10.000 10.702 10.892 11.591 L 11.784 12.480 11.996 12.480 C 12.184 12.480,12.224 12.464,12.344 12.344 C 12.464 12.224,12.480 12.184,12.480 11.996 L 12.480 11.784 11.591 10.892 L 10.702 10.000 11.591 9.108 L 12.480 8.216 12.480 8.004 C 12.480 7.816,12.464 7.776,12.344 7.656 C 12.224 7.536,12.184 7.520,11.996 7.520 L 11.784 7.520 10.892 8.409 L 10.000 9.298 9.108 8.409 L 8.216 7.520 8.004 7.520 C 7.816 7.520,7.776 7.536,7.656 7.656 " stroke="none" fill="black" fill-rule="evenodd"></path></svg>