<svg xmlns="http://www.w3.org/2000/svg" class="icon icon-tabler icon-tabler-zoom-in" width="24" height="24" viewBox="0 0 24 24" stroke-width="1" stroke="currentColor" fill="none" stroke-linecap="round" stroke-linejoin="round"><path d="M8.900 2.583 C 5.617 3.086,3.064 5.648,2.582 8.925 C 2.501 9.479,2.501 10.521,2.582 11.075 C 2.706 11.919,2.952 12.680,3.346 13.441 C 4.460 15.592,6.528 17.066,8.925 17.418 C 9.465 17.497,10.525 17.498,11.076 17.419 C 12.381 17.234,13.702 16.656,14.720 15.824 L 14.940 15.645 17.861 18.562 L 20.781 21.480 20.995 21.480 C 21.184 21.480,21.223 21.465,21.344 21.344 C 21.465 21.223,21.480 21.184,21.480 20.995 L 21.480 20.781 18.562 17.861 L 15.645 14.940 15.824 14.720 C 16.482 13.914,17.014 12.847,17.278 11.805 C 17.550 10.730,17.550 9.270,17.278 8.195 C 17.028 7.206,16.594 6.300,15.981 5.487 C 14.793 3.911,13.014 2.856,11.076 2.581 C 10.556 2.507,9.390 2.508,8.900 2.583 M11.400 3.653 C 14.023 4.280,15.958 6.314,16.401 8.907 C 16.509 9.537,16.509 10.463,16.401 11.093 C 15.997 13.455,14.280 15.441,12.005 16.177 C 10.714 16.594,9.233 16.589,7.959 16.163 C 5.752 15.425,4.151 13.631,3.633 11.314 C 3.551 10.948,3.540 10.795,3.540 10.000 C 3.540 9.205,3.551 9.052,3.633 8.686 C 4.141 6.415,5.727 4.609,7.866 3.866 C 8.223 3.743,8.815 3.598,9.180 3.545 C 9.246 3.535,9.678 3.533,10.140 3.540 C 10.872 3.550,11.034 3.565,11.400 3.653 M9.679 6.630 C 9.605 6.696,9.541 6.804,9.519 6.900 C 9.499 6.988,9.481 7.614,9.481 8.290 L 9.480 9.520 8.136 9.520 L 6.792 9.520 6.656 9.656 C 6.537 9.775,6.520 9.817,6.520 9.995 C 6.520 10.250,6.657 10.425,6.900 10.481 C 6.988 10.501,7.605 10.519,8.270 10.519 L 9.480 10.520 9.481 11.730 C 9.481 12.396,9.499 13.012,9.519 13.100 C 9.574 13.341,9.751 13.480,10.000 13.480 C 10.249 13.480,10.426 13.341,10.481 13.100 C 10.501 13.012,10.519 12.396,10.519 11.730 L 10.520 10.520 11.730 10.519 C 12.396 10.519,13.012 10.501,13.100 10.481 C 13.343 10.425,13.480 10.250,13.480 9.995 C 13.480 9.817,13.463 9.775,13.344 9.656 L 13.208 9.520 11.864 9.520 L 10.520 9.520 10.519 8.290 C 10.519 7.614,10.501 6.988,10.481 6.900 C 10.426 6.659,10.249 6.520,10.000 6.520 C 9.840 6.520,9.778 6.541,9.679 6.630 " stroke="none" fill="black" fill-rule="evenodd"></path></svg>